<?xml version="1.0" encoding="UTF-8" standalone="no"?>
<?xml-stylesheet href="spot.css" type="text/css"?>
<!DOCTYPE svg PUBLIC "-//W3C//DTD SVG 1.1//EN"
 "http://www.w3.org/Graphics/SVG/1.1/DTD/svg11.dtd">
<!-- Generated by graphviz version 2.40.1 (20161225.0304)
 -->
<!-- Title: F(GFb | G!a) Pages: 1 -->
<svg width="298pt" height="310pt"
 viewBox="0.00 0.00 298.00 310.04" xmlns="http://www.w3.org/2000/svg" xmlns:xlink="http://www.w3.org/1999/xlink">
<g id="graph0" class="graph" transform="scale(1 1) rotate(0) translate(4 306.0374)">
<title>F(GFb | G!a)</title>
<polygon fill="#ffffff" stroke="transparent" points="-4,4 -4,-306.0374 294,-306.0374 294,4 -4,4"/>
<text text-anchor="start" x="126" y="-275.4374" font-family="Lato" font-size="12.00" fill="#000000">[Büchi]</text>
<!-- I -->
<!-- 0 -->
<g id="node2" class="node">
<title>0</title>
<ellipse fill="#ffffa0" stroke="#000000" cx="56" cy="-111.6374" rx="18" ry="18"/>
<text text-anchor="middle" x="56" y="-108.5374" font-family="Lato" font-size="12.00" fill="#000000">0</text>
</g>
<!-- I&#45;&gt;0 -->
<g id="edge1" class="edge">
<title>I&#45;&gt;0</title>
<path fill="none" stroke="#000000" d="M1.1233,-111.6374C4.178,-111.6374 17.9448,-111.6374 30.9241,-111.6374"/>
<polygon fill="#000000" stroke="#000000" points="37.9807,-111.6374 30.9808,-114.7875 34.4807,-111.6374 30.9807,-111.6375 30.9807,-111.6375 30.9807,-111.6375 34.4807,-111.6374 30.9807,-108.4875 37.9807,-111.6374 37.9807,-111.6374"/>
</g>
<!-- 1 -->
<g id="node3" class="node">
<title>1</title>
<ellipse fill="#ffffa0" stroke="#000000" cx="154" cy="-186.6374" rx="18" ry="18"/>
<ellipse fill="none" stroke="#000000" cx="154" cy="-186.6374" rx="22" ry="22"/>
<text text-anchor="middle" x="154" y="-183.5374" font-family="Lato" font-size="12.00" fill="#000000">1</text>
</g>
<!-- 0&#45;&gt;1 -->
<g id="edge2" class="edge">
<title>0&#45;&gt;1</title>
<path fill="none" stroke="#000000" d="M68.3363,-125.3741C74.9997,-132.4207 83.5709,-140.912 92,-147.6374 103.3224,-156.6713 116.8436,-165.3871 128.3654,-172.2793"/>
<polygon fill="#000000" stroke="#000000" points="134.5341,-175.9112 126.9037,-175.0741 131.518,-174.1354 128.5019,-172.3597 128.5019,-172.3597 128.5019,-172.3597 131.518,-174.1354 130.1001,-169.6452 134.5341,-175.9112 134.5341,-175.9112"/>
<text text-anchor="middle" x="103" y="-166.0374" font-family="Lato" font-size="12.00" fill="#000000">1</text>
</g>
<!-- 2 -->
<g id="node4" class="node">
<title>2</title>
<ellipse fill="#ffffa0" stroke="#000000" cx="154" cy="-48.6374" rx="18" ry="18"/>
<text text-anchor="middle" x="154" y="-45.5374" font-family="Lato" font-size="12.00" fill="#000000">2</text>
</g>
<!-- 0&#45;&gt;2 -->
<g id="edge3" class="edge">
<title>0&#45;&gt;2</title>
<path fill="none" stroke="#000000" d="M71.3125,-101.7936C87.8535,-91.1601 114.3213,-74.1451 132.8439,-62.2378"/>
<polygon fill="#000000" stroke="#000000" points="138.795,-58.412 134.6102,-64.8471 135.8509,-60.3047 132.9068,-62.1974 132.9068,-62.1974 132.9068,-62.1974 135.8509,-60.3047 131.2034,-59.5476 138.795,-58.412 138.795,-58.412"/>
<text text-anchor="start" x="92" y="-90.0374" font-family="Lato" font-size="12.00" fill="#000000">a | b</text>
</g>
<!-- 3 -->
<g id="node5" class="node">
<title>3</title>
<ellipse fill="#ffffa0" stroke="#000000" cx="268" cy="-32.6374" rx="18" ry="18"/>
<text text-anchor="middle" x="268" y="-29.5374" font-family="Lato" font-size="12.00" fill="#000000">3</text>
</g>
<!-- 0&#45;&gt;3 -->
<g id="edge4" class="edge">
<title>0&#45;&gt;3</title>
<path fill="none" stroke="#000000" d="M62.6763,-94.5606C73.2251,-70.2636 96.292,-26.6661 132,-8.6374 168.8544,9.9701 217.6616,-7.3132 245.6672,-20.6231"/>
<polygon fill="#000000" stroke="#000000" points="251.9848,-23.7271 244.3131,-23.4674 248.8435,-22.1836 245.7022,-20.6402 245.7022,-20.6402 245.7022,-20.6402 248.8435,-22.1836 247.0913,-17.813 251.9848,-23.7271 251.9848,-23.7271"/>
<text text-anchor="start" x="137" y="-12.0374" font-family="Lato" font-size="12.00" fill="#000000">!a &amp; !b</text>
</g>
<!-- 4 -->
<g id="node6" class="node">
<title>4</title>
<ellipse fill="#ffffa0" stroke="#000000" cx="268" cy="-127.6374" rx="18" ry="18"/>
<ellipse fill="none" stroke="#000000" cx="268" cy="-127.6374" rx="22" ry="22"/>
<text text-anchor="middle" x="268" y="-124.5374" font-family="Lato" font-size="12.00" fill="#000000">4</text>
</g>
<!-- 0&#45;&gt;4 -->
<g id="edge5" class="edge">
<title>0&#45;&gt;4</title>
<path fill="none" stroke="#000000" d="M74.075,-113.0015C110.7825,-115.7719 194.3416,-122.0783 238.8425,-125.4368"/>
<polygon fill="#000000" stroke="#000000" points="245.8967,-125.9692 238.6794,-128.5834 242.4066,-125.7058 238.9165,-125.4423 238.9165,-125.4423 238.9165,-125.4423 242.4066,-125.7058 239.1536,-122.3012 245.8967,-125.9692 245.8967,-125.9692"/>
<text text-anchor="start" x="137" y="-123.0374" font-family="Lato" font-size="12.00" fill="#000000">!a &amp; !b</text>
</g>
<!-- 1&#45;&gt;1 -->
<g id="edge6" class="edge">
<title>1&#45;&gt;1</title>
<path fill="none" stroke="#000000" d="M144.9546,-206.8071C143.563,-217.2363 146.5781,-226.6374 154,-226.6374 159.6824,-226.6374 162.7816,-221.1267 163.2977,-213.8629"/>
<polygon fill="#000000" stroke="#000000" points="163.0454,-206.8071 166.4436,-213.69 163.1705,-210.3048 163.2956,-213.8026 163.2956,-213.8026 163.2956,-213.8026 163.1705,-210.3048 160.1476,-213.9152 163.0454,-206.8071 163.0454,-206.8071"/>
<text text-anchor="start" x="150.5" y="-230.0374" font-family="Lato" font-size="12.00" fill="#000000">b</text>
</g>
<!-- 5 -->
<g id="node7" class="node">
<title>5</title>
<ellipse fill="#ffffa0" stroke="#000000" cx="268" cy="-217.6374" rx="18" ry="18"/>
<text text-anchor="middle" x="268" y="-214.5374" font-family="Lato" font-size="12.00" fill="#000000">5</text>
</g>
<!-- 1&#45;&gt;5 -->
<g id="edge7" class="edge">
<title>1&#45;&gt;5</title>
<path fill="none" stroke="#000000" d="M175.1284,-193.1486C181.2059,-194.9746 187.8533,-196.927 194,-198.6374 210.3225,-203.1792 228.7797,-207.919 243.1775,-211.5284"/>
<polygon fill="#000000" stroke="#000000" points="250.3039,-213.3058 242.7496,-214.6681 246.9079,-212.4587 243.512,-211.6117 243.512,-211.6117 243.512,-211.6117 246.9079,-212.4587 244.2743,-208.5553 250.3039,-213.3058 250.3039,-213.3058"/>
<text text-anchor="start" x="206" y="-210.0374" font-family="Lato" font-size="12.00" fill="#000000">!b</text>
</g>
<!-- 2&#45;&gt;2 -->
<g id="edge8" class="edge">
<title>2&#45;&gt;2</title>
<path fill="none" stroke="#000000" d="M145.3666,-64.5534C143.1144,-74.7878 145.9922,-84.6374 154,-84.6374 160.131,-84.6374 163.2548,-78.8637 163.3716,-71.5642"/>
<polygon fill="#000000" stroke="#000000" points="162.6334,-64.5534 166.4992,-71.185 163,-68.0342 163.3665,-71.5149 163.3665,-71.5149 163.3665,-71.5149 163,-68.0342 160.2338,-71.8448 162.6334,-64.5534 162.6334,-64.5534"/>
<text text-anchor="start" x="143" y="-88.0374" font-family="Lato" font-size="12.00" fill="#000000">a | b</text>
</g>
<!-- 2&#45;&gt;3 -->
<g id="edge9" class="edge">
<title>2&#45;&gt;3</title>
<path fill="none" stroke="#000000" d="M172.1057,-49.6963C187.188,-50.2098 209.1664,-50.1005 228,-46.6374 233.3729,-45.6494 238.994,-44.0568 244.2673,-42.2935"/>
<polygon fill="#000000" stroke="#000000" points="251.1867,-39.8238 245.653,-45.1436 247.8904,-41.0003 244.5941,-42.1769 244.5941,-42.1769 244.5941,-42.1769 247.8904,-41.0003 243.5352,-39.2102 251.1867,-39.8238 251.1867,-39.8238"/>
<text text-anchor="start" x="194" y="-54.0374" font-family="Lato" font-size="12.00" fill="#000000">!a &amp; !b</text>
</g>
<!-- 2&#45;&gt;4 -->
<g id="edge10" class="edge">
<title>2&#45;&gt;4</title>
<path fill="none" stroke="#000000" d="M168.9035,-58.9653C187.9621,-72.1725 221.2071,-95.2107 243.8896,-110.9293"/>
<polygon fill="#000000" stroke="#000000" points="249.6997,-114.9556 242.152,-113.5576 246.823,-112.9621 243.9462,-110.9685 243.9462,-110.9685 243.9462,-110.9685 246.823,-112.9621 245.7404,-108.3794 249.6997,-114.9556 249.6997,-114.9556"/>
<text text-anchor="start" x="194" y="-103.0374" font-family="Lato" font-size="12.00" fill="#000000">!a &amp; !b</text>
</g>
<!-- 3&#45;&gt;2 -->
<g id="edge11" class="edge">
<title>3&#45;&gt;2</title>
<path fill="none" stroke="#000000" d="M250.1223,-29.3388C234.9867,-27.155 212.8145,-25.396 194,-29.6374 187.9626,-30.9984 181.767,-33.3822 176.1095,-36.011"/>
<polygon fill="#000000" stroke="#000000" points="169.7572,-39.1628 174.6277,-33.2297 172.8925,-37.6072 176.0278,-36.0515 176.0278,-36.0515 176.0278,-36.0515 172.8925,-37.6072 177.4279,-38.8732 169.7572,-39.1628 169.7572,-39.1628"/>
<text text-anchor="start" x="200" y="-33.0374" font-family="Lato" font-size="12.00" fill="#000000">a | b</text>
</g>
<!-- 3&#45;&gt;3 -->
<g id="edge12" class="edge">
<title>3&#45;&gt;3</title>
<path fill="none" stroke="#000000" d="M258.4254,-48.1788C255.7303,-58.5461 258.9219,-68.6374 268,-68.6374 274.9504,-68.6374 278.4503,-62.722 278.4995,-55.2965"/>
<polygon fill="#000000" stroke="#000000" points="277.5746,-48.1788 281.6004,-54.7145 278.0256,-51.6497 278.4767,-55.1205 278.4767,-55.1205 278.4767,-55.1205 278.0256,-51.6497 275.353,-55.5264 277.5746,-48.1788 277.5746,-48.1788"/>
<text text-anchor="start" x="251" y="-72.0374" font-family="Lato" font-size="12.00" fill="#000000">!a &amp; !b</text>
</g>
<!-- 4&#45;&gt;4 -->
<g id="edge13" class="edge">
<title>4&#45;&gt;4</title>
<path fill="none" stroke="#000000" d="M257.9332,-147.3949C256.2225,-157.9873 259.5781,-167.6374 268,-167.6374 274.448,-167.6374 277.9262,-161.9807 278.4347,-154.5753"/>
<polygon fill="#000000" stroke="#000000" points="278.0668,-147.3949 281.571,-154.2245 278.2459,-150.8903 278.4251,-154.3857 278.4251,-154.3857 278.4251,-154.3857 278.2459,-150.8903 275.2792,-154.5469 278.0668,-147.3949 278.0668,-147.3949"/>
<text text-anchor="start" x="251" y="-171.0374" font-family="Lato" font-size="12.00" fill="#000000">!a &amp; !b</text>
</g>
<!-- 5&#45;&gt;1 -->
<g id="edge14" class="edge">
<title>5&#45;&gt;1</title>
<path fill="none" stroke="#000000" d="M256.7096,-203.2215C249.4772,-195.2042 239.3394,-185.9887 228,-181.6374 213.6678,-176.1376 196.6358,-176.8447 182.5269,-179.1703"/>
<polygon fill="#000000" stroke="#000000" points="175.4451,-180.5097 181.7377,-176.1136 178.8841,-179.8592 182.3232,-179.2088 182.3232,-179.2088 182.3232,-179.2088 178.8841,-179.8592 182.9086,-182.3039 175.4451,-180.5097 175.4451,-180.5097"/>
<text text-anchor="start" x="207.5" y="-185.0374" font-family="Lato" font-size="12.00" fill="#000000">b</text>
</g>
<!-- 5&#45;&gt;5 -->
<g id="edge15" class="edge">
<title>5&#45;&gt;5</title>
<path fill="none" stroke="#000000" d="M258.4254,-233.1788C255.7303,-243.5461 258.9219,-253.6374 268,-253.6374 274.9504,-253.6374 278.4503,-247.722 278.4995,-240.2965"/>
<polygon fill="#000000" stroke="#000000" points="277.5746,-233.1788 281.6004,-239.7145 278.0256,-236.6497 278.4767,-240.1205 278.4767,-240.1205 278.4767,-240.1205 278.0256,-236.6497 275.353,-240.5264 277.5746,-233.1788 277.5746,-233.1788"/>
<text text-anchor="start" x="263" y="-257.0374" font-family="Lato" font-size="12.00" fill="#000000">!b</text>
</g>
</g>
</svg>
