<?xml version="1.0" encoding="UTF-8" standalone="no"?>
<?xml-stylesheet href="spot.css" type="text/css"?>
<!DOCTYPE svg PUBLIC "-//W3C//DTD SVG 1.1//EN"
 "http://www.w3.org/Graphics/SVG/1.1/DTD/svg11.dtd">
<!-- Generated by graphviz version 2.40.1 (20161225.0304)
 -->
<!-- Title: F(GFb | G!a) Pages: 1 -->
<svg width="254pt" height="211pt"
 viewBox="0.00 0.00 254.00 211.40" xmlns="http://www.w3.org/2000/svg" xmlns:xlink="http://www.w3.org/1999/xlink">
<g id="graph0" class="graph" transform="scale(1 1) rotate(0) translate(4 207.4)">
<title>F(GFb | G!a)</title>
<polygon fill="#ffffff" stroke="transparent" points="-4,4 -4,-207.4 250,-207.4 250,4 -4,4"/>
<text text-anchor="start" x="104" y="-176.8" font-family="Lato" font-size="12.00" fill="#000000">[Büchi]</text>
<!-- I -->
<!-- 0 -->
<g id="node2" class="node">
<title>0</title>
<ellipse fill="#ffffa0" stroke="#000000" cx="56" cy="-68" rx="18" ry="18"/>
<text text-anchor="middle" x="56" y="-64.9" font-family="Lato" font-size="12.00" fill="#000000">0</text>
</g>
<!-- I&#45;&gt;0 -->
<g id="edge1" class="edge">
<title>I&#45;&gt;0</title>
<path fill="none" stroke="#000000" d="M1.1233,-68C4.178,-68 17.9448,-68 30.9241,-68"/>
<polygon fill="#000000" stroke="#000000" points="37.9807,-68 30.9808,-71.1501 34.4807,-68 30.9807,-68.0001 30.9807,-68.0001 30.9807,-68.0001 34.4807,-68 30.9807,-64.8501 37.9807,-68 37.9807,-68"/>
</g>
<!-- 0&#45;&gt;0 -->
<g id="edge2" class="edge">
<title>0&#45;&gt;0</title>
<path fill="none" stroke="#000000" d="M49.6208,-85.0373C48.3189,-94.8579 50.4453,-104 56,-104 60.166,-104 62.4036,-98.8576 62.7128,-92.1433"/>
<polygon fill="#000000" stroke="#000000" points="62.3792,-85.0373 65.8541,-91.8818 62.5434,-88.5335 62.7076,-92.0296 62.7076,-92.0296 62.7076,-92.0296 62.5434,-88.5335 59.561,-92.1774 62.3792,-85.0373 62.3792,-85.0373"/>
<text text-anchor="start" x="52.5" y="-107.4" font-family="Lato" font-size="12.00" fill="#000000">1</text>
</g>
<!-- 1 -->
<g id="node3" class="node">
<title>1</title>
<ellipse fill="#ffffa0" stroke="#000000" cx="142" cy="-115" rx="18" ry="18"/>
<ellipse fill="none" stroke="#000000" cx="142" cy="-115" rx="22" ry="22"/>
<text text-anchor="start" x="138.5" y="-111.9" font-family="Lato" font-size="12.00" fill="#000000">1</text>
</g>
<!-- 0&#45;&gt;1 -->
<g id="edge3" class="edge">
<title>0&#45;&gt;1</title>
<path fill="none" stroke="#000000" d="M72.1759,-76.8403C84.5811,-83.6199 101.9453,-93.1097 116.2539,-100.9295"/>
<polygon fill="#000000" stroke="#000000" points="122.5843,-104.3891 114.9311,-103.7962 119.513,-102.7106 116.4418,-101.0321 116.4418,-101.0321 116.4418,-101.0321 119.513,-102.7106 117.9524,-98.2679 122.5843,-104.3891 122.5843,-104.3891"/>
<text text-anchor="start" x="93.5" y="-95.4" font-family="Lato" font-size="12.00" fill="#000000">b</text>
</g>
<!-- 2 -->
<g id="node4" class="node">
<title>2</title>
<ellipse fill="#ffffa0" stroke="#000000" cx="142" cy="-22" rx="18" ry="18"/>
<ellipse fill="none" stroke="#000000" cx="142" cy="-22" rx="22" ry="22"/>
<text text-anchor="middle" x="142" y="-18.9" font-family="Lato" font-size="12.00" fill="#000000">2</text>
</g>
<!-- 0&#45;&gt;2 -->
<g id="edge4" class="edge">
<title>0&#45;&gt;2</title>
<path fill="none" stroke="#000000" d="M72.1759,-59.3478C84.5811,-52.7125 101.9453,-43.4246 116.2539,-35.7712"/>
<polygon fill="#000000" stroke="#000000" points="122.5843,-32.3851 117.8975,-38.4644 119.4981,-34.0359 116.4118,-35.6868 116.4118,-35.6868 116.4118,-35.6868 119.4981,-34.0359 114.9261,-32.9091 122.5843,-32.3851 122.5843,-32.3851"/>
<text text-anchor="start" x="92" y="-51.4" font-family="Lato" font-size="12.00" fill="#000000">!a</text>
</g>
<!-- 1&#45;&gt;1 -->
<g id="edge5" class="edge">
<title>1&#45;&gt;1</title>
<path fill="none" stroke="#000000" d="M133.9937,-135.5808C132.8859,-145.8447 135.5547,-155 142,-155 146.834,-155 149.5437,-149.8502 150.129,-142.9451"/>
<polygon fill="#000000" stroke="#000000" points="150.0063,-135.5808 153.2726,-142.5273 150.0647,-139.0803 150.123,-142.5798 150.123,-142.5798 150.123,-142.5798 150.0647,-139.0803 146.9735,-142.6324 150.0063,-135.5808 150.0063,-135.5808"/>
<text text-anchor="start" x="138.5" y="-158.4" font-family="Lato" font-size="12.00" fill="#000000">b</text>
</g>
<!-- 3 -->
<g id="node5" class="node">
<title>3</title>
<ellipse fill="#ffffa0" stroke="#000000" cx="228" cy="-115" rx="18" ry="18"/>
<text text-anchor="middle" x="228" y="-111.9" font-family="Lato" font-size="12.00" fill="#000000">3</text>
</g>
<!-- 1&#45;&gt;3 -->
<g id="edge6" class="edge">
<title>1&#45;&gt;3</title>
<path fill="none" stroke="#000000" d="M164.1471,-115C175.9344,-115 190.48,-115 202.7097,-115"/>
<polygon fill="#000000" stroke="#000000" points="209.9798,-115 202.9798,-118.1501 206.4798,-115 202.9798,-115.0001 202.9798,-115.0001 202.9798,-115.0001 206.4798,-115 202.9797,-111.8501 209.9798,-115 209.9798,-115"/>
<text text-anchor="start" x="182" y="-118.4" font-family="Lato" font-size="12.00" fill="#000000">!b</text>
</g>
<!-- 2&#45;&gt;2 -->
<g id="edge7" class="edge">
<title>2&#45;&gt;2</title>
<path fill="none" stroke="#000000" d="M133.9937,-42.5808C132.8859,-52.8447 135.5547,-62 142,-62 146.834,-62 149.5437,-56.8502 150.129,-49.9451"/>
<polygon fill="#000000" stroke="#000000" points="150.0063,-42.5808 153.2726,-49.5273 150.0647,-46.0803 150.123,-49.5798 150.123,-49.5798 150.123,-49.5798 150.0647,-46.0803 146.9735,-49.6324 150.0063,-42.5808 150.0063,-42.5808"/>
<text text-anchor="start" x="137" y="-65.4" font-family="Lato" font-size="12.00" fill="#000000">!a</text>
</g>
<!-- 3&#45;&gt;1 -->
<g id="edge8" class="edge">
<title>3&#45;&gt;1</title>
<path fill="none" stroke="#000000" d="M212.4151,-105.8008C206.2707,-102.6734 199.0141,-99.5728 192,-98 183.9175,-96.1876 175.3126,-97.7716 167.5606,-100.5806"/>
<polygon fill="#000000" stroke="#000000" points="160.7207,-103.4423 165.9625,-97.8345 163.9495,-102.0914 167.1783,-100.7404 167.1783,-100.7404 167.1783,-100.7404 163.9495,-102.0914 168.3941,-103.6464 160.7207,-103.4423 160.7207,-103.4423"/>
<text text-anchor="start" x="183.5" y="-101.4" font-family="Lato" font-size="12.00" fill="#000000">b</text>
</g>
<!-- 3&#45;&gt;3 -->
<g id="edge9" class="edge">
<title>3&#45;&gt;3</title>
<path fill="none" stroke="#000000" d="M220.9688,-131.6641C219.4063,-141.625 221.75,-151 228,-151 232.6875,-151 235.1777,-145.7266 235.4707,-138.8876"/>
<polygon fill="#000000" stroke="#000000" points="235.0313,-131.6641 238.6006,-138.4598 235.2438,-135.1576 235.4564,-138.6511 235.4564,-138.6511 235.4564,-138.6511 235.2438,-135.1576 232.3122,-138.8425 235.0313,-131.6641 235.0313,-131.6641"/>
<text text-anchor="start" x="223" y="-154.4" font-family="Lato" font-size="12.00" fill="#000000">!b</text>
</g>
</g>
</svg>
