<?xml version="1.0" encoding="UTF-8" standalone="no"?>
<?xml-stylesheet href="spot.css" type="text/css"?>
<!DOCTYPE svg PUBLIC "-//W3C//DTD SVG 1.1//EN"
 "http://www.w3.org/Graphics/SVG/1.1/DTD/svg11.dtd">
<!-- Generated by graphviz version 2.40.1 (20161225.0304)
 -->
<!-- Title: G Pages: 1 -->
<svg width="546pt" height="228pt"
 viewBox="0.00 0.00 546.47 227.50" xmlns="http://www.w3.org/2000/svg" xmlns:xlink="http://www.w3.org/1999/xlink">
<g id="graph0" class="graph" transform="scale(1 1) rotate(0) translate(4 223.5)">
<title>G</title>
<polygon fill="#ffffff" stroke="transparent" points="-4,4 -4,-223.5 542.468,-223.5 542.468,4 -4,4"/>
<!-- &#45;1 -->
<!-- 1 -->
<g id="node2" class="node">
<title>1</title>
<polygon fill="#ffffa0" stroke="#000000" points="172,-123.5 118,-123.5 118,-87.5 172,-87.5 172,-123.5"/>
<text text-anchor="middle" x="145" y="-108.9" font-family="Lato" font-size="12.00" fill="#000000">2</text>
<text text-anchor="middle" x="145" y="-95.9" font-family="Lato" font-size="12.00" fill="#000000">a &amp; b</text>
</g>
<!-- &#45;1&#45;&gt;1 -->
<g id="edge1" class="edge">
<title>&#45;1&#45;&gt;1</title>
<path fill="none" stroke="#000000" d="M54.0716,-105.5C70.7419,-105.5 92.2788,-105.5 110.2076,-105.5"/>
<polygon fill="#000000" stroke="#000000" points="117.6458,-105.5 110.6458,-108.6501 114.1458,-105.5 110.6458,-105.5001 110.6458,-105.5001 110.6458,-105.5001 114.1458,-105.5 110.6457,-102.3501 117.6458,-105.5 117.6458,-105.5"/>
<text text-anchor="middle" x="86" y="-108.9" font-family="Lato" font-size="12.00" fill="#000000">a &amp; b</text>
</g>
<!-- 2 -->
<g id="node4" class="node">
<title>2</title>
<polygon fill="#ffffa0" stroke="#000000" points="426.468,-119.5 372.468,-119.5 372.468,-83.5 426.468,-83.5 426.468,-119.5"/>
<text text-anchor="middle" x="399.468" y="-104.9" font-family="Lato" font-size="12.00" fill="#000000">1</text>
<text text-anchor="middle" x="399.468" y="-91.9" font-family="Lato" font-size="12.00" fill="#000000">!a &amp; b</text>
</g>
<!-- 1&#45;&gt;2 -->
<g id="edge4" class="edge">
<title>1&#45;&gt;2</title>
<path fill="none" stroke="#000000" d="M172.0485,-110.3996C177.9456,-111.2738 184.1666,-112.049 190,-112.5 262.8794,-118.1345 281.8957,-121.2413 354.468,-112.5 357.9714,-112.078 361.5957,-111.4776 365.1965,-110.7722"/>
<polygon fill="#000000" stroke="#000000" points="372.0544,-109.3059 365.8678,-113.85 368.6318,-110.0378 365.2091,-110.7696 365.2091,-110.7696 365.2091,-110.7696 368.6318,-110.0378 364.5505,-107.6893 372.0544,-109.3059 372.0544,-109.3059"/>
<text text-anchor="middle" x="272.234" y="-133.9" font-family="Lato" font-size="12.00" fill="#000000">{a}</text>
<text text-anchor="middle" x="272.234" y="-120.9" font-family="Lato" font-size="12.00" fill="#000000">{}</text>
</g>
<!-- 3 -->
<g id="node6" class="node">
<title>3</title>
<ellipse fill="#ffffa0" stroke="#000000" cx="272.234" cy="-66.5" rx="33.4697" ry="24.0833"/>
<text text-anchor="middle" x="272.234" y="-69.9" font-family="Lato" font-size="12.00" fill="#000000">0</text>
<text text-anchor="middle" x="272.234" y="-56.9" font-family="Lato" font-size="12.00" fill="#000000">a &amp; !b</text>
</g>
<!-- 1&#45;&gt;3 -->
<g id="edge5" class="edge">
<title>1&#45;&gt;3</title>
<path fill="none" stroke="#000000" d="M172.3382,-93.1315C178.1062,-90.756 184.2023,-88.4152 190,-86.5 203.7814,-81.9476 219.1712,-77.9306 232.8763,-74.7136"/>
<polygon fill="#000000" stroke="#000000" points="239.8721,-73.1056 233.7556,-77.7437 236.4611,-73.8897 233.05,-74.6737 233.05,-74.6737 233.05,-74.6737 236.4611,-73.8897 232.3444,-71.6038 239.8721,-73.1056 239.8721,-73.1056"/>
<text text-anchor="middle" x="205.5" y="-102.9" font-family="Lato" font-size="12.00" fill="#000000">{b}</text>
<text text-anchor="middle" x="205.5" y="-89.9" font-family="Lato" font-size="12.00" fill="#000000">{}</text>
</g>
<!-- 4 -->
<g id="node7" class="node">
<title>4</title>
<polygon fill="#ffffa0" stroke="#000000" points="534.468,-171.5 480.468,-171.5 480.468,-135.5 534.468,-135.5 534.468,-171.5"/>
<polygon fill="none" stroke="#000000" points="538.468,-175.5 476.468,-175.5 476.468,-131.5 538.468,-131.5 538.468,-175.5"/>
<text text-anchor="middle" x="507.468" y="-150.4" font-family="Lato" font-size="12.00" fill="#000000">3</text>
</g>
<!-- 1&#45;&gt;4 -->
<g id="edge6" class="edge">
<title>1&#45;&gt;4</title>
<path fill="none" stroke="#000000" d="M172.3675,-121.2418C190.601,-130.8309 215.4539,-142.2222 239,-147.5 328.2356,-167.5021 353.0508,-156.0547 444.468,-158.5 450.688,-158.6664 452.2539,-158.8162 458.468,-158.5 462.0068,-158.3199 465.6838,-158.0671 469.3616,-157.7699"/>
<polygon fill="#000000" stroke="#000000" points="476.3988,-157.1509 469.7018,-160.9022 472.9123,-157.4576 469.4258,-157.7643 469.4258,-157.7643 469.4258,-157.7643 472.9123,-157.4576 469.1497,-154.6265 476.3988,-157.1509 476.3988,-157.1509"/>
<text text-anchor="middle" x="338.968" y="-175.9" font-family="Lato" font-size="12.00" fill="#000000">{a}</text>
<text text-anchor="middle" x="338.968" y="-162.9" font-family="Lato" font-size="12.00" fill="#000000">{}</text>
</g>
<!-- &#45;2 -->
<!-- &#45;2&#45;&gt;2 -->
<g id="edge2" class="edge">
<title>&#45;2&#45;&gt;2</title>
<path fill="none" stroke="#000000" d="M274.7197,-24.0434C280.3394,-25.3157 294.3956,-28.7439 305.468,-33.5 328.5144,-43.3994 334.0961,-46.8671 354.468,-61.5 361.6312,-66.6452 368.9609,-72.744 375.5692,-78.6088"/>
<polygon fill="#000000" stroke="#000000" points="380.931,-83.4542 373.6254,-81.098 378.3342,-81.1075 375.7374,-78.7609 375.7374,-78.7609 375.7374,-78.7609 378.3342,-81.1075 377.8494,-76.4238 380.931,-83.4542 380.931,-83.4542"/>
<text text-anchor="middle" x="338.968" y="-64.9" font-family="Lato" font-size="12.00" fill="#000000">!a &amp; b</text>
</g>
<!-- 2&#45;&gt;4 -->
<g id="edge7" class="edge">
<title>2&#45;&gt;4</title>
<path fill="none" stroke="#000000" d="M426.721,-114.6218C439.8348,-120.9358 455.7641,-128.6055 469.9978,-135.4588"/>
<polygon fill="#000000" stroke="#000000" points="476.402,-138.5423 468.7284,-138.3437 473.2485,-137.0239 470.095,-135.5055 470.095,-135.5055 470.095,-135.5055 473.2485,-137.0239 471.4615,-132.6674 476.402,-138.5423 476.402,-138.5423"/>
<text text-anchor="middle" x="451.468" y="-144.9" font-family="Lato" font-size="12.00" fill="#000000">{a}</text>
<text text-anchor="middle" x="451.468" y="-131.9" font-family="Lato" font-size="12.00" fill="#000000">{}</text>
</g>
<!-- &#45;3 -->
<!-- &#45;3&#45;&gt;3 -->
<g id="edge3" class="edge">
<title>&#45;3&#45;&gt;3</title>
<path fill="none" stroke="#000000" d="M147.7665,-1.0358C157.9833,-3.0901 194.3738,-11.0801 221,-25.5 229.6214,-30.169 238.2364,-36.3325 245.875,-42.458"/>
<polygon fill="#000000" stroke="#000000" points="251.5099,-47.1093 244.1062,-45.0824 248.8107,-44.8812 246.1115,-42.6532 246.1115,-42.6532 246.1115,-42.6532 248.8107,-44.8812 248.1168,-40.2239 251.5099,-47.1093 251.5099,-47.1093"/>
<text text-anchor="middle" x="205.5" y="-28.9" font-family="Lato" font-size="12.00" fill="#000000">a &amp; !b</text>
</g>
<!-- 3&#45;&gt;1 -->
<g id="edge8" class="edge">
<title>3&#45;&gt;1</title>
<path fill="none" stroke="#000000" d="M245.6457,-51.6194C229.0139,-44.3905 207.5015,-38.9273 190,-47.5 175.6726,-54.5179 164.5972,-68.5406 157.0192,-81.0396"/>
<polygon fill="#000000" stroke="#000000" points="153.3765,-87.3917 154.1263,-79.7523 155.1177,-84.3556 156.8588,-81.3194 156.8588,-81.3194 156.8588,-81.3194 155.1177,-84.3556 159.5914,-82.8864 153.3765,-87.3917 153.3765,-87.3917"/>
<text text-anchor="middle" x="205.5" y="-63.9" font-family="Lato" font-size="12.00" fill="#000000">{b}</text>
<text text-anchor="middle" x="205.5" y="-50.9" font-family="Lato" font-size="12.00" fill="#000000">{}</text>
</g>
<!-- 3&#45;&gt;2 -->
<g id="edge9" class="edge">
<title>3&#45;&gt;2</title>
<path fill="none" stroke="#000000" d="M304.0268,-73.5817C319.351,-77.1605 337.9476,-81.7466 354.468,-86.5 358.1283,-87.5532 361.9347,-88.7154 365.7151,-89.9129"/>
<polygon fill="#000000" stroke="#000000" points="372.4545,-92.0905 364.825,-92.9356 369.124,-91.0143 365.7935,-89.9381 365.7935,-89.9381 365.7935,-89.9381 369.124,-91.0143 366.7621,-86.9407 372.4545,-92.0905 372.4545,-92.0905"/>
<text text-anchor="middle" x="338.968" y="-102.9" font-family="Lato" font-size="12.00" fill="#000000">{a, b}</text>
<text text-anchor="middle" x="338.968" y="-89.9" font-family="Lato" font-size="12.00" fill="#000000">{}</text>
</g>
<!-- 4&#45;&gt;4 -->
<g id="edge10" class="edge">
<title>4&#45;&gt;4</title>
<path fill="none" stroke="#000000" d="M497.0936,-175.7124C496.2443,-185.2952 499.7024,-193.5 507.468,-193.5 513.1709,-193.5 516.5507,-189.0751 517.6075,-182.9291"/>
<polygon fill="#000000" stroke="#000000" points="517.8424,-175.7124 520.7629,-182.8112 517.7285,-179.2105 517.6146,-182.7086 517.6146,-182.7086 517.6146,-182.7086 517.7285,-179.2105 514.4662,-182.6061 517.8424,-175.7124 517.8424,-175.7124"/>
<text text-anchor="middle" x="507.468" y="-209.9" font-family="Lato" font-size="12.00" fill="#000000">{a}</text>
<text text-anchor="middle" x="507.468" y="-196.9" font-family="Lato" font-size="12.00" fill="#000000">{0}</text>
</g>
</g>
</svg>
