<?xml version="1.0" encoding="UTF-8" standalone="no"?>
<?xml-stylesheet href="spot.css" type="text/css"?>
<!DOCTYPE svg PUBLIC "-//W3C//DTD SVG 1.1//EN"
 "http://www.w3.org/Graphics/SVG/1.1/DTD/svg11.dtd">
<!-- Generated by graphviz version 2.40.1 (20161225.0304)
 -->
<!-- Title: G Pages: 1 -->
<svg width="621pt" height="229pt"
 viewBox="0.00 0.00 621.00 229.00" xmlns="http://www.w3.org/2000/svg" xmlns:xlink="http://www.w3.org/1999/xlink">
<g id="graph0" class="graph" transform="scale(1 1) rotate(0) translate(4 225)">
<title>G</title>
<polygon fill="#ffffff" stroke="transparent" points="-4,4 -4,-225 617,-225 617,4 -4,4"/>
<!-- 0 -->
<!-- 1 -->
<g id="node2" class="node">
<title>1</title>
<ellipse fill="#ffffa0" stroke="#000000" cx="118" cy="-175" rx="27" ry="18"/>
<text text-anchor="middle" x="118" y="-171.9" font-family="Lato" font-size="12.00" fill="#000000">init</text>
</g>
<!-- 0&#45;&gt;1 -->
<g id="edge1" class="edge">
<title>0&#45;&gt;1</title>
<path fill="none" stroke="#000000" d="M54.303,-175C63.4811,-175 73.8419,-175 83.4994,-175"/>
<polygon fill="#000000" stroke="#000000" points="90.7163,-175 83.7163,-178.1501 87.2163,-175 83.7163,-175.0001 83.7163,-175.0001 83.7163,-175.0001 87.2163,-175 83.7162,-171.8501 90.7163,-175 90.7163,-175"/>
</g>
<!-- 2 -->
<g id="node3" class="node">
<title>2</title>
<polygon fill="#ffffa0" stroke="#000000" points="501,-111 447,-111 447,-75 501,-75 501,-111"/>
<text text-anchor="middle" x="474" y="-89.9" font-family="Lato" font-size="12.00" fill="#000000">2</text>
</g>
<!-- 1&#45;&gt;2 -->
<g id="edge2" class="edge">
<title>1&#45;&gt;2</title>
<path fill="none" stroke="#000000" d="M141.618,-183.7624C170.3245,-193.2917 220.2338,-206.2561 263,-199 340.0503,-185.9269 363.4964,-183.6255 429,-141 438.9571,-134.5206 448.2508,-125.3838 455.7768,-116.8181"/>
<polygon fill="#000000" stroke="#000000" points="460.6912,-111.019 458.5688,-118.3959 458.4284,-113.6892 456.1656,-116.3594 456.1656,-116.3594 456.1656,-116.3594 458.4284,-113.6892 453.7624,-114.3229 460.6912,-111.019 460.6912,-111.019"/>
<text text-anchor="middle" x="296.5" y="-211.4" font-family="Lato" font-size="12.00" fill="#000000">!a &amp; b</text>
<text text-anchor="middle" x="296.5" y="-198.4" font-family="Lato" font-size="12.00" fill="#000000">{}</text>
</g>
<!-- 3 -->
<g id="node4" class="node">
<title>3</title>
<polygon fill="#ffffa0" stroke="#000000" points="263,-103 209,-103 209,-67 263,-67 263,-103"/>
<text text-anchor="middle" x="236" y="-81.9" font-family="Lato" font-size="12.00" fill="#000000">3</text>
</g>
<!-- 1&#45;&gt;3 -->
<g id="edge3" class="edge">
<title>1&#45;&gt;3</title>
<path fill="none" stroke="#000000" d="M133.8233,-160.0511C142.2629,-152.3075 152.9539,-142.8548 163,-135 175.5836,-125.1611 189.9888,-115.0657 202.6596,-106.5454"/>
<polygon fill="#000000" stroke="#000000" points="208.7249,-102.4973 204.6513,-109.0033 205.8138,-104.4403 202.9026,-106.3833 202.9026,-106.3833 202.9026,-106.3833 205.8138,-104.4403 201.1539,-103.7632 208.7249,-102.4973 208.7249,-102.4973"/>
<text text-anchor="middle" x="177" y="-151.4" font-family="Lato" font-size="12.00" fill="#000000">a &amp; b</text>
<text text-anchor="middle" x="177" y="-138.4" font-family="Lato" font-size="12.00" fill="#000000">{}</text>
</g>
<!-- 4 -->
<g id="node5" class="node">
<title>4</title>
<ellipse fill="#ffffa0" stroke="#000000" cx="357" cy="-124" rx="27" ry="18"/>
<text text-anchor="middle" x="357" y="-120.9" font-family="Lato" font-size="12.00" fill="#000000">1</text>
</g>
<!-- 1&#45;&gt;4 -->
<g id="edge4" class="edge">
<title>1&#45;&gt;4</title>
<path fill="none" stroke="#000000" d="M145.065,-174.5315C183.2224,-173.1704 254.5863,-168.0367 312,-149 318.4789,-146.8518 325.0973,-143.7602 331.1953,-140.4793"/>
<polygon fill="#000000" stroke="#000000" points="337.5767,-136.8807 333.0267,-143.0629 334.528,-138.5999 331.4794,-140.3192 331.4794,-140.3192 331.4794,-140.3192 334.528,-138.5999 329.9321,-137.5754 337.5767,-136.8807 337.5767,-136.8807"/>
<text text-anchor="middle" x="236" y="-185.4" font-family="Lato" font-size="12.00" fill="#000000">a &amp; !b</text>
<text text-anchor="middle" x="236" y="-172.4" font-family="Lato" font-size="12.00" fill="#000000">{}</text>
</g>
<!-- 5 -->
<g id="node6" class="node">
<title>5</title>
<polygon fill="#ffffa0" stroke="#000000" points="609,-40 555,-40 555,-4 609,-4 609,-40"/>
<polygon fill="none" stroke="#000000" points="613,-44 551,-44 551,0 613,0 613,-44"/>
<text text-anchor="middle" x="582" y="-18.9" font-family="Lato" font-size="12.00" fill="#000000">4</text>
</g>
<!-- 2&#45;&gt;5 -->
<g id="edge5" class="edge">
<title>2&#45;&gt;5</title>
<path fill="none" stroke="#000000" d="M501.253,-75.0837C514.4849,-66.3849 530.5833,-55.8017 544.914,-46.3806"/>
<polygon fill="#000000" stroke="#000000" points="550.934,-42.423 546.8151,-48.9006 548.0093,-44.3457 545.0847,-46.2684 545.0847,-46.2684 545.0847,-46.2684 548.0093,-44.3457 543.3543,-43.6362 550.934,-42.423 550.934,-42.423"/>
<text text-anchor="middle" x="526" y="-78.4" font-family="Lato" font-size="12.00" fill="#000000">{a}</text>
<text text-anchor="middle" x="526" y="-65.4" font-family="Lato" font-size="12.00" fill="#000000">{}</text>
</g>
<!-- 3&#45;&gt;2 -->
<g id="edge6" class="edge">
<title>3&#45;&gt;2</title>
<path fill="none" stroke="#000000" d="M263.0885,-79.9397C268.9832,-78.907 275.1931,-77.871 281,-77 326.348,-70.1977 338.4737,-65.5164 384,-71 402.7244,-73.2553 423.1763,-78.0597 439.8456,-82.6051"/>
<polygon fill="#000000" stroke="#000000" points="446.7418,-84.529 439.1528,-85.682 443.3706,-83.5885 439.9993,-82.6479 439.9993,-82.6479 439.9993,-82.6479 443.3706,-83.5885 440.8458,-79.6138 446.7418,-84.529 446.7418,-84.529"/>
<text text-anchor="middle" x="357" y="-87.4" font-family="Lato" font-size="12.00" fill="#000000">{a}</text>
<text text-anchor="middle" x="357" y="-74.4" font-family="Lato" font-size="12.00" fill="#000000">{}</text>
</g>
<!-- 3&#45;&gt;4 -->
<g id="edge7" class="edge">
<title>3&#45;&gt;4</title>
<path fill="none" stroke="#000000" d="M263.1961,-80.9868C278.0647,-79.8589 296.5467,-80.2325 312,-86 321.6188,-89.5899 330.6148,-96.2094 337.9968,-102.9297"/>
<polygon fill="#000000" stroke="#000000" points="343.3108,-108.0399 336.0818,-105.4584 340.788,-105.6139 338.2652,-103.1878 338.2652,-103.1878 338.2652,-103.1878 340.788,-105.6139 340.4487,-100.9173 343.3108,-108.0399 343.3108,-108.0399"/>
<text text-anchor="middle" x="296.5" y="-102.4" font-family="Lato" font-size="12.00" fill="#000000">{b}</text>
<text text-anchor="middle" x="296.5" y="-89.4" font-family="Lato" font-size="12.00" fill="#000000">{}</text>
</g>
<!-- 3&#45;&gt;5 -->
<g id="edge8" class="edge">
<title>3&#45;&gt;5</title>
<path fill="none" stroke="#000000" d="M263.4131,-74.5767C269.1757,-72.5768 275.2506,-70.6078 281,-69 373.3205,-43.183 485.7957,-30.3634 543.6095,-25.0781"/>
<polygon fill="#000000" stroke="#000000" points="550.7218,-24.4409 544.0309,-28.2031 547.2358,-24.7532 543.7497,-25.0656 543.7497,-25.0656 543.7497,-25.0656 547.2358,-24.7532 543.4686,-21.9282 550.7218,-24.4409 550.7218,-24.4409"/>
<text text-anchor="middle" x="415.5" y="-59.4" font-family="Lato" font-size="12.00" fill="#000000">{a}</text>
<text text-anchor="middle" x="415.5" y="-46.4" font-family="Lato" font-size="12.00" fill="#000000">{}</text>
</g>
<!-- 4&#45;&gt;2 -->
<g id="edge10" class="edge">
<title>4&#45;&gt;2</title>
<path fill="none" stroke="#000000" d="M382.0994,-117.3497C398.934,-112.8893 421.3183,-106.9584 439.7803,-102.0668"/>
<polygon fill="#000000" stroke="#000000" points="446.9029,-100.1796 440.9432,-105.0174 443.5196,-101.076 440.1364,-101.9725 440.1364,-101.9725 440.1364,-101.9725 443.5196,-101.076 439.3296,-98.9276 446.9029,-100.1796 446.9029,-100.1796"/>
<text text-anchor="middle" x="415.5" y="-127.4" font-family="Lato" font-size="12.00" fill="#000000">{a, b}</text>
<text text-anchor="middle" x="415.5" y="-114.4" font-family="Lato" font-size="12.00" fill="#000000">{}</text>
</g>
<!-- 4&#45;&gt;3 -->
<g id="edge9" class="edge">
<title>4&#45;&gt;3</title>
<path fill="none" stroke="#000000" d="M329.9927,-122.2685C315.1812,-120.6968 296.6936,-117.7021 281,-112 276.8415,-110.4891 272.6414,-108.5798 268.5651,-106.4776"/>
<polygon fill="#000000" stroke="#000000" points="262.2852,-103.045 269.9384,-103.6384 265.3564,-104.7237 268.4276,-106.4025 268.4276,-106.4025 268.4276,-106.4025 265.3564,-104.7237 266.9167,-109.1665 262.2852,-103.045 262.2852,-103.045"/>
<text text-anchor="middle" x="296.5" y="-135.4" font-family="Lato" font-size="12.00" fill="#000000">{b}</text>
<text text-anchor="middle" x="296.5" y="-122.4" font-family="Lato" font-size="12.00" fill="#000000">{}</text>
</g>
<!-- 5&#45;&gt;5 -->
<g id="edge11" class="edge">
<title>5&#45;&gt;5</title>
<path fill="none" stroke="#000000" d="M571.6256,-44.2124C570.7762,-53.7952 574.2344,-62 582,-62 587.7029,-62 591.0827,-57.5751 592.1395,-51.4291"/>
<polygon fill="#000000" stroke="#000000" points="592.3744,-44.2124 595.2949,-51.3112 592.2605,-47.7105 592.1465,-51.2086 592.1465,-51.2086 592.1465,-51.2086 592.2605,-47.7105 588.9982,-51.1061 592.3744,-44.2124 592.3744,-44.2124"/>
<text text-anchor="middle" x="582" y="-78.4" font-family="Lato" font-size="12.00" fill="#000000">{a}</text>
<text text-anchor="middle" x="582" y="-65.4" font-family="Lato" font-size="12.00" fill="#000000">{0}</text>
</g>
</g>
</svg>
