<?xml version="1.0" encoding="UTF-8" standalone="no"?>
<?xml-stylesheet href="spot.css" type="text/css"?>
<!DOCTYPE svg PUBLIC "-//W3C//DTD SVG 1.1//EN"
 "http://www.w3.org/Graphics/SVG/1.1/DTD/svg11.dtd">
<!-- Generated by graphviz version 2.40.1 (20161225.0304)
 -->
<!-- Title: | F G a F G b Pages: 1 -->
<svg width="502pt" height="267pt"
 viewBox="0.00 0.00 501.90 266.94" xmlns="http://www.w3.org/2000/svg" xmlns:xlink="http://www.w3.org/1999/xlink">
<g id="graph0" class="graph" transform="scale(1 1) rotate(0) translate(4 262.9441)">
<title>| F G a F G b</title>
<polygon fill="#ffffff" stroke="transparent" points="-4,4 -4,-262.9441 497.9016,-262.9441 497.9016,4 -4,4"/>
<text text-anchor="start" x="149.9508" y="-246.3441" font-family="Lato" font-size="12.00" fill="#000000">(Fin(</text>
<text text-anchor="start" x="172.9508" y="-246.3441" font-family="Lato" font-size="12.00" fill="#1f78b4">⓿</text>
<text text-anchor="start" x="186.9508" y="-246.3441" font-family="Lato" font-size="12.00" fill="#000000">) &amp; Inf(</text>
<text text-anchor="start" x="221.9508" y="-246.3441" font-family="Lato" font-size="12.00" fill="#ff4da0">❶</text>
<text text-anchor="start" x="235.9508" y="-246.3441" font-family="Lato" font-size="12.00" fill="#000000">)) | (Fin(</text>
<text text-anchor="start" x="273.9508" y="-246.3441" font-family="Lato" font-size="12.00" fill="#ff7f00">❷</text>
<text text-anchor="start" x="287.9508" y="-246.3441" font-family="Lato" font-size="12.00" fill="#000000">) &amp; Inf(</text>
<text text-anchor="start" x="322.9508" y="-246.3441" font-family="Lato" font-size="12.00" fill="#6a3d9a">❸</text>
<text text-anchor="start" x="336.9508" y="-246.3441" font-family="Lato" font-size="12.00" fill="#000000">))</text>
<text text-anchor="start" x="222.9508" y="-234.3441" font-family="Lato" font-size="12.00" fill="#000000">[Rabin 2]</text>
<!-- I -->
<!-- 0 -->
<g id="node2" class="node">
<title>0</title>
<ellipse fill="#ffffa0" stroke="#000000" cx="69.1127" cy="-51.9441" rx="31.2258" ry="31.2258"/>
<text text-anchor="start" x="65.6127" y="-55.3441" font-family="Lato" font-size="12.00" fill="#000000">0</text>
<text text-anchor="start" x="55.1127" y="-43.3441" font-family="Lato" font-size="12.00" fill="#1f78b4">⓿</text>
<text text-anchor="start" x="69.1127" y="-43.3441" font-family="Lato" font-size="12.00" fill="#ff7f00">❷</text>
</g>
<!-- I&#45;&gt;0 -->
<g id="edge1" class="edge">
<title>I&#45;&gt;0</title>
<path fill="none" stroke="#000000" d="M1.2706,-51.9441C4.455,-51.9441 17.0566,-51.9441 30.5503,-51.9441"/>
<polygon fill="#000000" stroke="#000000" points="37.6428,-51.9441 30.6428,-55.0942 34.1428,-51.9441 30.6428,-51.9442 30.6428,-51.9442 30.6428,-51.9442 34.1428,-51.9441 30.6427,-48.7942 37.6428,-51.9441 37.6428,-51.9441"/>
</g>
<!-- 0&#45;&gt;0 -->
<g id="edge2" class="edge">
<title>0&#45;&gt;0</title>
<path fill="none" stroke="#000000" d="M60.1149,-82.1584C60.0197,-92.6135 63.0189,-101.0568 69.1127,-101.0568 73.683,-101.0568 76.5127,-96.3074 77.6017,-89.522"/>
<polygon fill="#000000" stroke="#000000" points="78.1105,-82.1584 80.7704,-89.3589 77.8692,-85.6501 77.6279,-89.1418 77.6279,-89.1418 77.6279,-89.1418 77.8692,-85.6501 74.4854,-88.9246 78.1105,-82.1584 78.1105,-82.1584"/>
<text text-anchor="start" x="52.1127" y="-104.4568" font-family="Lato" font-size="12.00" fill="#000000">!a &amp; !b</text>
</g>
<!-- 1 -->
<g id="node3" class="node">
<title>1</title>
<ellipse fill="#ffffa0" stroke="#000000" cx="201.3381" cy="-145.9441" rx="31.2258" ry="31.2258"/>
<text text-anchor="start" x="197.8381" y="-149.3441" font-family="Lato" font-size="12.00" fill="#000000">1</text>
<text text-anchor="start" x="187.3381" y="-137.3441" font-family="Lato" font-size="12.00" fill="#ff4da0">❶</text>
<text text-anchor="start" x="201.3381" y="-137.3441" font-family="Lato" font-size="12.00" fill="#ff7f00">❷</text>
</g>
<!-- 0&#45;&gt;1 -->
<g id="edge3" class="edge">
<title>0&#45;&gt;1</title>
<path fill="none" stroke="#000000" d="M82.2017,-80.2724C90.5179,-95.323 102.6586,-112.9369 118.2254,-123.9441 131.3172,-133.2012 148.0563,-138.5631 163.0765,-141.6689"/>
<polygon fill="#000000" stroke="#000000" points="170.2885,-143.0195 162.8283,-144.8271 166.8483,-142.3752 163.4081,-141.7309 163.4081,-141.7309 163.4081,-141.7309 166.8483,-142.3752 163.988,-138.6347 170.2885,-143.0195 170.2885,-143.0195"/>
<text text-anchor="start" x="119.7254" y="-142.3441" font-family="Lato" font-size="12.00" fill="#000000">a &amp; !b</text>
</g>
<!-- 2 -->
<g id="node4" class="node">
<title>2</title>
<ellipse fill="#ffffa0" stroke="#000000" cx="462.7889" cy="-75.9441" rx="31.2258" ry="31.2258"/>
<text text-anchor="start" x="459.2889" y="-79.3441" font-family="Lato" font-size="12.00" fill="#000000">2</text>
<text text-anchor="start" x="448.7889" y="-67.3441" font-family="Lato" font-size="12.00" fill="#1f78b4">⓿</text>
<text text-anchor="start" x="462.7889" y="-67.3441" font-family="Lato" font-size="12.00" fill="#6a3d9a">❸</text>
</g>
<!-- 0&#45;&gt;2 -->
<g id="edge4" class="edge">
<title>0&#45;&gt;2</title>
<path fill="none" stroke="#000000" d="M98.697,-41.6413C105.0687,-39.7806 111.8162,-38.075 118.2254,-36.9441 226.0936,-17.9103 257.4195,-13.7217 364.6762,-35.9441 386.6538,-40.4976 409.9696,-49.7973 428.3553,-58.2844"/>
<polygon fill="#000000" stroke="#000000" points="434.8943,-61.3642 427.2193,-61.2313 431.7279,-59.8729 428.5615,-58.3815 428.5615,-58.3815 428.5615,-58.3815 431.7279,-59.8729 429.9037,-55.5318 434.8943,-61.3642 434.8943,-61.3642"/>
<text text-anchor="start" x="251.9508" y="-25.3441" font-family="Lato" font-size="12.00" fill="#000000">!a &amp; b</text>
</g>
<!-- 3 -->
<g id="node5" class="node">
<title>3</title>
<ellipse fill="#ffffa0" stroke="#000000" cx="333.5635" cy="-75.9441" rx="31.2258" ry="31.2258"/>
<text text-anchor="start" x="330.0635" y="-79.3441" font-family="Lato" font-size="12.00" fill="#000000">3</text>
<text text-anchor="start" x="319.5635" y="-67.3441" font-family="Lato" font-size="12.00" fill="#ff4da0">❶</text>
<text text-anchor="start" x="333.5635" y="-67.3441" font-family="Lato" font-size="12.00" fill="#6a3d9a">❸</text>
</g>
<!-- 0&#45;&gt;3 -->
<g id="edge5" class="edge">
<title>0&#45;&gt;3</title>
<path fill="none" stroke="#000000" d="M100.2262,-54.7677C148.8657,-59.182 242.7834,-67.7054 295.4236,-72.4827"/>
<polygon fill="#000000" stroke="#000000" points="302.5684,-73.1311 295.3124,-75.6355 299.0828,-72.8148 295.5971,-72.4984 295.5971,-72.4984 295.5971,-72.4984 299.0828,-72.8148 295.8818,-69.3613 302.5684,-73.1311 302.5684,-73.1311"/>
<text text-anchor="start" x="187.3381" y="-69.3441" font-family="Lato" font-size="12.00" fill="#000000">a &amp; b</text>
</g>
<!-- 1&#45;&gt;0 -->
<g id="edge6" class="edge">
<title>1&#45;&gt;0</title>
<path fill="none" stroke="#000000" d="M177.442,-125.7016C169.6078,-119.4128 160.7277,-112.6413 152.2254,-106.9441 137.8448,-97.308 132.7892,-97.3009 118.2254,-87.9441 112.155,-84.044 105.8306,-79.6647 99.8191,-75.3389"/>
<polygon fill="#000000" stroke="#000000" points="93.9329,-71.0507 101.4455,-72.6265 96.7618,-73.1116 99.5907,-75.1726 99.5907,-75.1726 99.5907,-75.1726 96.7618,-73.1116 97.7359,-77.7186 93.9329,-71.0507 93.9329,-71.0507"/>
<text text-anchor="start" x="118.2254" y="-110.3441" font-family="Lato" font-size="12.00" fill="#000000">!a &amp; !b</text>
</g>
<!-- 1&#45;&gt;1 -->
<g id="edge7" class="edge">
<title>1&#45;&gt;1</title>
<path fill="none" stroke="#000000" d="M189.0114,-174.6986C188.4636,-185.8162 192.5725,-195.0568 201.3381,-195.0568 208.0493,-195.0568 212.0308,-189.6401 213.2826,-182.1115"/>
<polygon fill="#000000" stroke="#000000" points="213.6648,-174.6986 216.4501,-181.8515 213.4845,-178.1939 213.3042,-181.6893 213.3042,-181.6893 213.3042,-181.6893 213.4845,-178.1939 210.1584,-181.527 213.6648,-174.6986 213.6648,-174.6986"/>
<text text-anchor="start" x="185.8381" y="-198.4568" font-family="Lato" font-size="12.00" fill="#000000">a &amp; !b</text>
</g>
<!-- 1&#45;&gt;2 -->
<g id="edge8" class="edge">
<title>1&#45;&gt;2</title>
<path fill="none" stroke="#000000" d="M222.2286,-169.0592C230.2718,-176.4312 240.0426,-183.756 250.4508,-187.9441 317.7513,-215.0247 354.1879,-229.4636 413.6762,-187.9441 437.9455,-171.0054 450.3466,-139.3063 456.6084,-113.9433"/>
<polygon fill="#000000" stroke="#000000" points="458.2166,-106.9752 459.7117,-114.5043 457.4295,-110.3856 456.6424,-113.7959 456.6424,-113.7959 456.6424,-113.7959 457.4295,-110.3856 453.5731,-113.0875 458.2166,-106.9752 458.2166,-106.9752"/>
<text text-anchor="start" x="318.0635" y="-217.3441" font-family="Lato" font-size="12.00" fill="#000000">!a &amp; b</text>
</g>
<!-- 1&#45;&gt;3 -->
<g id="edge9" class="edge">
<title>1&#45;&gt;3</title>
<path fill="none" stroke="#000000" d="M232.4001,-141.6395C248.6749,-138.441 268.4851,-133.0083 284.4508,-123.9441 293.0434,-119.0658 301.2197,-112.3156 308.3487,-105.4166"/>
<polygon fill="#000000" stroke="#000000" points="313.5857,-100.1405 310.89,-107.3278 311.12,-102.6246 308.6544,-105.1087 308.6544,-105.1087 308.6544,-105.1087 311.12,-102.6246 306.4187,-102.8895 313.5857,-100.1405 313.5857,-100.1405"/>
<text text-anchor="start" x="253.4508" y="-140.3441" font-family="Lato" font-size="12.00" fill="#000000">a &amp; b</text>
</g>
<!-- 2&#45;&gt;0 -->
<g id="edge10" class="edge">
<title>2&#45;&gt;0</title>
<path fill="none" stroke="#000000" d="M440.0752,-54.5266C432.1661,-47.8904 422.9429,-41.0011 413.6762,-35.9441 361.6434,-7.5485 343.4046,-9.1217 284.4508,-2.9441 210.2132,4.8351 188.8317,-2.7267 118.2254,-26.9441 113.0711,-28.7119 107.7794,-30.9306 102.6665,-33.3119"/>
<polygon fill="#000000" stroke="#000000" points="96.3096,-36.3935 101.2344,-30.5054 99.4591,-34.8667 102.6085,-33.3399 102.6085,-33.3399 102.6085,-33.3399 99.4591,-34.8667 103.9827,-36.1744 96.3096,-36.3935 96.3096,-36.3935"/>
<text text-anchor="start" x="250.4508" y="-6.3441" font-family="Lato" font-size="12.00" fill="#000000">!a &amp; !b</text>
</g>
<!-- 2&#45;&gt;1 -->
<g id="edge11" class="edge">
<title>2&#45;&gt;1</title>
<path fill="none" stroke="#000000" d="M440.3265,-97.7276C421.6895,-114.3422 393.6381,-136.1507 364.6762,-146.9441 323.7431,-162.1988 272.93,-158.733 238.9481,-153.5526"/>
<polygon fill="#000000" stroke="#000000" points="231.9619,-152.4273 239.3738,-150.4307 235.4173,-152.9839 238.8728,-153.5406 238.8728,-153.5406 238.8728,-153.5406 235.4173,-152.9839 238.3718,-156.6505 231.9619,-152.4273 231.9619,-152.4273"/>
<text text-anchor="start" x="318.0635" y="-160.3441" font-family="Lato" font-size="12.00" fill="#000000">a &amp; !b</text>
</g>
<!-- 2&#45;&gt;2 -->
<g id="edge12" class="edge">
<title>2&#45;&gt;2</title>
<path fill="none" stroke="#000000" d="M450.8358,-104.6986C450.3045,-115.8162 454.2889,-125.0568 462.7889,-125.0568 469.2967,-125.0568 473.1575,-119.6401 474.3714,-112.1115"/>
<polygon fill="#000000" stroke="#000000" points="474.742,-104.6986 477.5385,-111.8472 474.5672,-108.1942 474.3924,-111.6898 474.3924,-111.6898 474.3924,-111.6898 474.5672,-108.1942 471.2463,-111.5325 474.742,-104.6986 474.742,-104.6986"/>
<text text-anchor="start" x="447.2889" y="-128.4568" font-family="Lato" font-size="12.00" fill="#000000">!a &amp; b</text>
</g>
<!-- 2&#45;&gt;3 -->
<g id="edge13" class="edge">
<title>2&#45;&gt;3</title>
<path fill="none" stroke="#000000" d="M431.3472,-75.9441C413.436,-75.9441 390.8583,-75.9441 371.9117,-75.9441"/>
<polygon fill="#000000" stroke="#000000" points="364.8454,-75.9441 371.8454,-72.7942 368.3454,-75.9441 371.8454,-75.9442 371.8454,-75.9442 371.8454,-75.9442 368.3454,-75.9441 371.8453,-79.0942 364.8454,-75.9441 364.8454,-75.9441"/>
<text text-anchor="start" x="384.1762" y="-79.3441" font-family="Lato" font-size="12.00" fill="#000000">a &amp; b</text>
</g>
<!-- 3&#45;&gt;0 -->
<g id="edge14" class="edge">
<title>3&#45;&gt;0</title>
<path fill="none" stroke="#000000" d="M304.4907,-64.1249C284.5852,-56.6885 257.3802,-47.7947 232.4508,-43.9441 189.9311,-37.3763 140.5161,-41.3873 107.2682,-45.7543"/>
<polygon fill="#000000" stroke="#000000" points="100.0119,-46.7468 106.5205,-42.6772 103.4797,-46.2725 106.9474,-45.7981 106.9474,-45.7981 106.9474,-45.7981 103.4797,-46.2725 107.3743,-48.9191 100.0119,-46.7468 100.0119,-46.7468"/>
<text text-anchor="start" x="184.3381" y="-47.3441" font-family="Lato" font-size="12.00" fill="#000000">!a &amp; !b</text>
</g>
<!-- 3&#45;&gt;1 -->
<g id="edge15" class="edge">
<title>3&#45;&gt;1</title>
<path fill="none" stroke="#000000" d="M303.3226,-84.6808C287.0985,-89.9873 267.079,-97.5539 250.4508,-106.9441 243.6277,-110.7971 236.7594,-115.5661 230.4106,-120.4314"/>
<polygon fill="#000000" stroke="#000000" points="224.7423,-124.9032 228.287,-118.0945 227.4901,-122.7354 230.238,-120.5676 230.238,-120.5676 230.238,-120.5676 227.4901,-122.7354 232.189,-123.0406 224.7423,-124.9032 224.7423,-124.9032"/>
<text text-anchor="start" x="251.9508" y="-110.3441" font-family="Lato" font-size="12.00" fill="#000000">a &amp; !b</text>
</g>
<!-- 3&#45;&gt;2 -->
<g id="edge16" class="edge">
<title>3&#45;&gt;2</title>
<path fill="none" stroke="#000000" d="M362.492,-64.1496C369.0242,-61.9902 376.0028,-60.0664 382.6762,-58.9441 396.2632,-56.6591 400.0892,-56.6591 413.6762,-58.9441 418.0556,-59.6806 422.5665,-60.7623 426.9964,-62.0292"/>
<polygon fill="#000000" stroke="#000000" points="433.8604,-64.1496 426.2425,-65.0931 430.5163,-63.1165 427.1722,-62.0835 427.1722,-62.0835 427.1722,-62.0835 430.5163,-63.1165 428.102,-59.0738 433.8604,-64.1496 433.8604,-64.1496"/>
<text text-anchor="start" x="382.6762" y="-62.3441" font-family="Lato" font-size="12.00" fill="#000000">!a &amp; b</text>
</g>
<!-- 3&#45;&gt;3 -->
<g id="edge17" class="edge">
<title>3&#45;&gt;3</title>
<path fill="none" stroke="#000000" d="M321.6104,-104.6986C321.0791,-115.8162 325.0635,-125.0568 333.5635,-125.0568 340.0713,-125.0568 343.9321,-119.6401 345.146,-112.1115"/>
<polygon fill="#000000" stroke="#000000" points="345.5166,-104.6986 348.3131,-111.8472 345.3418,-108.1942 345.167,-111.6898 345.167,-111.6898 345.167,-111.6898 345.3418,-108.1942 342.0209,-111.5325 345.5166,-104.6986 345.5166,-104.6986"/>
<text text-anchor="start" x="319.5635" y="-128.4568" font-family="Lato" font-size="12.00" fill="#000000">a &amp; b</text>
</g>
</g>
</svg>
