<?xml version="1.0" encoding="UTF-8" standalone="no"?>
<?xml-stylesheet href="spot.css" type="text/css"?>
<!DOCTYPE svg PUBLIC "-//W3C//DTD SVG 1.1//EN"
 "http://www.w3.org/Graphics/SVG/1.1/DTD/svg11.dtd">
<!-- Generated by graphviz version 2.40.1 (20161225.0304)
 -->
<!-- Pages: 1 -->
<svg width="185pt" height="163pt"
 viewBox="0.00 0.00 185.00 163.27" xmlns="http://www.w3.org/2000/svg" xmlns:xlink="http://www.w3.org/1999/xlink">
<g id="graph0" class="graph" transform="scale(1 1) rotate(0) translate(4 159.2677)">
<polygon fill="#ffffff" stroke="transparent" points="-4,4 -4,-159.2677 181,-159.2677 181,4 -4,4"/>
<text text-anchor="start" x="70.5" y="-142.6677" font-family="Lato" font-size="12.00" fill="#000000">Inf(</text>
<text text-anchor="start" x="88.5" y="-142.6677" font-family="Lato" font-size="12.00" fill="#1f78b4">⓿</text>
<text text-anchor="start" x="102.5" y="-142.6677" font-family="Lato" font-size="12.00" fill="#000000">)</text>
<text text-anchor="start" x="69.5" y="-130.6677" font-family="Lato" font-size="12.00" fill="#000000">[Büchi]</text>
<!-- I -->
<!-- 0 -->
<g id="node2" class="node">
<title>0</title>
<ellipse fill="#ffffa0" stroke="#000000" cx="56" cy="-30.2677" rx="18" ry="18"/>
<text text-anchor="middle" x="56" y="-27.1677" font-family="Lato" font-size="12.00" fill="#000000">0</text>
</g>
<!-- I&#45;&gt;0 -->
<g id="edge1" class="edge">
<title>I&#45;&gt;0</title>
<path fill="none" stroke="#000000" d="M1.1233,-30.2677C4.178,-30.2677 17.9448,-30.2677 30.9241,-30.2677"/>
<polygon fill="#000000" stroke="#000000" points="37.9807,-30.2677 30.9808,-33.4178 34.4807,-30.2677 30.9807,-30.2678 30.9807,-30.2678 30.9807,-30.2678 34.4807,-30.2677 30.9807,-27.1178 37.9807,-30.2677 37.9807,-30.2677"/>
</g>
<!-- 0&#45;&gt;0 -->
<g id="edge2" class="edge">
<title>0&#45;&gt;0</title>
<path fill="none" stroke="#000000" d="M49.6208,-47.305C48.3189,-57.1256 50.4453,-66.2677 56,-66.2677 60.166,-66.2677 62.4036,-61.1253 62.7128,-54.411"/>
<polygon fill="#000000" stroke="#000000" points="62.3792,-47.305 65.8541,-54.1495 62.5434,-50.8011 62.7076,-54.2973 62.7076,-54.2973 62.7076,-54.2973 62.5434,-50.8011 59.561,-54.4451 62.3792,-47.305 62.3792,-47.305"/>
<text text-anchor="start" x="51" y="-69.6677" font-family="Lato" font-size="12.00" fill="#000000">!a</text>
</g>
<!-- 1 -->
<g id="node3" class="node">
<title>1</title>
<ellipse fill="#ffffa0" stroke="#000000" cx="159" cy="-30.2677" rx="18" ry="18"/>
<text text-anchor="middle" x="159" y="-27.1677" font-family="Lato" font-size="12.00" fill="#000000">1</text>
</g>
<!-- 0&#45;&gt;1 -->
<g id="edge3" class="edge">
<title>0&#45;&gt;1</title>
<path fill="none" stroke="#000000" d="M73.9269,-32.057C79.6914,-32.5531 86.1097,-33.0227 92,-33.2677 105.7659,-33.8403 109.2341,-33.8403 123,-33.2677 126.5894,-33.1184 130.3749,-32.8857 134.089,-32.6144"/>
<polygon fill="#000000" stroke="#000000" points="141.0731,-32.057 134.346,-35.754 137.5842,-32.3355 134.0953,-32.614 134.0953,-32.614 134.0953,-32.614 137.5842,-32.3355 133.8446,-29.474 141.0731,-32.057 141.0731,-32.057"/>
<text text-anchor="start" x="104" y="-49.6677" font-family="Lato" font-size="12.00" fill="#000000">a</text>
<text text-anchor="start" x="100.5" y="-36.6677" font-family="Lato" font-size="12.00" fill="#1f78b4">⓿</text>
</g>
<!-- 1&#45;&gt;0 -->
<g id="edge4" class="edge">
<title>1&#45;&gt;0</title>
<path fill="none" stroke="#000000" d="M146.1899,-17.4461C139.7951,-11.9459 131.5974,-6.1335 123,-3.2677 109.9293,1.0892 105.0707,1.0892 92,-3.2677 85.8206,-5.3275 79.8477,-8.9095 74.6023,-12.8037"/>
<polygon fill="#000000" stroke="#000000" points="68.8101,-17.4461 72.3022,-10.6103 71.5411,-15.2572 74.2722,-13.0682 74.2722,-13.0682 74.2722,-13.0682 71.5411,-15.2572 76.2422,-15.5262 68.8101,-17.4461 68.8101,-17.4461"/>
<text text-anchor="start" x="92" y="-19.6677" font-family="Lato" font-size="12.00" fill="#000000">!a &amp; b</text>
<text text-anchor="start" x="100.5" y="-6.6677" font-family="Lato" font-size="12.00" fill="#1f78b4">⓿</text>
</g>
<!-- 1&#45;&gt;1 -->
<g id="edge5" class="edge">
<title>1&#45;&gt;1</title>
<path fill="none" stroke="#000000" d="M154.5059,-48.0494C153.7422,-57.5826 155.2402,-66.2677 159,-66.2677 161.7611,-66.2677 163.3024,-61.5838 163.6239,-55.3198"/>
<polygon fill="#000000" stroke="#000000" points="163.4941,-48.0494 166.7687,-54.992 163.5566,-51.5489 163.6192,-55.0483 163.6192,-55.0483 163.6192,-55.0483 163.5566,-51.5489 160.4697,-55.1046 163.4941,-48.0494 163.4941,-48.0494"/>
<text text-anchor="start" x="145" y="-82.6677" font-family="Lato" font-size="12.00" fill="#000000">a &amp; b</text>
<text text-anchor="start" x="152" y="-69.6677" font-family="Lato" font-size="12.00" fill="#1f78b4">⓿</text>
</g>
<!-- 1&#45;&gt;1 -->
<g id="edge6" class="edge">
<title>1&#45;&gt;1</title>
<path fill="none" stroke="#000000" d="M152.1175,-46.9265C147.2332,-66.9994 149.5273,-92.2677 159,-92.2677 167.3626,-92.2677 170.1305,-72.5746 167.3039,-54.1484"/>
<polygon fill="#000000" stroke="#000000" points="165.8825,-46.9265 170.3251,-53.1864 166.5584,-50.3606 167.2344,-53.7947 167.2344,-53.7947 167.2344,-53.7947 166.5584,-50.3606 164.1436,-54.4031 165.8825,-46.9265 165.8825,-46.9265"/>
<text text-anchor="start" x="154" y="-95.6677" font-family="Lato" font-size="12.00" fill="#000000">!b</text>
</g>
</g>
</svg>
