<?xml version="1.0" encoding="UTF-8" standalone="no"?>
<?xml-stylesheet href="spot.css" type="text/css"?>
<!DOCTYPE svg PUBLIC "-//W3C//DTD SVG 1.1//EN"
 "http://www.w3.org/Graphics/SVG/1.1/DTD/svg11.dtd">
<!-- Generated by graphviz version 2.40.1 (20161225.0304)
 -->
<!-- Title: F((b R a) W Gb) Pages: 1 -->
<svg width="301pt" height="225pt"
 viewBox="0.00 0.00 301.00 224.76" xmlns="http://www.w3.org/2000/svg" xmlns:xlink="http://www.w3.org/1999/xlink">
<g id="graph0" class="graph" transform="scale(1 1) rotate(0) translate(4 220.7609)">
<title>F((b R a) W Gb)</title>
<polygon fill="#ffffff" stroke="transparent" points="-4,4 -4,-220.7609 297,-220.7609 297,4 -4,4"/>
<text text-anchor="start" x="127.5" y="-190.1609" font-family="Lato" font-size="12.00" fill="#000000">[Büchi]</text>
<!-- I -->
<!-- 0 -->
<g id="node2" class="node">
<title>0</title>
<ellipse fill="#ffffa0" stroke="#e31a1c" stroke-width="2" cx="56" cy="-47.3609" rx="18" ry="18"/>
<text text-anchor="middle" x="56" y="-44.2609" font-family="Lato" font-size="12.00" fill="#000000">0</text>
</g>
<!-- I&#45;&gt;0 -->
<g id="edge1" class="edge">
<title>I&#45;&gt;0</title>
<path fill="none" stroke="#000000" d="M1.1233,-47.3609C4.178,-47.3609 17.9448,-47.3609 30.9241,-47.3609"/>
<polygon fill="#000000" stroke="#000000" points="37.9807,-47.3609 30.9808,-50.511 34.4807,-47.361 30.9807,-47.361 30.9807,-47.361 30.9807,-47.361 34.4807,-47.361 30.9807,-44.211 37.9807,-47.3609 37.9807,-47.3609"/>
</g>
<!-- 0&#45;&gt;0 -->
<g id="edge2" class="edge">
<title>0&#45;&gt;0</title>
<path fill="none" stroke="#ff4da0" stroke-width="2" d="M49.6208,-64.3982C48.3189,-74.2188 50.4453,-83.3609 56,-83.3609 60.166,-83.3609 62.4036,-78.2185 62.7128,-71.5042"/>
<polygon fill="#ff4da0" stroke="#ff4da0" stroke-width="2" points="62.3792,-64.3982 65.8541,-71.2428 63.0428,-67.8709 63.207,-71.3671 62.7076,-71.3905 62.2081,-71.414 62.0439,-67.9178 59.561,-71.5383 62.3792,-64.3982 62.3792,-64.3982"/>
<text text-anchor="start" x="52.5" y="-86.7609" font-family="Lato" font-size="12.00" fill="#000000">1</text>
</g>
<!-- 1 -->
<g id="node3" class="node">
<title>1</title>
<ellipse fill="#ffffa0" stroke="#000000" cx="271" cy="-128.3609" rx="18" ry="18"/>
<ellipse fill="none" stroke="#000000" cx="271" cy="-128.3609" rx="22" ry="22"/>
<text text-anchor="start" x="267.5" y="-125.2609" font-family="Lato" font-size="12.00" fill="#000000">1</text>
</g>
<!-- 0&#45;&gt;1 -->
<g id="edge3" class="edge">
<title>0&#45;&gt;1</title>
<path fill="none" stroke="#ff4da0" stroke-width="2" d="M68.8651,-60.4762C83.9738,-75.0088 110.4859,-97.9014 138,-109.3609 171.7991,-123.438 214.1544,-127.3954 241.8652,-128.3505"/>
<polygon fill="#ff4da0" stroke="#ff4da0" stroke-width="2" points="248.9266,-128.5398 241.8447,-131.501 245.4145,-128.9458 241.9157,-128.852 241.9291,-128.3522 241.9425,-127.8523 245.4413,-127.9461 242.0136,-125.2033 248.9266,-128.5398 248.9266,-128.5398"/>
<text text-anchor="start" x="144.5" y="-124.7609" font-family="Lato" font-size="12.00" fill="#000000">!a &amp; b</text>
</g>
<!-- 2 -->
<g id="node4" class="node">
<title>2</title>
<ellipse fill="#ffffa0" stroke="#000000" cx="160" cy="-47.3609" rx="18" ry="18"/>
<ellipse fill="none" stroke="#000000" cx="160" cy="-47.3609" rx="22" ry="22"/>
<text text-anchor="middle" x="160" y="-44.2609" font-family="Lato" font-size="12.00" fill="#000000">2</text>
</g>
<!-- 0&#45;&gt;2 -->
<g id="edge4" class="edge">
<title>0&#45;&gt;2</title>
<path fill="none" stroke="#ff4da0" stroke-width="2" d="M74.1154,-47.3609C89.5957,-47.3609 112.1724,-47.3609 130.2935,-47.3609"/>
<polygon fill="#ff4da0" stroke="#ff4da0" stroke-width="2" points="137.7532,-47.3609 130.7532,-50.511 134.2532,-47.861 130.7532,-47.861 130.7532,-47.361 130.7532,-46.861 134.2532,-46.861 130.7532,-44.211 137.7532,-47.3609 137.7532,-47.3609"/>
<text text-anchor="start" x="92" y="-50.7609" font-family="Lato" font-size="12.00" fill="#000000">a &amp; b</text>
</g>
<!-- 3 -->
<g id="node5" class="node">
<title>3</title>
<ellipse fill="#ffffa0" stroke="#000000" cx="271" cy="-27.3609" rx="18" ry="18"/>
<ellipse fill="none" stroke="#000000" cx="271" cy="-27.3609" rx="22" ry="22"/>
<text text-anchor="middle" x="271" y="-24.2609" font-family="Lato" font-size="12.00" fill="#000000">3</text>
</g>
<!-- 0&#45;&gt;3 -->
<g id="edge5" class="edge">
<title>0&#45;&gt;3</title>
<path fill="none" stroke="#ff4da0" stroke-width="2" d="M70.7812,-36.5009C86.522,-25.6661 112.6166,-9.7409 138,-3.3609 174.1376,5.722 216.6219,-5.7001 243.6717,-15.6821"/>
<polygon fill="#ff4da0" stroke="#ff4da0" stroke-width="2" points="250.5381,-18.308 242.8747,-18.7498 247.0904,-17.5248 243.8213,-16.2746 243.9999,-15.8076 244.1785,-15.3406 247.4476,-16.5908 245.1251,-12.8654 250.5381,-18.308 250.5381,-18.308"/>
<text text-anchor="start" x="144.5" y="-6.7609" font-family="Lato" font-size="12.00" fill="#000000">a &amp; !b</text>
</g>
<!-- 1&#45;&gt;1 -->
<g id="edge6" class="edge">
<title>1&#45;&gt;1</title>
<path fill="none" stroke="#000000" d="M261.2928,-148.1184C259.6432,-158.7108 262.8789,-168.3609 271,-168.3609 277.2177,-168.3609 280.5717,-162.7042 281.062,-155.2988"/>
<polygon fill="#000000" stroke="#000000" points="280.7072,-148.1184 284.199,-154.9544 280.88,-151.6141 281.0528,-155.1099 281.0528,-155.1099 281.0528,-155.1099 280.88,-151.6141 277.9066,-155.2654 280.7072,-148.1184 280.7072,-148.1184"/>
<text text-anchor="start" x="267.5" y="-171.7609" font-family="Lato" font-size="12.00" fill="#000000">b</text>
</g>
<!-- 2&#45;&gt;1 -->
<g id="edge7" class="edge">
<title>2&#45;&gt;1</title>
<path fill="none" stroke="#000000" d="M177.8341,-60.375C196.6869,-74.1324 226.5187,-95.9016 247.3301,-111.0883"/>
<polygon fill="#000000" stroke="#000000" points="253.2102,-115.3792 245.6988,-113.7974 250.3829,-113.316 247.5556,-111.2528 247.5556,-111.2528 247.5556,-111.2528 250.3829,-113.316 249.4125,-108.7083 253.2102,-115.3792 253.2102,-115.3792"/>
<text text-anchor="start" x="200" y="-100.7609" font-family="Lato" font-size="12.00" fill="#000000">!a &amp; b</text>
</g>
<!-- 2&#45;&gt;2 -->
<g id="edge8" class="edge">
<title>2&#45;&gt;2</title>
<path fill="none" stroke="#000000" d="M150.2928,-67.1184C148.6432,-77.7108 151.8789,-87.3609 160,-87.3609 166.2177,-87.3609 169.5717,-81.7042 170.062,-74.2988"/>
<polygon fill="#000000" stroke="#000000" points="169.7072,-67.1184 173.199,-73.9544 169.88,-70.6141 170.0528,-74.1099 170.0528,-74.1099 170.0528,-74.1099 169.88,-70.6141 166.9066,-74.2654 169.7072,-67.1184 169.7072,-67.1184"/>
<text text-anchor="start" x="146" y="-90.7609" font-family="Lato" font-size="12.00" fill="#000000">a &amp; b</text>
</g>
<!-- 2&#45;&gt;3 -->
<g id="edge9" class="edge">
<title>2&#45;&gt;3</title>
<path fill="none" stroke="#000000" d="M182.2783,-46.9173C196.3753,-46.2837 214.9106,-44.7985 231,-41.3609 235.1484,-40.4746 239.4572,-39.2773 243.6437,-37.9542"/>
<polygon fill="#000000" stroke="#000000" points="250.5238,-35.6413 244.8925,-40.8577 247.2063,-36.7566 243.8887,-37.8719 243.8887,-37.8719 243.8887,-37.8719 247.2063,-36.7566 242.8849,-34.8861 250.5238,-35.6413 250.5238,-35.6413"/>
<text text-anchor="start" x="200" y="-48.7609" font-family="Lato" font-size="12.00" fill="#000000">a &amp; !b</text>
</g>
<!-- 3&#45;&gt;2 -->
<g id="edge10" class="edge">
<title>3&#45;&gt;2</title>
<path fill="none" stroke="#000000" d="M249.1941,-23.1042C234.9562,-21.1336 216.0917,-20.0644 200,-24.3609 194.5582,-25.8139 189.0882,-28.2038 184.0159,-30.9063"/>
<polygon fill="#000000" stroke="#000000" points="177.8359,-34.4497 182.3417,-28.2351 180.8723,-32.7088 183.9086,-30.9678 183.9086,-30.9678 183.9086,-30.9678 180.8723,-32.7088 185.4754,-33.7005 177.8359,-34.4497 177.8359,-34.4497"/>
<text text-anchor="start" x="201.5" y="-27.7609" font-family="Lato" font-size="12.00" fill="#000000">a &amp; b</text>
</g>
<!-- 3&#45;&gt;3 -->
<g id="edge11" class="edge">
<title>3&#45;&gt;3</title>
<path fill="none" stroke="#000000" d="M261.2928,-47.1184C259.6432,-57.7108 262.8789,-67.3609 271,-67.3609 277.2177,-67.3609 280.5717,-61.7042 281.062,-54.2988"/>
<polygon fill="#000000" stroke="#000000" points="280.7072,-47.1184 284.199,-53.9544 280.88,-50.6141 281.0528,-54.1099 281.0528,-54.1099 281.0528,-54.1099 280.88,-50.6141 277.9066,-54.2654 280.7072,-47.1184 280.7072,-47.1184"/>
<text text-anchor="start" x="255.5" y="-70.7609" font-family="Lato" font-size="12.00" fill="#000000">a &amp; !b</text>
</g>
</g>
</svg>
