<?xml version="1.0" encoding="UTF-8" standalone="no"?>
<?xml-stylesheet href="spot.css" type="text/css"?>
<!DOCTYPE svg PUBLIC "-//W3C//DTD SVG 1.1//EN"
 "http://www.w3.org/Graphics/SVG/1.1/DTD/svg11.dtd">
<!-- Generated by graphviz version 2.40.1 (20161225.0304)
 -->
<!-- Pages: 1 -->
<svg width="114pt" height="237pt"
 viewBox="0.00 0.00 114.00 237.00" xmlns="http://www.w3.org/2000/svg" xmlns:xlink="http://www.w3.org/1999/xlink">
<g id="graph0" class="graph" transform="scale(1 1) rotate(0) translate(4 233)">
<polygon fill="#ffffff" stroke="transparent" points="-4,4 -4,-233 110,-233 110,4 -4,4"/>
<text text-anchor="start" x="14" y="-216.4" font-family="Lato" font-size="12.00" fill="#000000">Fin(</text>
<text text-anchor="start" x="34" y="-216.4" font-family="Lato" font-size="12.00" fill="#1f78b4">⓿</text>
<text text-anchor="start" x="48" y="-216.4" font-family="Lato" font-size="12.00" fill="#000000">)|Fin(</text>
<text text-anchor="start" x="74" y="-216.4" font-family="Lato" font-size="12.00" fill="#ff4da0">❶</text>
<text text-anchor="start" x="88" y="-216.4" font-family="Lato" font-size="12.00" fill="#000000">)</text>
<text text-anchor="start" x="8" y="-204.4" font-family="Lato" font-size="12.00" fill="#000000">[gen. co&#45;Büchi 2]</text>
<!-- I -->
<!-- 0 -->
<g id="node2" class="node">
<title>0</title>
<ellipse fill="#ffffa0" stroke="#000000" cx="72" cy="-18" rx="18" ry="18"/>
<text text-anchor="middle" x="72" y="-14.9" font-family="Lato" font-size="12.00" fill="#000000">0</text>
</g>
<!-- I&#45;&gt;0 -->
<g id="edge1" class="edge">
<title>I&#45;&gt;0</title>
<path fill="none" stroke="#000000" d="M17.1233,-18C20.178,-18 33.9448,-18 46.9241,-18"/>
<polygon fill="#000000" stroke="#000000" points="53.9807,-18 46.9808,-21.1501 50.4807,-18 46.9807,-18.0001 46.9807,-18.0001 46.9807,-18.0001 50.4807,-18 46.9807,-14.8501 53.9807,-18 53.9807,-18"/>
</g>
<!-- 0&#45;&gt;0 -->
<g id="edge2" class="edge">
<title>0&#45;&gt;0</title>
<path fill="none" stroke="#000000" d="M70.3718,-36.1527C70.1213,-45.5391 70.6641,-54 72,-54 72.9811,-54 73.5344,-49.437 73.6599,-43.2953"/>
<polygon fill="#000000" stroke="#000000" points="73.6282,-36.1527 76.8093,-43.1386 73.6438,-39.6527 73.6593,-43.1526 73.6593,-43.1526 73.6593,-43.1526 73.6438,-39.6527 70.5094,-43.1667 73.6282,-36.1527 73.6282,-36.1527"/>
<text text-anchor="start" x="58" y="-57.4" font-family="Lato" font-size="12.00" fill="#000000">a &amp; b</text>
</g>
<!-- 0&#45;&gt;0 -->
<g id="edge3" class="edge">
<title>0&#45;&gt;0</title>
<path fill="none" stroke="#000000" d="M69.2943,-35.9782C67.8461,-53.1996 68.748,-72 72,-72 74.7946,-72 75.8537,-58.1155 75.1772,-43.2805"/>
<polygon fill="#000000" stroke="#000000" points="74.7057,-35.9782 78.3003,-42.7607 74.9313,-39.471 75.1569,-42.9637 75.1569,-42.9637 75.1569,-42.9637 74.9313,-39.471 72.0134,-43.1667 74.7057,-35.9782 74.7057,-35.9782"/>
<text text-anchor="start" x="56.5" y="-88.4" font-family="Lato" font-size="12.00" fill="#000000">!a &amp; b</text>
<text text-anchor="start" x="65" y="-75.4" font-family="Lato" font-size="12.00" fill="#1f78b4">⓿</text>
</g>
<!-- 0&#45;&gt;0 -->
<g id="edge4" class="edge">
<title>0&#45;&gt;0</title>
<path fill="none" stroke="#000000" d="M68.7222,-35.8484C65.5285,-62.4395 66.6211,-98 72,-98 76.9167,-98 78.2521,-68.2888 76.0062,-42.8744"/>
<polygon fill="#000000" stroke="#000000" points="75.2778,-35.8484 79.1329,-42.4862 75.6387,-39.3298 75.9997,-42.8111 75.9997,-42.8111 75.9997,-42.8111 75.6387,-39.3298 72.8665,-43.136 75.2778,-35.8484 75.2778,-35.8484"/>
<text text-anchor="start" x="56.5" y="-114.4" font-family="Lato" font-size="12.00" fill="#000000">a &amp; !b</text>
<text text-anchor="start" x="65" y="-101.4" font-family="Lato" font-size="12.00" fill="#ff4da0">❶</text>
</g>
<!-- 0&#45;&gt;0 -->
<g id="edge5" class="edge">
<title>0&#45;&gt;0</title>
<path fill="none" stroke="#000000" d="M68.2971,-35.9414C63.2422,-70.8918 64.4766,-124 72,-124 79.0238,-124 80.5661,-77.7111 76.6268,-43.1235"/>
<polygon fill="#000000" stroke="#000000" points="75.7029,-35.9414 79.7203,-42.4823 76.1495,-39.4128 76.5961,-42.8842 76.5961,-42.8842 76.5961,-42.8842 76.1495,-39.4128 73.4718,-43.2861 75.7029,-35.9414 75.7029,-35.9414"/>
<text text-anchor="start" x="55" y="-139.4" font-family="Lato" font-size="12.00" fill="#000000">!a &amp; !b</text>
<text text-anchor="start" x="58" y="-127.4" font-family="Lato" font-size="12.00" fill="#1f78b4">⓿</text>
<text text-anchor="start" x="72" y="-127.4" font-family="Lato" font-size="12.00" fill="#ff4da0">❶</text>
</g>
</g>
</svg>
