<?xml version="1.0" encoding="UTF-8" standalone="no"?>
<?xml-stylesheet href="spot.css" type="text/css"?>
<!DOCTYPE svg PUBLIC "-//W3C//DTD SVG 1.1//EN"
 "http://www.w3.org/Graphics/SVG/1.1/DTD/svg11.dtd">
<!-- Generated by graphviz version 2.40.1 (20161225.0304)
 -->
<!-- Title: G(Fa &amp; Fb) Pages: 1 -->
<svg width="103pt" height="237pt"
 viewBox="0.00 0.00 103.00 237.00" xmlns="http://www.w3.org/2000/svg" xmlns:xlink="http://www.w3.org/1999/xlink">
<g id="graph0" class="graph" transform="scale(1 1) rotate(0) translate(4 233)">
<title>G(Fa &amp; Fb)</title>
<polygon fill="#ffffff" stroke="transparent" points="-4,4 -4,-233 99,-233 99,4 -4,4"/>
<text text-anchor="start" x="8" y="-216.4" font-family="Lato" font-size="12.00" fill="#000000">Inf(</text>
<text text-anchor="start" x="26" y="-216.4" font-family="Lato" font-size="12.00" fill="#1f78b4">⓿</text>
<text text-anchor="start" x="40" y="-216.4" font-family="Lato" font-size="12.00" fill="#000000">)&amp;Inf(</text>
<text text-anchor="start" x="69" y="-216.4" font-family="Lato" font-size="12.00" fill="#ff4da0">❶</text>
<text text-anchor="start" x="83" y="-216.4" font-family="Lato" font-size="12.00" fill="#000000">)</text>
<text text-anchor="start" x="11" y="-204.4" font-family="Lato" font-size="12.00" fill="#000000">[gen. Büchi 2]</text>
<!-- I -->
<!-- 0 -->
<g id="node2" class="node">
<title>0</title>
<ellipse fill="#ffffa0" stroke="#000000" cx="66.5" cy="-18" rx="18" ry="18"/>
<text text-anchor="middle" x="66.5" y="-14.9" font-family="Lato" font-size="12.00" fill="#000000">0</text>
</g>
<!-- I&#45;&gt;0 -->
<g id="edge1" class="edge">
<title>I&#45;&gt;0</title>
<path fill="none" stroke="#000000" d="M11.6233,-18C14.678,-18 28.4448,-18 41.4241,-18"/>
<polygon fill="#000000" stroke="#000000" points="48.4807,-18 41.4808,-21.1501 44.9807,-18 41.4807,-18.0001 41.4807,-18.0001 41.4807,-18.0001 44.9807,-18 41.4807,-14.8501 48.4807,-18 48.4807,-18"/>
</g>
<!-- 0&#45;&gt;0 -->
<g id="edge2" class="edge">
<title>0&#45;&gt;0</title>
<path fill="none" stroke="#000000" d="M64.8718,-36.1527C64.6213,-45.5391 65.1641,-54 66.5,-54 67.4811,-54 68.0344,-49.437 68.1599,-43.2953"/>
<polygon fill="#000000" stroke="#000000" points="68.1282,-36.1527 71.3093,-43.1386 68.1438,-39.6527 68.1593,-43.1526 68.1593,-43.1526 68.1593,-43.1526 68.1438,-39.6527 65.0094,-43.1667 68.1282,-36.1527 68.1282,-36.1527"/>
<text text-anchor="start" x="49.5" y="-57.4" font-family="Lato" font-size="12.00" fill="#000000">!a &amp; !b</text>
</g>
<!-- 0&#45;&gt;0 -->
<g id="edge3" class="edge">
<title>0&#45;&gt;0</title>
<path fill="none" stroke="#000000" d="M63.7943,-35.9782C62.3461,-53.1996 63.248,-72 66.5,-72 69.2946,-72 70.3537,-58.1155 69.6772,-43.2805"/>
<polygon fill="#000000" stroke="#000000" points="69.2057,-35.9782 72.8003,-42.7607 69.4313,-39.471 69.6569,-42.9637 69.6569,-42.9637 69.6569,-42.9637 69.4313,-39.471 66.5134,-43.1667 69.2057,-35.9782 69.2057,-35.9782"/>
<text text-anchor="start" x="51" y="-88.4" font-family="Lato" font-size="12.00" fill="#000000">!a &amp; b</text>
<text text-anchor="start" x="59.5" y="-75.4" font-family="Lato" font-size="12.00" fill="#ff4da0">❶</text>
</g>
<!-- 0&#45;&gt;0 -->
<g id="edge4" class="edge">
<title>0&#45;&gt;0</title>
<path fill="none" stroke="#000000" d="M63.2222,-35.8484C60.0285,-62.4395 61.1211,-98 66.5,-98 71.4167,-98 72.7521,-68.2888 70.5062,-42.8744"/>
<polygon fill="#000000" stroke="#000000" points="69.7778,-35.8484 73.6329,-42.4862 70.1387,-39.3298 70.4997,-42.8111 70.4997,-42.8111 70.4997,-42.8111 70.1387,-39.3298 67.3665,-43.136 69.7778,-35.8484 69.7778,-35.8484"/>
<text text-anchor="start" x="51" y="-114.4" font-family="Lato" font-size="12.00" fill="#000000">a &amp; !b</text>
<text text-anchor="start" x="59.5" y="-101.4" font-family="Lato" font-size="12.00" fill="#1f78b4">⓿</text>
</g>
<!-- 0&#45;&gt;0 -->
<g id="edge5" class="edge">
<title>0&#45;&gt;0</title>
<path fill="none" stroke="#000000" d="M62.7971,-35.9414C57.7422,-70.8918 58.9766,-124 66.5,-124 73.5238,-124 75.0661,-77.7111 71.1268,-43.1235"/>
<polygon fill="#000000" stroke="#000000" points="70.2029,-35.9414 74.2203,-42.4823 70.6495,-39.4128 71.0961,-42.8842 71.0961,-42.8842 71.0961,-42.8842 70.6495,-39.4128 67.9718,-43.2861 70.2029,-35.9414 70.2029,-35.9414"/>
<text text-anchor="start" x="52.5" y="-139.4" font-family="Lato" font-size="12.00" fill="#000000">a &amp; b</text>
<text text-anchor="start" x="52.5" y="-127.4" font-family="Lato" font-size="12.00" fill="#1f78b4">⓿</text>
<text text-anchor="start" x="66.5" y="-127.4" font-family="Lato" font-size="12.00" fill="#ff4da0">❶</text>
</g>
</g>
</svg>
