<?xml version="1.0" encoding="UTF-8" standalone="no"?>
<?xml-stylesheet href="spot.css" type="text/css"?>
<!DOCTYPE svg PUBLIC "-//W3C//DTD SVG 1.1//EN"
 "http://www.w3.org/Graphics/SVG/1.1/DTD/svg11.dtd">
<!-- Generated by graphviz version 2.40.1 (20161225.0304)
 -->
<!-- Pages: 1 -->
<svg width="276pt" height="140pt"
 viewBox="0.00 0.00 276.08 140.00" xmlns="http://www.w3.org/2000/svg" xmlns:xlink="http://www.w3.org/1999/xlink">
<g id="graph0" class="graph" transform="scale(1 1) rotate(0) translate(4 136)">
<polygon fill="#ffffff" stroke="transparent" points="-4,4 -4,-136 272.0833,-136 272.0833,4 -4,4"/>
<text text-anchor="start" x="65.5416" y="-119.4" font-family="Lato" font-size="12.00" fill="#000000">Inf(</text>
<text text-anchor="start" x="83.5416" y="-119.4" font-family="Lato" font-size="12.00" fill="#ff7f00">❷</text>
<text text-anchor="start" x="97.5416" y="-119.4" font-family="Lato" font-size="12.00" fill="#000000">) | (Fin(</text>
<text text-anchor="start" x="132.5416" y="-119.4" font-family="Lato" font-size="12.00" fill="#ff4da0">❶</text>
<text text-anchor="start" x="146.5416" y="-119.4" font-family="Lato" font-size="12.00" fill="#000000">) &amp; Inf(</text>
<text text-anchor="start" x="181.5416" y="-119.4" font-family="Lato" font-size="12.00" fill="#1f78b4">⓿</text>
<text text-anchor="start" x="195.5416" y="-119.4" font-family="Lato" font-size="12.00" fill="#000000">))</text>
<text text-anchor="start" x="83.5416" y="-107.4" font-family="Lato" font-size="12.00" fill="#000000">[parity max even 3]</text>
<!-- I -->
<!-- 0 -->
<g id="node2" class="node">
<title>0</title>
<ellipse fill="#ffffa0" stroke="#000000" cx="56" cy="-18" rx="18" ry="18"/>
<text text-anchor="middle" x="56" y="-14.9" font-family="Lato" font-size="12.00" fill="#000000">0</text>
</g>
<!-- I&#45;&gt;0 -->
<g id="edge1" class="edge">
<title>I&#45;&gt;0</title>
<path fill="none" stroke="#000000" d="M1.1233,-18C4.178,-18 17.9448,-18 30.9241,-18"/>
<polygon fill="#000000" stroke="#000000" points="37.9807,-18 30.9808,-21.1501 34.4807,-18 30.9807,-18.0001 30.9807,-18.0001 30.9807,-18.0001 34.4807,-18 30.9807,-14.8501 37.9807,-18 37.9807,-18"/>
</g>
<!-- 0&#45;&gt;0 -->
<g id="edge2" class="edge">
<title>0&#45;&gt;0</title>
<path fill="none" stroke="#000000" d="M49.6208,-35.0373C48.3189,-44.8579 50.4453,-54 56,-54 60.166,-54 62.4036,-48.8576 62.7128,-42.1433"/>
<polygon fill="#000000" stroke="#000000" points="62.3792,-35.0373 65.8541,-41.8818 62.5434,-38.5335 62.7076,-42.0296 62.7076,-42.0296 62.7076,-42.0296 62.5434,-38.5335 59.561,-42.1774 62.3792,-35.0373 62.3792,-35.0373"/>
<text text-anchor="start" x="51" y="-57.4" font-family="Lato" font-size="12.00" fill="#000000">!b</text>
</g>
<!-- 1 -->
<g id="node3" class="node">
<title>1</title>
<ellipse fill="#ffffa0" stroke="#000000" cx="135" cy="-51" rx="18" ry="18"/>
<text text-anchor="middle" x="135" y="-47.9" font-family="Lato" font-size="12.00" fill="#000000">1</text>
</g>
<!-- 0&#45;&gt;1 -->
<g id="edge3" class="edge">
<title>0&#45;&gt;1</title>
<path fill="none" stroke="#000000" d="M72.7539,-24.9985C84.0657,-29.7236 99.1528,-36.0259 111.6405,-41.2423"/>
<polygon fill="#000000" stroke="#000000" points="118.2703,-44.0116 110.597,-44.2201 115.0407,-42.6626 111.8112,-41.3135 111.8112,-41.3135 111.8112,-41.3135 115.0407,-42.6626 113.0253,-38.4069 118.2703,-44.0116 118.2703,-44.0116"/>
<text text-anchor="start" x="92" y="-38.4" font-family="Lato" font-size="12.00" fill="#000000">b</text>
</g>
<!-- 1&#45;&gt;1 -->
<g id="edge4" class="edge">
<title>1&#45;&gt;1</title>
<path fill="none" stroke="#000000" d="M128.2664,-68.0373C126.8922,-77.8579 129.1367,-87 135,-87 139.3975,-87 141.7594,-81.8576 142.0858,-75.1433"/>
<polygon fill="#000000" stroke="#000000" points="141.7336,-68.0373 145.2263,-74.8728 141.9069,-71.533 142.0802,-75.0287 142.0802,-75.0287 142.0802,-75.0287 141.9069,-71.533 138.934,-75.1847 141.7336,-68.0373 141.7336,-68.0373"/>
<text text-anchor="start" x="130" y="-90.4" font-family="Lato" font-size="12.00" fill="#000000">!a</text>
</g>
<!-- 2 -->
<g id="node4" class="node">
<title>2</title>
<ellipse fill="#ffffa0" stroke="#000000" cx="244.0416" cy="-35" rx="24.0833" ry="24.0833"/>
<text text-anchor="start" x="240.5416" y="-38.4" font-family="Lato" font-size="12.00" fill="#000000">2</text>
<text text-anchor="start" x="237.0416" y="-25.4" font-family="Lato" font-size="12.00" fill="#1f78b4">⓿</text>
</g>
<!-- 1&#45;&gt;2 -->
<g id="edge5" class="edge">
<title>1&#45;&gt;2</title>
<path fill="none" stroke="#000000" d="M153.0609,-51.8747C166.6293,-52.1912 185.615,-51.908 202,-49 206.1731,-48.2594 210.4972,-47.1891 214.714,-45.9654"/>
<polygon fill="#000000" stroke="#000000" points="221.6637,-43.7922 215.9229,-48.8879 218.3233,-44.8368 214.9828,-45.8814 214.9828,-45.8814 214.9828,-45.8814 218.3233,-44.8368 214.0426,-42.875 221.6637,-43.7922 221.6637,-43.7922"/>
<text text-anchor="start" x="183" y="-54.4" font-family="Lato" font-size="12.00" fill="#000000">a</text>
</g>
<!-- 2&#45;&gt;0 -->
<g id="edge6" class="edge">
<title>2&#45;&gt;0</title>
<path fill="none" stroke="#000000" d="M221.1686,-27.2134C202.9507,-21.4419 176.667,-14.0671 153,-11 137.1327,-8.9437 132.9739,-10.0865 117,-11 105.1537,-11.6775 92.0764,-13.0893 81.0783,-14.4687"/>
<polygon fill="#000000" stroke="#000000" points="73.8371,-15.4091 80.3731,-11.3837 77.308,-14.9583 80.7788,-14.5075 80.7788,-14.5075 80.7788,-14.5075 77.308,-14.9583 81.1845,-17.6312 73.8371,-15.4091 73.8371,-15.4091"/>
<text text-anchor="start" x="122.5" y="-14.4" font-family="Lato" font-size="12.00" fill="#000000">a | !b</text>
</g>
<!-- 2&#45;&gt;1 -->
<g id="edge7" class="edge">
<title>2&#45;&gt;1</title>
<path fill="none" stroke="#000000" d="M220.3475,-30.6936C205.8864,-28.8819 187.1382,-28.0026 171,-32 166.1146,-33.2101 161.1612,-35.2174 156.5558,-37.4847"/>
<polygon fill="#000000" stroke="#000000" points="150.1057,-40.93 154.7959,-34.8534 153.1929,-39.2809 156.2801,-37.6319 156.2801,-37.6319 156.2801,-37.6319 153.1929,-39.2809 157.7642,-40.4104 150.1057,-40.93 150.1057,-40.93"/>
<text text-anchor="start" x="171" y="-35.4" font-family="Lato" font-size="12.00" fill="#000000">!a &amp; b</text>
</g>
</g>
</svg>
