<?xml version="1.0" encoding="UTF-8" standalone="no"?>
<?xml-stylesheet href="spot.css" type="text/css"?>
<!DOCTYPE svg PUBLIC "-//W3C//DTD SVG 1.1//EN"
 "http://www.w3.org/Graphics/SVG/1.1/DTD/svg11.dtd">
<!-- Generated by graphviz version 2.40.1 (20161225.0304)
 -->
<!-- Pages: 1 -->
<svg width="218pt" height="133pt"
 viewBox="0.00 0.00 218.00 133.23" xmlns="http://www.w3.org/2000/svg" xmlns:xlink="http://www.w3.org/1999/xlink">
<g id="graph0" class="graph" transform="scale(1 1) rotate(0) translate(4 129.2254)">
<polygon fill="#ffffff" stroke="transparent" points="-4,4 -4,-129.2254 214,-129.2254 214,4 -4,4"/>
<text text-anchor="start" x="8" y="-112.6254" font-family="Lato" font-size="12.00" fill="#000000">(Fin(</text>
<text text-anchor="start" x="31" y="-112.6254" font-family="Lato" font-size="12.00" fill="#1f78b4">⓿</text>
<text text-anchor="start" x="45" y="-112.6254" font-family="Lato" font-size="12.00" fill="#000000">) &amp; Inf(</text>
<text text-anchor="start" x="80" y="-112.6254" font-family="Lato" font-size="12.00" fill="#ff4da0">❶</text>
<text text-anchor="start" x="94" y="-112.6254" font-family="Lato" font-size="12.00" fill="#000000">)) | (Fin(</text>
<text text-anchor="start" x="132" y="-112.6254" font-family="Lato" font-size="12.00" fill="#ff7f00">❷</text>
<text text-anchor="start" x="146" y="-112.6254" font-family="Lato" font-size="12.00" fill="#000000">) &amp; Inf(</text>
<text text-anchor="start" x="181" y="-112.6254" font-family="Lato" font-size="12.00" fill="#6a3d9a">❸</text>
<text text-anchor="start" x="195" y="-112.6254" font-family="Lato" font-size="12.00" fill="#000000">))</text>
<text text-anchor="start" x="81" y="-100.6254" font-family="Lato" font-size="12.00" fill="#000000">[Rabin 2]</text>
<!-- I -->
<!-- 0 -->
<g id="node2" class="node">
<title>0</title>
<ellipse fill="#ffffa0" stroke="#000000" cx="69.8873" cy="-31.1127" rx="31.2258" ry="31.2258"/>
<text text-anchor="start" x="66.3873" y="-34.5127" font-family="Lato" font-size="12.00" fill="#000000">0</text>
<text text-anchor="start" x="55.8873" y="-22.5127" font-family="Lato" font-size="12.00" fill="#ff4da0">❶</text>
<text text-anchor="start" x="69.8873" y="-22.5127" font-family="Lato" font-size="12.00" fill="#ff7f00">❷</text>
</g>
<!-- I&#45;&gt;0 -->
<g id="edge1" class="edge">
<title>I&#45;&gt;0</title>
<path fill="none" stroke="#000000" d="M2.0452,-31.1127C5.2296,-31.1127 17.8312,-31.1127 31.3249,-31.1127"/>
<polygon fill="#000000" stroke="#000000" points="38.4174,-31.1127 31.4174,-34.2628 34.9174,-31.1127 31.4174,-31.1128 31.4174,-31.1128 31.4174,-31.1128 34.9174,-31.1127 31.4173,-27.9628 38.4174,-31.1127 38.4174,-31.1127"/>
</g>
<!-- 0&#45;&gt;0 -->
<g id="edge2" class="edge">
<title>0&#45;&gt;0</title>
<path fill="none" stroke="#000000" d="M60.8895,-61.327C60.7943,-71.7822 63.7936,-80.2254 69.8873,-80.2254 74.4576,-80.2254 77.2873,-75.4761 78.3763,-68.6907"/>
<polygon fill="#000000" stroke="#000000" points="78.8851,-61.327 81.545,-68.5276 78.6438,-64.8187 78.4025,-68.3104 78.4025,-68.3104 78.4025,-68.3104 78.6438,-64.8187 75.26,-68.0932 78.8851,-61.327 78.8851,-61.327"/>
<text text-anchor="start" x="66.3873" y="-83.6254" font-family="Lato" font-size="12.00" fill="#000000">a</text>
</g>
<!-- 1 -->
<g id="node3" class="node">
<title>1</title>
<ellipse fill="#ffffa0" stroke="#000000" cx="178.1127" cy="-31.1127" rx="31.2258" ry="31.2258"/>
<text text-anchor="start" x="174.6127" y="-34.5127" font-family="Lato" font-size="12.00" fill="#000000">1</text>
<text text-anchor="start" x="164.1127" y="-22.5127" font-family="Lato" font-size="12.00" fill="#1f78b4">⓿</text>
<text text-anchor="start" x="178.1127" y="-22.5127" font-family="Lato" font-size="12.00" fill="#6a3d9a">❸</text>
</g>
<!-- 0&#45;&gt;1 -->
<g id="edge3" class="edge">
<title>0&#45;&gt;1</title>
<path fill="none" stroke="#000000" d="M101.1906,-31.1127C113.1933,-31.1127 127.0287,-31.1127 139.6277,-31.1127"/>
<polygon fill="#000000" stroke="#000000" points="146.8798,-31.1127 139.8798,-34.2628 143.3798,-31.1127 139.8798,-31.1128 139.8798,-31.1128 139.8798,-31.1128 143.3798,-31.1127 139.8797,-27.9628 146.8798,-31.1127 146.8798,-31.1127"/>
<text text-anchor="start" x="119" y="-34.5127" font-family="Lato" font-size="12.00" fill="#000000">!a</text>
</g>
<!-- 1&#45;&gt;0 -->
<g id="edge4" class="edge">
<title>1&#45;&gt;0</title>
<path fill="none" stroke="#000000" d="M149.8503,-17.5971C140.1755,-14.4195 129.2148,-12.3948 119,-14.1127 114.6206,-14.8492 110.1097,-15.9309 105.6798,-17.1978"/>
<polygon fill="#000000" stroke="#000000" points="98.8158,-19.3182 104.5742,-14.2424 102.1599,-18.2852 105.504,-17.2521 105.504,-17.2521 105.504,-17.2521 102.1599,-18.2852 106.4337,-20.2618 98.8158,-19.3182 98.8158,-19.3182"/>
<text text-anchor="start" x="119" y="-17.5127" font-family="Lato" font-size="12.00" fill="#000000">!b</text>
</g>
<!-- 1&#45;&gt;1 -->
<g id="edge5" class="edge">
<title>1&#45;&gt;1</title>
<path fill="none" stroke="#000000" d="M167.9976,-60.8431C167.7801,-71.5204 171.1518,-80.2254 178.1127,-80.2254 183.4422,-80.2254 186.6677,-75.1227 187.7893,-67.9389"/>
<polygon fill="#000000" stroke="#000000" points="188.2278,-60.8431 190.9399,-68.0241 188.0119,-64.3364 187.7959,-67.8298 187.7959,-67.8298 187.7959,-67.8298 188.0119,-64.3364 184.6519,-67.6354 188.2278,-60.8431 188.2278,-60.8431"/>
<text text-anchor="start" x="174.6127" y="-83.6254" font-family="Lato" font-size="12.00" fill="#000000">b</text>
</g>
</g>
</svg>
