<?xml version="1.0" encoding="UTF-8" standalone="no"?>
<?xml-stylesheet href="spot.css" type="text/css"?>
<!DOCTYPE svg PUBLIC "-//W3C//DTD SVG 1.1//EN"
 "http://www.w3.org/Graphics/SVG/1.1/DTD/svg11.dtd">
<!-- Generated by graphviz version 2.40.1 (20161225.0304)
 -->
<!-- Pages: 1 -->
<svg width="188pt" height="119pt"
 viewBox="0.00 0.00 188.17 119.08" xmlns="http://www.w3.org/2000/svg" xmlns:xlink="http://www.w3.org/1999/xlink">
<g id="graph0" class="graph" transform="scale(1 1) rotate(0) translate(4 115.0833)">
<polygon fill="#ffffff" stroke="transparent" points="-4,4 -4,-115.0833 184.1665,-115.0833 184.1665,4 -4,4"/>
<text text-anchor="start" x="51.0833" y="-98.4833" font-family="Lato" font-size="12.00" fill="#000000">Fin(</text>
<text text-anchor="start" x="71.0833" y="-98.4833" font-family="Lato" font-size="12.00" fill="#1f78b4">⓿</text>
<text text-anchor="start" x="85.0833" y="-98.4833" font-family="Lato" font-size="12.00" fill="#000000">)|Fin(</text>
<text text-anchor="start" x="111.0833" y="-98.4833" font-family="Lato" font-size="12.00" fill="#ff4da0">❶</text>
<text text-anchor="start" x="125.0833" y="-98.4833" font-family="Lato" font-size="12.00" fill="#000000">)</text>
<text text-anchor="start" x="45.0833" y="-86.4833" font-family="Lato" font-size="12.00" fill="#000000">[gen. co&#45;Büchi 2]</text>
<!-- I -->
<!-- 0 -->
<g id="node2" class="node">
<title>0</title>
<ellipse fill="#ffffa0" stroke="#000000" cx="62.0416" cy="-24.0416" rx="24.0833" ry="24.0833"/>
<text text-anchor="start" x="58.5416" y="-27.4416" font-family="Lato" font-size="12.00" fill="#000000">0</text>
<text text-anchor="start" x="55.0416" y="-14.4416" font-family="Lato" font-size="12.00" fill="#1f78b4">⓿</text>
</g>
<!-- I&#45;&gt;0 -->
<g id="edge1" class="edge">
<title>I&#45;&gt;0</title>
<path fill="none" stroke="#000000" d="M1.1911,-24.0416C4.2886,-24.0416 17.3195,-24.0416 30.5321,-24.0416"/>
<polygon fill="#000000" stroke="#000000" points="37.8292,-24.0416 30.8292,-27.1917 34.3292,-24.0417 30.8292,-24.0417 30.8292,-24.0417 30.8292,-24.0417 34.3292,-24.0417 30.8291,-20.8917 37.8292,-24.0416 37.8292,-24.0416"/>
</g>
<!-- 0&#45;&gt;0 -->
<g id="edge2" class="edge">
<title>0&#45;&gt;0</title>
<path fill="none" stroke="#000000" d="M54.2897,-46.9613C53.5514,-57.2151 56.1354,-66.0833 62.0416,-66.0833 66.4713,-66.0833 69.0322,-61.0949 69.7244,-54.2749"/>
<polygon fill="#000000" stroke="#000000" points="69.7936,-46.9613 72.8771,-53.9908 69.7604,-50.4611 69.7272,-53.961 69.7272,-53.961 69.7272,-53.961 69.7604,-50.4611 66.5774,-53.9311 69.7936,-46.9613 69.7936,-46.9613"/>
<text text-anchor="start" x="58.5416" y="-69.4833" font-family="Lato" font-size="12.00" fill="#000000">a</text>
</g>
<!-- 1 -->
<g id="node3" class="node">
<title>1</title>
<ellipse fill="#ffffa0" stroke="#000000" cx="156.1249" cy="-24.0416" rx="24.0833" ry="24.0833"/>
<text text-anchor="start" x="152.6249" y="-27.4416" font-family="Lato" font-size="12.00" fill="#000000">1</text>
<text text-anchor="start" x="149.1249" y="-14.4416" font-family="Lato" font-size="12.00" fill="#ff4da0">❶</text>
</g>
<!-- 0&#45;&gt;1 -->
<g id="edge3" class="edge">
<title>0&#45;&gt;1</title>
<path fill="none" stroke="#000000" d="M86.2704,-24.0416C98.0128,-24.0416 112.2575,-24.0416 124.8128,-24.0416"/>
<polygon fill="#000000" stroke="#000000" points="131.9782,-24.0416 124.9783,-27.1917 128.4782,-24.0417 124.9782,-24.0417 124.9782,-24.0417 124.9782,-24.0417 128.4782,-24.0417 124.9782,-20.8917 131.9782,-24.0416 131.9782,-24.0416"/>
<text text-anchor="start" x="104.0833" y="-27.4416" font-family="Lato" font-size="12.00" fill="#000000">!a</text>
</g>
<!-- 1&#45;&gt;0 -->
<g id="edge4" class="edge">
<title>1&#45;&gt;0</title>
<path fill="none" stroke="#000000" d="M135.1695,-12.0267C125.8001,-8.0087 114.5328,-5.0089 104.0833,-7.0416 99.6202,-7.9098 95.0314,-9.2514 90.6005,-10.8087"/>
<polygon fill="#000000" stroke="#000000" points="83.8086,-13.3962 89.2285,-7.9604 87.0793,-12.1501 90.35,-10.904 90.35,-10.904 90.35,-10.904 87.0793,-12.1501 91.4715,-13.8477 83.8086,-13.3962 83.8086,-13.3962"/>
<text text-anchor="start" x="104.0833" y="-10.4416" font-family="Lato" font-size="12.00" fill="#000000">!b</text>
</g>
<!-- 1&#45;&gt;1 -->
<g id="edge5" class="edge">
<title>1&#45;&gt;1</title>
<path fill="none" stroke="#000000" d="M147.6347,-46.9613C146.8261,-57.2151 149.6561,-66.0833 156.1249,-66.0833 160.9765,-66.0833 163.7813,-61.0949 164.5393,-54.2749"/>
<polygon fill="#000000" stroke="#000000" points="164.6151,-46.9613 167.6923,-53.9936 164.5788,-50.4611 164.5425,-53.9609 164.5425,-53.9609 164.5425,-53.9609 164.5788,-50.4611 161.3926,-53.9282 164.6151,-46.9613 164.6151,-46.9613"/>
<text text-anchor="start" x="152.6249" y="-69.4833" font-family="Lato" font-size="12.00" fill="#000000">b</text>
</g>
</g>
</svg>
