<?xml version="1.0" encoding="UTF-8" standalone="no"?>
<?xml-stylesheet href="spot.css" type="text/css"?>
<!DOCTYPE svg PUBLIC "-//W3C//DTD SVG 1.1//EN"
 "http://www.w3.org/Graphics/SVG/1.1/DTD/svg11.dtd">
<!-- Generated by graphviz version 2.40.1 (20161225.0304)
 -->
<!-- Pages: 1 -->
<svg width="299pt" height="160pt"
 viewBox="0.00 0.00 299.00 159.97" xmlns="http://www.w3.org/2000/svg" xmlns:xlink="http://www.w3.org/1999/xlink">
<g id="graph0" class="graph" transform="scale(1 1) rotate(0) translate(4 155.9721)">
<polygon fill="#ffffff" stroke="transparent" points="-4,4 -4,-155.9721 295,-155.9721 295,4 -4,4"/>
<text text-anchor="start" x="118" y="-125.3721" font-family="Lato" font-size="12.00" fill="#000000">[co&#45;Büchi]</text>
<!-- I -->
<!-- 0 -->
<g id="node2" class="node">
<title>0</title>
<ellipse fill="#ffffa0" stroke="#000000" cx="60" cy="-52.5721" rx="18" ry="18"/>
<ellipse fill="none" stroke="#000000" cx="60" cy="-52.5721" rx="22" ry="22"/>
<text text-anchor="middle" x="60" y="-49.4721" font-family="Lato" font-size="12.00" fill="#000000">0</text>
</g>
<!-- I&#45;&gt;0 -->
<g id="edge1" class="edge">
<title>I&#45;&gt;0</title>
<path fill="none" stroke="#000000" d="M1.1682,-52.5721C4.2491,-52.5721 17.4946,-52.5721 30.6388,-52.5721"/>
<polygon fill="#000000" stroke="#000000" points="37.8655,-52.5721 30.8656,-55.7222 34.3655,-52.5721 30.8655,-52.5722 30.8655,-52.5722 30.8655,-52.5722 34.3655,-52.5721 30.8655,-49.4222 37.8655,-52.5721 37.8655,-52.5721"/>
</g>
<!-- 1 -->
<g id="node3" class="node">
<title>1</title>
<ellipse fill="#ffffa0" stroke="#000000" cx="273" cy="-42.5721" rx="18" ry="18"/>
<text text-anchor="middle" x="273" y="-39.4721" font-family="Lato" font-size="12.00" fill="#000000">1</text>
</g>
<!-- 0&#45;&gt;1 -->
<g id="edge2" class="edge">
<title>0&#45;&gt;1</title>
<path fill="none" stroke="#000000" d="M77.1652,-66.695C101.5191,-84.9587 147.6339,-113.0319 188,-100.5721 213.5415,-92.6882 238.2631,-74.2069 254.398,-60.2091"/>
<polygon fill="#000000" stroke="#000000" points="259.9396,-55.2828 256.8008,-62.2879 257.3237,-57.6083 254.7079,-59.9337 254.7079,-59.9337 254.7079,-59.9337 257.3237,-57.6083 252.615,-57.5794 259.9396,-55.2828 259.9396,-55.2828"/>
<text text-anchor="start" x="153" y="-106.9721" font-family="Lato" font-size="12.00" fill="#000000">!a &amp; !b</text>
</g>
<!-- 2 -->
<g id="node4" class="node">
<title>2</title>
<ellipse fill="#ffffa0" stroke="#000000" cx="170" cy="-42.5721" rx="18" ry="18"/>
<text text-anchor="middle" x="170" y="-39.4721" font-family="Lato" font-size="12.00" fill="#000000">2</text>
</g>
<!-- 0&#45;&gt;2 -->
<g id="edge3" class="edge">
<title>0&#45;&gt;2</title>
<path fill="none" stroke="#000000" d="M82.0708,-52.0207C96.8095,-51.4949 116.6072,-50.4856 134,-48.5721 137.6077,-48.1752 141.4033,-47.6555 145.1221,-47.0879"/>
<polygon fill="#000000" stroke="#000000" points="152.1092,-45.9568 145.7025,-50.185 148.6542,-46.5161 145.1992,-47.0755 145.1992,-47.0755 145.1992,-47.0755 148.6542,-46.5161 144.6958,-43.9659 152.1092,-45.9568 152.1092,-45.9568"/>
<text text-anchor="start" x="106" y="-53.9721" font-family="Lato" font-size="12.00" fill="#000000">a | b</text>
</g>
<!-- 1&#45;&gt;0 -->
<g id="edge4" class="edge">
<title>1&#45;&gt;0</title>
<path fill="none" stroke="#000000" d="M257.7689,-32.8669C241.3097,-23.0022 213.9438,-8.3715 188,-2.5721 172.3854,.9184 167.6544,.7354 152,-2.5721 126.8133,-7.8936 101.3404,-22.6272 83.6047,-34.7317"/>
<polygon fill="#000000" stroke="#000000" points="77.4354,-39.05 81.3638,-32.4553 80.3028,-37.043 83.1701,-35.0359 83.1701,-35.0359 83.1701,-35.0359 80.3028,-37.043 84.9765,-37.6165 77.4354,-39.05 77.4354,-39.05"/>
<text text-anchor="start" x="165" y="-5.9721" font-family="Lato" font-size="12.00" fill="#000000">!b</text>
</g>
<!-- 1&#45;&gt;1 -->
<g id="edge5" class="edge">
<title>1&#45;&gt;1</title>
<path fill="none" stroke="#000000" d="M264.3666,-58.4881C262.1144,-68.7225 264.9922,-78.5721 273,-78.5721 279.131,-78.5721 282.2548,-72.7984 282.3716,-65.4989"/>
<polygon fill="#000000" stroke="#000000" points="281.6334,-58.4881 285.4992,-65.1198 282,-61.9689 282.3665,-65.4496 282.3665,-65.4496 282.3665,-65.4496 282,-61.9689 279.2338,-65.7795 281.6334,-58.4881 281.6334,-58.4881"/>
<text text-anchor="start" x="269.5" y="-81.9721" font-family="Lato" font-size="12.00" fill="#000000">b</text>
</g>
<!-- 2&#45;&gt;0 -->
<g id="edge6" class="edge">
<title>2&#45;&gt;0</title>
<path fill="none" stroke="#000000" d="M153.1498,-36.2042C138.8696,-31.6907 117.9164,-27.1549 100,-31.5721 94.9739,-32.8112 89.8807,-34.8073 85.0891,-37.0875"/>
<polygon fill="#000000" stroke="#000000" points="78.7766,-40.3288 83.5648,-34.3292 81.8901,-38.7301 85.0037,-37.1314 85.0037,-37.1314 85.0037,-37.1314 81.8901,-38.7301 86.4425,-39.9336 78.7766,-40.3288 78.7766,-40.3288"/>
<text text-anchor="start" x="100" y="-34.9721" font-family="Lato" font-size="12.00" fill="#000000">!a &amp; !b</text>
</g>
<!-- 2&#45;&gt;1 -->
<g id="edge7" class="edge">
<title>2&#45;&gt;1</title>
<path fill="none" stroke="#000000" d="M188.4143,-42.5721C204.8188,-42.5721 228.9902,-42.5721 247.2978,-42.5721"/>
<polygon fill="#000000" stroke="#000000" points="254.7451,-42.5721 247.7451,-45.7222 251.2451,-42.5721 247.7451,-42.5722 247.7451,-42.5722 247.7451,-42.5722 251.2451,-42.5721 247.745,-39.4222 254.7451,-42.5721 254.7451,-42.5721"/>
<text text-anchor="start" x="206" y="-45.9721" font-family="Lato" font-size="12.00" fill="#000000">!a &amp; b</text>
</g>
<!-- 2&#45;&gt;2 -->
<g id="edge8" class="edge">
<title>2&#45;&gt;2</title>
<path fill="none" stroke="#000000" d="M161.3666,-58.4881C159.1144,-68.7225 161.9922,-78.5721 170,-78.5721 176.131,-78.5721 179.2548,-72.7984 179.3716,-65.4989"/>
<polygon fill="#000000" stroke="#000000" points="178.6334,-58.4881 182.4992,-65.1198 179,-61.9689 179.3665,-65.4496 179.3665,-65.4496 179.3665,-65.4496 179,-61.9689 176.2338,-65.7795 178.6334,-58.4881 178.6334,-58.4881"/>
<text text-anchor="start" x="166.5" y="-81.9721" font-family="Lato" font-size="12.00" fill="#000000">a</text>
</g>
</g>
</svg>
