<?xml version="1.0" encoding="UTF-8" standalone="no"?>
<?xml-stylesheet href="spot.css" type="text/css"?>
<!DOCTYPE svg PUBLIC "-//W3C//DTD SVG 1.1//EN"
 "http://www.w3.org/Graphics/SVG/1.1/DTD/svg11.dtd">
<!-- Generated by graphviz version 2.40.1 (20161225.0304)
 -->
<!-- Pages: 1 -->
<svg width="279pt" height="174pt"
 viewBox="0.00 0.00 279.25 174.08" xmlns="http://www.w3.org/2000/svg" xmlns:xlink="http://www.w3.org/1999/xlink">
<g id="graph0" class="graph" transform="scale(1 1) rotate(0) translate(4 170.0833)">
<polygon fill="#ffffff" stroke="transparent" points="-4,4 -4,-170.0833 275.2498,-170.0833 275.2498,4 -4,4"/>
<text text-anchor="start" x="67.1249" y="-153.4833" font-family="Lato" font-size="12.00" fill="#000000">Inf(</text>
<text text-anchor="start" x="85.1249" y="-153.4833" font-family="Lato" font-size="12.00" fill="#ff7f00">❷</text>
<text text-anchor="start" x="99.1249" y="-153.4833" font-family="Lato" font-size="12.00" fill="#000000">) | (Fin(</text>
<text text-anchor="start" x="134.1249" y="-153.4833" font-family="Lato" font-size="12.00" fill="#ff4da0">❶</text>
<text text-anchor="start" x="148.1249" y="-153.4833" font-family="Lato" font-size="12.00" fill="#000000">) &amp; Inf(</text>
<text text-anchor="start" x="183.1249" y="-153.4833" font-family="Lato" font-size="12.00" fill="#1f78b4">⓿</text>
<text text-anchor="start" x="197.1249" y="-153.4833" font-family="Lato" font-size="12.00" fill="#000000">))</text>
<text text-anchor="start" x="85.1249" y="-141.4833" font-family="Lato" font-size="12.00" fill="#000000">[parity max even 3]</text>
<!-- I -->
<!-- 0 -->
<g id="node2" class="node">
<title>0</title>
<ellipse fill="#ffffa0" stroke="#000000" cx="62.0416" cy="-24.0416" rx="24.0833" ry="24.0833"/>
<text text-anchor="start" x="58.5416" y="-27.4416" font-family="Lato" font-size="12.00" fill="#000000">0</text>
<text text-anchor="start" x="55.0416" y="-14.4416" font-family="Lato" font-size="12.00" fill="#ff7f00">❷</text>
</g>
<!-- I&#45;&gt;0 -->
<g id="edge1" class="edge">
<title>I&#45;&gt;0</title>
<path fill="none" stroke="#000000" d="M1.1911,-24.0416C4.2886,-24.0416 17.3195,-24.0416 30.5321,-24.0416"/>
<polygon fill="#000000" stroke="#000000" points="37.8292,-24.0416 30.8292,-27.1917 34.3292,-24.0417 30.8292,-24.0417 30.8292,-24.0417 30.8292,-24.0417 34.3292,-24.0417 30.8291,-20.8917 37.8292,-24.0416 37.8292,-24.0416"/>
</g>
<!-- 1 -->
<g id="node3" class="node">
<title>1</title>
<ellipse fill="#ffffa0" stroke="#000000" cx="156.1249" cy="-79.0416" rx="24.0833" ry="24.0833"/>
<text text-anchor="start" x="152.6249" y="-82.4416" font-family="Lato" font-size="12.00" fill="#000000">1</text>
<text text-anchor="start" x="149.1249" y="-69.4416" font-family="Lato" font-size="12.00" fill="#ff4da0">❶</text>
</g>
<!-- 0&#45;&gt;1 -->
<g id="edge2" class="edge">
<title>0&#45;&gt;1</title>
<path fill="none" stroke="#000000" d="M82.9218,-36.2479C96.5641,-44.223 114.5106,-54.7144 129.2195,-63.3131"/>
<polygon fill="#000000" stroke="#000000" points="135.3031,-66.8695 127.6702,-66.0561 132.2816,-65.1031 129.26,-63.3367 129.26,-63.3367 129.26,-63.3367 132.2816,-65.1031 130.8497,-60.6172 135.3031,-66.8695 135.3031,-66.8695"/>
<text text-anchor="start" x="104.0833" y="-56.4416" font-family="Lato" font-size="12.00" fill="#000000">!b</text>
</g>
<!-- 2 -->
<g id="node4" class="node">
<title>2</title>
<ellipse fill="#ffffa0" stroke="#000000" cx="247.2082" cy="-24.0416" rx="24.0833" ry="24.0833"/>
<text text-anchor="start" x="243.7082" y="-27.4416" font-family="Lato" font-size="12.00" fill="#000000">2</text>
<text text-anchor="start" x="240.2082" y="-14.4416" font-family="Lato" font-size="12.00" fill="#ff4da0">❶</text>
</g>
<!-- 0&#45;&gt;2 -->
<g id="edge3" class="edge">
<title>0&#45;&gt;2</title>
<path fill="none" stroke="#000000" d="M86.2489,-24.0416C119.3794,-24.0416 178.9032,-24.0416 215.5417,-24.0416"/>
<polygon fill="#000000" stroke="#000000" points="222.9949,-24.0416 215.995,-27.1917 219.4949,-24.0417 215.9949,-24.0417 215.9949,-24.0417 215.9949,-24.0417 219.4949,-24.0417 215.9949,-20.8917 222.9949,-24.0416 222.9949,-24.0416"/>
<text text-anchor="start" x="152.6249" y="-27.4416" font-family="Lato" font-size="12.00" fill="#000000">b</text>
</g>
<!-- 1&#45;&gt;1 -->
<g id="edge4" class="edge">
<title>1&#45;&gt;1</title>
<path fill="none" stroke="#000000" d="M148.0038,-101.9613C147.2304,-112.2151 149.9374,-121.0833 156.1249,-121.0833 160.7655,-121.0833 163.4484,-116.0949 164.1735,-109.2749"/>
<polygon fill="#000000" stroke="#000000" points="164.246,-101.9613 167.3263,-108.9922 164.2112,-105.4611 164.1765,-108.961 164.1765,-108.961 164.1765,-108.961 164.2112,-105.4611 161.0266,-108.9297 164.246,-101.9613 164.246,-101.9613"/>
<text text-anchor="start" x="151.1249" y="-124.4833" font-family="Lato" font-size="12.00" fill="#000000">!b</text>
</g>
<!-- 1&#45;&gt;2 -->
<g id="edge5" class="edge">
<title>1&#45;&gt;2</title>
<path fill="none" stroke="#000000" d="M176.7931,-66.5613C189.7197,-58.7557 206.5029,-48.6212 220.4417,-40.2044"/>
<polygon fill="#000000" stroke="#000000" points="226.6217,-36.4726 222.2578,-42.7876 223.6256,-38.2818 220.6295,-40.091 220.6295,-40.091 220.6295,-40.091 223.6256,-38.2818 219.0012,-37.3945 226.6217,-36.4726 226.6217,-36.4726"/>
<text text-anchor="start" x="198.1665" y="-56.4416" font-family="Lato" font-size="12.00" fill="#000000">b</text>
</g>
<!-- 2&#45;&gt;0 -->
<g id="edge6" class="edge">
<title>2&#45;&gt;0</title>
<path fill="none" stroke="#000000" d="M224.2092,-16.7032C211.3934,-12.9972 195.0604,-8.9006 180.1665,-7.0416 158.9607,-4.3949 153.3023,-4.5034 132.0833,-7.0416 118.7891,-8.6319 104.3719,-11.8626 92.0929,-15.0847"/>
<polygon fill="#000000" stroke="#000000" points="85.1349,-16.9684 91.0686,-12.0986 88.5133,-16.0538 91.8917,-15.1391 91.8917,-15.1391 91.8917,-15.1391 88.5133,-16.0538 92.7149,-18.1797 85.1349,-16.9684 85.1349,-16.9684"/>
<text text-anchor="start" x="152.6249" y="-10.4416" font-family="Lato" font-size="12.00" fill="#000000">a</text>
</g>
<!-- 2&#45;&gt;2 -->
<g id="edge7" class="edge">
<title>2&#45;&gt;2</title>
<path fill="none" stroke="#000000" d="M239.0871,-46.9613C238.3136,-57.2151 241.0207,-66.0833 247.2082,-66.0833 251.8488,-66.0833 254.5316,-61.0949 255.2567,-54.2749"/>
<polygon fill="#000000" stroke="#000000" points="255.3292,-46.9613 258.4096,-53.9922 255.2945,-50.4611 255.2598,-53.961 255.2598,-53.961 255.2598,-53.961 255.2945,-50.4611 252.1099,-53.9297 255.3292,-46.9613 255.3292,-46.9613"/>
<text text-anchor="start" x="242.2082" y="-69.4833" font-family="Lato" font-size="12.00" fill="#000000">!a</text>
</g>
</g>
</svg>
