<?xml version="1.0" encoding="UTF-8" standalone="no"?>
<?xml-stylesheet href="spot.css" type="text/css"?>
<!DOCTYPE svg PUBLIC "-//W3C//DTD SVG 1.1//EN"
 "http://www.w3.org/Graphics/SVG/1.1/DTD/svg11.dtd">
<!-- Generated by graphviz version 2.40.1 (20161225.0304)
 -->
<!-- Title: a U (b U c) Pages: 1 -->
<svg width="295pt" height="157pt"
 viewBox="0.00 0.00 295.00 157.40" xmlns="http://www.w3.org/2000/svg" xmlns:xlink="http://www.w3.org/1999/xlink">
<g id="graph0" class="graph" transform="scale(1 1) rotate(0) translate(4 153.4)">
<title>a U (b U c)</title>
<polygon fill="#ffffff" stroke="transparent" points="-4,4 -4,-153.4 291,-153.4 291,4 -4,4"/>
<text text-anchor="start" x="124.5" y="-122.8" font-family="Lato" font-size="12.00" fill="#000000">[Büchi]</text>
<!-- I -->
<!-- 2 -->
<g id="node2" class="node">
<title>2</title>
<ellipse fill="#ffffa0" stroke="#000000" cx="56" cy="-61" rx="18" ry="18"/>
<text text-anchor="middle" x="56" y="-57.9" font-family="Lato" font-size="12.00" fill="#000000">2</text>
</g>
<!-- I&#45;&gt;2 -->
<g id="edge1" class="edge">
<title>I&#45;&gt;2</title>
<path fill="none" stroke="#000000" d="M1.1233,-61C4.178,-61 17.9448,-61 30.9241,-61"/>
<polygon fill="#000000" stroke="#000000" points="37.9807,-61 30.9808,-64.1501 34.4807,-61 30.9807,-61.0001 30.9807,-61.0001 30.9807,-61.0001 34.4807,-61 30.9807,-57.8501 37.9807,-61 37.9807,-61"/>
</g>
<!-- 2&#45;&gt;2 -->
<g id="edge7" class="edge">
<title>2&#45;&gt;2</title>
<path fill="none" stroke="#ff4da0" stroke-width="2" d="M49.6208,-78.0373C48.3189,-87.8579 50.4453,-97 56,-97 60.166,-97 62.4036,-91.8576 62.7128,-85.1433"/>
<polygon fill="#ff4da0" stroke="#ff4da0" stroke-width="2" points="62.3792,-78.0373 65.8541,-84.8818 63.0428,-81.51 63.207,-85.0062 62.7076,-85.0296 62.2081,-85.0531 62.0439,-81.5569 59.561,-85.1774 62.3792,-78.0373 62.3792,-78.0373"/>
<text text-anchor="start" x="41" y="-100.4" font-family="Lato" font-size="12.00" fill="#000000">a &amp; !c</text>
</g>
<!-- 0 -->
<g id="node3" class="node">
<title>0</title>
<ellipse fill="#ffffa0" stroke="#000000" cx="265" cy="-61" rx="18" ry="18"/>
<ellipse fill="none" stroke="#000000" cx="265" cy="-61" rx="22" ry="22"/>
<text text-anchor="middle" x="265" y="-57.9" font-family="Lato" font-size="12.00" fill="#000000">0</text>
</g>
<!-- 2&#45;&gt;0 -->
<g id="edge5" class="edge">
<title>2&#45;&gt;0</title>
<path fill="none" stroke="#ff4da0" stroke-width="2" d="M73.7469,-65.3331C100.9406,-71.4112 154.5476,-81.1765 200,-76 212.2926,-74.6 225.6448,-71.7564 237.0316,-68.9178"/>
<polygon fill="#ff4da0" stroke="#ff4da0" stroke-width="2" points="243.8405,-67.1639 237.8476,-71.9605 240.5759,-68.5212 237.1865,-69.3943 237.0618,-68.9101 236.9371,-68.4259 240.3264,-67.5528 236.276,-65.8597 243.8405,-67.1639 243.8405,-67.1639"/>
<text text-anchor="start" x="178.5" y="-80.4" font-family="Lato" font-size="12.00" fill="#000000">c</text>
</g>
<!-- 1 -->
<g id="node4" class="node">
<title>1</title>
<ellipse fill="#ffffa0" stroke="#000000" cx="182" cy="-18" rx="18" ry="18"/>
<text text-anchor="start" x="178.5" y="-14.9" font-family="Lato" font-size="12.00" fill="#000000">1</text>
</g>
<!-- 2&#45;&gt;1 -->
<g id="edge6" class="edge">
<title>2&#45;&gt;1</title>
<path fill="none" stroke="#000000" d="M73.2556,-55.1112C95.2165,-47.6166 133.2675,-34.6309 158.0348,-26.1786"/>
<polygon fill="#000000" stroke="#000000" points="164.9528,-23.8177 159.3454,-29.0598 161.6404,-24.9481 158.328,-26.0786 158.328,-26.0786 158.328,-26.0786 161.6404,-24.9481 157.3106,-23.0974 164.9528,-23.8177 164.9528,-23.8177"/>
<text text-anchor="start" x="92" y="-51.4" font-family="Lato" font-size="12.00" fill="#000000">!a &amp; b &amp; !c</text>
</g>
<!-- 0&#45;&gt;0 -->
<g id="edge2" class="edge">
<title>0&#45;&gt;0</title>
<path fill="none" stroke="#ff4da0" stroke-width="2" d="M257.3173,-81.9908C256.3688,-92.0872 258.9297,-101 265,-101 269.5527,-101 272.1314,-95.9866 272.7361,-89.2204"/>
<polygon fill="#ff4da0" stroke="#ff4da0" stroke-width="2" points="272.6827,-81.9908 275.8844,-88.9673 273.2086,-85.487 273.2345,-88.9869 272.7345,-88.9906 272.2345,-88.9943 272.2086,-85.4944 269.5846,-89.0139 272.6827,-81.9908 272.6827,-81.9908"/>
<text text-anchor="start" x="261.5" y="-104.4" font-family="Lato" font-size="12.00" fill="#000000">1</text>
</g>
<!-- 1&#45;&gt;0 -->
<g id="edge3" class="edge">
<title>1&#45;&gt;0</title>
<path fill="none" stroke="#000000" d="M198.0032,-26.2908C209.5813,-32.2891 225.4822,-40.5269 238.8876,-47.4719"/>
<polygon fill="#000000" stroke="#000000" points="245.2381,-50.7619 237.5736,-50.3387 242.1303,-49.1518 239.0226,-47.5418 239.0226,-47.5418 239.0226,-47.5418 242.1303,-49.1518 240.4717,-44.7449 245.2381,-50.7619 245.2381,-50.7619"/>
<text text-anchor="start" x="218" y="-42.4" font-family="Lato" font-size="12.00" fill="#000000">c</text>
</g>
<!-- 1&#45;&gt;1 -->
<g id="edge4" class="edge">
<title>1&#45;&gt;1</title>
<path fill="none" stroke="#000000" d="M175.2664,-35.0373C173.8922,-44.8579 176.1367,-54 182,-54 186.3975,-54 188.7594,-48.8576 189.0858,-42.1433"/>
<polygon fill="#000000" stroke="#000000" points="188.7336,-35.0373 192.2263,-41.8728 188.9069,-38.533 189.0802,-42.0287 189.0802,-42.0287 189.0802,-42.0287 188.9069,-38.533 185.934,-42.1847 188.7336,-35.0373 188.7336,-35.0373"/>
<text text-anchor="start" x="166.5" y="-57.4" font-family="Lato" font-size="12.00" fill="#000000">b &amp; !c</text>
</g>
</g>
</svg>
