<?xml version="1.0" encoding="UTF-8" standalone="no"?>
<?xml-stylesheet href="spot.css" type="text/css"?>
<!DOCTYPE svg PUBLIC "-//W3C//DTD SVG 1.1//EN"
 "http://www.w3.org/Graphics/SVG/1.1/DTD/svg11.dtd">
<!-- Generated by graphviz version 2.40.1 (20161225.0304)
 -->
<!-- Title: G(Fa &amp; Fb) Pages: 1 -->
<svg width="447pt" height="254pt"
 viewBox="0.00 0.00 447.39 254.18" xmlns="http://www.w3.org/2000/svg" xmlns:xlink="http://www.w3.org/1999/xlink">
<g id="graph0" class="graph" transform="scale(1 1) rotate(0) translate(4 250.1822)">
<title>G(Fa &amp; Fb)</title>
<polygon fill="#ffffff" stroke="transparent" points="-4,4 -4,-250.1822 443.3919,-250.1822 443.3919,4 -4,4"/>
<text text-anchor="start" x="180.196" y="-233.5822" font-family="Lato" font-size="12.00" fill="#000000">Inf(</text>
<text text-anchor="start" x="198.196" y="-233.5822" font-family="Lato" font-size="12.00" fill="#1f78b4">⓿</text>
<text text-anchor="start" x="212.196" y="-233.5822" font-family="Lato" font-size="12.00" fill="#000000">)&amp;Inf(</text>
<text text-anchor="start" x="241.196" y="-233.5822" font-family="Lato" font-size="12.00" fill="#ff4da0">❶</text>
<text text-anchor="start" x="255.196" y="-233.5822" font-family="Lato" font-size="12.00" fill="#000000">)</text>
<text text-anchor="start" x="183.196" y="-221.5822" font-family="Lato" font-size="12.00" fill="#000000">[gen. Büchi 2]</text>
<!-- I -->
<!-- 0 -->
<g id="node2" class="node">
<title>0</title>
<ellipse fill="#ffffa0" stroke="#000000" cx="69.1127" cy="-42.1822" rx="31.2258" ry="31.2258"/>
<text text-anchor="start" x="65.6127" y="-45.5822" font-family="Lato" font-size="12.00" fill="#000000">0</text>
<text text-anchor="start" x="55.1127" y="-33.5822" font-family="Lato" font-size="12.00" fill="#1f78b4">⓿</text>
<text text-anchor="start" x="69.1127" y="-33.5822" font-family="Lato" font-size="12.00" fill="#ff4da0">❶</text>
</g>
<!-- I&#45;&gt;0 -->
<g id="edge1" class="edge">
<title>I&#45;&gt;0</title>
<path fill="none" stroke="#000000" d="M1.2706,-42.1822C4.455,-42.1822 17.0566,-42.1822 30.5503,-42.1822"/>
<polygon fill="#000000" stroke="#000000" points="37.6428,-42.1822 30.6428,-45.3323 34.1428,-42.1822 30.6428,-42.1823 30.6428,-42.1823 30.6428,-42.1823 34.1428,-42.1822 30.6427,-39.0323 37.6428,-42.1822 37.6428,-42.1822"/>
</g>
<!-- 0&#45;&gt;0 -->
<g id="edge2" class="edge">
<title>0&#45;&gt;0</title>
<path fill="none" stroke="#000000" d="M60.1149,-72.3965C60.0197,-82.8516 63.0189,-91.2949 69.1127,-91.2949 73.683,-91.2949 76.5127,-86.5456 77.6017,-79.7601"/>
<polygon fill="#000000" stroke="#000000" points="78.1105,-72.3965 80.7704,-79.5971 77.8692,-75.8882 77.6279,-79.3799 77.6279,-79.3799 77.6279,-79.3799 77.8692,-75.8882 74.4854,-79.1627 78.1105,-72.3965 78.1105,-72.3965"/>
<text text-anchor="start" x="55.1127" y="-94.6949" font-family="Lato" font-size="12.00" fill="#000000">a &amp; b</text>
</g>
<!-- 1 -->
<g id="node3" class="node">
<title>1</title>
<ellipse fill="#ffffa0" stroke="#000000" cx="191.267" cy="-136.1822" rx="24.0833" ry="24.0833"/>
<text text-anchor="start" x="187.767" y="-139.5822" font-family="Lato" font-size="12.00" fill="#000000">1</text>
<text text-anchor="start" x="184.267" y="-126.5822" font-family="Lato" font-size="12.00" fill="#1f78b4">⓿</text>
</g>
<!-- 0&#45;&gt;1 -->
<g id="edge3" class="edge">
<title>0&#45;&gt;1</title>
<path fill="none" stroke="#000000" d="M82.5471,-70.6656C90.9018,-85.5749 102.9688,-103.0031 118.2254,-114.1822 130.5063,-123.1809 146.487,-128.5341 160.3679,-131.7013"/>
<polygon fill="#000000" stroke="#000000" points="167.4046,-133.166 159.9096,-134.8233 163.9781,-132.4527 160.5515,-131.7394 160.5515,-131.7394 160.5515,-131.7394 163.9781,-132.4527 161.1934,-128.6555 167.4046,-133.166 167.4046,-133.166"/>
<text text-anchor="start" x="118.2254" y="-131.5822" font-family="Lato" font-size="12.00" fill="#000000">a &amp; !b</text>
</g>
<!-- 2 -->
<g id="node4" class="node">
<title>2</title>
<ellipse fill="#ffffa0" stroke="#000000" cx="415.3503" cy="-73.1822" rx="24.0833" ry="24.0833"/>
<text text-anchor="start" x="411.8503" y="-76.5822" font-family="Lato" font-size="12.00" fill="#000000">2</text>
<text text-anchor="start" x="408.3503" y="-63.5822" font-family="Lato" font-size="12.00" fill="#ff4da0">❶</text>
</g>
<!-- 0&#45;&gt;2 -->
<g id="edge4" class="edge">
<title>0&#45;&gt;2</title>
<path fill="none" stroke="#000000" d="M99.0197,-33.1279C105.3098,-31.5454 111.9431,-30.1108 118.2254,-29.1822 183.796,-19.4898 201.4359,-17.8181 267.3087,-25.1822 315.3132,-30.5487 328.286,-31.6838 373.3087,-49.1822 378.4862,-51.1945 383.7926,-53.7674 388.8162,-56.4775"/>
<polygon fill="#000000" stroke="#000000" points="394.9973,-59.9516 387.3516,-59.2677 391.9462,-58.2366 388.8951,-56.5217 388.8951,-56.5217 388.8951,-56.5217 391.9462,-58.2366 390.4385,-53.7757 394.9973,-59.9516 394.9973,-59.9516"/>
<text text-anchor="start" x="234.8087" y="-28.5822" font-family="Lato" font-size="12.00" fill="#000000">!a &amp; b</text>
</g>
<!-- 3 -->
<g id="node5" class="node">
<title>3</title>
<ellipse fill="#ffffa0" stroke="#000000" cx="303.3087" cy="-73.1822" rx="18" ry="18"/>
<text text-anchor="middle" x="303.3087" y="-70.0822" font-family="Lato" font-size="12.00" fill="#000000">3</text>
</g>
<!-- 0&#45;&gt;3 -->
<g id="edge5" class="edge">
<title>0&#45;&gt;3</title>
<path fill="none" stroke="#000000" d="M100.2121,-46.2987C147.1429,-52.5109 235.1475,-64.1598 278.2404,-69.8639"/>
<polygon fill="#000000" stroke="#000000" points="285.2517,-70.792 277.8988,-72.9961 281.782,-70.3327 278.3122,-69.8734 278.3122,-69.8734 278.3122,-69.8734 281.782,-70.3327 278.7256,-66.7506 285.2517,-70.792 285.2517,-70.792"/>
<text text-anchor="start" x="174.267" y="-64.5822" font-family="Lato" font-size="12.00" fill="#000000">!a &amp; !b</text>
</g>
<!-- 1&#45;&gt;0 -->
<g id="edge6" class="edge">
<title>1&#45;&gt;0</title>
<path fill="none" stroke="#000000" d="M174.3556,-119.0534C166.9404,-111.9312 157.9511,-103.7999 149.2254,-97.1822 136.3499,-87.4171 131.6424,-87.1889 118.2254,-78.1822 112.2347,-74.1607 105.9475,-69.7248 99.9478,-65.3812"/>
<polygon fill="#000000" stroke="#000000" points="94.0654,-61.0871 101.5765,-62.6701 96.8923,-63.1507 99.7192,-65.2144 99.7192,-65.2144 99.7192,-65.2144 96.8923,-63.1507 97.862,-67.7586 94.0654,-61.0871 94.0654,-61.0871"/>
<text text-anchor="start" x="119.7254" y="-100.5822" font-family="Lato" font-size="12.00" fill="#000000">a &amp; b</text>
</g>
<!-- 1&#45;&gt;1 -->
<g id="edge7" class="edge">
<title>1&#45;&gt;1</title>
<path fill="none" stroke="#000000" d="M181.0234,-158.2443C179.7587,-168.8561 183.1733,-178.2238 191.267,-178.2238 197.4638,-178.2238 200.9177,-172.7327 201.6288,-165.3961"/>
<polygon fill="#000000" stroke="#000000" points="201.5107,-158.2443 204.7759,-165.1913 201.5685,-161.7438 201.6264,-165.2434 201.6264,-165.2434 201.6264,-165.2434 201.5685,-161.7438 198.4768,-165.2954 201.5107,-158.2443 201.5107,-158.2443"/>
<text text-anchor="start" x="175.767" y="-181.6238" font-family="Lato" font-size="12.00" fill="#000000">a &amp; !b</text>
</g>
<!-- 1&#45;&gt;2 -->
<g id="edge8" class="edge">
<title>1&#45;&gt;2</title>
<path fill="none" stroke="#000000" d="M205.4363,-155.7358C212.7312,-164.206 222.3872,-173.2884 233.3087,-178.1822 290.0909,-203.6258 322.8047,-214.5271 373.3087,-178.1822 396.9536,-161.1662 407.3125,-128.6094 411.8435,-104.2387"/>
<polygon fill="#000000" stroke="#000000" points="413.022,-97.2837 414.9581,-104.7116 412.4372,-100.7345 411.8524,-104.1853 411.8524,-104.1853 411.8524,-104.1853 412.4372,-100.7345 408.7467,-103.6589 413.022,-97.2837 413.022,-97.2837"/>
<text text-anchor="start" x="287.8087" y="-204.5822" font-family="Lato" font-size="12.00" fill="#000000">!a &amp; b</text>
</g>
<!-- 1&#45;&gt;3 -->
<g id="edge9" class="edge">
<title>1&#45;&gt;3</title>
<path fill="none" stroke="#000000" d="M215.3285,-132.8184C231.0572,-129.7868 251.5322,-124.2042 267.3087,-114.1822 275.4293,-109.0236 282.7727,-101.505 288.6774,-94.3109"/>
<polygon fill="#000000" stroke="#000000" points="293.2846,-88.4031 291.4639,-95.8602 291.1322,-91.1631 288.9799,-93.923 288.9799,-93.923 288.9799,-93.923 291.1322,-91.1631 286.4959,-91.9859 293.2846,-88.4031 293.2846,-88.4031"/>
<text text-anchor="start" x="233.3087" y="-131.5822" font-family="Lato" font-size="12.00" fill="#000000">!a &amp; !b</text>
</g>
<!-- 2&#45;&gt;0 -->
<g id="edge10" class="edge">
<title>2&#45;&gt;0</title>
<path fill="none" stroke="#000000" d="M399.7364,-54.7157C392.4109,-47.0773 383.1355,-38.7278 373.3087,-33.1822 330.7723,-9.1773 315.7163,-10.6845 267.3087,-4.1822 201.2621,4.6895 182.2764,-1.7886 118.2254,-20.1822 113.3482,-21.5828 108.3298,-23.3793 103.4497,-25.3408"/>
<polygon fill="#000000" stroke="#000000" points="96.907,-28.096 102.1358,-22.4761 100.1327,-26.7376 103.3584,-25.3792 103.3584,-25.3792 103.3584,-25.3792 100.1327,-26.7376 104.5809,-28.2823 96.907,-28.096 96.907,-28.096"/>
<text text-anchor="start" x="236.3087" y="-7.5822" font-family="Lato" font-size="12.00" fill="#000000">a &amp; b</text>
</g>
<!-- 2&#45;&gt;1 -->
<g id="edge11" class="edge">
<title>2&#45;&gt;1</title>
<path fill="none" stroke="#000000" d="M395.7573,-87.6955C377.3633,-100.7156 348.6572,-119.5174 321.3087,-131.1822 298.503,-140.9093 291.903,-142.0459 267.3087,-145.1822 252.3189,-147.0937 248.3358,-146.7726 233.3087,-145.1822 229.5045,-144.7796 225.5385,-144.1774 221.628,-143.4718"/>
<polygon fill="#000000" stroke="#000000" points="214.6958,-142.1107 222.1716,-140.3685 218.1303,-142.7851 221.5647,-143.4595 221.5647,-143.4595 221.5647,-143.4595 218.1303,-142.7851 220.9577,-146.5505 214.6958,-142.1107 214.6958,-142.1107"/>
<text text-anchor="start" x="287.8087" y="-145.5822" font-family="Lato" font-size="12.00" fill="#000000">a &amp; !b</text>
</g>
<!-- 2&#45;&gt;2 -->
<g id="edge12" class="edge">
<title>2&#45;&gt;2</title>
<path fill="none" stroke="#000000" d="M404.7965,-94.8135C403.3363,-105.6012 406.8542,-115.2238 415.3503,-115.2238 421.8551,-115.2238 425.4418,-109.5832 426.1104,-102.0977"/>
<polygon fill="#000000" stroke="#000000" points="425.904,-94.8135 429.2511,-101.7214 426.0032,-98.312 426.1024,-101.8106 426.1024,-101.8106 426.1024,-101.8106 426.0032,-98.312 422.9536,-101.8999 425.904,-94.8135 425.904,-94.8135"/>
<text text-anchor="start" x="399.8503" y="-118.6238" font-family="Lato" font-size="12.00" fill="#000000">!a &amp; b</text>
</g>
<!-- 2&#45;&gt;3 -->
<g id="edge13" class="edge">
<title>2&#45;&gt;3</title>
<path fill="none" stroke="#000000" d="M391.123,-73.1822C372.5921,-73.1822 347.1228,-73.1822 328.3845,-73.1822"/>
<polygon fill="#000000" stroke="#000000" points="321.3101,-73.1822 328.3101,-70.0323 324.8101,-73.1822 328.3101,-73.1823 328.3101,-73.1823 328.3101,-73.1823 324.8101,-73.1822 328.31,-76.3323 321.3101,-73.1822 321.3101,-73.1822"/>
<text text-anchor="start" x="339.3087" y="-76.5822" font-family="Lato" font-size="12.00" fill="#000000">!a &amp; !b</text>
</g>
<!-- 3&#45;&gt;0 -->
<g id="edge14" class="edge">
<title>3&#45;&gt;0</title>
<path fill="none" stroke="#000000" d="M287.327,-64.6774C270.109,-56.0351 241.6302,-43.2245 215.3087,-38.1822 179.1009,-31.246 136.9365,-33.4645 107.2197,-36.6845"/>
<polygon fill="#000000" stroke="#000000" points="99.944,-37.5197 106.539,-33.5918 103.4212,-37.1205 106.8983,-36.7213 106.8983,-36.7213 106.8983,-36.7213 103.4212,-37.1205 107.2576,-39.8507 99.944,-37.5197 99.944,-37.5197"/>
<text text-anchor="start" x="177.267" y="-41.5822" font-family="Lato" font-size="12.00" fill="#000000">a &amp; b</text>
</g>
<!-- 3&#45;&gt;1 -->
<g id="edge15" class="edge">
<title>3&#45;&gt;1</title>
<path fill="none" stroke="#000000" d="M285.4542,-77.1054C270.7543,-80.8373 249.7362,-87.3553 233.3087,-97.1822 226.1132,-101.4865 219.1019,-107.1796 212.9325,-112.8819"/>
<polygon fill="#000000" stroke="#000000" points="207.5222,-118.0817 210.3864,-110.96 210.0457,-115.6564 212.5692,-113.2311 212.5692,-113.2311 212.5692,-113.2311 210.0457,-115.6564 214.752,-115.5022 207.5222,-118.0817 207.5222,-118.0817"/>
<text text-anchor="start" x="234.8087" y="-100.5822" font-family="Lato" font-size="12.00" fill="#000000">a &amp; !b</text>
</g>
<!-- 3&#45;&gt;2 -->
<g id="edge16" class="edge">
<title>3&#45;&gt;2</title>
<path fill="none" stroke="#000000" d="M318.8936,-63.983C325.038,-60.8556 332.2946,-57.755 339.3087,-56.1822 354.0536,-52.8758 358.4756,-53.2967 373.3087,-56.1822 377.7717,-57.0504 382.3606,-58.392 386.7914,-59.9492"/>
<polygon fill="#000000" stroke="#000000" points="393.5833,-62.5368 385.9204,-62.9882 390.3126,-61.2907 387.0419,-60.0446 387.0419,-60.0446 387.0419,-60.0446 390.3126,-61.2907 388.1634,-57.101 393.5833,-62.5368 393.5833,-62.5368"/>
<text text-anchor="start" x="340.8087" y="-59.5822" font-family="Lato" font-size="12.00" fill="#000000">!a &amp; b</text>
</g>
<!-- 3&#45;&gt;3 -->
<g id="edge17" class="edge">
<title>3&#45;&gt;3</title>
<path fill="none" stroke="#000000" d="M294.3299,-89.0982C291.9876,-99.3326 294.9805,-109.1822 303.3087,-109.1822 309.6849,-109.1822 312.9337,-103.4085 313.0551,-96.109"/>
<polygon fill="#000000" stroke="#000000" points="312.2874,-89.0982 316.1808,-95.7137 312.6684,-92.5774 313.0495,-96.0566 313.0495,-96.0566 313.0495,-96.0566 312.6684,-92.5774 309.9182,-96.3995 312.2874,-89.0982 312.2874,-89.0982"/>
<text text-anchor="start" x="286.3087" y="-112.5822" font-family="Lato" font-size="12.00" fill="#000000">!a &amp; !b</text>
</g>
</g>
</svg>
