<?xml version="1.0" encoding="UTF-8" standalone="no"?>
<?xml-stylesheet href="spot.css" type="text/css"?>
<!DOCTYPE svg PUBLIC "-//W3C//DTD SVG 1.1//EN"
 "http://www.w3.org/Graphics/SVG/1.1/DTD/svg11.dtd">
<!-- Generated by graphviz version 2.40.1 (20161225.0304)
 -->
<!-- Pages: 1 -->
<svg width="176pt" height="76pt"
 viewBox="0.00 0.00 176.00 75.60" xmlns="http://www.w3.org/2000/svg" xmlns:xlink="http://www.w3.org/1999/xlink">
<g id="graph0" class="graph" transform="scale(1 1) rotate(0) translate(4 71.6046)">
<polygon fill="#ffffff" stroke="transparent" points="-4,4 -4,-71.6046 172,-71.6046 172,4 -4,4"/>
<!-- I -->
<!-- 0 -->
<g id="node2" class="node">
<title>0</title>
<ellipse fill="#ffffa0" stroke="#000000" cx="56" cy="-18.6046" rx="18" ry="18"/>
<text text-anchor="middle" x="56" y="-15.5046" font-family="Lato" font-size="12.00" fill="#000000">0</text>
</g>
<!-- I&#45;&gt;0 -->
<g id="edge1" class="edge">
<title>I&#45;&gt;0</title>
<path fill="none" stroke="#000000" d="M1.1233,-18.6046C4.178,-18.6046 17.9448,-18.6046 30.9241,-18.6046"/>
<polygon fill="#000000" stroke="#000000" points="37.9807,-18.6046 30.9808,-21.7547 34.4807,-18.6046 30.9807,-18.6047 30.9807,-18.6047 30.9807,-18.6047 34.4807,-18.6046 30.9807,-15.4547 37.9807,-18.6046 37.9807,-18.6046"/>
</g>
<!-- 0&#45;&gt;0 -->
<g id="edge2" class="edge">
<title>0&#45;&gt;0</title>
<path fill="none" stroke="#000000" d="M49.6208,-35.6419C48.3189,-45.4625 50.4453,-54.6046 56,-54.6046 60.166,-54.6046 62.4036,-49.4621 62.7128,-42.7479"/>
<polygon fill="#000000" stroke="#000000" points="62.3792,-35.6419 65.8541,-42.4864 62.5434,-39.138 62.7076,-42.6342 62.7076,-42.6342 62.7076,-42.6342 62.5434,-39.138 59.561,-42.7819 62.3792,-35.6419 62.3792,-35.6419"/>
<text text-anchor="start" x="51" y="-58.0046" font-family="Lato" font-size="12.00" fill="#000000">!b</text>
</g>
<!-- 1 -->
<g id="node3" class="node">
<title>1</title>
<ellipse fill="#ffffa0" stroke="#000000" cx="150" cy="-18.6046" rx="18" ry="18"/>
<text text-anchor="middle" x="150" y="-15.5046" font-family="Lato" font-size="12.00" fill="#000000">1</text>
</g>
<!-- 0&#45;&gt;1 -->
<g id="edge3" class="edge">
<title>0&#45;&gt;1</title>
<path fill="none" stroke="#000000" d="M74.1241,-18.6046C88.5587,-18.6046 108.926,-18.6046 124.925,-18.6046"/>
<polygon fill="#000000" stroke="#000000" points="131.9315,-18.6046 124.9315,-21.7547 128.4315,-18.6046 124.9315,-18.6047 124.9315,-18.6047 124.9315,-18.6047 128.4315,-18.6046 124.9314,-15.4547 131.9315,-18.6046 131.9315,-18.6046"/>
<text text-anchor="start" x="99.5" y="-22.0046" font-family="Lato" font-size="12.00" fill="#000000">b</text>
</g>
<!-- 1&#45;&gt;0 -->
<g id="edge4" class="edge">
<title>1&#45;&gt;0</title>
<path fill="none" stroke="#000000" d="M134.4151,-9.4054C128.2707,-6.278 121.0141,-3.1774 114,-1.6046 104.4592,.5349 101.5408,.5349 92,-1.6046 87.2874,-2.6613 82.4654,-4.4077 77.9447,-6.3885"/>
<polygon fill="#000000" stroke="#000000" points="71.5849,-9.4054 76.5593,-3.5592 74.7472,-7.9053 77.9094,-6.4052 77.9094,-6.4052 77.9094,-6.4052 74.7472,-7.9053 79.2595,-9.2512 71.5849,-9.4054 71.5849,-9.4054"/>
<text text-anchor="start" x="92" y="-5.0046" font-family="Lato" font-size="12.00" fill="#000000">a | b</text>
</g>
<!-- 1&#45;&gt;1 -->
<g id="edge5" class="edge">
<title>1&#45;&gt;1</title>
<path fill="none" stroke="#000000" d="M141.9836,-34.8948C140.0505,-44.9937 142.7227,-54.6046 150,-54.6046 155.458,-54.6046 158.3256,-49.1985 158.6028,-42.235"/>
<polygon fill="#000000" stroke="#000000" points="158.0164,-34.8948 161.7139,-41.6218 158.2952,-38.3837 158.5739,-41.8726 158.5739,-41.8726 158.5739,-41.8726 158.2952,-38.3837 155.4339,-42.1235 158.0164,-34.8948 158.0164,-34.8948"/>
<text text-anchor="start" x="133" y="-58.0046" font-family="Lato" font-size="12.00" fill="#000000">!a &amp; !b</text>
</g>
</g>
</svg>
