<?xml version="1.0" encoding="UTF-8" standalone="no"?>
<?xml-stylesheet href="spot.css" type="text/css"?>
<!DOCTYPE svg PUBLIC "-//W3C//DTD SVG 1.1//EN"
 "http://www.w3.org/Graphics/SVG/1.1/DTD/svg11.dtd">
<!-- Generated by graphviz version 2.40.1 (20161225.0304)
 -->
<!-- Title: GF(a &amp; X(a U b)) Pages: 1 -->
<svg width="188pt" height="172pt"
 viewBox="0.00 0.00 188.00 172.26" xmlns="http://www.w3.org/2000/svg" xmlns:xlink="http://www.w3.org/1999/xlink">
<g id="graph0" class="graph" transform="scale(1 1) rotate(0) translate(4 168.2632)">
<title>GF(a &amp; X(a U b))</title>
<polygon fill="#ffffff" stroke="transparent" points="-4,4 -4,-168.2632 184,-168.2632 184,4 -4,4"/>
<text text-anchor="start" x="72" y="-151.6632" font-family="Lato" font-size="12.00" fill="#000000">Inf(</text>
<text text-anchor="start" x="90" y="-151.6632" font-family="Lato" font-size="12.00" fill="#1f78b4">⓿</text>
<text text-anchor="start" x="104" y="-151.6632" font-family="Lato" font-size="12.00" fill="#000000">)</text>
<text text-anchor="start" x="71" y="-139.6632" font-family="Lato" font-size="12.00" fill="#000000">[Büchi]</text>
<!-- I -->
<!-- 1 -->
<g id="node2" class="node">
<title>1</title>
<ellipse fill="#ffffa0" stroke="#000000" cx="56" cy="-39.2632" rx="18" ry="18"/>
<text text-anchor="middle" x="56" y="-36.1632" font-family="Lato" font-size="12.00" fill="#000000">1</text>
</g>
<!-- I&#45;&gt;1 -->
<g id="edge1" class="edge">
<title>I&#45;&gt;1</title>
<path fill="none" stroke="#000000" d="M1.1233,-39.2632C4.178,-39.2632 17.9448,-39.2632 30.9241,-39.2632"/>
<polygon fill="#000000" stroke="#000000" points="37.9807,-39.2632 30.9808,-42.4133 34.4807,-39.2633 30.9807,-39.2633 30.9807,-39.2633 30.9807,-39.2633 34.4807,-39.2633 30.9807,-36.1133 37.9807,-39.2632 37.9807,-39.2632"/>
</g>
<!-- 1&#45;&gt;1 -->
<g id="edge6" class="edge">
<title>1&#45;&gt;1</title>
<path fill="none" stroke="#000000" d="M52.7643,-57.045C52.2144,-66.5782 53.293,-75.2632 56,-75.2632 57.988,-75.2632 59.0977,-70.5793 59.3292,-64.3153"/>
<polygon fill="#000000" stroke="#000000" points="59.2357,-57.045 62.4756,-64.0039 59.2808,-60.5447 59.3258,-64.0444 59.3258,-64.0444 59.3258,-64.0444 59.2808,-60.5447 56.1761,-64.0849 59.2357,-57.045 59.2357,-57.045"/>
<text text-anchor="start" x="40.5" y="-78.6632" font-family="Lato" font-size="12.00" fill="#000000">a &amp; !b</text>
</g>
<!-- 1&#45;&gt;1 -->
<g id="edge7" class="edge">
<title>1&#45;&gt;1</title>
<path fill="none" stroke="#000000" d="M50.6841,-56.6835C47.6538,-74.0542 49.4258,-93.2632 56,-93.2632 61.7011,-93.2632 63.7908,-78.8178 62.2691,-63.6526"/>
<polygon fill="#000000" stroke="#000000" points="61.3159,-56.6835 65.3856,-63.192 61.7902,-60.1512 62.2646,-63.6189 62.2646,-63.6189 62.2646,-63.6189 61.7902,-60.1512 59.1437,-64.0459 61.3159,-56.6835 61.3159,-56.6835"/>
<text text-anchor="start" x="42" y="-109.6632" font-family="Lato" font-size="12.00" fill="#000000">a &amp; b</text>
<text text-anchor="start" x="49" y="-96.6632" font-family="Lato" font-size="12.00" fill="#1f78b4">⓿</text>
</g>
<!-- 0 -->
<g id="node3" class="node">
<title>0</title>
<ellipse fill="#ffffa0" stroke="#000000" cx="162" cy="-39.2632" rx="18" ry="18"/>
<text text-anchor="middle" x="162" y="-36.1632" font-family="Lato" font-size="12.00" fill="#000000">0</text>
</g>
<!-- 1&#45;&gt;0 -->
<g id="edge4" class="edge">
<title>1&#45;&gt;0</title>
<path fill="none" stroke="#000000" d="M68.8101,-52.0849C75.2049,-57.5851 83.4026,-63.3974 92,-66.2632 106.3357,-71.0418 111.6643,-71.0418 126,-66.2632 132.1794,-64.2034 138.1523,-60.6214 143.3977,-56.7272"/>
<polygon fill="#000000" stroke="#000000" points="149.1899,-52.0849 145.6978,-58.9207 146.4589,-54.2738 143.7278,-56.4627 143.7278,-56.4627 143.7278,-56.4627 146.4589,-54.2738 141.7578,-54.0047 149.1899,-52.0849 149.1899,-52.0849"/>
<text text-anchor="start" x="92" y="-72.6632" font-family="Lato" font-size="12.00" fill="#000000">!a &amp; !b</text>
</g>
<!-- 1&#45;&gt;0 -->
<g id="edge5" class="edge">
<title>1&#45;&gt;0</title>
<path fill="none" stroke="#000000" d="M73.9269,-37.474C79.6914,-36.9778 86.1097,-36.5082 92,-36.2632 107.0981,-35.6352 110.9019,-35.6352 126,-36.2632 129.5894,-36.4125 133.3749,-36.6452 137.089,-36.9165"/>
<polygon fill="#000000" stroke="#000000" points="144.0731,-37.474 136.8446,-40.0569 140.5842,-37.1954 137.0953,-36.9169 137.0953,-36.9169 137.0953,-36.9169 140.5842,-37.1954 137.346,-33.7769 144.0731,-37.474 144.0731,-37.474"/>
<text text-anchor="start" x="93.5" y="-52.6632" font-family="Lato" font-size="12.00" fill="#000000">!a &amp; b</text>
<text text-anchor="start" x="102" y="-39.6632" font-family="Lato" font-size="12.00" fill="#1f78b4">⓿</text>
</g>
<!-- 0&#45;&gt;1 -->
<g id="edge3" class="edge">
<title>0&#45;&gt;1</title>
<path fill="none" stroke="#000000" d="M151.451,-24.5494C145.0566,-16.9381 136.1766,-8.3948 126,-4.2632 111.9988,1.4211 106.0012,1.4211 92,-4.2632 84.2085,-7.4265 77.1771,-13.1758 71.4394,-19.1129"/>
<polygon fill="#000000" stroke="#000000" points="66.549,-24.5494 68.8886,-17.2385 68.8897,-21.9473 71.2305,-19.3451 71.2305,-19.3451 71.2305,-19.3451 68.8897,-21.9473 73.5724,-21.4518 66.549,-24.5494 66.549,-24.5494"/>
<text text-anchor="start" x="105.5" y="-7.6632" font-family="Lato" font-size="12.00" fill="#000000">a</text>
</g>
<!-- 0&#45;&gt;0 -->
<g id="edge2" class="edge">
<title>0&#45;&gt;0</title>
<path fill="none" stroke="#000000" d="M153.0212,-55.1793C150.679,-65.4136 153.6719,-75.2632 162,-75.2632 168.3762,-75.2632 171.625,-69.4896 171.7465,-62.19"/>
<polygon fill="#000000" stroke="#000000" points="170.9788,-55.1793 174.8721,-61.7948 171.3598,-58.6585 171.7408,-62.1377 171.7408,-62.1377 171.7408,-62.1377 171.3598,-58.6585 168.6095,-62.4806 170.9788,-55.1793 170.9788,-55.1793"/>
<text text-anchor="start" x="157" y="-78.6632" font-family="Lato" font-size="12.00" fill="#000000">!a</text>
</g>
</g>
</svg>
