<?xml version="1.0" encoding="UTF-8" standalone="no"?>
<?xml-stylesheet href="spot.css" type="text/css"?>
<!DOCTYPE svg PUBLIC "-//W3C//DTD SVG 1.1//EN"
 "http://www.w3.org/Graphics/SVG/1.1/DTD/svg11.dtd">
<!-- Generated by graphviz version 2.40.1 (20161225.0304)
 -->
<!-- Title: {[*2][+]}[]&#45;&gt; a Pages: 1 -->
<svg width="177pt" height="87pt"
 viewBox="0.00 0.00 177.00 87.40" xmlns="http://www.w3.org/2000/svg" xmlns:xlink="http://www.w3.org/1999/xlink">
<g id="graph0" class="graph" transform="scale(1 1) rotate(0) translate(4 83.4)">
<title>{[*2][+]}[]&#45;&gt; a</title>
<polygon fill="#ffffff" stroke="transparent" points="-4,4 -4,-83.4 173,-83.4 173,4 -4,4"/>
<text text-anchor="start" x="65.5" y="-52.8" font-family="Lato" font-size="12.00" fill="#000000">[Büchi]</text>
<!-- I -->
<!-- 0 -->
<g id="node2" class="node">
<title>0</title>
<ellipse fill="#ffffa0" stroke="#000000" cx="60" cy="-22" rx="18" ry="18"/>
<ellipse fill="none" stroke="#000000" cx="60" cy="-22" rx="22" ry="22"/>
<text text-anchor="middle" x="60" y="-18.9" font-family="Lato" font-size="12.00" fill="#000000">0</text>
</g>
<!-- I&#45;&gt;0 -->
<g id="edge1" class="edge">
<title>I&#45;&gt;0</title>
<path fill="none" stroke="#000000" d="M1.1682,-22C4.2491,-22 17.4946,-22 30.6388,-22"/>
<polygon fill="#000000" stroke="#000000" points="37.8655,-22 30.8656,-25.1501 34.3655,-22 30.8655,-22.0001 30.8655,-22.0001 30.8655,-22.0001 34.3655,-22 30.8655,-18.8501 37.8655,-22 37.8655,-22"/>
</g>
<!-- 1 -->
<g id="node3" class="node">
<title>1</title>
<ellipse fill="#ffffa0" stroke="#000000" cx="147" cy="-22" rx="18" ry="18"/>
<ellipse fill="none" stroke="#000000" cx="147" cy="-22" rx="22" ry="22"/>
<text text-anchor="middle" x="147" y="-18.9" font-family="Lato" font-size="12.00" fill="#000000">1</text>
</g>
<!-- 0&#45;&gt;1 -->
<g id="edge2" class="edge">
<title>0&#45;&gt;1</title>
<path fill="none" stroke="#000000" d="M82.4047,-22C93.1427,-22 106.1435,-22 117.6586,-22"/>
<polygon fill="#000000" stroke="#000000" points="124.9724,-22 117.9725,-25.1501 121.4724,-22 117.9724,-22.0001 117.9724,-22.0001 117.9724,-22.0001 121.4724,-22 117.9724,-18.8501 124.9724,-22 124.9724,-22"/>
<text text-anchor="middle" x="103.5" y="-25.4" font-family="Lato" font-size="12.00" fill="#000000">1</text>
</g>
<!-- 1&#45;&gt;0 -->
<g id="edge3" class="edge">
<title>1&#45;&gt;0</title>
<path fill="none" stroke="#000000" d="M128.1559,-10.0734C119.7092,-6.0718 109.5228,-3.0604 100,-5 95.536,-5.9092 90.9528,-7.3352 86.5548,-8.9835"/>
<polygon fill="#000000" stroke="#000000" points="79.8401,-11.7145 85.1375,-6.1593 83.0822,-10.3958 86.3243,-9.0772 86.3243,-9.0772 86.3243,-9.0772 83.0822,-10.3958 87.5111,-11.9951 79.8401,-11.7145 79.8401,-11.7145"/>
<text text-anchor="start" x="100" y="-8.4" font-family="Lato" font-size="12.00" fill="#000000">a</text>
</g>
</g>
</svg>
