<?xml version="1.0" encoding="UTF-8" standalone="no"?>
<?xml-stylesheet href="spot.css" type="text/css"?>
<!DOCTYPE svg PUBLIC "-//W3C//DTD SVG 1.1//EN"
 "http://www.w3.org/Graphics/SVG/1.1/DTD/svg11.dtd">
<!-- Generated by graphviz version 2.40.1 (20161225.0304)
 -->
<!-- Pages: 1 -->
<svg width="516pt" height="273pt"
 viewBox="0.00 0.00 515.62 273.37" xmlns="http://www.w3.org/2000/svg" xmlns:xlink="http://www.w3.org/1999/xlink">
<g id="graph0" class="graph" transform="scale(1 1) rotate(0) translate(4 269.3677)">
<polygon fill="#ffffff" stroke="transparent" points="-4,4 -4,-269.3677 511.6173,-269.3677 511.6173,4 -4,4"/>
<text text-anchor="start" x="156.8087" y="-252.7677" font-family="Lato" font-size="12.00" fill="#000000">(Fin(</text>
<text text-anchor="start" x="179.8087" y="-252.7677" font-family="Lato" font-size="12.00" fill="#1f78b4">⓿</text>
<text text-anchor="start" x="193.8087" y="-252.7677" font-family="Lato" font-size="12.00" fill="#000000">) &amp; Inf(</text>
<text text-anchor="start" x="228.8087" y="-252.7677" font-family="Lato" font-size="12.00" fill="#ff4da0">❶</text>
<text text-anchor="start" x="242.8087" y="-252.7677" font-family="Lato" font-size="12.00" fill="#000000">)) | (Fin(</text>
<text text-anchor="start" x="280.8087" y="-252.7677" font-family="Lato" font-size="12.00" fill="#ff7f00">❷</text>
<text text-anchor="start" x="294.8087" y="-252.7677" font-family="Lato" font-size="12.00" fill="#000000">) &amp; Inf(</text>
<text text-anchor="start" x="329.8087" y="-252.7677" font-family="Lato" font-size="12.00" fill="#6a3d9a">❸</text>
<text text-anchor="start" x="343.8087" y="-252.7677" font-family="Lato" font-size="12.00" fill="#000000">))</text>
<text text-anchor="start" x="229.8087" y="-240.7677" font-family="Lato" font-size="12.00" fill="#000000">[Rabin 2]</text>
<!-- I -->
<!-- 0 -->
<g id="node2" class="node">
<title>0</title>
<ellipse fill="#ffffa0" stroke="#000000" cx="62.0416" cy="-53.3677" rx="24.0833" ry="24.0833"/>
<text text-anchor="start" x="58.5416" y="-56.7677" font-family="Lato" font-size="12.00" fill="#000000">0</text>
<text text-anchor="start" x="55.0416" y="-43.7677" font-family="Lato" font-size="12.00" fill="#1f78b4">⓿</text>
</g>
<!-- I&#45;&gt;0 -->
<g id="edge1" class="edge">
<title>I&#45;&gt;0</title>
<path fill="none" stroke="#000000" d="M1.1911,-53.3677C4.2886,-53.3677 17.3195,-53.3677 30.5321,-53.3677"/>
<polygon fill="#000000" stroke="#000000" points="37.8292,-53.3677 30.8292,-56.5178 34.3292,-53.3678 30.8292,-53.3678 30.8292,-53.3678 30.8292,-53.3678 34.3292,-53.3678 30.8291,-50.2178 37.8292,-53.3677 37.8292,-53.3677"/>
</g>
<!-- 0&#45;&gt;0 -->
<g id="edge2" class="edge">
<title>0&#45;&gt;0</title>
<path fill="none" stroke="#000000" d="M54.2897,-76.2874C53.5514,-86.5412 56.1354,-95.4093 62.0416,-95.4093 66.4713,-95.4093 69.0322,-90.421 69.7244,-83.601"/>
<polygon fill="#000000" stroke="#000000" points="69.7936,-76.2874 72.8771,-83.3169 69.7604,-79.7872 69.7272,-83.2871 69.7272,-83.2871 69.7272,-83.2871 69.7604,-79.7872 66.5774,-83.2572 69.7936,-76.2874 69.7936,-76.2874"/>
<text text-anchor="start" x="38.0416" y="-98.8093" font-family="Lato" font-size="12.00" fill="#000000">!p0 &amp; !p1</text>
</g>
<!-- 1 -->
<g id="node3" class="node">
<title>1</title>
<ellipse fill="#ffffa0" stroke="#000000" cx="194.1249" cy="-147.3677" rx="24.0833" ry="24.0833"/>
<text text-anchor="start" x="190.6249" y="-150.7677" font-family="Lato" font-size="12.00" fill="#000000">1</text>
<text text-anchor="start" x="187.1249" y="-137.7677" font-family="Lato" font-size="12.00" fill="#ff4da0">❶</text>
</g>
<!-- 0&#45;&gt;1 -->
<g id="edge3" class="edge">
<title>0&#45;&gt;1</title>
<path fill="none" stroke="#000000" d="M69.8265,-76.173C76.4751,-92.2683 87.6085,-113.0768 104.0833,-125.3677 120.9355,-137.9402 144.0401,-143.4099 162.6253,-145.7521"/>
<polygon fill="#000000" stroke="#000000" points="169.7624,-146.5288 162.4626,-148.9029 166.2829,-146.1501 162.8035,-145.7714 162.8035,-145.7714 162.8035,-145.7714 166.2829,-146.1501 163.1443,-142.6399 169.7624,-146.5288 169.7624,-146.5288"/>
<text text-anchor="start" x="105.5833" y="-146.7677" font-family="Lato" font-size="12.00" fill="#000000">p0 &amp; !p1</text>
</g>
<!-- 2 -->
<g id="node4" class="node">
<title>2</title>
<ellipse fill="#ffffa0" stroke="#000000" cx="476.5046" cy="-77.3677" rx="31.2258" ry="31.2258"/>
<text text-anchor="start" x="473.0046" y="-80.7677" font-family="Lato" font-size="12.00" fill="#000000">2</text>
<text text-anchor="start" x="462.5046" y="-68.7677" font-family="Lato" font-size="12.00" fill="#1f78b4">⓿</text>
<text text-anchor="start" x="476.5046" y="-68.7677" font-family="Lato" font-size="12.00" fill="#6a3d9a">❸</text>
</g>
<!-- 0&#45;&gt;2 -->
<g id="edge4" class="edge">
<title>0&#45;&gt;2</title>
<path fill="none" stroke="#000000" d="M84.3924,-44.0417C90.6599,-41.8002 97.5486,-39.6776 104.0833,-38.3677 217.5203,-15.6292 250.2072,-18.7437 364.3919,-37.3677 392.904,-42.0181 400.2706,-43.4176 427.3919,-53.3677 432.2921,-55.1655 437.3537,-57.2985 442.2811,-59.5399"/>
<polygon fill="#000000" stroke="#000000" points="448.8895,-62.642 441.2143,-62.5188 445.7212,-61.1547 442.5529,-59.6674 442.5529,-59.6674 442.5529,-59.6674 445.7212,-61.1547 443.8915,-56.8159 448.8895,-62.642 448.8895,-62.642"/>
<text text-anchor="start" x="237.6665" y="-28.7677" font-family="Lato" font-size="12.00" fill="#000000">!p0 &amp; p1</text>
</g>
<!-- 3 -->
<g id="node5" class="node">
<title>3</title>
<ellipse fill="#ffffa0" stroke="#000000" cx="333.2792" cy="-77.3677" rx="31.2258" ry="31.2258"/>
<text text-anchor="start" x="329.7792" y="-80.7677" font-family="Lato" font-size="12.00" fill="#000000">3</text>
<text text-anchor="start" x="319.2792" y="-68.7677" font-family="Lato" font-size="12.00" fill="#ff4da0">❶</text>
<text text-anchor="start" x="333.2792" y="-68.7677" font-family="Lato" font-size="12.00" fill="#6a3d9a">❸</text>
</g>
<!-- 0&#45;&gt;3 -->
<g id="edge5" class="edge">
<title>0&#45;&gt;3</title>
<path fill="none" stroke="#000000" d="M86.1122,-55.4975C133.235,-59.6671 238.0078,-68.9378 294.836,-73.9661"/>
<polygon fill="#000000" stroke="#000000" points="301.8563,-74.5873 294.6059,-77.108 298.3699,-74.2788 294.8835,-73.9702 294.8835,-73.9702 294.8835,-73.9702 298.3699,-74.2788 295.1612,-70.8325 301.8563,-74.5873 301.8563,-74.5873"/>
<text text-anchor="start" x="173.1249" y="-69.7677" font-family="Lato" font-size="12.00" fill="#000000">p0 &amp; p1</text>
</g>
<!-- 1&#45;&gt;0 -->
<g id="edge6" class="edge">
<title>1&#45;&gt;0</title>
<path fill="none" stroke="#000000" d="M177.7394,-129.4795C170.413,-122.2289 161.3479,-114.2072 152.0833,-108.3677 132.6732,-96.1337 123.7326,-101.2136 104.0833,-89.3677 97.4046,-85.3414 90.7353,-80.2499 84.7406,-75.1732"/>
<polygon fill="#000000" stroke="#000000" points="79.4439,-70.5462 86.7881,-72.7792 82.0798,-72.8488 84.7157,-75.1515 84.7157,-75.1515 84.7157,-75.1515 82.0798,-72.8488 82.6433,-77.5238 79.4439,-70.5462 79.4439,-70.5462"/>
<text text-anchor="start" x="104.0833" y="-111.7677" font-family="Lato" font-size="12.00" fill="#000000">!p0 &amp; !p1</text>
</g>
<!-- 1&#45;&gt;1 -->
<g id="edge7" class="edge">
<title>1&#45;&gt;1</title>
<path fill="none" stroke="#000000" d="M182.185,-168.5669C180.348,-179.5285 184.328,-189.4093 194.1249,-189.4093 201.6256,-189.4093 205.7166,-183.6173 206.3978,-175.9828"/>
<polygon fill="#000000" stroke="#000000" points="206.0648,-168.5669 209.5257,-175.4185 206.2219,-172.0633 206.3789,-175.5598 206.3789,-175.5598 206.3789,-175.5598 206.2219,-172.0633 203.2321,-175.7012 206.0648,-168.5669 206.0648,-168.5669"/>
<text text-anchor="start" x="171.6249" y="-192.8093" font-family="Lato" font-size="12.00" fill="#000000">p0 &amp; !p1</text>
</g>
<!-- 1&#45;&gt;2 -->
<g id="edge8" class="edge">
<title>1&#45;&gt;2</title>
<path fill="none" stroke="#000000" d="M208.2675,-166.9812C215.5566,-175.4645 225.2154,-184.5406 236.1665,-189.3677 313.9358,-223.6471 357.3706,-237.5357 427.3919,-189.3677 451.8555,-172.5391 464.2476,-140.6721 470.4564,-115.2199"/>
<polygon fill="#000000" stroke="#000000" points="472.0486,-108.229 473.5654,-115.7538 471.2713,-111.6416 470.4941,-115.0542 470.4941,-115.0542 470.4941,-115.0542 471.2713,-111.6416 467.4227,-114.3547 472.0486,-108.229 472.0486,-108.229"/>
<text text-anchor="start" x="310.7792" y="-223.7677" font-family="Lato" font-size="12.00" fill="#000000">!p0 &amp; p1</text>
</g>
<!-- 1&#45;&gt;3 -->
<g id="edge9" class="edge">
<title>1&#45;&gt;3</title>
<path fill="none" stroke="#000000" d="M218.334,-144.9891C237.2272,-142.3233 263.6252,-136.7712 284.1665,-125.3677 292.8054,-120.5719 300.998,-113.8507 308.1279,-106.9533"/>
<polygon fill="#000000" stroke="#000000" points="313.3628,-101.6735 310.6711,-108.8622 310.8985,-104.1589 308.4342,-106.6444 308.4342,-106.6444 308.4342,-106.6444 310.8985,-104.1589 306.1973,-104.4265 313.3628,-101.6735 313.3628,-101.6735"/>
<text text-anchor="start" x="239.1665" y="-144.7677" font-family="Lato" font-size="12.00" fill="#000000">p0 &amp; p1</text>
</g>
<!-- 2&#45;&gt;0 -->
<g id="edge10" class="edge">
<title>2&#45;&gt;0</title>
<path fill="none" stroke="#000000" d="M454.1591,-54.8247C446.2745,-47.9833 436.9728,-41.0477 427.3919,-36.3677 368.8708,-7.7818 348.9267,-12.2959 284.1665,-5.3677 204.0944,3.1986 179.1944,3.6711 104.0833,-25.3677 98.3218,-27.5951 92.5481,-30.7166 87.205,-34.0715"/>
<polygon fill="#000000" stroke="#000000" points="81.157,-38.0774 85.2534,-31.5857 84.075,-36.1447 86.9929,-34.2119 86.9929,-34.2119 86.9929,-34.2119 84.075,-36.1447 88.7324,-36.8381 81.157,-38.0774 81.157,-38.0774"/>
<text text-anchor="start" x="236.1665" y="-8.7677" font-family="Lato" font-size="12.00" fill="#000000">!p0 &amp; !p1</text>
</g>
<!-- 2&#45;&gt;1 -->
<g id="edge11" class="edge">
<title>2&#45;&gt;1</title>
<path fill="none" stroke="#000000" d="M452.3505,-97.1483C430.6994,-113.7342 397.356,-136.5483 364.3919,-148.3677 310.584,-167.6607 292.8613,-165.6619 236.1665,-158.3677 232.3315,-157.8743 228.3471,-157.1376 224.4267,-156.2748"/>
<polygon fill="#000000" stroke="#000000" points="217.4854,-154.6108 225.0269,-153.1795 220.889,-155.4267 224.2925,-156.2427 224.2925,-156.2427 224.2925,-156.2427 220.889,-155.4267 223.5582,-159.3059 217.4854,-154.6108 217.4854,-154.6108"/>
<text text-anchor="start" x="310.7792" y="-165.7677" font-family="Lato" font-size="12.00" fill="#000000">p0 &amp; !p1</text>
</g>
<!-- 2&#45;&gt;2 -->
<g id="edge12" class="edge">
<title>2&#45;&gt;2</title>
<path fill="none" stroke="#000000" d="M463.4597,-105.6305C462.7227,-116.966 467.071,-126.4804 476.5046,-126.4804 483.8746,-126.4804 488.1408,-120.6733 489.3031,-112.7275"/>
<polygon fill="#000000" stroke="#000000" points="489.5495,-105.6305 492.4547,-112.7356 489.428,-109.1284 489.3066,-112.6263 489.3066,-112.6263 489.3066,-112.6263 489.428,-109.1284 486.1585,-112.517 489.5495,-105.6305 489.5495,-105.6305"/>
<text text-anchor="start" x="454.0046" y="-129.8804" font-family="Lato" font-size="12.00" fill="#000000">!p0 &amp; p1</text>
</g>
<!-- 2&#45;&gt;3 -->
<g id="edge13" class="edge">
<title>2&#45;&gt;3</title>
<path fill="none" stroke="#000000" d="M445.1465,-77.3677C423.6148,-77.3677 394.892,-77.3677 371.9425,-77.3677"/>
<polygon fill="#000000" stroke="#000000" points="364.7106,-77.3677 371.7107,-74.2178 368.2106,-77.3678 371.7106,-77.3678 371.7106,-77.3678 371.7106,-77.3678 368.2106,-77.3678 371.7106,-80.5178 364.7106,-77.3677 364.7106,-77.3677"/>
<text text-anchor="start" x="383.8919" y="-80.7677" font-family="Lato" font-size="12.00" fill="#000000">p0 &amp; p1</text>
</g>
<!-- 3&#45;&gt;0 -->
<g id="edge14" class="edge">
<title>3&#45;&gt;0</title>
<path fill="none" stroke="#000000" d="M303.9298,-66.8292C280.9395,-59.159 247.9674,-49.4328 218.1665,-45.3677 175.097,-39.4927 124.8098,-44.1 93.1938,-48.3732"/>
<polygon fill="#000000" stroke="#000000" points="85.9633,-49.3889 92.457,-45.2957 89.4293,-48.902 92.8953,-48.4151 92.8953,-48.4151 92.8953,-48.4151 89.4293,-48.902 93.3335,-51.5345 85.9633,-49.3889 85.9633,-49.3889"/>
<text text-anchor="start" x="170.1249" y="-48.7677" font-family="Lato" font-size="12.00" fill="#000000">!p0 &amp; !p1</text>
</g>
<!-- 3&#45;&gt;1 -->
<g id="edge15" class="edge">
<title>3&#45;&gt;1</title>
<path fill="none" stroke="#000000" d="M303.0139,-85.4688C279.0003,-92.1826 247.6295,-101.6754 236.1665,-108.3677 228.9256,-112.5951 221.8988,-118.2619 215.729,-123.9636"/>
<polygon fill="#000000" stroke="#000000" points="210.3222,-129.1693 213.18,-122.045 212.8435,-126.7417 215.3648,-124.3142 215.3648,-124.3142 215.3648,-124.3142 212.8435,-126.7417 217.5496,-126.5834 210.3222,-129.1693 210.3222,-129.1693"/>
<text text-anchor="start" x="237.6665" y="-111.7677" font-family="Lato" font-size="12.00" fill="#000000">p0 &amp; !p1</text>
</g>
<!-- 3&#45;&gt;2 -->
<g id="edge16" class="edge">
<title>3&#45;&gt;2</title>
<path fill="none" stroke="#000000" d="M362.2077,-65.5732C368.7399,-63.4138 375.7185,-61.49 382.3919,-60.3677 402.1149,-57.0508 407.6689,-57.0508 427.3919,-60.3677 431.7714,-61.1042 436.2822,-62.1859 440.7121,-63.4529"/>
<polygon fill="#000000" stroke="#000000" points="447.5761,-65.5732 439.9582,-66.5168 444.232,-64.5402 440.8879,-63.5071 440.8879,-63.5071 440.8879,-63.5071 444.232,-64.5402 441.8177,-60.4974 447.5761,-65.5732 447.5761,-65.5732"/>
<text text-anchor="start" x="382.3919" y="-63.7677" font-family="Lato" font-size="12.00" fill="#000000">!p0 &amp; p1</text>
</g>
<!-- 3&#45;&gt;3 -->
<g id="edge17" class="edge">
<title>3&#45;&gt;3</title>
<path fill="none" stroke="#000000" d="M320.2343,-105.6305C319.4973,-116.966 323.8456,-126.4804 333.2792,-126.4804 340.6492,-126.4804 344.9154,-120.6733 346.0777,-112.7275"/>
<polygon fill="#000000" stroke="#000000" points="346.3241,-105.6305 349.2293,-112.7356 346.2026,-109.1284 346.0812,-112.6263 346.0812,-112.6263 346.0812,-112.6263 346.2026,-109.1284 342.9331,-112.517 346.3241,-105.6305 346.3241,-105.6305"/>
<text text-anchor="start" x="312.2792" y="-129.8804" font-family="Lato" font-size="12.00" fill="#000000">p0 &amp; p1</text>
</g>
</g>
</svg>
