<?xml version="1.0" encoding="UTF-8" standalone="no"?>
<?xml-stylesheet href="spot.css" type="text/css"?>
<!DOCTYPE svg PUBLIC "-//W3C//DTD SVG 1.1//EN"
 "http://www.w3.org/Graphics/SVG/1.1/DTD/svg11.dtd">
<!-- Generated by graphviz version 2.40.1 (20161225.0304)
 -->
<!-- Title: GFa Pages: 1 -->
<svg width="172pt" height="118pt"
 viewBox="0.00 0.00 172.00 118.40" xmlns="http://www.w3.org/2000/svg" xmlns:xlink="http://www.w3.org/1999/xlink">
<g id="graph0" class="graph" transform="scale(1 1) rotate(0) translate(4 114.4)">
<title>GFa</title>
<polygon fill="#ffffff" stroke="transparent" points="-4,4 -4,-114.4 168,-114.4 168,4 -4,4"/>
<text text-anchor="start" x="63" y="-83.8" font-family="Lato" font-size="12.00" fill="#000000">[Büchi]</text>
<!-- I -->
<!-- 0 -->
<g id="node2" class="node">
<title>0</title>
<ellipse fill="#ffffa0" stroke="#000000" cx="60" cy="-22" rx="18" ry="18"/>
<ellipse fill="none" stroke="#000000" cx="60" cy="-22" rx="22" ry="22"/>
<text text-anchor="middle" x="60" y="-18.9" font-family="Lato" font-size="12.00" fill="#000000">0</text>
</g>
<!-- I&#45;&gt;0 -->
<g id="edge1" class="edge">
<title>I&#45;&gt;0</title>
<path fill="none" stroke="#000000" d="M1.1682,-22C4.2491,-22 17.4946,-22 30.6388,-22"/>
<polygon fill="#000000" stroke="#000000" points="37.8655,-22 30.8656,-25.1501 34.3655,-22 30.8655,-22.0001 30.8655,-22.0001 30.8655,-22.0001 34.3655,-22 30.8655,-18.8501 37.8655,-22 37.8655,-22"/>
</g>
<!-- 0&#45;&gt;0 -->
<g id="edge2" class="edge">
<title>0&#45;&gt;0</title>
<path fill="none" stroke="#000000" d="M52.6831,-42.9908C51.7798,-53.0872 54.2188,-62 60,-62 64.3359,-62 66.7918,-56.9866 67.3677,-50.2204"/>
<polygon fill="#000000" stroke="#000000" points="67.3169,-42.9908 70.5161,-49.9684 67.3415,-46.4907 67.3662,-49.9906 67.3662,-49.9906 67.3662,-49.9906 67.3415,-46.4907 64.2163,-50.0128 67.3169,-42.9908 67.3169,-42.9908"/>
<text text-anchor="start" x="56.5" y="-65.4" font-family="Lato" font-size="12.00" fill="#000000">a</text>
</g>
<!-- 1 -->
<g id="node3" class="node">
<title>1</title>
<ellipse fill="#ffffa0" stroke="#000000" cx="146" cy="-22" rx="18" ry="18"/>
<text text-anchor="middle" x="146" y="-18.9" font-family="Lato" font-size="12.00" fill="#000000">1</text>
</g>
<!-- 0&#45;&gt;1 -->
<g id="edge3" class="edge">
<title>0&#45;&gt;1</title>
<path fill="none" stroke="#000000" d="M82.1471,-22C93.9344,-22 108.48,-22 120.7097,-22"/>
<polygon fill="#000000" stroke="#000000" points="127.9798,-22 120.9798,-25.1501 124.4798,-22 120.9798,-22.0001 120.9798,-22.0001 120.9798,-22.0001 124.4798,-22 120.9797,-18.8501 127.9798,-22 127.9798,-22"/>
<text text-anchor="start" x="100" y="-25.4" font-family="Lato" font-size="12.00" fill="#000000">!a</text>
</g>
<!-- 1&#45;&gt;0 -->
<g id="edge4" class="edge">
<title>1&#45;&gt;0</title>
<path fill="none" stroke="#000000" d="M130.4151,-12.8008C124.2707,-9.6734 117.0141,-6.5728 110,-5 101.9175,-3.1876 93.3126,-4.7716 85.5606,-7.5806"/>
<polygon fill="#000000" stroke="#000000" points="78.7207,-10.4423 83.9625,-4.8345 81.9495,-9.0914 85.1783,-7.7404 85.1783,-7.7404 85.1783,-7.7404 81.9495,-9.0914 86.3941,-10.6464 78.7207,-10.4423 78.7207,-10.4423"/>
<text text-anchor="start" x="101.5" y="-8.4" font-family="Lato" font-size="12.00" fill="#000000">a</text>
</g>
<!-- 1&#45;&gt;1 -->
<g id="edge5" class="edge">
<title>1&#45;&gt;1</title>
<path fill="none" stroke="#000000" d="M138.9688,-38.6641C137.4063,-48.625 139.75,-58 146,-58 150.6875,-58 153.1777,-52.7266 153.4707,-45.8876"/>
<polygon fill="#000000" stroke="#000000" points="153.0313,-38.6641 156.6006,-45.4598 153.2438,-42.1576 153.4564,-45.6511 153.4564,-45.6511 153.4564,-45.6511 153.2438,-42.1576 150.3122,-45.8425 153.0313,-38.6641 153.0313,-38.6641"/>
<text text-anchor="start" x="141" y="-61.4" font-family="Lato" font-size="12.00" fill="#000000">!a</text>
</g>
</g>
</svg>
