<?xml version="1.0" encoding="UTF-8" standalone="no"?>
<?xml-stylesheet href="spot.css" type="text/css"?>
<!DOCTYPE svg PUBLIC "-//W3C//DTD SVG 1.1//EN"
 "http://www.w3.org/Graphics/SVG/1.1/DTD/svg11.dtd">
<!-- Generated by graphviz version 2.40.1 (20161225.0304)
 -->
<!-- Title: G((a &amp; Xb) | (!a &amp; X!b)) Pages: 1 -->
<svg width="280pt" height="151pt"
 viewBox="0.00 0.00 280.00 151.40" xmlns="http://www.w3.org/2000/svg" xmlns:xlink="http://www.w3.org/1999/xlink">
<g id="graph0" class="graph" transform="scale(1 1) rotate(0) translate(4 147.4)">
<title>G((a &amp; Xb) | (!a &amp; X!b))</title>
<polygon fill="#ffffff" stroke="transparent" points="-4,4 -4,-147.4 276,-147.4 276,4 -4,4"/>
<text text-anchor="start" x="117" y="-116.8" font-family="Lato" font-size="12.00" fill="#000000">[Büchi]</text>
<!-- I -->
<!-- 0 -->
<g id="node2" class="node">
<title>0</title>
<ellipse fill="#ffffa0" stroke="#000000" cx="56" cy="-18" rx="18" ry="18"/>
<text text-anchor="middle" x="56" y="-14.9" font-family="Lato" font-size="12.00" fill="#000000">0</text>
</g>
<!-- I&#45;&gt;0 -->
<g id="edge1" class="edge">
<title>I&#45;&gt;0</title>
<path fill="none" stroke="#000000" d="M1.1233,-18C4.178,-18 17.9448,-18 30.9241,-18"/>
<polygon fill="#000000" stroke="#000000" points="37.9807,-18 30.9808,-21.1501 34.4807,-18 30.9807,-18.0001 30.9807,-18.0001 30.9807,-18.0001 34.4807,-18 30.9807,-14.8501 37.9807,-18 37.9807,-18"/>
</g>
<!-- 1 -->
<g id="node3" class="node">
<title>1</title>
<ellipse fill="#ffffa0" stroke="#000000" cx="139" cy="-55" rx="18" ry="18"/>
<ellipse fill="none" stroke="#000000" cx="139" cy="-55" rx="22" ry="22"/>
<text text-anchor="middle" x="139" y="-51.9" font-family="Lato" font-size="12.00" fill="#000000">1</text>
</g>
<!-- 0&#45;&gt;1 -->
<g id="edge2" class="edge">
<title>0&#45;&gt;1</title>
<path fill="none" stroke="#000000" d="M72.7963,-25.4875C84.0908,-30.5224 99.2236,-37.2683 112.1701,-43.0397"/>
<polygon fill="#000000" stroke="#000000" points="118.7092,-45.9547 111.0331,-45.9816 115.5124,-44.5296 112.3157,-43.1045 112.3157,-43.1045 112.3157,-43.1045 115.5124,-44.5296 113.5983,-40.2274 118.7092,-45.9547 118.7092,-45.9547"/>
<text text-anchor="start" x="92" y="-39.4" font-family="Lato" font-size="12.00" fill="#000000">a</text>
</g>
<!-- 2 -->
<g id="node4" class="node">
<title>2</title>
<ellipse fill="#ffffa0" stroke="#000000" cx="250" cy="-35" rx="18" ry="18"/>
<ellipse fill="none" stroke="#000000" cx="250" cy="-35" rx="22" ry="22"/>
<text text-anchor="middle" x="250" y="-31.9" font-family="Lato" font-size="12.00" fill="#000000">2</text>
</g>
<!-- 0&#45;&gt;2 -->
<g id="edge3" class="edge">
<title>0&#45;&gt;2</title>
<path fill="none" stroke="#000000" d="M73.8371,-15.4091C85.9752,-13.7799 102.4199,-11.8338 117,-11 136.5237,-9.8835 141.6138,-8.432 161,-11 181.8225,-13.7583 204.688,-19.9968 222.0283,-25.4219"/>
<polygon fill="#000000" stroke="#000000" points="229.0996,-27.6846 221.4725,-28.5513 225.7661,-26.6179 222.4326,-25.5512 222.4326,-25.5512 222.4326,-25.5512 225.7661,-26.6179 223.3926,-22.5511 229.0996,-27.6846 229.0996,-27.6846"/>
<text text-anchor="start" x="134" y="-14.4" font-family="Lato" font-size="12.00" fill="#000000">!a</text>
</g>
<!-- 1&#45;&gt;1 -->
<g id="edge4" class="edge">
<title>1&#45;&gt;1</title>
<path fill="none" stroke="#000000" d="M131.3173,-75.9908C130.3688,-86.0872 132.9297,-95 139,-95 143.5527,-95 146.1314,-89.9866 146.7361,-83.2204"/>
<polygon fill="#000000" stroke="#000000" points="146.6827,-75.9908 149.8844,-82.9673 146.7086,-79.4907 146.7345,-82.9906 146.7345,-82.9906 146.7345,-82.9906 146.7086,-79.4907 143.5846,-83.0139 146.6827,-75.9908 146.6827,-75.9908"/>
<text text-anchor="start" x="125" y="-98.4" font-family="Lato" font-size="12.00" fill="#000000">a &amp; b</text>
</g>
<!-- 1&#45;&gt;2 -->
<g id="edge5" class="edge">
<title>1&#45;&gt;2</title>
<path fill="none" stroke="#000000" d="M161.2783,-54.5564C175.3753,-53.9228 193.9106,-52.4376 210,-49 214.1484,-48.1137 218.4572,-46.9164 222.6437,-45.5933"/>
<polygon fill="#000000" stroke="#000000" points="229.5238,-43.2804 223.8925,-48.4968 226.2063,-44.3957 222.8887,-45.511 222.8887,-45.511 222.8887,-45.511 226.2063,-44.3957 221.8849,-42.5252 229.5238,-43.2804 229.5238,-43.2804"/>
<text text-anchor="start" x="179" y="-56.4" font-family="Lato" font-size="12.00" fill="#000000">!a &amp; b</text>
</g>
<!-- 2&#45;&gt;1 -->
<g id="edge6" class="edge">
<title>2&#45;&gt;1</title>
<path fill="none" stroke="#000000" d="M228.1941,-30.7433C213.9562,-28.7727 195.0917,-27.7034 179,-32 173.5582,-33.453 168.0882,-35.8429 163.0159,-38.5454"/>
<polygon fill="#000000" stroke="#000000" points="156.8359,-42.0888 161.3417,-35.8742 159.8723,-40.3479 162.9086,-38.6069 162.9086,-38.6069 162.9086,-38.6069 159.8723,-40.3479 164.4754,-41.3396 156.8359,-42.0888 156.8359,-42.0888"/>
<text text-anchor="start" x="179" y="-35.4" font-family="Lato" font-size="12.00" fill="#000000">a &amp; !b</text>
</g>
<!-- 2&#45;&gt;2 -->
<g id="edge7" class="edge">
<title>2&#45;&gt;2</title>
<path fill="none" stroke="#000000" d="M240.2928,-54.7575C238.6432,-65.3499 241.8789,-75 250,-75 256.2177,-75 259.5717,-69.3433 260.062,-61.9379"/>
<polygon fill="#000000" stroke="#000000" points="259.7072,-54.7575 263.199,-61.5935 259.88,-58.2532 260.0528,-61.749 260.0528,-61.749 260.0528,-61.749 259.88,-58.2532 256.9066,-61.9044 259.7072,-54.7575 259.7072,-54.7575"/>
<text text-anchor="start" x="233" y="-78.4" font-family="Lato" font-size="12.00" fill="#000000">!a &amp; !b</text>
</g>
</g>
</svg>
