<?xml version="1.0" encoding="UTF-8" standalone="no"?>
<?xml-stylesheet href="spot.css" type="text/css"?>
<!DOCTYPE svg PUBLIC "-//W3C//DTD SVG 1.1//EN"
 "http://www.w3.org/Graphics/SVG/1.1/DTD/svg11.dtd">
<!-- Generated by graphviz version 2.40.1 (20161225.0304)
 -->
<!-- Title: G(a &amp; Fb) Pages: 1 -->
<svg width="193pt" height="118pt"
 viewBox="0.00 0.00 193.00 118.40" xmlns="http://www.w3.org/2000/svg" xmlns:xlink="http://www.w3.org/1999/xlink">
<g id="graph0" class="graph" transform="scale(1 1) rotate(0) translate(4 114.4)">
<title>G(a &amp; Fb)</title>
<polygon fill="#ffffff" stroke="transparent" points="-4,4 -4,-114.4 189,-114.4 189,4 -4,4"/>
<text text-anchor="start" x="73.5" y="-83.8" font-family="Lato" font-size="12.00" fill="#000000">[Büchi]</text>
<!-- I -->
<!-- 0 -->
<g id="node2" class="node">
<title>0</title>
<ellipse fill="#ffffa0" stroke="#000000" cx="60" cy="-22" rx="18" ry="18"/>
<ellipse fill="none" stroke="#000000" cx="60" cy="-22" rx="22" ry="22"/>
<text text-anchor="middle" x="60" y="-18.9" font-family="Lato" font-size="12.00" fill="#000000">0</text>
</g>
<!-- I&#45;&gt;0 -->
<g id="edge1" class="edge">
<title>I&#45;&gt;0</title>
<path fill="none" stroke="#000000" d="M1.1682,-22C4.2491,-22 17.4946,-22 30.6388,-22"/>
<polygon fill="#000000" stroke="#000000" points="37.8655,-22 30.8656,-25.1501 34.3655,-22 30.8655,-22.0001 30.8655,-22.0001 30.8655,-22.0001 34.3655,-22 30.8655,-18.8501 37.8655,-22 37.8655,-22"/>
</g>
<!-- 0&#45;&gt;0 -->
<g id="edge2" class="edge">
<title>0&#45;&gt;0</title>
<path fill="none" stroke="#000000" d="M52.6831,-42.9908C51.7798,-53.0872 54.2188,-62 60,-62 64.3359,-62 66.7918,-56.9866 67.3677,-50.2204"/>
<polygon fill="#000000" stroke="#000000" points="67.3169,-42.9908 70.5161,-49.9684 67.3415,-46.4907 67.3662,-49.9906 67.3662,-49.9906 67.3662,-49.9906 67.3415,-46.4907 64.2163,-50.0128 67.3169,-42.9908 67.3169,-42.9908"/>
<text text-anchor="start" x="46" y="-65.4" font-family="Lato" font-size="12.00" fill="#000000">a &amp; b</text>
</g>
<!-- 1 -->
<g id="node3" class="node">
<title>1</title>
<ellipse fill="#ffffa0" stroke="#000000" cx="167" cy="-22" rx="18" ry="18"/>
<text text-anchor="middle" x="167" y="-18.9" font-family="Lato" font-size="12.00" fill="#000000">1</text>
</g>
<!-- 0&#45;&gt;1 -->
<g id="edge3" class="edge">
<title>0&#45;&gt;1</title>
<path fill="none" stroke="#000000" d="M82.1705,-22C99.4172,-22 123.3707,-22 141.4269,-22"/>
<polygon fill="#000000" stroke="#000000" points="148.7675,-22 141.7675,-25.1501 145.2675,-22 141.7675,-22.0001 141.7675,-22.0001 141.7675,-22.0001 145.2675,-22 141.7674,-18.8501 148.7675,-22 148.7675,-22"/>
<text text-anchor="start" x="100" y="-25.4" font-family="Lato" font-size="12.00" fill="#000000">a &amp; !b</text>
</g>
<!-- 1&#45;&gt;0 -->
<g id="edge4" class="edge">
<title>1&#45;&gt;0</title>
<path fill="none" stroke="#000000" d="M151.4151,-12.8008C145.2707,-9.6734 138.0141,-6.5728 131,-5 117.5561,-1.9854 113.5006,-2.2501 100,-5 95.536,-5.9092 90.9528,-7.3352 86.5548,-8.9835"/>
<polygon fill="#000000" stroke="#000000" points="79.8401,-11.7145 85.1375,-6.1593 83.0822,-10.3958 86.3243,-9.0772 86.3243,-9.0772 86.3243,-9.0772 83.0822,-10.3958 87.5111,-11.9951 79.8401,-11.7145 79.8401,-11.7145"/>
<text text-anchor="start" x="101.5" y="-8.4" font-family="Lato" font-size="12.00" fill="#000000">a &amp; b</text>
</g>
<!-- 1&#45;&gt;1 -->
<g id="edge5" class="edge">
<title>1&#45;&gt;1</title>
<path fill="none" stroke="#000000" d="M158.3666,-37.916C156.1144,-48.1504 158.9922,-58 167,-58 173.131,-58 176.2548,-52.2263 176.3716,-44.9268"/>
<polygon fill="#000000" stroke="#000000" points="175.6334,-37.916 179.4992,-44.5477 176,-41.3968 176.3665,-44.8775 176.3665,-44.8775 176.3665,-44.8775 176,-41.3968 173.2338,-45.2074 175.6334,-37.916 175.6334,-37.916"/>
<text text-anchor="start" x="151.5" y="-61.4" font-family="Lato" font-size="12.00" fill="#000000">a &amp; !b</text>
</g>
</g>
</svg>
