<?xml version="1.0" encoding="UTF-8" standalone="no"?>
<?xml-stylesheet href="spot.css" type="text/css"?>
<!DOCTYPE svg PUBLIC "-//W3C//DTD SVG 1.1//EN"
 "http://www.w3.org/Graphics/SVG/1.1/DTD/svg11.dtd">
<!-- Generated by graphviz version 2.40.1 (20161225.0304)
 -->
<!-- Pages: 1 -->
<svg width="539pt" height="179pt"
 viewBox="0.00 0.00 539.44 178.80" xmlns="http://www.w3.org/2000/svg" xmlns:xlink="http://www.w3.org/1999/xlink">
<g id="graph0" class="graph" transform="scale(1 1) rotate(0) translate(4 174.8)">
<polygon fill="#ffffff" stroke="transparent" points="-4,4 -4,-174.8 535.4392,-174.8 535.4392,4 -4,4"/>
<text text-anchor="start" x="246.7196" y="-158.2" font-family="Lato" font-size="12.00" fill="#000000">Fin(</text>
<text text-anchor="start" x="266.7196" y="-158.2" font-family="Lato" font-size="12.00" fill="#1f78b4">⓿</text>
<text text-anchor="start" x="280.7196" y="-158.2" font-family="Lato" font-size="12.00" fill="#000000">)</text>
<text text-anchor="start" x="238.2196" y="-146.2" font-family="Lato" font-size="12.00" fill="#000000">[co&#45;Büchi]</text>
<!-- I -->
<!-- 0 -->
<g id="node2" class="node">
<title>0</title>
<ellipse fill="#ffffa0" stroke="#000000" cx="89.0937" cy="-63.8" rx="51.1876" ry="18"/>
<text text-anchor="start" x="55.5937" y="-60.7" font-family="Lato" font-size="12.00" fill="#000000">GF(a &lt;&#45;&gt; Xb)</text>
</g>
<!-- I&#45;&gt;0 -->
<g id="edge1" class="edge">
<title>I&#45;&gt;0</title>
<path fill="none" stroke="#000000" d="M1.0657,-63.8C3.7759,-63.8 15.8964,-63.8 30.3174,-63.8"/>
<polygon fill="#000000" stroke="#000000" points="37.5504,-63.8 30.5504,-66.9501 34.0504,-63.8 30.5504,-63.8001 30.5504,-63.8001 30.5504,-63.8001 34.0504,-63.8 30.5503,-60.6501 37.5504,-63.8 37.5504,-63.8"/>
</g>
<!-- &#45;1 -->
<g id="node3" class="node">
<title>&#45;1</title>
<ellipse fill="#ffffa0" stroke="#000000" cx="187.9874" cy="-136.8" rx="1.8" ry="1.8"/>
</g>
<!-- 0&#45;&gt;&#45;1 -->
<g id="edge2" class="edge">
<title>0&#45;&gt;&#45;1</title>
<path fill="none" stroke="#000000" d="M108.0965,-80.6082C121.6235,-92.217 140.4709,-107.6856 158.1874,-119.8 165.2183,-124.6077 173.6928,-129.3487 179.8043,-132.5975"/>
<polygon fill="none" stroke="#000000" points="178.9732,-134.926 186.3159,-135.9687 181.2261,-130.5746 178.9732,-134.926"/>
<text text-anchor="start" x="158.1874" y="-129.2" font-family="Lato" font-size="12.00" fill="#000000">!a</text>
</g>
<!-- &#45;4 -->
<g id="node5" class="node">
<title>&#45;4</title>
<ellipse fill="#ffffa0" stroke="#000000" cx="187.9874" cy="-1.8" rx="1.8" ry="1.8"/>
</g>
<!-- 0&#45;&gt;&#45;4 -->
<g id="edge5" class="edge">
<title>0&#45;&gt;&#45;4</title>
<path fill="none" stroke="#000000" d="M114.3047,-47.9944C135.9361,-34.4328 165.7889,-15.7171 179.9332,-6.8495"/>
<polygon fill="none" stroke="#000000" points="181.3937,-8.8256 186.0231,-3.0315 178.7909,-4.674 181.3937,-8.8256"/>
<text text-anchor="start" x="159.6874" y="-24.2" font-family="Lato" font-size="12.00" fill="#000000">a</text>
</g>
<!-- &#45;7 -->
<g id="node7" class="node">
<title>&#45;7</title>
<ellipse fill="#ffffa0" stroke="#000000" cx="187.9874" cy="-53.8" rx="1.8" ry="1.8"/>
</g>
<!-- 0&#45;&gt;&#45;7 -->
<g id="edge8" class="edge">
<title>0&#45;&gt;&#45;7</title>
<path fill="none" stroke="#000000" d="M140.3007,-61.9459C149.6129,-61.2165 159.2157,-60.2041 168.1874,-58.8 171.8654,-58.2244 175.8571,-57.2798 179.2866,-56.3658"/>
<polygon fill="none" stroke="#000000" points="180.1084,-58.6787 186.1547,-54.3839 178.7498,-53.9708 180.1084,-58.6787"/>
<text text-anchor="start" x="159.6874" y="-64.2" font-family="Lato" font-size="12.00" fill="#000000">1</text>
</g>
<!-- &#45;1&#45;&gt;0 -->
<g id="edge3" class="edge">
<title>&#45;1&#45;&gt;0</title>
<path fill="none" stroke="#000000" d="M186.3763,-135.6107C178.4611,-129.768 143.0364,-103.6187 117.2126,-84.5564"/>
<polygon fill="#000000" stroke="#000000" points="111.5342,-80.3648 119.0369,-81.9878 114.3502,-82.4435 117.1661,-84.5221 117.1661,-84.5221 117.1661,-84.5221 114.3502,-82.4435 115.2953,-87.0564 111.5342,-80.3648 111.5342,-80.3648"/>
</g>
<!-- 3 -->
<g id="node4" class="node">
<title>3</title>
<ellipse fill="#ffffa0" stroke="#000000" cx="404.4392" cy="-92.8" rx="27" ry="18"/>
<text text-anchor="start" x="399.4392" y="-89.7" font-family="Lato" font-size="12.00" fill="#000000">!b</text>
</g>
<!-- &#45;1&#45;&gt;3 -->
<g id="edge4" class="edge">
<title>&#45;1&#45;&gt;3</title>
<path fill="none" stroke="#000000" d="M190.0374,-136.6819C202.9855,-135.9045 274.7011,-131.1336 331.4392,-117.8 345.876,-114.4073 361.4778,-109.2739 374.5374,-104.5396"/>
<polygon fill="#000000" stroke="#000000" points="381.1153,-102.1117 375.6392,-107.4908 377.8319,-103.3236 374.5484,-104.5356 374.5484,-104.5356 374.5484,-104.5356 377.8319,-103.3236 373.4576,-101.5805 381.1153,-102.1117 381.1153,-102.1117"/>
</g>
<!-- 4 -->
<g id="node9" class="node">
<title>4</title>
<ellipse fill="#ffffa0" stroke="#000000" cx="504.4392" cy="-65.8" rx="27" ry="18"/>
<text text-anchor="middle" x="504.4392" y="-62.7" font-family="Lato" font-size="12.00" fill="#000000">t</text>
</g>
<!-- 3&#45;&gt;4 -->
<g id="edge15" class="edge">
<title>3&#45;&gt;4</title>
<path fill="none" stroke="#000000" d="M429.6735,-85.9868C442.5825,-82.5013 458.4381,-78.2203 472.221,-74.4989"/>
<polygon fill="#000000" stroke="#000000" points="479.2131,-72.6111 473.2762,-77.4769 475.8341,-73.5234 472.4551,-74.4358 472.4551,-74.4358 472.4551,-74.4358 475.8341,-73.5234 471.634,-71.3947 479.2131,-72.6111 479.2131,-72.6111"/>
<text text-anchor="start" x="449.4392" y="-84.2" font-family="Lato" font-size="12.00" fill="#000000">!b</text>
</g>
<!-- &#45;4&#45;&gt;0 -->
<g id="edge6" class="edge">
<title>&#45;4&#45;&gt;0</title>
<path fill="none" stroke="#000000" d="M186.0177,-2.2284C181.1129,-3.3436 168.0389,-6.6152 158.1874,-11.8 142.2885,-20.1675 126.1553,-32.0753 113.4811,-42.385"/>
<polygon fill="#000000" stroke="#000000" points="107.9145,-46.9909 111.2996,-40.1015 110.6111,-44.7596 113.3077,-42.5284 113.3077,-42.5284 113.3077,-42.5284 110.6111,-44.7596 115.3159,-44.9553 107.9145,-46.9909 107.9145,-46.9909"/>
</g>
<!-- 2 -->
<g id="node6" class="node">
<title>2</title>
<ellipse fill="#ffffa0" stroke="#000000" cx="404.4392" cy="-38.8" rx="27" ry="18"/>
<text text-anchor="start" x="400.9392" y="-35.7" font-family="Lato" font-size="12.00" fill="#000000">b</text>
</g>
<!-- &#45;4&#45;&gt;2 -->
<g id="edge7" class="edge">
<title>&#45;4&#45;&gt;2</title>
<path fill="none" stroke="#000000" d="M190.0234,-1.9844C202.8856,-3.1669 274.1685,-9.9805 331.4392,-20.8 344.967,-23.3556 359.7388,-26.8607 372.4334,-30.0991"/>
<polygon fill="#000000" stroke="#000000" points="379.2512,-31.8631 371.6853,-33.1592 375.8628,-30.9863 372.4744,-30.1096 372.4744,-30.1096 372.4744,-30.1096 375.8628,-30.9863 373.2634,-27.06 379.2512,-31.8631 379.2512,-31.8631"/>
</g>
<!-- 2&#45;&gt;4 -->
<g id="edge14" class="edge">
<title>2&#45;&gt;4</title>
<path fill="none" stroke="#000000" d="M429.9495,-45.113C439.2489,-47.4618 449.8356,-50.1912 459.4392,-52.8 463.7652,-53.9751 468.3147,-55.2469 472.7909,-56.5193"/>
<polygon fill="#000000" stroke="#000000" points="479.7218,-58.5054 472.1249,-59.6052 476.3572,-57.5413 472.9926,-56.5771 472.9926,-56.5771 472.9926,-56.5771 476.3572,-57.5413 473.8604,-53.549 479.7218,-58.5054 479.7218,-58.5054"/>
<text text-anchor="start" x="450.9392" y="-56.2" font-family="Lato" font-size="12.00" fill="#000000">b</text>
</g>
<!-- &#45;7&#45;&gt;0 -->
<g id="edge9" class="edge">
<title>&#45;7&#45;&gt;0</title>
<path fill="none" stroke="#000000" d="M185.9062,-54.0104C180.1846,-54.589 163.4434,-56.2819 145.4567,-58.1007"/>
<polygon fill="#000000" stroke="#000000" points="138.2509,-58.8293 144.8984,-54.991 141.7331,-58.4771 145.2153,-58.125 145.2153,-58.125 145.2153,-58.125 141.7331,-58.4771 145.5323,-61.259 138.2509,-58.8293 138.2509,-58.8293"/>
</g>
<!-- 1 -->
<g id="node8" class="node">
<title>1</title>
<ellipse fill="#ffffa0" stroke="#000000" cx="279.1133" cy="-53.8" rx="52.1524" ry="24.0833"/>
<text text-anchor="start" x="250.1133" y="-57.2" font-family="Lato" font-size="12.00" fill="#000000">F(a &lt;&#45;&gt; Xb)</text>
<text text-anchor="start" x="272.1133" y="-44.2" font-family="Lato" font-size="12.00" fill="#1f78b4">⓿</text>
</g>
<!-- &#45;7&#45;&gt;1 -->
<g id="edge10" class="edge">
<title>&#45;7&#45;&gt;1</title>
<path fill="none" stroke="#000000" d="M189.8907,-53.8C194.3307,-53.8 206.0292,-53.8 219.5494,-53.8"/>
<polygon fill="#000000" stroke="#000000" points="226.7569,-53.8 219.7569,-56.9501 223.2569,-53.8 219.7569,-53.8001 219.7569,-53.8001 219.7569,-53.8001 223.2569,-53.8 219.7569,-50.6501 226.7569,-53.8 226.7569,-53.8"/>
</g>
<!-- 1&#45;&gt;3 -->
<g id="edge11" class="edge">
<title>1&#45;&gt;3</title>
<path fill="none" stroke="#000000" d="M322.5945,-67.3309C339.1477,-72.482 357.6772,-78.2482 372.9138,-82.9896"/>
<polygon fill="#000000" stroke="#000000" points="379.6637,-85.0901 372.0438,-86.0179 376.3218,-84.0501 372.9798,-83.0101 372.9798,-83.0101 372.9798,-83.0101 376.3218,-84.0501 373.9158,-80.0024 379.6637,-85.0901 379.6637,-85.0901"/>
<text text-anchor="start" x="349.4392" y="-82.2" font-family="Lato" font-size="12.00" fill="#000000">!a</text>
</g>
<!-- 1&#45;&gt;2 -->
<g id="edge12" class="edge">
<title>1&#45;&gt;2</title>
<path fill="none" stroke="#000000" d="M330.0882,-47.6989C343.6841,-46.0717 358.0411,-44.3533 370.4752,-42.8651"/>
<polygon fill="#000000" stroke="#000000" points="377.5537,-42.0179 370.9777,-45.9775 374.0785,-42.4339 370.6033,-42.8498 370.6033,-42.8498 370.6033,-42.8498 374.0785,-42.4339 370.2289,-39.7222 377.5537,-42.0179 377.5537,-42.0179"/>
<text text-anchor="start" x="350.9392" y="-49.2" font-family="Lato" font-size="12.00" fill="#000000">a</text>
</g>
<!-- 1&#45;&gt;1 -->
<g id="edge13" class="edge">
<title>1&#45;&gt;1</title>
<path fill="none" stroke="#000000" d="M266.1454,-77.1461C265.0837,-87.2181 269.4063,-95.8416 279.1133,-95.8416 286.3936,-95.8416 290.6452,-90.9909 291.868,-84.3164"/>
<polygon fill="#000000" stroke="#000000" points="292.0813,-77.1461 295.0217,-84.2367 291.9772,-80.6445 291.8731,-84.143 291.8731,-84.143 291.8731,-84.143 291.9772,-80.6445 288.7245,-84.0493 292.0813,-77.1461 292.0813,-77.1461"/>
<text text-anchor="start" x="275.6133" y="-99.2416" font-family="Lato" font-size="12.00" fill="#000000">1</text>
</g>
<!-- 4&#45;&gt;4 -->
<g id="edge16" class="edge">
<title>4&#45;&gt;4</title>
<path fill="none" stroke="#000000" d="M495.5792,-82.8373C493.7711,-92.6579 496.7244,-101.8 504.4392,-101.8 510.2254,-101.8 513.3332,-96.6576 513.7626,-89.9433"/>
<polygon fill="#000000" stroke="#000000" points="513.2993,-82.8373 516.8981,-89.6175 513.527,-86.3299 513.7548,-89.8225 513.7548,-89.8225 513.7548,-89.8225 513.527,-86.3299 510.6115,-90.0275 513.2993,-82.8373 513.2993,-82.8373"/>
<text text-anchor="start" x="500.9392" y="-105.2" font-family="Lato" font-size="12.00" fill="#000000">1</text>
</g>
</g>
</svg>
