<?xml version="1.0" encoding="UTF-8" standalone="no"?>
<?xml-stylesheet href="spot.css" type="text/css"?>
<!DOCTYPE svg PUBLIC "-//W3C//DTD SVG 1.1//EN"
 "http://www.w3.org/Graphics/SVG/1.1/DTD/svg11.dtd">
<!-- Generated by graphviz version 2.40.1 (20161225.0304)
 -->
<!-- Title: p0 | GFp1 Pages: 1 -->
<svg width="268pt" height="211pt"
 viewBox="0.00 0.00 268.00 211.40" xmlns="http://www.w3.org/2000/svg" xmlns:xlink="http://www.w3.org/1999/xlink">
<g id="graph0" class="graph" transform="scale(1 1) rotate(0) translate(4 207.4)">
<title>p0 | GFp1</title>
<polygon fill="#ffffff" stroke="transparent" points="-4,4 -4,-207.4 264,-207.4 264,4 -4,4"/>
<text text-anchor="start" x="111" y="-176.8" font-family="Lato" font-size="12.00" fill="#000000">[Büchi]</text>
<!-- I -->
<!-- 0 -->
<g id="node2" class="node">
<title>0</title>
<ellipse fill="#ffffa0" stroke="#000000" cx="56" cy="-68" rx="18" ry="18"/>
<text text-anchor="middle" x="56" y="-64.9" font-family="Lato" font-size="12.00" fill="#000000">0</text>
</g>
<!-- I&#45;&gt;0 -->
<g id="edge1" class="edge">
<title>I&#45;&gt;0</title>
<path fill="none" stroke="#000000" d="M1.1233,-68C4.178,-68 17.9448,-68 30.9241,-68"/>
<polygon fill="#000000" stroke="#000000" points="37.9807,-68 30.9808,-71.1501 34.4807,-68 30.9807,-68.0001 30.9807,-68.0001 30.9807,-68.0001 34.4807,-68 30.9807,-64.8501 37.9807,-68 37.9807,-68"/>
</g>
<!-- 1 -->
<g id="node3" class="node">
<title>1</title>
<ellipse fill="#ffffa0" stroke="#000000" cx="149" cy="-115" rx="18" ry="18"/>
<ellipse fill="none" stroke="#000000" cx="149" cy="-115" rx="22" ry="22"/>
<text text-anchor="middle" x="149" y="-111.9" font-family="Lato" font-size="12.00" fill="#000000">1</text>
</g>
<!-- 0&#45;&gt;1 -->
<g id="edge2" class="edge">
<title>0&#45;&gt;1</title>
<path fill="none" stroke="#000000" d="M72.1994,-76.1868C86.0423,-83.1827 106.2311,-93.3856 122.4355,-101.5749"/>
<polygon fill="#000000" stroke="#000000" points="129.1062,-104.9462 121.4379,-104.6001 125.9825,-103.3675 122.8587,-101.7888 122.8587,-101.7888 122.8587,-101.7888 125.9825,-103.3675 124.2795,-98.9774 129.1062,-104.9462 129.1062,-104.9462"/>
<text text-anchor="start" x="93.5" y="-97.4" font-family="Lato" font-size="12.00" fill="#000000">p0</text>
</g>
<!-- 2 -->
<g id="node4" class="node">
<title>2</title>
<ellipse fill="#ffffa0" stroke="#000000" cx="149" cy="-22" rx="18" ry="18"/>
<ellipse fill="none" stroke="#000000" cx="149" cy="-22" rx="22" ry="22"/>
<text text-anchor="middle" x="149" y="-18.9" font-family="Lato" font-size="12.00" fill="#000000">2</text>
</g>
<!-- 0&#45;&gt;2 -->
<g id="edge3" class="edge">
<title>0&#45;&gt;2</title>
<path fill="none" stroke="#000000" d="M72.1994,-59.9874C86.0423,-53.1404 106.2311,-43.1545 122.4355,-35.1394"/>
<polygon fill="#000000" stroke="#000000" points="129.1062,-31.8399 124.2284,-37.767 125.969,-33.3917 122.8318,-34.9435 122.8318,-34.9435 122.8318,-34.9435 125.969,-33.3917 121.4352,-32.12 129.1062,-31.8399 129.1062,-31.8399"/>
<text text-anchor="start" x="92" y="-52.4" font-family="Lato" font-size="12.00" fill="#000000">!p0</text>
</g>
<!-- 1&#45;&gt;1 -->
<g id="edge4" class="edge">
<title>1&#45;&gt;1</title>
<path fill="none" stroke="#000000" d="M140.2659,-135.5808C139.0574,-145.8447 141.9688,-155 149,-155 154.2734,-155 157.2294,-149.8502 157.868,-142.9451"/>
<polygon fill="#000000" stroke="#000000" points="157.7341,-135.5808 161.011,-142.5223 157.7978,-139.0802 157.8615,-142.5797 157.8615,-142.5797 157.8615,-142.5797 157.7978,-139.0802 154.712,-142.637 157.7341,-135.5808 157.7341,-135.5808"/>
<text text-anchor="middle" x="149" y="-158.4" font-family="Lato" font-size="12.00" fill="#000000">1</text>
</g>
<!-- 2&#45;&gt;2 -->
<g id="edge5" class="edge">
<title>2&#45;&gt;2</title>
<path fill="none" stroke="#000000" d="M140.2659,-42.5808C139.0574,-52.8447 141.9688,-62 149,-62 154.2734,-62 157.2294,-56.8502 157.868,-49.9451"/>
<polygon fill="#000000" stroke="#000000" points="157.7341,-42.5808 161.011,-49.5223 157.7978,-46.0802 157.8615,-49.5797 157.8615,-49.5797 157.8615,-49.5797 157.7978,-46.0802 154.712,-49.637 157.7341,-42.5808 157.7341,-42.5808"/>
<text text-anchor="start" x="142" y="-65.4" font-family="Lato" font-size="12.00" fill="#000000">p1</text>
</g>
<!-- 3 -->
<g id="node5" class="node">
<title>3</title>
<ellipse fill="#ffffa0" stroke="#000000" cx="242" cy="-22" rx="18" ry="18"/>
<text text-anchor="middle" x="242" y="-18.9" font-family="Lato" font-size="12.00" fill="#000000">3</text>
</g>
<!-- 2&#45;&gt;3 -->
<g id="edge6" class="edge">
<title>2&#45;&gt;3</title>
<path fill="none" stroke="#000000" d="M171.0397,-22C184.7618,-22 202.4568,-22 216.7438,-22"/>
<polygon fill="#000000" stroke="#000000" points="223.8652,-22 216.8652,-25.1501 220.3652,-22 216.8652,-22.0001 216.8652,-22.0001 216.8652,-22.0001 220.3652,-22 216.8651,-18.8501 223.8652,-22 223.8652,-22"/>
<text text-anchor="start" x="189" y="-25.4" font-family="Lato" font-size="12.00" fill="#000000">!p1</text>
</g>
<!-- 3&#45;&gt;2 -->
<g id="edge7" class="edge">
<title>3&#45;&gt;2</title>
<path fill="none" stroke="#000000" d="M226.4151,-12.8008C220.2707,-9.6734 213.0141,-6.5728 206,-5 195.7835,-2.7091 184.7186,-4.8995 175.0798,-8.3808"/>
<polygon fill="#000000" stroke="#000000" points="168.3459,-11.0983 173.6584,-5.5575 171.5916,-9.7885 174.8372,-8.4786 174.8372,-8.4786 174.8372,-8.4786 171.5916,-9.7885 176.0161,-11.3998 168.3459,-11.0983 168.3459,-11.0983"/>
<text text-anchor="start" x="190.5" y="-8.4" font-family="Lato" font-size="12.00" fill="#000000">p1</text>
</g>
<!-- 3&#45;&gt;3 -->
<g id="edge8" class="edge">
<title>3&#45;&gt;3</title>
<path fill="none" stroke="#000000" d="M234.3321,-38.2903C232.4831,-48.3892 235.0391,-58 242,-58 247.2207,-58 249.9636,-52.5939 250.2287,-45.6304"/>
<polygon fill="#000000" stroke="#000000" points="249.6679,-38.2903 253.3421,-45.0299 249.9346,-41.7801 250.2013,-45.2699 250.2013,-45.2699 250.2013,-45.2699 249.9346,-41.7801 247.0604,-45.5099 249.6679,-38.2903 249.6679,-38.2903"/>
<text text-anchor="start" x="233.5" y="-61.4" font-family="Lato" font-size="12.00" fill="#000000">!p1</text>
</g>
</g>
</svg>
