<?xml version="1.0" encoding="UTF-8" standalone="no"?>
<?xml-stylesheet href="spot.css" type="text/css"?>
<!DOCTYPE svg PUBLIC "-//W3C//DTD SVG 1.1//EN"
 "http://www.w3.org/Graphics/SVG/1.1/DTD/svg11.dtd">
<!-- Generated by graphviz version 2.40.1 (20161225.0304)
 -->
<!-- Title: p0 | GFp1 Pages: 1 -->
<svg width="171pt" height="249pt"
 viewBox="0.00 0.00 171.00 249.00" xmlns="http://www.w3.org/2000/svg" xmlns:xlink="http://www.w3.org/1999/xlink">
<g id="graph0" class="graph" transform="scale(1 1) rotate(0) translate(4 245)">
<title>p0 | GFp1</title>
<polygon fill="#ffffff" stroke="transparent" points="-4,4 -4,-245 167,-245 167,4 -4,4"/>
<text text-anchor="start" x="63.5" y="-228.4" font-family="Lato" font-size="12.00" fill="#000000">Inf(</text>
<text text-anchor="start" x="81.5" y="-228.4" font-family="Lato" font-size="12.00" fill="#1f78b4">⓿</text>
<text text-anchor="start" x="95.5" y="-228.4" font-family="Lato" font-size="12.00" fill="#000000">)</text>
<text text-anchor="start" x="62.5" y="-216.4" font-family="Lato" font-size="12.00" fill="#000000">[Büchi]</text>
<!-- I -->
<!-- 0 -->
<g id="node2" class="node">
<title>0</title>
<ellipse fill="#ffffa0" stroke="#000000" cx="56" cy="-82" rx="18" ry="18"/>
<text text-anchor="middle" x="56" y="-78.9" font-family="Lato" font-size="12.00" fill="#000000">0</text>
</g>
<!-- I&#45;&gt;0 -->
<g id="edge1" class="edge">
<title>I&#45;&gt;0</title>
<path fill="none" stroke="#000000" d="M1.1233,-82C4.178,-82 17.9448,-82 30.9241,-82"/>
<polygon fill="#000000" stroke="#000000" points="37.9807,-82 30.9808,-85.1501 34.4807,-82 30.9807,-82.0001 30.9807,-82.0001 30.9807,-82.0001 34.4807,-82 30.9807,-78.8501 37.9807,-82 37.9807,-82"/>
</g>
<!-- 1 -->
<g id="node3" class="node">
<title>1</title>
<ellipse fill="#ffffa0" stroke="#000000" cx="145" cy="-147" rx="18" ry="18"/>
<text text-anchor="middle" x="145" y="-143.9" font-family="Lato" font-size="12.00" fill="#000000">1</text>
</g>
<!-- 0&#45;&gt;1 -->
<g id="edge2" class="edge">
<title>0&#45;&gt;1</title>
<path fill="none" stroke="#000000" d="M70.6965,-92.7334C85.3832,-103.4596 108.0855,-120.04 124.5319,-132.0514"/>
<polygon fill="#000000" stroke="#000000" points="130.2816,-136.2506 122.7709,-134.6659 127.4552,-134.1863 124.6287,-132.1221 124.6287,-132.1221 124.6287,-132.1221 127.4552,-134.1863 126.4866,-129.5782 130.2816,-136.2506 130.2816,-136.2506"/>
<text text-anchor="start" x="93.5" y="-123.4" font-family="Lato" font-size="12.00" fill="#000000">p0</text>
</g>
<!-- 2 -->
<g id="node4" class="node">
<title>2</title>
<ellipse fill="#ffffa0" stroke="#000000" cx="145" cy="-18" rx="18" ry="18"/>
<text text-anchor="middle" x="145" y="-14.9" font-family="Lato" font-size="12.00" fill="#000000">2</text>
</g>
<!-- 0&#45;&gt;2 -->
<g id="edge3" class="edge">
<title>0&#45;&gt;2</title>
<path fill="none" stroke="#000000" d="M70.6965,-71.4317C85.3832,-60.8705 108.0855,-44.5452 124.5319,-32.7186"/>
<polygon fill="#000000" stroke="#000000" points="130.2816,-28.584 126.4375,-35.2282 127.44,-30.6274 124.5984,-32.6708 124.5984,-32.6708 124.5984,-32.6708 127.44,-30.6274 122.7594,-30.1134 130.2816,-28.584 130.2816,-28.584"/>
<text text-anchor="start" x="92" y="-58.4" font-family="Lato" font-size="12.00" fill="#000000">!p0</text>
</g>
<!-- 1&#45;&gt;1 -->
<g id="edge4" class="edge">
<title>1&#45;&gt;1</title>
<path fill="none" stroke="#000000" d="M137.3321,-163.2903C135.4831,-173.3892 138.0391,-183 145,-183 150.2207,-183 152.9636,-177.5939 153.2287,-170.6304"/>
<polygon fill="#000000" stroke="#000000" points="152.6679,-163.2903 156.3421,-170.0299 152.9346,-166.7801 153.2013,-170.2699 153.2013,-170.2699 153.2013,-170.2699 152.9346,-166.7801 150.0604,-170.5099 152.6679,-163.2903 152.6679,-163.2903"/>
<text text-anchor="start" x="141.5" y="-199.4" font-family="Lato" font-size="12.00" fill="#000000">1</text>
<text text-anchor="start" x="138" y="-186.4" font-family="Lato" font-size="12.00" fill="#1f78b4">⓿</text>
</g>
<!-- 2&#45;&gt;2 -->
<g id="edge5" class="edge">
<title>2&#45;&gt;2</title>
<path fill="none" stroke="#000000" d="M141.0452,-35.7817C140.3731,-45.3149 141.6914,-54 145,-54 147.4297,-54 148.7861,-49.3161 149.0691,-43.0521"/>
<polygon fill="#000000" stroke="#000000" points="148.9548,-35.7817 152.2145,-42.7313 149.0098,-39.2813 149.0649,-42.7809 149.0649,-42.7809 149.0649,-42.7809 149.0098,-39.2813 145.9153,-42.8304 148.9548,-35.7817 148.9548,-35.7817"/>
<text text-anchor="start" x="136.5" y="-57.4" font-family="Lato" font-size="12.00" fill="#000000">!p1</text>
</g>
<!-- 2&#45;&gt;2 -->
<g id="edge6" class="edge">
<title>2&#45;&gt;2</title>
<path fill="none" stroke="#000000" d="M138.6237,-34.8636C134.7535,-52.3779 136.8789,-72 145,-72 152.0425,-72 154.5762,-57.2439 152.6011,-41.9026"/>
<polygon fill="#000000" stroke="#000000" points="151.3763,-34.8636 155.6797,-41.22 151.9763,-38.3118 152.5764,-41.76 152.5764,-41.76 152.5764,-41.76 151.9763,-38.3118 149.473,-42.3 151.3763,-34.8636 151.3763,-34.8636"/>
<text text-anchor="start" x="138" y="-88.4" font-family="Lato" font-size="12.00" fill="#000000">p1</text>
<text text-anchor="start" x="138" y="-75.4" font-family="Lato" font-size="12.00" fill="#1f78b4">⓿</text>
</g>
</g>
</svg>
