<?xml version="1.0" encoding="UTF-8" standalone="no"?>
<?xml-stylesheet href="spot.css" type="text/css"?>
<!DOCTYPE svg PUBLIC "-//W3C//DTD SVG 1.1//EN"
 "http://www.w3.org/Graphics/SVG/1.1/DTD/svg11.dtd">
<!-- Generated by graphviz version 2.40.1 (20161225.0304)
 -->
<!-- Title: | G F a F G b Pages: 1 -->
<svg width="474pt" height="269pt"
 viewBox="0.00 0.00 473.62 268.93" xmlns="http://www.w3.org/2000/svg" xmlns:xlink="http://www.w3.org/1999/xlink">
<g id="graph0" class="graph" transform="scale(1 1) rotate(0) translate(4 264.9277)">
<title>| G F a F G b</title>
<polygon fill="#ffffff" stroke="transparent" points="-4,4 -4,-264.9277 469.6173,-264.9277 469.6173,4 -4,4"/>
<text text-anchor="start" x="135.8087" y="-248.3277" font-family="Lato" font-size="12.00" fill="#000000">(Fin(</text>
<text text-anchor="start" x="158.8087" y="-248.3277" font-family="Lato" font-size="12.00" fill="#1f78b4">⓿</text>
<text text-anchor="start" x="172.8087" y="-248.3277" font-family="Lato" font-size="12.00" fill="#000000">) &amp; Inf(</text>
<text text-anchor="start" x="207.8087" y="-248.3277" font-family="Lato" font-size="12.00" fill="#ff4da0">❶</text>
<text text-anchor="start" x="221.8087" y="-248.3277" font-family="Lato" font-size="12.00" fill="#000000">)) | (Fin(</text>
<text text-anchor="start" x="259.8087" y="-248.3277" font-family="Lato" font-size="12.00" fill="#ff7f00">❷</text>
<text text-anchor="start" x="273.8087" y="-248.3277" font-family="Lato" font-size="12.00" fill="#000000">) &amp; Inf(</text>
<text text-anchor="start" x="308.8087" y="-248.3277" font-family="Lato" font-size="12.00" fill="#6a3d9a">❸</text>
<text text-anchor="start" x="322.8087" y="-248.3277" font-family="Lato" font-size="12.00" fill="#000000">))</text>
<text text-anchor="start" x="208.8087" y="-236.3277" font-family="Lato" font-size="12.00" fill="#000000">[Rabin 2]</text>
<!-- I -->
<!-- 0 -->
<g id="node2" class="node">
<title>0</title>
<ellipse fill="#ffffa0" stroke="#000000" cx="62.0416" cy="-53.9277" rx="24.0833" ry="24.0833"/>
<text text-anchor="start" x="58.5416" y="-57.3277" font-family="Lato" font-size="12.00" fill="#000000">0</text>
<text text-anchor="start" x="55.0416" y="-44.3277" font-family="Lato" font-size="12.00" fill="#ff7f00">❷</text>
</g>
<!-- I&#45;&gt;0 -->
<g id="edge1" class="edge">
<title>I&#45;&gt;0</title>
<path fill="none" stroke="#000000" d="M1.1911,-53.9277C4.2886,-53.9277 17.3195,-53.9277 30.5321,-53.9277"/>
<polygon fill="#000000" stroke="#000000" points="37.8292,-53.9277 30.8292,-57.0778 34.3292,-53.9277 30.8292,-53.9278 30.8292,-53.9278 30.8292,-53.9278 34.3292,-53.9277 30.8291,-50.7778 37.8292,-53.9277 37.8292,-53.9277"/>
</g>
<!-- 0&#45;&gt;0 -->
<g id="edge2" class="edge">
<title>0&#45;&gt;0</title>
<path fill="none" stroke="#000000" d="M54.2897,-76.8473C53.5514,-87.1011 56.1354,-95.9693 62.0416,-95.9693 66.4713,-95.9693 69.0322,-90.9809 69.7244,-84.161"/>
<polygon fill="#000000" stroke="#000000" points="69.7936,-76.8473 72.8771,-83.8769 69.7604,-80.3472 69.7272,-83.847 69.7272,-83.847 69.7272,-83.847 69.7604,-80.3472 66.5774,-83.8172 69.7936,-76.8473 69.7936,-76.8473"/>
<text text-anchor="start" x="45.0416" y="-99.3693" font-family="Lato" font-size="12.00" fill="#000000">!a &amp; !b</text>
</g>
<!-- 1 -->
<g id="node3" class="node">
<title>1</title>
<ellipse fill="#ffffa0" stroke="#000000" cx="187.196" cy="-147.9277" rx="31.2258" ry="31.2258"/>
<text text-anchor="start" x="183.696" y="-151.3277" font-family="Lato" font-size="12.00" fill="#000000">1</text>
<text text-anchor="start" x="173.196" y="-139.3277" font-family="Lato" font-size="12.00" fill="#ff4da0">❶</text>
<text text-anchor="start" x="187.196" y="-139.3277" font-family="Lato" font-size="12.00" fill="#ff7f00">❷</text>
</g>
<!-- 0&#45;&gt;1 -->
<g id="edge3" class="edge">
<title>0&#45;&gt;1</title>
<path fill="none" stroke="#000000" d="M70.0387,-76.9793C76.7377,-92.9808 87.842,-113.5674 104.0833,-125.9277 116.8426,-135.638 133.5282,-141.0728 148.5984,-144.1105"/>
<polygon fill="#000000" stroke="#000000" points="155.8424,-145.4174 148.3943,-147.2744 152.398,-144.7959 148.9536,-144.1745 148.9536,-144.1745 148.9536,-144.1745 152.398,-144.7959 149.5129,-141.0745 155.8424,-145.4174 155.8424,-145.4174"/>
<text text-anchor="start" x="105.5833" y="-144.3277" font-family="Lato" font-size="12.00" fill="#000000">a &amp; !b</text>
</g>
<!-- 2 -->
<g id="node4" class="node">
<title>2</title>
<ellipse fill="#ffffa0" stroke="#000000" cx="441.5757" cy="-77.9277" rx="24.0833" ry="24.0833"/>
<text text-anchor="start" x="438.0757" y="-81.3277" font-family="Lato" font-size="12.00" fill="#000000">2</text>
<text text-anchor="start" x="434.5757" y="-68.3277" font-family="Lato" font-size="12.00" fill="#6a3d9a">❸</text>
</g>
<!-- 0&#45;&gt;2 -->
<g id="edge4" class="edge">
<title>0&#45;&gt;2</title>
<path fill="none" stroke="#000000" d="M84.399,-44.6339C90.6665,-42.3926 97.5536,-40.262 104.0833,-38.9277 211.4002,-16.998 243.417,-15.0417 350.5341,-37.9277 373.0765,-42.7439 378.4607,-45.5858 399.5341,-54.9277 404.3448,-57.0603 409.3447,-59.5431 414.1467,-62.0729"/>
<polygon fill="#000000" stroke="#000000" points="420.5358,-65.5232 412.8797,-64.9686 417.4562,-63.8601 414.3765,-62.1969 414.3765,-62.1969 414.3765,-62.1969 417.4562,-63.8601 415.8733,-59.4253 420.5358,-65.5232 420.5358,-65.5232"/>
<text text-anchor="start" x="237.8087" y="-26.3277" font-family="Lato" font-size="12.00" fill="#000000">!a &amp; b</text>
</g>
<!-- 3 -->
<g id="node5" class="node">
<title>3</title>
<ellipse fill="#ffffa0" stroke="#000000" cx="319.4214" cy="-77.9277" rx="31.2258" ry="31.2258"/>
<text text-anchor="start" x="315.9214" y="-81.3277" font-family="Lato" font-size="12.00" fill="#000000">3</text>
<text text-anchor="start" x="305.4214" y="-69.3277" font-family="Lato" font-size="12.00" fill="#ff4da0">❶</text>
<text text-anchor="start" x="319.4214" y="-69.3277" font-family="Lato" font-size="12.00" fill="#6a3d9a">❸</text>
</g>
<!-- 0&#45;&gt;3 -->
<g id="edge5" class="edge">
<title>0&#45;&gt;3</title>
<path fill="none" stroke="#000000" d="M86.2553,-56.1855C131.0743,-60.3648 227.2845,-69.3361 281.0563,-74.3502"/>
<polygon fill="#000000" stroke="#000000" points="288.3523,-75.0305 281.0901,-77.5169 284.8675,-74.7055 281.3826,-74.3805 281.3826,-74.3805 281.3826,-74.3805 284.8675,-74.7055 281.6751,-71.2442 288.3523,-75.0305 288.3523,-75.0305"/>
<text text-anchor="start" x="173.196" y="-71.3277" font-family="Lato" font-size="12.00" fill="#000000">a &amp; b</text>
</g>
<!-- 1&#45;&gt;0 -->
<g id="edge6" class="edge">
<title>1&#45;&gt;0</title>
<path fill="none" stroke="#000000" d="M163.2998,-127.6852C155.4657,-121.3964 146.5855,-114.6248 138.0833,-108.9277 123.7027,-99.2916 118.2831,-99.8282 104.0833,-89.9277 97.6862,-85.4674 91.1199,-80.2172 85.1346,-75.126"/>
<polygon fill="#000000" stroke="#000000" points="79.8228,-70.5224 87.1757,-72.7265 82.4677,-72.8147 85.1126,-75.107 85.1126,-75.107 85.1126,-75.107 82.4677,-72.8147 83.0496,-77.4874 79.8228,-70.5224 79.8228,-70.5224"/>
<text text-anchor="start" x="104.0833" y="-112.3277" font-family="Lato" font-size="12.00" fill="#000000">!a &amp; !b</text>
</g>
<!-- 1&#45;&gt;1 -->
<g id="edge7" class="edge">
<title>1&#45;&gt;1</title>
<path fill="none" stroke="#000000" d="M174.8693,-176.6821C174.3214,-187.7997 178.4303,-197.0404 187.196,-197.0404 193.9071,-197.0404 197.8886,-191.6237 199.1404,-184.0951"/>
<polygon fill="#000000" stroke="#000000" points="199.5226,-176.6821 202.3079,-183.8351 199.3424,-180.1775 199.1621,-183.6729 199.1621,-183.6729 199.1621,-183.6729 199.3424,-180.1775 196.0163,-183.5106 199.5226,-176.6821 199.5226,-176.6821"/>
<text text-anchor="start" x="171.696" y="-200.4404" font-family="Lato" font-size="12.00" fill="#000000">a &amp; !b</text>
</g>
<!-- 1&#45;&gt;2 -->
<g id="edge8" class="edge">
<title>1&#45;&gt;2</title>
<path fill="none" stroke="#000000" d="M208.0865,-171.0428C216.1297,-178.4147 225.9005,-185.7396 236.3087,-189.9277 303.6092,-217.0083 341.1918,-233.0426 399.5341,-189.9277 413.0259,-179.9572 426.2317,-137.9693 434.1397,-108.3437"/>
<polygon fill="#000000" stroke="#000000" points="435.9369,-101.4798 437.211,-109.0494 435.0503,-104.8657 434.1637,-108.2515 434.1637,-108.2515 434.1637,-108.2515 435.0503,-104.8657 431.1165,-107.4536 435.9369,-101.4798 435.9369,-101.4798"/>
<text text-anchor="start" x="303.9214" y="-219.3277" font-family="Lato" font-size="12.00" fill="#000000">!a &amp; b</text>
</g>
<!-- 1&#45;&gt;3 -->
<g id="edge9" class="edge">
<title>1&#45;&gt;3</title>
<path fill="none" stroke="#000000" d="M218.258,-143.6231C234.5327,-140.4246 254.343,-134.9919 270.3087,-125.9277 278.9012,-121.0494 287.0775,-114.2992 294.2065,-107.4002"/>
<polygon fill="#000000" stroke="#000000" points="299.4436,-102.1241 296.7479,-109.3113 296.9779,-104.6082 294.5122,-107.0922 294.5122,-107.0922 294.5122,-107.0922 296.9779,-104.6082 292.2766,-104.8731 299.4436,-102.1241 299.4436,-102.1241"/>
<text text-anchor="start" x="239.3087" y="-142.3277" font-family="Lato" font-size="12.00" fill="#000000">a &amp; b</text>
</g>
<!-- 2&#45;&gt;0 -->
<g id="edge10" class="edge">
<title>2&#45;&gt;0</title>
<path fill="none" stroke="#000000" d="M425.8312,-59.6861C418.4815,-52.0893 409.2233,-43.7103 399.5341,-37.9277 348.5374,-7.4926 329.3356,-10.4682 270.3087,-3.9277 196.1187,4.2931 173.3702,-.1599 104.0833,-27.9277 98.7062,-30.0826 93.2419,-32.9087 88.1101,-35.9023"/>
<polygon fill="#000000" stroke="#000000" points="81.8193,-39.7458 86.1503,-33.4082 84.806,-37.921 87.7926,-36.0962 87.7926,-36.0962 87.7926,-36.0962 84.806,-37.921 89.435,-38.7842 81.8193,-39.7458 81.8193,-39.7458"/>
<text text-anchor="start" x="236.3087" y="-7.3277" font-family="Lato" font-size="12.00" fill="#000000">!a &amp; !b</text>
</g>
<!-- 2&#45;&gt;1 -->
<g id="edge11" class="edge">
<title>2&#45;&gt;1</title>
<path fill="none" stroke="#000000" d="M425.0428,-95.7596C408.13,-112.6999 380.193,-137.2638 350.5341,-148.9277 309.7583,-164.9634 258.7029,-161.278 224.6302,-155.8355"/>
<polygon fill="#000000" stroke="#000000" points="217.627,-154.654 225.0536,-152.7125 221.0783,-155.2363 224.5295,-155.8186 224.5295,-155.8186 224.5295,-155.8186 221.0783,-155.2363 224.0054,-158.9247 217.627,-154.654 217.627,-154.654"/>
<text text-anchor="start" x="303.9214" y="-163.3277" font-family="Lato" font-size="12.00" fill="#000000">a &amp; !b</text>
</g>
<!-- 2&#45;&gt;2 -->
<g id="edge12" class="edge">
<title>2&#45;&gt;2</title>
<path fill="none" stroke="#000000" d="M431.332,-99.9898C430.0674,-110.6016 433.4819,-119.9693 441.5757,-119.9693 447.7725,-119.9693 451.2264,-114.4781 451.9374,-107.1416"/>
<polygon fill="#000000" stroke="#000000" points="451.8193,-99.9898 455.0846,-106.9368 451.8772,-103.4893 451.935,-106.9888 451.935,-106.9888 451.935,-106.9888 451.8772,-103.4893 448.7854,-107.0409 451.8193,-99.9898 451.8193,-99.9898"/>
<text text-anchor="start" x="426.0757" y="-123.3693" font-family="Lato" font-size="12.00" fill="#000000">!a &amp; b</text>
</g>
<!-- 2&#45;&gt;3 -->
<g id="edge13" class="edge">
<title>2&#45;&gt;3</title>
<path fill="none" stroke="#000000" d="M417.4294,-77.9277C400.3644,-77.9277 377.1408,-77.9277 357.5834,-77.9277"/>
<polygon fill="#000000" stroke="#000000" points="350.5621,-77.9277 357.5622,-74.7778 354.0621,-77.9277 357.5621,-77.9278 357.5621,-77.9278 357.5621,-77.9278 354.0621,-77.9277 357.5621,-81.0778 350.5621,-77.9277 350.5621,-77.9277"/>
<text text-anchor="start" x="370.0341" y="-81.3277" font-family="Lato" font-size="12.00" fill="#000000">a &amp; b</text>
</g>
<!-- 3&#45;&gt;0 -->
<g id="edge14" class="edge">
<title>3&#45;&gt;0</title>
<path fill="none" stroke="#000000" d="M290.3838,-65.741C270.4936,-58.073 243.2924,-48.9015 218.3087,-44.9277 175.2018,-38.0713 124.6702,-43.3618 93.0009,-48.2556"/>
<polygon fill="#000000" stroke="#000000" points="85.7615,-49.4185 92.1733,-45.1981 89.2172,-48.8634 92.6729,-48.3083 92.6729,-48.3083 92.6729,-48.3083 89.2172,-48.8634 93.1725,-51.4184 85.7615,-49.4185 85.7615,-49.4185"/>
<text text-anchor="start" x="170.196" y="-48.3277" font-family="Lato" font-size="12.00" fill="#000000">!a &amp; !b</text>
</g>
<!-- 3&#45;&gt;1 -->
<g id="edge15" class="edge">
<title>3&#45;&gt;1</title>
<path fill="none" stroke="#000000" d="M289.1805,-86.6644C272.9563,-91.9709 252.9369,-99.5375 236.3087,-108.9277 229.4856,-112.7807 222.6173,-117.5497 216.2685,-122.415"/>
<polygon fill="#000000" stroke="#000000" points="210.6001,-126.8868 214.1448,-120.0781 213.348,-124.719 216.0959,-122.5511 216.0959,-122.5511 216.0959,-122.5511 213.348,-124.719 218.0469,-125.0242 210.6001,-126.8868 210.6001,-126.8868"/>
<text text-anchor="start" x="237.8087" y="-112.3277" font-family="Lato" font-size="12.00" fill="#000000">a &amp; !b</text>
</g>
<!-- 3&#45;&gt;2 -->
<g id="edge16" class="edge">
<title>3&#45;&gt;2</title>
<path fill="none" stroke="#000000" d="M348.3499,-66.1332C354.882,-63.9738 361.8606,-62.05 368.5341,-60.9277 382.121,-58.6426 386.0098,-58.2968 399.5341,-60.9277 403.9971,-61.7958 408.586,-63.1374 413.0168,-64.6947"/>
<polygon fill="#000000" stroke="#000000" points="419.8087,-67.2822 412.1458,-67.7337 416.538,-66.0361 413.2673,-64.7901 413.2673,-64.7901 413.2673,-64.7901 416.538,-66.0361 414.3888,-61.8464 419.8087,-67.2822 419.8087,-67.2822"/>
<text text-anchor="start" x="368.5341" y="-64.3277" font-family="Lato" font-size="12.00" fill="#000000">!a &amp; b</text>
</g>
<!-- 3&#45;&gt;3 -->
<g id="edge17" class="edge">
<title>3&#45;&gt;3</title>
<path fill="none" stroke="#000000" d="M307.4682,-106.6821C306.937,-117.7997 310.9214,-127.0404 319.4214,-127.0404 325.9292,-127.0404 329.79,-121.6237 331.0039,-114.0951"/>
<polygon fill="#000000" stroke="#000000" points="331.3745,-106.6821 334.1709,-113.8307 331.1997,-110.1778 331.0249,-113.6734 331.0249,-113.6734 331.0249,-113.6734 331.1997,-110.1778 327.8788,-113.5161 331.3745,-106.6821 331.3745,-106.6821"/>
<text text-anchor="start" x="305.4214" y="-130.4404" font-family="Lato" font-size="12.00" fill="#000000">a &amp; b</text>
</g>
</g>
</svg>
