<?xml version="1.0" encoding="UTF-8" standalone="no"?>
<?xml-stylesheet href="spot.css" type="text/css"?>
<!DOCTYPE svg PUBLIC "-//W3C//DTD SVG 1.1//EN"
 "http://www.w3.org/Graphics/SVG/1.1/DTD/svg11.dtd">
<!-- Generated by graphviz version 2.40.1 (20161225.0304)
 -->
<!-- Pages: 1 -->
<svg width="185pt" height="133pt"
 viewBox="0.00 0.00 185.00 133.26" xmlns="http://www.w3.org/2000/svg" xmlns:xlink="http://www.w3.org/1999/xlink">
<g id="graph0" class="graph" transform="scale(1 1) rotate(0) translate(4 129.2618)">
<polygon fill="#ffffff" stroke="transparent" points="-4,4 -4,-129.2618 181,-129.2618 181,4 -4,4"/>
<!-- I -->
<!-- 0 -->
<g id="node2" class="node">
<title>0</title>
<ellipse fill="#ffffa0" stroke="#000000" cx="56" cy="-45.2618" rx="18" ry="18"/>
<text text-anchor="middle" x="56" y="-42.1618" font-family="Lato" font-size="12.00" fill="#000000">0</text>
</g>
<!-- I&#45;&gt;0 -->
<g id="edge1" class="edge">
<title>I&#45;&gt;0</title>
<path fill="none" stroke="#000000" d="M1.1233,-45.2618C4.178,-45.2618 17.9448,-45.2618 30.9241,-45.2618"/>
<polygon fill="#000000" stroke="#000000" points="37.9807,-45.2618 30.9808,-48.4119 34.4807,-45.2618 30.9807,-45.2619 30.9807,-45.2619 30.9807,-45.2619 34.4807,-45.2618 30.9807,-42.1119 37.9807,-45.2618 37.9807,-45.2618"/>
</g>
<!-- 0&#45;&gt;0 -->
<g id="edge2" class="edge">
<title>0&#45;&gt;0</title>
<path fill="none" stroke="#000000" d="M52.7643,-63.0435C52.2144,-72.5767 53.293,-81.2618 56,-81.2618 57.988,-81.2618 59.0977,-76.5779 59.3292,-70.3139"/>
<polygon fill="#000000" stroke="#000000" points="59.2357,-63.0435 62.4756,-70.0024 59.2808,-66.5432 59.3258,-70.0429 59.3258,-70.0429 59.3258,-70.0429 59.2808,-66.5432 56.1761,-70.0835 59.2357,-63.0435 59.2357,-63.0435"/>
<text text-anchor="start" x="39" y="-84.6618" font-family="Lato" font-size="12.00" fill="#000000">!a &amp; !b</text>
</g>
<!-- 0&#45;&gt;0 -->
<g id="edge3" class="edge">
<title>0&#45;&gt;0</title>
<path fill="none" stroke="#000000" d="M50.6841,-62.6821C47.6538,-80.0527 49.4258,-99.2618 56,-99.2618 61.7011,-99.2618 63.7908,-84.8163 62.2691,-69.6512"/>
<polygon fill="#000000" stroke="#000000" points="61.3159,-62.6821 65.3856,-69.1906 61.7902,-66.1498 62.2646,-69.6175 62.2646,-69.6175 62.2646,-69.6175 61.7902,-66.1498 59.1437,-70.0444 61.3159,-62.6821 61.3159,-62.6821"/>
<text text-anchor="start" x="40.5" y="-102.6618" font-family="Lato" font-size="12.00" fill="#000000">a &amp; !b</text>
</g>
<!-- 1 -->
<g id="node3" class="node">
<title>1</title>
<ellipse fill="#ffffa0" stroke="#000000" cx="159" cy="-45.2618" rx="18" ry="18"/>
<text text-anchor="middle" x="159" y="-42.1618" font-family="Lato" font-size="12.00" fill="#000000">1</text>
</g>
<!-- 0&#45;&gt;1 -->
<g id="edge4" class="edge">
<title>0&#45;&gt;1</title>
<path fill="none" stroke="#000000" d="M63.0163,-62.057C68.8835,-73.7106 78.4814,-88.3371 92,-95.2618 104.2626,-101.5431 110.7374,-101.5431 123,-95.2618 134.1951,-89.5273 142.7014,-78.5109 148.6268,-68.2751"/>
<polygon fill="#000000" stroke="#000000" points="151.9837,-62.057 151.4302,-69.7132 150.321,-65.1369 148.6583,-68.2167 148.6583,-68.2167 148.6583,-68.2167 150.321,-65.1369 145.8865,-66.7203 151.9837,-62.057 151.9837,-62.057"/>
<text text-anchor="start" x="92" y="-102.6618" font-family="Lato" font-size="12.00" fill="#000000">!a &amp; b</text>
</g>
<!-- 0&#45;&gt;1 -->
<g id="edge5" class="edge">
<title>0&#45;&gt;1</title>
<path fill="none" stroke="#000000" d="M72.4696,-53.1446C78.4741,-55.6186 85.409,-58.0253 92,-59.2618 105.5415,-61.8022 109.4585,-61.8022 123,-59.2618 127.2224,-58.4697 131.5859,-57.1973 135.7555,-55.7346"/>
<polygon fill="#000000" stroke="#000000" points="142.5304,-53.1446 137.1168,-58.5866 139.2612,-54.3944 135.9919,-55.6443 135.9919,-55.6443 135.9919,-55.6443 139.2612,-54.3944 134.8671,-52.702 142.5304,-53.1446 142.5304,-53.1446"/>
<text text-anchor="start" x="93.5" y="-63.6618" font-family="Lato" font-size="12.00" fill="#000000">a &amp; b</text>
</g>
<!-- 1&#45;&gt;0 -->
<g id="edge7" class="edge">
<title>1&#45;&gt;0</title>
<path fill="none" stroke="#000000" d="M141.0731,-43.4725C135.3086,-42.9764 128.8903,-42.5068 123,-42.2618 109.2341,-41.6892 105.7659,-41.6892 92,-42.2618 88.4106,-42.4111 84.6251,-42.6438 80.911,-42.9151"/>
<polygon fill="#000000" stroke="#000000" points="73.9269,-43.4725 80.654,-39.7755 77.4158,-43.194 80.9047,-42.9155 80.9047,-42.9155 80.9047,-42.9155 77.4158,-43.194 81.1554,-46.0555 73.9269,-43.4725 73.9269,-43.4725"/>
<text text-anchor="start" x="92" y="-45.6618" font-family="Lato" font-size="12.00" fill="#000000">a &amp; !b</text>
</g>
<!-- 1&#45;&gt;0 -->
<g id="edge8" class="edge">
<title>1&#45;&gt;0</title>
<path fill="none" stroke="#000000" d="M144.3795,-34.3658C138.1296,-30.3574 130.5437,-26.3012 123,-24.2618 109.6997,-20.6661 105.3003,-20.6661 92,-24.2618 86.8137,-25.6639 81.6075,-28.0192 76.8291,-30.6569"/>
<polygon fill="#000000" stroke="#000000" points="70.6205,-34.3658 75.0145,-28.0717 73.6252,-32.5708 76.6299,-30.7759 76.6299,-30.7759 76.6299,-30.7759 73.6252,-32.5708 78.2454,-33.4801 70.6205,-34.3658 70.6205,-34.3658"/>
<text text-anchor="start" x="92" y="-27.6618" font-family="Lato" font-size="12.00" fill="#000000">!a &amp; b</text>
</g>
<!-- 1&#45;&gt;0 -->
<g id="edge9" class="edge">
<title>1&#45;&gt;0</title>
<path fill="none" stroke="#000000" d="M149.861,-29.3522C143.6061,-20.1582 134.3908,-9.4187 123,-4.2618 110.4486,1.4206 104.5514,1.4206 92,-4.2618 82.923,-8.3712 75.2274,-16.0256 69.3104,-23.618"/>
<polygon fill="#000000" stroke="#000000" points="65.139,-29.3522 66.7097,-21.8384 67.198,-26.5218 69.257,-23.6915 69.257,-23.6915 69.257,-23.6915 67.198,-26.5218 71.8043,-25.5446 65.139,-29.3522 65.139,-29.3522"/>
<text text-anchor="start" x="93.5" y="-7.6618" font-family="Lato" font-size="12.00" fill="#000000">a &amp; b</text>
</g>
<!-- 1&#45;&gt;1 -->
<g id="edge6" class="edge">
<title>1&#45;&gt;1</title>
<path fill="none" stroke="#000000" d="M150.3666,-61.1778C148.1144,-71.4122 150.9922,-81.2618 159,-81.2618 165.131,-81.2618 168.2548,-75.4881 168.3716,-68.1886"/>
<polygon fill="#000000" stroke="#000000" points="167.6334,-61.1778 171.4992,-67.8095 168,-64.6586 168.3665,-68.1393 168.3665,-68.1393 168.3665,-68.1393 168,-64.6586 165.2338,-68.4692 167.6334,-61.1778 167.6334,-61.1778"/>
<text text-anchor="start" x="142" y="-84.6618" font-family="Lato" font-size="12.00" fill="#000000">!a &amp; !b</text>
</g>
</g>
</svg>
