<?xml version="1.0" encoding="UTF-8" standalone="no"?>
<?xml-stylesheet href="spot.css" type="text/css"?>
<!DOCTYPE svg PUBLIC "-//W3C//DTD SVG 1.1//EN"
 "http://www.w3.org/Graphics/SVG/1.1/DTD/svg11.dtd">
<!-- Generated by graphviz version 2.40.1 (20161225.0304)
 -->
<!-- Title: G(!door_open | light_on) Pages: 1 -->
<svg width="278pt" height="118pt"
 viewBox="0.00 0.00 278.00 118.40" xmlns="http://www.w3.org/2000/svg" xmlns:xlink="http://www.w3.org/1999/xlink">
<g id="graph0" class="graph" transform="scale(1 1) rotate(0) translate(4 114.4)">
<title>G(!door_open | light_on)</title>
<polygon fill="#ffffff" stroke="transparent" points="-4,4 -4,-114.4 274,-114.4 274,4 -4,4"/>
<text text-anchor="start" x="116" y="-83.8" font-family="Lato" font-size="12.00" fill="#000000">[Büchi]</text>
<!-- I -->
<!-- 0 -->
<g id="node2" class="node">
<title>0</title>
<ellipse fill="#ffffa0" stroke="#000000" cx="60" cy="-22" rx="18" ry="18"/>
<ellipse fill="none" stroke="#000000" cx="60" cy="-22" rx="22" ry="22"/>
<text text-anchor="middle" x="60" y="-18.9" font-family="Lato" font-size="12.00" fill="#000000">0</text>
</g>
<!-- I&#45;&gt;0 -->
<g id="edge1" class="edge">
<title>I&#45;&gt;0</title>
<path fill="none" stroke="#000000" d="M1.1682,-22C4.2491,-22 17.4946,-22 30.6388,-22"/>
<polygon fill="#000000" stroke="#000000" points="37.8655,-22 30.8656,-25.1501 34.3655,-22 30.8655,-22.0001 30.8655,-22.0001 30.8655,-22.0001 34.3655,-22 30.8655,-18.8501 37.8655,-22 37.8655,-22"/>
</g>
<!-- 0&#45;&gt;0 -->
<g id="edge2" class="edge">
<title>0&#45;&gt;0</title>
<path fill="none" stroke="#000000" d="M52.6831,-42.9908C51.7798,-53.0872 54.2188,-62 60,-62 64.3359,-62 66.7918,-56.9866 67.3677,-50.2204"/>
<polygon fill="#000000" stroke="#000000" points="67.3169,-42.9908 70.5161,-49.9684 67.3415,-46.4907 67.3662,-49.9906 67.3662,-49.9906 67.3662,-49.9906 67.3415,-46.4907 64.2163,-50.0128 67.3169,-42.9908 67.3169,-42.9908"/>
<text text-anchor="start" x="4.5" y="-65.4" font-family="Lato" font-size="12.00" fill="#000000">!door_open | light_on</text>
</g>
<!-- 1 -->
<g id="node3" class="node">
<title>1</title>
<ellipse fill="#ffffa0" stroke="#000000" cx="252" cy="-22" rx="18" ry="18"/>
<text text-anchor="middle" x="252" y="-18.9" font-family="Lato" font-size="12.00" fill="#000000">1</text>
</g>
<!-- 0&#45;&gt;1 -->
<g id="edge3" class="edge">
<title>0&#45;&gt;1</title>
<path fill="none" stroke="#000000" d="M82.0248,-22C117.9467,-22 188.9314,-22 226.8051,-22"/>
<polygon fill="#000000" stroke="#000000" points="233.9182,-22 226.9183,-25.1501 230.4182,-22 226.9182,-22.0001 226.9182,-22.0001 226.9182,-22.0001 230.4182,-22 226.9182,-18.8501 233.9182,-22 233.9182,-22"/>
<text text-anchor="start" x="100" y="-25.4" font-family="Lato" font-size="12.00" fill="#000000">door_open &amp; !light_on</text>
</g>
<!-- 1&#45;&gt;1 -->
<g id="edge4" class="edge">
<title>1&#45;&gt;1</title>
<path fill="none" stroke="#000000" d="M237.9938,-33.7994C230.257,-45.3306 234.9258,-58 252,-58 265.8728,-58 271.556,-49.6362 269.0497,-40.3147"/>
<polygon fill="#000000" stroke="#000000" points="266.0062,-33.7994 271.8229,-38.8083 267.4875,-36.9705 268.9689,-40.1416 268.9689,-40.1416 268.9689,-40.1416 267.4875,-36.9705 266.1149,-41.4748 266.0062,-33.7994 266.0062,-33.7994"/>
<text text-anchor="middle" x="252" y="-61.4" font-family="Lato" font-size="12.00" fill="#000000">1</text>
</g>
</g>
</svg>
