<?xml version="1.0" encoding="UTF-8" standalone="no"?>
<?xml-stylesheet href="spot.css" type="text/css"?>
<!DOCTYPE svg PUBLIC "-//W3C//DTD SVG 1.1//EN"
 "http://www.w3.org/Graphics/SVG/1.1/DTD/svg11.dtd">
<!-- Generated by graphviz version 2.40.1 (20161225.0304)
 -->
<!-- Title: G(Fa &amp; Fb) Pages: 1 -->
<svg width="297pt" height="156pt"
 viewBox="0.00 0.00 297.08 156.00" xmlns="http://www.w3.org/2000/svg" xmlns:xlink="http://www.w3.org/1999/xlink">
<g id="graph0" class="graph" transform="scale(1 1) rotate(0) translate(4 152)">
<title>G(Fa &amp; Fb)</title>
<polygon fill="#ffffff" stroke="transparent" points="-4,4 -4,-152 293.0833,-152 293.0833,4 -4,4"/>
<text text-anchor="start" x="126.5416" y="-135.4" font-family="Lato" font-size="12.00" fill="#000000">Inf(</text>
<text text-anchor="start" x="144.5416" y="-135.4" font-family="Lato" font-size="12.00" fill="#1f78b4">⓿</text>
<text text-anchor="start" x="158.5416" y="-135.4" font-family="Lato" font-size="12.00" fill="#000000">)</text>
<text text-anchor="start" x="125.5416" y="-123.4" font-family="Lato" font-size="12.00" fill="#000000">[Büchi]</text>
<!-- I -->
<!-- 0 -->
<g id="node2" class="node">
<title>0</title>
<ellipse fill="#ffffa0" stroke="#000000" cx="62.0416" cy="-34" rx="24.0833" ry="24.0833"/>
<text text-anchor="start" x="58.5416" y="-37.4" font-family="Lato" font-size="12.00" fill="#000000">0</text>
<text text-anchor="start" x="55.0416" y="-24.4" font-family="Lato" font-size="12.00" fill="#1f78b4">⓿</text>
</g>
<!-- I&#45;&gt;0 -->
<g id="edge1" class="edge">
<title>I&#45;&gt;0</title>
<path fill="none" stroke="#000000" d="M1.1911,-34C4.2886,-34 17.3195,-34 30.5321,-34"/>
<polygon fill="#000000" stroke="#000000" points="37.8292,-34 30.8292,-37.1501 34.3292,-34 30.8292,-34.0001 30.8292,-34.0001 30.8292,-34.0001 34.3292,-34 30.8291,-30.8501 37.8292,-34 37.8292,-34"/>
</g>
<!-- 0&#45;&gt;0 -->
<g id="edge2" class="edge">
<title>0&#45;&gt;0</title>
<path fill="none" stroke="#000000" d="M54.2897,-56.9197C53.5514,-67.1735 56.1354,-76.0416 62.0416,-76.0416 66.4713,-76.0416 69.0322,-71.0533 69.7244,-64.2333"/>
<polygon fill="#000000" stroke="#000000" points="69.7936,-56.9197 72.8771,-63.9492 69.7604,-60.4195 69.7272,-63.9194 69.7272,-63.9194 69.7272,-63.9194 69.7604,-60.4195 66.5774,-63.8895 69.7936,-56.9197 69.7936,-56.9197"/>
<text text-anchor="start" x="48.0416" y="-79.4416" font-family="Lato" font-size="12.00" fill="#000000">a &amp; b</text>
</g>
<!-- 1 -->
<g id="node3" class="node">
<title>1</title>
<ellipse fill="#ffffa0" stroke="#000000" cx="168.0833" cy="-67" rx="18" ry="18"/>
<text text-anchor="middle" x="168.0833" y="-63.9" font-family="Lato" font-size="12.00" fill="#000000">1</text>
</g>
<!-- 0&#45;&gt;1 -->
<g id="edge3" class="edge">
<title>0&#45;&gt;1</title>
<path fill="none" stroke="#000000" d="M79.8897,-50.8723C86.8927,-56.4377 95.3424,-61.9737 104.0833,-65 116.4362,-69.2768 130.9447,-70.0465 143.0219,-69.6287"/>
<polygon fill="#000000" stroke="#000000" points="150.1864,-69.2358 143.3695,-72.7645 146.6917,-69.4275 143.197,-69.6192 143.197,-69.6192 143.197,-69.6192 146.6917,-69.4275 143.0244,-66.4739 150.1864,-69.2358 150.1864,-69.2358"/>
<text text-anchor="start" x="113.0833" y="-72.4" font-family="Lato" font-size="12.00" fill="#000000">!b</text>
</g>
<!-- 2 -->
<g id="node4" class="node">
<title>2</title>
<ellipse fill="#ffffa0" stroke="#000000" cx="271.0833" cy="-18" rx="18" ry="18"/>
<text text-anchor="middle" x="271.0833" y="-14.9" font-family="Lato" font-size="12.00" fill="#000000">2</text>
</g>
<!-- 0&#45;&gt;2 -->
<g id="edge4" class="edge">
<title>0&#45;&gt;2</title>
<path fill="none" stroke="#000000" d="M86.3293,-32.0355C104.0081,-30.6137 128.5271,-28.6586 150.0833,-27 183.2022,-24.4517 221.43,-21.628 245.9071,-19.835"/>
<polygon fill="#000000" stroke="#000000" points="253.0411,-19.3131 246.2896,-22.9656 249.5504,-19.5686 246.0598,-19.824 246.0598,-19.824 246.0598,-19.824 249.5504,-19.5686 245.8299,-16.6824 253.0411,-19.3131 253.0411,-19.3131"/>
<text text-anchor="start" x="152.5833" y="-30.4" font-family="Lato" font-size="12.00" fill="#000000">!a &amp; b</text>
</g>
<!-- 1&#45;&gt;0 -->
<g id="edge5" class="edge">
<title>1&#45;&gt;0</title>
<path fill="none" stroke="#000000" d="M152.4045,-57.4623C146.2486,-54.0583 139.0087,-50.4611 132.0833,-48 119.6784,-43.5917 105.5165,-40.4319 93.1883,-38.2433"/>
<polygon fill="#000000" stroke="#000000" points="86.1686,-37.0648 93.5936,-35.1174 89.6203,-37.6444 93.072,-38.2239 93.072,-38.2239 93.072,-38.2239 89.6203,-37.6444 92.5504,-41.3304 86.1686,-37.0648 86.1686,-37.0648"/>
<text text-anchor="start" x="104.0833" y="-51.4" font-family="Lato" font-size="12.00" fill="#000000">a &amp; b</text>
</g>
<!-- 1&#45;&gt;1 -->
<g id="edge6" class="edge">
<title>1&#45;&gt;1</title>
<path fill="none" stroke="#000000" d="M159.4498,-82.916C157.1976,-93.1504 160.0754,-103 168.0833,-103 174.2142,-103 177.3381,-97.2263 177.4549,-89.9268"/>
<polygon fill="#000000" stroke="#000000" points="176.7167,-82.916 180.5824,-89.5477 177.0832,-86.3968 177.4498,-89.8775 177.4498,-89.8775 177.4498,-89.8775 177.0832,-86.3968 174.3171,-90.2074 176.7167,-82.916 176.7167,-82.916"/>
<text text-anchor="start" x="163.0833" y="-106.4" font-family="Lato" font-size="12.00" fill="#000000">!b</text>
</g>
<!-- 1&#45;&gt;2 -->
<g id="edge7" class="edge">
<title>1&#45;&gt;2</title>
<path fill="none" stroke="#000000" d="M184.632,-59.1273C201.8257,-50.9478 228.8604,-38.0866 248.1174,-28.9255"/>
<polygon fill="#000000" stroke="#000000" points="254.5756,-25.8532 249.6077,-31.7049 251.415,-27.3568 248.2544,-28.8604 248.2544,-28.8604 248.2544,-28.8604 251.415,-27.3568 246.9012,-26.0158 254.5756,-25.8532 254.5756,-25.8532"/>
<text text-anchor="start" x="204.0833" y="-52.4" font-family="Lato" font-size="12.00" fill="#000000">!a &amp; b</text>
</g>
<!-- 2&#45;&gt;0 -->
<g id="edge8" class="edge">
<title>2&#45;&gt;0</title>
<path fill="none" stroke="#000000" d="M253.3721,-13.7497C229.728,-8.6776 186.5892,-1.5281 150.0833,-7 130.0231,-10.0069 108.2215,-16.6651 91.332,-22.617"/>
<polygon fill="#000000" stroke="#000000" points="84.4138,-25.1118 89.9301,-19.7739 87.7062,-23.9245 90.9987,-22.7371 90.9987,-22.7371 90.9987,-22.7371 87.7062,-23.9245 92.0673,-25.7003 84.4138,-25.1118 84.4138,-25.1118"/>
<text text-anchor="start" x="164.5833" y="-10.4" font-family="Lato" font-size="12.00" fill="#000000">a</text>
</g>
<!-- 2&#45;&gt;2 -->
<g id="edge9" class="edge">
<title>2&#45;&gt;2</title>
<path fill="none" stroke="#000000" d="M262.4498,-33.916C260.1976,-44.1504 263.0754,-54 271.0833,-54 277.2142,-54 280.3381,-48.2263 280.4549,-40.9268"/>
<polygon fill="#000000" stroke="#000000" points="279.7167,-33.916 283.5824,-40.5477 280.0832,-37.3968 280.4498,-40.8775 280.4498,-40.8775 280.4498,-40.8775 280.0832,-37.3968 277.3171,-41.2074 279.7167,-33.916 279.7167,-33.916"/>
<text text-anchor="start" x="266.0833" y="-57.4" font-family="Lato" font-size="12.00" fill="#000000">!a</text>
</g>
</g>
</svg>
