<?xml version="1.0" encoding="UTF-8" standalone="no"?>
<?xml-stylesheet href="spot.css" type="text/css"?>
<!DOCTYPE svg PUBLIC "-//W3C//DTD SVG 1.1//EN"
 "http://www.w3.org/Graphics/SVG/1.1/DTD/svg11.dtd">
<!-- Generated by graphviz version 2.40.1 (20161225.0304)
 -->
<!-- Pages: 1 -->
<svg width="240pt" height="109pt"
 viewBox="0.00 0.00 240.00 109.00" xmlns="http://www.w3.org/2000/svg" xmlns:xlink="http://www.w3.org/1999/xlink">
<g id="graph0" class="graph" transform="scale(1 1) rotate(0) translate(4 105)">
<polygon fill="#ffffff" stroke="transparent" points="-4,4 -4,-105 236,-105 236,4 -4,4"/>
<text text-anchor="start" x="113.5" y="-87.4" font-family="Lato" font-size="12.00" fill="#000000">t</text>
<text text-anchor="start" x="106" y="-74.4" font-family="Lato" font-size="12.00" fill="#000000">[all]</text>
<!-- I -->
<!-- 1 -->
<g id="node2" class="node">
<title>1</title>
<ellipse fill="#ffffa0" stroke="#1f78b4" stroke-width="2" cx="56" cy="-18" rx="18" ry="18"/>
<text text-anchor="middle" x="56" y="-14.9" font-family="Lato" font-size="12.00" fill="#000000">1</text>
</g>
<!-- I&#45;&gt;1 -->
<g id="edge1" class="edge">
<title>I&#45;&gt;1</title>
<path fill="none" stroke="#000000" d="M1.1233,-18C4.178,-18 17.9448,-18 30.9241,-18"/>
<polygon fill="#000000" stroke="#000000" points="37.9807,-18 30.9808,-21.1501 34.4807,-18 30.9807,-18.0001 30.9807,-18.0001 30.9807,-18.0001 34.4807,-18 30.9807,-14.8501 37.9807,-18 37.9807,-18"/>
</g>
<!-- 2 -->
<g id="node4" class="node">
<title>2</title>
<ellipse fill="#ffffa0" stroke="#6a3d9a" stroke-width="2" cx="135" cy="-18" rx="18" ry="18"/>
<text text-anchor="middle" x="135" y="-14.9" font-family="Lato" font-size="12.00" fill="#000000">2</text>
</g>
<!-- 1&#45;&gt;2 -->
<g id="edge3" class="edge">
<title>1&#45;&gt;2</title>
<path fill="none" stroke="#ff7f00" stroke-width="2" d="M74.3228,-18C84.7921,-18 98.0794,-18 109.5495,-18"/>
<polygon fill="#ff7f00" stroke="#ff7f00" stroke-width="2" points="116.7766,-18 109.7767,-21.1501 113.2766,-18.5 109.7766,-18.5001 109.7766,-18.0001 109.7766,-17.5001 113.2766,-17.5 109.7766,-14.8501 116.7766,-18 116.7766,-18"/>
<text text-anchor="middle" x="95.5" y="-21.4" font-family="Lato" font-size="12.00" fill="#000000">1</text>
<text text-anchor="middle" x="81.3228" y="-8.4" font-family="Lato" font-size="12.00" fill="#000000">#2</text>
</g>
<!-- 0 -->
<g id="node3" class="node">
<title>0</title>
<ellipse fill="#ffffa0" stroke="#000000" cx="214" cy="-18" rx="18" ry="18"/>
<text text-anchor="middle" x="214" y="-14.9" font-family="Lato" font-size="12.00" fill="#000000">0</text>
</g>
<!-- 0&#45;&gt;0 -->
<g id="edge2" class="edge">
<title>0&#45;&gt;0</title>
<path fill="none" stroke="#ff4da0" stroke-width="2" d="M207.2664,-35.0373C205.8922,-44.8579 208.1367,-54 214,-54 218.3975,-54 220.7594,-48.8576 221.0858,-42.1433"/>
<polygon fill="#ff4da0" stroke="#ff4da0" stroke-width="2" points="220.7336,-35.0373 224.2263,-41.8728 221.4063,-38.5083 221.5796,-42.004 221.0802,-42.0287 220.5808,-42.0535 220.4075,-38.5578 217.934,-42.1847 220.7336,-35.0373 220.7336,-35.0373"/>
<text text-anchor="middle" x="214" y="-57.4" font-family="Lato" font-size="12.00" fill="#000000">1</text>
<text text-anchor="middle" x="200.2664" y="-38.4373" font-family="Lato" font-size="12.00" fill="#000000">#1</text>
</g>
<!-- 2&#45;&gt;0 -->
<g id="edge4" class="edge">
<title>2&#45;&gt;0</title>
<path fill="none" stroke="#000000" d="M153.3228,-18C163.7921,-18 177.0794,-18 188.5495,-18"/>
<polygon fill="#000000" stroke="#000000" points="195.7766,-18 188.7767,-21.1501 192.2766,-18 188.7766,-18.0001 188.7766,-18.0001 188.7766,-18.0001 192.2766,-18 188.7766,-14.8501 195.7766,-18 195.7766,-18"/>
<text text-anchor="start" x="171" y="-21.4" font-family="Lato" font-size="12.00" fill="#000000">b</text>
<text text-anchor="middle" x="160.3228" y="-8.4" font-family="Lato" font-size="12.00" fill="#000000">#3</text>
</g>
<!-- 2&#45;&gt;2 -->
<g id="edge5" class="edge">
<title>2&#45;&gt;2</title>
<path fill="none" stroke="#000000" d="M128.2664,-35.0373C126.8922,-44.8579 129.1367,-54 135,-54 139.3975,-54 141.7594,-48.8576 142.0858,-42.1433"/>
<polygon fill="#000000" stroke="#000000" points="141.7336,-35.0373 145.2263,-41.8728 141.9069,-38.533 142.0802,-42.0287 142.0802,-42.0287 142.0802,-42.0287 141.9069,-38.533 138.934,-42.1847 141.7336,-35.0373 141.7336,-35.0373"/>
<text text-anchor="start" x="119.5" y="-57.4" font-family="Lato" font-size="12.00" fill="#000000">a &amp; !b</text>
<text text-anchor="middle" x="121.2664" y="-38.4373" font-family="Lato" font-size="12.00" fill="#000000">#4</text>
</g>
</g>
</svg>
