<?xml version="1.0" encoding="UTF-8" standalone="no"?>
<?xml-stylesheet href="spot.css" type="text/css"?>
<!DOCTYPE svg PUBLIC "-//W3C//DTD SVG 1.1//EN"
 "http://www.w3.org/Graphics/SVG/1.1/DTD/svg11.dtd">
<!-- Generated by graphviz version 2.40.1 (20161225.0304)
 -->
<!-- Title: G(Fa &amp; Fb) Pages: 1 -->
<svg width="293pt" height="159pt"
 viewBox="0.00 0.00 293.00 159.40" xmlns="http://www.w3.org/2000/svg" xmlns:xlink="http://www.w3.org/1999/xlink">
<g id="graph0" class="graph" transform="scale(1 1) rotate(0) translate(4 155.4)">
<title>G(Fa &amp; Fb)</title>
<polygon fill="#ffffff" stroke="transparent" points="-4,4 -4,-155.4 289,-155.4 289,4 -4,4"/>
<text text-anchor="start" x="123.5" y="-124.8" font-family="Lato" font-size="12.00" fill="#000000">[Büchi]</text>
<!-- I -->
<!-- 0 -->
<g id="node2" class="node">
<title>0</title>
<ellipse fill="#ffffa0" stroke="#000000" cx="60" cy="-34" rx="18" ry="18"/>
<ellipse fill="none" stroke="#000000" cx="60" cy="-34" rx="22" ry="22"/>
<text text-anchor="middle" x="60" y="-30.9" font-family="Lato" font-size="12.00" fill="#000000">0</text>
</g>
<!-- I&#45;&gt;0 -->
<g id="edge1" class="edge">
<title>I&#45;&gt;0</title>
<path fill="none" stroke="#000000" d="M1.1682,-34C4.2491,-34 17.4946,-34 30.6388,-34"/>
<polygon fill="#000000" stroke="#000000" points="37.8655,-34 30.8656,-37.1501 34.3655,-34 30.8655,-34.0001 30.8655,-34.0001 30.8655,-34.0001 34.3655,-34 30.8655,-30.8501 37.8655,-34 37.8655,-34"/>
</g>
<!-- 0&#45;&gt;0 -->
<g id="edge2" class="edge">
<title>0&#45;&gt;0</title>
<path fill="none" stroke="#000000" d="M52.6831,-54.9908C51.7798,-65.0872 54.2188,-74 60,-74 64.3359,-74 66.7918,-68.9866 67.3677,-62.2204"/>
<polygon fill="#000000" stroke="#000000" points="67.3169,-54.9908 70.5161,-61.9684 67.3415,-58.4907 67.3662,-61.9906 67.3662,-61.9906 67.3662,-61.9906 67.3415,-58.4907 64.2163,-62.0128 67.3169,-54.9908 67.3169,-54.9908"/>
<text text-anchor="start" x="46" y="-77.4" font-family="Lato" font-size="12.00" fill="#000000">a &amp; b</text>
</g>
<!-- 1 -->
<g id="node3" class="node">
<title>1</title>
<ellipse fill="#ffffa0" stroke="#000000" cx="164" cy="-67" rx="18" ry="18"/>
<text text-anchor="middle" x="164" y="-63.9" font-family="Lato" font-size="12.00" fill="#000000">1</text>
</g>
<!-- 0&#45;&gt;1 -->
<g id="edge3" class="edge">
<title>0&#45;&gt;1</title>
<path fill="none" stroke="#000000" d="M75.6967,-49.8831C82.5571,-55.7694 91.0713,-61.7885 100,-65 112.3009,-69.4244 126.8051,-70.2061 138.8929,-69.7581"/>
<polygon fill="#000000" stroke="#000000" points="146.0658,-69.3418 139.2601,-72.8922 142.5716,-69.5447 139.0775,-69.7475 139.0775,-69.7475 139.0775,-69.7475 142.5716,-69.5447 138.895,-66.6028 146.0658,-69.3418 146.0658,-69.3418"/>
<text text-anchor="start" x="109" y="-72.4" font-family="Lato" font-size="12.00" fill="#000000">!b</text>
</g>
<!-- 2 -->
<g id="node4" class="node">
<title>2</title>
<ellipse fill="#ffffa0" stroke="#000000" cx="267" cy="-18" rx="18" ry="18"/>
<text text-anchor="middle" x="267" y="-14.9" font-family="Lato" font-size="12.00" fill="#000000">2</text>
</g>
<!-- 0&#45;&gt;2 -->
<g id="edge4" class="edge">
<title>0&#45;&gt;2</title>
<path fill="none" stroke="#000000" d="M82.2701,-32.1445C99.6306,-30.7084 124.3447,-28.6867 146,-27 179.1165,-24.4207 217.3449,-21.6042 241.8228,-19.8213"/>
<polygon fill="#000000" stroke="#000000" points="248.957,-19.3026 242.2039,-22.952 245.4662,-19.5564 241.9755,-19.8103 241.9755,-19.8103 241.9755,-19.8103 245.4662,-19.5564 241.747,-16.6686 248.957,-19.3026 248.957,-19.3026"/>
<text text-anchor="start" x="148.5" y="-30.4" font-family="Lato" font-size="12.00" fill="#000000">!a &amp; b</text>
</g>
<!-- 1&#45;&gt;0 -->
<g id="edge5" class="edge">
<title>1&#45;&gt;0</title>
<path fill="none" stroke="#000000" d="M148.3138,-57.4834C142.1569,-54.082 134.9183,-50.481 128,-48 115.4808,-43.5104 101.1204,-40.29 88.8319,-38.0789"/>
<polygon fill="#000000" stroke="#000000" points="81.8656,-36.8917 89.2954,-34.9626 85.3159,-37.4798 88.7661,-38.0678 88.7661,-38.0678 88.7661,-38.0678 85.3159,-37.4798 88.2369,-41.173 81.8656,-36.8917 81.8656,-36.8917"/>
<text text-anchor="start" x="100" y="-51.4" font-family="Lato" font-size="12.00" fill="#000000">a &amp; b</text>
</g>
<!-- 1&#45;&gt;1 -->
<g id="edge6" class="edge">
<title>1&#45;&gt;1</title>
<path fill="none" stroke="#000000" d="M155.3666,-82.916C153.1144,-93.1504 155.9922,-103 164,-103 170.131,-103 173.2548,-97.2263 173.3716,-89.9268"/>
<polygon fill="#000000" stroke="#000000" points="172.6334,-82.916 176.4992,-89.5477 173,-86.3968 173.3665,-89.8775 173.3665,-89.8775 173.3665,-89.8775 173,-86.3968 170.2338,-90.2074 172.6334,-82.916 172.6334,-82.916"/>
<text text-anchor="start" x="159" y="-106.4" font-family="Lato" font-size="12.00" fill="#000000">!b</text>
</g>
<!-- 1&#45;&gt;2 -->
<g id="edge7" class="edge">
<title>1&#45;&gt;2</title>
<path fill="none" stroke="#000000" d="M180.5487,-59.1273C197.7424,-50.9478 224.7772,-38.0866 244.0341,-28.9255"/>
<polygon fill="#000000" stroke="#000000" points="250.4923,-25.8532 245.5244,-31.7049 247.3318,-27.3568 244.1712,-28.8604 244.1712,-28.8604 244.1712,-28.8604 247.3318,-27.3568 242.8179,-26.0158 250.4923,-25.8532 250.4923,-25.8532"/>
<text text-anchor="start" x="200" y="-52.4" font-family="Lato" font-size="12.00" fill="#000000">!a &amp; b</text>
</g>
<!-- 2&#45;&gt;0 -->
<g id="edge8" class="edge">
<title>2&#45;&gt;0</title>
<path fill="none" stroke="#000000" d="M249.2833,-13.7133C225.6331,-8.6009 182.4876,-1.4069 146,-7 125.8331,-10.0914 103.902,-17.0368 87.2342,-23.109"/>
<polygon fill="#000000" stroke="#000000" points="80.4336,-25.6441 85.8924,-20.2473 83.7132,-24.4215 86.9927,-23.1989 86.9927,-23.1989 86.9927,-23.1989 83.7132,-24.4215 88.093,-26.1505 80.4336,-25.6441 80.4336,-25.6441"/>
<text text-anchor="start" x="160.5" y="-10.4" font-family="Lato" font-size="12.00" fill="#000000">a</text>
</g>
<!-- 2&#45;&gt;2 -->
<g id="edge9" class="edge">
<title>2&#45;&gt;2</title>
<path fill="none" stroke="#000000" d="M258.3666,-33.916C256.1144,-44.1504 258.9922,-54 267,-54 273.131,-54 276.2548,-48.2263 276.3716,-40.9268"/>
<polygon fill="#000000" stroke="#000000" points="275.6334,-33.916 279.4992,-40.5477 276,-37.3968 276.3665,-40.8775 276.3665,-40.8775 276.3665,-40.8775 276,-37.3968 273.2338,-41.2074 275.6334,-33.916 275.6334,-33.916"/>
<text text-anchor="start" x="262" y="-57.4" font-family="Lato" font-size="12.00" fill="#000000">!a</text>
</g>
</g>
</svg>
