<?xml version="1.0" encoding="UTF-8" standalone="no"?>
<?xml-stylesheet href="spot.css" type="text/css"?>
<!DOCTYPE svg PUBLIC "-//W3C//DTD SVG 1.1//EN"
 "http://www.w3.org/Graphics/SVG/1.1/DTD/svg11.dtd">
<!-- Generated by graphviz version 2.40.1 (20161225.0304)
 -->
<!-- Title: G(Fa &amp; Fb) Pages: 1 -->
<svg width="285pt" height="169pt"
 viewBox="0.00 0.00 285.00 169.00" xmlns="http://www.w3.org/2000/svg" xmlns:xlink="http://www.w3.org/1999/xlink">
<g id="graph0" class="graph" transform="scale(1 1) rotate(0) translate(4 165)">
<title>G(Fa &amp; Fb)</title>
<polygon fill="#ffffff" stroke="transparent" points="-4,4 -4,-165 281,-165 281,4 -4,4"/>
<text text-anchor="start" x="120.5" y="-148.4" font-family="Lato" font-size="12.00" fill="#000000">Inf(</text>
<text text-anchor="start" x="138.5" y="-148.4" font-family="Lato" font-size="12.00" fill="#1f78b4">⓿</text>
<text text-anchor="start" x="152.5" y="-148.4" font-family="Lato" font-size="12.00" fill="#000000">)</text>
<text text-anchor="start" x="119.5" y="-136.4" font-family="Lato" font-size="12.00" fill="#000000">[Büchi]</text>
<!-- I -->
<!-- 0 -->
<g id="node2" class="node">
<title>0</title>
<ellipse fill="#ffffa0" stroke="#000000" cx="56" cy="-34" rx="18" ry="18"/>
<text text-anchor="middle" x="56" y="-30.9" font-family="Lato" font-size="12.00" fill="#000000">0</text>
</g>
<!-- I&#45;&gt;0 -->
<g id="edge1" class="edge">
<title>I&#45;&gt;0</title>
<path fill="none" stroke="#000000" d="M1.1233,-34C4.178,-34 17.9448,-34 30.9241,-34"/>
<polygon fill="#000000" stroke="#000000" points="37.9807,-34 30.9808,-37.1501 34.4807,-34 30.9807,-34.0001 30.9807,-34.0001 30.9807,-34.0001 34.4807,-34 30.9807,-30.8501 37.9807,-34 37.9807,-34"/>
</g>
<!-- 0&#45;&gt;0 -->
<g id="edge2" class="edge">
<title>0&#45;&gt;0</title>
<path fill="none" stroke="#000000" d="M49.6208,-51.0373C48.3189,-60.8579 50.4453,-70 56,-70 60.166,-70 62.4036,-64.8576 62.7128,-58.1433"/>
<polygon fill="#000000" stroke="#000000" points="62.3792,-51.0373 65.8541,-57.8818 62.5434,-54.5335 62.7076,-58.0296 62.7076,-58.0296 62.7076,-58.0296 62.5434,-54.5335 59.561,-58.1774 62.3792,-51.0373 62.3792,-51.0373"/>
<text text-anchor="start" x="42" y="-86.4" font-family="Lato" font-size="12.00" fill="#000000">a &amp; b</text>
<text text-anchor="start" x="49" y="-73.4" font-family="Lato" font-size="12.00" fill="#1f78b4">⓿</text>
</g>
<!-- 1 -->
<g id="node3" class="node">
<title>1</title>
<ellipse fill="#ffffa0" stroke="#000000" cx="156" cy="-80" rx="18" ry="18"/>
<text text-anchor="middle" x="156" y="-76.9" font-family="Lato" font-size="12.00" fill="#000000">1</text>
</g>
<!-- 0&#45;&gt;1 -->
<g id="edge3" class="edge">
<title>0&#45;&gt;1</title>
<path fill="none" stroke="#000000" d="M68.5428,-47.4659C74.9989,-53.6563 83.3253,-60.5874 92,-65 103.9615,-71.0845 118.4381,-74.7442 130.5953,-76.9229"/>
<polygon fill="#000000" stroke="#000000" points="137.822,-78.0966 130.4075,-80.0836 134.3672,-77.5355 130.9125,-76.9744 130.9125,-76.9744 130.9125,-76.9744 134.3672,-77.5355 131.4175,-73.8651 137.822,-78.0966 137.822,-78.0966"/>
<text text-anchor="start" x="101" y="-90.4" font-family="Lato" font-size="12.00" fill="#000000">!b</text>
<text text-anchor="start" x="99" y="-77.4" font-family="Lato" font-size="12.00" fill="#1f78b4">⓿</text>
</g>
<!-- 2 -->
<g id="node4" class="node">
<title>2</title>
<ellipse fill="#ffffa0" stroke="#000000" cx="259" cy="-18" rx="18" ry="18"/>
<text text-anchor="middle" x="259" y="-14.9" font-family="Lato" font-size="12.00" fill="#000000">2</text>
</g>
<!-- 0&#45;&gt;2 -->
<g id="edge4" class="edge">
<title>0&#45;&gt;2</title>
<path fill="none" stroke="#000000" d="M74.2336,-32.3861C90.8478,-30.9291 116.0665,-28.7518 138,-27 171.1114,-24.3554 209.341,-21.554 233.8205,-19.7924"/>
<polygon fill="#000000" stroke="#000000" points="240.9553,-19.2804 234.1987,-22.9235 237.4643,-19.531 233.9732,-19.7816 233.9732,-19.7816 233.9732,-19.7816 237.4643,-19.531 233.7477,-16.6396 240.9553,-19.2804 240.9553,-19.2804"/>
<text text-anchor="start" x="140.5" y="-43.4" font-family="Lato" font-size="12.00" fill="#000000">!a &amp; b</text>
<text text-anchor="start" x="149" y="-30.4" font-family="Lato" font-size="12.00" fill="#1f78b4">⓿</text>
</g>
<!-- 1&#45;&gt;0 -->
<g id="edge5" class="edge">
<title>1&#45;&gt;0</title>
<path fill="none" stroke="#000000" d="M143.8857,-66.3573C137.4111,-59.8693 128.942,-52.5535 120,-48 108.0814,-41.9308 93.6082,-38.4833 81.4423,-36.5296"/>
<polygon fill="#000000" stroke="#000000" points="74.2088,-35.4961 81.584,-33.3679 77.6736,-35.9912 81.1385,-36.4863 81.1385,-36.4863 81.1385,-36.4863 77.6736,-35.9912 80.6929,-39.6046 74.2088,-35.4961 74.2088,-35.4961"/>
<text text-anchor="start" x="92" y="-51.4" font-family="Lato" font-size="12.00" fill="#000000">a &amp; b</text>
</g>
<!-- 1&#45;&gt;1 -->
<g id="edge6" class="edge">
<title>1&#45;&gt;1</title>
<path fill="none" stroke="#000000" d="M147.3666,-95.916C145.1144,-106.1504 147.9922,-116 156,-116 162.131,-116 165.2548,-110.2263 165.3716,-102.9268"/>
<polygon fill="#000000" stroke="#000000" points="164.6334,-95.916 168.4992,-102.5477 165,-99.3968 165.3665,-102.8775 165.3665,-102.8775 165.3665,-102.8775 165,-99.3968 162.2338,-103.2074 164.6334,-95.916 164.6334,-95.916"/>
<text text-anchor="start" x="151" y="-119.4" font-family="Lato" font-size="12.00" fill="#000000">!b</text>
</g>
<!-- 1&#45;&gt;2 -->
<g id="edge7" class="edge">
<title>1&#45;&gt;2</title>
<path fill="none" stroke="#000000" d="M171.6435,-70.5835C189.2138,-60.0072 217.8385,-42.7768 237.5026,-30.9402"/>
<polygon fill="#000000" stroke="#000000" points="243.5468,-27.3019 239.174,-33.6108 240.5481,-29.107 237.5495,-30.912 237.5495,-30.912 237.5495,-30.912 240.5481,-29.107 235.9249,-28.2132 243.5468,-27.3019 243.5468,-27.3019"/>
<text text-anchor="start" x="192" y="-61.4" font-family="Lato" font-size="12.00" fill="#000000">!a &amp; b</text>
</g>
<!-- 2&#45;&gt;0 -->
<g id="edge8" class="edge">
<title>2&#45;&gt;0</title>
<path fill="none" stroke="#000000" d="M241.2714,-13.6373C217.608,-8.4408 174.4479,-1.1538 138,-7 117.5406,-10.2817 95.2643,-17.8932 79.1003,-24.201"/>
<polygon fill="#000000" stroke="#000000" points="72.5702,-26.808 77.9033,-21.287 75.8208,-25.5103 79.0713,-24.2125 79.0713,-24.2125 79.0713,-24.2125 75.8208,-25.5103 80.2393,-27.138 72.5702,-26.808 72.5702,-26.808"/>
<text text-anchor="start" x="152.5" y="-10.4" font-family="Lato" font-size="12.00" fill="#000000">a</text>
</g>
<!-- 2&#45;&gt;2 -->
<g id="edge9" class="edge">
<title>2&#45;&gt;2</title>
<path fill="none" stroke="#000000" d="M250.3666,-33.916C248.1144,-44.1504 250.9922,-54 259,-54 265.131,-54 268.2548,-48.2263 268.3716,-40.9268"/>
<polygon fill="#000000" stroke="#000000" points="267.6334,-33.916 271.4992,-40.5477 268,-37.3968 268.3665,-40.8775 268.3665,-40.8775 268.3665,-40.8775 268,-37.3968 265.2338,-41.2074 267.6334,-33.916 267.6334,-33.916"/>
<text text-anchor="start" x="254" y="-57.4" font-family="Lato" font-size="12.00" fill="#000000">!a</text>
</g>
</g>
</svg>
