<?xml version="1.0" encoding="UTF-8" standalone="no"?>
<?xml-stylesheet href="spot.css" type="text/css"?>
<!DOCTYPE svg PUBLIC "-//W3C//DTD SVG 1.1//EN"
 "http://www.w3.org/Graphics/SVG/1.1/DTD/svg11.dtd">
<!-- Generated by graphviz version 2.40.1 (20161225.0304)
 -->
<!-- Title: Fa &amp; GFb Pages: 1 -->
<svg width="161pt" height="151pt"
 viewBox="0.00 0.00 161.00 151.00" xmlns="http://www.w3.org/2000/svg" xmlns:xlink="http://www.w3.org/1999/xlink">
<g id="graph0" class="graph" transform="scale(1 1) rotate(0) translate(4 147)">
<title>Fa &amp; GFb</title>
<polygon fill="#ffffff" stroke="transparent" points="-4,4 -4,-147 157,-147 157,4 -4,4"/>
<text text-anchor="start" x="58.5" y="-130.4" font-family="Lato" font-size="12.00" fill="#000000">Inf(</text>
<text text-anchor="start" x="76.5" y="-130.4" font-family="Lato" font-size="12.00" fill="#1f78b4">⓿</text>
<text text-anchor="start" x="90.5" y="-130.4" font-family="Lato" font-size="12.00" fill="#000000">)</text>
<text text-anchor="start" x="57.5" y="-118.4" font-family="Lato" font-size="12.00" fill="#000000">[Büchi]</text>
<!-- I -->
<!-- 0 -->
<g id="node2" class="node">
<title>0</title>
<ellipse fill="#ffffa0" stroke="#000000" cx="56" cy="-18" rx="18" ry="18"/>
<text text-anchor="middle" x="56" y="-14.9" font-family="Lato" font-size="12.00" fill="#000000">0</text>
</g>
<!-- I&#45;&gt;0 -->
<g id="edge1" class="edge">
<title>I&#45;&gt;0</title>
<path fill="none" stroke="#000000" d="M1.1233,-18C4.178,-18 17.9448,-18 30.9241,-18"/>
<polygon fill="#000000" stroke="#000000" points="37.9807,-18 30.9808,-21.1501 34.4807,-18 30.9807,-18.0001 30.9807,-18.0001 30.9807,-18.0001 34.4807,-18 30.9807,-14.8501 37.9807,-18 37.9807,-18"/>
</g>
<!-- 0&#45;&gt;0 -->
<g id="edge2" class="edge">
<title>0&#45;&gt;0</title>
<path fill="none" stroke="#000000" d="M49.6208,-35.0373C48.3189,-44.8579 50.4453,-54 56,-54 60.166,-54 62.4036,-48.8576 62.7128,-42.1433"/>
<polygon fill="#000000" stroke="#000000" points="62.3792,-35.0373 65.8541,-41.8818 62.5434,-38.5335 62.7076,-42.0296 62.7076,-42.0296 62.7076,-42.0296 62.5434,-38.5335 59.561,-42.1774 62.3792,-35.0373 62.3792,-35.0373"/>
<text text-anchor="start" x="51" y="-57.4" font-family="Lato" font-size="12.00" fill="#000000">!a</text>
</g>
<!-- 1 -->
<g id="node3" class="node">
<title>1</title>
<ellipse fill="#ffffa0" stroke="#000000" cx="135" cy="-18" rx="18" ry="18"/>
<text text-anchor="middle" x="135" y="-14.9" font-family="Lato" font-size="12.00" fill="#000000">1</text>
</g>
<!-- 0&#45;&gt;1 -->
<g id="edge3" class="edge">
<title>0&#45;&gt;1</title>
<path fill="none" stroke="#000000" d="M74.3228,-18C84.7921,-18 98.0794,-18 109.5495,-18"/>
<polygon fill="#000000" stroke="#000000" points="116.7766,-18 109.7767,-21.1501 113.2766,-18 109.7766,-18.0001 109.7766,-18.0001 109.7766,-18.0001 113.2766,-18 109.7766,-14.8501 116.7766,-18 116.7766,-18"/>
<text text-anchor="start" x="92" y="-21.4" font-family="Lato" font-size="12.00" fill="#000000">a</text>
</g>
<!-- 1&#45;&gt;1 -->
<g id="edge4" class="edge">
<title>1&#45;&gt;1</title>
<path fill="none" stroke="#000000" d="M131.5845,-35.7817C131.0041,-45.3149 132.1426,-54 135,-54 137.0984,-54 138.2698,-49.3161 138.5142,-43.0521"/>
<polygon fill="#000000" stroke="#000000" points="138.4155,-35.7817 141.6603,-42.7383 138.4631,-39.2814 138.5106,-42.7811 138.5106,-42.7811 138.5106,-42.7811 138.4631,-39.2814 135.3609,-42.8239 138.4155,-35.7817 138.4155,-35.7817"/>
<text text-anchor="start" x="130" y="-57.4" font-family="Lato" font-size="12.00" fill="#000000">!b</text>
</g>
<!-- 1&#45;&gt;1 -->
<g id="edge5" class="edge">
<title>1&#45;&gt;1</title>
<path fill="none" stroke="#000000" d="M129.4406,-35.1418C126.1703,-52.585 128.0234,-72 135,-72 141.05,-72 143.2471,-57.3996 141.5913,-42.146"/>
<polygon fill="#000000" stroke="#000000" points="140.5594,-35.1418 144.6961,-41.6079 141.0696,-38.6044 141.5798,-42.067 141.5798,-42.067 141.5798,-42.067 141.0696,-38.6044 138.4634,-42.5262 140.5594,-35.1418 140.5594,-35.1418"/>
<text text-anchor="start" x="131.5" y="-88.4" font-family="Lato" font-size="12.00" fill="#000000">b</text>
<text text-anchor="start" x="128" y="-75.4" font-family="Lato" font-size="12.00" fill="#1f78b4">⓿</text>
</g>
</g>
</svg>
