<?xml version="1.0" encoding="UTF-8" standalone="no"?>
<?xml-stylesheet href="spot.css" type="text/css"?>
<!DOCTYPE svg PUBLIC "-//W3C//DTD SVG 1.1//EN"
 "http://www.w3.org/Graphics/SVG/1.1/DTD/svg11.dtd">
<!-- Generated by graphviz version 2.40.1 (20161225.0304)
 -->
<!-- Pages: 1 -->
<svg width="282pt" height="204pt"
 viewBox="0.00 0.00 282.08 204.04" xmlns="http://www.w3.org/2000/svg" xmlns:xlink="http://www.w3.org/1999/xlink">
<g id="graph0" class="graph" transform="scale(1 1) rotate(0) translate(4 200.0416)">
<polygon fill="#ffffff" stroke="transparent" points="-4,4 -4,-200.0416 278.0833,-200.0416 278.0833,4 -4,4"/>
<text text-anchor="start" x="93.5416" y="-183.4416" font-family="Lato" font-size="12.00" fill="#000000">Fin(</text>
<text text-anchor="start" x="113.5416" y="-183.4416" font-family="Lato" font-size="12.00" fill="#1f78b4">⓿</text>
<text text-anchor="start" x="127.5416" y="-183.4416" font-family="Lato" font-size="12.00" fill="#000000">) &amp; Inf(</text>
<text text-anchor="start" x="162.5416" y="-183.4416" font-family="Lato" font-size="12.00" fill="#ff4da0">❶</text>
<text text-anchor="start" x="176.5416" y="-183.4416" font-family="Lato" font-size="12.00" fill="#000000">)</text>
<text text-anchor="start" x="113.0416" y="-171.4416" font-family="Lato" font-size="12.00" fill="#000000">[Rabin 1]</text>
<!-- I -->
<!-- 1 -->
<g id="node2" class="node">
<title>1</title>
<ellipse fill="#ffffa0" stroke="#000000" cx="56" cy="-69.0416" rx="18" ry="18"/>
<text text-anchor="middle" x="56" y="-65.9416" font-family="Lato" font-size="12.00" fill="#000000">1</text>
</g>
<!-- I&#45;&gt;1 -->
<g id="edge1" class="edge">
<title>I&#45;&gt;1</title>
<path fill="none" stroke="#000000" d="M1.1233,-69.0416C4.178,-69.0416 17.9448,-69.0416 30.9241,-69.0416"/>
<polygon fill="#000000" stroke="#000000" points="37.9807,-69.0416 30.9808,-72.1917 34.4807,-69.0417 30.9807,-69.0417 30.9807,-69.0417 30.9807,-69.0417 34.4807,-69.0417 30.9807,-65.8917 37.9807,-69.0416 37.9807,-69.0416"/>
</g>
<!-- 1&#45;&gt;1 -->
<g id="edge4" class="edge">
<title>1&#45;&gt;1</title>
<path fill="none" stroke="#000000" d="M49.6208,-86.0789C48.3189,-95.8995 50.4453,-105.0416 56,-105.0416 60.166,-105.0416 62.4036,-99.8992 62.7128,-93.1849"/>
<polygon fill="#000000" stroke="#000000" points="62.3792,-86.0789 65.8541,-92.9235 62.5434,-89.5751 62.7076,-93.0712 62.7076,-93.0712 62.7076,-93.0712 62.5434,-89.5751 59.561,-93.219 62.3792,-86.0789 62.3792,-86.0789"/>
<text text-anchor="start" x="40.5" y="-108.4416" font-family="Lato" font-size="12.00" fill="#000000">a &amp; !b</text>
</g>
<!-- 0 -->
<g id="node3" class="node">
<title>0</title>
<ellipse fill="#ffffa0" stroke="#000000" cx="168.0416" cy="-115.0416" rx="18" ry="18"/>
<text text-anchor="middle" x="168.0416" y="-111.9416" font-family="Lato" font-size="12.00" fill="#000000">0</text>
</g>
<!-- 1&#45;&gt;0 -->
<g id="edge3" class="edge">
<title>1&#45;&gt;0</title>
<path fill="none" stroke="#000000" d="M73.0167,-76.028C92.1294,-83.875 123.2669,-96.6588 144.6571,-105.4408"/>
<polygon fill="#000000" stroke="#000000" points="151.2319,-108.1402 143.56,-108.3955 147.9941,-106.8109 144.7564,-105.4815 144.7564,-105.4815 144.7564,-105.4815 147.9941,-106.8109 145.9528,-102.5676 151.2319,-108.1402 151.2319,-108.1402"/>
<text text-anchor="start" x="92" y="-100.4416" font-family="Lato" font-size="12.00" fill="#000000">!a &amp; !b</text>
</g>
<!-- 3 -->
<g id="node4" class="node">
<title>3</title>
<ellipse fill="#ffffa0" stroke="#000000" cx="168.0416" cy="-24.0416" rx="24.0833" ry="24.0833"/>
<text text-anchor="start" x="164.5416" y="-27.4416" font-family="Lato" font-size="12.00" fill="#000000">3</text>
<text text-anchor="start" x="161.0416" y="-14.4416" font-family="Lato" font-size="12.00" fill="#ff4da0">❶</text>
</g>
<!-- 1&#45;&gt;3 -->
<g id="edge5" class="edge">
<title>1&#45;&gt;3</title>
<path fill="none" stroke="#000000" d="M73.0167,-62.2071C90.4723,-55.1963 117.9577,-44.1572 138.8875,-35.751"/>
<polygon fill="#000000" stroke="#000000" points="145.4315,-33.1227 140.1099,-38.6547 142.1837,-34.4271 138.9359,-35.7316 138.9359,-35.7316 138.9359,-35.7316 142.1837,-34.4271 137.7618,-32.8086 145.4315,-33.1227 145.4315,-33.1227"/>
<text text-anchor="start" x="105.5" y="-57.4416" font-family="Lato" font-size="12.00" fill="#000000">b</text>
</g>
<!-- 0&#45;&gt;0 -->
<g id="edge2" class="edge">
<title>0&#45;&gt;0</title>
<path fill="none" stroke="#000000" d="M160.0252,-131.3319C158.0921,-141.4308 160.7643,-151.0416 168.0416,-151.0416 173.4996,-151.0416 176.3672,-145.6355 176.6444,-138.672"/>
<polygon fill="#000000" stroke="#000000" points="176.0581,-131.3319 179.7555,-138.0588 176.3368,-134.8208 176.6155,-138.3097 176.6155,-138.3097 176.6155,-138.3097 176.3368,-134.8208 173.4755,-138.5605 176.0581,-131.3319 176.0581,-131.3319"/>
<text text-anchor="middle" x="168.0416" y="-154.4416" font-family="Lato" font-size="12.00" fill="#000000">1</text>
</g>
<!-- 3&#45;&gt;3 -->
<g id="edge9" class="edge">
<title>3&#45;&gt;3</title>
<path fill="none" stroke="#000000" d="M159.5514,-46.9613C158.7428,-57.2151 161.5729,-66.0833 168.0416,-66.0833 172.8932,-66.0833 175.698,-61.0949 176.4561,-54.2749"/>
<polygon fill="#000000" stroke="#000000" points="176.5319,-46.9613 179.6091,-53.9936 176.4955,-50.4611 176.4592,-53.9609 176.4592,-53.9609 176.4592,-53.9609 176.4955,-50.4611 173.3094,-53.9282 176.5319,-46.9613 176.5319,-46.9613"/>
<text text-anchor="start" x="164.5416" y="-69.4833" font-family="Lato" font-size="12.00" fill="#000000">b</text>
</g>
<!-- 2 -->
<g id="node5" class="node">
<title>2</title>
<ellipse fill="#ffffa0" stroke="#000000" cx="256.0833" cy="-24.0416" rx="18" ry="18"/>
<text text-anchor="middle" x="256.0833" y="-20.9416" font-family="Lato" font-size="12.00" fill="#000000">2</text>
</g>
<!-- 3&#45;&gt;2 -->
<g id="edge8" class="edge">
<title>3&#45;&gt;2</title>
<path fill="none" stroke="#000000" d="M192.0994,-24.0416C204.0735,-24.0416 218.5478,-24.0416 230.6987,-24.0416"/>
<polygon fill="#000000" stroke="#000000" points="237.9211,-24.0416 230.9211,-27.1917 234.4211,-24.0417 230.9211,-24.0417 230.9211,-24.0417 230.9211,-24.0417 234.4211,-24.0417 230.921,-20.8917 237.9211,-24.0416 237.9211,-24.0416"/>
<text text-anchor="start" x="210.0833" y="-27.4416" font-family="Lato" font-size="12.00" fill="#000000">!b</text>
</g>
<!-- 2&#45;&gt;3 -->
<g id="edge7" class="edge">
<title>2&#45;&gt;3</title>
<path fill="none" stroke="#000000" d="M240.4983,-14.8425C234.3539,-11.715 227.0974,-8.6145 220.0833,-7.0416 212.1304,-5.2583 203.6663,-6.577 195.9258,-9.1198"/>
<polygon fill="#000000" stroke="#000000" points="189.056,-11.7452 194.4702,-6.3038 192.3253,-10.4957 195.5947,-9.2462 195.5947,-9.2462 195.5947,-9.2462 192.3253,-10.4957 196.7193,-12.1887 189.056,-11.7452 189.056,-11.7452"/>
<text text-anchor="start" x="211.5833" y="-10.4416" font-family="Lato" font-size="12.00" fill="#000000">b</text>
</g>
<!-- 2&#45;&gt;2 -->
<g id="edge6" class="edge">
<title>2&#45;&gt;2</title>
<path fill="none" stroke="#000000" d="M249.052,-40.7057C247.4895,-50.6666 249.8333,-60.0416 256.0833,-60.0416 260.7708,-60.0416 263.261,-54.7682 263.554,-47.9292"/>
<polygon fill="#000000" stroke="#000000" points="263.1145,-40.7057 266.6839,-47.5015 263.3271,-44.1992 263.5397,-47.6928 263.5397,-47.6928 263.5397,-47.6928 263.3271,-44.1992 260.3955,-47.8841 263.1145,-40.7057 263.1145,-40.7057"/>
<text text-anchor="start" x="251.0833" y="-63.4416" font-family="Lato" font-size="12.00" fill="#000000">!b</text>
</g>
</g>
</svg>
