<?xml version="1.0" encoding="UTF-8" standalone="no"?>
<?xml-stylesheet href="spot.css" type="text/css"?>
<!DOCTYPE svg PUBLIC "-//W3C//DTD SVG 1.1//EN"
 "http://www.w3.org/Graphics/SVG/1.1/DTD/svg11.dtd">
<!-- Generated by graphviz version 2.40.1 (20161225.0304)
 -->
<!-- Title: Ga | Gb | Gc Pages: 1 -->
<svg width="161pt" height="279pt"
 viewBox="0.00 0.00 161.00 279.00" xmlns="http://www.w3.org/2000/svg" xmlns:xlink="http://www.w3.org/1999/xlink">
<g id="graph0" class="graph" transform="scale(1 1) rotate(0) translate(4 275)">
<title>Ga | Gb | Gc</title>
<polygon fill="#ffffff" stroke="transparent" points="-4,4 -4,-275 157,-275 157,4 -4,4"/>
<text text-anchor="start" x="74" y="-257.4" font-family="Lato" font-size="12.00" fill="#000000">t</text>
<text text-anchor="start" x="66.5" y="-244.4" font-family="Lato" font-size="12.00" fill="#000000">[all]</text>
<!-- I -->
<!-- 0 -->
<g id="node2" class="node">
<title>0</title>
<ellipse fill="#ffffa0" stroke="#000000" cx="56" cy="-103" rx="18" ry="18"/>
<text text-anchor="middle" x="56" y="-99.9" font-family="Lato" font-size="12.00" fill="#000000">0</text>
</g>
<!-- I&#45;&gt;0 -->
<g id="edge1" class="edge">
<title>I&#45;&gt;0</title>
<path fill="none" stroke="#000000" d="M1.1233,-103C4.178,-103 17.9448,-103 30.9241,-103"/>
<polygon fill="#000000" stroke="#000000" points="37.9807,-103 30.9808,-106.1501 34.4807,-103 30.9807,-103.0001 30.9807,-103.0001 30.9807,-103.0001 34.4807,-103 30.9807,-99.8501 37.9807,-103 37.9807,-103"/>
</g>
<!-- 1 -->
<g id="node3" class="node">
<title>1</title>
<ellipse fill="#ffffa0" stroke="#000000" cx="135" cy="-188" rx="18" ry="18"/>
<text text-anchor="middle" x="135" y="-184.9" font-family="Lato" font-size="12.00" fill="#000000">1</text>
</g>
<!-- 0&#45;&gt;1 -->
<g id="edge2" class="edge">
<title>0&#45;&gt;1</title>
<path fill="none" stroke="#000000" d="M68.3438,-116.2813C81.6778,-130.6281 103.0141,-153.5848 117.9456,-169.6503"/>
<polygon fill="#000000" stroke="#000000" points="122.7429,-174.812 115.6701,-171.8291 120.3602,-172.2483 117.9774,-169.6846 117.9774,-169.6846 117.9774,-169.6846 120.3602,-172.2483 120.2848,-167.5401 122.7429,-174.812 122.7429,-174.812"/>
<text text-anchor="start" x="92" y="-151.4" font-family="Lato" font-size="12.00" fill="#000000">a</text>
</g>
<!-- 2 -->
<g id="node4" class="node">
<title>2</title>
<ellipse fill="#ffffa0" stroke="#000000" cx="135" cy="-103" rx="18" ry="18"/>
<text text-anchor="middle" x="135" y="-99.9" font-family="Lato" font-size="12.00" fill="#000000">2</text>
</g>
<!-- 0&#45;&gt;2 -->
<g id="edge3" class="edge">
<title>0&#45;&gt;2</title>
<path fill="none" stroke="#000000" d="M74.3228,-103C84.7921,-103 98.0794,-103 109.5495,-103"/>
<polygon fill="#000000" stroke="#000000" points="116.7766,-103 109.7767,-106.1501 113.2766,-103 109.7766,-103.0001 109.7766,-103.0001 109.7766,-103.0001 113.2766,-103 109.7766,-99.8501 116.7766,-103 116.7766,-103"/>
<text text-anchor="start" x="92" y="-106.4" font-family="Lato" font-size="12.00" fill="#000000">b</text>
</g>
<!-- 3 -->
<g id="node5" class="node">
<title>3</title>
<ellipse fill="#ffffa0" stroke="#000000" cx="135" cy="-18" rx="18" ry="18"/>
<text text-anchor="middle" x="135" y="-14.9" font-family="Lato" font-size="12.00" fill="#000000">3</text>
</g>
<!-- 0&#45;&gt;3 -->
<g id="edge4" class="edge">
<title>0&#45;&gt;3</title>
<path fill="none" stroke="#000000" d="M68.3438,-89.7188C81.6778,-75.3719 103.0141,-52.4152 117.9456,-36.3497"/>
<polygon fill="#000000" stroke="#000000" points="122.7429,-31.188 120.2848,-38.4599 120.3602,-33.7517 117.9774,-36.3154 117.9774,-36.3154 117.9774,-36.3154 120.3602,-33.7517 115.6701,-34.1709 122.7429,-31.188 122.7429,-31.188"/>
<text text-anchor="start" x="92" y="-66.4" font-family="Lato" font-size="12.00" fill="#000000">c</text>
</g>
<!-- 1&#45;&gt;1 -->
<g id="edge5" class="edge">
<title>1&#45;&gt;1</title>
<path fill="none" stroke="#000000" d="M128.2664,-205.0373C126.8922,-214.8579 129.1367,-224 135,-224 139.3975,-224 141.7594,-218.8576 142.0858,-212.1433"/>
<polygon fill="#000000" stroke="#000000" points="141.7336,-205.0373 145.2263,-211.8728 141.9069,-208.533 142.0802,-212.0287 142.0802,-212.0287 142.0802,-212.0287 141.9069,-208.533 138.934,-212.1847 141.7336,-205.0373 141.7336,-205.0373"/>
<text text-anchor="start" x="131.5" y="-227.4" font-family="Lato" font-size="12.00" fill="#000000">a</text>
</g>
<!-- 2&#45;&gt;2 -->
<g id="edge6" class="edge">
<title>2&#45;&gt;2</title>
<path fill="none" stroke="#000000" d="M128.2664,-120.0373C126.8922,-129.8579 129.1367,-139 135,-139 139.3975,-139 141.7594,-133.8576 142.0858,-127.1433"/>
<polygon fill="#000000" stroke="#000000" points="141.7336,-120.0373 145.2263,-126.8728 141.9069,-123.533 142.0802,-127.0287 142.0802,-127.0287 142.0802,-127.0287 141.9069,-123.533 138.934,-127.1847 141.7336,-120.0373 141.7336,-120.0373"/>
<text text-anchor="start" x="131.5" y="-142.4" font-family="Lato" font-size="12.00" fill="#000000">b</text>
</g>
<!-- 3&#45;&gt;3 -->
<g id="edge7" class="edge">
<title>3&#45;&gt;3</title>
<path fill="none" stroke="#000000" d="M128.2664,-35.0373C126.8922,-44.8579 129.1367,-54 135,-54 139.3975,-54 141.7594,-48.8576 142.0858,-42.1433"/>
<polygon fill="#000000" stroke="#000000" points="141.7336,-35.0373 145.2263,-41.8728 141.9069,-38.533 142.0802,-42.0287 142.0802,-42.0287 142.0802,-42.0287 141.9069,-38.533 138.934,-42.1847 141.7336,-35.0373 141.7336,-35.0373"/>
<text text-anchor="start" x="131.5" y="-57.4" font-family="Lato" font-size="12.00" fill="#000000">c</text>
</g>
</g>
</svg>
