<?xml version="1.0" encoding="UTF-8" standalone="no"?>
<?xml-stylesheet href="spot.css" type="text/css"?>
<!DOCTYPE svg PUBLIC "-//W3C//DTD SVG 1.1//EN"
 "http://www.w3.org/Graphics/SVG/1.1/DTD/svg11.dtd">
<!-- Generated by graphviz version 2.40.1 (20161225.0304)
 -->
<!-- Title: Ga | Gb | Gc Pages: 1 -->
<svg width="342pt" height="434pt"
 viewBox="0.00 0.00 342.00 434.04" xmlns="http://www.w3.org/2000/svg" xmlns:xlink="http://www.w3.org/1999/xlink">
<g id="graph0" class="graph" transform="scale(1 1) rotate(0) translate(4 430.0416)">
<title>Ga | Gb | Gc</title>
<polygon fill="#ffffff" stroke="transparent" points="-4,4 -4,-430.0416 338,-430.0416 338,4 -4,4"/>
<text text-anchor="start" x="148" y="-399.4416" font-family="Lato" font-size="12.00" fill="#000000">[Büchi]</text>
<!-- I -->
<!-- 6 -->
<g id="node2" class="node">
<title>6</title>
<ellipse fill="#ffffa0" stroke="#000000" cx="60" cy="-209.6416" rx="18" ry="18"/>
<ellipse fill="none" stroke="#000000" cx="60" cy="-209.6416" rx="22" ry="22"/>
<text text-anchor="middle" x="60" y="-206.5416" font-family="Lato" font-size="12.00" fill="#000000">6</text>
</g>
<!-- I&#45;&gt;6 -->
<g id="edge1" class="edge">
<title>I&#45;&gt;6</title>
<path fill="none" stroke="#000000" d="M1.1682,-209.6416C4.2491,-209.6416 17.4946,-209.6416 30.6388,-209.6416"/>
<polygon fill="#000000" stroke="#000000" points="37.8655,-209.6416 30.8656,-212.7917 34.3655,-209.6417 30.8655,-209.6417 30.8655,-209.6417 30.8655,-209.6417 34.3655,-209.6417 30.8655,-206.4917 37.8655,-209.6416 37.8655,-209.6416"/>
</g>
<!-- 6&#45;&gt;6 -->
<g id="edge20" class="edge">
<title>6&#45;&gt;6</title>
<path fill="none" stroke="#000000" d="M52.6831,-230.6324C51.7798,-240.7288 54.2188,-249.6416 60,-249.6416 64.3359,-249.6416 66.7918,-244.6282 67.3677,-237.862"/>
<polygon fill="#000000" stroke="#000000" points="67.3169,-230.6324 70.5161,-237.61 67.3415,-234.1323 67.3662,-237.6322 67.3662,-237.6322 67.3662,-237.6322 67.3415,-234.1323 64.2163,-237.6544 67.3169,-230.6324 67.3169,-230.6324"/>
<text text-anchor="start" x="36" y="-253.0416" font-family="Lato" font-size="12.00" fill="#000000">a &amp; b &amp; c</text>
</g>
<!-- 0 -->
<g id="node3" class="node">
<title>0</title>
<ellipse fill="#ffffa0" stroke="#000000" cx="312" cy="-337.6416" rx="18" ry="18"/>
<ellipse fill="none" stroke="#000000" cx="312" cy="-337.6416" rx="22" ry="22"/>
<text text-anchor="middle" x="312" y="-334.5416" font-family="Lato" font-size="12.00" fill="#000000">0</text>
</g>
<!-- 6&#45;&gt;0 -->
<g id="edge14" class="edge">
<title>6&#45;&gt;0</title>
<path fill="none" stroke="#000000" d="M67.9468,-230.2224C82.1924,-263.5708 115.6682,-327.6969 169,-347.6416 206.8209,-361.7857 254.1423,-353.9842 283.7294,-346.3733"/>
<polygon fill="#000000" stroke="#000000" points="290.8529,-344.4559 284.9122,-349.3171 287.4732,-345.3656 284.0934,-346.2754 284.0934,-346.2754 284.0934,-346.2754 287.4732,-345.3656 283.2747,-343.2336 290.8529,-344.4559 290.8529,-344.4559"/>
<text text-anchor="start" x="169" y="-358.0416" font-family="Lato" font-size="12.00" fill="#000000">!a &amp; !b &amp; c</text>
</g>
<!-- 1 -->
<g id="node4" class="node">
<title>1</title>
<ellipse fill="#ffffa0" stroke="#000000" cx="196" cy="-285.6416" rx="18" ry="18"/>
<ellipse fill="none" stroke="#000000" cx="196" cy="-285.6416" rx="22" ry="22"/>
<text text-anchor="middle" x="196" y="-282.5416" font-family="Lato" font-size="12.00" fill="#000000">1</text>
</g>
<!-- 6&#45;&gt;1 -->
<g id="edge15" class="edge">
<title>6&#45;&gt;1</title>
<path fill="none" stroke="#000000" d="M75.2428,-226.1977C82.2843,-233.166 91.0582,-240.9584 100,-246.6416 121.3224,-260.1937 148.1422,-270.6139 168.0104,-277.2599"/>
<polygon fill="#000000" stroke="#000000" points="174.7277,-279.4522 167.0958,-280.2749 171.4004,-278.3663 168.0731,-277.2803 168.0731,-277.2803 168.0731,-277.2803 171.4004,-278.3663 169.0505,-274.2858 174.7277,-279.4522 174.7277,-279.4522"/>
<text text-anchor="start" x="100" y="-274.0416" font-family="Lato" font-size="12.00" fill="#000000">!a &amp; b &amp; c</text>
</g>
<!-- 2 -->
<g id="node5" class="node">
<title>2</title>
<ellipse fill="#ffffa0" stroke="#000000" cx="312" cy="-232.6416" rx="18" ry="18"/>
<ellipse fill="none" stroke="#000000" cx="312" cy="-232.6416" rx="22" ry="22"/>
<text text-anchor="middle" x="312" y="-229.5416" font-family="Lato" font-size="12.00" fill="#000000">2</text>
</g>
<!-- 6&#45;&gt;2 -->
<g id="edge16" class="edge">
<title>6&#45;&gt;2</title>
<path fill="none" stroke="#000000" d="M81.9225,-211.6425C127.3475,-215.7884 231.7603,-225.3181 282.8164,-229.978"/>
<polygon fill="#000000" stroke="#000000" points="289.9487,-230.629 282.6913,-233.1296 286.4632,-230.3108 282.9777,-229.9927 282.9777,-229.9927 282.9777,-229.9927 286.4632,-230.3108 283.264,-226.8557 289.9487,-230.629 289.9487,-230.629"/>
<text text-anchor="start" x="169" y="-227.0416" font-family="Lato" font-size="12.00" fill="#000000">!a &amp; b &amp; !c</text>
</g>
<!-- 3 -->
<g id="node6" class="node">
<title>3</title>
<ellipse fill="#ffffa0" stroke="#000000" cx="312" cy="-50.6416" rx="18" ry="18"/>
<ellipse fill="none" stroke="#000000" cx="312" cy="-50.6416" rx="22" ry="22"/>
<text text-anchor="middle" x="312" y="-47.5416" font-family="Lato" font-size="12.00" fill="#000000">3</text>
</g>
<!-- 6&#45;&gt;3 -->
<g id="edge17" class="edge">
<title>6&#45;&gt;3</title>
<path fill="none" stroke="#000000" d="M63.3474,-187.6305C71.6127,-142.3769 97.7542,-40.3188 169,-6.6416 209.1212,12.3233 259.3812,-13.6222 288.3777,-32.9808"/>
<polygon fill="#000000" stroke="#000000" points="294.2312,-36.9932 286.6765,-35.6336 291.3443,-35.0143 288.4575,-33.0354 288.4575,-33.0354 288.4575,-33.0354 291.3443,-35.0143 290.2385,-30.4372 294.2312,-36.9932 294.2312,-36.9932"/>
<text text-anchor="start" x="169" y="-10.0416" font-family="Lato" font-size="12.00" fill="#000000">a &amp; !b &amp; !c</text>
</g>
<!-- 4 -->
<g id="node7" class="node">
<title>4</title>
<ellipse fill="#ffffa0" stroke="#000000" cx="196" cy="-143.6416" rx="18" ry="18"/>
<ellipse fill="none" stroke="#000000" cx="196" cy="-143.6416" rx="22" ry="22"/>
<text text-anchor="middle" x="196" y="-140.5416" font-family="Lato" font-size="12.00" fill="#000000">4</text>
</g>
<!-- 6&#45;&gt;4 -->
<g id="edge18" class="edge">
<title>6&#45;&gt;4</title>
<path fill="none" stroke="#000000" d="M80.0673,-199.9031C103.7715,-188.3996 143.2867,-169.2231 169.4924,-156.5056"/>
<polygon fill="#000000" stroke="#000000" points="175.8504,-153.4201 170.9281,-159.3103 172.7016,-154.9482 169.5528,-156.4763 169.5528,-156.4763 169.5528,-156.4763 172.7016,-154.9482 168.1775,-153.6424 175.8504,-153.4201 175.8504,-153.4201"/>
<text text-anchor="start" x="100" y="-193.0416" font-family="Lato" font-size="12.00" fill="#000000">a &amp; !b &amp; c</text>
</g>
<!-- 5 -->
<g id="node8" class="node">
<title>5</title>
<ellipse fill="#ffffa0" stroke="#000000" cx="196" cy="-50.6416" rx="18" ry="18"/>
<ellipse fill="none" stroke="#000000" cx="196" cy="-50.6416" rx="22" ry="22"/>
<text text-anchor="middle" x="196" y="-47.5416" font-family="Lato" font-size="12.00" fill="#000000">5</text>
</g>
<!-- 6&#45;&gt;5 -->
<g id="edge19" class="edge">
<title>6&#45;&gt;5</title>
<path fill="none" stroke="#000000" d="M71.4165,-190.6442C78.9988,-178.5237 89.4644,-162.6965 100,-149.6416 123.6019,-120.3959 154.354,-89.7934 174.6137,-70.4938"/>
<polygon fill="#000000" stroke="#000000" points="179.7811,-65.5997 176.8649,-72.7003 177.24,-68.0065 174.6988,-70.4132 174.6988,-70.4132 174.6988,-70.4132 177.24,-68.0065 172.5327,-68.1262 179.7811,-65.5997 179.7811,-65.5997"/>
<text text-anchor="start" x="100" y="-153.0416" font-family="Lato" font-size="12.00" fill="#000000">a &amp; b &amp; !c</text>
</g>
<!-- 0&#45;&gt;0 -->
<g id="edge2" class="edge">
<title>0&#45;&gt;0</title>
<path fill="none" stroke="#000000" d="M302.2928,-357.3991C300.6432,-367.9915 303.8789,-377.6416 312,-377.6416 318.2177,-377.6416 321.5717,-371.9849 322.062,-364.5795"/>
<polygon fill="#000000" stroke="#000000" points="321.7072,-357.3991 325.199,-364.2351 321.88,-360.8948 322.0528,-364.3906 322.0528,-364.3906 322.0528,-364.3906 321.88,-360.8948 318.9066,-364.5461 321.7072,-357.3991 321.7072,-357.3991"/>
<text text-anchor="start" x="308.5" y="-381.0416" font-family="Lato" font-size="12.00" fill="#000000">c</text>
</g>
<!-- 1&#45;&gt;0 -->
<g id="edge3" class="edge">
<title>1&#45;&gt;0</title>
<path fill="none" stroke="#000000" d="M213.6835,-299.1494C221.7043,-304.8149 231.5045,-311.122 241,-315.6416 254.3707,-322.0057 270.0202,-327.0847 283.2191,-330.7521"/>
<polygon fill="#000000" stroke="#000000" points="290.2696,-332.6434 282.6925,-333.8721 286.8892,-331.7366 283.5087,-330.8297 283.5087,-330.8297 283.5087,-330.8297 286.8892,-331.7366 284.3249,-327.7872 290.2696,-332.6434 290.2696,-332.6434"/>
<text text-anchor="start" x="241" y="-330.0416" font-family="Lato" font-size="12.00" fill="#000000">!b &amp; c</text>
</g>
<!-- 1&#45;&gt;1 -->
<g id="edge4" class="edge">
<title>1&#45;&gt;1</title>
<path fill="none" stroke="#000000" d="M185.2883,-304.9859C183.2888,-315.7393 186.8594,-325.6416 196,-325.6416 202.9983,-325.6416 206.7315,-319.837 207.1997,-312.2901"/>
<polygon fill="#000000" stroke="#000000" points="206.7117,-304.9859 210.3214,-311.7603 206.945,-308.4781 207.1784,-311.9704 207.1784,-311.9704 207.1784,-311.9704 206.945,-308.4781 204.0354,-312.1804 206.7117,-304.9859 206.7117,-304.9859"/>
<text text-anchor="start" x="182" y="-329.0416" font-family="Lato" font-size="12.00" fill="#000000">b &amp; c</text>
</g>
<!-- 1&#45;&gt;2 -->
<g id="edge5" class="edge">
<title>1&#45;&gt;2</title>
<path fill="none" stroke="#000000" d="M218.1695,-288.2362C234.013,-289.0886 255.3804,-288.1305 272,-279.6416 281.7687,-274.6519 290.1212,-266.1367 296.628,-257.7136"/>
<polygon fill="#000000" stroke="#000000" points="300.8326,-251.9414 299.2572,-259.4542 298.7718,-254.7705 296.7111,-257.5995 296.7111,-257.5995 296.7111,-257.5995 298.7718,-254.7705 294.1649,-255.7449 300.8326,-251.9414 300.8326,-251.9414"/>
<text text-anchor="start" x="241" y="-291.0416" font-family="Lato" font-size="12.00" fill="#000000">b &amp; !c</text>
</g>
<!-- 2&#45;&gt;2 -->
<g id="edge6" class="edge">
<title>2&#45;&gt;2</title>
<path fill="none" stroke="#000000" d="M302.2928,-252.3991C300.6432,-262.9915 303.8789,-272.6416 312,-272.6416 318.2177,-272.6416 321.5717,-266.9849 322.062,-259.5795"/>
<polygon fill="#000000" stroke="#000000" points="321.7072,-252.3991 325.199,-259.2351 321.88,-255.8948 322.0528,-259.3906 322.0528,-259.3906 322.0528,-259.3906 321.88,-255.8948 318.9066,-259.5461 321.7072,-252.3991 321.7072,-252.3991"/>
<text text-anchor="start" x="308.5" y="-276.0416" font-family="Lato" font-size="12.00" fill="#000000">b</text>
</g>
<!-- 3&#45;&gt;3 -->
<g id="edge7" class="edge">
<title>3&#45;&gt;3</title>
<path fill="none" stroke="#000000" d="M302.2928,-70.3991C300.6432,-80.9915 303.8789,-90.6416 312,-90.6416 318.2177,-90.6416 321.5717,-84.9849 322.062,-77.5795"/>
<polygon fill="#000000" stroke="#000000" points="321.7072,-70.3991 325.199,-77.2351 321.88,-73.8948 322.0528,-77.3906 322.0528,-77.3906 322.0528,-77.3906 321.88,-73.8948 318.9066,-77.5461 321.7072,-70.3991 321.7072,-70.3991"/>
<text text-anchor="start" x="308.5" y="-94.0416" font-family="Lato" font-size="12.00" fill="#000000">a</text>
</g>
<!-- 4&#45;&gt;0 -->
<g id="edge8" class="edge">
<title>4&#45;&gt;0</title>
<path fill="none" stroke="#000000" d="M208.3032,-161.9142C223.7245,-185.0377 250.7156,-226.2448 272,-262.6416 281.367,-278.6595 291.1826,-297.0364 298.7462,-311.5905"/>
<polygon fill="#000000" stroke="#000000" points="302.0532,-317.9863 296.04,-313.2151 300.4456,-314.8773 298.8381,-311.7683 298.8381,-311.7683 298.8381,-311.7683 300.4456,-314.8773 301.6362,-310.3215 302.0532,-317.9863 302.0532,-317.9863"/>
<text text-anchor="start" x="241.5" y="-266.0416" font-family="Lato" font-size="12.00" fill="#000000">!a &amp; c</text>
</g>
<!-- 4&#45;&gt;3 -->
<g id="edge9" class="edge">
<title>4&#45;&gt;3</title>
<path fill="none" stroke="#000000" d="M217.4164,-137.6043C233.6913,-132.2283 255.9404,-123.1092 272,-109.6416 282.8009,-100.584 291.9093,-87.906 298.6929,-76.6226"/>
<polygon fill="#000000" stroke="#000000" points="302.2184,-70.5294 301.4392,-78.1659 300.4656,-73.5588 298.7127,-76.5883 298.7127,-76.5883 298.7127,-76.5883 300.4656,-73.5588 295.9862,-75.0107 302.2184,-70.5294 302.2184,-70.5294"/>
<text text-anchor="start" x="241.5" y="-132.0416" font-family="Lato" font-size="12.00" fill="#000000">a &amp; !c</text>
</g>
<!-- 4&#45;&gt;4 -->
<g id="edge10" class="edge">
<title>4&#45;&gt;4</title>
<path fill="none" stroke="#000000" d="M185.2883,-162.9859C183.2888,-173.7393 186.8594,-183.6416 196,-183.6416 202.9983,-183.6416 206.7315,-177.837 207.1997,-170.2901"/>
<polygon fill="#000000" stroke="#000000" points="206.7117,-162.9859 210.3214,-169.7603 206.945,-166.4781 207.1784,-169.9704 207.1784,-169.9704 207.1784,-169.9704 206.945,-166.4781 204.0354,-170.1804 206.7117,-162.9859 206.7117,-162.9859"/>
<text text-anchor="start" x="182.5" y="-187.0416" font-family="Lato" font-size="12.00" fill="#000000">a &amp; c</text>
</g>
<!-- 5&#45;&gt;2 -->
<g id="edge11" class="edge">
<title>5&#45;&gt;2</title>
<path fill="none" stroke="#000000" d="M217.0578,-57.1797C234.2477,-63.5687 257.9203,-74.947 272,-92.6416 285.6288,-109.7695 299.1237,-167.7932 306.4287,-203.5431"/>
<polygon fill="#000000" stroke="#000000" points="307.8914,-210.8109 303.4222,-204.57 307.2008,-207.3797 306.5103,-203.9485 306.5103,-203.9485 306.5103,-203.9485 307.2008,-207.3797 309.5983,-203.327 307.8914,-210.8109 307.8914,-210.8109"/>
<text text-anchor="start" x="241" y="-96.0416" font-family="Lato" font-size="12.00" fill="#000000">!a &amp; b</text>
</g>
<!-- 5&#45;&gt;3 -->
<g id="edge12" class="edge">
<title>5&#45;&gt;3</title>
<path fill="none" stroke="#000000" d="M218.0918,-50.6416C236.475,-50.6416 262.7927,-50.6416 282.8927,-50.6416"/>
<polygon fill="#000000" stroke="#000000" points="289.9905,-50.6416 282.9905,-53.7917 286.4905,-50.6417 282.9905,-50.6417 282.9905,-50.6417 282.9905,-50.6417 286.4905,-50.6417 282.9905,-47.4917 289.9905,-50.6416 289.9905,-50.6416"/>
<text text-anchor="start" x="241" y="-54.0416" font-family="Lato" font-size="12.00" fill="#000000">a &amp; !b</text>
</g>
<!-- 5&#45;&gt;5 -->
<g id="edge13" class="edge">
<title>5&#45;&gt;5</title>
<path fill="none" stroke="#000000" d="M185.2883,-69.9859C183.2888,-80.7393 186.8594,-90.6416 196,-90.6416 202.9983,-90.6416 206.7315,-84.837 207.1997,-77.2901"/>
<polygon fill="#000000" stroke="#000000" points="206.7117,-69.9859 210.3214,-76.7603 206.945,-73.4781 207.1784,-76.9704 207.1784,-76.9704 207.1784,-76.9704 206.945,-73.4781 204.0354,-77.1804 206.7117,-69.9859 206.7117,-69.9859"/>
<text text-anchor="start" x="182" y="-94.0416" font-family="Lato" font-size="12.00" fill="#000000">a &amp; b</text>
</g>
</g>
</svg>
