<?xml version="1.0" encoding="UTF-8" standalone="no"?>
<?xml-stylesheet href="spot.css" type="text/css"?>
<!DOCTYPE svg PUBLIC "-//W3C//DTD SVG 1.1//EN"
 "http://www.w3.org/Graphics/SVG/1.1/DTD/svg11.dtd">
<!-- Generated by graphviz version 2.40.1 (20161225.0304)
 -->
<!-- Title: a U X(b | GF!b) Pages: 1 -->
<svg width="349pt" height="249pt"
 viewBox="0.00 0.00 349.00 249.00" xmlns="http://www.w3.org/2000/svg" xmlns:xlink="http://www.w3.org/1999/xlink">
<g id="graph0" class="graph" transform="scale(1 1) rotate(0) translate(4 245)">
<title>a U X(b | GF!b)</title>
<polygon fill="#ffffff" stroke="transparent" points="-4,4 -4,-245 345,-245 345,4 -4,4"/>
<text text-anchor="start" x="152.5" y="-228.4" font-family="Lato" font-size="12.00" fill="#000000">Inf(</text>
<text text-anchor="start" x="170.5" y="-228.4" font-family="Lato" font-size="12.00" fill="#1f78b4">⓿</text>
<text text-anchor="start" x="184.5" y="-228.4" font-family="Lato" font-size="12.00" fill="#000000">)</text>
<text text-anchor="start" x="151.5" y="-216.4" font-family="Lato" font-size="12.00" fill="#000000">[Büchi]</text>
<!-- I -->
<!-- 0 -->
<g id="node2" class="node">
<title>0</title>
<ellipse fill="#ffffa0" stroke="#000000" cx="56" cy="-67" rx="18" ry="18"/>
<text text-anchor="middle" x="56" y="-63.9" font-family="Lato" font-size="12.00" fill="#000000">0</text>
</g>
<!-- I&#45;&gt;0 -->
<g id="edge1" class="edge">
<title>I&#45;&gt;0</title>
<path fill="none" stroke="#000000" d="M1.1233,-67C4.178,-67 17.9448,-67 30.9241,-67"/>
<polygon fill="#000000" stroke="#000000" points="37.9807,-67 30.9808,-70.1501 34.4807,-67 30.9807,-67.0001 30.9807,-67.0001 30.9807,-67.0001 34.4807,-67 30.9807,-63.8501 37.9807,-67 37.9807,-67"/>
</g>
<!-- 1 -->
<g id="node3" class="node">
<title>1</title>
<ellipse fill="#ffffa0" stroke="#000000" cx="241" cy="-84" rx="18" ry="18"/>
<text text-anchor="middle" x="241" y="-80.9" font-family="Lato" font-size="12.00" fill="#000000">1</text>
</g>
<!-- 0&#45;&gt;1 -->
<g id="edge2" class="edge">
<title>0&#45;&gt;1</title>
<path fill="none" stroke="#000000" d="M72.4032,-74.6751C84.4465,-79.8702 101.3634,-86.2665 117,-89 150.9972,-94.9433 190.9992,-91.4911 216.1799,-88.0744"/>
<polygon fill="#000000" stroke="#000000" points="223.1836,-87.0727 216.7001,-91.1822 219.7188,-87.5683 216.2541,-88.0639 216.2541,-88.0639 216.2541,-88.0639 219.7188,-87.5683 215.808,-84.9456 223.1836,-87.0727 223.1836,-87.0727"/>
<text text-anchor="start" x="130" y="-95.4" font-family="Lato" font-size="12.00" fill="#000000">!a</text>
</g>
<!-- 3 -->
<g id="node4" class="node">
<title>3</title>
<ellipse fill="#ffffa0" stroke="#000000" cx="135" cy="-18" rx="18" ry="18"/>
<text text-anchor="middle" x="135" y="-14.9" font-family="Lato" font-size="12.00" fill="#000000">3</text>
</g>
<!-- 0&#45;&gt;3 -->
<g id="edge3" class="edge">
<title>0&#45;&gt;3</title>
<path fill="none" stroke="#000000" d="M71.6079,-57.3192C83.5873,-49.8889 100.263,-39.5457 113.5045,-31.3327"/>
<polygon fill="#000000" stroke="#000000" points="119.6934,-27.494 115.4051,-33.8606 116.719,-29.3388 113.7447,-31.1837 113.7447,-31.1837 113.7447,-31.1837 116.719,-29.3388 112.0843,-28.5068 119.6934,-27.494 119.6934,-27.494"/>
<text text-anchor="start" x="92" y="-46.4" font-family="Lato" font-size="12.00" fill="#000000">a</text>
</g>
<!-- 2 -->
<g id="node5" class="node">
<title>2</title>
<ellipse fill="#ffffa0" stroke="#000000" cx="323" cy="-116" rx="18" ry="18"/>
<text text-anchor="middle" x="323" y="-112.9" font-family="Lato" font-size="12.00" fill="#000000">2</text>
</g>
<!-- 1&#45;&gt;2 -->
<g id="edge4" class="edge">
<title>1&#45;&gt;2</title>
<path fill="none" stroke="#000000" d="M257.9905,-90.6304C269.9747,-95.3072 286.1846,-101.633 299.4196,-106.7979"/>
<polygon fill="#000000" stroke="#000000" points="306.0313,-109.3781 298.3651,-109.7677 302.7708,-108.1056 299.5103,-106.8332 299.5103,-106.8332 299.5103,-106.8332 302.7708,-108.1056 300.6555,-103.8987 306.0313,-109.3781 306.0313,-109.3781"/>
<text text-anchor="start" x="277" y="-104.4" font-family="Lato" font-size="12.00" fill="#000000">!b</text>
</g>
<!-- 4 -->
<g id="node6" class="node">
<title>4</title>
<ellipse fill="#ffffa0" stroke="#000000" cx="323" cy="-18" rx="18" ry="18"/>
<text text-anchor="middle" x="323" y="-14.9" font-family="Lato" font-size="12.00" fill="#000000">4</text>
</g>
<!-- 1&#45;&gt;4 -->
<g id="edge5" class="edge">
<title>1&#45;&gt;4</title>
<path fill="none" stroke="#000000" d="M255.2833,-72.5037C268.5701,-61.8094 288.4873,-45.7785 303.2854,-33.8678"/>
<polygon fill="#000000" stroke="#000000" points="308.8804,-29.3646 305.4024,-36.2076 306.1538,-31.5591 303.4273,-33.7537 303.4273,-33.7537 303.4273,-33.7537 306.1538,-31.5591 301.4522,-31.2998 308.8804,-29.3646 308.8804,-29.3646"/>
<text text-anchor="start" x="278.5" y="-57.4" font-family="Lato" font-size="12.00" fill="#000000">b</text>
</g>
<!-- 3&#45;&gt;1 -->
<g id="edge8" class="edge">
<title>3&#45;&gt;1</title>
<path fill="none" stroke="#000000" d="M150.6407,-27.7385C168.9072,-39.1121 199.2202,-57.9861 219.6434,-70.7025"/>
<polygon fill="#000000" stroke="#000000" points="225.6398,-74.4361 218.0325,-73.4102 222.6686,-72.5861 219.6975,-70.7361 219.6975,-70.7361 219.6975,-70.7361 222.6686,-72.5861 221.3625,-68.0621 225.6398,-74.4361 225.6398,-74.4361"/>
<text text-anchor="start" x="171" y="-63.4" font-family="Lato" font-size="12.00" fill="#000000">!a &amp; !b</text>
</g>
<!-- 3&#45;&gt;3 -->
<g id="edge9" class="edge">
<title>3&#45;&gt;3</title>
<path fill="none" stroke="#000000" d="M128.2664,-35.0373C126.8922,-44.8579 129.1367,-54 135,-54 139.3975,-54 141.7594,-48.8576 142.0858,-42.1433"/>
<polygon fill="#000000" stroke="#000000" points="141.7336,-35.0373 145.2263,-41.8728 141.9069,-38.533 142.0802,-42.0287 142.0802,-42.0287 142.0802,-42.0287 141.9069,-38.533 138.934,-42.1847 141.7336,-35.0373 141.7336,-35.0373"/>
<text text-anchor="start" x="119.5" y="-70.4" font-family="Lato" font-size="12.00" fill="#000000">a &amp; !b</text>
<text text-anchor="start" x="128" y="-57.4" font-family="Lato" font-size="12.00" fill="#1f78b4">⓿</text>
</g>
<!-- 3&#45;&gt;4 -->
<g id="edge10" class="edge">
<title>3&#45;&gt;4</title>
<path fill="none" stroke="#000000" d="M153.0262,-18C186.6287,-18 258.9183,-18 297.5055,-18"/>
<polygon fill="#000000" stroke="#000000" points="304.7521,-18 297.7522,-21.1501 301.2521,-18 297.7521,-18.0001 297.7521,-18.0001 297.7521,-18.0001 301.2521,-18 297.7521,-14.8501 304.7521,-18 304.7521,-18"/>
<text text-anchor="start" x="237.5" y="-21.4" font-family="Lato" font-size="12.00" fill="#000000">b</text>
</g>
<!-- 2&#45;&gt;2 -->
<g id="edge6" class="edge">
<title>2&#45;&gt;2</title>
<path fill="none" stroke="#000000" d="M319.4047,-133.7817C318.7938,-143.3149 319.9922,-152 323,-152 325.2089,-152 326.4419,-147.3161 326.6991,-141.0521"/>
<polygon fill="#000000" stroke="#000000" points="326.5953,-133.7817 329.845,-140.736 326.6453,-137.2814 326.6954,-140.781 326.6954,-140.781 326.6954,-140.781 326.6453,-137.2814 323.5457,-140.8261 326.5953,-133.7817 326.5953,-133.7817"/>
<text text-anchor="start" x="318" y="-168.4" font-family="Lato" font-size="12.00" fill="#000000">!b</text>
<text text-anchor="start" x="316" y="-155.4" font-family="Lato" font-size="12.00" fill="#1f78b4">⓿</text>
</g>
<!-- 2&#45;&gt;2 -->
<g id="edge7" class="edge">
<title>2&#45;&gt;2</title>
<path fill="none" stroke="#000000" d="M317.375,-133.2813C313.625,-153.25 315.5,-178 323,-178 329.6211,-178 331.8583,-158.7109 329.7116,-140.451"/>
<polygon fill="#000000" stroke="#000000" points="328.625,-133.2813 332.7884,-139.7302 329.1495,-136.7417 329.674,-140.2022 329.674,-140.2022 329.674,-140.2022 329.1495,-136.7417 326.5596,-140.6743 328.625,-133.2813 328.625,-133.2813"/>
<text text-anchor="start" x="319.5" y="-181.4" font-family="Lato" font-size="12.00" fill="#000000">b</text>
</g>
<!-- 4&#45;&gt;4 -->
<g id="edge11" class="edge">
<title>4&#45;&gt;4</title>
<path fill="none" stroke="#000000" d="M315.9688,-34.6641C314.4063,-44.625 316.75,-54 323,-54 327.6875,-54 330.1777,-48.7266 330.4707,-41.8876"/>
<polygon fill="#000000" stroke="#000000" points="330.0313,-34.6641 333.6006,-41.4598 330.2438,-38.1576 330.4564,-41.6511 330.4564,-41.6511 330.4564,-41.6511 330.2438,-38.1576 327.3122,-41.8425 330.0313,-34.6641 330.0313,-34.6641"/>
<text text-anchor="start" x="319.5" y="-70.4" font-family="Lato" font-size="12.00" fill="#000000">1</text>
<text text-anchor="start" x="316" y="-57.4" font-family="Lato" font-size="12.00" fill="#1f78b4">⓿</text>
</g>
</g>
</svg>
