<?xml version="1.0" encoding="UTF-8" standalone="no"?>
<?xml-stylesheet href="spot.css" type="text/css"?>
<!DOCTYPE svg PUBLIC "-//W3C//DTD SVG 1.1//EN"
 "http://www.w3.org/Graphics/SVG/1.1/DTD/svg11.dtd">
<!-- Generated by graphviz version 2.40.1 (20161225.0304)
 -->
<!-- Title: a U X(b | GF!b) Pages: 1 -->
<svg width="447pt" height="211pt"
 viewBox="0.00 0.00 447.00 211.40" xmlns="http://www.w3.org/2000/svg" xmlns:xlink="http://www.w3.org/1999/xlink">
<g id="graph0" class="graph" transform="scale(1 1) rotate(0) translate(4 207.4)">
<title>a U X(b | GF!b)</title>
<polygon fill="#ffffff" stroke="transparent" points="-4,4 -4,-207.4 443,-207.4 443,4 -4,4"/>
<text text-anchor="start" x="200.5" y="-176.8" font-family="Lato" font-size="12.00" fill="#000000">[Büchi]</text>
<!-- I -->
<!-- 0 -->
<g id="node2" class="node">
<title>0</title>
<ellipse fill="#ffffa0" stroke="#000000" cx="56" cy="-67" rx="18" ry="18"/>
<text text-anchor="middle" x="56" y="-63.9" font-family="Lato" font-size="12.00" fill="#000000">0</text>
</g>
<!-- I&#45;&gt;0 -->
<g id="edge1" class="edge">
<title>I&#45;&gt;0</title>
<path fill="none" stroke="#000000" d="M1.1233,-67C4.178,-67 17.9448,-67 30.9241,-67"/>
<polygon fill="#000000" stroke="#000000" points="37.9807,-67 30.9808,-70.1501 34.4807,-67 30.9807,-67.0001 30.9807,-67.0001 30.9807,-67.0001 34.4807,-67 30.9807,-63.8501 37.9807,-67 37.9807,-67"/>
</g>
<!-- 1 -->
<g id="node3" class="node">
<title>1</title>
<ellipse fill="#ffffa0" stroke="#000000" cx="249" cy="-84" rx="18" ry="18"/>
<text text-anchor="middle" x="249" y="-80.9" font-family="Lato" font-size="12.00" fill="#000000">1</text>
</g>
<!-- 0&#45;&gt;1 -->
<g id="edge2" class="edge">
<title>0&#45;&gt;1</title>
<path fill="none" stroke="#000000" d="M73.0905,-73.1097C85.1769,-77.0958 101.8594,-81.9297 117,-84 153.9424,-89.0515 197.2461,-87.6819 223.9028,-86.0128"/>
<polygon fill="#000000" stroke="#000000" points="230.9608,-85.5391 224.1875,-89.1508 227.4687,-85.7735 223.9765,-86.0079 223.9765,-86.0079 223.9765,-86.0079 227.4687,-85.7735 223.7656,-82.865 230.9608,-85.5391 230.9608,-85.5391"/>
<text text-anchor="start" x="134" y="-90.4" font-family="Lato" font-size="12.00" fill="#000000">!a</text>
</g>
<!-- 2 -->
<g id="node4" class="node">
<title>2</title>
<ellipse fill="#ffffa0" stroke="#000000" cx="139" cy="-22" rx="18" ry="18"/>
<ellipse fill="none" stroke="#000000" cx="139" cy="-22" rx="22" ry="22"/>
<text text-anchor="middle" x="139" y="-18.9" font-family="Lato" font-size="12.00" fill="#000000">2</text>
</g>
<!-- 0&#45;&gt;2 -->
<g id="edge3" class="edge">
<title>0&#45;&gt;2</title>
<path fill="none" stroke="#000000" d="M72.0032,-58.3235C83.6622,-52.0024 99.7048,-43.3046 113.1684,-36.0051"/>
<polygon fill="#000000" stroke="#000000" points="119.5402,-32.5505 114.8878,-38.6561 116.4633,-34.2187 113.3864,-35.8869 113.3864,-35.8869 113.3864,-35.8869 116.4633,-34.2187 111.885,-33.1177 119.5402,-32.5505 119.5402,-32.5505"/>
<text text-anchor="start" x="92" y="-51.4" font-family="Lato" font-size="12.00" fill="#000000">a</text>
</g>
<!-- 4 -->
<g id="node5" class="node">
<title>4</title>
<ellipse fill="#ffffa0" stroke="#000000" cx="335" cy="-115" rx="18" ry="18"/>
<ellipse fill="none" stroke="#000000" cx="335" cy="-115" rx="22" ry="22"/>
<text text-anchor="middle" x="335" y="-111.9" font-family="Lato" font-size="12.00" fill="#000000">4</text>
</g>
<!-- 1&#45;&gt;4 -->
<g id="edge4" class="edge">
<title>1&#45;&gt;4</title>
<path fill="none" stroke="#000000" d="M265.9908,-90.1246C277.746,-94.3619 293.6552,-100.0966 307.2357,-104.9919"/>
<polygon fill="#000000" stroke="#000000" points="314.0909,-107.463 306.4374,-108.0525 310.7983,-106.2761 307.5056,-105.0892 307.5056,-105.0892 307.5056,-105.0892 310.7983,-106.2761 308.5739,-102.1258 314.0909,-107.463 314.0909,-107.463"/>
<text text-anchor="start" x="285" y="-103.4" font-family="Lato" font-size="12.00" fill="#000000">!b</text>
</g>
<!-- 5 -->
<g id="node6" class="node">
<title>5</title>
<ellipse fill="#ffffa0" stroke="#000000" cx="335" cy="-22" rx="18" ry="18"/>
<ellipse fill="none" stroke="#000000" cx="335" cy="-22" rx="22" ry="22"/>
<text text-anchor="middle" x="335" y="-18.9" font-family="Lato" font-size="12.00" fill="#000000">5</text>
</g>
<!-- 1&#45;&gt;5 -->
<g id="edge5" class="edge">
<title>1&#45;&gt;5</title>
<path fill="none" stroke="#000000" d="M263.9801,-73.2004C276.9803,-63.8281 296.0329,-50.0926 311.132,-39.2071"/>
<polygon fill="#000000" stroke="#000000" points="316.9126,-35.0397 313.0765,-41.6886 314.0735,-37.0866 311.2344,-39.1334 311.2344,-39.1334 311.2344,-39.1334 314.0735,-37.0866 309.3922,-36.5782 316.9126,-35.0397 316.9126,-35.0397"/>
<text text-anchor="start" x="286.5" y="-60.4" font-family="Lato" font-size="12.00" fill="#000000">b</text>
</g>
<!-- 2&#45;&gt;1 -->
<g id="edge6" class="edge">
<title>2&#45;&gt;1</title>
<path fill="none" stroke="#000000" d="M158.4126,-32.9416C177.5576,-43.7325 206.7846,-60.2059 226.8321,-71.5053"/>
<polygon fill="#000000" stroke="#000000" points="232.994,-74.9785 225.3492,-74.2854 229.945,-73.2599 226.8959,-71.5413 226.8959,-71.5413 226.8959,-71.5413 229.945,-73.2599 228.4427,-68.7972 232.994,-74.9785 232.994,-74.9785"/>
<text text-anchor="start" x="179" y="-66.4" font-family="Lato" font-size="12.00" fill="#000000">!a &amp; !b</text>
</g>
<!-- 2&#45;&gt;2 -->
<g id="edge7" class="edge">
<title>2&#45;&gt;2</title>
<path fill="none" stroke="#000000" d="M131.3173,-42.9908C130.3688,-53.0872 132.9297,-62 139,-62 143.5527,-62 146.1314,-56.9866 146.7361,-50.2204"/>
<polygon fill="#000000" stroke="#000000" points="146.6827,-42.9908 149.8844,-49.9673 146.7086,-46.4907 146.7345,-49.9906 146.7345,-49.9906 146.7345,-49.9906 146.7086,-46.4907 143.5846,-50.0139 146.6827,-42.9908 146.6827,-42.9908"/>
<text text-anchor="start" x="123.5" y="-65.4" font-family="Lato" font-size="12.00" fill="#000000">a &amp; !b</text>
</g>
<!-- 2&#45;&gt;5 -->
<g id="edge8" class="edge">
<title>2&#45;&gt;5</title>
<path fill="none" stroke="#000000" d="M161.1027,-22C196.6346,-22 266.4646,-22 305.9696,-22"/>
<polygon fill="#000000" stroke="#000000" points="312.9781,-22 305.9781,-25.1501 309.4781,-22 305.9781,-22.0001 305.9781,-22.0001 305.9781,-22.0001 309.4781,-22 305.978,-18.8501 312.9781,-22 312.9781,-22"/>
<text text-anchor="start" x="245.5" y="-25.4" font-family="Lato" font-size="12.00" fill="#000000">b</text>
</g>
<!-- 4&#45;&gt;4 -->
<g id="edge12" class="edge">
<title>4&#45;&gt;4</title>
<path fill="none" stroke="#000000" d="M326.9937,-135.5808C325.8859,-145.8447 328.5547,-155 335,-155 339.834,-155 342.5437,-149.8502 343.129,-142.9451"/>
<polygon fill="#000000" stroke="#000000" points="343.0063,-135.5808 346.2726,-142.5273 343.0647,-139.0803 343.123,-142.5798 343.123,-142.5798 343.123,-142.5798 343.0647,-139.0803 339.9735,-142.6324 343.0063,-135.5808 343.0063,-135.5808"/>
<text text-anchor="start" x="330" y="-158.4" font-family="Lato" font-size="12.00" fill="#000000">!b</text>
</g>
<!-- 3 -->
<g id="node7" class="node">
<title>3</title>
<ellipse fill="#ffffa0" stroke="#000000" cx="421" cy="-115" rx="18" ry="18"/>
<text text-anchor="middle" x="421" y="-111.9" font-family="Lato" font-size="12.00" fill="#000000">3</text>
</g>
<!-- 4&#45;&gt;3 -->
<g id="edge11" class="edge">
<title>4&#45;&gt;3</title>
<path fill="none" stroke="#000000" d="M357.1471,-115C368.9344,-115 383.48,-115 395.7097,-115"/>
<polygon fill="#000000" stroke="#000000" points="402.9798,-115 395.9798,-118.1501 399.4798,-115 395.9798,-115.0001 395.9798,-115.0001 395.9798,-115.0001 399.4798,-115 395.9797,-111.8501 402.9798,-115 402.9798,-115"/>
<text text-anchor="start" x="376.5" y="-118.4" font-family="Lato" font-size="12.00" fill="#000000">b</text>
</g>
<!-- 5&#45;&gt;5 -->
<g id="edge13" class="edge">
<title>5&#45;&gt;5</title>
<path fill="none" stroke="#000000" d="M326.9937,-42.5808C325.8859,-52.8447 328.5547,-62 335,-62 339.834,-62 342.5437,-56.8502 343.129,-49.9451"/>
<polygon fill="#000000" stroke="#000000" points="343.0063,-42.5808 346.2726,-49.5273 343.0647,-46.0803 343.123,-49.5798 343.123,-49.5798 343.123,-49.5798 343.0647,-46.0803 339.9735,-49.6324 343.0063,-42.5808 343.0063,-42.5808"/>
<text text-anchor="middle" x="335" y="-65.4" font-family="Lato" font-size="12.00" fill="#000000">1</text>
</g>
<!-- 3&#45;&gt;4 -->
<g id="edge10" class="edge">
<title>3&#45;&gt;4</title>
<path fill="none" stroke="#000000" d="M405.4151,-105.8008C399.2707,-102.6734 392.0141,-99.5728 385,-98 376.9175,-96.1876 368.3126,-97.7716 360.5606,-100.5806"/>
<polygon fill="#000000" stroke="#000000" points="353.7207,-103.4423 358.9625,-97.8345 356.9495,-102.0914 360.1783,-100.7404 360.1783,-100.7404 360.1783,-100.7404 356.9495,-102.0914 361.3941,-103.6464 353.7207,-103.4423 353.7207,-103.4423"/>
<text text-anchor="start" x="375" y="-101.4" font-family="Lato" font-size="12.00" fill="#000000">!b</text>
</g>
<!-- 3&#45;&gt;3 -->
<g id="edge9" class="edge">
<title>3&#45;&gt;3</title>
<path fill="none" stroke="#000000" d="M413.9688,-131.6641C412.4063,-141.625 414.75,-151 421,-151 425.6875,-151 428.1777,-145.7266 428.4707,-138.8876"/>
<polygon fill="#000000" stroke="#000000" points="428.0313,-131.6641 431.6006,-138.4598 428.2438,-135.1576 428.4564,-138.6511 428.4564,-138.6511 428.4564,-138.6511 428.2438,-135.1576 425.3122,-138.8425 428.0313,-131.6641 428.0313,-131.6641"/>
<text text-anchor="start" x="417.5" y="-154.4" font-family="Lato" font-size="12.00" fill="#000000">b</text>
</g>
</g>
</svg>
