<?xml version="1.0" encoding="UTF-8" standalone="no"?>
<?xml-stylesheet href="spot.css" type="text/css"?>
<!DOCTYPE svg PUBLIC "-//W3C//DTD SVG 1.1//EN"
 "http://www.w3.org/Graphics/SVG/1.1/DTD/svg11.dtd">
<!-- Generated by graphviz version 2.40.1 (20161225.0304)
 -->
<!-- Pages: 1 -->
<svg width="502pt" height="266pt"
 viewBox="0.00 0.00 501.90 266.11" xmlns="http://www.w3.org/2000/svg" xmlns:xlink="http://www.w3.org/1999/xlink">
<g id="graph0" class="graph" transform="scale(1 1) rotate(0) translate(4 262.1142)">
<polygon fill="#ffffff" stroke="transparent" points="-4,4 -4,-262.1142 497.9016,-262.1142 497.9016,4 -4,4"/>
<text text-anchor="start" x="152.4508" y="-245.5142" font-family="Lato" font-size="12.00" fill="#000000">(Fin(</text>
<text text-anchor="start" x="175.4508" y="-245.5142" font-family="Lato" font-size="12.00" fill="#1f78b4">⓿</text>
<text text-anchor="start" x="189.4508" y="-245.5142" font-family="Lato" font-size="12.00" fill="#000000">) | Inf(</text>
<text text-anchor="start" x="219.4508" y="-245.5142" font-family="Lato" font-size="12.00" fill="#ff4da0">❶</text>
<text text-anchor="start" x="233.4508" y="-245.5142" font-family="Lato" font-size="12.00" fill="#000000">)) &amp; (Fin(</text>
<text text-anchor="start" x="276.4508" y="-245.5142" font-family="Lato" font-size="12.00" fill="#ff7f00">❷</text>
<text text-anchor="start" x="290.4508" y="-245.5142" font-family="Lato" font-size="12.00" fill="#000000">) | Inf(</text>
<text text-anchor="start" x="320.4508" y="-245.5142" font-family="Lato" font-size="12.00" fill="#6a3d9a">❸</text>
<text text-anchor="start" x="334.4508" y="-245.5142" font-family="Lato" font-size="12.00" fill="#000000">))</text>
<text text-anchor="start" x="219.9508" y="-233.5142" font-family="Lato" font-size="12.00" fill="#000000">[Streett 2]</text>
<!-- I -->
<!-- 0 -->
<g id="node2" class="node">
<title>0</title>
<ellipse fill="#ffffa0" stroke="#000000" cx="69.1127" cy="-51.1142" rx="31.2258" ry="31.2258"/>
<text text-anchor="start" x="65.6127" y="-54.5142" font-family="Lato" font-size="12.00" fill="#000000">0</text>
<text text-anchor="start" x="55.1127" y="-42.5142" font-family="Lato" font-size="12.00" fill="#ff4da0">❶</text>
<text text-anchor="start" x="69.1127" y="-42.5142" font-family="Lato" font-size="12.00" fill="#6a3d9a">❸</text>
</g>
<!-- I&#45;&gt;0 -->
<g id="edge1" class="edge">
<title>I&#45;&gt;0</title>
<path fill="none" stroke="#000000" d="M1.2706,-51.1142C4.455,-51.1142 17.0566,-51.1142 30.5503,-51.1142"/>
<polygon fill="#000000" stroke="#000000" points="37.6428,-51.1142 30.6428,-54.2643 34.1428,-51.1142 30.6428,-51.1143 30.6428,-51.1143 30.6428,-51.1143 34.1428,-51.1142 30.6427,-47.9643 37.6428,-51.1142 37.6428,-51.1142"/>
</g>
<!-- 0&#45;&gt;0 -->
<g id="edge2" class="edge">
<title>0&#45;&gt;0</title>
<path fill="none" stroke="#000000" d="M60.1149,-81.3285C60.0197,-91.7836 63.0189,-100.2269 69.1127,-100.2269 73.683,-100.2269 76.5127,-95.4775 77.6017,-88.6921"/>
<polygon fill="#000000" stroke="#000000" points="78.1105,-81.3285 80.7704,-88.529 77.8692,-84.8202 77.6279,-88.3119 77.6279,-88.3119 77.6279,-88.3119 77.8692,-84.8202 74.4854,-88.0947 78.1105,-81.3285 78.1105,-81.3285"/>
<text text-anchor="start" x="55.1127" y="-103.6269" font-family="Lato" font-size="12.00" fill="#000000">a &amp; b</text>
</g>
<!-- 1 -->
<g id="node3" class="node">
<title>1</title>
<ellipse fill="#ffffa0" stroke="#000000" cx="198.3381" cy="-145.1142" rx="31.2258" ry="31.2258"/>
<text text-anchor="start" x="194.8381" y="-148.5142" font-family="Lato" font-size="12.00" fill="#000000">1</text>
<text text-anchor="start" x="184.3381" y="-136.5142" font-family="Lato" font-size="12.00" fill="#1f78b4">⓿</text>
<text text-anchor="start" x="198.3381" y="-136.5142" font-family="Lato" font-size="12.00" fill="#6a3d9a">❸</text>
</g>
<!-- 0&#45;&gt;1 -->
<g id="edge3" class="edge">
<title>0&#45;&gt;1</title>
<path fill="none" stroke="#000000" d="M82.2412,-79.3869C90.5697,-94.4202 102.7096,-112.0352 118.2254,-123.1142 130.4202,-131.8218 145.9111,-137.0851 160.0144,-140.2656"/>
<polygon fill="#000000" stroke="#000000" points="167.2382,-141.7462 159.7483,-143.4265 163.8095,-141.0434 160.3808,-140.3407 160.3808,-140.3407 160.3808,-140.3407 163.8095,-141.0434 161.0133,-137.2548 167.2382,-141.7462 167.2382,-141.7462"/>
<text text-anchor="start" x="118.2254" y="-140.5142" font-family="Lato" font-size="12.00" fill="#000000">!a &amp; b</text>
</g>
<!-- 2 -->
<g id="node4" class="node">
<title>2</title>
<ellipse fill="#ffffa0" stroke="#000000" cx="462.7889" cy="-75.1142" rx="31.2258" ry="31.2258"/>
<text text-anchor="start" x="459.2889" y="-78.5142" font-family="Lato" font-size="12.00" fill="#000000">2</text>
<text text-anchor="start" x="448.7889" y="-66.5142" font-family="Lato" font-size="12.00" fill="#ff4da0">❶</text>
<text text-anchor="start" x="462.7889" y="-66.5142" font-family="Lato" font-size="12.00" fill="#ff7f00">❷</text>
</g>
<!-- 0&#45;&gt;2 -->
<g id="edge4" class="edge">
<title>0&#45;&gt;2</title>
<path fill="none" stroke="#000000" d="M98.6981,-40.8174C105.0697,-38.9564 111.8169,-37.249 118.2254,-36.1142 224.769,-17.2468 255.5321,-14.1154 361.6762,-35.1142 384.7028,-39.6696 409.2144,-49.2361 428.3364,-57.8713"/>
<polygon fill="#000000" stroke="#000000" points="434.864,-60.8771 427.1881,-60.8104 431.6848,-59.4131 428.5057,-57.9492 428.5057,-57.9492 428.5057,-57.9492 431.6848,-59.4131 429.8232,-55.088 434.864,-60.8771 434.864,-60.8771"/>
<text text-anchor="start" x="248.9508" y="-25.5142" font-family="Lato" font-size="12.00" fill="#000000">a &amp; !b</text>
</g>
<!-- 3 -->
<g id="node5" class="node">
<title>3</title>
<ellipse fill="#ffffa0" stroke="#000000" cx="330.5635" cy="-75.1142" rx="31.2258" ry="31.2258"/>
<text text-anchor="start" x="327.0635" y="-78.5142" font-family="Lato" font-size="12.00" fill="#000000">3</text>
<text text-anchor="start" x="316.5635" y="-66.5142" font-family="Lato" font-size="12.00" fill="#1f78b4">⓿</text>
<text text-anchor="start" x="330.5635" y="-66.5142" font-family="Lato" font-size="12.00" fill="#ff7f00">❷</text>
</g>
<!-- 0&#45;&gt;3 -->
<g id="edge5" class="edge">
<title>0&#45;&gt;3</title>
<path fill="none" stroke="#000000" d="M100.1312,-53.9615C148.0602,-58.3612 240.0142,-66.8021 292.1022,-71.5836"/>
<polygon fill="#000000" stroke="#000000" points="299.1787,-72.2332 291.92,-74.73 295.6933,-71.9132 292.208,-71.5932 292.208,-71.5932 292.208,-71.5932 295.6933,-71.9132 292.496,-68.4564 299.1787,-72.2332 299.1787,-72.2332"/>
<text text-anchor="start" x="181.3381" y="-68.5142" font-family="Lato" font-size="12.00" fill="#000000">!a &amp; !b</text>
</g>
<!-- 1&#45;&gt;0 -->
<g id="edge6" class="edge">
<title>1&#45;&gt;0</title>
<path fill="none" stroke="#000000" d="M174.3021,-125.0759C166.4605,-118.7981 157.6113,-111.9813 149.2254,-106.1142 135.9847,-96.8503 131.6424,-96.1208 118.2254,-87.1142 112.2347,-83.0927 105.9475,-78.6567 99.9478,-74.3131"/>
<polygon fill="#000000" stroke="#000000" points="94.0654,-70.0191 101.5765,-71.6021 96.8923,-72.0827 99.7192,-74.1463 99.7192,-74.1463 99.7192,-74.1463 96.8923,-72.0827 97.862,-76.6906 94.0654,-70.0191 94.0654,-70.0191"/>
<text text-anchor="start" x="119.7254" y="-109.5142" font-family="Lato" font-size="12.00" fill="#000000">a &amp; b</text>
</g>
<!-- 1&#45;&gt;1 -->
<g id="edge7" class="edge">
<title>1&#45;&gt;1</title>
<path fill="none" stroke="#000000" d="M186.385,-173.8687C185.8537,-184.9863 189.8381,-194.2269 198.3381,-194.2269 204.8459,-194.2269 208.7067,-188.8102 209.9206,-181.2816"/>
<polygon fill="#000000" stroke="#000000" points="210.2912,-173.8687 213.0877,-181.0173 210.1164,-177.3643 209.9416,-180.8599 209.9416,-180.8599 209.9416,-180.8599 210.1164,-177.3643 206.7955,-180.7026 210.2912,-173.8687 210.2912,-173.8687"/>
<text text-anchor="start" x="182.8381" y="-197.6269" font-family="Lato" font-size="12.00" fill="#000000">!a &amp; b</text>
</g>
<!-- 1&#45;&gt;2 -->
<g id="edge8" class="edge">
<title>1&#45;&gt;2</title>
<path fill="none" stroke="#000000" d="M219.2286,-168.2293C227.2718,-175.6013 237.0426,-182.9261 247.4508,-187.1142 315.9883,-214.6925 353.0202,-229.2901 413.6762,-187.1142 438.055,-170.1629 450.4548,-138.3073 456.6883,-112.8906"/>
<polygon fill="#000000" stroke="#000000" points="458.2877,-105.9103 459.7946,-113.4371 457.506,-109.3219 456.7242,-112.7335 456.7242,-112.7335 456.7242,-112.7335 457.506,-109.3219 453.6538,-112.0299 458.2877,-105.9103 458.2877,-105.9103"/>
<text text-anchor="start" x="315.0635" y="-216.5142" font-family="Lato" font-size="12.00" fill="#000000">a &amp; !b</text>
</g>
<!-- 1&#45;&gt;3 -->
<g id="edge9" class="edge">
<title>1&#45;&gt;3</title>
<path fill="none" stroke="#000000" d="M229.4001,-140.8096C245.6749,-137.6111 265.4851,-132.1784 281.4508,-123.1142 290.0434,-118.2359 298.2197,-111.4857 305.3487,-104.5867"/>
<polygon fill="#000000" stroke="#000000" points="310.5857,-99.3106 307.89,-106.4979 308.12,-101.7947 305.6544,-104.2788 305.6544,-104.2788 305.6544,-104.2788 308.12,-101.7947 303.4187,-102.0596 310.5857,-99.3106 310.5857,-99.3106"/>
<text text-anchor="start" x="247.4508" y="-139.5142" font-family="Lato" font-size="12.00" fill="#000000">!a &amp; !b</text>
</g>
<!-- 2&#45;&gt;0 -->
<g id="edge10" class="edge">
<title>2&#45;&gt;0</title>
<path fill="none" stroke="#000000" d="M440.1766,-53.5069C432.2742,-46.8581 423.0294,-40.0093 413.6762,-35.1142 360.1061,-7.0774 341.5849,-9.4155 281.4508,-3.1142 208.5885,4.5209 187.388,-1.9532 118.2254,-26.1142 113.0812,-27.9112 107.7951,-30.146 102.6848,-32.5349"/>
<polygon fill="#000000" stroke="#000000" points="96.3298,-35.6218 101.2499,-29.7299 99.478,-34.0925 102.6263,-32.5633 102.6263,-32.5633 102.6263,-32.5633 99.478,-34.0925 104.0026,-35.3967 96.3298,-35.6218 96.3298,-35.6218"/>
<text text-anchor="start" x="250.4508" y="-6.5142" font-family="Lato" font-size="12.00" fill="#000000">a &amp; b</text>
</g>
<!-- 2&#45;&gt;1 -->
<g id="edge11" class="edge">
<title>2&#45;&gt;1</title>
<path fill="none" stroke="#000000" d="M439.91,-96.5556C420.636,-113.209 391.5014,-135.2402 361.6762,-146.1142 320.6355,-161.0772 269.8443,-157.6707 235.897,-152.5839"/>
<polygon fill="#000000" stroke="#000000" points="228.9182,-151.4789 236.3247,-149.4625 232.3751,-152.0263 235.8321,-152.5737 235.8321,-152.5737 235.8321,-152.5737 232.3751,-152.0263 235.3394,-155.685 228.9182,-151.4789 228.9182,-151.4789"/>
<text text-anchor="start" x="315.0635" y="-159.5142" font-family="Lato" font-size="12.00" fill="#000000">!a &amp; b</text>
</g>
<!-- 2&#45;&gt;2 -->
<g id="edge12" class="edge">
<title>2&#45;&gt;2</title>
<path fill="none" stroke="#000000" d="M450.4622,-103.8687C449.9144,-114.9863 454.0233,-124.2269 462.7889,-124.2269 469.5001,-124.2269 473.4816,-118.8102 474.7334,-111.2816"/>
<polygon fill="#000000" stroke="#000000" points="475.1155,-103.8687 477.9009,-111.0216 474.9353,-107.364 474.755,-110.8594 474.755,-110.8594 474.755,-110.8594 474.9353,-107.364 471.6092,-110.6971 475.1155,-103.8687 475.1155,-103.8687"/>
<text text-anchor="start" x="447.2889" y="-127.6269" font-family="Lato" font-size="12.00" fill="#000000">a &amp; !b</text>
</g>
<!-- 2&#45;&gt;3 -->
<g id="edge13" class="edge">
<title>2&#45;&gt;3</title>
<path fill="none" stroke="#000000" d="M431.22,-75.1142C412.5408,-75.1142 388.7457,-75.1142 368.9814,-75.1142"/>
<polygon fill="#000000" stroke="#000000" points="361.8991,-75.1142 368.8991,-71.9643 365.3991,-75.1142 368.8991,-75.1143 368.8991,-75.1143 368.8991,-75.1143 365.3991,-75.1142 368.899,-78.2643 361.8991,-75.1142 361.8991,-75.1142"/>
<text text-anchor="start" x="379.6762" y="-78.5142" font-family="Lato" font-size="12.00" fill="#000000">!a &amp; !b</text>
</g>
<!-- 3&#45;&gt;0 -->
<g id="edge14" class="edge">
<title>3&#45;&gt;0</title>
<path fill="none" stroke="#000000" d="M301.4907,-63.295C281.5852,-55.8586 254.3802,-46.9648 229.4508,-43.1142 187.9663,-36.7063 139.798,-40.6071 107.1689,-44.9049"/>
<polygon fill="#000000" stroke="#000000" points="100.0419,-45.8826 106.5489,-41.8104 103.5095,-45.4069 106.977,-44.9311 106.977,-44.9311 106.977,-44.9311 103.5095,-45.4069 107.4051,-48.0519 100.0419,-45.8826 100.0419,-45.8826"/>
<text text-anchor="start" x="184.3381" y="-46.5142" font-family="Lato" font-size="12.00" fill="#000000">a &amp; b</text>
</g>
<!-- 3&#45;&gt;1 -->
<g id="edge15" class="edge">
<title>3&#45;&gt;1</title>
<path fill="none" stroke="#000000" d="M300.3226,-83.8509C284.0985,-89.1574 264.079,-96.724 247.4508,-106.1142 240.6277,-109.9672 233.7594,-114.7362 227.4106,-119.6015"/>
<polygon fill="#000000" stroke="#000000" points="221.7423,-124.0733 225.287,-117.2646 224.4901,-121.9055 227.238,-119.7377 227.238,-119.7377 227.238,-119.7377 224.4901,-121.9055 229.189,-122.2107 221.7423,-124.0733 221.7423,-124.0733"/>
<text text-anchor="start" x="248.9508" y="-109.5142" font-family="Lato" font-size="12.00" fill="#000000">!a &amp; b</text>
</g>
<!-- 3&#45;&gt;2 -->
<g id="edge16" class="edge">
<title>3&#45;&gt;2</title>
<path fill="none" stroke="#000000" d="M359.492,-63.3197C366.0242,-61.1603 373.0028,-59.2365 379.6762,-58.1142 394.578,-55.608 398.7743,-55.608 413.6762,-58.1142 418.0556,-58.8507 422.5665,-59.9324 426.9964,-61.1993"/>
<polygon fill="#000000" stroke="#000000" points="433.8604,-63.3197 426.2425,-64.2632 430.5163,-62.2866 427.1722,-61.2536 427.1722,-61.2536 427.1722,-61.2536 430.5163,-62.2866 428.102,-58.2439 433.8604,-63.3197 433.8604,-63.3197"/>
<text text-anchor="start" x="381.1762" y="-61.5142" font-family="Lato" font-size="12.00" fill="#000000">a &amp; !b</text>
</g>
<!-- 3&#45;&gt;3 -->
<g id="edge17" class="edge">
<title>3&#45;&gt;3</title>
<path fill="none" stroke="#000000" d="M318.2368,-103.8687C317.689,-114.9863 321.7979,-124.2269 330.5635,-124.2269 337.2747,-124.2269 341.2562,-118.8102 342.508,-111.2816"/>
<polygon fill="#000000" stroke="#000000" points="342.8902,-103.8687 345.6755,-111.0216 342.7099,-107.364 342.5296,-110.8594 342.5296,-110.8594 342.5296,-110.8594 342.7099,-107.364 339.3838,-110.6971 342.8902,-103.8687 342.8902,-103.8687"/>
<text text-anchor="start" x="313.5635" y="-127.6269" font-family="Lato" font-size="12.00" fill="#000000">!a &amp; !b</text>
</g>
</g>
</svg>
