<?xml version="1.0" encoding="UTF-8" standalone="no"?>
<?xml-stylesheet href="spot.css" type="text/css"?>
<!DOCTYPE svg PUBLIC "-//W3C//DTD SVG 1.1//EN"
 "http://www.w3.org/Graphics/SVG/1.1/DTD/svg11.dtd">
<!-- Generated by graphviz version 2.40.1 (20161225.0304)
 -->
<!-- Title: G Pages: 1 -->
<svg width="615pt" height="420pt"
 viewBox="0.00 0.00 615.00 419.51" xmlns="http://www.w3.org/2000/svg" xmlns:xlink="http://www.w3.org/1999/xlink">
<g id="graph0" class="graph" transform="scale(1 1) rotate(0) translate(4 415.5115)">
<title>G</title>
<polygon fill="#ffffff" stroke="transparent" points="-4,4 -4,-415.5115 611,-415.5115 611,4 -4,4"/>
<!-- 0 -->
<!-- 1 -->
<g id="node2" class="node">
<title>1</title>
<ellipse fill="#ffffa0" stroke="#000000" cx="118" cy="-312.5115" rx="27" ry="18"/>
<text text-anchor="middle" x="118" y="-309.4115" font-family="Lato" font-size="12.00" fill="#000000">init</text>
</g>
<!-- 0&#45;&gt;1 -->
<g id="edge1" class="edge">
<title>0&#45;&gt;1</title>
<path fill="none" stroke="#000000" d="M54.303,-312.5115C63.4811,-312.5115 73.8419,-312.5115 83.4994,-312.5115"/>
<polygon fill="#000000" stroke="#000000" points="90.7163,-312.5115 83.7163,-315.6616 87.2163,-312.5116 83.7163,-312.5116 83.7163,-312.5116 83.7163,-312.5116 87.2163,-312.5116 83.7162,-309.3616 90.7163,-312.5115 90.7163,-312.5115"/>
</g>
<!-- 2 -->
<g id="node3" class="node">
<title>2</title>
<polygon fill="#ffffa0" stroke="#000000" points="263,-180.5115 209,-180.5115 209,-144.5115 263,-144.5115 263,-180.5115"/>
<text text-anchor="middle" x="236" y="-159.4115" font-family="Lato" font-size="12.00" fill="#000000">1</text>
</g>
<!-- 1&#45;&gt;2 -->
<g id="edge2" class="edge">
<title>1&#45;&gt;2</title>
<path fill="none" stroke="#000000" d="M128.3349,-295.8498C137.1048,-282.0343 150.2587,-262.0508 163,-245.5115 179.0985,-224.6145 198.9561,-202.2283 213.8944,-185.9772"/>
<polygon fill="#000000" stroke="#000000" points="218.7593,-180.7122 216.3223,-187.9913 216.384,-183.2829 214.0087,-185.8535 214.0087,-185.8535 214.0087,-185.8535 216.384,-183.2829 211.6951,-183.7158 218.7593,-180.7122 218.7593,-180.7122"/>
<text text-anchor="middle" x="177" y="-261.9115" font-family="Lato" font-size="12.00" fill="#000000">a &amp; b</text>
<text text-anchor="middle" x="177" y="-248.9115" font-family="Lato" font-size="12.00" fill="#000000">{}</text>
</g>
<!-- 3 -->
<g id="node4" class="node">
<title>3</title>
<ellipse fill="#ffffa0" stroke="#000000" cx="360" cy="-244.5115" rx="27" ry="18"/>
<text text-anchor="middle" x="360" y="-241.4115" font-family="Lato" font-size="12.00" fill="#000000">3</text>
</g>
<!-- 1&#45;&gt;3 -->
<g id="edge3" class="edge">
<title>1&#45;&gt;3</title>
<path fill="none" stroke="#000000" d="M144.351,-308.3083C182.6513,-301.7652 255.6093,-287.6577 315,-266.5115 320.7705,-264.4569 326.7723,-261.8674 332.4412,-259.193"/>
<polygon fill="#000000" stroke="#000000" points="338.9094,-256.0412 333.9965,-261.9393 335.763,-257.5744 332.6166,-259.1075 332.6166,-259.1075 332.6166,-259.1075 335.763,-257.5744 331.2368,-256.2758 338.9094,-256.0412 338.9094,-256.0412"/>
<text text-anchor="middle" x="236" y="-311.9115" font-family="Lato" font-size="12.00" fill="#000000">!a &amp; b</text>
<text text-anchor="middle" x="236" y="-298.9115" font-family="Lato" font-size="12.00" fill="#000000">{}</text>
</g>
<!-- 4 -->
<g id="node5" class="node">
<title>4</title>
<ellipse fill="#ffffa0" stroke="#000000" cx="580" cy="-211.5115" rx="27" ry="18"/>
<text text-anchor="middle" x="580" y="-208.4115" font-family="Lato" font-size="12.00" fill="#000000">4</text>
</g>
<!-- 1&#45;&gt;4 -->
<g id="edge4" class="edge">
<title>1&#45;&gt;4</title>
<path fill="none" stroke="#000000" d="M131.9011,-328.3514C152.3696,-349.8213 192.8799,-385.5115 236,-385.5115 236,-385.5115 236,-385.5115 475,-385.5115 543.7972,-385.5115 568.7079,-284.5642 576.6739,-236.4487"/>
<polygon fill="#000000" stroke="#000000" points="577.7704,-229.4772 579.7945,-236.8817 577.2266,-232.9347 576.6827,-236.3922 576.6827,-236.3922 576.6827,-236.3922 577.2266,-232.9347 573.571,-235.9028 577.7704,-229.4772 577.7704,-229.4772"/>
<text text-anchor="middle" x="360" y="-401.9115" font-family="Lato" font-size="12.00" fill="#000000">a &amp; !b</text>
<text text-anchor="middle" x="360" y="-388.9115" font-family="Lato" font-size="12.00" fill="#000000">{}</text>
</g>
<!-- 5 -->
<g id="node6" class="node">
<title>5</title>
<ellipse fill="#ffffa0" stroke="#000000" cx="475" cy="-195.5115" rx="27" ry="18"/>
<text text-anchor="middle" x="475" y="-192.4115" font-family="Lato" font-size="12.00" fill="#000000">2</text>
</g>
<!-- 1&#45;&gt;5 -->
<g id="edge5" class="edge">
<title>1&#45;&gt;5</title>
<path fill="none" stroke="#000000" d="M143.3415,-318.9177C172.4367,-325.3197 221.4961,-333.192 263,-325.5115 341.159,-311.0478 367.6564,-310.8197 430,-261.5115 437.8262,-255.3217 451.0723,-235.2372 461.1725,-218.8342"/>
<polygon fill="#000000" stroke="#000000" points="465.0084,-212.5377 464.0566,-220.1546 463.1874,-215.5268 461.3664,-218.5158 461.3664,-218.5158 461.3664,-218.5158 463.1874,-215.5268 458.6763,-216.8769 465.0084,-212.5377 465.0084,-212.5377"/>
<text text-anchor="middle" x="298" y="-337.9115" font-family="Lato" font-size="12.00" fill="#000000">!a &amp; !b</text>
<text text-anchor="middle" x="298" y="-324.9115" font-family="Lato" font-size="12.00" fill="#000000">{}</text>
</g>
<!-- 2&#45;&gt;3 -->
<g id="edge6" class="edge">
<title>2&#45;&gt;3</title>
<path fill="none" stroke="#000000" d="M263.0281,-171.0083C278.9886,-176.7658 299.1124,-185.3593 315,-196.5115 325.3748,-203.7941 335.2107,-213.7822 343.0254,-222.7619"/>
<polygon fill="#000000" stroke="#000000" points="347.6167,-228.1895 340.6909,-224.8796 345.3563,-225.5173 343.0958,-222.8452 343.0958,-222.8452 343.0958,-222.8452 345.3563,-225.5173 345.5008,-220.8108 347.6167,-228.1895 347.6167,-228.1895"/>
<text text-anchor="middle" x="298" y="-212.9115" font-family="Lato" font-size="12.00" fill="#000000">{a}</text>
<text text-anchor="middle" x="298" y="-199.9115" font-family="Lato" font-size="12.00" fill="#000000">{0,1}</text>
</g>
<!-- 2&#45;&gt;4 -->
<g id="edge7" class="edge">
<title>2&#45;&gt;4</title>
<path fill="none" stroke="#000000" d="M237.5721,-144.3472C240.8649,-117.687 250.8946,-68.14 281,-40.5115 331.0444,5.4154 362.9065,4.0805 430,-6.5115 478.4522,-14.1607 501.2965,-4.8717 535,-40.5115 554.8482,-61.5 569.8338,-144.0468 576.3793,-186.2985"/>
<polygon fill="#000000" stroke="#000000" points="577.4663,-193.4512 573.3003,-187.0039 576.9404,-189.9909 576.4145,-186.5306 576.4145,-186.5306 576.4145,-186.5306 576.9404,-189.9909 579.5288,-186.0574 577.4663,-193.4512 577.4663,-193.4512"/>
<text text-anchor="middle" x="417.5" y="-22.9115" font-family="Lato" font-size="12.00" fill="#000000">{b}</text>
<text text-anchor="middle" x="417.5" y="-9.9115" font-family="Lato" font-size="12.00" fill="#000000">{0,1}</text>
</g>
<!-- 2&#45;&gt;5 -->
<g id="edge8" class="edge">
<title>2&#45;&gt;5</title>
<path fill="none" stroke="#000000" d="M261.2507,-144.3601C291.3472,-125.0562 343.0886,-99.2486 387,-114.5115 417.7043,-125.1839 443.7638,-153.0933 459.3774,-173.1676"/>
<polygon fill="#000000" stroke="#000000" points="463.6903,-178.8592 456.952,-175.1825 461.5764,-176.0696 459.4626,-173.2801 459.4626,-173.2801 459.4626,-173.2801 461.5764,-176.0696 461.9732,-171.3776 463.6903,-178.8592 463.6903,-178.8592"/>
<text text-anchor="middle" x="360" y="-130.9115" font-family="Lato" font-size="12.00" fill="#000000">{a, b}</text>
<text text-anchor="middle" x="360" y="-117.9115" font-family="Lato" font-size="12.00" fill="#000000">{0,1}</text>
</g>
<!-- 3&#45;&gt;2 -->
<g id="edge9" class="edge">
<title>3&#45;&gt;2</title>
<path fill="none" stroke="#000000" d="M333.2723,-241.4898C317.0352,-238.6321 296.5164,-233.1143 281,-222.5115 267.7255,-213.4407 256.7875,-199.1616 249.0202,-186.8087"/>
<polygon fill="#000000" stroke="#000000" points="245.2519,-180.5623 251.5651,-184.9289 247.0599,-183.5592 248.8679,-186.5561 248.8679,-186.5561 248.8679,-186.5561 247.0599,-183.5592 246.1707,-188.1833 245.2519,-180.5623 245.2519,-180.5623"/>
<text text-anchor="middle" x="298" y="-252.9115" font-family="Lato" font-size="12.00" fill="#000000">{a}</text>
<text text-anchor="middle" x="298" y="-239.9115" font-family="Lato" font-size="12.00" fill="#000000">{1}</text>
</g>
<!-- 3&#45;&gt;4 -->
<g id="edge10" class="edge">
<title>3&#45;&gt;4</title>
<path fill="none" stroke="#000000" d="M382.4361,-254.8038C389.5041,-257.5477 397.4417,-260.1314 405,-261.5115 415.9304,-263.5073 418.9831,-262.9552 430,-261.5115 477.888,-255.2361 489.7589,-250.4197 535,-233.5115 540.7377,-231.3671 546.7248,-228.7373 552.3896,-226.0514"/>
<polygon fill="#000000" stroke="#000000" points="558.8573,-222.8985 553.9454,-228.7974 555.7112,-224.4322 552.5651,-225.9659 552.5651,-225.9659 552.5651,-225.9659 555.7112,-224.4322 551.1848,-223.1344 558.8573,-222.8985 558.8573,-222.8985"/>
<text text-anchor="middle" x="475" y="-274.9115" font-family="Lato" font-size="12.00" fill="#000000">{a, b}</text>
<text text-anchor="middle" x="475" y="-261.9115" font-family="Lato" font-size="12.00" fill="#000000">{1}</text>
</g>
<!-- 3&#45;&gt;5 -->
<g id="edge11" class="edge">
<title>3&#45;&gt;5</title>
<path fill="none" stroke="#000000" d="M385.4776,-238.0694C398.991,-234.2655 415.7088,-228.9359 430,-222.5115 436.6063,-219.5418 443.4493,-215.8126 449.7448,-212.0822"/>
<polygon fill="#000000" stroke="#000000" points="455.8287,-208.3794 451.4868,-214.7095 452.8389,-210.1991 449.8491,-212.0187 449.8491,-212.0187 449.8491,-212.0187 452.8389,-210.1991 448.2114,-209.3279 455.8287,-208.3794 455.8287,-208.3794"/>
<text text-anchor="middle" x="417.5" y="-247.9115" font-family="Lato" font-size="12.00" fill="#000000">{b}</text>
<text text-anchor="middle" x="417.5" y="-234.9115" font-family="Lato" font-size="12.00" fill="#000000">{1}</text>
</g>
<!-- 4&#45;&gt;2 -->
<g id="edge12" class="edge">
<title>4&#45;&gt;2</title>
<path fill="none" stroke="#000000" d="M568.7041,-194.8245C560.3009,-183.1962 548.0678,-167.8061 535,-156.5115 493.8257,-120.9242 482.4475,-108.0386 430,-93.5115 365.6083,-75.6761 339.8304,-81.8353 281,-113.5115 269.8834,-119.4971 260.0555,-129.3052 252.4427,-138.58"/>
<polygon fill="#000000" stroke="#000000" points="247.9972,-144.247 249.8392,-136.7951 250.1574,-141.4932 252.3177,-138.7394 252.3177,-138.7394 252.3177,-138.7394 250.1574,-141.4932 254.7961,-140.6836 247.9972,-144.247 247.9972,-144.247"/>
<text text-anchor="middle" x="417.5" y="-109.9115" font-family="Lato" font-size="12.00" fill="#000000">{b}</text>
<text text-anchor="middle" x="417.5" y="-96.9115" font-family="Lato" font-size="12.00" fill="#000000">{0}</text>
</g>
<!-- 4&#45;&gt;3 -->
<g id="edge13" class="edge">
<title>4&#45;&gt;3</title>
<path fill="none" stroke="#000000" d="M569.1698,-228.2492C555.9237,-247.0054 531.5737,-276.3733 502,-288.5115 461.7609,-305.0272 444.1964,-294.3687 405,-275.5115 397.6693,-271.9848 390.2006,-267.3425 383.5089,-262.7277"/>
<polygon fill="#000000" stroke="#000000" points="377.6082,-258.5302 385.1381,-260.021 380.4602,-260.559 383.3122,-262.5878 383.3122,-262.5878 383.3122,-262.5878 380.4602,-260.559 381.4863,-265.1546 377.6082,-258.5302 377.6082,-258.5302"/>
<text text-anchor="middle" x="475" y="-312.9115" font-family="Lato" font-size="12.00" fill="#000000">{a, b}</text>
<text text-anchor="middle" x="475" y="-299.9115" font-family="Lato" font-size="12.00" fill="#000000">{0}</text>
</g>
<!-- 4&#45;&gt;5 -->
<g id="edge14" class="edge">
<title>4&#45;&gt;5</title>
<path fill="none" stroke="#000000" d="M569.6935,-194.7925C561.7565,-183.6282 549.674,-169.8688 535,-163.5115 521.036,-157.4619 505.9217,-165.6184 494.3562,-175.2082"/>
<polygon fill="#000000" stroke="#000000" points="488.9842,-179.9752 492.1293,-172.9729 491.6022,-177.6521 494.2201,-175.329 494.2201,-175.329 494.2201,-175.329 491.6022,-177.6521 496.3108,-177.6852 488.9842,-179.9752 488.9842,-179.9752"/>
<text text-anchor="middle" x="527.5" y="-179.9115" font-family="Lato" font-size="12.00" fill="#000000">{a}</text>
<text text-anchor="middle" x="527.5" y="-166.9115" font-family="Lato" font-size="12.00" fill="#000000">{0}</text>
</g>
<!-- 5&#45;&gt;2 -->
<g id="edge15" class="edge">
<title>5&#45;&gt;2</title>
<path fill="none" stroke="#000000" d="M450.4361,-187.557C443.8553,-185.6626 436.7054,-183.8149 430,-182.5115 374.8473,-171.7912 309.6839,-166.5655 270.6601,-164.2154"/>
<polygon fill="#000000" stroke="#000000" points="263.2146,-163.783 270.3855,-161.0443 266.7087,-163.986 270.2028,-164.189 270.2028,-164.189 270.2028,-164.189 266.7087,-163.986 270.0201,-167.3337 263.2146,-163.783 263.2146,-163.783"/>
<text text-anchor="middle" x="360" y="-190.9115" font-family="Lato" font-size="12.00" fill="#000000">{a, b}</text>
<text text-anchor="middle" x="360" y="-177.9115" font-family="Lato" font-size="12.00" fill="#000000">{}</text>
</g>
<!-- 5&#45;&gt;3 -->
<g id="edge16" class="edge">
<title>5&#45;&gt;3</title>
<path fill="none" stroke="#000000" d="M449.6333,-188.9934C435.8423,-186.7579 418.8289,-186.1908 405,-192.5115 391.8071,-198.5416 381.0007,-210.5611 373.2873,-221.5263"/>
<polygon fill="#000000" stroke="#000000" points="369.3247,-227.465 370.5897,-219.8938 371.2674,-224.5536 373.21,-221.6422 373.21,-221.6422 373.21,-221.6422 371.2674,-224.5536 375.8303,-223.3905 369.3247,-227.465 369.3247,-227.465"/>
<text text-anchor="middle" x="417.5" y="-208.9115" font-family="Lato" font-size="12.00" fill="#000000">{b}</text>
<text text-anchor="middle" x="417.5" y="-195.9115" font-family="Lato" font-size="12.00" fill="#000000">{}</text>
</g>
<!-- 5&#45;&gt;4 -->
<g id="edge17" class="edge">
<title>5&#45;&gt;4</title>
<path fill="none" stroke="#000000" d="M501.4959,-199.549C515.1748,-201.6334 532.0046,-204.1979 546.5686,-206.4172"/>
<polygon fill="#000000" stroke="#000000" points="553.5125,-207.4753 546.1179,-209.5348 550.0525,-206.9481 546.5924,-206.4208 546.5924,-206.4208 546.5924,-206.4208 550.0525,-206.9481 547.067,-203.3067 553.5125,-207.4753 553.5125,-207.4753"/>
<text text-anchor="middle" x="527.5" y="-219.9115" font-family="Lato" font-size="12.00" fill="#000000">{a}</text>
<text text-anchor="middle" x="527.5" y="-206.9115" font-family="Lato" font-size="12.00" fill="#000000">{}</text>
</g>
</g>
</svg>
