<?xml version="1.0" encoding="UTF-8" standalone="no"?>
<?xml-stylesheet href="spot.css" type="text/css"?>
<!DOCTYPE svg PUBLIC "-//W3C//DTD SVG 1.1//EN"
 "http://www.w3.org/Graphics/SVG/1.1/DTD/svg11.dtd">
<!-- Generated by graphviz version 2.40.1 (20161225.0304)
 -->
<!-- Title: G Pages: 1 -->
<svg width="615pt" height="420pt"
 viewBox="0.00 0.00 615.00 419.51" xmlns="http://www.w3.org/2000/svg" xmlns:xlink="http://www.w3.org/1999/xlink">
<g id="graph0" class="graph" transform="scale(1 1) rotate(0) translate(4 415.5115)">
<title>G</title>
<polygon fill="#ffffff" stroke="transparent" points="-4,4 -4,-415.5115 611,-415.5115 611,4 -4,4"/>
<!-- 0 -->
<!-- 1 -->
<g id="node2" class="node">
<title>1</title>
<ellipse fill="#ffffa0" stroke="#000000" cx="118" cy="-312.5115" rx="27" ry="18"/>
<text text-anchor="middle" x="118" y="-309.4115" font-family="Lato" font-size="12.00" fill="#000000">init</text>
</g>
<!-- 0&#45;&gt;1 -->
<g id="edge1" class="edge">
<title>0&#45;&gt;1</title>
<path fill="none" stroke="#000000" d="M54.303,-312.5115C63.4811,-312.5115 73.8419,-312.5115 83.4994,-312.5115"/>
<polygon fill="#000000" stroke="#000000" points="90.7163,-312.5115 83.7163,-315.6616 87.2163,-312.5116 83.7163,-312.5116 83.7163,-312.5116 83.7163,-312.5116 87.2163,-312.5116 83.7162,-309.3616 90.7163,-312.5115 90.7163,-312.5115"/>
</g>
<!-- 2 -->
<g id="node3" class="node">
<title>2</title>
<ellipse fill="#ffffa0" stroke="#000000" cx="236" cy="-162.5115" rx="27" ry="18"/>
<text text-anchor="middle" x="236" y="-159.4115" font-family="Lato" font-size="12.00" fill="#000000">1</text>
</g>
<!-- 1&#45;&gt;2 -->
<g id="edge2" class="edge">
<title>1&#45;&gt;2</title>
<path fill="none" stroke="#000000" d="M128.3349,-295.8498C137.1048,-282.0343 150.2587,-262.0508 163,-245.5115 180.0454,-223.3852 201.3053,-199.5895 216.4777,-183.1747"/>
<polygon fill="#000000" stroke="#000000" points="221.3749,-177.9039 218.9178,-185.1762 218.9925,-180.468 216.6101,-183.0321 216.6101,-183.0321 216.6101,-183.0321 218.9925,-180.468 214.3025,-180.888 221.3749,-177.9039 221.3749,-177.9039"/>
<text text-anchor="middle" x="177" y="-261.9115" font-family="Lato" font-size="12.00" fill="#000000">a &amp; b</text>
<text text-anchor="middle" x="177" y="-248.9115" font-family="Lato" font-size="12.00" fill="#000000">{}</text>
</g>
<!-- 3 -->
<g id="node4" class="node">
<title>3</title>
<ellipse fill="#ffffa0" stroke="#000000" cx="360" cy="-244.5115" rx="27" ry="18"/>
<text text-anchor="middle" x="360" y="-241.4115" font-family="Lato" font-size="12.00" fill="#000000">3</text>
</g>
<!-- 1&#45;&gt;3 -->
<g id="edge3" class="edge">
<title>1&#45;&gt;3</title>
<path fill="none" stroke="#000000" d="M144.351,-308.3083C182.6513,-301.7652 255.6093,-287.6577 315,-266.5115 320.7705,-264.4569 326.7723,-261.8674 332.4412,-259.193"/>
<polygon fill="#000000" stroke="#000000" points="338.9094,-256.0412 333.9965,-261.9393 335.763,-257.5744 332.6166,-259.1075 332.6166,-259.1075 332.6166,-259.1075 335.763,-257.5744 331.2368,-256.2758 338.9094,-256.0412 338.9094,-256.0412"/>
<text text-anchor="middle" x="236" y="-311.9115" font-family="Lato" font-size="12.00" fill="#000000">!a &amp; b</text>
<text text-anchor="middle" x="236" y="-298.9115" font-family="Lato" font-size="12.00" fill="#000000">{}</text>
</g>
<!-- 4 -->
<g id="node5" class="node">
<title>4</title>
<ellipse fill="#ffffa0" stroke="#000000" cx="580" cy="-211.5115" rx="27" ry="18"/>
<text text-anchor="middle" x="580" y="-208.4115" font-family="Lato" font-size="12.00" fill="#000000">4</text>
</g>
<!-- 1&#45;&gt;4 -->
<g id="edge4" class="edge">
<title>1&#45;&gt;4</title>
<path fill="none" stroke="#000000" d="M131.9011,-328.3514C152.3696,-349.8213 192.8799,-385.5115 236,-385.5115 236,-385.5115 236,-385.5115 475,-385.5115 543.7972,-385.5115 568.7079,-284.5642 576.6739,-236.4487"/>
<polygon fill="#000000" stroke="#000000" points="577.7704,-229.4772 579.7945,-236.8817 577.2266,-232.9347 576.6827,-236.3922 576.6827,-236.3922 576.6827,-236.3922 577.2266,-232.9347 573.571,-235.9028 577.7704,-229.4772 577.7704,-229.4772"/>
<text text-anchor="middle" x="360" y="-401.9115" font-family="Lato" font-size="12.00" fill="#000000">a &amp; !b</text>
<text text-anchor="middle" x="360" y="-388.9115" font-family="Lato" font-size="12.00" fill="#000000">{}</text>
</g>
<!-- 5 -->
<g id="node6" class="node">
<title>5</title>
<ellipse fill="#ffffa0" stroke="#000000" cx="475" cy="-162.5115" rx="27" ry="18"/>
<text text-anchor="middle" x="475" y="-159.4115" font-family="Lato" font-size="12.00" fill="#000000">2</text>
</g>
<!-- 1&#45;&gt;5 -->
<g id="edge5" class="edge">
<title>1&#45;&gt;5</title>
<path fill="none" stroke="#000000" d="M142.3302,-320.4563C192.1316,-335.1648 307.6708,-361.19 387,-315.5115 411.9146,-301.1655 447.5847,-225.6482 464.8573,-186.3427"/>
<polygon fill="#000000" stroke="#000000" points="467.6646,-179.9035 467.7545,-187.5791 466.2658,-183.1119 464.867,-186.3202 464.867,-186.3202 464.867,-186.3202 466.2658,-183.1119 461.9795,-185.0613 467.6646,-179.9035 467.6646,-179.9035"/>
<text text-anchor="middle" x="298" y="-356.9115" font-family="Lato" font-size="12.00" fill="#000000">!a &amp; !b</text>
<text text-anchor="middle" x="298" y="-343.9115" font-family="Lato" font-size="12.00" fill="#000000">{}</text>
</g>
<!-- 2&#45;&gt;2 -->
<g id="edge9" class="edge">
<title>2&#45;&gt;2</title>
<path fill="none" stroke="#000000" d="M225.7224,-179.5488C223.6249,-189.3694 227.0508,-198.5115 236,-198.5115 242.7119,-198.5115 246.3169,-193.3691 246.8151,-186.6548"/>
<polygon fill="#000000" stroke="#000000" points="246.2776,-179.5488 249.9467,-186.2913 246.5416,-183.0389 246.8057,-186.5289 246.8057,-186.5289 246.8057,-186.5289 246.5416,-183.0389 243.6646,-186.7665 246.2776,-179.5488 246.2776,-179.5488"/>
<text text-anchor="middle" x="236" y="-214.9115" font-family="Lato" font-size="12.00" fill="#000000">{}</text>
<text text-anchor="middle" x="236" y="-201.9115" font-family="Lato" font-size="12.00" fill="#000000">{0,1}</text>
</g>
<!-- 2&#45;&gt;3 -->
<g id="edge6" class="edge">
<title>2&#45;&gt;3</title>
<path fill="none" stroke="#000000" d="M260.4873,-170.1029C276.8092,-175.8478 298.2569,-184.7588 315,-196.5115 325.3748,-203.7941 335.2107,-213.7822 343.0254,-222.7619"/>
<polygon fill="#000000" stroke="#000000" points="347.6167,-228.1895 340.6909,-224.8796 345.3563,-225.5173 343.0958,-222.8452 343.0958,-222.8452 343.0958,-222.8452 345.3563,-225.5173 345.5008,-220.8108 347.6167,-228.1895 347.6167,-228.1895"/>
<text text-anchor="middle" x="298" y="-212.9115" font-family="Lato" font-size="12.00" fill="#000000">{a}</text>
<text text-anchor="middle" x="298" y="-199.9115" font-family="Lato" font-size="12.00" fill="#000000">{0,1}</text>
</g>
<!-- 2&#45;&gt;4 -->
<g id="edge7" class="edge">
<title>2&#45;&gt;4</title>
<path fill="none" stroke="#000000" d="M237.5721,-144.3472C240.8649,-117.687 250.8946,-68.14 281,-40.5115 331.0444,5.4154 362.9065,4.0805 430,-6.5115 478.4522,-14.1607 501.2965,-4.8717 535,-40.5115 554.8482,-61.5 569.8338,-144.0468 576.3793,-186.2985"/>
<polygon fill="#000000" stroke="#000000" points="577.4663,-193.4512 573.3003,-187.0039 576.9404,-189.9909 576.4145,-186.5306 576.4145,-186.5306 576.4145,-186.5306 576.9404,-189.9909 579.5288,-186.0574 577.4663,-193.4512 577.4663,-193.4512"/>
<text text-anchor="middle" x="417.5" y="-22.9115" font-family="Lato" font-size="12.00" fill="#000000">{b}</text>
<text text-anchor="middle" x="417.5" y="-9.9115" font-family="Lato" font-size="12.00" fill="#000000">{0,1}</text>
</g>
<!-- 2&#45;&gt;5 -->
<g id="edge8" class="edge">
<title>2&#45;&gt;5</title>
<path fill="none" stroke="#000000" d="M255.4124,-149.5424C274.3007,-137.7611 304.2759,-121.2297 333,-114.5115 356.3693,-109.0457 363.6165,-109.1067 387,-114.5115 410.4068,-119.9218 434.1587,-133.4548 451.0772,-144.7771"/>
<polygon fill="#000000" stroke="#000000" points="456.9878,-148.8293 449.4332,-147.4692 454.1011,-146.8502 451.2143,-144.8711 451.2143,-144.8711 451.2143,-144.8711 454.1011,-146.8502 452.9955,-142.273 456.9878,-148.8293 456.9878,-148.8293"/>
<text text-anchor="middle" x="360" y="-130.9115" font-family="Lato" font-size="12.00" fill="#000000">{a, b}</text>
<text text-anchor="middle" x="360" y="-117.9115" font-family="Lato" font-size="12.00" fill="#000000">{0,1}</text>
</g>
<!-- 3&#45;&gt;2 -->
<g id="edge10" class="edge">
<title>3&#45;&gt;2</title>
<path fill="none" stroke="#000000" d="M333.2723,-241.4898C317.0352,-238.6321 296.5164,-233.1143 281,-222.5115 267.4509,-213.2531 256.3359,-198.5685 248.5422,-186.0445"/>
<polygon fill="#000000" stroke="#000000" points="244.7741,-179.7324 251.0669,-184.1282 246.5681,-182.7376 248.3622,-185.7429 248.3622,-185.7429 248.3622,-185.7429 246.5681,-182.7376 245.6575,-187.3575 244.7741,-179.7324 244.7741,-179.7324"/>
<text text-anchor="middle" x="298" y="-252.9115" font-family="Lato" font-size="12.00" fill="#000000">{a}</text>
<text text-anchor="middle" x="298" y="-239.9115" font-family="Lato" font-size="12.00" fill="#000000">{1}</text>
</g>
<!-- 3&#45;&gt;3 -->
<g id="edge13" class="edge">
<title>3&#45;&gt;3</title>
<path fill="none" stroke="#000000" d="M350.0768,-261.5488C348.0516,-271.3694 351.3594,-280.5115 360,-280.5115 366.4805,-280.5115 369.9612,-275.3691 370.4422,-268.6548"/>
<polygon fill="#000000" stroke="#000000" points="369.9232,-261.5488 373.5748,-268.3008 370.1782,-265.0395 370.4332,-268.5302 370.4332,-268.5302 370.4332,-268.5302 370.1782,-265.0395 367.2915,-268.7597 369.9232,-261.5488 369.9232,-261.5488"/>
<text text-anchor="middle" x="360" y="-296.9115" font-family="Lato" font-size="12.00" fill="#000000">{}</text>
<text text-anchor="middle" x="360" y="-283.9115" font-family="Lato" font-size="12.00" fill="#000000">{}</text>
</g>
<!-- 3&#45;&gt;4 -->
<g id="edge11" class="edge">
<title>3&#45;&gt;4</title>
<path fill="none" stroke="#000000" d="M385.2763,-250.9242C398.5857,-253.5009 415.1783,-255.4538 430,-253.5115 472.3247,-247.9651 519.4824,-233.291 549.4223,-222.8537"/>
<polygon fill="#000000" stroke="#000000" points="556.2797,-220.4321 550.7281,-225.7333 552.9795,-221.5976 549.6792,-222.7631 549.6792,-222.7631 549.6792,-222.7631 552.9795,-221.5976 548.6302,-219.7928 556.2797,-220.4321 556.2797,-220.4321"/>
<text text-anchor="middle" x="475" y="-266.9115" font-family="Lato" font-size="12.00" fill="#000000">{a, b}</text>
<text text-anchor="middle" x="475" y="-253.9115" font-family="Lato" font-size="12.00" fill="#000000">{1}</text>
</g>
<!-- 3&#45;&gt;5 -->
<g id="edge12" class="edge">
<title>3&#45;&gt;5</title>
<path fill="none" stroke="#000000" d="M383.5233,-235.1824C397.6803,-228.9926 415.6744,-220.0752 430,-209.5115 439.7512,-202.3209 449.2302,-192.9061 456.9535,-184.3927"/>
<polygon fill="#000000" stroke="#000000" points="462.0017,-178.6812 459.7261,-186.0123 459.6838,-181.3037 457.3658,-183.9261 457.3658,-183.9261 457.3658,-183.9261 459.6838,-181.3037 455.0056,-181.84 462.0017,-178.6812 462.0017,-178.6812"/>
<text text-anchor="middle" x="417.5" y="-239.9115" font-family="Lato" font-size="12.00" fill="#000000">{b}</text>
<text text-anchor="middle" x="417.5" y="-226.9115" font-family="Lato" font-size="12.00" fill="#000000">{1}</text>
</g>
<!-- 4&#45;&gt;2 -->
<g id="edge14" class="edge">
<title>4&#45;&gt;2</title>
<path fill="none" stroke="#000000" d="M569.1248,-194.7588C560.7444,-182.6636 548.3602,-166.4295 535,-154.5115 494.043,-117.9757 482.7903,-104.5291 430,-89.5115 365.3425,-71.1181 339.7696,-82.8764 281,-115.5115 269.877,-121.6882 259.8312,-131.5269 252.0677,-140.61"/>
<polygon fill="#000000" stroke="#000000" points="247.5395,-146.1284 249.5448,-138.7188 249.7598,-143.4227 251.98,-140.717 251.98,-140.717 251.98,-140.717 249.7598,-143.4227 254.4151,-142.7152 247.5395,-146.1284 247.5395,-146.1284"/>
<text text-anchor="middle" x="417.5" y="-105.9115" font-family="Lato" font-size="12.00" fill="#000000">{b}</text>
<text text-anchor="middle" x="417.5" y="-92.9115" font-family="Lato" font-size="12.00" fill="#000000">{0}</text>
</g>
<!-- 4&#45;&gt;3 -->
<g id="edge15" class="edge">
<title>4&#45;&gt;3</title>
<path fill="none" stroke="#000000" d="M567.7625,-227.7708C553.9406,-244.644 529.7278,-270.0074 502,-280.5115 462.6424,-295.4214 414.8316,-276.012 385.9423,-260.4226"/>
<polygon fill="#000000" stroke="#000000" points="379.7242,-256.9676 387.373,-257.614 382.7836,-258.6676 385.8431,-260.3675 385.8431,-260.3675 385.8431,-260.3675 382.7836,-258.6676 384.3131,-263.121 379.7242,-256.9676 379.7242,-256.9676"/>
<text text-anchor="middle" x="475" y="-301.9115" font-family="Lato" font-size="12.00" fill="#000000">{a, b}</text>
<text text-anchor="middle" x="475" y="-288.9115" font-family="Lato" font-size="12.00" fill="#000000">{0}</text>
</g>
<!-- 4&#45;&gt;4 -->
<g id="edge17" class="edge">
<title>4&#45;&gt;4</title>
<path fill="none" stroke="#000000" d="M570.7856,-228.5488C568.9051,-238.3694 571.9766,-247.5115 580,-247.5115 586.0176,-247.5115 589.2497,-242.3691 589.6963,-235.6548"/>
<polygon fill="#000000" stroke="#000000" points="589.2144,-228.5488 592.8309,-235.3196 589.4513,-232.0408 589.6881,-235.5328 589.6881,-235.5328 589.6881,-235.5328 589.4513,-232.0408 586.5453,-235.746 589.2144,-228.5488 589.2144,-228.5488"/>
<text text-anchor="middle" x="580" y="-263.9115" font-family="Lato" font-size="12.00" fill="#000000">{}</text>
<text text-anchor="middle" x="580" y="-250.9115" font-family="Lato" font-size="12.00" fill="#000000">{}</text>
</g>
<!-- 4&#45;&gt;5 -->
<g id="edge16" class="edge">
<title>4&#45;&gt;5</title>
<path fill="none" stroke="#000000" d="M569.6605,-194.8677C561.7081,-183.7389 549.6205,-169.9908 535,-163.5115 526.808,-159.8811 517.348,-158.5772 508.3968,-158.4464"/>
<polygon fill="#000000" stroke="#000000" points="501.361,-158.5709 508.3041,-155.2974 504.8605,-158.5089 508.3599,-158.447 508.3599,-158.447 508.3599,-158.447 504.8605,-158.5089 508.4157,-161.5965 501.361,-158.5709 501.361,-158.5709"/>
<text text-anchor="middle" x="527.5" y="-179.9115" font-family="Lato" font-size="12.00" fill="#000000">{a}</text>
<text text-anchor="middle" x="527.5" y="-166.9115" font-family="Lato" font-size="12.00" fill="#000000">{0}</text>
</g>
<!-- 5&#45;&gt;2 -->
<g id="edge18" class="edge">
<title>5&#45;&gt;2</title>
<path fill="none" stroke="#000000" d="M447.9034,-162.5115C404.2572,-162.5115 318.4405,-162.5115 270.4906,-162.5115"/>
<polygon fill="#000000" stroke="#000000" points="263.4163,-162.5115 270.4164,-159.3616 266.9163,-162.5116 270.4163,-162.5116 270.4163,-162.5116 270.4163,-162.5116 266.9163,-162.5116 270.4163,-165.6616 263.4163,-162.5115 263.4163,-162.5115"/>
<text text-anchor="middle" x="360" y="-178.9115" font-family="Lato" font-size="12.00" fill="#000000">{a, b}</text>
<text text-anchor="middle" x="360" y="-165.9115" font-family="Lato" font-size="12.00" fill="#000000">{}</text>
</g>
<!-- 5&#45;&gt;3 -->
<g id="edge19" class="edge">
<title>5&#45;&gt;3</title>
<path fill="none" stroke="#000000" d="M447.879,-164.5095C434.0647,-166.6088 417.5774,-170.8746 405,-179.5115 389.9882,-189.8202 378.4494,-206.9033 370.816,-220.9696"/>
<polygon fill="#000000" stroke="#000000" points="367.5851,-227.185 368.0188,-219.5211 369.1994,-224.0795 370.8138,-220.974 370.8138,-220.974 370.8138,-220.974 369.1994,-224.0795 373.6087,-222.4269 367.5851,-227.185 367.5851,-227.185"/>
<text text-anchor="middle" x="417.5" y="-195.9115" font-family="Lato" font-size="12.00" fill="#000000">{b}</text>
<text text-anchor="middle" x="417.5" y="-182.9115" font-family="Lato" font-size="12.00" fill="#000000">{}</text>
</g>
<!-- 5&#45;&gt;4 -->
<g id="edge20" class="edge">
<title>5&#45;&gt;4</title>
<path fill="none" stroke="#000000" d="M494.2694,-175.1676C502.0742,-180.0013 511.2869,-185.3463 520,-189.5115 529.1825,-193.9012 539.4884,-197.9698 548.9336,-201.3838"/>
<polygon fill="#000000" stroke="#000000" points="555.6307,-203.7493 547.9812,-204.3881 552.3305,-202.5836 549.0303,-201.4179 549.0303,-201.4179 549.0303,-201.4179 552.3305,-202.5836 550.0794,-198.4477 555.6307,-203.7493 555.6307,-203.7493"/>
<text text-anchor="middle" x="527.5" y="-211.9115" font-family="Lato" font-size="12.00" fill="#000000">{a}</text>
<text text-anchor="middle" x="527.5" y="-198.9115" font-family="Lato" font-size="12.00" fill="#000000">{}</text>
</g>
<!-- 5&#45;&gt;5 -->
<g id="edge21" class="edge">
<title>5&#45;&gt;5</title>
<path fill="none" stroke="#000000" d="M465.7856,-179.5488C463.9051,-189.3694 466.9766,-198.5115 475,-198.5115 481.0176,-198.5115 484.2497,-193.3691 484.6963,-186.6548"/>
<polygon fill="#000000" stroke="#000000" points="484.2144,-179.5488 487.8309,-186.3196 484.4513,-183.0408 484.6881,-186.5328 484.6881,-186.5328 484.6881,-186.5328 484.4513,-183.0408 481.5453,-186.746 484.2144,-179.5488 484.2144,-179.5488"/>
<text text-anchor="middle" x="475" y="-214.9115" font-family="Lato" font-size="12.00" fill="#000000">{}</text>
<text text-anchor="middle" x="475" y="-201.9115" font-family="Lato" font-size="12.00" fill="#000000">{}</text>
</g>
</g>
</svg>
