<?xml version="1.0" encoding="UTF-8" standalone="no"?>
<?xml-stylesheet href="spot.css" type="text/css"?>
<!DOCTYPE svg PUBLIC "-//W3C//DTD SVG 1.1//EN"
 "http://www.w3.org/Graphics/SVG/1.1/DTD/svg11.dtd">
<!-- Generated by graphviz version 2.40.1 (20161225.0304)
 -->
<!-- Title: Fa R b Pages: 1 -->
<svg width="280pt" height="157pt"
 viewBox="0.00 0.00 280.00 157.40" xmlns="http://www.w3.org/2000/svg" xmlns:xlink="http://www.w3.org/1999/xlink">
<g id="graph0" class="graph" transform="scale(1 1) rotate(0) translate(4 153.4)">
<title>Fa R b</title>
<polygon fill="#ffffff" stroke="transparent" points="-4,4 -4,-153.4 276,-153.4 276,4 -4,4"/>
<text text-anchor="start" x="117" y="-122.8" font-family="Lato" font-size="12.00" fill="#000000">[Büchi]</text>
<!-- I -->
<!-- 0 -->
<g id="node2" class="node">
<title>0</title>
<ellipse fill="#ffffa0" stroke="#ff4da0" stroke-width="2" cx="60" cy="-61" rx="18" ry="18"/>
<ellipse fill="none" stroke="#ff4da0" stroke-width="2" cx="60" cy="-61" rx="22" ry="22"/>
<text text-anchor="middle" x="60" y="-57.9" font-family="Lato" font-size="12.00" fill="#000000">0</text>
</g>
<!-- I&#45;&gt;0 -->
<g id="edge1" class="edge">
<title>I&#45;&gt;0</title>
<path fill="none" stroke="#000000" d="M1.1682,-61C4.2491,-61 17.4946,-61 30.6388,-61"/>
<polygon fill="#000000" stroke="#000000" points="37.8655,-61 30.8656,-64.1501 34.3655,-61 30.8655,-61.0001 30.8655,-61.0001 30.8655,-61.0001 34.3655,-61 30.8655,-57.8501 37.8655,-61 37.8655,-61"/>
</g>
<!-- 0&#45;&gt;0 -->
<g id="edge2" class="edge">
<title>0&#45;&gt;0</title>
<path fill="none" stroke="#ff4da0" stroke-width="2" d="M52.6831,-81.9908C51.7798,-92.0872 54.2188,-101 60,-101 64.3359,-101 66.7918,-95.9866 67.3677,-89.2204"/>
<polygon fill="#ff4da0" stroke="#ff4da0" stroke-width="2" points="67.3169,-81.9908 70.5161,-88.9684 67.8415,-85.4871 67.8662,-88.9871 67.3662,-88.9906 66.8662,-88.9941 66.8416,-85.4942 64.2163,-89.0128 67.3169,-81.9908 67.3169,-81.9908"/>
<text text-anchor="start" x="44.5" y="-104.4" font-family="Lato" font-size="12.00" fill="#000000">!a &amp; b</text>
</g>
<!-- 1 -->
<g id="node3" class="node">
<title>1</title>
<ellipse fill="#ffffa0" stroke="#000000" cx="250" cy="-61" rx="18" ry="18"/>
<ellipse fill="none" stroke="#000000" cx="250" cy="-61" rx="22" ry="22"/>
<text text-anchor="middle" x="250" y="-57.9" font-family="Lato" font-size="12.00" fill="#000000">1</text>
</g>
<!-- 0&#45;&gt;1 -->
<g id="edge3" class="edge">
<title>0&#45;&gt;1</title>
<path fill="none" stroke="#000000" d="M81.6693,-66.676C106.5891,-72.4886 148.7331,-80.1304 185,-76 197.2926,-74.6 210.6448,-71.7564 222.0316,-68.9178"/>
<polygon fill="#000000" stroke="#000000" points="228.8405,-67.1639 222.8476,-71.9605 225.4512,-68.037 222.0618,-68.9101 222.0618,-68.9101 222.0618,-68.9101 225.4512,-68.037 221.276,-65.8597 228.8405,-67.1639 228.8405,-67.1639"/>
<text text-anchor="start" x="153" y="-80.4" font-family="Lato" font-size="12.00" fill="#000000">a &amp; b</text>
</g>
<!-- 2 -->
<g id="node4" class="node">
<title>2</title>
<ellipse fill="#ffffa0" stroke="#000000" cx="167" cy="-18" rx="18" ry="18"/>
<text text-anchor="middle" x="167" y="-14.9" font-family="Lato" font-size="12.00" fill="#000000">2</text>
</g>
<!-- 0&#45;&gt;2 -->
<g id="edge4" class="edge">
<title>0&#45;&gt;2</title>
<path fill="none" stroke="#ff4da0" stroke-width="2" d="M80.6307,-52.7092C98.6955,-45.4495 124.9235,-34.9092 143.7313,-27.351"/>
<polygon fill="#ff4da0" stroke="#ff4da0" stroke-width="2" points="150.2959,-24.7128 144.9754,-30.2459 147.2348,-26.4819 143.9872,-27.787 143.8008,-27.3231 143.6143,-26.8592 146.8619,-25.554 142.6262,-24.4003 150.2959,-24.7128 150.2959,-24.7128"/>
<text text-anchor="start" x="100" y="-47.4" font-family="Lato" font-size="12.00" fill="#000000">!a &amp; b</text>
</g>
<!-- 1&#45;&gt;1 -->
<g id="edge5" class="edge">
<title>1&#45;&gt;1</title>
<path fill="none" stroke="#000000" d="M242.3173,-81.9908C241.3688,-92.0872 243.9297,-101 250,-101 254.5527,-101 257.1314,-95.9866 257.7361,-89.2204"/>
<polygon fill="#000000" stroke="#000000" points="257.6827,-81.9908 260.8844,-88.9673 257.7086,-85.4907 257.7345,-88.9906 257.7345,-88.9906 257.7345,-88.9906 257.7086,-85.4907 254.5846,-89.0139 257.6827,-81.9908 257.6827,-81.9908"/>
<text text-anchor="middle" x="250" y="-104.4" font-family="Lato" font-size="12.00" fill="#000000">1</text>
</g>
<!-- 2&#45;&gt;1 -->
<g id="edge6" class="edge">
<title>2&#45;&gt;1</title>
<path fill="none" stroke="#000000" d="M183.0032,-26.2908C194.5813,-32.2891 210.4822,-40.5269 223.8876,-47.4719"/>
<polygon fill="#000000" stroke="#000000" points="230.2381,-50.7619 222.5736,-50.3387 227.1303,-49.1518 224.0226,-47.5418 224.0226,-47.5418 224.0226,-47.5418 227.1303,-49.1518 225.4717,-44.7449 230.2381,-50.7619 230.2381,-50.7619"/>
<text text-anchor="start" x="203" y="-42.4" font-family="Lato" font-size="12.00" fill="#000000">a</text>
</g>
<!-- 2&#45;&gt;2 -->
<g id="edge7" class="edge">
<title>2&#45;&gt;2</title>
<path fill="none" stroke="#000000" d="M160.2664,-35.0373C158.8922,-44.8579 161.1367,-54 167,-54 171.3975,-54 173.7594,-48.8576 174.0858,-42.1433"/>
<polygon fill="#000000" stroke="#000000" points="173.7336,-35.0373 177.2263,-41.8728 173.9069,-38.533 174.0802,-42.0287 174.0802,-42.0287 174.0802,-42.0287 173.9069,-38.533 170.934,-42.1847 173.7336,-35.0373 173.7336,-35.0373"/>
<text text-anchor="start" x="162" y="-57.4" font-family="Lato" font-size="12.00" fill="#000000">!a</text>
</g>
</g>
</svg>
