<?xml version="1.0" encoding="UTF-8" standalone="no"?>
<?xml-stylesheet href="spot.css" type="text/css"?>
<!DOCTYPE svg PUBLIC "-//W3C//DTD SVG 1.1//EN"
 "http://www.w3.org/Graphics/SVG/1.1/DTD/svg11.dtd">
<!-- Generated by graphviz version 2.40.1 (20161225.0304)
 -->
<!-- Pages: 1 -->
<svg width="362pt" height="167pt"
 viewBox="0.00 0.00 362.00 167.40" xmlns="http://www.w3.org/2000/svg" xmlns:xlink="http://www.w3.org/1999/xlink">
<g id="graph0" class="graph" transform="scale(1 1) rotate(0) translate(4 163.4)">
<polygon fill="#ffffff" stroke="transparent" points="-4,4 -4,-163.4 358,-163.4 358,4 -4,4"/>
<text text-anchor="start" x="158" y="-132.8" font-family="Lato" font-size="12.00" fill="#000000">[Büchi]</text>
<!-- I -->
<!-- 2 -->
<g id="node2" class="node">
<title>2</title>
<ellipse fill="#ffffa0" stroke="#000000" cx="56" cy="-34" rx="18" ry="18"/>
<text text-anchor="middle" x="56" y="-30.9" font-family="Lato" font-size="12.00" fill="#000000">2</text>
</g>
<!-- I&#45;&gt;2 -->
<g id="edge1" class="edge">
<title>I&#45;&gt;2</title>
<path fill="none" stroke="#000000" d="M1.1233,-34C4.178,-34 17.9448,-34 30.9241,-34"/>
<polygon fill="#000000" stroke="#000000" points="37.9807,-34 30.9808,-37.1501 34.4807,-34 30.9807,-34.0001 30.9807,-34.0001 30.9807,-34.0001 34.4807,-34 30.9807,-30.8501 37.9807,-34 37.9807,-34"/>
</g>
<!-- 1 -->
<g id="node4" class="node">
<title>1</title>
<ellipse fill="#ffffa0" stroke="#000000" cx="139" cy="-71" rx="18" ry="18"/>
<ellipse fill="none" stroke="#000000" cx="139" cy="-71" rx="22" ry="22"/>
<text text-anchor="start" x="135.5" y="-67.9" font-family="Lato" font-size="12.00" fill="#000000">1</text>
</g>
<!-- 2&#45;&gt;1 -->
<g id="edge6" class="edge">
<title>2&#45;&gt;1</title>
<path fill="none" stroke="#000000" d="M72.7963,-41.4875C84.0908,-46.5224 99.2236,-53.2683 112.1701,-59.0397"/>
<polygon fill="#000000" stroke="#000000" points="118.7092,-61.9547 111.0331,-61.9816 115.5124,-60.5296 112.3157,-59.1045 112.3157,-59.1045 112.3157,-59.1045 115.5124,-60.5296 113.5983,-56.2274 118.7092,-61.9547 118.7092,-61.9547"/>
<text text-anchor="start" x="92" y="-55.4" font-family="Lato" font-size="12.00" fill="#000000">a</text>
</g>
<!-- 3 -->
<g id="node5" class="node">
<title>3</title>
<ellipse fill="#ffffa0" stroke="#000000" cx="249" cy="-18" rx="18" ry="18"/>
<text text-anchor="middle" x="249" y="-14.9" font-family="Lato" font-size="12.00" fill="#000000">3</text>
</g>
<!-- 2&#45;&gt;3 -->
<g id="edge7" class="edge">
<title>2&#45;&gt;3</title>
<path fill="none" stroke="#000000" d="M73.861,-31.7304C86.0094,-30.2408 102.4567,-28.3295 117,-27 154.0084,-23.6167 196.9611,-20.9152 223.5631,-19.3849"/>
<polygon fill="#000000" stroke="#000000" points="230.6141,-18.9848 223.8039,-22.5264 227.1198,-19.1831 223.6254,-19.3815 223.6254,-19.3815 223.6254,-19.3815 227.1198,-19.1831 223.4469,-16.2366 230.6141,-18.9848 230.6141,-18.9848"/>
<text text-anchor="start" x="134" y="-30.4" font-family="Lato" font-size="12.00" fill="#000000">!a</text>
</g>
<!-- 0 -->
<g id="node3" class="node">
<title>0</title>
<ellipse fill="#ffffa0" stroke="#000000" cx="332" cy="-61" rx="18" ry="18"/>
<ellipse fill="none" stroke="#000000" cx="332" cy="-61" rx="22" ry="22"/>
<text text-anchor="middle" x="332" y="-57.9" font-family="Lato" font-size="12.00" fill="#000000">0</text>
</g>
<!-- 0&#45;&gt;0 -->
<g id="edge2" class="edge">
<title>0&#45;&gt;0</title>
<path fill="none" stroke="#000000" d="M324.3173,-81.9908C323.3688,-92.0872 325.9297,-101 332,-101 336.5527,-101 339.1314,-95.9866 339.7361,-89.2204"/>
<polygon fill="#000000" stroke="#000000" points="339.6827,-81.9908 342.8844,-88.9673 339.7086,-85.4907 339.7345,-88.9906 339.7345,-88.9906 339.7345,-88.9906 339.7086,-85.4907 336.5846,-89.0139 339.6827,-81.9908 339.6827,-81.9908"/>
<text text-anchor="start" x="328.5" y="-104.4" font-family="Lato" font-size="12.00" fill="#000000">1</text>
</g>
<!-- 1&#45;&gt;0 -->
<g id="edge3" class="edge">
<title>1&#45;&gt;0</title>
<path fill="none" stroke="#000000" d="M160.8172,-73.865C186.3537,-76.7532 229.8782,-80.2277 267,-76 279.2926,-74.6 292.6448,-71.7564 304.0316,-68.9178"/>
<polygon fill="#000000" stroke="#000000" points="310.8405,-67.1639 304.8476,-71.9605 307.4512,-68.037 304.0618,-68.9101 304.0618,-68.9101 304.0618,-68.9101 307.4512,-68.037 303.276,-65.8597 310.8405,-67.1639 310.8405,-67.1639"/>
<text text-anchor="start" x="245.5" y="-80.4" font-family="Lato" font-size="12.00" fill="#000000">b</text>
</g>
<!-- 1&#45;&gt;1 -->
<g id="edge4" class="edge">
<title>1&#45;&gt;1</title>
<path fill="none" stroke="#000000" d="M131.3173,-91.9908C130.3688,-102.0872 132.9297,-111 139,-111 143.5527,-111 146.1314,-105.9866 146.7361,-99.2204"/>
<polygon fill="#000000" stroke="#000000" points="146.6827,-91.9908 149.8844,-98.9673 146.7086,-95.4907 146.7345,-98.9906 146.7345,-98.9906 146.7345,-98.9906 146.7086,-95.4907 143.5846,-99.0139 146.6827,-91.9908 146.6827,-91.9908"/>
<text text-anchor="start" x="123.5" y="-114.4" font-family="Lato" font-size="12.00" fill="#000000">a &amp; !b</text>
</g>
<!-- 1&#45;&gt;3 -->
<g id="edge5" class="edge">
<title>1&#45;&gt;3</title>
<path fill="none" stroke="#000000" d="M158.9202,-61.4021C177.8324,-52.2899 206.2421,-38.6015 226.0847,-29.041"/>
<polygon fill="#000000" stroke="#000000" points="232.4594,-25.9696 227.5205,-31.8459 229.3063,-27.4888 226.1532,-29.0081 226.1532,-29.0081 226.1532,-29.0081 229.3063,-27.4888 224.7858,-26.1703 232.4594,-25.9696 232.4594,-25.9696"/>
<text text-anchor="start" x="179" y="-53.4" font-family="Lato" font-size="12.00" fill="#000000">!a &amp; !b</text>
</g>
<!-- 3&#45;&gt;0 -->
<g id="edge8" class="edge">
<title>3&#45;&gt;0</title>
<path fill="none" stroke="#000000" d="M265.0032,-26.2908C276.5813,-32.2891 292.4822,-40.5269 305.8876,-47.4719"/>
<polygon fill="#000000" stroke="#000000" points="312.2381,-50.7619 304.5736,-50.3387 309.1303,-49.1518 306.0226,-47.5418 306.0226,-47.5418 306.0226,-47.5418 309.1303,-49.1518 307.4717,-44.7449 312.2381,-50.7619 312.2381,-50.7619"/>
<text text-anchor="start" x="285" y="-42.4" font-family="Lato" font-size="12.00" fill="#000000">b</text>
</g>
<!-- 3&#45;&gt;3 -->
<g id="edge9" class="edge">
<title>3&#45;&gt;3</title>
<path fill="none" stroke="#000000" d="M242.2664,-35.0373C240.8922,-44.8579 243.1367,-54 249,-54 253.3975,-54 255.7594,-48.8576 256.0858,-42.1433"/>
<polygon fill="#000000" stroke="#000000" points="255.7336,-35.0373 259.2263,-41.8728 255.9069,-38.533 256.0802,-42.0287 256.0802,-42.0287 256.0802,-42.0287 255.9069,-38.533 252.934,-42.1847 255.7336,-35.0373 255.7336,-35.0373"/>
<text text-anchor="start" x="244" y="-57.4" font-family="Lato" font-size="12.00" fill="#000000">!b</text>
</g>
</g>
</svg>
