<?xml version="1.0" encoding="UTF-8" standalone="no"?>
<?xml-stylesheet href="spot.css" type="text/css"?>
<!DOCTYPE svg PUBLIC "-//W3C//DTD SVG 1.1//EN"
 "http://www.w3.org/Graphics/SVG/1.1/DTD/svg11.dtd">
<!-- Generated by graphviz version 2.40.1 (20161225.0304)
 -->
<!-- Title: Fa R b Pages: 1 -->
<svg width="386pt" height="170pt"
 viewBox="0.00 0.00 386.00 169.91" xmlns="http://www.w3.org/2000/svg" xmlns:xlink="http://www.w3.org/1999/xlink">
<g id="graph0" class="graph" transform="scale(1 1) rotate(0) translate(4 165.9095)">
<title>Fa R b</title>
<polygon fill="#ffffff" stroke="transparent" points="-4,4 -4,-165.9095 382,-165.9095 382,4 -4,4"/>
<text text-anchor="start" x="170" y="-135.3095" font-family="Lato" font-size="12.00" fill="#000000">[Büchi]</text>
<!-- I -->
<!-- 2 -->
<g id="node2" class="node">
<title>2</title>
<ellipse fill="#ffffa0" stroke="#000000" cx="56" cy="-80.5095" rx="18" ry="18"/>
<text text-anchor="middle" x="56" y="-77.4095" font-family="Lato" font-size="12.00" fill="#000000">2</text>
</g>
<!-- I&#45;&gt;2 -->
<g id="edge1" class="edge">
<title>I&#45;&gt;2</title>
<path fill="none" stroke="#000000" d="M1.1233,-80.5095C4.178,-80.5095 17.9448,-80.5095 30.9241,-80.5095"/>
<polygon fill="#000000" stroke="#000000" points="37.9807,-80.5095 30.9808,-83.6596 34.4807,-80.5095 30.9807,-80.5096 30.9807,-80.5096 30.9807,-80.5096 34.4807,-80.5095 30.9807,-77.3596 37.9807,-80.5095 37.9807,-80.5095"/>
</g>
<!-- 1 -->
<g id="node4" class="node">
<title>1</title>
<ellipse fill="#ffffa0" stroke="#000000" cx="356" cy="-43.5095" rx="18" ry="18"/>
<ellipse fill="none" stroke="#000000" cx="356" cy="-43.5095" rx="22" ry="22"/>
<text text-anchor="middle" x="356" y="-40.4095" font-family="Lato" font-size="12.00" fill="#000000">1</text>
</g>
<!-- 2&#45;&gt;1 -->
<g id="edge5" class="edge">
<title>2&#45;&gt;1</title>
<path fill="none" stroke="#000000" d="M72.9315,-86.9577C112.5712,-101.0194 213.8791,-130.915 291,-101.5095 309.4242,-94.4845 325.941,-79.5718 337.7146,-66.6274"/>
<polygon fill="#000000" stroke="#000000" points="342.4617,-61.2291 340.2046,-68.5659 340.1504,-63.8574 337.8391,-66.4857 337.8391,-66.4857 337.8391,-66.4857 340.1504,-63.8574 335.4737,-64.4056 342.4617,-61.2291 342.4617,-61.2291"/>
<text text-anchor="start" x="206" y="-116.9095" font-family="Lato" font-size="12.00" fill="#000000">a &amp; b</text>
</g>
<!-- 3 -->
<g id="node5" class="node">
<title>3</title>
<ellipse fill="#ffffa0" stroke="#000000" cx="163" cy="-39.5095" rx="18" ry="18"/>
<ellipse fill="none" stroke="#000000" cx="163" cy="-39.5095" rx="22" ry="22"/>
<text text-anchor="middle" x="163" y="-36.4095" font-family="Lato" font-size="12.00" fill="#000000">3</text>
</g>
<!-- 2&#45;&gt;3 -->
<g id="edge6" class="edge">
<title>2&#45;&gt;3</title>
<path fill="none" stroke="#000000" d="M73.1914,-73.9221C89.9959,-67.483 115.8496,-57.5765 135.51,-50.043"/>
<polygon fill="#000000" stroke="#000000" points="142.1809,-47.4869 136.7715,-52.9331 138.9126,-48.7393 135.6443,-49.9916 135.6443,-49.9916 135.6443,-49.9916 138.9126,-48.7393 134.5172,-47.0502 142.1809,-47.4869 142.1809,-47.4869"/>
<text text-anchor="start" x="92" y="-68.9095" font-family="Lato" font-size="12.00" fill="#000000">!a &amp; b</text>
</g>
<!-- 0 -->
<g id="node3" class="node">
<title>0</title>
<ellipse fill="#ffffa0" stroke="#000000" cx="273" cy="-43.5095" rx="18" ry="18"/>
<text text-anchor="middle" x="273" y="-40.4095" font-family="Lato" font-size="12.00" fill="#000000">0</text>
</g>
<!-- 0&#45;&gt;0 -->
<g id="edge2" class="edge">
<title>0&#45;&gt;0</title>
<path fill="none" stroke="#000000" d="M266.2664,-60.5468C264.8922,-70.3674 267.1367,-79.5095 273,-79.5095 277.3975,-79.5095 279.7594,-74.3671 280.0858,-67.6528"/>
<polygon fill="#000000" stroke="#000000" points="279.7336,-60.5468 283.2263,-67.3823 279.9069,-64.0425 280.0802,-67.5382 280.0802,-67.5382 280.0802,-67.5382 279.9069,-64.0425 276.934,-67.6942 279.7336,-60.5468 279.7336,-60.5468"/>
<text text-anchor="start" x="268" y="-82.9095" font-family="Lato" font-size="12.00" fill="#000000">!a</text>
</g>
<!-- 0&#45;&gt;1 -->
<g id="edge3" class="edge">
<title>0&#45;&gt;1</title>
<path fill="none" stroke="#000000" d="M291.0098,-43.5095C301.4333,-43.5095 314.8048,-43.5095 326.7062,-43.5095"/>
<polygon fill="#000000" stroke="#000000" points="333.887,-43.5095 326.887,-46.6596 330.387,-43.5095 326.887,-43.5096 326.887,-43.5096 326.887,-43.5096 330.387,-43.5095 326.8869,-40.3596 333.887,-43.5095 333.887,-43.5095"/>
<text text-anchor="start" x="309" y="-46.9095" font-family="Lato" font-size="12.00" fill="#000000">a</text>
</g>
<!-- 1&#45;&gt;1 -->
<g id="edge4" class="edge">
<title>1&#45;&gt;1</title>
<path fill="none" stroke="#000000" d="M348.3173,-64.5002C347.3688,-74.5967 349.9297,-83.5095 356,-83.5095 360.5527,-83.5095 363.1314,-78.4961 363.7361,-71.7299"/>
<polygon fill="#000000" stroke="#000000" points="363.6827,-64.5002 366.8844,-71.4768 363.7086,-68.0001 363.7345,-71.5 363.7345,-71.5 363.7345,-71.5 363.7086,-68.0001 360.5846,-71.5233 363.6827,-64.5002 363.6827,-64.5002"/>
<text text-anchor="middle" x="356" y="-86.9095" font-family="Lato" font-size="12.00" fill="#000000">1</text>
</g>
<!-- 3&#45;&gt;0 -->
<g id="edge7" class="edge">
<title>3&#45;&gt;0</title>
<path fill="none" stroke="#000000" d="M184.9958,-40.3093C203.0397,-40.9655 228.6044,-41.8951 247.5337,-42.5834"/>
<polygon fill="#000000" stroke="#000000" points="254.6881,-42.8436 247.5782,-45.737 251.1904,-42.7164 247.6927,-42.5891 247.6927,-42.5891 247.6927,-42.5891 251.1904,-42.7164 247.8072,-39.4412 254.6881,-42.8436 254.6881,-42.8436"/>
<text text-anchor="start" x="203" y="-44.9095" font-family="Lato" font-size="12.00" fill="#000000">!a &amp; !b</text>
</g>
<!-- 3&#45;&gt;1 -->
<g id="edge8" class="edge">
<title>3&#45;&gt;1</title>
<path fill="none" stroke="#000000" d="M181.6598,-27.6736C206.5877,-13.3701 252.1293,7.4926 291,-3.5095 306.1997,-7.8116 321.3393,-16.7818 333.1784,-25.1391"/>
<polygon fill="#000000" stroke="#000000" points="339.0514,-29.4257 331.5402,-27.8432 336.2243,-27.3622 333.3972,-25.2988 333.3972,-25.2988 333.3972,-25.2988 336.2243,-27.3622 335.2543,-22.7544 339.0514,-29.4257 339.0514,-29.4257"/>
<text text-anchor="start" x="269.5" y="-6.9095" font-family="Lato" font-size="12.00" fill="#000000">a</text>
</g>
<!-- 3&#45;&gt;3 -->
<g id="edge9" class="edge">
<title>3&#45;&gt;3</title>
<path fill="none" stroke="#000000" d="M153.2928,-59.267C151.6432,-69.8594 154.8789,-79.5095 163,-79.5095 169.2177,-79.5095 172.5717,-73.8528 173.062,-66.4474"/>
<polygon fill="#000000" stroke="#000000" points="172.7072,-59.267 176.199,-66.1029 172.88,-62.7627 173.0528,-66.2584 173.0528,-66.2584 173.0528,-66.2584 172.88,-62.7627 169.9066,-66.4139 172.7072,-59.267 172.7072,-59.267"/>
<text text-anchor="start" x="147.5" y="-82.9095" font-family="Lato" font-size="12.00" fill="#000000">!a &amp; b</text>
</g>
</g>
</svg>
