<?xml version="1.0" encoding="UTF-8" standalone="no"?>
<?xml-stylesheet href="spot.css" type="text/css"?>
<!DOCTYPE svg PUBLIC "-//W3C//DTD SVG 1.1//EN"
 "http://www.w3.org/Graphics/SVG/1.1/DTD/svg11.dtd">
<!-- Generated by graphviz version 2.40.1 (20161225.0304)
 -->
<!-- Title: G(Gb | Fa) Pages: 1 -->
<svg width="185pt" height="205pt"
 viewBox="0.00 0.00 185.00 205.00" xmlns="http://www.w3.org/2000/svg" xmlns:xlink="http://www.w3.org/1999/xlink">
<g id="graph0" class="graph" transform="scale(1 1) rotate(0) translate(4 201)">
<title>G(Gb | Fa)</title>
<polygon fill="#ffffff" stroke="transparent" points="-4,4 -4,-201 181,-201 181,4 -4,4"/>
<text text-anchor="start" x="70.5" y="-184.4" font-family="Lato" font-size="12.00" fill="#000000">Inf(</text>
<text text-anchor="start" x="88.5" y="-184.4" font-family="Lato" font-size="12.00" fill="#1f78b4">⓿</text>
<text text-anchor="start" x="102.5" y="-184.4" font-family="Lato" font-size="12.00" fill="#000000">)</text>
<text text-anchor="start" x="69.5" y="-172.4" font-family="Lato" font-size="12.00" fill="#000000">[Büchi]</text>
<!-- I -->
<!-- 0 -->
<g id="node2" class="node">
<title>0</title>
<ellipse fill="#ffffa0" stroke="#ff4da0" stroke-width="2" cx="56" cy="-67" rx="18" ry="18"/>
<text text-anchor="middle" x="56" y="-63.9" font-family="Lato" font-size="12.00" fill="#000000">0</text>
</g>
<!-- I&#45;&gt;0 -->
<g id="edge1" class="edge">
<title>I&#45;&gt;0</title>
<path fill="none" stroke="#000000" d="M1.1233,-67C4.178,-67 17.9448,-67 30.9241,-67"/>
<polygon fill="#000000" stroke="#000000" points="37.9807,-67 30.9808,-70.1501 34.4807,-67 30.9807,-67.0001 30.9807,-67.0001 30.9807,-67.0001 34.4807,-67 30.9807,-63.8501 37.9807,-67 37.9807,-67"/>
</g>
<!-- 0&#45;&gt;0 -->
<g id="edge2" class="edge">
<title>0&#45;&gt;0</title>
<path fill="none" stroke="#000000" d="M49.6208,-84.0373C48.3189,-93.8579 50.4453,-103 56,-103 60.166,-103 62.4036,-97.8576 62.7128,-91.1433"/>
<polygon fill="#000000" stroke="#000000" points="62.3792,-84.0373 65.8541,-90.8818 62.5434,-87.5335 62.7076,-91.0296 62.7076,-91.0296 62.7076,-91.0296 62.5434,-87.5335 59.561,-91.1774 62.3792,-84.0373 62.3792,-84.0373"/>
<text text-anchor="start" x="52.5" y="-119.4" font-family="Lato" font-size="12.00" fill="#000000">a</text>
<text text-anchor="start" x="49" y="-106.4" font-family="Lato" font-size="12.00" fill="#1f78b4">⓿</text>
</g>
<!-- 1 -->
<g id="node3" class="node">
<title>1</title>
<ellipse fill="#ffffa0" stroke="#000000" cx="159" cy="-103" rx="18" ry="18"/>
<text text-anchor="middle" x="159" y="-99.9" font-family="Lato" font-size="12.00" fill="#000000">1</text>
</g>
<!-- 0&#45;&gt;1 -->
<g id="edge3" class="edge">
<title>0&#45;&gt;1</title>
<path fill="none" stroke="#ff4da0" stroke-width="2" d="M72.7794,-73.7402C78.813,-76.1068 85.6871,-78.7379 92,-81 106.1006,-86.0527 122.026,-91.3006 134.8116,-95.4032"/>
<polygon fill="#ff4da0" stroke="#ff4da0" stroke-width="2" points="141.5602,-97.556 133.9339,-98.4295 138.0738,-96.9686 134.7394,-95.9049 134.8913,-95.4285 135.0433,-94.9522 138.3777,-96.0159 135.8487,-92.4275 141.5602,-97.556 141.5602,-97.556"/>
<text text-anchor="start" x="92" y="-94.4" font-family="Lato" font-size="12.00" fill="#000000">!a &amp; b</text>
</g>
<!-- 2 -->
<g id="node4" class="node">
<title>2</title>
<ellipse fill="#ffffa0" stroke="#000000" cx="159" cy="-18" rx="18" ry="18"/>
<text text-anchor="middle" x="159" y="-14.9" font-family="Lato" font-size="12.00" fill="#000000">2</text>
</g>
<!-- 0&#45;&gt;2 -->
<g id="edge4" class="edge">
<title>0&#45;&gt;2</title>
<path fill="none" stroke="#ff4da0" stroke-width="2" d="M73.7001,-62.8803C87.5853,-59.2543 107.1484,-53.2603 123,-45 128.6768,-42.0418 134.4077,-38.2113 139.5765,-34.3699"/>
<polygon fill="#ff4da0" stroke="#ff4da0" stroke-width="2" points="145.349,-29.907 141.7377,-36.6806 142.8858,-32.4434 140.1168,-34.5841 139.811,-34.1886 139.5052,-33.793 142.2742,-31.6522 137.8843,-31.6965 145.349,-29.907 145.349,-29.907"/>
<text text-anchor="start" x="102.5" y="-60.4" font-family="Lato" font-size="12.00" fill="#000000">!a</text>
</g>
<!-- 1&#45;&gt;1 -->
<g id="edge5" class="edge">
<title>1&#45;&gt;1</title>
<path fill="none" stroke="#000000" d="M150.3666,-118.916C148.1144,-129.1504 150.9922,-139 159,-139 165.131,-139 168.2548,-133.2263 168.3716,-125.9268"/>
<polygon fill="#000000" stroke="#000000" points="167.6334,-118.916 171.4992,-125.5477 168,-122.3968 168.3665,-125.8775 168.3665,-125.8775 168.3665,-125.8775 168,-122.3968 165.2338,-126.2074 167.6334,-118.916 167.6334,-118.916"/>
<text text-anchor="start" x="155.5" y="-155.4" font-family="Lato" font-size="12.00" fill="#000000">b</text>
<text text-anchor="start" x="152" y="-142.4" font-family="Lato" font-size="12.00" fill="#1f78b4">⓿</text>
</g>
<!-- 2&#45;&gt;0 -->
<g id="edge6" class="edge">
<title>2&#45;&gt;0</title>
<path fill="none" stroke="#000000" d="M141.7241,-12.6459C127.5431,-9.2855 107.3674,-6.9482 92,-15 80.4018,-21.0769 71.7973,-32.7757 65.9142,-43.5402"/>
<polygon fill="#000000" stroke="#000000" points="62.6004,-50.0633 62.9625,-42.3957 64.1857,-46.9429 65.7709,-43.8225 65.7709,-43.8225 65.7709,-43.8225 64.1857,-46.9429 68.5793,-45.2492 62.6004,-50.0633 62.6004,-50.0633"/>
<text text-anchor="start" x="104" y="-31.4" font-family="Lato" font-size="12.00" fill="#000000">a</text>
<text text-anchor="start" x="100.5" y="-18.4" font-family="Lato" font-size="12.00" fill="#1f78b4">⓿</text>
</g>
<!-- 2&#45;&gt;2 -->
<g id="edge7" class="edge">
<title>2&#45;&gt;2</title>
<path fill="none" stroke="#000000" d="M150.3666,-33.916C148.1144,-44.1504 150.9922,-54 159,-54 165.131,-54 168.2548,-48.2263 168.3716,-40.9268"/>
<polygon fill="#000000" stroke="#000000" points="167.6334,-33.916 171.4992,-40.5477 168,-37.3968 168.3665,-40.8775 168.3665,-40.8775 168.3665,-40.8775 168,-37.3968 165.2338,-41.2074 167.6334,-33.916 167.6334,-33.916"/>
<text text-anchor="start" x="154" y="-57.4" font-family="Lato" font-size="12.00" fill="#000000">!a</text>
</g>
</g>
</svg>
