<?xml version="1.0" encoding="UTF-8" standalone="no"?>
<?xml-stylesheet href="spot.css" type="text/css"?>
<!DOCTYPE svg PUBLIC "-//W3C//DTD SVG 1.1//EN"
 "http://www.w3.org/Graphics/SVG/1.1/DTD/svg11.dtd">
<!-- Generated by graphviz version 2.40.1 (20161225.0304)
 -->
<!-- Title: (a W Gb) M b Pages: 1 -->
<svg width="285pt" height="109pt"
 viewBox="0.00 0.00 285.00 109.00" xmlns="http://www.w3.org/2000/svg" xmlns:xlink="http://www.w3.org/1999/xlink">
<g id="graph0" class="graph" transform="scale(1 1) rotate(0) translate(4 105)">
<title>(a W Gb) M b</title>
<polygon fill="#ffffff" stroke="transparent" points="-4,4 -4,-105 281,-105 281,4 -4,4"/>
<text text-anchor="start" x="136" y="-87.4" font-family="Lato" font-size="12.00" fill="#000000">t</text>
<text text-anchor="start" x="128.5" y="-74.4" font-family="Lato" font-size="12.00" fill="#000000">[all]</text>
<!-- I -->
<!-- 0 -->
<g id="node2" class="node">
<title>0</title>
<ellipse fill="#ffffa0" stroke="#ff4da0" stroke-width="2" cx="56" cy="-18" rx="18" ry="18"/>
<text text-anchor="middle" x="56" y="-14.9" font-family="Lato" font-size="12.00" fill="#000000">0</text>
</g>
<!-- I&#45;&gt;0 -->
<g id="edge1" class="edge">
<title>I&#45;&gt;0</title>
<path fill="none" stroke="#000000" d="M1.1233,-18C4.178,-18 17.9448,-18 30.9241,-18"/>
<polygon fill="#000000" stroke="#000000" points="37.9807,-18 30.9808,-21.1501 34.4807,-18 30.9807,-18.0001 30.9807,-18.0001 30.9807,-18.0001 34.4807,-18 30.9807,-14.8501 37.9807,-18 37.9807,-18"/>
</g>
<!-- 0&#45;&gt;0 -->
<g id="edge2" class="edge">
<title>0&#45;&gt;0</title>
<path fill="none" stroke="#ff4da0" stroke-width="2" d="M49.6208,-35.0373C48.3189,-44.8579 50.4453,-54 56,-54 60.166,-54 62.4036,-48.8576 62.7128,-42.1433"/>
<polygon fill="#ff4da0" stroke="#ff4da0" stroke-width="2" points="62.3792,-35.0373 65.8541,-41.8818 63.0428,-38.51 63.207,-42.0062 62.7076,-42.0296 62.2081,-42.0531 62.0439,-38.5569 59.561,-42.1774 62.3792,-35.0373 62.3792,-35.0373"/>
<text text-anchor="start" x="52.5" y="-57.4" font-family="Lato" font-size="12.00" fill="#000000">b</text>
</g>
<!-- 2 -->
<g id="node3" class="node">
<title>2</title>
<ellipse fill="#ffffa0" stroke="#000000" cx="156" cy="-18" rx="18" ry="18"/>
<text text-anchor="middle" x="156" y="-14.9" font-family="Lato" font-size="12.00" fill="#000000">2</text>
</g>
<!-- 0&#45;&gt;2 -->
<g id="edge3" class="edge">
<title>0&#45;&gt;2</title>
<path fill="none" stroke="#ff4da0" stroke-width="2" d="M74.3415,-18C90.1294,-18 113.071,-18 130.6203,-18"/>
<polygon fill="#ff4da0" stroke="#ff4da0" stroke-width="2" points="137.7747,-18 130.7748,-21.1501 134.2747,-18.5 130.7747,-18.5001 130.7747,-18.0001 130.7747,-17.5001 134.2747,-17.5 130.7747,-14.8501 137.7747,-18 137.7747,-18"/>
<text text-anchor="start" x="92" y="-21.4" font-family="Lato" font-size="12.00" fill="#000000">a &amp; b</text>
</g>
<!-- 2&#45;&gt;2 -->
<g id="edge6" class="edge">
<title>2&#45;&gt;2</title>
<path fill="none" stroke="#000000" d="M147.3666,-33.916C145.1144,-44.1504 147.9922,-54 156,-54 162.131,-54 165.2548,-48.2263 165.3716,-40.9268"/>
<polygon fill="#000000" stroke="#000000" points="164.6334,-33.916 168.4992,-40.5477 165,-37.3968 165.3665,-40.8775 165.3665,-40.8775 165.3665,-40.8775 165,-37.3968 162.2338,-41.2074 164.6334,-33.916 164.6334,-33.916"/>
<text text-anchor="start" x="152.5" y="-57.4" font-family="Lato" font-size="12.00" fill="#000000">a</text>
</g>
<!-- 1 -->
<g id="node4" class="node">
<title>1</title>
<ellipse fill="#ffffa0" stroke="#000000" cx="259" cy="-18" rx="18" ry="18"/>
<text text-anchor="middle" x="259" y="-14.9" font-family="Lato" font-size="12.00" fill="#000000">1</text>
</g>
<!-- 2&#45;&gt;1 -->
<g id="edge5" class="edge">
<title>2&#45;&gt;1</title>
<path fill="none" stroke="#000000" d="M174.4143,-18C190.8188,-18 214.9902,-18 233.2978,-18"/>
<polygon fill="#000000" stroke="#000000" points="240.7451,-18 233.7451,-21.1501 237.2451,-18 233.7451,-18.0001 233.7451,-18.0001 233.7451,-18.0001 237.2451,-18 233.745,-14.8501 240.7451,-18 240.7451,-18"/>
<text text-anchor="start" x="192" y="-21.4" font-family="Lato" font-size="12.00" fill="#000000">!a &amp; b</text>
</g>
<!-- 1&#45;&gt;1 -->
<g id="edge4" class="edge">
<title>1&#45;&gt;1</title>
<path fill="none" stroke="#000000" d="M250.3666,-33.916C248.1144,-44.1504 250.9922,-54 259,-54 265.131,-54 268.2548,-48.2263 268.3716,-40.9268"/>
<polygon fill="#000000" stroke="#000000" points="267.6334,-33.916 271.4992,-40.5477 268,-37.3968 268.3665,-40.8775 268.3665,-40.8775 268.3665,-40.8775 268,-37.3968 265.2338,-41.2074 267.6334,-33.916 267.6334,-33.916"/>
<text text-anchor="start" x="255.5" y="-57.4" font-family="Lato" font-size="12.00" fill="#000000">b</text>
</g>
</g>
</svg>
