<?xml version="1.0" encoding="UTF-8" standalone="no"?>
<?xml-stylesheet href="spot.css" type="text/css"?>
<!DOCTYPE svg PUBLIC "-//W3C//DTD SVG 1.1//EN"
 "http://www.w3.org/Graphics/SVG/1.1/DTD/svg11.dtd">
<!-- Generated by graphviz version 2.40.1 (20161225.0304)
 -->
<!-- Title: (a W Gb) M b Pages: 1 -->
<svg width="391pt" height="110pt"
 viewBox="0.00 0.00 391.00 110.26" xmlns="http://www.w3.org/2000/svg" xmlns:xlink="http://www.w3.org/1999/xlink">
<g id="graph0" class="graph" transform="scale(1 1) rotate(0) translate(4 106.261)">
<title>(a W Gb) M b</title>
<polygon fill="#ffffff" stroke="transparent" points="-4,4 -4,-106.261 387,-106.261 387,4 -4,4"/>
<text text-anchor="start" x="189" y="-88.661" font-family="Lato" font-size="12.00" fill="#000000">t</text>
<text text-anchor="start" x="181.5" y="-75.661" font-family="Lato" font-size="12.00" fill="#000000">[all]</text>
<!-- I -->
<!-- 2 -->
<g id="node2" class="node">
<title>2</title>
<ellipse fill="#ffffa0" stroke="#000000" cx="56" cy="-19.261" rx="18" ry="18"/>
<text text-anchor="middle" x="56" y="-16.161" font-family="Lato" font-size="12.00" fill="#000000">2</text>
</g>
<!-- I&#45;&gt;2 -->
<g id="edge1" class="edge">
<title>I&#45;&gt;2</title>
<path fill="none" stroke="#000000" d="M1.1233,-19.261C4.178,-19.261 17.9448,-19.261 30.9241,-19.261"/>
<polygon fill="#000000" stroke="#000000" points="37.9807,-19.261 30.9808,-22.4111 34.4807,-19.261 30.9807,-19.2611 30.9807,-19.2611 30.9807,-19.2611 34.4807,-19.261 30.9807,-16.1111 37.9807,-19.261 37.9807,-19.261"/>
</g>
<!-- 2&#45;&gt;2 -->
<g id="edge7" class="edge">
<title>2&#45;&gt;2</title>
<path fill="none" stroke="#000000" d="M49.6208,-36.2983C48.3189,-46.1189 50.4453,-55.261 56,-55.261 60.166,-55.261 62.4036,-50.1186 62.7128,-43.4043"/>
<polygon fill="#000000" stroke="#000000" points="62.3792,-36.2983 65.8541,-43.1428 62.5434,-39.7944 62.7076,-43.2906 62.7076,-43.2906 62.7076,-43.2906 62.5434,-39.7944 59.561,-43.4384 62.3792,-36.2983 62.3792,-36.2983"/>
<text text-anchor="start" x="40.5" y="-58.661" font-family="Lato" font-size="12.00" fill="#000000">!a &amp; b</text>
</g>
<!-- 1 -->
<g id="node4" class="node">
<title>1</title>
<ellipse fill="#ffffa0" stroke="#000000" cx="159" cy="-19.261" rx="18" ry="18"/>
<text text-anchor="middle" x="159" y="-16.161" font-family="Lato" font-size="12.00" fill="#000000">1</text>
</g>
<!-- 2&#45;&gt;1 -->
<g id="edge6" class="edge">
<title>2&#45;&gt;1</title>
<path fill="none" stroke="#000000" d="M74.4143,-19.261C90.8188,-19.261 114.9902,-19.261 133.2978,-19.261"/>
<polygon fill="#000000" stroke="#000000" points="140.7451,-19.261 133.7451,-22.4111 137.2451,-19.261 133.7451,-19.2611 133.7451,-19.2611 133.7451,-19.2611 137.2451,-19.261 133.745,-16.1111 140.7451,-19.261 140.7451,-19.261"/>
<text text-anchor="start" x="93.5" y="-22.661" font-family="Lato" font-size="12.00" fill="#000000">a &amp; b</text>
</g>
<!-- 0 -->
<g id="node3" class="node">
<title>0</title>
<ellipse fill="#ffffa0" stroke="#000000" cx="365" cy="-19.261" rx="18" ry="18"/>
<text text-anchor="middle" x="365" y="-16.161" font-family="Lato" font-size="12.00" fill="#000000">0</text>
</g>
<!-- 0&#45;&gt;0 -->
<g id="edge2" class="edge">
<title>0&#45;&gt;0</title>
<path fill="none" stroke="#000000" d="M356.3666,-35.177C354.1144,-45.4114 356.9922,-55.261 365,-55.261 371.131,-55.261 374.2548,-49.4873 374.3716,-42.1878"/>
<polygon fill="#000000" stroke="#000000" points="373.6334,-35.177 377.4992,-41.8086 374,-38.6578 374.3665,-42.1385 374.3665,-42.1385 374.3665,-42.1385 374,-38.6578 371.2338,-42.4684 373.6334,-35.177 373.6334,-35.177"/>
<text text-anchor="start" x="361.5" y="-58.661" font-family="Lato" font-size="12.00" fill="#000000">b</text>
</g>
<!-- 1&#45;&gt;2 -->
<g id="edge4" class="edge">
<title>1&#45;&gt;2</title>
<path fill="none" stroke="#000000" d="M143.4151,-10.0618C137.2707,-6.9344 130.0141,-3.8338 123,-2.261 109.5561,.7537 105.4439,.7537 92,-2.261 87.2874,-3.3177 82.4654,-5.0641 77.9447,-7.045"/>
<polygon fill="#000000" stroke="#000000" points="71.5849,-10.0618 76.5593,-4.2156 74.7472,-8.5617 77.9094,-7.0616 77.9094,-7.0616 77.9094,-7.0616 74.7472,-8.5617 79.2595,-9.9077 71.5849,-10.0618 71.5849,-10.0618"/>
<text text-anchor="start" x="92" y="-5.661" font-family="Lato" font-size="12.00" fill="#000000">!a &amp; b</text>
</g>
<!-- 1&#45;&gt;1 -->
<g id="edge3" class="edge">
<title>1&#45;&gt;1</title>
<path fill="none" stroke="#000000" d="M150.3666,-35.177C148.1144,-45.4114 150.9922,-55.261 159,-55.261 165.131,-55.261 168.2548,-49.4873 168.3716,-42.1878"/>
<polygon fill="#000000" stroke="#000000" points="167.6334,-35.177 171.4992,-41.8086 168,-38.6578 168.3665,-42.1385 168.3665,-42.1385 168.3665,-42.1385 168,-38.6578 165.2338,-42.4684 167.6334,-35.177 167.6334,-35.177"/>
<text text-anchor="start" x="145" y="-58.661" font-family="Lato" font-size="12.00" fill="#000000">a &amp; b</text>
</g>
<!-- 3 -->
<g id="node5" class="node">
<title>3</title>
<ellipse fill="#ffffa0" stroke="#000000" cx="262" cy="-19.261" rx="18" ry="18"/>
<text text-anchor="middle" x="262" y="-16.161" font-family="Lato" font-size="12.00" fill="#000000">3</text>
</g>
<!-- 1&#45;&gt;3 -->
<g id="edge5" class="edge">
<title>1&#45;&gt;3</title>
<path fill="none" stroke="#000000" d="M177.4143,-19.261C193.8188,-19.261 217.9902,-19.261 236.2978,-19.261"/>
<polygon fill="#000000" stroke="#000000" points="243.7451,-19.261 236.7451,-22.4111 240.2451,-19.261 236.7451,-19.2611 236.7451,-19.2611 236.7451,-19.2611 240.2451,-19.261 236.745,-16.1111 243.7451,-19.261 243.7451,-19.261"/>
<text text-anchor="start" x="195" y="-22.661" font-family="Lato" font-size="12.00" fill="#000000">a &amp; !b</text>
</g>
<!-- 3&#45;&gt;0 -->
<g id="edge8" class="edge">
<title>3&#45;&gt;0</title>
<path fill="none" stroke="#000000" d="M280.4143,-19.261C296.8188,-19.261 320.9902,-19.261 339.2978,-19.261"/>
<polygon fill="#000000" stroke="#000000" points="346.7451,-19.261 339.7451,-22.4111 343.2451,-19.261 339.7451,-19.2611 339.7451,-19.2611 339.7451,-19.2611 343.2451,-19.261 339.745,-16.1111 346.7451,-19.261 346.7451,-19.261"/>
<text text-anchor="start" x="298" y="-22.661" font-family="Lato" font-size="12.00" fill="#000000">!a &amp; b</text>
</g>
<!-- 3&#45;&gt;3 -->
<g id="edge9" class="edge">
<title>3&#45;&gt;3</title>
<path fill="none" stroke="#000000" d="M253.3666,-35.177C251.1144,-45.4114 253.9922,-55.261 262,-55.261 268.131,-55.261 271.2548,-49.4873 271.3716,-42.1878"/>
<polygon fill="#000000" stroke="#000000" points="270.6334,-35.177 274.4992,-41.8086 271,-38.6578 271.3665,-42.1385 271.3665,-42.1385 271.3665,-42.1385 271,-38.6578 268.2338,-42.4684 270.6334,-35.177 270.6334,-35.177"/>
<text text-anchor="start" x="258.5" y="-58.661" font-family="Lato" font-size="12.00" fill="#000000">a</text>
</g>
</g>
</svg>
