<?xml version="1.0" encoding="UTF-8" standalone="no"?>
<?xml-stylesheet href="spot.css" type="text/css"?>
<!DOCTYPE svg PUBLIC "-//W3C//DTD SVG 1.1//EN"
 "http://www.w3.org/Graphics/SVG/1.1/DTD/svg11.dtd">
<!-- Generated by graphviz version 2.40.1 (20161225.0304)
 -->
<!-- Title: FGa Pages: 1 -->
<svg width="169pt" height="118pt"
 viewBox="0.00 0.00 169.00 118.40" xmlns="http://www.w3.org/2000/svg" xmlns:xlink="http://www.w3.org/1999/xlink">
<g id="graph0" class="graph" transform="scale(1 1) rotate(0) translate(4 114.4)">
<title>FGa</title>
<polygon fill="#ffffff" stroke="transparent" points="-4,4 -4,-114.4 165,-114.4 165,4 -4,4"/>
<text text-anchor="start" x="61.5" y="-83.8" font-family="Lato" font-size="12.00" fill="#000000">[Büchi]</text>
<!-- I -->
<!-- 0 -->
<g id="node2" class="node">
<title>0</title>
<ellipse fill="#ffffa0" stroke="#000000" cx="56" cy="-22" rx="18" ry="18"/>
<text text-anchor="middle" x="56" y="-18.9" font-family="Lato" font-size="12.00" fill="#000000">0</text>
</g>
<!-- I&#45;&gt;0 -->
<g id="edge1" class="edge">
<title>I&#45;&gt;0</title>
<path fill="none" stroke="#000000" d="M1.1233,-22C4.178,-22 17.9448,-22 30.9241,-22"/>
<polygon fill="#000000" stroke="#000000" points="37.9807,-22 30.9808,-25.1501 34.4807,-22 30.9807,-22.0001 30.9807,-22.0001 30.9807,-22.0001 34.4807,-22 30.9807,-18.8501 37.9807,-22 37.9807,-22"/>
</g>
<!-- 0&#45;&gt;0 -->
<g id="edge2" class="edge">
<title>0&#45;&gt;0</title>
<path fill="none" stroke="#000000" d="M49.6208,-39.0373C48.3189,-48.8579 50.4453,-58 56,-58 60.166,-58 62.4036,-52.8576 62.7128,-46.1433"/>
<polygon fill="#000000" stroke="#000000" points="62.3792,-39.0373 65.8541,-45.8818 62.5434,-42.5335 62.7076,-46.0296 62.7076,-46.0296 62.7076,-46.0296 62.5434,-42.5335 59.561,-46.1774 62.3792,-39.0373 62.3792,-39.0373"/>
<text text-anchor="start" x="52.5" y="-61.4" font-family="Lato" font-size="12.00" fill="#000000">1</text>
</g>
<!-- 1 -->
<g id="node3" class="node">
<title>1</title>
<ellipse fill="#ffffa0" stroke="#000000" cx="139" cy="-22" rx="18" ry="18"/>
<ellipse fill="none" stroke="#000000" cx="139" cy="-22" rx="22" ry="22"/>
<text text-anchor="start" x="135.5" y="-18.9" font-family="Lato" font-size="12.00" fill="#000000">1</text>
</g>
<!-- 0&#45;&gt;1 -->
<g id="edge3" class="edge">
<title>0&#45;&gt;1</title>
<path fill="none" stroke="#000000" d="M74.0098,-22C84.4333,-22 97.8048,-22 109.7062,-22"/>
<polygon fill="#000000" stroke="#000000" points="116.887,-22 109.887,-25.1501 113.387,-22 109.887,-22.0001 109.887,-22.0001 109.887,-22.0001 113.387,-22 109.8869,-18.8501 116.887,-22 116.887,-22"/>
<text text-anchor="start" x="92" y="-25.4" font-family="Lato" font-size="12.00" fill="#000000">a</text>
</g>
<!-- 1&#45;&gt;1 -->
<g id="edge4" class="edge">
<title>1&#45;&gt;1</title>
<path fill="none" stroke="#000000" d="M131.3173,-42.9908C130.3688,-53.0872 132.9297,-62 139,-62 143.5527,-62 146.1314,-56.9866 146.7361,-50.2204"/>
<polygon fill="#000000" stroke="#000000" points="146.6827,-42.9908 149.8844,-49.9673 146.7086,-46.4907 146.7345,-49.9906 146.7345,-49.9906 146.7345,-49.9906 146.7086,-46.4907 143.5846,-50.0139 146.6827,-42.9908 146.6827,-42.9908"/>
<text text-anchor="start" x="135.5" y="-65.4" font-family="Lato" font-size="12.00" fill="#000000">a</text>
</g>
</g>
</svg>
