<?xml version="1.0" encoding="UTF-8" standalone="no"?>
<?xml-stylesheet href="spot.css" type="text/css"?>
<!DOCTYPE svg PUBLIC "-//W3C//DTD SVG 1.1//EN"
 "http://www.w3.org/Graphics/SVG/1.1/DTD/svg11.dtd">
<!-- Generated by graphviz version 2.40.1 (20161225.0304)
 -->
<!-- Title: a U Xb Pages: 1 -->
<svg width="354pt" height="133pt"
 viewBox="0.00 0.00 354.00 133.40" xmlns="http://www.w3.org/2000/svg" xmlns:xlink="http://www.w3.org/1999/xlink">
<g id="graph0" class="graph" transform="scale(1 1) rotate(0) translate(4 129.4)">
<title>a U Xb</title>
<polygon fill="#ffffff" stroke="transparent" points="-4,4 -4,-129.4 350,-129.4 350,4 -4,4"/>
<text text-anchor="start" x="154" y="-98.8" font-family="Lato" font-size="12.00" fill="#000000">[Büchi]</text>
<!-- I -->
<!-- 1 -->
<g id="node2" class="node">
<title>1</title>
<ellipse fill="#ffffa0" stroke="#000000" cx="56" cy="-61" rx="18" ry="18"/>
<text text-anchor="middle" x="56" y="-57.9" font-family="Lato" font-size="12.00" fill="#000000">1</text>
</g>
<!-- I&#45;&gt;1 -->
<g id="edge1" class="edge">
<title>I&#45;&gt;1</title>
<path fill="none" stroke="#000000" d="M1.1233,-61C4.178,-61 17.9448,-61 30.9241,-61"/>
<polygon fill="#000000" stroke="#000000" points="37.9807,-61 30.9808,-64.1501 34.4807,-61 30.9807,-61.0001 30.9807,-61.0001 30.9807,-61.0001 34.4807,-61 30.9807,-57.8501 37.9807,-61 37.9807,-61"/>
</g>
<!-- 0 -->
<g id="node3" class="node">
<title>0</title>
<ellipse fill="#ffffa0" stroke="#000000" cx="241" cy="-67" rx="18" ry="18"/>
<text text-anchor="middle" x="241" y="-63.9" font-family="Lato" font-size="12.00" fill="#000000">0</text>
</g>
<!-- 1&#45;&gt;0 -->
<g id="edge3" class="edge">
<title>1&#45;&gt;0</title>
<path fill="none" stroke="#000000" d="M73.41,-66.4692C85.5006,-69.9726 102.0593,-74.19 117,-76 151.3246,-80.1583 191.2442,-75.5888 216.3175,-71.5858"/>
<polygon fill="#000000" stroke="#000000" points="223.2889,-70.4259 216.9009,-74.6821 219.8364,-71.0004 216.3838,-71.5749 216.3838,-71.5749 216.3838,-71.5749 219.8364,-71.0004 215.8668,-68.4676 223.2889,-70.4259 223.2889,-70.4259"/>
<text text-anchor="start" x="130" y="-80.4" font-family="Lato" font-size="12.00" fill="#000000">!a</text>
</g>
<!-- 2 -->
<g id="node5" class="node">
<title>2</title>
<ellipse fill="#ffffa0" stroke="#000000" cx="135" cy="-18" rx="18" ry="18"/>
<text text-anchor="middle" x="135" y="-14.9" font-family="Lato" font-size="12.00" fill="#000000">2</text>
</g>
<!-- 1&#45;&gt;2 -->
<g id="edge4" class="edge">
<title>1&#45;&gt;2</title>
<path fill="none" stroke="#000000" d="M71.9868,-52.2983C83.6585,-45.9454 99.6365,-37.2485 112.5824,-30.202"/>
<polygon fill="#000000" stroke="#000000" points="119.0369,-26.6888 114.3946,-32.802 115.9628,-28.362 112.8887,-30.0353 112.8887,-30.0353 112.8887,-30.0353 115.9628,-28.362 111.3827,-27.2686 119.0369,-26.6888 119.0369,-26.6888"/>
<text text-anchor="start" x="92" y="-43.4" font-family="Lato" font-size="12.00" fill="#000000">a</text>
</g>
<!-- 3 -->
<g id="node4" class="node">
<title>3</title>
<ellipse fill="#ffffa0" stroke="#000000" cx="324" cy="-34" rx="18" ry="18"/>
<ellipse fill="none" stroke="#000000" cx="324" cy="-34" rx="22" ry="22"/>
<text text-anchor="middle" x="324" y="-30.9" font-family="Lato" font-size="12.00" fill="#000000">3</text>
</g>
<!-- 0&#45;&gt;3 -->
<g id="edge2" class="edge">
<title>0&#45;&gt;3</title>
<path fill="none" stroke="#000000" d="M257.7963,-60.322C269.0101,-55.8634 284.0076,-49.9006 296.8924,-44.7777"/>
<polygon fill="#000000" stroke="#000000" points="303.4065,-42.1878 298.0656,-47.7012 300.1541,-43.4809 296.9018,-44.7741 296.9018,-44.7741 296.9018,-44.7741 300.1541,-43.4809 295.738,-41.8469 303.4065,-42.1878 303.4065,-42.1878"/>
<text text-anchor="start" x="277" y="-55.4" font-family="Lato" font-size="12.00" fill="#000000">b</text>
</g>
<!-- 3&#45;&gt;3 -->
<g id="edge8" class="edge">
<title>3&#45;&gt;3</title>
<path fill="none" stroke="#000000" d="M316.3173,-54.9908C315.3688,-65.0872 317.9297,-74 324,-74 328.5527,-74 331.1314,-68.9866 331.7361,-62.2204"/>
<polygon fill="#000000" stroke="#000000" points="331.6827,-54.9908 334.8844,-61.9673 331.7086,-58.4907 331.7345,-61.9906 331.7345,-61.9906 331.7345,-61.9906 331.7086,-58.4907 328.5846,-62.0139 331.6827,-54.9908 331.6827,-54.9908"/>
<text text-anchor="middle" x="324" y="-77.4" font-family="Lato" font-size="12.00" fill="#000000">1</text>
</g>
<!-- 2&#45;&gt;0 -->
<g id="edge5" class="edge">
<title>2&#45;&gt;0</title>
<path fill="none" stroke="#000000" d="M151.5625,-25.6563C169.4538,-33.9268 198.0822,-47.1607 218.1168,-56.4219"/>
<polygon fill="#000000" stroke="#000000" points="224.5538,-59.3975 216.8781,-59.3195 221.3768,-57.9289 218.1998,-56.4602 218.1998,-56.4602 218.1998,-56.4602 221.3768,-57.9289 219.5216,-53.601 224.5538,-59.3975 224.5538,-59.3975"/>
<text text-anchor="start" x="171" y="-52.4" font-family="Lato" font-size="12.00" fill="#000000">!a &amp; !b</text>
</g>
<!-- 2&#45;&gt;3 -->
<g id="edge7" class="edge">
<title>2&#45;&gt;3</title>
<path fill="none" stroke="#000000" d="M153.0874,-19.1147C177.2482,-20.6491 221.3797,-23.6101 259,-27 270.7767,-28.0612 283.7329,-29.4179 294.9583,-30.6539"/>
<polygon fill="#000000" stroke="#000000" points="302.0553,-31.4444 294.7495,-33.8001 298.5768,-31.0569 295.0983,-30.6695 295.0983,-30.6695 295.0983,-30.6695 298.5768,-31.0569 295.447,-27.5388 302.0553,-31.4444 302.0553,-31.4444"/>
<text text-anchor="start" x="237.5" y="-30.4" font-family="Lato" font-size="12.00" fill="#000000">b</text>
</g>
<!-- 2&#45;&gt;2 -->
<g id="edge6" class="edge">
<title>2&#45;&gt;2</title>
<path fill="none" stroke="#000000" d="M128.2664,-35.0373C126.8922,-44.8579 129.1367,-54 135,-54 139.3975,-54 141.7594,-48.8576 142.0858,-42.1433"/>
<polygon fill="#000000" stroke="#000000" points="141.7336,-35.0373 145.2263,-41.8728 141.9069,-38.533 142.0802,-42.0287 142.0802,-42.0287 142.0802,-42.0287 141.9069,-38.533 138.934,-42.1847 141.7336,-35.0373 141.7336,-35.0373"/>
<text text-anchor="start" x="119.5" y="-57.4" font-family="Lato" font-size="12.00" fill="#000000">a &amp; !b</text>
</g>
</g>
</svg>
