<?xml version="1.0" encoding="UTF-8" standalone="no"?>
<?xml-stylesheet href="spot.css" type="text/css"?>
<!DOCTYPE svg PUBLIC "-//W3C//DTD SVG 1.1//EN"
 "http://www.w3.org/Graphics/SVG/1.1/DTD/svg11.dtd">
<!-- Generated by graphviz version 2.40.1 (20161225.0304)
 -->
<!-- Title: G(Gb | Fa) Pages: 1 -->
<svg width="291pt" height="182pt"
 viewBox="0.00 0.00 291.00 182.36" xmlns="http://www.w3.org/2000/svg" xmlns:xlink="http://www.w3.org/1999/xlink">
<g id="graph0" class="graph" transform="scale(1 1) rotate(0) translate(4 178.3617)">
<title>G(Gb | Fa)</title>
<polygon fill="#ffffff" stroke="transparent" points="-4,4 -4,-178.3617 287,-178.3617 287,4 -4,4"/>
<text text-anchor="start" x="123.5" y="-161.7617" font-family="Lato" font-size="12.00" fill="#000000">Inf(</text>
<text text-anchor="start" x="141.5" y="-161.7617" font-family="Lato" font-size="12.00" fill="#1f78b4">⓿</text>
<text text-anchor="start" x="155.5" y="-161.7617" font-family="Lato" font-size="12.00" fill="#000000">)</text>
<text text-anchor="start" x="122.5" y="-149.7617" font-family="Lato" font-size="12.00" fill="#000000">[Büchi]</text>
<!-- I -->
<!-- 0 -->
<g id="node2" class="node">
<title>0</title>
<ellipse fill="#ffffa0" stroke="#000000" cx="56" cy="-64.3617" rx="18" ry="18"/>
<text text-anchor="middle" x="56" y="-61.2617" font-family="Lato" font-size="12.00" fill="#000000">0</text>
</g>
<!-- I&#45;&gt;0 -->
<g id="edge1" class="edge">
<title>I&#45;&gt;0</title>
<path fill="none" stroke="#000000" d="M1.1233,-64.3617C4.178,-64.3617 17.9448,-64.3617 30.9241,-64.3617"/>
<polygon fill="#000000" stroke="#000000" points="37.9807,-64.3617 30.9808,-67.5118 34.4807,-64.3618 30.9807,-64.3618 30.9807,-64.3618 30.9807,-64.3618 34.4807,-64.3618 30.9807,-61.2118 37.9807,-64.3617 37.9807,-64.3617"/>
</g>
<!-- 0&#45;&gt;0 -->
<g id="edge2" class="edge">
<title>0&#45;&gt;0</title>
<path fill="none" stroke="#000000" d="M49.6208,-81.399C48.3189,-91.2196 50.4453,-100.3617 56,-100.3617 60.166,-100.3617 62.4036,-95.2193 62.7128,-88.505"/>
<polygon fill="#000000" stroke="#000000" points="62.3792,-81.399 65.8541,-88.2436 62.5434,-84.8952 62.7076,-88.3913 62.7076,-88.3913 62.7076,-88.3913 62.5434,-84.8952 59.561,-88.5391 62.3792,-81.399 62.3792,-81.399"/>
<text text-anchor="start" x="52.5" y="-116.7617" font-family="Lato" font-size="12.00" fill="#000000">a</text>
<text text-anchor="start" x="49" y="-103.7617" font-family="Lato" font-size="12.00" fill="#1f78b4">⓿</text>
</g>
<!-- 1 -->
<g id="node3" class="node">
<title>1</title>
<ellipse fill="#ffffa0" stroke="#000000" cx="265" cy="-55.3617" rx="18" ry="18"/>
<text text-anchor="middle" x="265" y="-52.2617" font-family="Lato" font-size="12.00" fill="#000000">1</text>
</g>
<!-- 0&#45;&gt;1 -->
<g id="edge3" class="edge">
<title>0&#45;&gt;1</title>
<path fill="none" stroke="#000000" d="M67.8818,-77.9315C89.0288,-100.3432 134.9338,-141.2157 177,-126.3617 205.7704,-116.2026 232.0443,-92.2071 248.2476,-74.9215"/>
<polygon fill="#000000" stroke="#000000" points="253.3457,-69.3464 250.9465,-76.638 250.9838,-71.9293 248.6219,-74.5123 248.6219,-74.5123 248.6219,-74.5123 250.9838,-71.9293 246.2972,-72.3866 253.3457,-69.3464 253.3457,-69.3464"/>
<text text-anchor="start" x="142" y="-132.7617" font-family="Lato" font-size="12.00" fill="#000000">!a &amp; !b</text>
</g>
<!-- 2 -->
<g id="node4" class="node">
<title>2</title>
<ellipse fill="#ffffa0" stroke="#000000" cx="159" cy="-55.3617" rx="18" ry="18"/>
<text text-anchor="middle" x="159" y="-52.2617" font-family="Lato" font-size="12.00" fill="#000000">2</text>
</g>
<!-- 0&#45;&gt;2 -->
<g id="edge4" class="edge">
<title>0&#45;&gt;2</title>
<path fill="none" stroke="#000000" d="M74.0315,-67.1582C87.5849,-68.7802 106.5647,-70.0288 123,-67.3617 127.0827,-66.6992 131.328,-65.6399 135.4107,-64.4183"/>
<polygon fill="#000000" stroke="#000000" points="142.0705,-62.2506 136.3892,-67.4126 138.7424,-63.3339 135.4142,-64.4172 135.4142,-64.4172 135.4142,-64.4172 138.7424,-63.3339 134.4392,-61.4219 142.0705,-62.2506 142.0705,-62.2506"/>
<text text-anchor="start" x="92" y="-71.7617" font-family="Lato" font-size="12.00" fill="#000000">!a &amp; b</text>
</g>
<!-- 1&#45;&gt;0 -->
<g id="edge5" class="edge">
<title>1&#45;&gt;0</title>
<path fill="none" stroke="#000000" d="M251.6968,-43.1337C229.4751,-24.2277 183.0871,8.8151 141,-2.3617 114.0369,-9.5222 88.9911,-30.2076 73.1724,-45.7308"/>
<polygon fill="#000000" stroke="#000000" points="68.1721,-50.7702 70.8665,-43.5825 70.6373,-48.2857 73.1025,-45.8012 73.1025,-45.8012 73.1025,-45.8012 70.6373,-48.2857 75.3386,-48.0199 68.1721,-50.7702 68.1721,-50.7702"/>
<text text-anchor="start" x="155.5" y="-18.7617" font-family="Lato" font-size="12.00" fill="#000000">a</text>
<text text-anchor="start" x="152" y="-5.7617" font-family="Lato" font-size="12.00" fill="#1f78b4">⓿</text>
</g>
<!-- 1&#45;&gt;1 -->
<g id="edge6" class="edge">
<title>1&#45;&gt;1</title>
<path fill="none" stroke="#000000" d="M256.0212,-71.2777C253.679,-81.5121 256.6719,-91.3617 265,-91.3617 271.3762,-91.3617 274.625,-85.588 274.7465,-78.2885"/>
<polygon fill="#000000" stroke="#000000" points="273.9788,-71.2777 277.8721,-77.8932 274.3598,-74.7569 274.7408,-78.2361 274.7408,-78.2361 274.7408,-78.2361 274.3598,-74.7569 271.6095,-78.5791 273.9788,-71.2777 273.9788,-71.2777"/>
<text text-anchor="start" x="260" y="-94.7617" font-family="Lato" font-size="12.00" fill="#000000">!a</text>
</g>
<!-- 2&#45;&gt;0 -->
<g id="edge7" class="edge">
<title>2&#45;&gt;0</title>
<path fill="none" stroke="#000000" d="M143.4772,-45.626C137.3404,-42.3151 130.0728,-39.0314 123,-37.3617 109.5908,-34.1962 105.0707,-33.0048 92,-37.3617 85.8206,-39.4215 79.8477,-43.0035 74.6023,-46.8977"/>
<polygon fill="#000000" stroke="#000000" points="68.8101,-51.5401 72.3022,-44.7043 71.5411,-49.3512 74.2722,-47.1623 74.2722,-47.1623 74.2722,-47.1623 71.5411,-49.3512 76.2422,-49.6202 68.8101,-51.5401 68.8101,-51.5401"/>
<text text-anchor="start" x="104" y="-53.7617" font-family="Lato" font-size="12.00" fill="#000000">a</text>
<text text-anchor="start" x="100.5" y="-40.7617" font-family="Lato" font-size="12.00" fill="#1f78b4">⓿</text>
</g>
<!-- 2&#45;&gt;1 -->
<g id="edge8" class="edge">
<title>2&#45;&gt;1</title>
<path fill="none" stroke="#000000" d="M177.4638,-55.3617C194.6394,-55.3617 220.386,-55.3617 239.5153,-55.3617"/>
<polygon fill="#000000" stroke="#000000" points="246.7478,-55.3617 239.7478,-58.5118 243.2478,-55.3618 239.7478,-55.3618 239.7478,-55.3618 239.7478,-55.3618 243.2478,-55.3618 239.7478,-52.2118 246.7478,-55.3617 246.7478,-55.3617"/>
<text text-anchor="start" x="195" y="-58.7617" font-family="Lato" font-size="12.00" fill="#000000">!a &amp; !b</text>
</g>
<!-- 2&#45;&gt;2 -->
<g id="edge9" class="edge">
<title>2&#45;&gt;2</title>
<path fill="none" stroke="#000000" d="M150.3666,-71.2777C148.1144,-81.5121 150.9922,-91.3617 159,-91.3617 165.131,-91.3617 168.2548,-85.588 168.3716,-78.2885"/>
<polygon fill="#000000" stroke="#000000" points="167.6334,-71.2777 171.4992,-77.9094 168,-74.7585 168.3665,-78.2393 168.3665,-78.2393 168.3665,-78.2393 168,-74.7585 165.2338,-78.5691 167.6334,-71.2777 167.6334,-71.2777"/>
<text text-anchor="start" x="143.5" y="-107.7617" font-family="Lato" font-size="12.00" fill="#000000">!a &amp; b</text>
<text text-anchor="start" x="152" y="-94.7617" font-family="Lato" font-size="12.00" fill="#1f78b4">⓿</text>
</g>
</g>
</svg>
