<?xml version="1.0" encoding="UTF-8" standalone="no"?>
<?xml-stylesheet href="spot.css" type="text/css"?>
<!DOCTYPE svg PUBLIC "-//W3C//DTD SVG 1.1//EN"
 "http://www.w3.org/Graphics/SVG/1.1/DTD/svg11.dtd">
<!-- Generated by graphviz version 2.40.1 (20161225.0304)
 -->
<!-- Pages: 1 -->
<svg width="413pt" height="200pt"
 viewBox="0.00 0.00 413.00 199.53" xmlns="http://www.w3.org/2000/svg" xmlns:xlink="http://www.w3.org/1999/xlink">
<g id="graph0" class="graph" transform="scale(1 1) rotate(0) translate(4 195.5317)">
<polygon fill="#ffffff" stroke="transparent" points="-4,4 -4,-195.5317 409,-195.5317 409,4 -4,4"/>
<text text-anchor="start" x="183.5" y="-164.9317" font-family="Lato" font-size="12.00" fill="#000000">[Büchi]</text>
<!-- I -->
<!-- 0 -->
<g id="node2" class="node">
<title>0</title>
<ellipse fill="#ffffa0" stroke="#000000" cx="60" cy="-74.1317" rx="18" ry="18"/>
<ellipse fill="none" stroke="#000000" cx="60" cy="-74.1317" rx="22" ry="22"/>
<text text-anchor="middle" x="60" y="-71.0317" font-family="Lato" font-size="12.00" fill="#000000">0</text>
</g>
<!-- I&#45;&gt;0 -->
<g id="edge1" class="edge">
<title>I&#45;&gt;0</title>
<path fill="none" stroke="#000000" d="M1.1682,-74.1317C4.2491,-74.1317 17.4946,-74.1317 30.6388,-74.1317"/>
<polygon fill="#000000" stroke="#000000" points="37.8655,-74.1317 30.8656,-77.2818 34.3655,-74.1318 30.8655,-74.1318 30.8655,-74.1318 30.8655,-74.1318 34.3655,-74.1318 30.8655,-70.9818 37.8655,-74.1317 37.8655,-74.1317"/>
</g>
<!-- 0&#45;&gt;0 -->
<g id="edge2" class="edge">
<title>0&#45;&gt;0</title>
<path fill="none" stroke="#000000" d="M52.6831,-95.1225C51.7798,-105.219 54.2188,-114.1317 60,-114.1317 64.3359,-114.1317 66.7918,-109.1183 67.3677,-102.3521"/>
<polygon fill="#000000" stroke="#000000" points="67.3169,-95.1225 70.5161,-102.1001 67.3415,-98.6224 67.3662,-102.1223 67.3662,-102.1223 67.3662,-102.1223 67.3415,-98.6224 64.2163,-102.1445 67.3169,-95.1225 67.3169,-95.1225"/>
<text text-anchor="start" x="56.5" y="-117.5317" font-family="Lato" font-size="12.00" fill="#000000">a</text>
</g>
<!-- 1 -->
<g id="node3" class="node">
<title>1</title>
<ellipse fill="#ffffa0" stroke="#000000" cx="387" cy="-107.1317" rx="18" ry="18"/>
<text text-anchor="middle" x="387" y="-104.0317" font-family="Lato" font-size="12.00" fill="#000000">1</text>
</g>
<!-- 0&#45;&gt;1 -->
<g id="edge3" class="edge">
<title>0&#45;&gt;1</title>
<path fill="none" stroke="#000000" d="M74.3614,-90.8328C81.4949,-98.3791 90.59,-106.9648 100,-113.1317 119.6736,-126.025 125.9182,-128.6025 149,-133.1317 195.7695,-142.309 240.3093,-143.9963 351,-120.1317 355.1614,-119.2346 359.4944,-117.9723 363.6526,-116.5839"/>
<polygon fill="#000000" stroke="#000000" points="370.4243,-114.1704 364.8882,-119.4877 367.1275,-115.3455 363.8306,-116.5205 363.8306,-116.5205 363.8306,-116.5205 367.1275,-115.3455 362.773,-113.5534 370.4243,-114.1704 370.4243,-114.1704"/>
<text text-anchor="start" x="203" y="-142.5317" font-family="Lato" font-size="12.00" fill="#000000">!a &amp; !b</text>
</g>
<!-- 2 -->
<g id="node4" class="node">
<title>2</title>
<ellipse fill="#ffffa0" stroke="#000000" cx="167" cy="-106.1317" rx="18" ry="18"/>
<text text-anchor="middle" x="167" y="-103.0317" font-family="Lato" font-size="12.00" fill="#000000">2</text>
</g>
<!-- 0&#45;&gt;2 -->
<g id="edge4" class="edge">
<title>0&#45;&gt;2</title>
<path fill="none" stroke="#000000" d="M81.8429,-70.666C96.2656,-69.2759 115.324,-69.1865 131,-75.1317 137.9407,-77.764 144.4507,-82.377 149.975,-87.2526"/>
<polygon fill="#000000" stroke="#000000" points="155.1501,-92.1521 147.9012,-89.627 152.6085,-89.7459 150.0668,-87.3396 150.0668,-87.3396 150.0668,-87.3396 152.6085,-89.7459 152.2325,-85.0521 155.1501,-92.1521 155.1501,-92.1521"/>
<text text-anchor="start" x="100" y="-78.5317" font-family="Lato" font-size="12.00" fill="#000000">!a &amp; b</text>
</g>
<!-- 1&#45;&gt;0 -->
<g id="edge5" class="edge">
<title>1&#45;&gt;0</title>
<path fill="none" stroke="#000000" d="M378.5569,-91.0886C365.2695,-67.8496 337.0226,-25.8812 299,-10.1317 223.5392,21.1252 128.3209,-29.3602 84.3276,-57.4013"/>
<polygon fill="#000000" stroke="#000000" points="78.2169,-61.3633 82.3767,-54.912 81.1536,-59.4592 84.0904,-57.5551 84.0904,-57.5551 84.0904,-57.5551 81.1536,-59.4592 85.8041,-60.1982 78.2169,-61.3633 78.2169,-61.3633"/>
<text text-anchor="start" x="216.5" y="-8.5317" font-family="Lato" font-size="12.00" fill="#000000">a</text>
</g>
<!-- 1&#45;&gt;1 -->
<g id="edge6" class="edge">
<title>1&#45;&gt;1</title>
<path fill="none" stroke="#000000" d="M378.0212,-123.0478C375.679,-133.2821 378.6719,-143.1317 387,-143.1317 393.3762,-143.1317 396.625,-137.3581 396.7465,-130.0585"/>
<polygon fill="#000000" stroke="#000000" points="395.9788,-123.0478 399.8721,-129.6633 396.3598,-126.527 396.7408,-130.0062 396.7408,-130.0062 396.7408,-130.0062 396.3598,-126.527 393.6095,-130.3491 395.9788,-123.0478 395.9788,-123.0478"/>
<text text-anchor="start" x="382" y="-146.5317" font-family="Lato" font-size="12.00" fill="#000000">!a</text>
</g>
<!-- 2&#45;&gt;0 -->
<g id="edge7" class="edge">
<title>2&#45;&gt;0</title>
<path fill="none" stroke="#000000" d="M149.2642,-101.7495C135.6993,-98.3056 116.5715,-93.2501 100,-88.1317 95.9469,-86.8799 91.6905,-85.4818 87.5279,-84.0668"/>
<polygon fill="#000000" stroke="#000000" points="80.6638,-81.6924 88.309,-81.0039 83.9715,-82.8366 87.2792,-83.9808 87.2792,-83.9808 87.2792,-83.9808 83.9715,-82.8366 86.2494,-86.9577 80.6638,-81.6924 80.6638,-81.6924"/>
<text text-anchor="start" x="112" y="-99.5317" font-family="Lato" font-size="12.00" fill="#000000">a</text>
</g>
<!-- 2&#45;&gt;1 -->
<g id="edge8" class="edge">
<title>2&#45;&gt;1</title>
<path fill="none" stroke="#000000" d="M185.0035,-106.2136C224.082,-106.3912 316.7688,-106.8125 361.7044,-107.0168"/>
<polygon fill="#000000" stroke="#000000" points="368.7477,-107.0488 361.7334,-110.1668 365.2478,-107.0328 361.7478,-107.0169 361.7478,-107.0169 361.7478,-107.0169 365.2478,-107.0328 361.7621,-103.8669 368.7477,-107.0488 368.7477,-107.0488"/>
<text text-anchor="start" x="260" y="-109.5317" font-family="Lato" font-size="12.00" fill="#000000">!a &amp; !b</text>
</g>
<!-- 3 -->
<g id="node5" class="node">
<title>3</title>
<ellipse fill="#ffffa0" stroke="#000000" cx="277" cy="-41.1317" rx="18" ry="18"/>
<ellipse fill="none" stroke="#000000" cx="277" cy="-41.1317" rx="22" ry="22"/>
<text text-anchor="middle" x="277" y="-38.0317" font-family="Lato" font-size="12.00" fill="#000000">3</text>
</g>
<!-- 2&#45;&gt;3 -->
<g id="edge9" class="edge">
<title>2&#45;&gt;3</title>
<path fill="none" stroke="#000000" d="M182.7603,-96.8188C200.7418,-86.1934 230.3994,-68.6685 251.643,-56.1154"/>
<polygon fill="#000000" stroke="#000000" points="257.9435,-52.3924 253.5195,-58.6655 254.9302,-54.173 251.917,-55.9536 251.917,-55.9536 251.917,-55.9536 254.9302,-54.173 250.3145,-53.2416 257.9435,-52.3924 257.9435,-52.3924"/>
<text text-anchor="start" x="204.5" y="-86.5317" font-family="Lato" font-size="12.00" fill="#000000">!a &amp; b</text>
</g>
<!-- 3&#45;&gt;0 -->
<g id="edge10" class="edge">
<title>3&#45;&gt;0</title>
<path fill="none" stroke="#000000" d="M255.1054,-43.4829C221.5744,-47.2227 155.5467,-55.1362 100,-65.1317 96.2345,-65.8093 92.2869,-66.5991 88.3996,-67.4242"/>
<polygon fill="#000000" stroke="#000000" points="81.5201,-68.9306 87.6842,-64.3561 84.9391,-68.1819 88.3581,-67.4332 88.3581,-67.4332 88.3581,-67.4332 84.9391,-68.1819 89.0319,-70.5103 81.5201,-68.9306 81.5201,-68.9306"/>
<text text-anchor="start" x="163.5" y="-59.5317" font-family="Lato" font-size="12.00" fill="#000000">a</text>
</g>
<!-- 3&#45;&gt;1 -->
<g id="edge11" class="edge">
<title>3&#45;&gt;1</title>
<path fill="none" stroke="#000000" d="M296.1605,-52.6281C315.3784,-64.1588 344.9364,-81.8936 365.078,-93.9786"/>
<polygon fill="#000000" stroke="#000000" points="371.2616,-97.6887 363.6385,-96.7883 368.2604,-95.888 365.2591,-94.0872 365.2591,-94.0872 365.2591,-94.0872 368.2604,-95.888 366.8798,-91.3861 371.2616,-97.6887 371.2616,-97.6887"/>
<text text-anchor="start" x="317" y="-86.5317" font-family="Lato" font-size="12.00" fill="#000000">!a &amp; !b</text>
</g>
<!-- 3&#45;&gt;3 -->
<g id="edge12" class="edge">
<title>3&#45;&gt;3</title>
<path fill="none" stroke="#000000" d="M266.9332,-60.8892C265.2225,-71.4817 268.5781,-81.1317 277,-81.1317 283.448,-81.1317 286.9262,-75.4751 287.4347,-68.0696"/>
<polygon fill="#000000" stroke="#000000" points="287.0668,-60.8892 290.571,-67.7188 287.2459,-64.3846 287.4251,-67.8801 287.4251,-67.8801 287.4251,-67.8801 287.2459,-64.3846 284.2792,-68.0413 287.0668,-60.8892 287.0668,-60.8892"/>
<text text-anchor="start" x="261.5" y="-84.5317" font-family="Lato" font-size="12.00" fill="#000000">!a &amp; b</text>
</g>
</g>
</svg>
