<?xml version="1.0" encoding="UTF-8" standalone="no"?>
<?xml-stylesheet href="spot.css" type="text/css"?>
<!DOCTYPE svg PUBLIC "-//W3C//DTD SVG 1.1//EN"
 "http://www.w3.org/Graphics/SVG/1.1/DTD/svg11.dtd">
<!-- Generated by graphviz version 2.40.1 (20161225.0304)
 -->
<!-- Title: (a W Gb) M b Pages: 1 -->
<svg width="423pt" height="118pt"
 viewBox="0.00 0.00 423.00 118.40" xmlns="http://www.w3.org/2000/svg" xmlns:xlink="http://www.w3.org/1999/xlink">
<g id="graph0" class="graph" transform="scale(1 1) rotate(0) translate(4 114.4)">
<title>(a W Gb) M b</title>
<polygon fill="#ffffff" stroke="transparent" points="-4,4 -4,-114.4 419,-114.4 419,4 -4,4"/>
<text text-anchor="start" x="188.5" y="-83.8" font-family="Lato" font-size="12.00" fill="#000000">[Büchi]</text>
<!-- I -->
<!-- 2 -->
<g id="node2" class="node">
<title>2</title>
<ellipse fill="#ffffa0" stroke="#000000" cx="60" cy="-22" rx="18" ry="18"/>
<ellipse fill="none" stroke="#000000" cx="60" cy="-22" rx="22" ry="22"/>
<text text-anchor="middle" x="60" y="-18.9" font-family="Lato" font-size="12.00" fill="#000000">2</text>
</g>
<!-- I&#45;&gt;2 -->
<g id="edge1" class="edge">
<title>I&#45;&gt;2</title>
<path fill="none" stroke="#000000" d="M1.1682,-22C4.2491,-22 17.4946,-22 30.6388,-22"/>
<polygon fill="#000000" stroke="#000000" points="37.8655,-22 30.8656,-25.1501 34.3655,-22 30.8655,-22.0001 30.8655,-22.0001 30.8655,-22.0001 34.3655,-22 30.8655,-18.8501 37.8655,-22 37.8655,-22"/>
</g>
<!-- 2&#45;&gt;2 -->
<g id="edge7" class="edge">
<title>2&#45;&gt;2</title>
<path fill="none" stroke="#000000" d="M52.6831,-42.9908C51.7798,-53.0872 54.2188,-62 60,-62 64.3359,-62 66.7918,-56.9866 67.3677,-50.2204"/>
<polygon fill="#000000" stroke="#000000" points="67.3169,-42.9908 70.5161,-49.9684 67.3415,-46.4907 67.3662,-49.9906 67.3662,-49.9906 67.3662,-49.9906 67.3415,-46.4907 64.2163,-50.0128 67.3169,-42.9908 67.3169,-42.9908"/>
<text text-anchor="start" x="44.5" y="-65.4" font-family="Lato" font-size="12.00" fill="#000000">!a &amp; b</text>
</g>
<!-- 1 -->
<g id="node4" class="node">
<title>1</title>
<ellipse fill="#ffffa0" stroke="#000000" cx="171" cy="-22" rx="18" ry="18"/>
<ellipse fill="none" stroke="#000000" cx="171" cy="-22" rx="22" ry="22"/>
<text text-anchor="middle" x="171" y="-18.9" font-family="Lato" font-size="12.00" fill="#000000">1</text>
</g>
<!-- 2&#45;&gt;1 -->
<g id="edge6" class="edge">
<title>2&#45;&gt;1</title>
<path fill="none" stroke="#000000" d="M82.1957,-22C99.2867,-22 123.0641,-22 141.7143,-22"/>
<polygon fill="#000000" stroke="#000000" points="148.8427,-22 141.8428,-25.1501 145.3427,-22 141.8427,-22.0001 141.8427,-22.0001 141.8427,-22.0001 145.3427,-22 141.8427,-18.8501 148.8427,-22 148.8427,-22"/>
<text text-anchor="start" x="101.5" y="-25.4" font-family="Lato" font-size="12.00" fill="#000000">a &amp; b</text>
</g>
<!-- 0 -->
<g id="node3" class="node">
<title>0</title>
<ellipse fill="#ffffa0" stroke="#000000" cx="393" cy="-22" rx="18" ry="18"/>
<ellipse fill="none" stroke="#000000" cx="393" cy="-22" rx="22" ry="22"/>
<text text-anchor="middle" x="393" y="-18.9" font-family="Lato" font-size="12.00" fill="#000000">0</text>
</g>
<!-- 0&#45;&gt;0 -->
<g id="edge2" class="edge">
<title>0&#45;&gt;0</title>
<path fill="none" stroke="#000000" d="M383.2928,-41.7575C381.6432,-52.3499 384.8789,-62 393,-62 399.2177,-62 402.5717,-56.3433 403.062,-48.9379"/>
<polygon fill="#000000" stroke="#000000" points="402.7072,-41.7575 406.199,-48.5935 402.88,-45.2532 403.0528,-48.749 403.0528,-48.749 403.0528,-48.749 402.88,-45.2532 399.9066,-48.9044 402.7072,-41.7575 402.7072,-41.7575"/>
<text text-anchor="start" x="389.5" y="-65.4" font-family="Lato" font-size="12.00" fill="#000000">b</text>
</g>
<!-- 1&#45;&gt;2 -->
<g id="edge4" class="edge">
<title>1&#45;&gt;2</title>
<path fill="none" stroke="#000000" d="M151.1599,-11.7145C144.8814,-8.9707 137.8023,-6.3855 131,-5 117.4994,-2.2501 113.5006,-2.2501 100,-5 95.536,-5.9092 90.9528,-7.3352 86.5548,-8.9835"/>
<polygon fill="#000000" stroke="#000000" points="79.8401,-11.7145 85.1375,-6.1593 83.0822,-10.3958 86.3243,-9.0772 86.3243,-9.0772 86.3243,-9.0772 83.0822,-10.3958 87.5111,-11.9951 79.8401,-11.7145 79.8401,-11.7145"/>
<text text-anchor="start" x="100" y="-8.4" font-family="Lato" font-size="12.00" fill="#000000">!a &amp; b</text>
</g>
<!-- 1&#45;&gt;1 -->
<g id="edge3" class="edge">
<title>1&#45;&gt;1</title>
<path fill="none" stroke="#000000" d="M161.2928,-41.7575C159.6432,-52.3499 162.8789,-62 171,-62 177.2177,-62 180.5717,-56.3433 181.062,-48.9379"/>
<polygon fill="#000000" stroke="#000000" points="180.7072,-41.7575 184.199,-48.5935 180.88,-45.2532 181.0528,-48.749 181.0528,-48.749 181.0528,-48.749 180.88,-45.2532 177.9066,-48.9044 180.7072,-41.7575 180.7072,-41.7575"/>
<text text-anchor="start" x="157" y="-65.4" font-family="Lato" font-size="12.00" fill="#000000">a &amp; b</text>
</g>
<!-- 3 -->
<g id="node5" class="node">
<title>3</title>
<ellipse fill="#ffffa0" stroke="#000000" cx="282" cy="-22" rx="18" ry="18"/>
<ellipse fill="none" stroke="#000000" cx="282" cy="-22" rx="22" ry="22"/>
<text text-anchor="middle" x="282" y="-18.9" font-family="Lato" font-size="12.00" fill="#000000">3</text>
</g>
<!-- 1&#45;&gt;3 -->
<g id="edge5" class="edge">
<title>1&#45;&gt;3</title>
<path fill="none" stroke="#000000" d="M193.1957,-22C210.2867,-22 234.0641,-22 252.7143,-22"/>
<polygon fill="#000000" stroke="#000000" points="259.8427,-22 252.8428,-25.1501 256.3427,-22 252.8427,-22.0001 252.8427,-22.0001 252.8427,-22.0001 256.3427,-22 252.8427,-18.8501 259.8427,-22 259.8427,-22"/>
<text text-anchor="start" x="211" y="-25.4" font-family="Lato" font-size="12.00" fill="#000000">a &amp; !b</text>
</g>
<!-- 3&#45;&gt;0 -->
<g id="edge8" class="edge">
<title>3&#45;&gt;0</title>
<path fill="none" stroke="#000000" d="M304.1957,-22C321.2867,-22 345.0641,-22 363.7143,-22"/>
<polygon fill="#000000" stroke="#000000" points="370.8427,-22 363.8428,-25.1501 367.3427,-22 363.8427,-22.0001 363.8427,-22.0001 363.8427,-22.0001 367.3427,-22 363.8427,-18.8501 370.8427,-22 370.8427,-22"/>
<text text-anchor="start" x="322" y="-25.4" font-family="Lato" font-size="12.00" fill="#000000">!a &amp; b</text>
</g>
<!-- 3&#45;&gt;3 -->
<g id="edge9" class="edge">
<title>3&#45;&gt;3</title>
<path fill="none" stroke="#000000" d="M272.2928,-41.7575C270.6432,-52.3499 273.8789,-62 282,-62 288.2177,-62 291.5717,-56.3433 292.062,-48.9379"/>
<polygon fill="#000000" stroke="#000000" points="291.7072,-41.7575 295.199,-48.5935 291.88,-45.2532 292.0528,-48.749 292.0528,-48.749 292.0528,-48.749 291.88,-45.2532 288.9066,-48.9044 291.7072,-41.7575 291.7072,-41.7575"/>
<text text-anchor="start" x="278.5" y="-65.4" font-family="Lato" font-size="12.00" fill="#000000">a</text>
</g>
</g>
</svg>
