<?xml version="1.0" encoding="UTF-8" standalone="no"?>
<?xml-stylesheet href="spot.css" type="text/css"?>
<!DOCTYPE svg PUBLIC "-//W3C//DTD SVG 1.1//EN"
 "http://www.w3.org/Graphics/SVG/1.1/DTD/svg11.dtd">
<!-- Generated by graphviz version 2.40.1 (20161225.0304)
 -->
<!-- Title: | G p0 X F p1 Pages: 1 -->
<svg width="560pt" height="358pt"
 viewBox="0.00 0.00 560.42 358.08" xmlns="http://www.w3.org/2000/svg" xmlns:xlink="http://www.w3.org/1999/xlink">
<g id="graph0" class="graph" transform="scale(1 1) rotate(0) translate(4 354.0833)">
<title>| G p0 X F p1</title>
<polygon fill="#ffffff" stroke="transparent" points="-4,4 -4,-354.0833 556.4163,-354.0833 556.4163,4 -4,4"/>
<text text-anchor="start" x="235.2082" y="-337.4833" font-family="Lato" font-size="12.00" fill="#000000">Fin(</text>
<text text-anchor="start" x="255.2082" y="-337.4833" font-family="Lato" font-size="12.00" fill="#1f78b4">⓿</text>
<text text-anchor="start" x="269.2082" y="-337.4833" font-family="Lato" font-size="12.00" fill="#000000">) | Inf(</text>
<text text-anchor="start" x="299.2082" y="-337.4833" font-family="Lato" font-size="12.00" fill="#ff4da0">❶</text>
<text text-anchor="start" x="313.2082" y="-337.4833" font-family="Lato" font-size="12.00" fill="#000000">)</text>
<text text-anchor="start" x="249.2082" y="-325.4833" font-family="Lato" font-size="12.00" fill="#000000">[Streett 1]</text>
<!-- I -->
<!-- 2 -->
<g id="node2" class="node">
<title>2</title>
<ellipse fill="#ffffa0" stroke="#000000" cx="62.0416" cy="-185.0416" rx="24.0833" ry="24.0833"/>
<text text-anchor="start" x="58.5416" y="-188.4416" font-family="Lato" font-size="12.00" fill="#000000">2</text>
<text text-anchor="start" x="55.0416" y="-175.4416" font-family="Lato" font-size="12.00" fill="#ff4da0">❶</text>
</g>
<!-- I&#45;&gt;2 -->
<g id="edge1" class="edge">
<title>I&#45;&gt;2</title>
<path fill="none" stroke="#000000" d="M1.1911,-185.0416C4.2886,-185.0416 17.3195,-185.0416 30.5321,-185.0416"/>
<polygon fill="#000000" stroke="#000000" points="37.8292,-185.0416 30.8292,-188.1917 34.3292,-185.0417 30.8292,-185.0417 30.8292,-185.0417 30.8292,-185.0417 34.3292,-185.0417 30.8291,-181.8917 37.8292,-185.0416 37.8292,-185.0416"/>
</g>
<!-- 1 -->
<g id="node4" class="node">
<title>1</title>
<ellipse fill="#ffffa0" stroke="#000000" cx="177.1249" cy="-236.0416" rx="24.0833" ry="24.0833"/>
<text text-anchor="start" x="173.6249" y="-239.4416" font-family="Lato" font-size="12.00" fill="#000000">1</text>
<text text-anchor="start" x="170.1249" y="-226.4416" font-family="Lato" font-size="12.00" fill="#ff4da0">❶</text>
</g>
<!-- 2&#45;&gt;1 -->
<g id="edge11" class="edge">
<title>2&#45;&gt;1</title>
<path fill="none" stroke="#000000" d="M80.3426,-200.8195C87.3945,-206.2665 95.7595,-212.0073 104.0833,-216.0416 117.2603,-222.4282 132.7968,-227.0433 146.1456,-230.2194"/>
<polygon fill="#000000" stroke="#000000" points="153.3077,-231.8379 145.7855,-233.3674 149.8938,-231.0664 146.4799,-230.2948 146.4799,-230.2948 146.4799,-230.2948 149.8938,-231.0664 147.1743,-227.2223 153.3077,-231.8379 153.3077,-231.8379"/>
<text text-anchor="start" x="104.0833" y="-229.4416" font-family="Lato" font-size="12.00" fill="#000000">a &amp; !b</text>
</g>
<!-- 2&#45;&gt;1 -->
<g id="edge13" class="edge">
<title>2&#45;&gt;1</title>
<path fill="none" stroke="#000000" d="M86.0783,-186.436C100.8366,-188.0556 119.7779,-191.5435 135.0833,-199.0416 142.3031,-202.5787 149.2451,-207.6909 155.3354,-212.9918"/>
<polygon fill="#000000" stroke="#000000" points="160.6728,-217.8732 153.3814,-215.4734 158.09,-215.5111 155.5073,-213.1489 155.5073,-213.1489 155.5073,-213.1489 158.09,-215.5111 157.6332,-210.8245 160.6728,-217.8732 160.6728,-217.8732"/>
<text text-anchor="start" x="105.5833" y="-202.4416" font-family="Lato" font-size="12.00" fill="#000000">a &amp; b</text>
</g>
<!-- 3 -->
<g id="node5" class="node">
<title>3</title>
<ellipse fill="#ffffa0" stroke="#000000" cx="295.2082" cy="-146.0416" rx="24.0833" ry="24.0833"/>
<text text-anchor="start" x="291.7082" y="-149.4416" font-family="Lato" font-size="12.00" fill="#000000">3</text>
<text text-anchor="start" x="288.2082" y="-136.4416" font-family="Lato" font-size="12.00" fill="#ff4da0">❶</text>
</g>
<!-- 2&#45;&gt;3 -->
<g id="edge10" class="edge">
<title>2&#45;&gt;3</title>
<path fill="none" stroke="#000000" d="M86.1163,-181.0148C128.6381,-173.9025 216.9834,-159.1257 264.0742,-151.2492"/>
<polygon fill="#000000" stroke="#000000" points="271.2644,-150.0465 264.88,-154.3082 267.8124,-150.624 264.3603,-151.2014 264.3603,-151.2014 264.3603,-151.2014 267.8124,-150.624 263.8406,-148.0946 271.2644,-150.0465 271.2644,-150.0465"/>
<text text-anchor="start" x="160.1249" y="-172.4416" font-family="Lato" font-size="12.00" fill="#000000">!a &amp; !b</text>
</g>
<!-- 2&#45;&gt;3 -->
<g id="edge12" class="edge">
<title>2&#45;&gt;3</title>
<path fill="none" stroke="#000000" d="M82.907,-172.8844C100.8391,-163.1818 127.7398,-150.3636 153.0833,-145.0416 190.7057,-137.1412 235.1745,-139.2273 264.2222,-142.0707"/>
<polygon fill="#000000" stroke="#000000" points="271.2615,-142.8043 263.9726,-145.2117 267.7803,-142.4415 264.2992,-142.0786 264.2992,-142.0786 264.2992,-142.0786 267.7803,-142.4415 264.6257,-138.9456 271.2615,-142.8043 271.2615,-142.8043"/>
<text text-anchor="start" x="161.6249" y="-148.4416" font-family="Lato" font-size="12.00" fill="#000000">!a &amp; b</text>
</g>
<!-- 0 -->
<g id="node3" class="node">
<title>0</title>
<ellipse fill="#ffffa0" stroke="#000000" cx="528.3747" cy="-170.0416" rx="24.0833" ry="24.0833"/>
<text text-anchor="start" x="524.8747" y="-173.4416" font-family="Lato" font-size="12.00" fill="#000000">0</text>
<text text-anchor="start" x="521.3747" y="-160.4416" font-family="Lato" font-size="12.00" fill="#ff4da0">❶</text>
</g>
<!-- 0&#45;&gt;0 -->
<g id="edge2" class="edge">
<title>0&#45;&gt;0</title>
<path fill="none" stroke="#000000" d="M525.7657,-194.2353C525.6183,-203.9387 526.488,-212.0833 528.3747,-212.0833 529.7602,-212.0833 530.5973,-207.6909 530.8858,-201.5143"/>
<polygon fill="#000000" stroke="#000000" points="530.9837,-194.2353 534.0392,-201.277 530.9366,-197.735 530.8895,-201.2346 530.8895,-201.2346 530.8895,-201.2346 530.9366,-197.735 527.7398,-201.1923 530.9837,-194.2353 530.9837,-194.2353"/>
<text text-anchor="start" x="511.3747" y="-215.4833" font-family="Lato" font-size="12.00" fill="#000000">!a &amp; !b</text>
</g>
<!-- 0&#45;&gt;0 -->
<g id="edge3" class="edge">
<title>0&#45;&gt;0</title>
<path fill="none" stroke="#000000" d="M523.7736,-193.7734C522.1105,-211.8034 523.6442,-230.0833 528.3747,-230.0833 532.4769,-230.0833 534.1751,-216.3365 533.4693,-200.927"/>
<polygon fill="#000000" stroke="#000000" points="532.9758,-193.7734 536.6001,-200.54 533.2167,-197.2651 533.4576,-200.7568 533.4576,-200.7568 533.4576,-200.7568 533.2167,-197.2651 530.3151,-200.9736 532.9758,-193.7734 532.9758,-193.7734"/>
<text text-anchor="start" x="512.8747" y="-233.4833" font-family="Lato" font-size="12.00" fill="#000000">a &amp; !b</text>
</g>
<!-- 0&#45;&gt;0 -->
<g id="edge4" class="edge">
<title>0&#45;&gt;0</title>
<path fill="none" stroke="#000000" d="M522.4074,-193.6106C518.5516,-219.1217 520.5407,-248.0833 528.3747,-248.0833 535.4742,-248.0833 537.7734,-224.2975 535.2723,-200.8499"/>
<polygon fill="#000000" stroke="#000000" points="534.342,-193.6106 538.3586,-200.152 534.7881,-197.0821 535.2343,-200.5536 535.2343,-200.5536 535.2343,-200.5536 534.7881,-197.0821 532.11,-200.9551 534.342,-193.6106 534.342,-193.6106"/>
<text text-anchor="start" x="512.8747" y="-251.4833" font-family="Lato" font-size="12.00" fill="#000000">!a &amp; b</text>
</g>
<!-- 0&#45;&gt;0 -->
<g id="edge5" class="edge">
<title>0&#45;&gt;0</title>
<path fill="none" stroke="#000000" d="M521.4796,-193.1895C514.9747,-225.8226 517.2731,-266.0833 528.3747,-266.0833 538.6957,-266.0833 541.4079,-231.2853 536.5113,-200.1696"/>
<polygon fill="#000000" stroke="#000000" points="535.2698,-193.1895 539.597,-199.5297 535.8828,-196.6354 536.4957,-200.0814 536.4957,-200.0814 536.4957,-200.0814 535.8828,-196.6354 533.3944,-200.633 535.2698,-193.1895 535.2698,-193.1895"/>
<text text-anchor="start" x="514.3747" y="-269.4833" font-family="Lato" font-size="12.00" fill="#000000">a &amp; b</text>
</g>
<!-- 1&#45;&gt;0 -->
<g id="edge8" class="edge">
<title>1&#45;&gt;0</title>
<path fill="none" stroke="#000000" d="M199.8551,-245.0989C254.1364,-265.1384 393.6866,-307.1193 486.333,-250.0416 504.0224,-239.1436 514.6605,-218.1143 520.8089,-200.3511"/>
<polygon fill="#000000" stroke="#000000" points="523.0261,-193.4813 523.8738,-201.1104 521.9511,-196.8121 520.876,-200.1429 520.876,-200.1429 520.876,-200.1429 521.9511,-196.8121 517.8783,-199.1754 523.0261,-193.4813 523.0261,-193.4813"/>
<text text-anchor="start" x="338.7498" y="-281.4416" font-family="Lato" font-size="12.00" fill="#000000">!a &amp; b</text>
</g>
<!-- 1&#45;&gt;0 -->
<g id="edge9" class="edge">
<title>1&#45;&gt;0</title>
<path fill="none" stroke="#000000" d="M201.0461,-233.3014C253.3255,-227.0338 381.4795,-210.1497 486.333,-184.0416 490.3502,-183.0414 494.5361,-181.8431 498.6424,-180.5741"/>
<polygon fill="#000000" stroke="#000000" points="505.4339,-178.3944 499.7314,-183.5329 502.1013,-179.464 498.7688,-180.5336 498.7688,-180.5336 498.7688,-180.5336 502.1013,-179.464 497.8061,-177.5343 505.4339,-178.3944 505.4339,-178.3944"/>
<text text-anchor="start" x="340.2498" y="-216.4416" font-family="Lato" font-size="12.00" fill="#000000">a &amp; b</text>
</g>
<!-- 1&#45;&gt;1 -->
<g id="edge7" class="edge">
<title>1&#45;&gt;1</title>
<path fill="none" stroke="#000000" d="M166.8812,-258.1038C165.6166,-268.7156 169.0311,-278.0833 177.1249,-278.0833 183.3217,-278.0833 186.7756,-272.5921 187.4866,-265.2556"/>
<polygon fill="#000000" stroke="#000000" points="187.3685,-258.1038 190.6338,-265.0508 187.4264,-261.6033 187.4842,-265.1028 187.4842,-265.1028 187.4842,-265.1028 187.4264,-261.6033 184.3346,-265.1549 187.3685,-258.1038 187.3685,-258.1038"/>
<text text-anchor="start" x="161.6249" y="-281.4833" font-family="Lato" font-size="12.00" fill="#000000">a &amp; !b</text>
</g>
<!-- 1&#45;&gt;3 -->
<g id="edge6" class="edge">
<title>1&#45;&gt;3</title>
<path fill="none" stroke="#000000" d="M197.5849,-222.6972C213.1536,-212.3257 234.9347,-197.344 253.1665,-183.0416 259.375,-178.1713 265.8722,-172.6704 271.8512,-167.4283"/>
<polygon fill="#000000" stroke="#000000" points="277.1733,-162.7123 274.0233,-169.7123 274.5537,-165.0335 271.9342,-167.3548 271.9342,-167.3548 271.9342,-167.3548 274.5537,-165.0335 269.8451,-164.9972 277.1733,-162.7123 277.1733,-162.7123"/>
<text text-anchor="start" x="219.1665" y="-210.4416" font-family="Lato" font-size="12.00" fill="#000000">!a &amp; !b</text>
</g>
<!-- 3&#45;&gt;0 -->
<g id="edge16" class="edge">
<title>3&#45;&gt;0</title>
<path fill="none" stroke="#000000" d="M318.0464,-154.86C324.1954,-156.8983 330.9034,-158.8241 337.2498,-160.0416 392.7747,-170.6937 458.9249,-171.6034 497.0453,-171.0157"/>
<polygon fill="#000000" stroke="#000000" points="504.2842,-170.8807 497.3442,-174.1608 500.7848,-170.946 497.2854,-171.0113 497.2854,-171.0113 497.2854,-171.0113 500.7848,-170.946 497.2266,-167.8619 504.2842,-170.8807 504.2842,-170.8807"/>
<text text-anchor="start" x="397.7914" y="-173.4416" font-family="Lato" font-size="12.00" fill="#000000">!a &amp; b</text>
</g>
<!-- 3&#45;&gt;0 -->
<g id="edge17" class="edge">
<title>3&#45;&gt;0</title>
<path fill="none" stroke="#000000" d="M319.4534,-145.3428C347.8272,-144.8439 396.1727,-144.987 437.333,-150.0416 457.7118,-152.5442 480.253,-157.4787 497.8077,-161.8199"/>
<polygon fill="#000000" stroke="#000000" points="505.005,-163.6352 497.4471,-164.9775 501.6112,-162.7792 498.2175,-161.9232 498.2175,-161.9232 498.2175,-161.9232 501.6112,-162.7792 498.9879,-158.8688 505.005,-163.6352 505.005,-163.6352"/>
<text text-anchor="start" x="399.2914" y="-153.4416" font-family="Lato" font-size="12.00" fill="#000000">a &amp; b</text>
</g>
<!-- 4 -->
<g id="node6" class="node">
<title>4</title>
<ellipse fill="#ffffa0" stroke="#000000" cx="413.2914" cy="-24.0416" rx="24.0833" ry="24.0833"/>
<text text-anchor="start" x="409.7914" y="-27.4416" font-family="Lato" font-size="12.00" fill="#000000">4</text>
<text text-anchor="start" x="406.2914" y="-14.4416" font-family="Lato" font-size="12.00" fill="#1f78b4">⓿</text>
</g>
<!-- 3&#45;&gt;4 -->
<g id="edge14" class="edge">
<title>3&#45;&gt;4</title>
<path fill="none" stroke="#000000" d="M312.1266,-128.562C332.9959,-107.0005 368.516,-70.3023 391.4328,-46.6253"/>
<polygon fill="#000000" stroke="#000000" points="396.4043,-41.4888 393.7994,-48.7095 393.9702,-44.0038 391.536,-46.5187 391.536,-46.5187 391.536,-46.5187 393.9702,-44.0038 389.2725,-44.3279 396.4043,-41.4888 396.4043,-41.4888"/>
<text text-anchor="start" x="337.2498" y="-103.4416" font-family="Lato" font-size="12.00" fill="#000000">!a &amp; !b</text>
</g>
<!-- 3&#45;&gt;4 -->
<g id="edge15" class="edge">
<title>3&#45;&gt;4</title>
<path fill="none" stroke="#000000" d="M300.6817,-122.3263C306.5461,-101.782 317.7556,-72.5316 337.2498,-54.0416 349.7509,-42.1845 367.4971,-34.8265 382.702,-30.367"/>
<polygon fill="#000000" stroke="#000000" points="389.4812,-28.5163 383.558,-33.3987 386.1048,-29.4381 382.7283,-30.3599 382.7283,-30.3599 382.7283,-30.3599 386.1048,-29.4381 381.8987,-27.3211 389.4812,-28.5163 389.4812,-28.5163"/>
<text text-anchor="start" x="338.7498" y="-57.4416" font-family="Lato" font-size="12.00" fill="#000000">a &amp; !b</text>
</g>
<!-- 4&#45;&gt;0 -->
<g id="edge20" class="edge">
<title>4&#45;&gt;0</title>
<path fill="none" stroke="#000000" d="M428.3365,-43.1286C449.0137,-69.3606 486.2322,-116.5777 508.9787,-145.435"/>
<polygon fill="#000000" stroke="#000000" points="513.3259,-150.95 506.5186,-147.4025 511.1592,-148.2012 508.9925,-145.4525 508.9925,-145.4525 508.9925,-145.4525 511.1592,-148.2012 511.4664,-143.5025 513.3259,-150.95 513.3259,-150.95"/>
<text text-anchor="start" x="455.333" y="-118.4416" font-family="Lato" font-size="12.00" fill="#000000">!a &amp; b</text>
</g>
<!-- 4&#45;&gt;0 -->
<g id="edge21" class="edge">
<title>4&#45;&gt;0</title>
<path fill="none" stroke="#000000" d="M436.4489,-31.5482C452.3613,-37.755 472.9515,-48.0095 486.333,-63.0416 505.5758,-84.6579 516.5077,-116.1143 522.3701,-139.3289"/>
<polygon fill="#000000" stroke="#000000" points="524.0303,-146.2489 519.3341,-140.1769 523.2137,-142.8455 522.3971,-139.442 522.3971,-139.442 522.3971,-139.442 523.2137,-142.8455 525.4602,-138.7071 524.0303,-146.2489 524.0303,-146.2489"/>
<text text-anchor="start" x="456.833" y="-66.4416" font-family="Lato" font-size="12.00" fill="#000000">a &amp; b</text>
</g>
<!-- 4&#45;&gt;4 -->
<g id="edge18" class="edge">
<title>4&#45;&gt;4</title>
<path fill="none" stroke="#000000" d="M408.0876,-47.8124C407.7287,-57.7009 409.4633,-66.0833 413.2914,-66.0833 416.1625,-66.0833 417.856,-61.3682 418.3719,-54.839"/>
<polygon fill="#000000" stroke="#000000" points="418.4953,-47.8124 421.5218,-54.8667 418.4338,-51.3119 418.3723,-54.8113 418.3723,-54.8113 418.3723,-54.8113 418.4338,-51.3119 415.2228,-54.756 418.4953,-47.8124 418.4953,-47.8124"/>
<text text-anchor="start" x="396.2914" y="-69.4833" font-family="Lato" font-size="12.00" fill="#000000">!a &amp; !b</text>
</g>
<!-- 4&#45;&gt;4 -->
<g id="edge19" class="edge">
<title>4&#45;&gt;4</title>
<path fill="none" stroke="#000000" d="M404.3301,-46.5234C400.6246,-64.9483 403.6117,-84.0833 413.2914,-84.0833 421.6855,-84.0833 425.0467,-69.6935 423.3749,-53.8557"/>
<polygon fill="#000000" stroke="#000000" points="422.2527,-46.5234 426.4256,-52.9662 422.7823,-49.9831 423.3118,-53.4428 423.3118,-53.4428 423.3118,-53.4428 422.7823,-49.9831 420.1981,-53.9194 422.2527,-46.5234 422.2527,-46.5234"/>
<text text-anchor="start" x="397.7914" y="-87.4833" font-family="Lato" font-size="12.00" fill="#000000">a &amp; !b</text>
</g>
</g>
</svg>
