<?xml version="1.0" encoding="UTF-8" standalone="no"?>
<?xml-stylesheet href="spot.css" type="text/css"?>
<!DOCTYPE svg PUBLIC "-//W3C//DTD SVG 1.1//EN"
 "http://www.w3.org/Graphics/SVG/1.1/DTD/svg11.dtd">
<!-- Generated by graphviz version 2.40.1 (20161225.0304)
 -->
<!-- Title: (a W Gb) M b Pages: 1 -->
<svg width="301pt" height="163pt"
 viewBox="0.00 0.00 301.00 163.40" xmlns="http://www.w3.org/2000/svg" xmlns:xlink="http://www.w3.org/1999/xlink">
<g id="graph0" class="graph" transform="scale(1 1) rotate(0) translate(4 159.4)">
<title>(a W Gb) M b</title>
<polygon fill="#ffffff" stroke="transparent" points="-4,4 -4,-159.4 297,-159.4 297,4 -4,4"/>
<text text-anchor="start" x="127.5" y="-128.8" font-family="Lato" font-size="12.00" fill="#000000">[Büchi]</text>
<!-- I -->
<!-- 0 -->
<g id="node2" class="node">
<title>0</title>
<ellipse fill="#ffffa0" stroke="#ff4da0" stroke-width="2" cx="56" cy="-67" rx="18" ry="18"/>
<text text-anchor="middle" x="56" y="-63.9" font-family="Lato" font-size="12.00" fill="#000000">0</text>
</g>
<!-- I&#45;&gt;0 -->
<g id="edge1" class="edge">
<title>I&#45;&gt;0</title>
<path fill="none" stroke="#000000" d="M1.1233,-67C4.178,-67 17.9448,-67 30.9241,-67"/>
<polygon fill="#000000" stroke="#000000" points="37.9807,-67 30.9808,-70.1501 34.4807,-67 30.9807,-67.0001 30.9807,-67.0001 30.9807,-67.0001 34.4807,-67 30.9807,-63.8501 37.9807,-67 37.9807,-67"/>
</g>
<!-- 0&#45;&gt;0 -->
<g id="edge2" class="edge">
<title>0&#45;&gt;0</title>
<path fill="none" stroke="#ff4da0" stroke-width="2" d="M49.6208,-84.0373C48.3189,-93.8579 50.4453,-103 56,-103 60.166,-103 62.4036,-97.8576 62.7128,-91.1433"/>
<polygon fill="#ff4da0" stroke="#ff4da0" stroke-width="2" points="62.3792,-84.0373 65.8541,-90.8818 63.0428,-87.51 63.207,-91.0062 62.7076,-91.0296 62.2081,-91.0531 62.0439,-87.5569 59.561,-91.1774 62.3792,-84.0373 62.3792,-84.0373"/>
<text text-anchor="start" x="52.5" y="-106.4" font-family="Lato" font-size="12.00" fill="#000000">b</text>
</g>
<!-- 1 -->
<g id="node3" class="node">
<title>1</title>
<ellipse fill="#ffffa0" stroke="#000000" cx="271" cy="-67" rx="18" ry="18"/>
<ellipse fill="none" stroke="#000000" cx="271" cy="-67" rx="22" ry="22"/>
<text text-anchor="middle" x="271" y="-63.9" font-family="Lato" font-size="12.00" fill="#000000">1</text>
</g>
<!-- 0&#45;&gt;1 -->
<g id="edge3" class="edge">
<title>0&#45;&gt;1</title>
<path fill="none" stroke="#ff4da0" stroke-width="2" d="M73.4333,-71.6961C89.9236,-75.8793 115.4378,-81.6858 138,-84 174.137,-87.7065 215.6392,-80.577 242.537,-74.4451"/>
<polygon fill="#ff4da0" stroke="#ff4da0" stroke-width="2" points="249.3838,-72.8336 243.2917,-77.5036 246.0914,-74.1222 242.6845,-74.9241 242.5699,-74.4374 242.4554,-73.9507 245.8623,-73.1488 241.8482,-71.3712 249.3838,-72.8336 249.3838,-72.8336"/>
<text text-anchor="start" x="144.5" y="-88.4" font-family="Lato" font-size="12.00" fill="#000000">!a &amp; b</text>
</g>
<!-- 2 -->
<g id="node4" class="node">
<title>2</title>
<ellipse fill="#ffffa0" stroke="#000000" cx="160" cy="-22" rx="18" ry="18"/>
<ellipse fill="none" stroke="#000000" cx="160" cy="-22" rx="22" ry="22"/>
<text text-anchor="middle" x="160" y="-18.9" font-family="Lato" font-size="12.00" fill="#000000">2</text>
</g>
<!-- 0&#45;&gt;2 -->
<g id="edge4" class="edge">
<title>0&#45;&gt;2</title>
<path fill="none" stroke="#ff4da0" stroke-width="2" d="M72.7094,-59.77C89.0428,-52.7026 114.1716,-41.8296 133.2808,-33.5612"/>
<polygon fill="#ff4da0" stroke="#ff4da0" stroke-width="2" points="139.7646,-30.7557 134.5911,-36.4265 136.751,-32.6045 133.5388,-33.9944 133.3402,-33.5355 133.1417,-33.0767 136.3539,-31.6867 132.0893,-30.6446 139.7646,-30.7557 139.7646,-30.7557"/>
<text text-anchor="start" x="92" y="-54.4" font-family="Lato" font-size="12.00" fill="#000000">a &amp; b</text>
</g>
<!-- 1&#45;&gt;1 -->
<g id="edge5" class="edge">
<title>1&#45;&gt;1</title>
<path fill="none" stroke="#000000" d="M261.2928,-86.7575C259.6432,-97.3499 262.8789,-107 271,-107 277.2177,-107 280.5717,-101.3433 281.062,-93.9379"/>
<polygon fill="#000000" stroke="#000000" points="280.7072,-86.7575 284.199,-93.5935 280.88,-90.2532 281.0528,-93.749 281.0528,-93.749 281.0528,-93.749 280.88,-90.2532 277.9066,-93.9044 280.7072,-86.7575 280.7072,-86.7575"/>
<text text-anchor="start" x="267.5" y="-110.4" font-family="Lato" font-size="12.00" fill="#000000">b</text>
</g>
<!-- 2&#45;&gt;1 -->
<g id="edge6" class="edge">
<title>2&#45;&gt;1</title>
<path fill="none" stroke="#000000" d="M180.6181,-30.3587C198.4527,-37.5889 224.3688,-48.0955 243.8813,-56.0059"/>
<polygon fill="#000000" stroke="#000000" points="250.4923,-58.6861 242.8216,-58.9753 247.2487,-57.3711 244.0051,-56.0561 244.0051,-56.0561 244.0051,-56.0561 247.2487,-57.3711 245.1886,-53.1368 250.4923,-58.6861 250.4923,-58.6861"/>
<text text-anchor="start" x="200" y="-52.4" font-family="Lato" font-size="12.00" fill="#000000">!a &amp; b</text>
</g>
<!-- 2&#45;&gt;2 -->
<g id="edge7" class="edge">
<title>2&#45;&gt;2</title>
<path fill="none" stroke="#000000" d="M150.2928,-41.7575C148.6432,-52.3499 151.8789,-62 160,-62 166.2177,-62 169.5717,-56.3433 170.062,-48.9379"/>
<polygon fill="#000000" stroke="#000000" points="169.7072,-41.7575 173.199,-48.5935 169.88,-45.2532 170.0528,-48.749 170.0528,-48.749 170.0528,-48.749 169.88,-45.2532 166.9066,-48.9044 169.7072,-41.7575 169.7072,-41.7575"/>
<text text-anchor="start" x="156.5" y="-65.4" font-family="Lato" font-size="12.00" fill="#000000">a</text>
</g>
</g>
</svg>
