<?xml version="1.0" encoding="UTF-8" standalone="no"?>
<?xml-stylesheet href="spot.css" type="text/css"?>
<!DOCTYPE svg PUBLIC "-//W3C//DTD SVG 1.1//EN"
 "http://www.w3.org/Graphics/SVG/1.1/DTD/svg11.dtd">
<!-- Generated by graphviz version 2.40.1 (20161225.0304)
 -->
<!-- Pages: 1 -->
<svg width="298pt" height="207pt"
 viewBox="0.00 0.00 298.00 207.40" xmlns="http://www.w3.org/2000/svg" xmlns:xlink="http://www.w3.org/1999/xlink">
<g id="graph0" class="graph" transform="scale(1 1) rotate(0) translate(4 203.4)">
<polygon fill="#ffffff" stroke="transparent" points="-4,4 -4,-203.4 294,-203.4 294,4 -4,4"/>
<text text-anchor="start" x="126" y="-172.8" font-family="Lato" font-size="12.00" fill="#000000">[Büchi]</text>
<!-- I -->
<!-- 0 -->
<g id="node2" class="node">
<title>0</title>
<ellipse fill="#ffffa0" stroke="#ff4da0" stroke-width="2" cx="56" cy="-75" rx="18" ry="18"/>
<text text-anchor="middle" x="56" y="-71.9" font-family="Lato" font-size="12.00" fill="#000000">0</text>
</g>
<!-- I&#45;&gt;0 -->
<g id="edge1" class="edge">
<title>I&#45;&gt;0</title>
<path fill="none" stroke="#000000" d="M1.1233,-75C4.178,-75 17.9448,-75 30.9241,-75"/>
<polygon fill="#000000" stroke="#000000" points="37.9807,-75 30.9808,-78.1501 34.4807,-75 30.9807,-75.0001 30.9807,-75.0001 30.9807,-75.0001 34.4807,-75 30.9807,-71.8501 37.9807,-75 37.9807,-75"/>
</g>
<!-- 0&#45;&gt;0 -->
<g id="edge2" class="edge">
<title>0&#45;&gt;0</title>
<path fill="none" stroke="#ff4da0" stroke-width="2" d="M49.6208,-92.0373C48.3189,-101.8579 50.4453,-111 56,-111 60.166,-111 62.4036,-105.8576 62.7128,-99.1433"/>
<polygon fill="#ff4da0" stroke="#ff4da0" stroke-width="2" points="62.3792,-92.0373 65.8541,-98.8818 63.0428,-95.51 63.207,-99.0062 62.7076,-99.0296 62.2081,-99.0531 62.0439,-95.5569 59.561,-99.1774 62.3792,-92.0373 62.3792,-92.0373"/>
<text text-anchor="start" x="51" y="-114.4" font-family="Lato" font-size="12.00" fill="#000000">!a</text>
</g>
<!-- 1 -->
<g id="node3" class="node">
<title>1</title>
<ellipse fill="#ffffa0" stroke="#ff4da0" stroke-width="2" cx="166" cy="-111" rx="18" ry="18"/>
<text text-anchor="middle" x="166" y="-107.9" font-family="Lato" font-size="12.00" fill="#000000">1</text>
</g>
<!-- 0&#45;&gt;1 -->
<g id="edge3" class="edge">
<title>0&#45;&gt;1</title>
<path fill="none" stroke="#000000" d="M72.7444,-81.8399C78.7747,-84.2159 85.6557,-86.8274 92,-89 108.4544,-94.6348 127.2413,-100.2099 141.7682,-104.3379"/>
<polygon fill="#000000" stroke="#000000" points="148.5285,-106.2421 140.9366,-107.3762 145.1595,-105.2931 141.7906,-104.3442 141.7906,-104.3442 141.7906,-104.3442 145.1595,-105.2931 142.6447,-101.3121 148.5285,-106.2421 148.5285,-106.2421"/>
<text text-anchor="start" x="105.5" y="-103.4" font-family="Lato" font-size="12.00" fill="#000000">a</text>
</g>
<!-- 2 -->
<g id="node4" class="node">
<title>2</title>
<ellipse fill="#ffffa0" stroke="#000000" cx="166" cy="-22" rx="18" ry="18"/>
<ellipse fill="none" stroke="#000000" cx="166" cy="-22" rx="22" ry="22"/>
<text text-anchor="middle" x="166" y="-18.9" font-family="Lato" font-size="12.00" fill="#000000">2</text>
</g>
<!-- 0&#45;&gt;2 -->
<g id="edge4" class="edge">
<title>0&#45;&gt;2</title>
<path fill="none" stroke="#ff4da0" stroke-width="2" d="M70.6232,-64.2139C76.9969,-59.7895 84.6739,-54.821 92,-51 106.8247,-43.268 124.1944,-36.3584 138.3786,-31.2249"/>
<polygon fill="#ff4da0" stroke="#ff4da0" stroke-width="2" points="145.0607,-28.8517 139.5186,-34.1629 141.9299,-30.4943 138.6317,-31.6657 138.4644,-31.1945 138.297,-30.7233 141.5952,-29.552 137.4101,-28.2262 145.0607,-28.8517 145.0607,-28.8517"/>
<text text-anchor="start" x="104" y="-54.4" font-family="Lato" font-size="12.00" fill="#000000">!a</text>
</g>
<!-- 1&#45;&gt;0 -->
<g id="edge5" class="edge">
<title>1&#45;&gt;0</title>
<path fill="none" stroke="#000000" d="M153.8235,-97.064C144.6463,-86.9778 132.5583,-74.668 126,-72 111.835,-66.2374 94.7007,-66.8582 80.9297,-68.9825"/>
<polygon fill="#000000" stroke="#000000" points="73.6654,-70.2864 79.9988,-65.9492 77.1104,-69.668 80.5553,-69.0497 80.5553,-69.0497 80.5553,-69.0497 77.1104,-69.668 81.1118,-72.1501 73.6654,-70.2864 73.6654,-70.2864"/>
<text text-anchor="start" x="92" y="-75.4" font-family="Lato" font-size="12.00" fill="#000000">!a &amp; !b</text>
</g>
<!-- 1&#45;&gt;1 -->
<g id="edge6" class="edge">
<title>1&#45;&gt;1</title>
<path fill="none" stroke="#ff4da0" stroke-width="2" d="M157.3666,-126.916C155.1144,-137.1504 157.9922,-147 166,-147 172.131,-147 175.2548,-141.2263 175.3716,-133.9268"/>
<polygon fill="#ff4da0" stroke="#ff4da0" stroke-width="2" points="174.6334,-126.916 178.4992,-133.5477 175.4972,-130.3444 175.8638,-133.8252 175.3665,-133.8775 174.8693,-133.9299 174.5027,-130.4492 172.2338,-134.2074 174.6334,-126.916 174.6334,-126.916"/>
<text text-anchor="start" x="155" y="-150.4" font-family="Lato" font-size="12.00" fill="#000000">a | b</text>
</g>
<!-- 3 -->
<g id="node5" class="node">
<title>3</title>
<ellipse fill="#ffffa0" stroke="#000000" cx="268" cy="-111" rx="18" ry="18"/>
<ellipse fill="none" stroke="#000000" cx="268" cy="-111" rx="22" ry="22"/>
<text text-anchor="middle" x="268" y="-107.9" font-family="Lato" font-size="12.00" fill="#000000">3</text>
</g>
<!-- 1&#45;&gt;3 -->
<g id="edge7" class="edge">
<title>1&#45;&gt;3</title>
<path fill="none" stroke="#ff4da0" stroke-width="2" d="M184.2356,-111C199.2774,-111 220.9135,-111 238.4284,-111"/>
<polygon fill="#ff4da0" stroke="#ff4da0" stroke-width="2" points="245.6511,-111 238.6512,-114.1501 242.1511,-111.5 238.6511,-111.5001 238.6511,-111.0001 238.6511,-110.5001 242.1511,-110.5 238.6511,-107.8501 245.6511,-111 245.6511,-111"/>
<text text-anchor="start" x="206" y="-114.4" font-family="Lato" font-size="12.00" fill="#000000">a | b</text>
</g>
<!-- 2&#45;&gt;2 -->
<g id="edge8" class="edge">
<title>2&#45;&gt;2</title>
<path fill="none" stroke="#000000" d="M156.9546,-42.1697C155.563,-52.599 158.5781,-62 166,-62 171.6824,-62 174.7816,-56.4893 175.2977,-49.2255"/>
<polygon fill="#000000" stroke="#000000" points="175.0454,-42.1697 178.4436,-49.0526 175.1705,-45.6674 175.2956,-49.1652 175.2956,-49.1652 175.2956,-49.1652 175.1705,-45.6674 172.1476,-49.2778 175.0454,-42.1697 175.0454,-42.1697"/>
<text text-anchor="start" x="161" y="-65.4" font-family="Lato" font-size="12.00" fill="#000000">!a</text>
</g>
<!-- 3&#45;&gt;3 -->
<g id="edge9" class="edge">
<title>3&#45;&gt;3</title>
<path fill="none" stroke="#000000" d="M258.9546,-131.1697C257.563,-141.599 260.5781,-151 268,-151 273.6824,-151 276.7816,-145.4893 277.2977,-138.2255"/>
<polygon fill="#000000" stroke="#000000" points="277.0454,-131.1697 280.4436,-138.0526 277.1705,-134.6674 277.2956,-138.1652 277.2956,-138.1652 277.2956,-138.1652 277.1705,-134.6674 274.1476,-138.2778 277.0454,-131.1697 277.0454,-131.1697"/>
<text text-anchor="start" x="257" y="-154.4" font-family="Lato" font-size="12.00" fill="#000000">a | b</text>
</g>
</g>
</svg>
