<?xml version="1.0" encoding="UTF-8" standalone="no"?>
<?xml-stylesheet href="spot.css" type="text/css"?>
<!DOCTYPE svg PUBLIC "-//W3C//DTD SVG 1.1//EN"
 "http://www.w3.org/Graphics/SVG/1.1/DTD/svg11.dtd">
<!-- Generated by graphviz version 2.40.1 (20161225.0304)
 -->
<!-- Title: F(G!a | G(b U a)) Pages: 1 -->
<svg width="164pt" height="249pt"
 viewBox="0.00 0.00 164.00 249.00" xmlns="http://www.w3.org/2000/svg" xmlns:xlink="http://www.w3.org/1999/xlink">
<g id="graph0" class="graph" transform="scale(1 1) rotate(0) translate(4 245)">
<title>F(G!a | G(b U a))</title>
<polygon fill="#ffffff" stroke="transparent" points="-4,4 -4,-245 160,-245 160,4 -4,4"/>
<text text-anchor="start" x="60" y="-228.4" font-family="Lato" font-size="12.00" fill="#000000">Inf(</text>
<text text-anchor="start" x="78" y="-228.4" font-family="Lato" font-size="12.00" fill="#1f78b4">⓿</text>
<text text-anchor="start" x="92" y="-228.4" font-family="Lato" font-size="12.00" fill="#000000">)</text>
<text text-anchor="start" x="59" y="-216.4" font-family="Lato" font-size="12.00" fill="#000000">[Büchi]</text>
<!-- I -->
<!-- 0 -->
<g id="node2" class="node">
<title>0</title>
<ellipse fill="#ffffa0" stroke="#000000" cx="56" cy="-82" rx="18" ry="18"/>
<text text-anchor="middle" x="56" y="-78.9" font-family="Lato" font-size="12.00" fill="#000000">0</text>
</g>
<!-- I&#45;&gt;0 -->
<g id="edge1" class="edge">
<title>I&#45;&gt;0</title>
<path fill="none" stroke="#000000" d="M1.1233,-82C4.178,-82 17.9448,-82 30.9241,-82"/>
<polygon fill="#000000" stroke="#000000" points="37.9807,-82 30.9808,-85.1501 34.4807,-82 30.9807,-82.0001 30.9807,-82.0001 30.9807,-82.0001 34.4807,-82 30.9807,-78.8501 37.9807,-82 37.9807,-82"/>
</g>
<!-- 0&#45;&gt;0 -->
<g id="edge2" class="edge">
<title>0&#45;&gt;0</title>
<path fill="none" stroke="#000000" d="M49.6208,-99.0373C48.3189,-108.8579 50.4453,-118 56,-118 60.166,-118 62.4036,-112.8576 62.7128,-106.1433"/>
<polygon fill="#000000" stroke="#000000" points="62.3792,-99.0373 65.8541,-105.8818 62.5434,-102.5335 62.7076,-106.0296 62.7076,-106.0296 62.7076,-106.0296 62.5434,-102.5335 59.561,-106.1774 62.3792,-99.0373 62.3792,-99.0373"/>
<text text-anchor="start" x="52.5" y="-121.4" font-family="Lato" font-size="12.00" fill="#000000">1</text>
</g>
<!-- 1 -->
<g id="node3" class="node">
<title>1</title>
<ellipse fill="#ffffa0" stroke="#000000" cx="138" cy="-147" rx="18" ry="18"/>
<text text-anchor="start" x="134.5" y="-143.9" font-family="Lato" font-size="12.00" fill="#000000">1</text>
</g>
<!-- 0&#45;&gt;1 -->
<g id="edge3" class="edge">
<title>0&#45;&gt;1</title>
<path fill="none" stroke="#000000" d="M70.2833,-93.3221C83.5701,-103.8544 103.4873,-119.6424 118.2854,-131.3726"/>
<polygon fill="#000000" stroke="#000000" points="123.8804,-135.8076 116.438,-133.9278 121.1376,-133.6334 118.3947,-131.4592 118.3947,-131.4592 118.3947,-131.4592 121.1376,-133.6334 120.3515,-128.9907 123.8804,-135.8076 123.8804,-135.8076"/>
<text text-anchor="start" x="92" y="-121.4" font-family="Lato" font-size="12.00" fill="#000000">!a</text>
</g>
<!-- 2 -->
<g id="node4" class="node">
<title>2</title>
<ellipse fill="#ffffa0" stroke="#000000" cx="138" cy="-18" rx="18" ry="18"/>
<text text-anchor="middle" x="138" y="-14.9" font-family="Lato" font-size="12.00" fill="#000000">2</text>
</g>
<!-- 0&#45;&gt;2 -->
<g id="edge4" class="edge">
<title>0&#45;&gt;2</title>
<path fill="none" stroke="#000000" d="M70.2833,-70.8521C83.4891,-60.5451 103.2446,-45.1261 118.0141,-33.5987"/>
<polygon fill="#000000" stroke="#000000" points="123.6052,-29.2349 120.0251,-36.0251 120.8461,-31.3884 118.087,-33.5419 118.087,-33.5419 118.087,-33.5419 120.8461,-31.3884 116.1489,-31.0587 123.6052,-29.2349 123.6052,-29.2349"/>
<text text-anchor="start" x="93.5" y="-56.4" font-family="Lato" font-size="12.00" fill="#000000">a</text>
</g>
<!-- 1&#45;&gt;1 -->
<g id="edge5" class="edge">
<title>1&#45;&gt;1</title>
<path fill="none" stroke="#000000" d="M130.9688,-163.6641C129.4063,-173.625 131.75,-183 138,-183 142.6875,-183 145.1777,-177.7266 145.4707,-170.8876"/>
<polygon fill="#000000" stroke="#000000" points="145.0313,-163.6641 148.6006,-170.4598 145.2438,-167.1576 145.4564,-170.6511 145.4564,-170.6511 145.4564,-170.6511 145.2438,-167.1576 142.3122,-170.8425 145.0313,-163.6641 145.0313,-163.6641"/>
<text text-anchor="start" x="133" y="-199.4" font-family="Lato" font-size="12.00" fill="#000000">!a</text>
<text text-anchor="start" x="131" y="-186.4" font-family="Lato" font-size="12.00" fill="#1f78b4">⓿</text>
</g>
<!-- 2&#45;&gt;2 -->
<g id="edge6" class="edge">
<title>2&#45;&gt;2</title>
<path fill="none" stroke="#000000" d="M134.4047,-35.7817C133.7938,-45.3149 134.9922,-54 138,-54 140.2089,-54 141.4419,-49.3161 141.6991,-43.0521"/>
<polygon fill="#000000" stroke="#000000" points="141.5953,-35.7817 144.845,-42.736 141.6453,-39.2814 141.6954,-42.781 141.6954,-42.781 141.6954,-42.781 141.6453,-39.2814 138.5457,-42.8261 141.5953,-35.7817 141.5953,-35.7817"/>
<text text-anchor="start" x="122.5" y="-57.4" font-family="Lato" font-size="12.00" fill="#000000">!a &amp; b</text>
</g>
<!-- 2&#45;&gt;2 -->
<g id="edge7" class="edge">
<title>2&#45;&gt;2</title>
<path fill="none" stroke="#000000" d="M132.1479,-35.1418C128.7056,-52.585 130.6563,-72 138,-72 144.3684,-72 146.6812,-57.3996 144.9382,-42.146"/>
<polygon fill="#000000" stroke="#000000" points="143.8521,-35.1418 148.0376,-41.5763 144.3884,-38.6004 144.9248,-42.0591 144.9248,-42.0591 144.9248,-42.0591 144.3884,-38.6004 141.812,-42.5418 143.8521,-35.1418 143.8521,-35.1418"/>
<text text-anchor="start" x="134.5" y="-88.4" font-family="Lato" font-size="12.00" fill="#000000">a</text>
<text text-anchor="start" x="131" y="-75.4" font-family="Lato" font-size="12.00" fill="#1f78b4">⓿</text>
</g>
</g>
</svg>
