<?xml version="1.0" encoding="UTF-8" standalone="no"?>
<?xml-stylesheet href="spot.css" type="text/css"?>
<!DOCTYPE svg PUBLIC "-//W3C//DTD SVG 1.1//EN"
 "http://www.w3.org/Graphics/SVG/1.1/DTD/svg11.dtd">
<!-- Generated by graphviz version 2.40.1 (20161225.0304)
 -->
<!-- Title: F(G!a | G(b U a)) Pages: 1 -->
<svg width="188pt" height="120pt"
 viewBox="0.00 0.00 188.00 119.58" xmlns="http://www.w3.org/2000/svg" xmlns:xlink="http://www.w3.org/1999/xlink">
<g id="graph0" class="graph" transform="scale(1 1) rotate(0) translate(4 115.5839)">
<title>F(G!a | G(b U a))</title>
<polygon fill="#ffffff" stroke="transparent" points="-4,4 -4,-115.5839 184,-115.5839 184,4 -4,4"/>
<text text-anchor="start" x="71" y="-98.9839" font-family="Lato" font-size="12.00" fill="#000000">Fin(</text>
<text text-anchor="start" x="91" y="-98.9839" font-family="Lato" font-size="12.00" fill="#1f78b4">⓿</text>
<text text-anchor="start" x="105" y="-98.9839" font-family="Lato" font-size="12.00" fill="#000000">)</text>
<text text-anchor="start" x="62.5" y="-86.9839" font-family="Lato" font-size="12.00" fill="#000000">[co&#45;Büchi]</text>
<!-- I -->
<!-- 0 -->
<g id="node2" class="node">
<title>0</title>
<ellipse fill="#ffffa0" stroke="#000000" cx="56" cy="-30.5839" rx="18" ry="18"/>
<text text-anchor="middle" x="56" y="-27.4839" font-family="Lato" font-size="12.00" fill="#000000">0</text>
</g>
<!-- I&#45;&gt;0 -->
<g id="edge1" class="edge">
<title>I&#45;&gt;0</title>
<path fill="none" stroke="#000000" d="M1.1233,-30.5839C4.178,-30.5839 17.9448,-30.5839 30.9241,-30.5839"/>
<polygon fill="#000000" stroke="#000000" points="37.9807,-30.5839 30.9808,-33.734 34.4807,-30.584 30.9807,-30.584 30.9807,-30.584 30.9807,-30.584 34.4807,-30.584 30.9807,-27.434 37.9807,-30.5839 37.9807,-30.5839"/>
</g>
<!-- 0&#45;&gt;0 -->
<g id="edge2" class="edge">
<title>0&#45;&gt;0</title>
<path fill="none" stroke="#000000" d="M49.6208,-47.6212C48.3189,-57.4418 50.4453,-66.5839 56,-66.5839 60.166,-66.5839 62.4036,-61.4415 62.7128,-54.7272"/>
<polygon fill="#000000" stroke="#000000" points="62.3792,-47.6212 65.8541,-54.4658 62.5434,-51.1174 62.7076,-54.6135 62.7076,-54.6135 62.7076,-54.6135 62.5434,-51.1174 59.561,-54.7613 62.3792,-47.6212 62.3792,-47.6212"/>
<text text-anchor="start" x="51" y="-69.9839" font-family="Lato" font-size="12.00" fill="#000000">!a</text>
</g>
<!-- 1 -->
<g id="node3" class="node">
<title>1</title>
<ellipse fill="#ffffa0" stroke="#000000" cx="162" cy="-30.5839" rx="18" ry="18"/>
<text text-anchor="middle" x="162" y="-27.4839" font-family="Lato" font-size="12.00" fill="#000000">1</text>
</g>
<!-- 0&#45;&gt;1 -->
<g id="edge3" class="edge">
<title>0&#45;&gt;1</title>
<path fill="none" stroke="#000000" d="M73.9269,-32.3732C79.6914,-32.8694 86.1097,-33.3389 92,-33.5839 107.0981,-34.2119 110.9019,-34.2119 126,-33.5839 129.5894,-33.4346 133.3749,-33.2019 137.089,-32.9307"/>
<polygon fill="#000000" stroke="#000000" points="144.0731,-32.3732 137.346,-36.0703 140.5842,-32.6517 137.0953,-32.9302 137.0953,-32.9302 137.0953,-32.9302 140.5842,-32.6517 136.8446,-29.7902 144.0731,-32.3732 144.0731,-32.3732"/>
<text text-anchor="start" x="105.5" y="-49.9839" font-family="Lato" font-size="12.00" fill="#000000">a</text>
<text text-anchor="start" x="102" y="-36.9839" font-family="Lato" font-size="12.00" fill="#1f78b4">⓿</text>
</g>
<!-- 1&#45;&gt;0 -->
<g id="edge4" class="edge">
<title>1&#45;&gt;0</title>
<path fill="none" stroke="#000000" d="M149.1899,-17.7623C142.7951,-12.2621 134.5974,-6.4497 126,-3.5839 111.6643,1.1946 106.3357,1.1946 92,-3.5839 85.8206,-5.6437 79.8477,-9.2257 74.6023,-13.1199"/>
<polygon fill="#000000" stroke="#000000" points="68.8101,-17.7623 72.3022,-10.9265 71.5411,-15.5734 74.2722,-13.3845 74.2722,-13.3845 74.2722,-13.3845 71.5411,-15.5734 76.2422,-15.8424 68.8101,-17.7623 68.8101,-17.7623"/>
<text text-anchor="start" x="92" y="-19.9839" font-family="Lato" font-size="12.00" fill="#000000">!a &amp; !b</text>
<text text-anchor="start" x="102" y="-6.9839" font-family="Lato" font-size="12.00" fill="#1f78b4">⓿</text>
</g>
<!-- 1&#45;&gt;1 -->
<g id="edge5" class="edge">
<title>1&#45;&gt;1</title>
<path fill="none" stroke="#000000" d="M153.0212,-46.4999C150.679,-56.7343 153.6719,-66.5839 162,-66.5839 168.3762,-66.5839 171.625,-60.8103 171.7465,-53.5107"/>
<polygon fill="#000000" stroke="#000000" points="170.9788,-46.4999 174.8721,-53.1154 171.3598,-49.9791 171.7408,-53.4584 171.7408,-53.4584 171.7408,-53.4584 171.3598,-49.9791 168.6095,-53.8013 170.9788,-46.4999 170.9788,-46.4999"/>
<text text-anchor="start" x="151" y="-69.9839" font-family="Lato" font-size="12.00" fill="#000000">a | b</text>
</g>
</g>
</svg>
