<?xml version="1.0" encoding="UTF-8" standalone="no"?>
<?xml-stylesheet href="spot.css" type="text/css"?>
<!DOCTYPE svg PUBLIC "-//W3C//DTD SVG 1.1//EN"
 "http://www.w3.org/Graphics/SVG/1.1/DTD/svg11.dtd">
<!-- Generated by graphviz version 2.40.1 (20161225.0304)
 -->
<!-- Title: root Pages: 1 -->
<svg width="410pt" height="320pt"
 viewBox="0.00 0.00 410.00 320.00" xmlns="http://www.w3.org/2000/svg" xmlns:xlink="http://www.w3.org/1999/xlink">
<g id="graph0" class="graph" transform="scale(1 1) rotate(0) translate(4 316)">
<title>root</title>
<polygon fill="#ffffff" stroke="transparent" points="-4,4 -4,-316 406,-316 406,4 -4,4"/>
<!-- I -->
<!-- 0 -->
<g id="node2" class="node">
<title>0</title>
<ellipse fill="#ffffa0" stroke="#000000" cx="56" cy="-85" rx="18" ry="18"/>
<text text-anchor="middle" x="56" y="-81.9" font-family="Lato" font-size="12.00" fill="#000000">0</text>
</g>
<!-- I&#45;&gt;0 -->
<g id="edge1" class="edge">
<title>I&#45;&gt;0</title>
<path fill="none" stroke="#000000" d="M1.1233,-85C4.178,-85 17.9448,-85 30.9241,-85"/>
<polygon fill="#000000" stroke="#000000" points="37.9807,-85 30.9808,-88.1501 34.4807,-85 30.9807,-85.0001 30.9807,-85.0001 30.9807,-85.0001 34.4807,-85 30.9807,-81.8501 37.9807,-85 37.9807,-85"/>
</g>
<!-- 0&#45;&gt;0 -->
<g id="edge2" class="edge">
<title>0&#45;&gt;0</title>
<path fill="none" stroke="#000000" d="M49.6208,-102.0373C48.3189,-111.8579 50.4453,-121 56,-121 60.166,-121 62.4036,-115.8576 62.7128,-109.1433"/>
<polygon fill="#000000" stroke="#000000" points="62.3792,-102.0373 65.8541,-108.8818 62.5434,-105.5335 62.7076,-109.0296 62.7076,-109.0296 62.7076,-109.0296 62.5434,-105.5335 59.561,-109.1774 62.3792,-102.0373 62.3792,-102.0373"/>
<text text-anchor="start" x="39.5" y="-137.4" font-family="Lato" font-size="12.00" fill="#000000">!a &amp; !c</text>
<text text-anchor="start" x="49" y="-124.4" font-family="Lato" font-size="12.00" fill="#1f78b4">⓿</text>
</g>
<!-- 1 -->
<g id="node3" class="node">
<title>1</title>
<ellipse fill="#ffffa0" stroke="#000000" cx="384" cy="-103" rx="18" ry="18"/>
<text text-anchor="middle" x="384" y="-99.9" font-family="Lato" font-size="12.00" fill="#000000">1</text>
</g>
<!-- 0&#45;&gt;1 -->
<g id="edge3" class="edge">
<title>0&#45;&gt;1</title>
<path fill="none" stroke="#000000" d="M67.013,-99.2562C84.3237,-120.3581 120.1682,-159.0232 161,-174 234.8646,-201.0929 324.5759,-146.5763 363.8988,-118.4091"/>
<polygon fill="#000000" stroke="#000000" points="369.7671,-114.1312 365.9662,-120.8002 366.9388,-116.193 364.1106,-118.2548 364.1106,-118.2548 364.1106,-118.2548 366.9388,-116.193 362.255,-115.7093 369.7671,-114.1312 369.7671,-114.1312"/>
<text text-anchor="start" x="249" y="-180.4" font-family="Lato" font-size="12.00" fill="#000000">c</text>
</g>
<!-- 2 -->
<g id="node4" class="node">
<title>2</title>
<ellipse fill="#ffffa0" stroke="#000000" cx="191" cy="-103" rx="18" ry="18"/>
<text text-anchor="middle" x="191" y="-99.9" font-family="Lato" font-size="12.00" fill="#000000">2</text>
</g>
<!-- 0&#45;&gt;2 -->
<g id="edge4" class="edge">
<title>0&#45;&gt;2</title>
<path fill="none" stroke="#000000" d="M73.927,-87.3903C97.5286,-90.5371 139.1513,-96.0868 165.8818,-99.6509"/>
<polygon fill="#000000" stroke="#000000" points="172.9989,-100.5999 165.6439,-102.797 169.5296,-100.1372 166.0603,-99.6746 166.0603,-99.6746 166.0603,-99.6746 169.5296,-100.1372 166.4767,-96.5523 172.9989,-100.5999 172.9989,-100.5999"/>
<text text-anchor="start" x="92" y="-100.4" font-family="Lato" font-size="12.00" fill="#000000">a &amp; b &amp; !c</text>
</g>
<!-- 3 -->
<g id="node5" class="node">
<title>3</title>
<ellipse fill="#ffffa0" stroke="#000000" cx="191" cy="-18" rx="18" ry="18"/>
<text text-anchor="middle" x="191" y="-14.9" font-family="Lato" font-size="12.00" fill="#000000">3</text>
</g>
<!-- 0&#45;&gt;3 -->
<g id="edge5" class="edge">
<title>0&#45;&gt;3</title>
<path fill="none" stroke="#000000" d="M72.5459,-77.8734C90.1911,-70.1621 118.8614,-57.3123 143,-45 151.5172,-40.6556 160.7046,-35.5854 168.7389,-31.0193"/>
<polygon fill="#000000" stroke="#000000" points="175.1766,-27.3294 170.6699,-33.5434 172.14,-29.0699 169.1034,-30.8105 169.1034,-30.8105 169.1034,-30.8105 172.14,-29.0699 167.537,-28.0776 175.1766,-27.3294 175.1766,-27.3294"/>
<text text-anchor="start" x="102.5" y="-72.4" font-family="Lato" font-size="12.00" fill="#000000">a &amp; !c</text>
</g>
<!-- 1&#45;&gt;1 -->
<g id="edge6" class="edge">
<title>1&#45;&gt;1</title>
<path fill="none" stroke="#000000" d="M376.9688,-119.6641C375.4063,-129.625 377.75,-139 384,-139 388.6875,-139 391.1777,-133.7266 391.4707,-126.8876"/>
<polygon fill="#000000" stroke="#000000" points="391.0313,-119.6641 394.6006,-126.4598 391.2438,-123.1576 391.4564,-126.6511 391.4564,-126.6511 391.4564,-126.6511 391.2438,-123.1576 388.3122,-126.8425 391.0313,-119.6641 391.0313,-119.6641"/>
<text text-anchor="start" x="380.5" y="-155.4" font-family="Lato" font-size="12.00" fill="#000000">1</text>
<text text-anchor="start" x="377" y="-142.4" font-family="Lato" font-size="12.00" fill="#1f78b4">⓿</text>
</g>
<!-- 2&#45;&gt;2 -->
<g id="edge7" class="edge">
<title>2&#45;&gt;2</title>
<path fill="none" stroke="#000000" d="M180.8486,-118.1666C177.7725,-128.6641 181.1563,-139 191,-139 198.5366,-139 202.2865,-132.9413 202.2497,-125.39"/>
<polygon fill="#000000" stroke="#000000" points="201.1514,-118.1666 205.318,-124.6135 201.6776,-121.6269 202.2037,-125.0871 202.2037,-125.0871 202.2037,-125.0871 201.6776,-121.6269 199.0895,-125.5607 201.1514,-118.1666 201.1514,-118.1666"/>
<text text-anchor="start" x="187.5" y="-155.4" font-family="Lato" font-size="12.00" fill="#000000">b</text>
<text text-anchor="start" x="184" y="-142.4" font-family="Lato" font-size="12.00" fill="#1f78b4">⓿</text>
</g>
<!-- 3&#45;&gt;0 -->
<g id="edge8" class="edge">
<title>3&#45;&gt;0</title>
<path fill="none" stroke="#000000" d="M173.8065,-12.1618C152.8401,-6.1676 117.1001,.3163 92,-15 75.9154,-24.815 66.7139,-44.3638 61.647,-60.3138"/>
<polygon fill="#000000" stroke="#000000" points="59.6,-67.3411 58.5334,-59.7394 60.5789,-63.9808 61.5577,-60.6204 61.5577,-60.6204 61.5577,-60.6204 60.5789,-63.9808 64.582,-61.5014 59.6,-67.3411 59.6,-67.3411"/>
<text text-anchor="start" x="101" y="-31.4" font-family="Lato" font-size="12.00" fill="#000000">!a &amp; !c</text>
<text text-anchor="start" x="110.5" y="-18.4" font-family="Lato" font-size="12.00" fill="#1f78b4">⓿</text>
</g>
<!-- 3&#45;&gt;1 -->
<g id="edge9" class="edge">
<title>3&#45;&gt;1</title>
<path fill="none" stroke="#000000" d="M205.3934,-28.8665C223.062,-41.7464 254.3413,-63.0857 284,-76 308.6302,-86.7248 338.567,-94.1269 359.2301,-98.4322"/>
<polygon fill="#000000" stroke="#000000" points="366.1282,-99.8262 358.6429,-101.5271 362.6975,-99.1329 359.2669,-98.4395 359.2669,-98.4395 359.2669,-98.4395 362.6975,-99.1329 359.8909,-95.352 366.1282,-99.8262 366.1282,-99.8262"/>
<text text-anchor="start" x="287" y="-92.4" font-family="Lato" font-size="12.00" fill="#000000">!a &amp; c</text>
</g>
<!-- 3&#45;&gt;3 -->
<g id="edge10" class="edge">
<title>3&#45;&gt;3</title>
<path fill="none" stroke="#000000" d="M180.8486,-33.1666C177.7725,-43.6641 181.1563,-54 191,-54 198.5366,-54 202.2865,-47.9413 202.2497,-40.39"/>
<polygon fill="#000000" stroke="#000000" points="201.1514,-33.1666 205.318,-39.6135 201.6776,-36.6269 202.2037,-40.0871 202.2037,-40.0871 202.2037,-40.0871 201.6776,-36.6269 199.0895,-40.5607 201.1514,-33.1666 201.1514,-33.1666"/>
<text text-anchor="start" x="176" y="-57.4" font-family="Lato" font-size="12.00" fill="#000000">a &amp; !c</text>
</g>
<!-- 4 -->
<g id="node6" class="node">
<title>4</title>
<ellipse fill="#ffffa0" stroke="#000000" cx="302" cy="-18" rx="18" ry="18"/>
<text text-anchor="middle" x="302" y="-14.9" font-family="Lato" font-size="12.00" fill="#000000">4</text>
</g>
<!-- 3&#45;&gt;4 -->
<g id="edge11" class="edge">
<title>3&#45;&gt;4</title>
<path fill="none" stroke="#000000" d="M209.3294,-18C227.6464,-18 255.9606,-18 276.4724,-18"/>
<polygon fill="#000000" stroke="#000000" points="283.6434,-18 276.6434,-21.1501 280.1434,-18 276.6434,-18.0001 276.6434,-18.0001 276.6434,-18.0001 280.1434,-18 276.6433,-14.8501 283.6434,-18 283.6434,-18"/>
<text text-anchor="start" x="239" y="-21.4" font-family="Lato" font-size="12.00" fill="#000000">a &amp; c</text>
</g>
<!-- 4&#45;&gt;1 -->
<g id="edge12" class="edge">
<title>4&#45;&gt;1</title>
<path fill="none" stroke="#000000" d="M314.8125,-31.2813C328.653,-45.6281 350.7995,-68.5848 366.2979,-84.6503"/>
<polygon fill="#000000" stroke="#000000" points="371.2775,-89.812 364.1503,-86.9612 368.8474,-87.2931 366.4174,-84.7741 366.4174,-84.7741 366.4174,-84.7741 368.8474,-87.2931 368.6844,-82.5871 371.2775,-89.812 371.2775,-89.812"/>
<text text-anchor="start" x="338" y="-69.4" font-family="Lato" font-size="12.00" fill="#000000">!a</text>
</g>
<!-- 4&#45;&gt;4 -->
<g id="edge13" class="edge">
<title>4&#45;&gt;4</title>
<path fill="none" stroke="#000000" d="M294.9688,-34.6641C293.4063,-44.625 295.75,-54 302,-54 306.6875,-54 309.1777,-48.7266 309.4707,-41.8876"/>
<polygon fill="#000000" stroke="#000000" points="309.0313,-34.6641 312.6006,-41.4598 309.2438,-38.1576 309.4564,-41.6511 309.4564,-41.6511 309.4564,-41.6511 309.2438,-38.1576 306.3122,-41.8425 309.0313,-34.6641 309.0313,-34.6641"/>
<text text-anchor="start" x="298.5" y="-57.4" font-family="Lato" font-size="12.00" fill="#000000">a</text>
</g>
<!-- I_gv1 -->
<!-- 1_gv1 -->
<g id="node8" class="node">
<title>1_gv1</title>
<ellipse fill="#ffffa0" stroke="#000000" cx="56" cy="-251" rx="18" ry="18"/>
<text text-anchor="middle" x="56" y="-247.9" font-family="Lato" font-size="12.00" fill="#000000">1</text>
</g>
<!-- I_gv1&#45;&gt;1_gv1 -->
<g id="edge14" class="edge">
<title>I_gv1&#45;&gt;1_gv1</title>
<path fill="none" stroke="#000000" d="M1.1233,-251C4.178,-251 17.9448,-251 30.9241,-251"/>
<polygon fill="#000000" stroke="#000000" points="37.9807,-251 30.9808,-254.1501 34.4807,-251 30.9807,-251.0001 30.9807,-251.0001 30.9807,-251.0001 34.4807,-251 30.9807,-247.8501 37.9807,-251 37.9807,-251"/>
</g>
<!-- 1_gv1&#45;&gt;1_gv1 -->
<g id="edge15" class="edge">
<title>1_gv1&#45;&gt;1_gv1</title>
<path fill="none" stroke="#000000" d="M49.6208,-268.0373C48.3189,-277.8579 50.4453,-287 56,-287 60.166,-287 62.4036,-281.8576 62.7128,-275.1433"/>
<polygon fill="#000000" stroke="#000000" points="62.3792,-268.0373 65.8541,-274.8818 62.5434,-271.5335 62.7076,-275.0296 62.7076,-275.0296 62.7076,-275.0296 62.5434,-271.5335 59.561,-275.1774 62.3792,-268.0373 62.3792,-268.0373"/>
<text text-anchor="start" x="40.5" y="-290.4" font-family="Lato" font-size="12.00" fill="#000000">a &amp; !b</text>
</g>
<!-- 0_gv1 -->
<g id="node9" class="node">
<title>0_gv1</title>
<ellipse fill="#ffffa0" stroke="#000000" cx="191" cy="-251" rx="26" ry="26"/>
<ellipse fill="none" stroke="#000000" cx="191" cy="-251" rx="30" ry="30"/>
<text text-anchor="middle" x="191" y="-247.9" font-family="Lato" font-size="12.00" fill="#000000">0</text>
</g>
<!-- 1_gv1&#45;&gt;0_gv1 -->
<g id="edge16" class="edge">
<title>1_gv1&#45;&gt;0_gv1</title>
<path fill="none" stroke="#000000" d="M74.2067,-251C94.5346,-251 127.9771,-251 153.8787,-251"/>
<polygon fill="#000000" stroke="#000000" points="160.9671,-251 153.9671,-254.1501 157.4671,-251 153.9671,-251.0001 153.9671,-251.0001 153.9671,-251.0001 157.4671,-251 153.967,-247.8501 160.9671,-251 160.9671,-251"/>
<text text-anchor="start" x="114" y="-254.4" font-family="Lato" font-size="12.00" fill="#000000">b</text>
</g>
<!-- 0_gv1&#45;&gt;0_gv1 -->
<g id="edge17" class="edge">
<title>0_gv1&#45;&gt;0_gv1</title>
<path fill="none" stroke="#000000" d="M179.7939,-279.103C179.2959,-289.9688 183.0313,-299 191,-299 197.1011,-299 200.7206,-293.706 201.8586,-286.348"/>
<polygon fill="#000000" stroke="#000000" points="202.2061,-279.103 205.017,-286.2459 202.0383,-282.599 201.8706,-286.095 201.8706,-286.095 201.8706,-286.095 202.0383,-282.599 198.7243,-285.9441 202.2061,-279.103 202.2061,-279.103"/>
<text text-anchor="middle" x="191" y="-302.4" font-family="Lato" font-size="12.00" fill="#000000">1</text>
</g>
</g>
</svg>
