<?xml version="1.0" encoding="UTF-8" standalone="no"?>
<?xml-stylesheet href="spot.css" type="text/css"?>
<!DOCTYPE svg PUBLIC "-//W3C//DTD SVG 1.1//EN"
 "http://www.w3.org/Graphics/SVG/1.1/DTD/svg11.dtd">
<!-- Generated by graphviz version 2.40.1 (20161225.0304)
 -->
<!-- Pages: 1 -->
<svg width="399pt" height="349pt"
 viewBox="0.00 0.00 399.07 348.70" xmlns="http://www.w3.org/2000/svg" xmlns:xlink="http://www.w3.org/1999/xlink">
<g id="graph0" class="graph" transform="scale(1 1) rotate(0) translate(4 344.6968)">
<polygon fill="#ffffff" stroke="transparent" points="-4,4 -4,-344.6968 395.0677,-344.6968 395.0677,4 -4,4"/>
<!-- I -->
<!-- 0 -->
<g id="node2" class="node">
<title>0</title>
<g id="a_node2"><a xlink:title="(x = 0, y = 0)&#10;!odd_x &amp; !odd_y">
<ellipse fill="#ffffa0" stroke="#000000" cx="73" cy="-170.3484" rx="18" ry="18"/>
<text text-anchor="middle" x="73" y="-167.2484" font-family="Lato" font-size="12.00" fill="#000000">0</text>
</a>
</g>
</g>
<!-- I&#45;&gt;0 -->
<g id="edge1" class="edge">
<title>I&#45;&gt;0</title>
<path fill="none" stroke="#000000" d="M1.3142,-170.3484C5.9013,-170.3484 28.9801,-170.3484 47.7307,-170.3484"/>
<polygon fill="#000000" stroke="#000000" points="54.9155,-170.3484 47.9155,-173.4983 51.4155,-170.3483 47.9155,-170.3483 47.9155,-170.3483 47.9155,-170.3483 51.4155,-170.3483 47.9156,-167.1983 54.9155,-170.3484 54.9155,-170.3484"/>
</g>
<!-- 1 -->
<g id="node3" class="node">
<title>1</title>
<g id="a_node3"><a xlink:title="(x = 1, y = 0)&#10;odd_x &amp; !odd_y">
<ellipse fill="#ffffa0" stroke="#000000" cx="373.0677" cy="-223.2584" rx="18" ry="18"/>
<text text-anchor="middle" x="373.0677" y="-220.1584" font-family="Lato" font-size="12.00" fill="#000000">1</text>
</a>
</g>
</g>
<!-- 0&#45;&gt;1 -->
<g id="edge2" class="edge">
<title>0&#45;&gt;1</title>
<path fill="none" stroke="#e31a1c" stroke-width="2" d="M90.872,-173.4997C142.0529,-182.5243 289.273,-208.4832 348.2242,-218.8778"/>
<polygon fill="#e31a1c" stroke="#e31a1c" stroke-width="2" points="355.2894,-220.1236 347.8487,-222.0102 351.7558,-220.0082 348.3089,-219.4004 348.3958,-218.908 348.4826,-218.4156 351.9294,-219.0234 348.9428,-215.8059 355.2894,-220.1236 355.2894,-220.1236"/>
</g>
<!-- 2 -->
<g id="node4" class="node">
<title>2</title>
<g id="a_node4"><a xlink:title="(x = 0, y = 1)&#10;!odd_x &amp; odd_y">
<ellipse fill="#ffffa0" stroke="#000000" cx="200.8355" cy="-322.6968" rx="18" ry="18"/>
<text text-anchor="middle" x="200.8355" y="-319.5968" font-family="Lato" font-size="12.00" fill="#000000">2</text>
</a>
</g>
</g>
<!-- 0&#45;&gt;2 -->
<g id="edge3" class="edge">
<title>0&#45;&gt;2</title>
<path fill="none" stroke="#000000" d="M84.7973,-184.4079C107.7236,-211.7303 158.331,-272.0419 184.4807,-303.206"/>
<polygon fill="#000000" stroke="#000000" points="189.0667,-308.6713 182.1541,-305.3337 186.8169,-305.9901 184.5671,-303.3089 184.5671,-303.3089 184.5671,-303.3089 186.8169,-305.9901 186.9802,-301.2841 189.0667,-308.6713 189.0667,-308.6713"/>
</g>
<!-- 3 -->
<g id="node5" class="node">
<title>3</title>
<g id="a_node5"><a xlink:title="(x = 2, y = 0)&#10;!odd_x &amp; !odd_y">
<ellipse fill="#ffffa0" stroke="#000000" cx="109.1926" cy="-70.91" rx="18" ry="18"/>
<text text-anchor="middle" x="109.1926" y="-67.81" font-family="Lato" font-size="12.00" fill="#000000">3</text>
</a>
</g>
</g>
<!-- 1&#45;&gt;3 -->
<g id="edge4" class="edge">
<title>1&#45;&gt;3</title>
<path fill="none" stroke="#000000" d="M357.3514,-214.1846C312.3437,-188.1994 182.8804,-113.4537 131.0396,-83.5234"/>
<polygon fill="#000000" stroke="#000000" points="124.8266,-79.9363 132.4638,-80.7084 127.8577,-81.6864 130.8888,-83.4364 130.8888,-83.4364 130.8888,-83.4364 127.8577,-81.6864 129.3138,-86.1644 124.8266,-79.9363 124.8266,-79.9363"/>
</g>
<!-- 4 -->
<g id="node6" class="node">
<title>4</title>
<g id="a_node6"><a xlink:title="(x = 1, y = 1)&#10;odd_x &amp; odd_y">
<ellipse fill="#ffffa0" stroke="#000000" cx="305.0479" cy="-304.3213" rx="18" ry="18"/>
<text text-anchor="middle" x="305.0479" y="-301.2213" font-family="Lato" font-size="12.00" fill="#000000">4</text>
</a>
</g>
</g>
<!-- 1&#45;&gt;4 -->
<g id="edge5" class="edge">
<title>1&#45;&gt;4</title>
<path fill="none" stroke="#e31a1c" stroke-width="2" d="M361.2196,-237.3785C350.198,-250.5135 333.6766,-270.203 321.4014,-284.832"/>
<polygon fill="#e31a1c" stroke="#e31a1c" stroke-width="2" points="316.7603,-290.363 318.8468,-282.9759 318.627,-287.3605 320.8768,-284.6793 321.2598,-285.0007 321.6429,-285.3221 319.3931,-288.0033 323.6729,-287.0255 316.7603,-290.363 316.7603,-290.363"/>
</g>
<!-- 2&#45;&gt;4 -->
<g id="edge6" class="edge">
<title>2&#45;&gt;4</title>
<path fill="none" stroke="#000000" d="M218.9879,-319.496C235.8739,-316.5186 261.1863,-312.0553 279.993,-308.7392"/>
<polygon fill="#000000" stroke="#000000" points="287.1035,-307.4854 280.7569,-311.8032 283.6567,-308.0932 280.2098,-308.701 280.2098,-308.701 280.2098,-308.701 283.6567,-308.0932 279.6628,-305.5989 287.1035,-307.4854 287.1035,-307.4854"/>
</g>
<!-- 5 -->
<g id="node7" class="node">
<title>5</title>
<g id="a_node7"><a xlink:title="(x = 0, y = 2)&#10;!odd_x &amp; !odd_y">
<ellipse fill="#ffffa0" stroke="#000000" cx="109.1926" cy="-269.7867" rx="18" ry="18"/>
<text text-anchor="middle" x="109.1926" y="-266.6867" font-family="Lato" font-size="12.00" fill="#000000">5</text>
</a>
</g>
</g>
<!-- 2&#45;&gt;5 -->
<g id="edge7" class="edge">
<title>2&#45;&gt;5</title>
<path fill="none" stroke="#000000" d="M184.8725,-313.4805C170.0232,-304.9073 147.7639,-292.0559 131.2256,-282.5075"/>
<polygon fill="#000000" stroke="#000000" points="124.9726,-278.8973 132.6099,-279.6694 128.0037,-280.6474 131.0348,-282.3974 131.0348,-282.3974 131.0348,-282.3974 128.0037,-280.6474 129.4598,-285.1254 124.9726,-278.8973 124.9726,-278.8973"/>
</g>
<!-- 3&#45;&gt;0 -->
<g id="edge8" class="edge">
<title>3&#45;&gt;0</title>
<path fill="none" stroke="#000000" d="M102.8883,-88.2309C97.0239,-104.3433 88.233,-128.4961 81.7015,-146.4412"/>
<polygon fill="#000000" stroke="#000000" points="79.232,-153.226 78.6662,-145.5708 80.4291,-149.9371 81.6262,-146.6482 81.6262,-146.6482 81.6262,-146.6482 80.4291,-149.9371 84.5863,-147.7256 79.232,-153.226 79.232,-153.226"/>
</g>
<!-- 6 -->
<g id="node8" class="node">
<title>6</title>
<g id="a_node8"><a xlink:title="(x = 2, y = 1)&#10;!odd_x &amp; odd_y">
<ellipse fill="#ffffa0" stroke="#000000" cx="200.8355" cy="-18" rx="18" ry="18"/>
<text text-anchor="middle" x="200.8355" y="-14.9" font-family="Lato" font-size="12.00" fill="#000000">6</text>
</a>
</g>
</g>
<!-- 3&#45;&gt;6 -->
<g id="edge9" class="edge">
<title>3&#45;&gt;6</title>
<path fill="none" stroke="#000000" d="M125.1556,-61.6938C140.0049,-53.1206 162.2642,-40.2691 178.8025,-30.7207"/>
<polygon fill="#000000" stroke="#000000" points="185.0554,-27.1106 180.5683,-33.3386 182.0243,-28.8606 178.9932,-30.6107 178.9932,-30.6107 178.9932,-30.6107 182.0243,-28.8606 177.4182,-27.8827 185.0554,-27.1106 185.0554,-27.1106"/>
</g>
<!-- 4&#45;&gt;6 -->
<g id="edge10" class="edge">
<title>4&#45;&gt;6</title>
<path fill="none" stroke="#000000" d="M298.841,-287.2681C281.0661,-238.4318 229.9371,-97.956 209.4635,-41.7054"/>
<polygon fill="#000000" stroke="#000000" points="207.0098,-34.9639 212.3641,-40.4643 208.2069,-38.2528 209.404,-41.5417 209.404,-41.5417 209.404,-41.5417 208.2069,-38.2528 206.444,-42.6191 207.0098,-34.9639 207.0098,-34.9639"/>
</g>
<!-- 7 -->
<g id="node9" class="node">
<title>7</title>
<g id="a_node9"><a xlink:title="(x = 1, y = 2)&#10;odd_x &amp; !odd_y">
<ellipse fill="#ffffa0" stroke="#000000" cx="373.0677" cy="-117.4383" rx="18" ry="18"/>
<text text-anchor="middle" x="373.0677" y="-114.3383" font-family="Lato" font-size="12.00" fill="#000000">7</text>
</a>
</g>
</g>
<!-- 4&#45;&gt;7 -->
<g id="edge11" class="edge">
<title>4&#45;&gt;7</title>
<path fill="none" stroke="#e31a1c" stroke-width="2" d="M311.3251,-287.0748C323.5549,-253.4738 350.5884,-179.2 364.4713,-141.057"/>
<polygon fill="#e31a1c" stroke="#e31a1c" stroke-width="2" points="366.9039,-134.3733 367.4698,-142.0285 366.1767,-137.8332 364.9796,-141.1221 364.5097,-140.9511 364.0399,-140.7801 365.237,-137.4912 361.5497,-139.8737 366.9039,-134.3733 366.9039,-134.3733"/>
</g>
<!-- 5&#45;&gt;0 -->
<g id="edge13" class="edge">
<title>5&#45;&gt;0</title>
<path fill="none" stroke="#000000" d="M102.8883,-252.4659C97.0239,-236.3535 88.233,-212.2007 81.7015,-194.2555"/>
<polygon fill="#000000" stroke="#000000" points="79.232,-187.4707 84.5863,-192.9712 80.4291,-190.7597 81.6262,-194.0486 81.6262,-194.0486 81.6262,-194.0486 80.4291,-190.7597 78.6662,-195.126 79.232,-187.4707 79.232,-187.4707"/>
</g>
<!-- 5&#45;&gt;7 -->
<g id="edge12" class="edge">
<title>5&#45;&gt;7</title>
<path fill="none" stroke="#e31a1c" stroke-width="2" d="M124.909,-260.7129C169.9167,-234.7277 299.3799,-159.982 351.2207,-130.0517"/>
<polygon fill="#e31a1c" stroke="#e31a1c" stroke-width="2" points="357.4337,-126.4646 352.9466,-132.6927 354.6526,-128.6477 351.6216,-130.3977 351.3716,-129.9647 351.1215,-129.5317 354.1526,-127.7817 349.7965,-127.2367 357.4337,-126.4646 357.4337,-126.4646"/>
</g>
<!-- 6&#45;&gt;2 -->
<g id="edge14" class="edge">
<title>6&#45;&gt;2</title>
<path fill="none" stroke="#000000" d="M200.8355,-36.1477C200.8355,-88.1181 200.8355,-237.6094 200.8355,-297.47"/>
<polygon fill="#000000" stroke="#000000" points="200.8355,-304.6442 197.6856,-297.6441 200.8355,-301.1442 200.8356,-297.6442 200.8356,-297.6442 200.8356,-297.6442 200.8355,-301.1442 203.9856,-297.6442 200.8355,-304.6442 200.8355,-304.6442"/>
</g>
<!-- 8 -->
<g id="node10" class="node">
<title>8</title>
<g id="a_node10"><a xlink:title="(x = 2, y = 2)&#10;!odd_x &amp; !odd_y">
<ellipse fill="#ffffa0" stroke="#000000" cx="305.0479" cy="-36.3755" rx="18" ry="18"/>
<text text-anchor="middle" x="305.0479" y="-33.2755" font-family="Lato" font-size="12.00" fill="#000000">8</text>
</a>
</g>
</g>
<!-- 6&#45;&gt;8 -->
<g id="edge15" class="edge">
<title>6&#45;&gt;8</title>
<path fill="none" stroke="#000000" d="M218.9879,-21.2008C235.8739,-24.1782 261.1863,-28.6415 279.993,-31.9576"/>
<polygon fill="#000000" stroke="#000000" points="287.1035,-33.2114 279.6628,-35.0979 283.6567,-32.6036 280.2098,-31.9958 280.2098,-31.9958 280.2098,-31.9958 283.6567,-32.6036 280.7569,-28.8936 287.1035,-33.2114 287.1035,-33.2114"/>
</g>
<!-- 7&#45;&gt;1 -->
<g id="edge17" class="edge">
<title>7&#45;&gt;1</title>
<path fill="none" stroke="#000000" d="M373.0677,-135.8708C373.0677,-153.0173 373.0677,-178.7201 373.0677,-197.817"/>
<polygon fill="#000000" stroke="#000000" points="373.0677,-205.0372 369.9178,-198.0372 373.0678,-201.5372 373.0678,-198.0372 373.0678,-198.0372 373.0678,-198.0372 373.0678,-201.5372 376.2178,-198.0372 373.0677,-205.0372 373.0677,-205.0372"/>
</g>
<!-- 7&#45;&gt;8 -->
<g id="edge16" class="edge">
<title>7&#45;&gt;8</title>
<path fill="none" stroke="#e31a1c" stroke-width="2" d="M361.2196,-103.3183C350.198,-90.1833 333.6766,-70.4938 321.4014,-55.8648"/>
<polygon fill="#e31a1c" stroke="#e31a1c" stroke-width="2" points="316.7603,-50.3337 323.6729,-53.6713 319.3931,-52.6935 321.6429,-55.3747 321.2598,-55.6961 320.8768,-56.0175 318.627,-53.3363 318.8468,-57.7209 316.7603,-50.3337 316.7603,-50.3337"/>
</g>
<!-- 8&#45;&gt;3 -->
<g id="edge19" class="edge">
<title>8&#45;&gt;3</title>
<path fill="none" stroke="#000000" d="M286.9734,-39.5625C251.7592,-45.7717 173.9194,-59.497 133.9452,-66.5455"/>
<polygon fill="#000000" stroke="#000000" points="126.9406,-67.7806 133.2872,-63.4628 130.3874,-67.1728 133.8342,-66.565 133.8342,-66.565 133.8342,-66.565 130.3874,-67.1728 134.3813,-69.6671 126.9406,-67.7806 126.9406,-67.7806"/>
</g>
<!-- 8&#45;&gt;5 -->
<g id="edge18" class="edge">
<title>8&#45;&gt;5</title>
<path fill="none" stroke="#e31a1c" stroke-width="2" d="M293.3828,-50.2774C259.9768,-90.0891 163.8857,-204.606 125.408,-250.4619"/>
<polygon fill="#e31a1c" stroke="#e31a1c" stroke-width="2" points="120.7966,-255.9576 122.8831,-248.5705 122.6633,-252.9551 124.9131,-250.2739 125.2961,-250.5953 125.6792,-250.9167 123.4294,-253.5979 127.7092,-252.6201 120.7966,-255.9576 120.7966,-255.9576"/>
</g>
</g>
</svg>
