<?xml version="1.0" encoding="UTF-8" standalone="no"?>
<?xml-stylesheet href="spot.css" type="text/css"?>
<!DOCTYPE svg PUBLIC "-//W3C//DTD SVG 1.1//EN"
 "http://www.w3.org/Graphics/SVG/1.1/DTD/svg11.dtd">
<!-- Generated by graphviz version 2.40.1 (20161225.0304)
 -->
<!-- Pages: 1 -->
<svg width="760pt" height="692pt"
 viewBox="0.00 0.00 760.06 692.20" xmlns="http://www.w3.org/2000/svg" xmlns:xlink="http://www.w3.org/1999/xlink">
<g id="graph0" class="graph" transform="scale(1 1) rotate(0) translate(4 688.2018)">
<polygon fill="#ffffff" stroke="transparent" points="-4,4 -4,-688.2018 756.0603,-688.2018 756.0603,4 -4,4"/>
<text text-anchor="start" x="373.5302" y="-670.6018" font-family="Lato" font-size="12.00" fill="#000000">t</text>
<text text-anchor="start" x="366.0302" y="-657.6018" font-family="Lato" font-size="12.00" fill="#000000">[all]</text>
<!-- I -->
<!-- 0 -->
<g id="node2" class="node">
<title>0</title>
<ellipse fill="#ffffa0" stroke="#000000" cx="90.5" cy="-325.1009" rx="70.922" ry="24.0833"/>
<text text-anchor="start" x="77.5" y="-328.5009" font-family="Lato" font-size="12.00" fill="#000000">x0y0</text>
<text text-anchor="start" x="48.5" y="-315.5009" font-family="Lato" font-size="12.00" fill="#000000">!odd_x &amp; !odd_y</text>
</g>
<!-- I&#45;&gt;0 -->
<g id="edge1" class="edge">
<title>I&#45;&gt;0</title>
<path fill="none" stroke="#000000" d="M1.0747,-325.1009C2.5166,-325.1009 6.5804,-325.1009 12.2286,-325.1009"/>
<polygon fill="#000000" stroke="#000000" points="19.5248,-325.1009 12.5248,-328.251 16.0248,-325.1009 12.5248,-325.101 12.5248,-325.101 12.5248,-325.101 16.0248,-325.1009 12.5248,-321.951 19.5248,-325.1009 19.5248,-325.1009"/>
</g>
<!-- 1 -->
<g id="node3" class="node">
<title>1</title>
<ellipse fill="#ffffa0" stroke="#000000" cx="683.471" cy="-429.6577" rx="68.6788" ry="24.0833"/>
<text text-anchor="start" x="670.471" y="-433.0577" font-family="Lato" font-size="12.00" fill="#000000">x0y1</text>
<text text-anchor="start" x="642.971" y="-420.0577" font-family="Lato" font-size="12.00" fill="#000000">!odd_x &amp; odd_y</text>
</g>
<!-- 0&#45;&gt;1 -->
<g id="edge2" class="edge">
<title>0&#45;&gt;1</title>
<path fill="none" stroke="#000000" d="M153.3969,-336.1913C265.5058,-355.9591 498.9626,-397.1239 614.977,-417.5803"/>
<polygon fill="#000000" stroke="#000000" points="622.1074,-418.8376 614.6667,-420.7241 618.6606,-418.2298 615.2138,-417.622 615.2138,-417.622 615.2138,-417.622 618.6606,-418.2298 615.7608,-414.5199 622.1074,-418.8376 622.1074,-418.8376"/>
</g>
<!-- 2 -->
<g id="node4" class="node">
<title>2</title>
<ellipse fill="#ffffa0" stroke="#000000" cx="343.1187" cy="-626.1601" rx="68.6788" ry="24.0833"/>
<text text-anchor="start" x="330.1187" y="-629.5601" font-family="Lato" font-size="12.00" fill="#000000">x1y0</text>
<text text-anchor="start" x="302.6187" y="-616.5601" font-family="Lato" font-size="12.00" fill="#000000">odd_x &amp; !odd_y</text>
</g>
<!-- 0&#45;&gt;2 -->
<g id="edge3" class="edge">
<title>0&#45;&gt;2</title>
<path fill="none" stroke="#000000" d="M109.9031,-348.2246C155.4563,-402.5128 269.1527,-538.0109 319.0267,-597.4483"/>
<polygon fill="#000000" stroke="#000000" points="323.6495,-602.9576 316.7369,-599.6201 321.3997,-600.2765 319.1499,-597.5953 319.1499,-597.5953 319.1499,-597.5953 321.3997,-600.2765 321.563,-595.5705 323.6495,-602.9576 323.6495,-602.9576"/>
</g>
<!-- 3 -->
<g id="node5" class="node">
<title>3</title>
<ellipse fill="#ffffa0" stroke="#000000" cx="162.021" cy="-128.5984" rx="70.922" ry="24.0833"/>
<text text-anchor="start" x="149.021" y="-131.9984" font-family="Lato" font-size="12.00" fill="#000000">x0y2</text>
<text text-anchor="start" x="120.021" y="-118.9984" font-family="Lato" font-size="12.00" fill="#000000">!odd_x &amp; !odd_y</text>
</g>
<!-- 1&#45;&gt;3 -->
<g id="edge4" class="edge">
<title>1&#45;&gt;3</title>
<path fill="none" stroke="#000000" d="M647.6296,-408.9646C554.3225,-355.0937 304.2025,-210.6869 204.1946,-152.9473"/>
<polygon fill="#000000" stroke="#000000" points="198.1132,-149.4362 205.7504,-150.2083 201.1443,-151.1863 204.1754,-152.9363 204.1754,-152.9363 204.1754,-152.9363 201.1443,-151.1863 202.6004,-155.6643 198.1132,-149.4362 198.1132,-149.4362"/>
</g>
<!-- 4 -->
<g id="node6" class="node">
<title>4</title>
<ellipse fill="#ffffa0" stroke="#000000" cx="549.0554" cy="-589.8479" rx="66.4361" ry="24.0833"/>
<text text-anchor="start" x="536.0554" y="-593.2479" font-family="Lato" font-size="12.00" fill="#000000">x1y1</text>
<text text-anchor="start" x="510.0554" y="-580.2479" font-family="Lato" font-size="12.00" fill="#000000">odd_x &amp; odd_y</text>
</g>
<!-- 1&#45;&gt;4 -->
<g id="edge5" class="edge">
<title>1&#45;&gt;4</title>
<path fill="none" stroke="#000000" d="M663.9258,-452.9507C639.8662,-481.6238 599.0167,-530.3064 573.07,-561.2284"/>
<polygon fill="#000000" stroke="#000000" points="568.4061,-566.7867 570.4926,-559.3995 570.6558,-564.1055 572.9056,-561.4243 572.9056,-561.4243 572.9056,-561.4243 570.6558,-564.1055 575.3187,-563.4491 568.4061,-566.7867 568.4061,-566.7867"/>
</g>
<!-- 2&#45;&gt;4 -->
<g id="edge6" class="edge">
<title>2&#45;&gt;4</title>
<path fill="none" stroke="#000000" d="M404.6275,-615.3145C429.1113,-610.9973 457.3495,-606.0182 482.3267,-601.614"/>
<polygon fill="#000000" stroke="#000000" points="489.2793,-600.3881 482.9326,-604.7058 485.8324,-600.9959 482.3856,-601.6037 482.3856,-601.6037 482.3856,-601.6037 485.8324,-600.9959 481.8386,-598.5016 489.2793,-600.3881 489.2793,-600.3881"/>
</g>
<!-- 5 -->
<g id="node7" class="node">
<title>5</title>
<ellipse fill="#ffffa0" stroke="#000000" cx="162.021" cy="-521.6034" rx="70.922" ry="24.0833"/>
<text text-anchor="start" x="149.021" y="-525.0034" font-family="Lato" font-size="12.00" fill="#000000">x2y0</text>
<text text-anchor="start" x="120.021" y="-512.0034" font-family="Lato" font-size="12.00" fill="#000000">!odd_x &amp; !odd_y</text>
</g>
<!-- 2&#45;&gt;5 -->
<g id="edge7" class="edge">
<title>2&#45;&gt;5</title>
<path fill="none" stroke="#000000" d="M307.3396,-605.5031C277.6717,-588.3743 235.4386,-563.991 204.1418,-545.9218"/>
<polygon fill="#000000" stroke="#000000" points="198.0353,-542.3962 205.6725,-543.1682 201.0664,-544.1462 204.0975,-545.8962 204.0975,-545.8962 204.0975,-545.8962 201.0664,-544.1462 202.5224,-548.6242 198.0353,-542.3962 198.0353,-542.3962"/>
</g>
<!-- 3&#45;&gt;0 -->
<g id="edge8" class="edge">
<title>3&#45;&gt;0</title>
<path fill="none" stroke="#000000" d="M153.2512,-152.6935C140.2935,-188.2943 116.0327,-254.9505 101.7712,-294.1335"/>
<polygon fill="#000000" stroke="#000000" points="99.2296,-301.1164 98.6638,-293.4612 100.4267,-297.8275 101.6238,-294.5385 101.6238,-294.5385 101.6238,-294.5385 100.4267,-297.8275 104.5839,-295.6159 99.2296,-301.1164 99.2296,-301.1164"/>
</g>
<!-- 6 -->
<g id="node8" class="node">
<title>6</title>
<ellipse fill="#ffffa0" stroke="#000000" cx="343.1187" cy="-24.0416" rx="68.6788" ry="24.0833"/>
<text text-anchor="start" x="330.1187" y="-27.4416" font-family="Lato" font-size="12.00" fill="#000000">x1y2</text>
<text text-anchor="start" x="302.6187" y="-14.4416" font-family="Lato" font-size="12.00" fill="#000000">odd_x &amp; !odd_y</text>
</g>
<!-- 3&#45;&gt;6 -->
<g id="edge9" class="edge">
<title>3&#45;&gt;6</title>
<path fill="none" stroke="#000000" d="M198.2336,-107.6911C227.9418,-90.5391 270.0329,-66.2378 301.1976,-48.2448"/>
<polygon fill="#000000" stroke="#000000" points="307.2779,-44.7343 302.7908,-50.9623 304.2468,-46.4843 301.2157,-48.2344 301.2157,-48.2344 301.2157,-48.2344 304.2468,-46.4843 299.6407,-45.5064 307.2779,-44.7343 307.2779,-44.7343"/>
</g>
<!-- 4&#45;&gt;6 -->
<g id="edge10" class="edge">
<title>4&#45;&gt;6</title>
<path fill="none" stroke="#000000" d="M540.3381,-565.8973C507.4472,-475.5304 390.8891,-155.2896 354.2362,-54.5866"/>
<polygon fill="#000000" stroke="#000000" points="351.8382,-47.9982 357.1924,-53.4987 353.0353,-51.2871 354.2324,-54.5761 354.2324,-54.5761 354.2324,-54.5761 353.0353,-51.2871 351.2724,-55.6535 351.8382,-47.9982 351.8382,-47.9982"/>
</g>
<!-- 7 -->
<g id="node9" class="node">
<title>7</title>
<ellipse fill="#ffffa0" stroke="#000000" cx="683.471" cy="-220.5441" rx="68.6788" ry="24.0833"/>
<text text-anchor="start" x="670.471" y="-223.9441" font-family="Lato" font-size="12.00" fill="#000000">x2y1</text>
<text text-anchor="start" x="642.971" y="-210.9441" font-family="Lato" font-size="12.00" fill="#000000">!odd_x &amp; odd_y</text>
</g>
<!-- 4&#45;&gt;7 -->
<g id="edge11" class="edge">
<title>4&#45;&gt;7</title>
<path fill="none" stroke="#000000" d="M557.7712,-565.9014C581.3286,-501.178 646.25,-322.8079 672.3709,-251.0413"/>
<polygon fill="#000000" stroke="#000000" points="674.7749,-244.4363 675.3407,-252.0916 673.5778,-247.7252 672.3807,-251.0142 672.3807,-251.0142 672.3807,-251.0142 673.5778,-247.7252 669.4207,-249.9368 674.7749,-244.4363 674.7749,-244.4363"/>
</g>
<!-- 5&#45;&gt;0 -->
<g id="edge13" class="edge">
<title>5&#45;&gt;0</title>
<path fill="none" stroke="#000000" d="M153.2512,-497.5083C140.2935,-461.9075 116.0327,-395.2513 101.7712,-356.0683"/>
<polygon fill="#000000" stroke="#000000" points="99.2296,-349.0854 104.5839,-354.5858 100.4267,-352.3743 101.6238,-355.6632 101.6238,-355.6632 101.6238,-355.6632 100.4267,-352.3743 98.6638,-356.7406 99.2296,-349.0854 99.2296,-349.0854"/>
</g>
<!-- 5&#45;&gt;7 -->
<g id="edge12" class="edge">
<title>5&#45;&gt;7</title>
<path fill="none" stroke="#000000" d="M198.2744,-500.6725C291.9519,-446.5877 541.6936,-302.3993 641.4517,-244.804"/>
<polygon fill="#000000" stroke="#000000" points="647.8024,-241.1374 643.3152,-247.3654 644.7713,-242.8874 641.7402,-244.6374 641.7402,-244.6374 641.7402,-244.6374 644.7713,-242.8874 640.1652,-241.9094 647.8024,-241.1374 647.8024,-241.1374"/>
</g>
<!-- 6&#45;&gt;2 -->
<g id="edge14" class="edge">
<title>6&#45;&gt;2</title>
<path fill="none" stroke="#000000" d="M343.1187,-48.3911C343.1187,-143.2504 343.1187,-488.058 343.1187,-594.5869"/>
<polygon fill="#000000" stroke="#000000" points="343.1187,-601.8385 339.9688,-594.8384 343.1188,-598.3385 343.1188,-594.8385 343.1188,-594.8385 343.1188,-594.8385 343.1188,-598.3385 346.2688,-594.8385 343.1187,-601.8385 343.1187,-601.8385"/>
</g>
<!-- 8 -->
<g id="node10" class="node">
<title>8</title>
<ellipse fill="#ffffa0" stroke="#000000" cx="549.0554" cy="-60.3538" rx="70.922" ry="24.0833"/>
<text text-anchor="start" x="536.0554" y="-63.7538" font-family="Lato" font-size="12.00" fill="#000000">x2y2</text>
<text text-anchor="start" x="507.0554" y="-50.7538" font-family="Lato" font-size="12.00" fill="#000000">!odd_x &amp; !odd_y</text>
</g>
<!-- 6&#45;&gt;8 -->
<g id="edge15" class="edge">
<title>6&#45;&gt;8</title>
<path fill="none" stroke="#000000" d="M404.6275,-34.8873C428.0358,-39.0148 454.8759,-43.7474 479.017,-48.0042"/>
<polygon fill="#000000" stroke="#000000" points="486.0812,-49.2498 478.6405,-51.1363 482.6344,-48.642 479.1876,-48.0342 479.1876,-48.0342 479.1876,-48.0342 482.6344,-48.642 479.7346,-44.932 486.0812,-49.2498 486.0812,-49.2498"/>
</g>
<!-- 7&#45;&gt;1 -->
<g id="edge17" class="edge">
<title>7&#45;&gt;1</title>
<path fill="none" stroke="#000000" d="M683.471,-244.9413C683.471,-282.9531 683.471,-356.2902 683.471,-398.2178"/>
<polygon fill="#000000" stroke="#000000" points="683.471,-405.4158 680.3211,-398.4158 683.471,-401.9158 683.4711,-398.4158 683.4711,-398.4158 683.4711,-398.4158 683.471,-401.9158 686.6211,-398.4159 683.471,-405.4158 683.471,-405.4158"/>
</g>
<!-- 7&#45;&gt;8 -->
<g id="edge16" class="edge">
<title>7&#45;&gt;8</title>
<path fill="none" stroke="#000000" d="M663.9258,-197.2511C639.9347,-168.6596 599.2493,-120.1726 573.2922,-89.2381"/>
<polygon fill="#000000" stroke="#000000" points="568.6241,-83.675 575.5367,-87.0125 570.8739,-86.3561 573.1237,-89.0373 573.1237,-89.0373 573.1237,-89.0373 570.8739,-86.3561 570.7106,-91.0621 568.6241,-83.675 568.6241,-83.675"/>
</g>
<!-- 8&#45;&gt;3 -->
<g id="edge19" class="edge">
<title>8&#45;&gt;3</title>
<path fill="none" stroke="#000000" d="M486.0102,-71.4704C416.4285,-83.7395 304.7218,-103.4364 232.3529,-116.197"/>
<polygon fill="#000000" stroke="#000000" points="225.0392,-117.4866 231.3858,-113.1688 228.486,-116.8788 231.9329,-116.271 231.9329,-116.271 231.9329,-116.271 228.486,-116.8788 232.4799,-119.3731 225.0392,-117.4866 225.0392,-117.4866"/>
</g>
<!-- 8&#45;&gt;5 -->
<g id="edge18" class="edge">
<title>8&#45;&gt;5</title>
<path fill="none" stroke="#000000" d="M529.597,-83.5434C464.9385,-160.6004 257.3363,-408.0111 186.2019,-492.7857"/>
<polygon fill="#000000" stroke="#000000" points="181.5181,-498.3677 183.6046,-490.9805 183.7679,-495.6865 186.0177,-493.0053 186.0177,-493.0053 186.0177,-493.0053 183.7679,-495.6865 188.4307,-495.0301 181.5181,-498.3677 181.5181,-498.3677"/>
</g>
</g>
</svg>
