<?xml version="1.0" encoding="UTF-8" standalone="no"?>
<?xml-stylesheet href="spot.css" type="text/css"?>
<!DOCTYPE svg PUBLIC "-//W3C//DTD SVG 1.1//EN"
 "http://www.w3.org/Graphics/SVG/1.1/DTD/svg11.dtd">
<!-- Generated by graphviz version 2.40.1 (20161225.0304)
 -->
<!-- Pages: 1 -->
<svg width="556pt" height="246pt"
 viewBox="0.00 0.00 556.00 246.40" xmlns="http://www.w3.org/2000/svg" xmlns:xlink="http://www.w3.org/1999/xlink">
<g id="graph0" class="graph" transform="scale(1 1) rotate(0) translate(4 242.4)">
<polygon fill="#ffffff" stroke="transparent" points="-4,4 -4,-242.4 552,-242.4 552,4 -4,4"/>
<text text-anchor="start" x="246.5" y="-211.8" font-family="Lato" font-size="12.00" fill="#000000">[co&#45;Büchi]</text>
<!-- I -->
<!-- 0 -->
<g id="node2" class="node">
<title>0</title>
<ellipse fill="#ffffa0" stroke="#000000" cx="60" cy="-103" rx="18" ry="18"/>
<ellipse fill="none" stroke="#000000" cx="60" cy="-103" rx="22" ry="22"/>
<text text-anchor="middle" x="60" y="-99.9" font-family="Lato" font-size="12.00" fill="#000000">0</text>
</g>
<!-- I&#45;&gt;0 -->
<g id="edge1" class="edge">
<title>I&#45;&gt;0</title>
<path fill="none" stroke="#000000" d="M1.1682,-103C4.2491,-103 17.4946,-103 30.6388,-103"/>
<polygon fill="#000000" stroke="#000000" points="37.8655,-103 30.8656,-106.1501 34.3655,-103 30.8655,-103.0001 30.8655,-103.0001 30.8655,-103.0001 34.3655,-103 30.8655,-99.8501 37.8655,-103 37.8655,-103"/>
</g>
<!-- 1 -->
<g id="node3" class="node">
<title>1</title>
<ellipse fill="#ffffa0" stroke="#000000" cx="170" cy="-18" rx="18" ry="18"/>
<text text-anchor="middle" x="170" y="-14.9" font-family="Lato" font-size="12.00" fill="#000000">1</text>
</g>
<!-- 0&#45;&gt;1 -->
<g id="edge2" class="edge">
<title>0&#45;&gt;1</title>
<path fill="none" stroke="#000000" d="M77.6734,-89.3433C97.3513,-74.1376 129.0991,-49.6053 149.7592,-33.6406"/>
<polygon fill="#000000" stroke="#000000" points="155.5311,-29.1805 151.9181,-35.9533 152.7616,-31.3206 149.9921,-33.4607 149.9921,-33.4607 149.9921,-33.4607 152.7616,-31.3206 148.066,-30.9681 155.5311,-29.1805 155.5311,-29.1805"/>
<text text-anchor="middle" x="117" y="-73.4" font-family="Lato" font-size="12.00" fill="#000000">1</text>
</g>
<!-- 2 -->
<g id="node4" class="node">
<title>2</title>
<ellipse fill="#ffffa0" stroke="#000000" cx="324" cy="-67" rx="18" ry="18"/>
<text text-anchor="middle" x="324" y="-63.9" font-family="Lato" font-size="12.00" fill="#000000">2</text>
</g>
<!-- 0&#45;&gt;2 -->
<g id="edge3" class="edge">
<title>0&#45;&gt;2</title>
<path fill="none" stroke="#000000" d="M82.0968,-103.4563C123.2926,-103.7841 214.3265,-102.0365 288,-83 292.4326,-81.8547 297.0085,-80.2144 301.3496,-78.4163"/>
<polygon fill="#000000" stroke="#000000" points="307.9239,-75.5092 302.7957,-81.2211 304.7229,-76.9247 301.5218,-78.3402 301.5218,-78.3402 301.5218,-78.3402 304.7229,-76.9247 300.2479,-75.4592 307.9239,-75.5092 307.9239,-75.5092"/>
<text text-anchor="middle" x="170" y="-104.4" font-family="Lato" font-size="12.00" fill="#000000">1</text>
</g>
<!-- 3 -->
<g id="node5" class="node">
<title>3</title>
<ellipse fill="#ffffa0" stroke="#000000" cx="427" cy="-101" rx="18" ry="18"/>
<text text-anchor="middle" x="427" y="-97.9" font-family="Lato" font-size="12.00" fill="#000000">3</text>
</g>
<!-- 0&#45;&gt;3 -->
<g id="edge4" class="edge">
<title>0&#45;&gt;3</title>
<path fill="none" stroke="#000000" d="M80.4386,-111.4666C86.6195,-113.6668 93.4946,-115.7641 100,-117 205.7233,-137.0856 235.4028,-139.7605 342,-125 363.1317,-122.0739 386.3994,-115.2399 403.2403,-109.6098"/>
<polygon fill="#000000" stroke="#000000" points="410.0394,-107.2855 404.4347,-112.5306 406.7276,-108.4177 403.4158,-109.5499 403.4158,-109.5499 403.4158,-109.5499 406.7276,-108.4177 402.3968,-106.5693 410.0394,-107.2855 410.0394,-107.2855"/>
<text text-anchor="middle" x="247" y="-137.4" font-family="Lato" font-size="12.00" fill="#000000">1</text>
</g>
<!-- 4 -->
<g id="node6" class="node">
<title>4</title>
<ellipse fill="#ffffa0" stroke="#000000" cx="530" cy="-101" rx="18" ry="18"/>
<text text-anchor="middle" x="530" y="-97.9" font-family="Lato" font-size="12.00" fill="#000000">4</text>
</g>
<!-- 0&#45;&gt;4 -->
<g id="edge5" class="edge">
<title>0&#45;&gt;4</title>
<path fill="none" stroke="#000000" d="M72.0395,-121.8777C90.0021,-147.4651 126.4165,-190 170,-190 170,-190 170,-190 427,-190 467.9134,-190 500.595,-149.2985 517.4679,-122.9447"/>
<polygon fill="#000000" stroke="#000000" points="521.2172,-116.9114 520.1979,-124.5196 519.3698,-119.8842 517.5224,-122.8569 517.5224,-122.8569 517.5224,-122.8569 519.3698,-119.8842 514.8469,-121.1942 521.2172,-116.9114 521.2172,-116.9114"/>
<text text-anchor="middle" x="324" y="-193.4" font-family="Lato" font-size="12.00" fill="#000000">1</text>
</g>
<!-- 1&#45;&gt;0 -->
<g id="edge6" class="edge">
<title>1&#45;&gt;0</title>
<path fill="none" stroke="#000000" d="M151.9815,-16.9432C136.7874,-16.9552 115.1568,-19.1873 100,-30 84.9008,-40.7716 74.8876,-59.0908 68.6558,-74.6824"/>
<polygon fill="#000000" stroke="#000000" points="66.0539,-81.6172 65.5637,-73.9568 67.2834,-78.3403 68.5129,-75.0633 68.5129,-75.0633 68.5129,-75.0633 67.2834,-78.3403 71.4622,-76.1699 66.0539,-81.6172 66.0539,-81.6172"/>
<text text-anchor="start" x="100" y="-33.4" font-family="Lato" font-size="12.00" fill="#000000">!a &amp; !b</text>
</g>
<!-- 1&#45;&gt;1 -->
<g id="edge7" class="edge">
<title>1&#45;&gt;1</title>
<path fill="none" stroke="#000000" d="M161.0212,-33.916C158.679,-44.1504 161.6719,-54 170,-54 176.3762,-54 179.625,-48.2263 179.7465,-40.9268"/>
<polygon fill="#000000" stroke="#000000" points="178.9788,-33.916 182.8721,-40.5315 179.3598,-37.3952 179.7408,-40.8744 179.7408,-40.8744 179.7408,-40.8744 179.3598,-37.3952 176.6095,-41.2174 178.9788,-33.916 178.9788,-33.916"/>
<text text-anchor="start" x="156" y="-57.4" font-family="Lato" font-size="12.00" fill="#000000">a &amp; b</text>
</g>
<!-- 1&#45;&gt;2 -->
<g id="edge8" class="edge">
<title>1&#45;&gt;2</title>
<path fill="none" stroke="#000000" d="M182.0722,-31.4492C188.5361,-37.7937 197.0083,-44.8638 206,-49 235.858,-62.7348 274.0086,-66.3602 298.718,-67.1306"/>
<polygon fill="#000000" stroke="#000000" points="305.9308,-67.2861 298.8645,-70.2844 302.4316,-67.2106 298.9324,-67.1351 298.9324,-67.1351 298.9324,-67.1351 302.4316,-67.2106 299.0004,-63.9859 305.9308,-67.2861 305.9308,-67.2861"/>
<text text-anchor="start" x="206" y="-69.4" font-family="Lato" font-size="12.00" fill="#000000">(!a &amp; b) | (a &amp; !b)</text>
</g>
<!-- 2&#45;&gt;1 -->
<g id="edge9" class="edge">
<title>2&#45;&gt;1</title>
<path fill="none" stroke="#000000" d="M312.9393,-52.3888C306.5089,-45.0069 297.7577,-36.6499 288,-32 258.4646,-17.9252 220.2369,-15.9163 195.4221,-16.4251"/>
<polygon fill="#000000" stroke="#000000" points="188.1761,-16.6533 195.0734,-13.2844 191.6743,-16.5431 195.1726,-16.4329 195.1726,-16.4329 195.1726,-16.4329 191.6743,-16.5431 195.2718,-19.5813 188.1761,-16.6533 188.1761,-16.6533"/>
<text text-anchor="start" x="231.5" y="-35.4" font-family="Lato" font-size="12.00" fill="#000000">!a &amp; b</text>
</g>
<!-- 2&#45;&gt;2 -->
<g id="edge10" class="edge">
<title>2&#45;&gt;2</title>
<path fill="none" stroke="#000000" d="M315.3666,-82.916C313.1144,-93.1504 315.9922,-103 324,-103 330.131,-103 333.2548,-97.2263 333.3716,-89.9268"/>
<polygon fill="#000000" stroke="#000000" points="332.6334,-82.916 336.4992,-89.5477 333,-86.3968 333.3665,-89.8775 333.3665,-89.8775 333.3665,-89.8775 333,-86.3968 330.2338,-90.2074 332.6334,-82.916 332.6334,-82.916"/>
<text text-anchor="start" x="283" y="-106.4" font-family="Lato" font-size="12.00" fill="#000000">(!a &amp; !b) | (a &amp; b)</text>
</g>
<!-- 2&#45;&gt;3 -->
<g id="edge11" class="edge">
<title>2&#45;&gt;3</title>
<path fill="none" stroke="#000000" d="M341.4725,-72.7676C358.2947,-78.3206 383.8844,-86.7677 402.691,-92.9757"/>
<polygon fill="#000000" stroke="#000000" points="409.7855,-95.3175 402.1509,-96.1145 406.4619,-94.2204 403.1383,-93.1233 403.1383,-93.1233 403.1383,-93.1233 406.4619,-94.2204 404.1257,-90.132 409.7855,-95.3175 409.7855,-95.3175"/>
<text text-anchor="start" x="360" y="-92.4" font-family="Lato" font-size="12.00" fill="#000000">a &amp; !b</text>
</g>
<!-- 3&#45;&gt;3 -->
<g id="edge12" class="edge">
<title>3&#45;&gt;3</title>
<path fill="none" stroke="#000000" d="M418.3666,-116.916C416.1144,-127.1504 418.9922,-137 427,-137 433.131,-137 436.2548,-131.2263 436.3716,-123.9268"/>
<polygon fill="#000000" stroke="#000000" points="435.6334,-116.916 439.4992,-123.5477 436,-120.3968 436.3665,-123.8775 436.3665,-123.8775 436.3665,-123.8775 436,-120.3968 433.2338,-124.2074 435.6334,-116.916 435.6334,-116.916"/>
<text text-anchor="start" x="414.5" y="-140.4" font-family="Lato" font-size="12.00" fill="#000000">!a | b</text>
</g>
<!-- 3&#45;&gt;4 -->
<g id="edge13" class="edge">
<title>3&#45;&gt;4</title>
<path fill="none" stroke="#000000" d="M445.4143,-101C461.8188,-101 485.9902,-101 504.2978,-101"/>
<polygon fill="#000000" stroke="#000000" points="511.7451,-101 504.7451,-104.1501 508.2451,-101 504.7451,-101.0001 504.7451,-101.0001 504.7451,-101.0001 508.2451,-101 504.745,-97.8501 511.7451,-101 511.7451,-101"/>
<text text-anchor="start" x="463" y="-104.4" font-family="Lato" font-size="12.00" fill="#000000">a &amp; !b</text>
</g>
<!-- 4&#45;&gt;1 -->
<g id="edge14" class="edge">
<title>4&#45;&gt;1</title>
<path fill="none" stroke="#000000" d="M513.7924,-93.1338C475.59,-75.0827 376.4516,-31.0822 288,-16 256.3341,-10.6005 219.1964,-12.5647 195.1659,-14.8984"/>
<polygon fill="#000000" stroke="#000000" points="188.1496,-15.6267 194.7869,-11.7707 191.6308,-15.2653 195.1121,-14.9039 195.1121,-14.9039 195.1121,-14.9039 191.6308,-15.2653 195.4374,-18.037 188.1496,-15.6267 188.1496,-15.6267"/>
<text text-anchor="start" x="360" y="-45.4" font-family="Lato" font-size="12.00" fill="#000000">a &amp; !b</text>
</g>
<!-- 4&#45;&gt;4 -->
<g id="edge15" class="edge">
<title>4&#45;&gt;4</title>
<path fill="none" stroke="#000000" d="M521.3666,-116.916C519.1144,-127.1504 521.9922,-137 530,-137 536.131,-137 539.2548,-131.2263 539.3716,-123.9268"/>
<polygon fill="#000000" stroke="#000000" points="538.6334,-116.916 542.4992,-123.5477 539,-120.3968 539.3665,-123.8775 539.3665,-123.8775 539.3665,-123.8775 539,-120.3968 536.2338,-124.2074 538.6334,-116.916 538.6334,-116.916"/>
<text text-anchor="start" x="517.5" y="-140.4" font-family="Lato" font-size="12.00" fill="#000000">!a | b</text>
</g>
</g>
</svg>
