<?xml version="1.0" encoding="UTF-8" standalone="no"?>
<?xml-stylesheet href="spot.css" type="text/css"?>
<!DOCTYPE svg PUBLIC "-//W3C//DTD SVG 1.1//EN"
 "http://www.w3.org/Graphics/SVG/1.1/DTD/svg11.dtd">
<!-- Generated by graphviz version 2.40.1 (20161225.0304)
 -->
<!-- Title: (Fb | Gc) &amp; FGa Pages: 1 -->
<svg width="267pt" height="153pt"
 viewBox="0.00 0.00 267.00 153.00" xmlns="http://www.w3.org/2000/svg" xmlns:xlink="http://www.w3.org/1999/xlink">
<g id="graph0" class="graph" transform="scale(1 1) rotate(0) translate(4 149)">
<title>(Fb | Gc) &amp; FGa</title>
<polygon fill="#ffffff" stroke="transparent" points="-4,4 -4,-149 263,-149 263,4 -4,4"/>
<text text-anchor="start" x="110.5" y="-132.4" font-family="Lato" font-size="12.00" fill="#000000">Fin(</text>
<text text-anchor="start" x="130.5" y="-132.4" font-family="Lato" font-size="12.00" fill="#1f78b4">⓿</text>
<text text-anchor="start" x="144.5" y="-132.4" font-family="Lato" font-size="12.00" fill="#000000">)</text>
<text text-anchor="start" x="102" y="-120.4" font-family="Lato" font-size="12.00" fill="#000000">[co&#45;Büchi]</text>
<!-- I -->
<!-- 1 -->
<g id="node2" class="node">
<title>1</title>
<ellipse fill="#ffffa0" stroke="#000000" cx="56" cy="-18" rx="18" ry="18"/>
<text text-anchor="middle" x="56" y="-14.9" font-family="Lato" font-size="12.00" fill="#000000">1</text>
</g>
<!-- I&#45;&gt;1 -->
<g id="edge1" class="edge">
<title>I&#45;&gt;1</title>
<path fill="none" stroke="#000000" d="M1.1233,-18C4.178,-18 17.9448,-18 30.9241,-18"/>
<polygon fill="#000000" stroke="#000000" points="37.9807,-18 30.9808,-21.1501 34.4807,-18 30.9807,-18.0001 30.9807,-18.0001 30.9807,-18.0001 34.4807,-18 30.9807,-14.8501 37.9807,-18 37.9807,-18"/>
</g>
<!-- 1&#45;&gt;1 -->
<g id="edge5" class="edge">
<title>1&#45;&gt;1</title>
<path fill="none" stroke="#000000" d="M52.7643,-35.7817C52.2144,-45.3149 53.293,-54 56,-54 57.988,-54 59.0977,-49.3161 59.3292,-43.0521"/>
<polygon fill="#000000" stroke="#000000" points="59.2357,-35.7817 62.4756,-42.7406 59.2808,-39.2814 59.3258,-42.7812 59.3258,-42.7812 59.3258,-42.7812 59.2808,-39.2814 56.1761,-42.8217 59.2357,-35.7817 59.2357,-35.7817"/>
<text text-anchor="start" x="30.5" y="-57.4" font-family="Lato" font-size="12.00" fill="#000000">a &amp; !b &amp; c</text>
</g>
<!-- 1&#45;&gt;1 -->
<g id="edge6" class="edge">
<title>1&#45;&gt;1</title>
<path fill="none" stroke="#000000" d="M50.6841,-35.4203C47.6538,-52.791 49.4258,-72 56,-72 61.7011,-72 63.7908,-57.5545 62.2691,-42.3894"/>
<polygon fill="#000000" stroke="#000000" points="61.3159,-35.4203 65.3856,-41.9288 61.7902,-38.888 62.2646,-42.3557 62.2646,-42.3557 62.2646,-42.3557 61.7902,-38.888 59.1437,-42.7826 61.3159,-35.4203 61.3159,-35.4203"/>
<text text-anchor="start" x="29" y="-88.4" font-family="Lato" font-size="12.00" fill="#000000">!a &amp; !b &amp; c</text>
<text text-anchor="start" x="49" y="-75.4" font-family="Lato" font-size="12.00" fill="#1f78b4">⓿</text>
</g>
<!-- 0 -->
<g id="node3" class="node">
<title>0</title>
<ellipse fill="#ffffa0" stroke="#000000" cx="162" cy="-51" rx="18" ry="18"/>
<text text-anchor="middle" x="162" y="-47.9" font-family="Lato" font-size="12.00" fill="#000000">0</text>
</g>
<!-- 1&#45;&gt;0 -->
<g id="edge4" class="edge">
<title>1&#45;&gt;0</title>
<path fill="none" stroke="#000000" d="M73.5037,-23.4493C90.9957,-28.8949 118.0345,-37.3126 137.6223,-43.4107"/>
<polygon fill="#000000" stroke="#000000" points="144.4703,-45.5426 136.8503,-46.4694 141.1284,-44.5022 137.7866,-43.4618 137.7866,-43.4618 137.7866,-43.4618 141.1284,-44.5022 138.723,-40.4542 144.4703,-45.5426 144.4703,-45.5426"/>
<text text-anchor="start" x="92" y="-42.4" font-family="Lato" font-size="12.00" fill="#000000">!b &amp; !c</text>
</g>
<!-- 2 -->
<g id="node4" class="node">
<title>2</title>
<ellipse fill="#ffffa0" stroke="#000000" cx="241" cy="-18" rx="18" ry="18"/>
<text text-anchor="middle" x="241" y="-14.9" font-family="Lato" font-size="12.00" fill="#000000">2</text>
</g>
<!-- 1&#45;&gt;2 -->
<g id="edge7" class="edge">
<title>1&#45;&gt;2</title>
<path fill="none" stroke="#000000" d="M74.0719,-15.694C98.2154,-12.9077 142.328,-8.8456 180,-11 191.8463,-11.6775 204.9236,-13.0893 215.9217,-14.4687"/>
<polygon fill="#000000" stroke="#000000" points="223.1629,-15.4091 215.8155,-17.6312 219.692,-14.9583 216.2212,-14.5075 216.2212,-14.5075 216.2212,-14.5075 219.692,-14.9583 216.6269,-11.3837 223.1629,-15.4091 223.1629,-15.4091"/>
<text text-anchor="start" x="158.5" y="-14.4" font-family="Lato" font-size="12.00" fill="#000000">b</text>
</g>
<!-- 0&#45;&gt;0 -->
<g id="edge2" class="edge">
<title>0&#45;&gt;0</title>
<path fill="none" stroke="#000000" d="M155.2664,-68.0373C153.8922,-77.8579 156.1367,-87 162,-87 166.3975,-87 168.7594,-81.8576 169.0858,-75.1433"/>
<polygon fill="#000000" stroke="#000000" points="168.7336,-68.0373 172.2263,-74.8728 168.9069,-71.533 169.0802,-75.0287 169.0802,-75.0287 169.0802,-75.0287 168.9069,-71.533 165.934,-75.1847 168.7336,-68.0373 168.7336,-68.0373"/>
<text text-anchor="start" x="157" y="-103.4" font-family="Lato" font-size="12.00" fill="#000000">!b</text>
<text text-anchor="start" x="155" y="-90.4" font-family="Lato" font-size="12.00" fill="#1f78b4">⓿</text>
</g>
<!-- 0&#45;&gt;2 -->
<g id="edge3" class="edge">
<title>0&#45;&gt;2</title>
<path fill="none" stroke="#000000" d="M178.7539,-44.0015C190.0657,-39.2764 205.1528,-32.9741 217.6405,-27.7577"/>
<polygon fill="#000000" stroke="#000000" points="224.2703,-24.9884 219.0253,-30.5931 221.0407,-26.3374 217.8112,-27.6865 217.8112,-27.6865 217.8112,-27.6865 221.0407,-26.3374 216.597,-24.7799 224.2703,-24.9884 224.2703,-24.9884"/>
<text text-anchor="start" x="198" y="-38.4" font-family="Lato" font-size="12.00" fill="#000000">b</text>
</g>
<!-- 2&#45;&gt;2 -->
<g id="edge8" class="edge">
<title>2&#45;&gt;2</title>
<path fill="none" stroke="#000000" d="M237.5845,-35.7817C237.0041,-45.3149 238.1426,-54 241,-54 243.0984,-54 244.2698,-49.3161 244.5142,-43.0521"/>
<polygon fill="#000000" stroke="#000000" points="244.4155,-35.7817 247.6603,-42.7383 244.4631,-39.2814 244.5106,-42.7811 244.5106,-42.7811 244.5106,-42.7811 244.4631,-39.2814 241.3609,-42.8239 244.4155,-35.7817 244.4155,-35.7817"/>
<text text-anchor="start" x="237.5" y="-57.4" font-family="Lato" font-size="12.00" fill="#000000">a</text>
</g>
<!-- 2&#45;&gt;2 -->
<g id="edge9" class="edge">
<title>2&#45;&gt;2</title>
<path fill="none" stroke="#000000" d="M235.4406,-35.1418C232.1703,-52.585 234.0234,-72 241,-72 247.05,-72 249.2471,-57.3996 247.5913,-42.146"/>
<polygon fill="#000000" stroke="#000000" points="246.5594,-35.1418 250.6961,-41.6079 247.0696,-38.6044 247.5798,-42.067 247.5798,-42.067 247.5798,-42.067 247.0696,-38.6044 244.4634,-42.5262 246.5594,-35.1418 246.5594,-35.1418"/>
<text text-anchor="start" x="236" y="-88.4" font-family="Lato" font-size="12.00" fill="#000000">!a</text>
<text text-anchor="start" x="234" y="-75.4" font-family="Lato" font-size="12.00" fill="#1f78b4">⓿</text>
</g>
</g>
</svg>
