<?xml version="1.0" encoding="UTF-8" standalone="no"?>
<?xml-stylesheet href="spot.css" type="text/css"?>
<!DOCTYPE svg PUBLIC "-//W3C//DTD SVG 1.1//EN"
 "http://www.w3.org/Graphics/SVG/1.1/DTD/svg11.dtd">
<!-- Generated by graphviz version 2.40.1 (20161225.0304)
 -->
<!-- Title: G(Fa &amp; Fb) Pages: 1 -->
<svg width="321pt" height="170pt"
 viewBox="0.00 0.00 321.25 170.19" xmlns="http://www.w3.org/2000/svg" xmlns:xlink="http://www.w3.org/1999/xlink">
<g id="graph0" class="graph" transform="scale(1 1) rotate(0) translate(4 166.1889)">
<title>G(Fa &amp; Fb)</title>
<polygon fill="#ffffff" stroke="transparent" points="-4,4 -4,-166.1889 317.2498,-166.1889 317.2498,4 -4,4"/>
<text text-anchor="start" x="88.1249" y="-149.5889" font-family="Lato" font-size="12.00" fill="#000000">Inf(</text>
<text text-anchor="start" x="106.1249" y="-149.5889" font-family="Lato" font-size="12.00" fill="#ff7f00">❷</text>
<text text-anchor="start" x="120.1249" y="-149.5889" font-family="Lato" font-size="12.00" fill="#000000">) | (Fin(</text>
<text text-anchor="start" x="155.1249" y="-149.5889" font-family="Lato" font-size="12.00" fill="#ff4da0">❶</text>
<text text-anchor="start" x="169.1249" y="-149.5889" font-family="Lato" font-size="12.00" fill="#000000">) &amp; Inf(</text>
<text text-anchor="start" x="204.1249" y="-149.5889" font-family="Lato" font-size="12.00" fill="#1f78b4">⓿</text>
<text text-anchor="start" x="218.1249" y="-149.5889" font-family="Lato" font-size="12.00" fill="#000000">))</text>
<text text-anchor="start" x="106.1249" y="-137.5889" font-family="Lato" font-size="12.00" fill="#000000">[parity max even 3]</text>
<!-- I -->
<!-- 2 -->
<g id="node2" class="node">
<title>2</title>
<ellipse fill="#ffffa0" stroke="#000000" cx="62.0416" cy="-56.1889" rx="24.0833" ry="24.0833"/>
<text text-anchor="start" x="58.5416" y="-59.5889" font-family="Lato" font-size="12.00" fill="#000000">2</text>
<text text-anchor="start" x="55.0416" y="-46.5889" font-family="Lato" font-size="12.00" fill="#ff7f00">❷</text>
</g>
<!-- I&#45;&gt;2 -->
<g id="edge1" class="edge">
<title>I&#45;&gt;2</title>
<path fill="none" stroke="#000000" d="M1.1911,-56.1889C4.2886,-56.1889 17.3195,-56.1889 30.5321,-56.1889"/>
<polygon fill="#000000" stroke="#000000" points="37.8292,-56.1889 30.8292,-59.339 34.3292,-56.1889 30.8292,-56.189 30.8292,-56.189 30.8292,-56.189 34.3292,-56.1889 30.8291,-53.039 37.8292,-56.1889 37.8292,-56.1889"/>
</g>
<!-- 2&#45;&gt;2 -->
<g id="edge9" class="edge">
<title>2&#45;&gt;2</title>
<path fill="none" stroke="#000000" d="M54.2897,-79.1085C53.5514,-89.3623 56.1354,-98.2305 62.0416,-98.2305 66.4713,-98.2305 69.0322,-93.2422 69.7244,-86.4222"/>
<polygon fill="#000000" stroke="#000000" points="69.7936,-79.1085 72.8771,-86.1381 69.7604,-82.6084 69.7272,-86.1082 69.7272,-86.1082 69.7272,-86.1082 69.7604,-82.6084 66.5774,-86.0784 69.7936,-79.1085 69.7936,-79.1085"/>
<text text-anchor="start" x="48.0416" y="-101.6305" font-family="Lato" font-size="12.00" fill="#000000">a &amp; b</text>
</g>
<!-- 0 -->
<g id="node3" class="node">
<title>0</title>
<ellipse fill="#ffffa0" stroke="#000000" cx="289.2082" cy="-49.1889" rx="24.0833" ry="24.0833"/>
<text text-anchor="start" x="285.7082" y="-52.5889" font-family="Lato" font-size="12.00" fill="#000000">0</text>
<text text-anchor="start" x="282.2082" y="-39.5889" font-family="Lato" font-size="12.00" fill="#ff4da0">❶</text>
</g>
<!-- 2&#45;&gt;0 -->
<g id="edge7" class="edge">
<title>2&#45;&gt;0</title>
<path fill="none" stroke="#000000" d="M80.0267,-72.3406C96.7932,-86.2303 123.191,-105.2435 150.0833,-113.1889 170.5778,-119.244 177.7912,-119.6339 198.1665,-113.1889 224.15,-104.9698 249.1398,-86.3779 266.3424,-71.3393"/>
<polygon fill="#000000" stroke="#000000" points="271.868,-66.3956 268.7516,-73.4106 269.2596,-68.7293 266.6512,-71.063 266.6512,-71.063 266.6512,-71.063 269.2596,-68.7293 264.5509,-68.7155 271.868,-66.3956 271.868,-66.3956"/>
<text text-anchor="start" x="158.6249" y="-120.5889" font-family="Lato" font-size="12.00" fill="#000000">a &amp; !b</text>
</g>
<!-- 1 -->
<g id="node4" class="node">
<title>1</title>
<ellipse fill="#ffffa0" stroke="#000000" cx="174.1249" cy="-49.1889" rx="24.0833" ry="24.0833"/>
<text text-anchor="start" x="170.6249" y="-52.5889" font-family="Lato" font-size="12.00" fill="#000000">1</text>
<text text-anchor="start" x="167.1249" y="-39.5889" font-family="Lato" font-size="12.00" fill="#ff4da0">❶</text>
</g>
<!-- 2&#45;&gt;1 -->
<g id="edge8" class="edge">
<title>2&#45;&gt;1</title>
<path fill="none" stroke="#000000" d="M86.3579,-54.8852C99.8345,-54.1413 116.8898,-53.1647 132.0833,-52.1889 135.6432,-51.9602 139.3719,-51.7098 143.0759,-51.4543"/>
<polygon fill="#000000" stroke="#000000" points="150.1178,-50.961 143.3551,-54.5926 146.6264,-51.2056 143.1349,-51.4503 143.1349,-51.4503 143.1349,-51.4503 146.6264,-51.2056 142.9147,-48.308 150.1178,-50.961 150.1178,-50.961"/>
<text text-anchor="start" x="113.0833" y="-56.5889" font-family="Lato" font-size="12.00" fill="#000000">!a</text>
</g>
<!-- 0&#45;&gt;2 -->
<g id="edge3" class="edge">
<title>0&#45;&gt;2</title>
<path fill="none" stroke="#000000" d="M269.5792,-35.0092C242.8043,-17.4416 193.2237,8.7943 150.0833,-3.1889 126.8122,-9.6529 103.5332,-24.1013 86.7621,-36.282"/>
<polygon fill="#000000" stroke="#000000" points="80.8898,-40.6481 84.6278,-33.9436 83.6986,-38.5598 86.5073,-36.4715 86.5073,-36.4715 86.5073,-36.4715 83.6986,-38.5598 88.3868,-38.9993 80.8898,-40.6481 80.8898,-40.6481"/>
<text text-anchor="start" x="170.6249" y="-6.5889" font-family="Lato" font-size="12.00" fill="#000000">b</text>
</g>
<!-- 0&#45;&gt;0 -->
<g id="edge2" class="edge">
<title>0&#45;&gt;0</title>
<path fill="none" stroke="#000000" d="M278.9645,-71.251C277.6999,-81.8628 281.1144,-91.2305 289.2082,-91.2305 295.4049,-91.2305 298.8588,-85.7393 299.5699,-78.4028"/>
<polygon fill="#000000" stroke="#000000" points="299.4518,-71.251 302.717,-78.198 299.5096,-74.7505 299.5675,-78.25 299.5675,-78.25 299.5675,-78.25 299.5096,-74.7505 296.4179,-78.3021 299.4518,-71.251 299.4518,-71.251"/>
<text text-anchor="start" x="284.2082" y="-94.6305" font-family="Lato" font-size="12.00" fill="#000000">!b</text>
</g>
<!-- 1&#45;&gt;2 -->
<g id="edge6" class="edge">
<title>1&#45;&gt;2</title>
<path fill="none" stroke="#000000" d="M150.9983,-42.0135C137.3007,-38.726 119.6372,-36.1632 104.0833,-39.1889 99.6202,-40.057 95.0314,-41.3986 90.6005,-42.9559"/>
<polygon fill="#000000" stroke="#000000" points="83.8086,-45.5434 89.2285,-40.1076 87.0793,-44.2973 90.35,-43.0513 90.35,-43.0513 90.35,-43.0513 87.0793,-44.2973 91.4715,-45.9949 83.8086,-45.5434 83.8086,-45.5434"/>
<text text-anchor="start" x="104.0833" y="-42.5889" font-family="Lato" font-size="12.00" fill="#000000">a &amp; b</text>
</g>
<!-- 1&#45;&gt;0 -->
<g id="edge4" class="edge">
<title>1&#45;&gt;0</title>
<path fill="none" stroke="#000000" d="M198.2501,-49.1889C215.5897,-49.1889 239.1246,-49.1889 257.9103,-49.1889"/>
<polygon fill="#000000" stroke="#000000" points="265.1147,-49.1889 258.1147,-52.339 261.6147,-49.1889 258.1147,-49.189 258.1147,-49.189 258.1147,-49.189 261.6147,-49.1889 258.1146,-46.039 265.1147,-49.1889 265.1147,-49.1889"/>
<text text-anchor="start" x="216.1665" y="-52.5889" font-family="Lato" font-size="12.00" fill="#000000">a &amp; !b</text>
</g>
<!-- 1&#45;&gt;1 -->
<g id="edge5" class="edge">
<title>1&#45;&gt;1</title>
<path fill="none" stroke="#000000" d="M163.8812,-71.251C162.6166,-81.8628 166.0311,-91.2305 174.1249,-91.2305 180.3217,-91.2305 183.7756,-85.7393 184.4866,-78.4028"/>
<polygon fill="#000000" stroke="#000000" points="184.3685,-71.251 187.6338,-78.198 184.4264,-74.7505 184.4842,-78.25 184.4842,-78.25 184.4842,-78.25 184.4264,-74.7505 181.3346,-78.3021 184.3685,-71.251 184.3685,-71.251"/>
<text text-anchor="start" x="169.1249" y="-94.6305" font-family="Lato" font-size="12.00" fill="#000000">!a</text>
</g>
</g>
</svg>
