<?xml version="1.0" encoding="UTF-8" standalone="no"?>
<?xml-stylesheet href="spot.css" type="text/css"?>
<!DOCTYPE svg PUBLIC "-//W3C//DTD SVG 1.1//EN"
 "http://www.w3.org/Graphics/SVG/1.1/DTD/svg11.dtd">
<!-- Generated by graphviz version 2.40.1 (20161225.0304)
 -->
<!-- Title: Fb | Gc Pages: 1 -->
<svg width="283pt" height="147pt"
 viewBox="0.00 0.00 283.00 147.40" xmlns="http://www.w3.org/2000/svg" xmlns:xlink="http://www.w3.org/1999/xlink">
<g id="graph0" class="graph" transform="scale(1 1) rotate(0) translate(4 143.4)">
<title>Fb | Gc</title>
<polygon fill="#ffffff" stroke="transparent" points="-4,4 -4,-143.4 279,-143.4 279,4 -4,4"/>
<text text-anchor="start" x="118.5" y="-112.8" font-family="Lato" font-size="12.00" fill="#000000">[Büchi]</text>
<!-- I -->
<!-- 2 -->
<g id="node2" class="node">
<title>2</title>
<ellipse fill="#ffffa0" stroke="#000000" cx="60" cy="-22" rx="18" ry="18"/>
<ellipse fill="none" stroke="#000000" cx="60" cy="-22" rx="22" ry="22"/>
<text text-anchor="middle" x="60" y="-18.9" font-family="Lato" font-size="12.00" fill="#000000">2</text>
</g>
<!-- I&#45;&gt;2 -->
<g id="edge1" class="edge">
<title>I&#45;&gt;2</title>
<path fill="none" stroke="#000000" d="M1.1682,-22C4.2491,-22 17.4946,-22 30.6388,-22"/>
<polygon fill="#000000" stroke="#000000" points="37.8655,-22 30.8656,-25.1501 34.3655,-22 30.8655,-22.0001 30.8655,-22.0001 30.8655,-22.0001 34.3655,-22 30.8655,-18.8501 37.8655,-22 37.8655,-22"/>
</g>
<!-- 2&#45;&gt;2 -->
<g id="edge7" class="edge">
<title>2&#45;&gt;2</title>
<path fill="none" stroke="#000000" d="M52.6831,-42.9908C51.7798,-53.0872 54.2188,-62 60,-62 64.3359,-62 66.7918,-56.9866 67.3677,-50.2204"/>
<polygon fill="#000000" stroke="#000000" points="67.3169,-42.9908 70.5161,-49.9684 67.3415,-46.4907 67.3662,-49.9906 67.3662,-49.9906 67.3662,-49.9906 67.3415,-46.4907 64.2163,-50.0128 67.3169,-42.9908 67.3169,-42.9908"/>
<text text-anchor="start" x="44.5" y="-65.4" font-family="Lato" font-size="12.00" fill="#000000">!b &amp; c</text>
</g>
<!-- 0 -->
<g id="node3" class="node">
<title>0</title>
<ellipse fill="#ffffa0" stroke="#000000" cx="170" cy="-55" rx="18" ry="18"/>
<text text-anchor="middle" x="170" y="-51.9" font-family="Lato" font-size="12.00" fill="#000000">0</text>
</g>
<!-- 2&#45;&gt;0 -->
<g id="edge5" class="edge">
<title>2&#45;&gt;0</title>
<path fill="none" stroke="#000000" d="M81.2091,-28.3627C99.6692,-33.9008 126.4212,-41.9263 145.7308,-47.7192"/>
<polygon fill="#000000" stroke="#000000" points="152.479,-49.7437 144.869,-50.7493 149.1266,-48.7379 145.7742,-47.7322 145.7742,-47.7322 145.7742,-47.7322 149.1266,-48.7379 146.6794,-44.715 152.479,-49.7437 152.479,-49.7437"/>
<text text-anchor="start" x="100" y="-46.4" font-family="Lato" font-size="12.00" fill="#000000">!b &amp; !c</text>
</g>
<!-- 1 -->
<g id="node4" class="node">
<title>1</title>
<ellipse fill="#ffffa0" stroke="#000000" cx="253" cy="-22" rx="18" ry="18"/>
<ellipse fill="none" stroke="#000000" cx="253" cy="-22" rx="22" ry="22"/>
<text text-anchor="middle" x="253" y="-18.9" font-family="Lato" font-size="12.00" fill="#000000">1</text>
</g>
<!-- 2&#45;&gt;1 -->
<g id="edge6" class="edge">
<title>2&#45;&gt;1</title>
<path fill="none" stroke="#000000" d="M82.1981,-19.3276C107.7241,-16.5934 150.8869,-13.0074 188,-15 199.8074,-15.6339 212.7693,-16.9112 223.9907,-18.2032"/>
<polygon fill="#000000" stroke="#000000" points="231.0838,-19.0477 223.7604,-21.3479 227.6083,-18.6338 224.1329,-18.22 224.1329,-18.22 224.1329,-18.22 227.6083,-18.6338 224.5053,-15.0921 231.0838,-19.0477 231.0838,-19.0477"/>
<text text-anchor="start" x="166.5" y="-18.4" font-family="Lato" font-size="12.00" fill="#000000">b</text>
</g>
<!-- 0&#45;&gt;0 -->
<g id="edge2" class="edge">
<title>0&#45;&gt;0</title>
<path fill="none" stroke="#000000" d="M163.2664,-72.0373C161.8922,-81.8579 164.1367,-91 170,-91 174.3975,-91 176.7594,-85.8576 177.0858,-79.1433"/>
<polygon fill="#000000" stroke="#000000" points="176.7336,-72.0373 180.2263,-78.8728 176.9069,-75.533 177.0802,-79.0287 177.0802,-79.0287 177.0802,-79.0287 176.9069,-75.533 173.934,-79.1847 176.7336,-72.0373 176.7336,-72.0373"/>
<text text-anchor="start" x="165" y="-94.4" font-family="Lato" font-size="12.00" fill="#000000">!b</text>
</g>
<!-- 0&#45;&gt;1 -->
<g id="edge3" class="edge">
<title>0&#45;&gt;1</title>
<path fill="none" stroke="#000000" d="M186.7963,-48.322C198.0101,-43.8634 213.0076,-37.9006 225.8924,-32.7777"/>
<polygon fill="#000000" stroke="#000000" points="232.4065,-30.1878 227.0656,-35.7012 229.1541,-31.4809 225.9018,-32.7741 225.9018,-32.7741 225.9018,-32.7741 229.1541,-31.4809 224.738,-29.8469 232.4065,-30.1878 232.4065,-30.1878"/>
<text text-anchor="start" x="206" y="-43.4" font-family="Lato" font-size="12.00" fill="#000000">b</text>
</g>
<!-- 1&#45;&gt;1 -->
<g id="edge4" class="edge">
<title>1&#45;&gt;1</title>
<path fill="none" stroke="#000000" d="M245.3173,-42.9908C244.3688,-53.0872 246.9297,-62 253,-62 257.5527,-62 260.1314,-56.9866 260.7361,-50.2204"/>
<polygon fill="#000000" stroke="#000000" points="260.6827,-42.9908 263.8844,-49.9673 260.7086,-46.4907 260.7345,-49.9906 260.7345,-49.9906 260.7345,-49.9906 260.7086,-46.4907 257.5846,-50.0139 260.6827,-42.9908 260.6827,-42.9908"/>
<text text-anchor="middle" x="253" y="-65.4" font-family="Lato" font-size="12.00" fill="#000000">1</text>
</g>
</g>
</svg>
