<?xml version="1.0" encoding="UTF-8" standalone="no"?>
<?xml-stylesheet href="spot.css" type="text/css"?>
<!DOCTYPE svg PUBLIC "-//W3C//DTD SVG 1.1//EN"
 "http://www.w3.org/Graphics/SVG/1.1/DTD/svg11.dtd">
<!-- Generated by graphviz version 2.40.1 (20161225.0304)
 -->
<!-- Title: FGa Pages: 1 -->
<svg width="82pt" height="151pt"
 viewBox="0.00 0.00 82.00 151.00" xmlns="http://www.w3.org/2000/svg" xmlns:xlink="http://www.w3.org/1999/xlink">
<g id="graph0" class="graph" transform="scale(1 1) rotate(0) translate(4 147)">
<title>FGa</title>
<polygon fill="#ffffff" stroke="transparent" points="-4,4 -4,-147 78,-147 78,4 -4,4"/>
<text text-anchor="start" x="18" y="-130.4" font-family="Lato" font-size="12.00" fill="#000000">Fin(</text>
<text text-anchor="start" x="38" y="-130.4" font-family="Lato" font-size="12.00" fill="#1f78b4">⓿</text>
<text text-anchor="start" x="52" y="-130.4" font-family="Lato" font-size="12.00" fill="#000000">)</text>
<text text-anchor="start" x="9.5" y="-118.4" font-family="Lato" font-size="12.00" fill="#000000">[co&#45;Büchi]</text>
<!-- I -->
<!-- 0 -->
<g id="node2" class="node">
<title>0</title>
<ellipse fill="#ffffa0" stroke="#000000" cx="56" cy="-18" rx="18" ry="18"/>
<text text-anchor="middle" x="56" y="-14.9" font-family="Lato" font-size="12.00" fill="#000000">0</text>
</g>
<!-- I&#45;&gt;0 -->
<g id="edge1" class="edge">
<title>I&#45;&gt;0</title>
<path fill="none" stroke="#000000" d="M1.1233,-18C4.178,-18 17.9448,-18 30.9241,-18"/>
<polygon fill="#000000" stroke="#000000" points="37.9807,-18 30.9808,-21.1501 34.4807,-18 30.9807,-18.0001 30.9807,-18.0001 30.9807,-18.0001 34.4807,-18 30.9807,-14.8501 37.9807,-18 37.9807,-18"/>
</g>
<!-- 0&#45;&gt;0 -->
<g id="edge2" class="edge">
<title>0&#45;&gt;0</title>
<path fill="none" stroke="#000000" d="M52.7643,-35.7817C52.2144,-45.3149 53.293,-54 56,-54 57.988,-54 59.0977,-49.3161 59.3292,-43.0521"/>
<polygon fill="#000000" stroke="#000000" points="59.2357,-35.7817 62.4756,-42.7406 59.2808,-39.2814 59.3258,-42.7812 59.3258,-42.7812 59.3258,-42.7812 59.2808,-39.2814 56.1761,-42.8217 59.2357,-35.7817 59.2357,-35.7817"/>
<text text-anchor="start" x="51" y="-70.4" font-family="Lato" font-size="12.00" fill="#000000">!a</text>
<text text-anchor="start" x="49" y="-57.4" font-family="Lato" font-size="12.00" fill="#1f78b4">⓿</text>
</g>
<!-- 0&#45;&gt;0 -->
<g id="edge3" class="edge">
<title>0&#45;&gt;0</title>
<path fill="none" stroke="#000000" d="M50.9375,-35.2813C47.5625,-55.25 49.25,-80 56,-80 61.959,-80 63.9725,-60.7109 62.0405,-42.451"/>
<polygon fill="#000000" stroke="#000000" points="61.0625,-35.2813 65.1297,-41.7913 61.5356,-38.7491 62.0086,-42.217 62.0086,-42.217 62.0086,-42.217 61.5356,-38.7491 58.8875,-42.6428 61.0625,-35.2813 61.0625,-35.2813"/>
<text text-anchor="start" x="52.5" y="-83.4" font-family="Lato" font-size="12.00" fill="#000000">a</text>
</g>
</g>
</svg>
