<?xml version="1.0" encoding="UTF-8" standalone="no"?>
<?xml-stylesheet href="spot.css" type="text/css"?>
<!DOCTYPE svg PUBLIC "-//W3C//DTD SVG 1.1//EN"
 "http://www.w3.org/Graphics/SVG/1.1/DTD/svg11.dtd">
<!-- Generated by graphviz version 2.40.1 (20161225.0304)
 -->
<!-- Title: F(a W FGb) Pages: 1 -->
<svg width="476pt" height="213pt"
 viewBox="0.00 0.00 476.00 213.06" xmlns="http://www.w3.org/2000/svg" xmlns:xlink="http://www.w3.org/1999/xlink">
<g id="graph0" class="graph" transform="scale(1 1) rotate(0) translate(4 209.0574)">
<title>F(a W FGb)</title>
<polygon fill="#ffffff" stroke="transparent" points="-4,4 -4,-209.0574 472,-209.0574 472,4 -4,4"/>
<text text-anchor="start" x="215" y="-192.4574" font-family="Lato" font-size="12.00" fill="#000000">Fin(</text>
<text text-anchor="start" x="235" y="-192.4574" font-family="Lato" font-size="12.00" fill="#1f78b4">⓿</text>
<text text-anchor="start" x="249" y="-192.4574" font-family="Lato" font-size="12.00" fill="#000000">)</text>
<text text-anchor="start" x="206.5" y="-180.4574" font-family="Lato" font-size="12.00" fill="#000000">[co&#45;Büchi]</text>
<!-- I -->
<!-- 0 -->
<g id="node2" class="node">
<title>0</title>
<ellipse fill="#ffffa0" stroke="#000000" cx="56" cy="-80.0574" rx="18" ry="18"/>
<text text-anchor="middle" x="56" y="-76.9574" font-family="Lato" font-size="12.00" fill="#000000">0</text>
</g>
<!-- I&#45;&gt;0 -->
<g id="edge1" class="edge">
<title>I&#45;&gt;0</title>
<path fill="none" stroke="#000000" d="M1.1233,-80.0574C4.178,-80.0574 17.9448,-80.0574 30.9241,-80.0574"/>
<polygon fill="#000000" stroke="#000000" points="37.9807,-80.0574 30.9808,-83.2075 34.4807,-80.0575 30.9807,-80.0575 30.9807,-80.0575 30.9807,-80.0575 34.4807,-80.0575 30.9807,-76.9075 37.9807,-80.0574 37.9807,-80.0574"/>
</g>
<!-- 0&#45;&gt;0 -->
<g id="edge2" class="edge">
<title>0&#45;&gt;0</title>
<path fill="none" stroke="#000000" d="M52.7643,-97.8392C52.2144,-107.3724 53.293,-116.0574 56,-116.0574 57.988,-116.0574 59.0977,-111.3735 59.3292,-105.1095"/>
<polygon fill="#000000" stroke="#000000" points="59.2357,-97.8392 62.4756,-104.7981 59.2808,-101.3389 59.3258,-104.8386 59.3258,-104.8386 59.3258,-104.8386 59.2808,-101.3389 56.1761,-104.8791 59.2357,-97.8392 59.2357,-97.8392"/>
<text text-anchor="start" x="40.5" y="-119.4574" font-family="Lato" font-size="12.00" fill="#000000">!a &amp; b</text>
</g>
<!-- 0&#45;&gt;0 -->
<g id="edge3" class="edge">
<title>0&#45;&gt;0</title>
<path fill="none" stroke="#000000" d="M50.6841,-97.4777C47.6538,-114.8484 49.4258,-134.0574 56,-134.0574 61.7011,-134.0574 63.7908,-119.612 62.2691,-104.4468"/>
<polygon fill="#000000" stroke="#000000" points="61.3159,-97.4777 65.3856,-103.9862 61.7902,-100.9454 62.2646,-104.4131 62.2646,-104.4131 62.2646,-104.4131 61.7902,-100.9454 59.1437,-104.8401 61.3159,-97.4777 61.3159,-97.4777"/>
<text text-anchor="start" x="39" y="-150.4574" font-family="Lato" font-size="12.00" fill="#000000">!a &amp; !b</text>
<text text-anchor="start" x="49" y="-137.4574" font-family="Lato" font-size="12.00" fill="#1f78b4">⓿</text>
</g>
<!-- 1 -->
<g id="node3" class="node">
<title>1</title>
<ellipse fill="#ffffa0" stroke="#000000" cx="135" cy="-80.0574" rx="18" ry="18"/>
<text text-anchor="middle" x="135" y="-76.9574" font-family="Lato" font-size="12.00" fill="#000000">1</text>
</g>
<!-- 0&#45;&gt;1 -->
<g id="edge4" class="edge">
<title>0&#45;&gt;1</title>
<path fill="none" stroke="#000000" d="M74.3228,-80.0574C84.7921,-80.0574 98.0794,-80.0574 109.5495,-80.0574"/>
<polygon fill="#000000" stroke="#000000" points="116.7766,-80.0574 109.7767,-83.2075 113.2766,-80.0575 109.7766,-80.0575 109.7766,-80.0575 109.7766,-80.0575 113.2766,-80.0575 109.7766,-76.9075 116.7766,-80.0574 116.7766,-80.0574"/>
<text text-anchor="start" x="92" y="-83.4574" font-family="Lato" font-size="12.00" fill="#000000">a</text>
</g>
<!-- 1&#45;&gt;1 -->
<g id="edge5" class="edge">
<title>1&#45;&gt;1</title>
<path fill="none" stroke="#000000" d="M128.2664,-97.0947C126.8922,-106.9154 129.1367,-116.0574 135,-116.0574 139.3975,-116.0574 141.7594,-110.915 142.0858,-104.2007"/>
<polygon fill="#000000" stroke="#000000" points="141.7336,-97.0947 145.2263,-103.9302 141.9069,-100.5905 142.0802,-104.0862 142.0802,-104.0862 142.0802,-104.0862 141.9069,-100.5905 138.934,-104.2421 141.7336,-97.0947 141.7336,-97.0947"/>
<text text-anchor="start" x="131.5" y="-119.4574" font-family="Lato" font-size="12.00" fill="#000000">a</text>
</g>
<!-- 2 -->
<g id="node4" class="node">
<title>2</title>
<ellipse fill="#ffffa0" stroke="#000000" cx="241" cy="-31.0574" rx="18" ry="18"/>
<text text-anchor="middle" x="241" y="-27.9574" font-family="Lato" font-size="12.00" fill="#000000">2</text>
</g>
<!-- 1&#45;&gt;2 -->
<g id="edge6" class="edge">
<title>1&#45;&gt;2</title>
<path fill="none" stroke="#000000" d="M151.5625,-72.4012C169.4538,-64.1307 198.0822,-50.8968 218.1168,-41.6355"/>
<polygon fill="#000000" stroke="#000000" points="224.5538,-38.6599 219.5216,-44.4565 221.3768,-40.1286 218.1998,-41.5972 218.1998,-41.5972 218.1998,-41.5972 221.3768,-40.1286 216.8781,-38.7379 224.5538,-38.6599 224.5538,-38.6599"/>
<text text-anchor="start" x="171" y="-65.4574" font-family="Lato" font-size="12.00" fill="#000000">!a &amp; !b</text>
</g>
<!-- 3 -->
<g id="node5" class="node">
<title>3</title>
<ellipse fill="#ffffa0" stroke="#000000" cx="347" cy="-88.0574" rx="18" ry="18"/>
<text text-anchor="middle" x="347" y="-84.9574" font-family="Lato" font-size="12.00" fill="#000000">3</text>
</g>
<!-- 1&#45;&gt;3 -->
<g id="edge7" class="edge">
<title>1&#45;&gt;3</title>
<path fill="none" stroke="#000000" d="M151.738,-87.4982C183.3014,-100.5036 253.6028,-124.5747 311,-109.0574 316.1863,-107.6553 321.3925,-105.3 326.1709,-102.6623"/>
<polygon fill="#000000" stroke="#000000" points="332.3795,-98.9534 327.9855,-105.2476 329.3748,-100.7484 326.3701,-102.5433 326.3701,-102.5433 326.3701,-102.5433 329.3748,-100.7484 324.7546,-99.8391 332.3795,-98.9534 332.3795,-98.9534"/>
<text text-anchor="start" x="225.5" y="-116.4574" font-family="Lato" font-size="12.00" fill="#000000">!a &amp; b</text>
</g>
<!-- 2&#45;&gt;2 -->
<g id="edge8" class="edge">
<title>2&#45;&gt;2</title>
<path fill="none" stroke="#000000" d="M232.0212,-46.9735C229.679,-57.2078 232.6719,-67.0574 241,-67.0574 247.3762,-67.0574 250.625,-61.2838 250.7465,-53.9842"/>
<polygon fill="#000000" stroke="#000000" points="249.9788,-46.9735 253.8721,-53.589 250.3598,-50.4527 250.7408,-53.9319 250.7408,-53.9319 250.7408,-53.9319 250.3598,-50.4527 247.6095,-54.2748 249.9788,-46.9735 249.9788,-46.9735"/>
<text text-anchor="start" x="224" y="-83.4574" font-family="Lato" font-size="12.00" fill="#000000">!a &amp; !b</text>
<text text-anchor="start" x="234" y="-70.4574" font-family="Lato" font-size="12.00" fill="#1f78b4">⓿</text>
</g>
<!-- 2&#45;&gt;3 -->
<g id="edge9" class="edge">
<title>2&#45;&gt;3</title>
<path fill="none" stroke="#000000" d="M258.9211,-34.278C273.6607,-37.4754 294.6996,-43.3327 311,-53.0574 318.107,-57.2974 324.8937,-63.2061 330.6204,-68.9628"/>
<polygon fill="#000000" stroke="#000000" points="335.5604,-74.1545 328.453,-71.2547 333.1477,-71.6189 330.7351,-69.0833 330.7351,-69.0833 330.7351,-69.0833 333.1477,-71.6189 333.0171,-66.9119 335.5604,-74.1545 335.5604,-74.1545"/>
<text text-anchor="start" x="278.5" y="-56.4574" font-family="Lato" font-size="12.00" fill="#000000">!a &amp; b</text>
</g>
<!-- 4 -->
<g id="node6" class="node">
<title>4</title>
<ellipse fill="#ffffa0" stroke="#000000" cx="450" cy="-35.0574" rx="18" ry="18"/>
<text text-anchor="middle" x="450" y="-31.9574" font-family="Lato" font-size="12.00" fill="#000000">4</text>
</g>
<!-- 2&#45;&gt;4 -->
<g id="edge10" class="edge">
<title>2&#45;&gt;4</title>
<path fill="none" stroke="#000000" d="M259.1818,-31.4054C296.4696,-32.1191 381.6826,-33.7499 424.4807,-34.569"/>
<polygon fill="#000000" stroke="#000000" points="431.7114,-34.7074 424.6524,-37.7228 428.2121,-34.6404 424.7127,-34.5734 424.7127,-34.5734 424.7127,-34.5734 428.2121,-34.6404 424.773,-31.424 431.7114,-34.7074 431.7114,-34.7074"/>
<text text-anchor="start" x="343.5" y="-36.4574" font-family="Lato" font-size="12.00" fill="#000000">a</text>
</g>
<!-- 3&#45;&gt;2 -->
<g id="edge11" class="edge">
<title>3&#45;&gt;2</title>
<path fill="none" stroke="#000000" d="M329.0789,-84.8369C314.3393,-81.6395 293.3004,-75.7822 277,-66.0574 269.893,-61.8175 263.1063,-55.9087 257.3796,-50.1521"/>
<polygon fill="#000000" stroke="#000000" points="252.4396,-44.9604 259.547,-47.8602 254.8523,-47.496 257.2649,-50.0316 257.2649,-50.0316 257.2649,-50.0316 254.8523,-47.496 254.9829,-52.203 252.4396,-44.9604 252.4396,-44.9604"/>
<text text-anchor="start" x="277" y="-95.4574" font-family="Lato" font-size="12.00" fill="#000000">!a &amp; !b</text>
<text text-anchor="start" x="287" y="-82.4574" font-family="Lato" font-size="12.00" fill="#1f78b4">⓿</text>
</g>
<!-- 3&#45;&gt;3 -->
<g id="edge12" class="edge">
<title>3&#45;&gt;3</title>
<path fill="none" stroke="#000000" d="M338.3666,-103.9735C336.1144,-114.2078 338.9922,-124.0574 347,-124.0574 353.131,-124.0574 356.2548,-118.2838 356.3716,-110.9842"/>
<polygon fill="#000000" stroke="#000000" points="355.6334,-103.9735 359.4992,-110.6051 356,-107.4542 356.3665,-110.935 356.3665,-110.935 356.3665,-110.935 356,-107.4542 353.2338,-111.2649 355.6334,-103.9735 355.6334,-103.9735"/>
<text text-anchor="start" x="343.5" y="-127.4574" font-family="Lato" font-size="12.00" fill="#000000">b</text>
</g>
<!-- 3&#45;&gt;4 -->
<g id="edge13" class="edge">
<title>3&#45;&gt;4</title>
<path fill="none" stroke="#000000" d="M358.3484,-73.9979C364.8631,-66.7776 373.6031,-58.399 383,-53.0574 395.8989,-45.7252 411.898,-41.2816 425.0269,-38.6443"/>
<polygon fill="#000000" stroke="#000000" points="431.9875,-37.3582 425.6764,-41.7277 428.5458,-37.9942 425.104,-38.6302 425.104,-38.6302 425.104,-38.6302 428.5458,-37.9942 424.5317,-35.5326 431.9875,-37.3582 431.9875,-37.3582"/>
<text text-anchor="start" x="383" y="-69.4574" font-family="Lato" font-size="12.00" fill="#000000">a &amp; !b</text>
<text text-anchor="start" x="391.5" y="-56.4574" font-family="Lato" font-size="12.00" fill="#1f78b4">⓿</text>
</g>
<!-- 4&#45;&gt;2 -->
<g id="edge14" class="edge">
<title>4&#45;&gt;2</title>
<path fill="none" stroke="#000000" d="M433.9207,-26.7354C417.2118,-18.5922 390.0507,-6.7496 365,-2.0574 329.4447,4.6023 288.686,-9.0969 263.899,-19.8515"/>
<polygon fill="#000000" stroke="#000000" points="257.3489,-22.7874 262.4482,-17.0498 260.5428,-21.3558 263.7366,-19.9243 263.7366,-19.9243 263.7366,-19.9243 260.5428,-21.3558 265.025,-22.7987 257.3489,-22.7874 257.3489,-22.7874"/>
<text text-anchor="start" x="330" y="-18.4574" font-family="Lato" font-size="12.00" fill="#000000">!a &amp; !b</text>
<text text-anchor="start" x="340" y="-5.4574" font-family="Lato" font-size="12.00" fill="#1f78b4">⓿</text>
</g>
<!-- 4&#45;&gt;3 -->
<g id="edge15" class="edge">
<title>4&#45;&gt;3</title>
<path fill="none" stroke="#000000" d="M441.1322,-51.1182C434.8694,-60.8559 425.5472,-72.6091 414,-79.0574 401.3771,-86.1065 385.3883,-88.4556 372.1959,-88.9956"/>
<polygon fill="#000000" stroke="#000000" points="365.1936,-89.1279 372.1329,-85.8462 368.693,-89.0618 372.1924,-88.9956 372.1924,-88.9956 372.1924,-88.9956 368.693,-89.0618 372.2519,-92.145 365.1936,-89.1279 365.1936,-89.1279"/>
<text text-anchor="start" x="383" y="-103.4574" font-family="Lato" font-size="12.00" fill="#000000">!a &amp; b</text>
<text text-anchor="start" x="391.5" y="-90.4574" font-family="Lato" font-size="12.00" fill="#1f78b4">⓿</text>
</g>
<!-- 4&#45;&gt;4 -->
<g id="edge16" class="edge">
<title>4&#45;&gt;4</title>
<path fill="none" stroke="#000000" d="M441.3666,-50.9735C439.1144,-61.2078 441.9922,-71.0574 450,-71.0574 456.131,-71.0574 459.2548,-65.2838 459.3716,-57.9842"/>
<polygon fill="#000000" stroke="#000000" points="458.6334,-50.9735 462.4992,-57.6051 459,-54.4542 459.3665,-57.935 459.3665,-57.935 459.3665,-57.935 459,-54.4542 456.2338,-58.2649 458.6334,-50.9735 458.6334,-50.9735"/>
<text text-anchor="start" x="446.5" y="-74.4574" font-family="Lato" font-size="12.00" fill="#000000">a</text>
</g>
</g>
</svg>
