<?xml version="1.0" encoding="UTF-8" standalone="no"?>
<?xml-stylesheet href="spot.css" type="text/css"?>
<!DOCTYPE svg PUBLIC "-//W3C//DTD SVG 1.1//EN"
 "http://www.w3.org/Graphics/SVG/1.1/DTD/svg11.dtd">
<!-- Generated by graphviz version 2.40.1 (20161225.0304)
 -->
<!-- Title: F(a W FGb) Pages: 1 -->
<svg width="706pt" height="296pt"
 viewBox="0.00 0.00 706.00 296.00" xmlns="http://www.w3.org/2000/svg" xmlns:xlink="http://www.w3.org/1999/xlink">
<g id="graph0" class="graph" transform="scale(1 1) rotate(0) translate(4 292)">
<title>F(a W FGb)</title>
<polygon fill="#ffffff" stroke="transparent" points="-4,4 -4,-292 702,-292 702,4 -4,4"/>
<text text-anchor="start" x="330" y="-275.4" font-family="Lato" font-size="12.00" fill="#000000">Fin(</text>
<text text-anchor="start" x="350" y="-275.4" font-family="Lato" font-size="12.00" fill="#1f78b4">⓿</text>
<text text-anchor="start" x="364" y="-275.4" font-family="Lato" font-size="12.00" fill="#000000">)</text>
<text text-anchor="start" x="321.5" y="-263.4" font-family="Lato" font-size="12.00" fill="#000000">[co&#45;Büchi]</text>
<!-- I -->
<!-- 0 -->
<g id="node2" class="node">
<title>0</title>
<ellipse fill="#ffffa0" stroke="#000000" cx="56" cy="-194" rx="18" ry="18"/>
<text text-anchor="middle" x="56" y="-190.9" font-family="Lato" font-size="12.00" fill="#000000">0</text>
</g>
<!-- I&#45;&gt;0 -->
<g id="edge1" class="edge">
<title>I&#45;&gt;0</title>
<path fill="none" stroke="#000000" d="M1.1233,-194C4.178,-194 17.9448,-194 30.9241,-194"/>
<polygon fill="#000000" stroke="#000000" points="37.9807,-194 30.9808,-197.1501 34.4807,-194 30.9807,-194.0001 30.9807,-194.0001 30.9807,-194.0001 34.4807,-194 30.9807,-190.8501 37.9807,-194 37.9807,-194"/>
</g>
<!-- 0&#45;&gt;0 -->
<g id="edge2" class="edge">
<title>0&#45;&gt;0</title>
<path fill="none" stroke="#000000" d="M49.6208,-211.0373C48.3189,-220.8579 50.4453,-230 56,-230 60.166,-230 62.4036,-224.8576 62.7128,-218.1433"/>
<polygon fill="#000000" stroke="#000000" points="62.3792,-211.0373 65.8541,-217.8818 62.5434,-214.5335 62.7076,-218.0296 62.7076,-218.0296 62.7076,-218.0296 62.5434,-214.5335 59.561,-218.1774 62.3792,-211.0373 62.3792,-211.0373"/>
<text text-anchor="start" x="39" y="-246.4" font-family="Lato" font-size="12.00" fill="#000000">!a &amp; !b</text>
<text text-anchor="start" x="49" y="-233.4" font-family="Lato" font-size="12.00" fill="#1f78b4">⓿</text>
</g>
<!-- 1 -->
<g id="node3" class="node">
<title>1</title>
<ellipse fill="#ffffa0" stroke="#000000" cx="162" cy="-145" rx="18" ry="18"/>
<text text-anchor="middle" x="162" y="-141.9" font-family="Lato" font-size="12.00" fill="#000000">1</text>
</g>
<!-- 0&#45;&gt;1 -->
<g id="edge3" class="edge">
<title>0&#45;&gt;1</title>
<path fill="none" stroke="#000000" d="M73.613,-190.2234C88.1693,-186.6952 109.1118,-180.6639 126,-172 131.6956,-169.0781 137.4332,-165.2606 142.6025,-161.4202"/>
<polygon fill="#000000" stroke="#000000" points="148.3731,-156.9536 144.7656,-163.7293 145.6053,-159.0959 142.8375,-161.2383 142.8375,-161.2383 142.8375,-161.2383 145.6053,-159.0959 140.9094,-158.7473 148.3731,-156.9536 148.3731,-156.9536"/>
<text text-anchor="start" x="93.5" y="-188.4" font-family="Lato" font-size="12.00" fill="#000000">!a &amp; b</text>
</g>
<!-- 2 -->
<g id="node4" class="node">
<title>2</title>
<ellipse fill="#ffffa0" stroke="#000000" cx="365" cy="-181" rx="18" ry="18"/>
<text text-anchor="middle" x="365" y="-177.9" font-family="Lato" font-size="12.00" fill="#000000">2</text>
</g>
<!-- 0&#45;&gt;2 -->
<g id="edge4" class="edge">
<title>0&#45;&gt;2</title>
<path fill="none" stroke="#000000" d="M73.4575,-198.614C79.3088,-199.9633 85.8971,-201.2706 92,-202 114.952,-204.7431 120.8857,-202.7778 144,-203 159.9993,-203.1538 164.028,-203.9464 180,-203 237.5743,-199.5887 304.7003,-190.2557 340.1376,-184.9056"/>
<polygon fill="#000000" stroke="#000000" points="347.2038,-183.828 340.7587,-187.9974 343.7438,-184.3557 340.2838,-184.8834 340.2838,-184.8834 340.2838,-184.8834 343.7438,-184.3557 339.8088,-181.7694 347.2038,-183.828 347.2038,-183.828"/>
<text text-anchor="start" x="208.5" y="-204.4" font-family="Lato" font-size="12.00" fill="#000000">a</text>
</g>
<!-- 1&#45;&gt;0 -->
<g id="edge5" class="edge">
<title>1&#45;&gt;0</title>
<path fill="none" stroke="#000000" d="M144.5431,-139.5978C129.7002,-136.051 108.2696,-133.4755 92,-142 80.4018,-148.0769 71.7973,-159.7757 65.9142,-170.5402"/>
<polygon fill="#000000" stroke="#000000" points="62.6004,-177.0633 62.9625,-169.3957 64.1857,-173.9429 65.7709,-170.8225 65.7709,-170.8225 65.7709,-170.8225 64.1857,-173.9429 68.5793,-172.2492 62.6004,-177.0633 62.6004,-177.0633"/>
<text text-anchor="start" x="92" y="-158.4" font-family="Lato" font-size="12.00" fill="#000000">!a &amp; !b</text>
<text text-anchor="start" x="102" y="-145.4" font-family="Lato" font-size="12.00" fill="#1f78b4">⓿</text>
</g>
<!-- 1&#45;&gt;1 -->
<g id="edge6" class="edge">
<title>1&#45;&gt;1</title>
<path fill="none" stroke="#000000" d="M153.3666,-160.916C151.1144,-171.1504 153.9922,-181 162,-181 168.131,-181 171.2548,-175.2263 171.3716,-167.9268"/>
<polygon fill="#000000" stroke="#000000" points="170.6334,-160.916 174.4992,-167.5477 171,-164.3968 171.3665,-167.8775 171.3665,-167.8775 171.3665,-167.8775 171,-164.3968 168.2338,-168.2074 170.6334,-160.916 170.6334,-160.916"/>
<text text-anchor="start" x="146.5" y="-184.4" font-family="Lato" font-size="12.00" fill="#000000">!a &amp; b</text>
</g>
<!-- 1&#45;&gt;2 -->
<g id="edge7" class="edge">
<title>1&#45;&gt;2</title>
<path fill="none" stroke="#000000" d="M180.0149,-148.1948C216.3557,-154.6394 298.5085,-169.2084 340.0087,-176.568"/>
<polygon fill="#000000" stroke="#000000" points="347.0255,-177.8124 339.5829,-179.6916 343.5792,-177.2012 340.133,-176.59 340.133,-176.59 340.133,-176.59 343.5792,-177.2012 340.6831,-173.4884 347.0255,-177.8124 347.0255,-177.8124"/>
<text text-anchor="start" x="246.5" y="-168.4" font-family="Lato" font-size="12.00" fill="#000000">a &amp; !b</text>
</g>
<!-- 3 -->
<g id="node5" class="node">
<title>3</title>
<ellipse fill="#ffffa0" stroke="#000000" cx="262" cy="-96" rx="18" ry="18"/>
<text text-anchor="middle" x="262" y="-92.9" font-family="Lato" font-size="12.00" fill="#000000">3</text>
</g>
<!-- 1&#45;&gt;3 -->
<g id="edge8" class="edge">
<title>1&#45;&gt;3</title>
<path fill="none" stroke="#000000" d="M178.513,-136.9086C195.1136,-128.7743 220.8289,-116.1738 239.3334,-107.1067"/>
<polygon fill="#000000" stroke="#000000" points="245.7943,-103.9408 240.8944,-109.8496 242.6513,-105.4809 239.5084,-107.021 239.5084,-107.021 239.5084,-107.021 242.6513,-105.4809 238.1223,-104.1923 245.7943,-103.9408 245.7943,-103.9408"/>
<text text-anchor="start" x="198" y="-130.4" font-family="Lato" font-size="12.00" fill="#000000">a &amp; b</text>
</g>
<!-- 2&#45;&gt;2 -->
<g id="edge9" class="edge">
<title>2&#45;&gt;2</title>
<path fill="none" stroke="#000000" d="M356.3666,-196.916C354.1144,-207.1504 356.9922,-217 365,-217 371.131,-217 374.2548,-211.2263 374.3716,-203.9268"/>
<polygon fill="#000000" stroke="#000000" points="373.6334,-196.916 377.4992,-203.5477 374,-200.3968 374.3665,-203.8775 374.3665,-203.8775 374.3665,-203.8775 374,-200.3968 371.2338,-204.2074 373.6334,-196.916 373.6334,-196.916"/>
<text text-anchor="start" x="361.5" y="-220.4" font-family="Lato" font-size="12.00" fill="#000000">a</text>
</g>
<!-- 4 -->
<g id="node6" class="node">
<title>4</title>
<ellipse fill="#ffffa0" stroke="#000000" cx="471" cy="-103" rx="18" ry="18"/>
<text text-anchor="middle" x="471" y="-99.9" font-family="Lato" font-size="12.00" fill="#000000">4</text>
</g>
<!-- 2&#45;&gt;4 -->
<g id="edge10" class="edge">
<title>2&#45;&gt;4</title>
<path fill="none" stroke="#000000" d="M379.7388,-170.1544C398.171,-156.5912 429.823,-133.3 450.5808,-118.0254"/>
<polygon fill="#000000" stroke="#000000" points="456.3863,-113.7535 452.6152,-120.4394 453.5673,-115.8279 450.7483,-117.9023 450.7483,-117.9023 450.7483,-117.9023 453.5673,-115.8279 448.8813,-115.3651 456.3863,-113.7535 456.3863,-113.7535"/>
<text text-anchor="start" x="401" y="-156.4" font-family="Lato" font-size="12.00" fill="#000000">!a &amp; !b</text>
</g>
<!-- 5 -->
<g id="node7" class="node">
<title>5</title>
<ellipse fill="#ffffa0" stroke="#000000" cx="577" cy="-166" rx="18" ry="18"/>
<text text-anchor="middle" x="577" y="-162.9" font-family="Lato" font-size="12.00" fill="#000000">5</text>
</g>
<!-- 2&#45;&gt;5 -->
<g id="edge11" class="edge">
<title>2&#45;&gt;5</title>
<path fill="none" stroke="#000000" d="M382.6561,-185.2389C414.8452,-192.1977 484.9231,-203.7781 541,-188 546.4534,-186.4656 551.8977,-183.8502 556.8405,-180.9471"/>
<polygon fill="#000000" stroke="#000000" points="562.7962,-177.1756 558.5675,-183.582 559.8392,-179.0482 556.8822,-180.9207 556.8822,-180.9207 556.8822,-180.9207 559.8392,-179.0482 555.1969,-178.2594 562.7962,-177.1756 562.7962,-177.1756"/>
<text text-anchor="start" x="455.5" y="-198.4" font-family="Lato" font-size="12.00" fill="#000000">!a &amp; b</text>
</g>
<!-- 3&#45;&gt;2 -->
<g id="edge12" class="edge">
<title>3&#45;&gt;2</title>
<path fill="none" stroke="#000000" d="M275.891,-107.4635C293.8599,-122.2922 325.2597,-148.2046 345.5822,-164.9756"/>
<polygon fill="#000000" stroke="#000000" points="351.0001,-169.4467 343.5961,-167.4207 348.3006,-167.2189 345.6011,-164.9912 345.6011,-164.9912 345.6011,-164.9912 348.3006,-167.2189 347.6061,-162.5616 351.0001,-169.4467 351.0001,-169.4467"/>
<text text-anchor="start" x="298" y="-154.4" font-family="Lato" font-size="12.00" fill="#000000">a &amp; !b</text>
</g>
<!-- 3&#45;&gt;3 -->
<g id="edge13" class="edge">
<title>3&#45;&gt;3</title>
<path fill="none" stroke="#000000" d="M253.3666,-111.916C251.1144,-122.1504 253.9922,-132 262,-132 268.131,-132 271.2548,-126.2263 271.3716,-118.9268"/>
<polygon fill="#000000" stroke="#000000" points="270.6334,-111.916 274.4992,-118.5477 271,-115.3968 271.3665,-118.8775 271.3665,-118.8775 271.3665,-118.8775 271,-115.3968 268.2338,-119.2074 270.6334,-111.916 270.6334,-111.916"/>
<text text-anchor="start" x="248" y="-135.4" font-family="Lato" font-size="12.00" fill="#000000">a &amp; b</text>
</g>
<!-- 3&#45;&gt;4 -->
<g id="edge14" class="edge">
<title>3&#45;&gt;4</title>
<path fill="none" stroke="#000000" d="M280.1818,-96.609C317.5633,-97.861 403.1111,-100.7262 445.8025,-102.1561"/>
<polygon fill="#000000" stroke="#000000" points="453.0091,-102.3974 445.9075,-105.3113 449.5111,-102.2802 446.013,-102.163 446.013,-102.163 446.013,-102.163 449.5111,-102.2802 446.1185,-99.0148 453.0091,-102.3974 453.0091,-102.3974"/>
<text text-anchor="start" x="348" y="-103.4" font-family="Lato" font-size="12.00" fill="#000000">!a &amp; !b</text>
</g>
<!-- 6 -->
<g id="node8" class="node">
<title>6</title>
<ellipse fill="#ffffa0" stroke="#000000" cx="365" cy="-18" rx="18" ry="18"/>
<text text-anchor="middle" x="365" y="-14.9" font-family="Lato" font-size="12.00" fill="#000000">6</text>
</g>
<!-- 3&#45;&gt;6 -->
<g id="edge15" class="edge">
<title>3&#45;&gt;6</title>
<path fill="none" stroke="#000000" d="M276.7574,-84.8245C294.6798,-71.2522 324.9898,-48.299 344.9994,-33.1461"/>
<polygon fill="#000000" stroke="#000000" points="350.6021,-28.9033 346.9233,-35.6405 347.8118,-31.0163 345.0216,-33.1293 345.0216,-33.1293 345.0216,-33.1293 347.8118,-31.0163 343.1199,-30.6181 350.6021,-28.9033 350.6021,-28.9033"/>
<text text-anchor="start" x="298" y="-72.4" font-family="Lato" font-size="12.00" fill="#000000">!a &amp; b</text>
</g>
<!-- 4&#45;&gt;4 -->
<g id="edge16" class="edge">
<title>4&#45;&gt;4</title>
<path fill="none" stroke="#000000" d="M462.0212,-118.916C459.679,-129.1504 462.6719,-139 471,-139 477.3762,-139 480.625,-133.2263 480.7465,-125.9268"/>
<polygon fill="#000000" stroke="#000000" points="479.9788,-118.916 483.8721,-125.5315 480.3598,-122.3952 480.7408,-125.8744 480.7408,-125.8744 480.7408,-125.8744 480.3598,-122.3952 477.6095,-126.2174 479.9788,-118.916 479.9788,-118.916"/>
<text text-anchor="start" x="454" y="-155.4" font-family="Lato" font-size="12.00" fill="#000000">!a &amp; !b</text>
<text text-anchor="start" x="464" y="-142.4" font-family="Lato" font-size="12.00" fill="#1f78b4">⓿</text>
</g>
<!-- 4&#45;&gt;5 -->
<g id="edge17" class="edge">
<title>4&#45;&gt;5</title>
<path fill="none" stroke="#000000" d="M488.596,-107.9266C503.3311,-112.5324 524.5335,-120.3077 541,-131 547.8288,-135.4342 554.467,-141.2921 560.1446,-146.9445"/>
<polygon fill="#000000" stroke="#000000" points="565.0666,-152.0309 557.9351,-149.191 562.6327,-149.5157 560.1988,-147.0005 560.1988,-147.0005 560.1988,-147.0005 562.6327,-149.5157 562.4625,-144.81 565.0666,-152.0309 565.0666,-152.0309"/>
<text text-anchor="start" x="520.5" y="-134.4" font-family="Lato" font-size="12.00" fill="#000000">b</text>
</g>
<!-- 7 -->
<g id="node9" class="node">
<title>7</title>
<ellipse fill="#ffffa0" stroke="#000000" cx="680" cy="-97" rx="18" ry="18"/>
<text text-anchor="middle" x="680" y="-93.9" font-family="Lato" font-size="12.00" fill="#000000">7</text>
</g>
<!-- 4&#45;&gt;7 -->
<g id="edge18" class="edge">
<title>4&#45;&gt;7</title>
<path fill="none" stroke="#000000" d="M486.1047,-93.1518C503.0347,-82.8033 531.7005,-67.3043 559,-62 594.3194,-55.1375 634.2199,-71.5532 658.2238,-84.1601"/>
<polygon fill="#000000" stroke="#000000" points="664.5556,-87.5923 656.9004,-87.0257 661.4786,-85.9243 658.4016,-84.2564 658.4016,-84.2564 658.4016,-84.2564 661.4786,-85.9243 659.9027,-81.4871 664.5556,-87.5923 664.5556,-87.5923"/>
<text text-anchor="start" x="561.5" y="-65.4" font-family="Lato" font-size="12.00" fill="#000000">a &amp; !b</text>
</g>
<!-- 5&#45;&gt;4 -->
<g id="edge19" class="edge">
<title>5&#45;&gt;4</title>
<path fill="none" stroke="#000000" d="M559.1696,-163.1725C544.2915,-160.1903 523.0108,-154.4298 507,-144 498.939,-138.7488 491.6078,-131.2111 485.6962,-124.0276"/>
<polygon fill="#000000" stroke="#000000" points="481.0795,-118.1348 487.8762,-121.7024 483.238,-120.8899 485.3966,-123.6451 485.3966,-123.6451 485.3966,-123.6451 483.238,-120.8899 482.9169,-125.5877 481.0795,-118.1348 481.0795,-118.1348"/>
<text text-anchor="start" x="507" y="-174.4" font-family="Lato" font-size="12.00" fill="#000000">!a &amp; !b</text>
<text text-anchor="start" x="517" y="-161.4" font-family="Lato" font-size="12.00" fill="#1f78b4">⓿</text>
</g>
<!-- 5&#45;&gt;5 -->
<g id="edge20" class="edge">
<title>5&#45;&gt;5</title>
<path fill="none" stroke="#000000" d="M568.3666,-181.916C566.1144,-192.1504 568.9922,-202 577,-202 583.131,-202 586.2548,-196.2263 586.3716,-188.9268"/>
<polygon fill="#000000" stroke="#000000" points="585.6334,-181.916 589.4992,-188.5477 586,-185.3968 586.3665,-188.8775 586.3665,-188.8775 586.3665,-188.8775 586,-185.3968 583.2338,-189.2074 585.6334,-181.916 585.6334,-181.916"/>
<text text-anchor="start" x="573.5" y="-205.4" font-family="Lato" font-size="12.00" fill="#000000">b</text>
</g>
<!-- 5&#45;&gt;7 -->
<g id="edge21" class="edge">
<title>5&#45;&gt;7</title>
<path fill="none" stroke="#000000" d="M594.9646,-167.6438C609.3633,-168.0637 629.4893,-166.5475 644,-157 656.9627,-148.471 665.9523,-133.5155 671.7064,-120.6701"/>
<polygon fill="#000000" stroke="#000000" points="674.4244,-114.1903 674.6215,-121.8639 673.0705,-117.4178 671.7167,-120.6454 671.7167,-120.6454 671.7167,-120.6454 673.0705,-117.4178 668.8119,-119.4269 674.4244,-114.1903 674.4244,-114.1903"/>
<text text-anchor="start" x="613" y="-182.4" font-family="Lato" font-size="12.00" fill="#000000">a &amp; !b</text>
<text text-anchor="start" x="621.5" y="-169.4" font-family="Lato" font-size="12.00" fill="#1f78b4">⓿</text>
</g>
<!-- 6&#45;&gt;4 -->
<g id="edge22" class="edge">
<title>6&#45;&gt;4</title>
<path fill="none" stroke="#000000" d="M379.2956,-29.4635C397.8912,-44.375 430.4637,-70.4945 451.3661,-87.2558"/>
<polygon fill="#000000" stroke="#000000" points="456.9309,-91.7181 449.4992,-89.7964 454.2003,-89.5286 451.4698,-87.339 451.4698,-87.339 451.4698,-87.339 454.2003,-89.5286 453.4404,-84.8815 456.9309,-91.7181 456.9309,-91.7181"/>
<text text-anchor="start" x="401" y="-77.4" font-family="Lato" font-size="12.00" fill="#000000">!a &amp; !b</text>
</g>
<!-- 6&#45;&gt;6 -->
<g id="edge23" class="edge">
<title>6&#45;&gt;6</title>
<path fill="none" stroke="#000000" d="M356.3666,-33.916C354.1144,-44.1504 356.9922,-54 365,-54 371.131,-54 374.2548,-48.2263 374.3716,-40.9268"/>
<polygon fill="#000000" stroke="#000000" points="373.6334,-33.916 377.4992,-40.5477 374,-37.3968 374.3665,-40.8775 374.3665,-40.8775 374.3665,-40.8775 374,-37.3968 371.2338,-41.2074 373.6334,-33.916 373.6334,-33.916"/>
<text text-anchor="start" x="361.5" y="-57.4" font-family="Lato" font-size="12.00" fill="#000000">b</text>
</g>
<!-- 6&#45;&gt;7 -->
<g id="edge24" class="edge">
<title>6&#45;&gt;7</title>
<path fill="none" stroke="#000000" d="M383.0677,-17.3473C429.153,-16.411 553.8024,-18.4942 644,-63 651.2011,-66.5532 657.9399,-72.0399 663.5951,-77.5761"/>
<polygon fill="#000000" stroke="#000000" points="668.4662,-82.6202 661.3376,-79.773 666.0349,-80.1025 663.6036,-77.5848 663.6036,-77.5848 663.6036,-77.5848 666.0349,-80.1025 665.8695,-75.3966 668.4662,-82.6202 668.4662,-82.6202"/>
<text text-anchor="start" x="508.5" y="-33.4" font-family="Lato" font-size="12.00" fill="#000000">a &amp; !b</text>
</g>
<!-- 7&#45;&gt;4 -->
<g id="edge25" class="edge">
<title>7&#45;&gt;4</title>
<path fill="none" stroke="#000000" d="M661.7114,-97.525C624.3323,-98.5981 539.1141,-101.0446 496.397,-102.2709"/>
<polygon fill="#000000" stroke="#000000" points="489.1818,-102.478 496.0884,-99.1284 492.6803,-102.3776 496.1789,-102.2771 496.1789,-102.2771 496.1789,-102.2771 492.6803,-102.3776 496.2693,-105.4258 489.1818,-102.478 489.1818,-102.478"/>
<text text-anchor="start" x="560" y="-117.4" font-family="Lato" font-size="12.00" fill="#000000">!a &amp; !b</text>
<text text-anchor="start" x="570" y="-104.4" font-family="Lato" font-size="12.00" fill="#1f78b4">⓿</text>
</g>
<!-- 7&#45;&gt;5 -->
<g id="edge26" class="edge">
<title>7&#45;&gt;5</title>
<path fill="none" stroke="#000000" d="M662.7517,-102.5333C648.5872,-107.5726 628.4201,-115.9172 613,-127 605.6345,-132.2938 598.6106,-139.2828 592.7545,-145.8807"/>
<polygon fill="#000000" stroke="#000000" points="588.1283,-151.2851 590.2874,-143.9188 590.4044,-148.6262 592.6804,-145.9673 592.6804,-145.9673 592.6804,-145.9673 590.4044,-148.6262 595.0734,-148.0157 588.1283,-151.2851 588.1283,-151.2851"/>
<text text-anchor="start" x="613" y="-143.4" font-family="Lato" font-size="12.00" fill="#000000">!a &amp; b</text>
<text text-anchor="start" x="621.5" y="-130.4" font-family="Lato" font-size="12.00" fill="#1f78b4">⓿</text>
</g>
<!-- 7&#45;&gt;7 -->
<g id="edge27" class="edge">
<title>7&#45;&gt;7</title>
<path fill="none" stroke="#000000" d="M671.3666,-112.916C669.1144,-123.1504 671.9922,-133 680,-133 686.131,-133 689.2548,-127.2263 689.3716,-119.9268"/>
<polygon fill="#000000" stroke="#000000" points="688.6334,-112.916 692.4992,-119.5477 689,-116.3968 689.3665,-119.8775 689.3665,-119.8775 689.3665,-119.8775 689,-116.3968 686.2338,-120.2074 688.6334,-112.916 688.6334,-112.916"/>
<text text-anchor="start" x="676.5" y="-136.4" font-family="Lato" font-size="12.00" fill="#000000">a</text>
</g>
</g>
</svg>
