<?xml version="1.0" encoding="UTF-8" standalone="no"?>
<?xml-stylesheet href="spot.css" type="text/css"?>
<!DOCTYPE svg PUBLIC "-//W3C//DTD SVG 1.1//EN"
 "http://www.w3.org/Graphics/SVG/1.1/DTD/svg11.dtd">
<!-- Generated by graphviz version 2.40.1 (20161225.0304)
 -->
<!-- Title: G(Fa &amp; Fb) Pages: 1 -->
<svg width="185pt" height="159pt"
 viewBox="0.00 0.00 185.00 158.90" xmlns="http://www.w3.org/2000/svg" xmlns:xlink="http://www.w3.org/1999/xlink">
<g id="graph0" class="graph" transform="scale(1 1) rotate(0) translate(4 154.898)">
<title>G(Fa &amp; Fb)</title>
<polygon fill="#ffffff" stroke="transparent" points="-4,4 -4,-154.898 181,-154.898 181,4 -4,4"/>
<text text-anchor="start" x="70.5" y="-138.298" font-family="Lato" font-size="12.00" fill="#000000">Inf(</text>
<text text-anchor="start" x="88.5" y="-138.298" font-family="Lato" font-size="12.00" fill="#1f78b4">⓿</text>
<text text-anchor="start" x="102.5" y="-138.298" font-family="Lato" font-size="12.00" fill="#000000">)</text>
<text text-anchor="start" x="69.5" y="-126.298" font-family="Lato" font-size="12.00" fill="#000000">[Büchi]</text>
<!-- I -->
<!-- 1 -->
<g id="node2" class="node">
<title>1</title>
<ellipse fill="#ffffa0" stroke="#000000" cx="56" cy="-25.898" rx="18" ry="18"/>
<text text-anchor="middle" x="56" y="-22.798" font-family="Lato" font-size="12.00" fill="#000000">1</text>
</g>
<!-- I&#45;&gt;1 -->
<g id="edge1" class="edge">
<title>I&#45;&gt;1</title>
<path fill="none" stroke="#000000" d="M1.1233,-25.898C4.178,-25.898 17.9448,-25.898 30.9241,-25.898"/>
<polygon fill="#000000" stroke="#000000" points="37.9807,-25.898 30.9808,-29.0481 34.4807,-25.898 30.9807,-25.8981 30.9807,-25.8981 30.9807,-25.8981 34.4807,-25.898 30.9807,-22.7481 37.9807,-25.898 37.9807,-25.898"/>
</g>
<!-- 1&#45;&gt;1 -->
<g id="edge5" class="edge">
<title>1&#45;&gt;1</title>
<path fill="none" stroke="#000000" d="M52.7643,-43.6797C52.2144,-53.2129 53.293,-61.898 56,-61.898 57.988,-61.898 59.0977,-57.2141 59.3292,-50.9501"/>
<polygon fill="#000000" stroke="#000000" points="59.2357,-43.6797 62.4756,-50.6386 59.2808,-47.1794 59.3258,-50.6791 59.3258,-50.6791 59.3258,-50.6791 59.2808,-47.1794 56.1761,-50.7197 59.2357,-43.6797 59.2357,-43.6797"/>
<text text-anchor="start" x="51" y="-65.298" font-family="Lato" font-size="12.00" fill="#000000">!a</text>
</g>
<!-- 1&#45;&gt;1 -->
<g id="edge6" class="edge">
<title>1&#45;&gt;1</title>
<path fill="none" stroke="#000000" d="M50.6841,-43.3183C47.6538,-60.6889 49.4258,-79.898 56,-79.898 61.7011,-79.898 63.7908,-65.4525 62.2691,-50.2874"/>
<polygon fill="#000000" stroke="#000000" points="61.3159,-43.3183 65.3856,-49.8267 61.7902,-46.786 62.2646,-50.2537 62.2646,-50.2537 62.2646,-50.2537 61.7902,-46.786 59.1437,-50.6806 61.3159,-43.3183 61.3159,-43.3183"/>
<text text-anchor="start" x="42" y="-96.298" font-family="Lato" font-size="12.00" fill="#000000">a &amp; b</text>
<text text-anchor="start" x="49" y="-83.298" font-family="Lato" font-size="12.00" fill="#1f78b4">⓿</text>
</g>
<!-- 0 -->
<g id="node3" class="node">
<title>0</title>
<ellipse fill="#ffffa0" stroke="#000000" cx="159" cy="-25.898" rx="18" ry="18"/>
<text text-anchor="middle" x="159" y="-22.798" font-family="Lato" font-size="12.00" fill="#000000">0</text>
</g>
<!-- 1&#45;&gt;0 -->
<g id="edge4" class="edge">
<title>1&#45;&gt;0</title>
<path fill="none" stroke="#000000" d="M73.9269,-27.6872C79.6914,-28.1834 86.1097,-28.653 92,-28.898 105.7659,-29.4706 109.2341,-29.4706 123,-28.898 126.5894,-28.7487 130.3749,-28.516 134.089,-28.2447"/>
<polygon fill="#000000" stroke="#000000" points="141.0731,-27.6872 134.346,-31.3843 137.5842,-27.9658 134.0953,-28.2443 134.0953,-28.2443 134.0953,-28.2443 137.5842,-27.9658 133.8446,-25.1043 141.0731,-27.6872 141.0731,-27.6872"/>
<text text-anchor="start" x="92" y="-32.298" font-family="Lato" font-size="12.00" fill="#000000">a &amp; !b</text>
</g>
<!-- 0&#45;&gt;1 -->
<g id="edge3" class="edge">
<title>0&#45;&gt;1</title>
<path fill="none" stroke="#000000" d="M144.8693,-14.2207C138.5789,-9.7542 130.8309,-5.186 123,-2.898 109.7751,.966 105.2249,.966 92,-2.898 86.4939,-4.5067 81.0288,-7.2428 76.0825,-10.2782"/>
<polygon fill="#000000" stroke="#000000" points="70.1307,-14.2207 74.2269,-7.7289 73.0486,-12.2879 75.9665,-10.355 75.9665,-10.355 75.9665,-10.355 73.0486,-12.2879 77.7061,-12.9811 70.1307,-14.2207 70.1307,-14.2207"/>
<text text-anchor="start" x="104" y="-19.298" font-family="Lato" font-size="12.00" fill="#000000">b</text>
<text text-anchor="start" x="100.5" y="-6.298" font-family="Lato" font-size="12.00" fill="#1f78b4">⓿</text>
</g>
<!-- 0&#45;&gt;0 -->
<g id="edge2" class="edge">
<title>0&#45;&gt;0</title>
<path fill="none" stroke="#000000" d="M150.3666,-41.814C148.1144,-52.0484 150.9922,-61.898 159,-61.898 165.131,-61.898 168.2548,-56.1243 168.3716,-48.8248"/>
<polygon fill="#000000" stroke="#000000" points="167.6334,-41.814 171.4992,-48.4456 168,-45.2948 168.3665,-48.7755 168.3665,-48.7755 168.3665,-48.7755 168,-45.2948 165.2338,-49.1054 167.6334,-41.814 167.6334,-41.814"/>
<text text-anchor="start" x="154" y="-65.298" font-family="Lato" font-size="12.00" fill="#000000">!b</text>
</g>
</g>
</svg>
