<?xml version="1.0" encoding="UTF-8" standalone="no"?>
<?xml-stylesheet href="spot.css" type="text/css"?>
<!DOCTYPE svg PUBLIC "-//W3C//DTD SVG 1.1//EN"
 "http://www.w3.org/Graphics/SVG/1.1/DTD/svg11.dtd">
<!-- Generated by graphviz version 2.40.1 (20161225.0304)
 -->
<!-- Title: (Xa &amp; Fb) | Gc Pages: 1 -->
<svg width="266pt" height="194pt"
 viewBox="0.00 0.00 266.00 194.00" xmlns="http://www.w3.org/2000/svg" xmlns:xlink="http://www.w3.org/1999/xlink">
<g id="graph0" class="graph" transform="scale(1 1) rotate(0) translate(4 190)">
<title>(Xa &amp; Fb) | Gc</title>
<polygon fill="#ffffff" stroke="transparent" points="-4,4 -4,-190 262,-190 262,4 -4,4"/>
<text text-anchor="start" x="126.5" y="-172.4" font-family="Lato" font-size="12.00" fill="#000000">t</text>
<text text-anchor="start" x="119" y="-159.4" font-family="Lato" font-size="12.00" fill="#000000">[all]</text>
<!-- I -->
<!-- 1 -->
<g id="node2" class="node">
<title>1</title>
<ellipse fill="#ffffa0" stroke="#000000" cx="56" cy="-76" rx="18" ry="18"/>
<text text-anchor="middle" x="56" y="-72.9" font-family="Lato" font-size="12.00" fill="#000000">1</text>
</g>
<!-- I&#45;&gt;1 -->
<g id="edge1" class="edge">
<title>I&#45;&gt;1</title>
<path fill="none" stroke="#000000" d="M1.1233,-76C4.178,-76 17.9448,-76 30.9241,-76"/>
<polygon fill="#000000" stroke="#000000" points="37.9807,-76 30.9808,-79.1501 34.4807,-76 30.9807,-76.0001 30.9807,-76.0001 30.9807,-76.0001 34.4807,-76 30.9807,-72.8501 37.9807,-76 37.9807,-76"/>
</g>
<!-- 3 -->
<g id="node4" class="node">
<title>3</title>
<ellipse fill="#ffffa0" stroke="#000000" cx="138" cy="-103" rx="18" ry="18"/>
<text text-anchor="middle" x="138" y="-99.9" font-family="Lato" font-size="12.00" fill="#000000">3</text>
</g>
<!-- 1&#45;&gt;3 -->
<g id="edge3" class="edge">
<title>1&#45;&gt;3</title>
<path fill="none" stroke="#000000" d="M73.3901,-81.726C85.1314,-85.5921 100.7915,-90.7484 113.7535,-95.0164"/>
<polygon fill="#000000" stroke="#000000" points="120.635,-97.2822 113.0009,-98.0849 117.3106,-96.1876 113.9861,-95.0929 113.9861,-95.0929 113.9861,-95.0929 117.3106,-96.1876 114.9713,-92.1009 120.635,-97.2822 120.635,-97.2822"/>
<text text-anchor="start" x="92" y="-94.4" font-family="Lato" font-size="12.00" fill="#000000">!c</text>
</g>
<!-- 4 -->
<g id="node5" class="node">
<title>4</title>
<ellipse fill="#ffffa0" stroke="#000000" cx="138" cy="-49" rx="18" ry="18"/>
<text text-anchor="middle" x="138" y="-45.9" font-family="Lato" font-size="12.00" fill="#000000">4</text>
</g>
<!-- 1&#45;&gt;4 -->
<g id="edge4" class="edge">
<title>1&#45;&gt;4</title>
<path fill="none" stroke="#000000" d="M73.3901,-70.274C85.1314,-66.4079 100.7915,-61.2516 113.7535,-56.9836"/>
<polygon fill="#000000" stroke="#000000" points="120.635,-54.7178 114.9713,-59.8991 117.3106,-55.8124 113.9861,-56.9071 113.9861,-56.9071 113.9861,-56.9071 117.3106,-55.8124 113.0009,-53.9151 120.635,-54.7178 120.635,-54.7178"/>
<text text-anchor="start" x="93.5" y="-67.4" font-family="Lato" font-size="12.00" fill="#000000">c</text>
</g>
<!-- 0 -->
<g id="node3" class="node">
<title>0</title>
<ellipse fill="#ffffa0" stroke="#000000" cx="240" cy="-18" rx="18" ry="18"/>
<text text-anchor="middle" x="240" y="-14.9" font-family="Lato" font-size="12.00" fill="#000000">0</text>
</g>
<!-- 0&#45;&gt;0 -->
<g id="edge2" class="edge">
<title>0&#45;&gt;0</title>
<path fill="none" stroke="#000000" d="M231.3666,-33.916C229.1144,-44.1504 231.9922,-54 240,-54 246.131,-54 249.2548,-48.2263 249.3716,-40.9268"/>
<polygon fill="#000000" stroke="#000000" points="248.6334,-33.916 252.4992,-40.5477 249,-37.3968 249.3665,-40.8775 249.3665,-40.8775 249.3665,-40.8775 249,-37.3968 246.2338,-41.2074 248.6334,-33.916 248.6334,-33.916"/>
<text text-anchor="start" x="236.5" y="-57.4" font-family="Lato" font-size="12.00" fill="#000000">c</text>
</g>
<!-- 2 -->
<g id="node6" class="node">
<title>2</title>
<ellipse fill="#ffffa0" stroke="#000000" cx="240" cy="-103" rx="18" ry="18"/>
<text text-anchor="middle" x="240" y="-99.9" font-family="Lato" font-size="12.00" fill="#000000">2</text>
</g>
<!-- 3&#45;&gt;2 -->
<g id="edge6" class="edge">
<title>3&#45;&gt;2</title>
<path fill="none" stroke="#000000" d="M156.2356,-103C172.4808,-103 196.4175,-103 214.5473,-103"/>
<polygon fill="#000000" stroke="#000000" points="221.9223,-103 214.9224,-106.1501 218.4223,-103 214.9223,-103.0001 214.9223,-103.0001 214.9223,-103.0001 218.4223,-103 214.9223,-99.8501 221.9223,-103 221.9223,-103"/>
<text text-anchor="start" x="185.5" y="-106.4" font-family="Lato" font-size="12.00" fill="#000000">a</text>
</g>
<!-- 4&#45;&gt;0 -->
<g id="edge7" class="edge">
<title>4&#45;&gt;0</title>
<path fill="none" stroke="#000000" d="M153.2259,-39.0219C159.4436,-35.3583 166.8454,-31.4997 174,-29 187.1091,-24.4199 202.3663,-21.7187 214.9073,-20.1404"/>
<polygon fill="#000000" stroke="#000000" points="221.9406,-19.3351 215.3444,-23.261 218.4633,-19.7333 214.986,-20.1314 214.986,-20.1314 214.986,-20.1314 218.4633,-19.7333 214.6276,-17.0019 221.9406,-19.3351 221.9406,-19.3351"/>
<text text-anchor="start" x="174" y="-32.4" font-family="Lato" font-size="12.00" fill="#000000">!a &amp; c</text>
</g>
<!-- 4&#45;&gt;2 -->
<g id="edge8" class="edge">
<title>4&#45;&gt;2</title>
<path fill="none" stroke="#000000" d="M153.9375,-57.4375C171.053,-66.4986 198.3799,-80.9658 217.6413,-91.163"/>
<polygon fill="#000000" stroke="#000000" points="223.8378,-94.4435 216.1774,-93.9522 220.7445,-92.8059 217.6513,-91.1683 217.6513,-91.1683 217.6513,-91.1683 220.7445,-92.8059 219.1251,-88.3843 223.8378,-94.4435 223.8378,-94.4435"/>
<text text-anchor="start" x="185.5" y="-85.4" font-family="Lato" font-size="12.00" fill="#000000">a</text>
</g>
<!-- 2&#45;&gt;2 -->
<g id="edge5" class="edge">
<title>2&#45;&gt;2</title>
<path fill="none" stroke="#000000" d="M231.3666,-118.916C229.1144,-129.1504 231.9922,-139 240,-139 246.131,-139 249.2548,-133.2263 249.3716,-125.9268"/>
<polygon fill="#000000" stroke="#000000" points="248.6334,-118.916 252.4992,-125.5477 249,-122.3968 249.3665,-125.8775 249.3665,-125.8775 249.3665,-125.8775 249,-122.3968 246.2338,-126.2074 248.6334,-118.916 248.6334,-118.916"/>
<text text-anchor="middle" x="240" y="-142.4" font-family="Lato" font-size="12.00" fill="#000000">1</text>
</g>
</g>
</svg>
