<?xml version="1.0" encoding="UTF-8" standalone="no"?>
<?xml-stylesheet href="spot.css" type="text/css"?>
<!DOCTYPE svg PUBLIC "-//W3C//DTD SVG 1.1//EN"
 "http://www.w3.org/Graphics/SVG/1.1/DTD/svg11.dtd">
<!-- Generated by graphviz version 2.40.1 (20161225.0304)
 -->
<!-- Title: (Xa &amp; Fb) | Gc Pages: 1 -->
<svg width="372pt" height="267pt"
 viewBox="0.00 0.00 372.00 266.84" xmlns="http://www.w3.org/2000/svg" xmlns:xlink="http://www.w3.org/1999/xlink">
<g id="graph0" class="graph" transform="scale(1 1) rotate(0) translate(4 262.8391)">
<title>(Xa &amp; Fb) | Gc</title>
<polygon fill="#ffffff" stroke="transparent" points="-4,4 -4,-262.8391 368,-262.8391 368,4 -4,4"/>
<text text-anchor="start" x="163" y="-232.2391" font-family="Lato" font-size="12.00" fill="#000000">[Büchi]</text>
<!-- I -->
<!-- 1 -->
<g id="node2" class="node">
<title>1</title>
<ellipse fill="#ffffa0" stroke="#000000" cx="60" cy="-98.4391" rx="18" ry="18"/>
<ellipse fill="none" stroke="#000000" cx="60" cy="-98.4391" rx="22" ry="22"/>
<text text-anchor="middle" x="60" y="-95.3391" font-family="Lato" font-size="12.00" fill="#000000">1</text>
</g>
<!-- I&#45;&gt;1 -->
<g id="edge1" class="edge">
<title>I&#45;&gt;1</title>
<path fill="none" stroke="#000000" d="M1.1682,-98.4391C4.2491,-98.4391 17.4946,-98.4391 30.6388,-98.4391"/>
<polygon fill="#000000" stroke="#000000" points="37.8655,-98.4391 30.8656,-101.5892 34.3655,-98.4391 30.8655,-98.4392 30.8655,-98.4392 30.8655,-98.4392 34.3655,-98.4391 30.8655,-95.2892 37.8655,-98.4391 37.8655,-98.4391"/>
</g>
<!-- 3 -->
<g id="node5" class="node">
<title>3</title>
<ellipse fill="#ffffa0" stroke="#000000" cx="150" cy="-141.4391" rx="18" ry="18"/>
<ellipse fill="none" stroke="#000000" cx="150" cy="-141.4391" rx="22" ry="22"/>
<text text-anchor="middle" x="150" y="-138.3391" font-family="Lato" font-size="12.00" fill="#000000">3</text>
</g>
<!-- 1&#45;&gt;3 -->
<g id="edge4" class="edge">
<title>1&#45;&gt;3</title>
<path fill="none" stroke="#000000" d="M79.9739,-107.9822C92.7911,-114.1059 109.5799,-122.1273 123.5056,-128.7806"/>
<polygon fill="#000000" stroke="#000000" points="130.0819,-131.9226 122.4078,-131.7471 126.9238,-130.4138 123.7658,-128.9049 123.7658,-128.9049 123.7658,-128.9049 126.9238,-130.4138 125.1238,-126.0626 130.0819,-131.9226 130.0819,-131.9226"/>
<text text-anchor="start" x="100" y="-123.8391" font-family="Lato" font-size="12.00" fill="#000000">!c</text>
</g>
<!-- 4 -->
<g id="node6" class="node">
<title>4</title>
<ellipse fill="#ffffa0" stroke="#000000" cx="150" cy="-67.4391" rx="18" ry="18"/>
<ellipse fill="none" stroke="#000000" cx="150" cy="-67.4391" rx="22" ry="22"/>
<text text-anchor="middle" x="150" y="-64.3391" font-family="Lato" font-size="12.00" fill="#000000">4</text>
</g>
<!-- 1&#45;&gt;4 -->
<g id="edge5" class="edge">
<title>1&#45;&gt;4</title>
<path fill="none" stroke="#000000" d="M80.874,-91.2491C93.1671,-87.0149 108.8705,-81.6059 122.2024,-77.0138"/>
<polygon fill="#000000" stroke="#000000" points="128.9274,-74.6974 123.3349,-79.9554 125.6182,-75.8373 122.309,-76.9771 122.309,-76.9771 122.309,-76.9771 125.6182,-75.8373 121.2831,-73.9989 128.9274,-74.6974 128.9274,-74.6974"/>
<text text-anchor="start" x="101.5" y="-86.8391" font-family="Lato" font-size="12.00" fill="#000000">c</text>
</g>
<!-- 0 -->
<g id="node3" class="node">
<title>0</title>
<ellipse fill="#ffffa0" stroke="#000000" cx="260" cy="-48.4391" rx="18" ry="18"/>
<ellipse fill="none" stroke="#000000" cx="260" cy="-48.4391" rx="22" ry="22"/>
<text text-anchor="middle" x="260" y="-45.3391" font-family="Lato" font-size="12.00" fill="#000000">0</text>
</g>
<!-- 0&#45;&gt;0 -->
<g id="edge2" class="edge">
<title>0&#45;&gt;0</title>
<path fill="none" stroke="#000000" d="M251.9937,-69.0199C250.8859,-79.2838 253.5547,-88.4391 260,-88.4391 264.834,-88.4391 267.5437,-83.2892 268.129,-76.3842"/>
<polygon fill="#000000" stroke="#000000" points="268.0063,-69.0199 271.2726,-75.9664 268.0647,-72.5194 268.123,-76.0189 268.123,-76.0189 268.123,-76.0189 268.0647,-72.5194 264.9735,-76.0714 268.0063,-69.0199 268.0063,-69.0199"/>
<text text-anchor="start" x="256.5" y="-91.8391" font-family="Lato" font-size="12.00" fill="#000000">c</text>
</g>
<!-- 5 -->
<g id="node4" class="node">
<title>5</title>
<ellipse fill="#ffffa0" stroke="#000000" cx="346" cy="-48.4391" rx="18" ry="18"/>
<text text-anchor="middle" x="346" y="-45.3391" font-family="Lato" font-size="12.00" fill="#000000">5</text>
</g>
<!-- 0&#45;&gt;5 -->
<g id="edge3" class="edge">
<title>0&#45;&gt;5</title>
<path fill="none" stroke="#000000" d="M282.1471,-48.4391C293.9344,-48.4391 308.48,-48.4391 320.7097,-48.4391"/>
<polygon fill="#000000" stroke="#000000" points="327.9798,-48.4391 320.9798,-51.5892 324.4798,-48.4391 320.9798,-48.4392 320.9798,-48.4392 320.9798,-48.4392 324.4798,-48.4391 320.9797,-45.2892 327.9798,-48.4391 327.9798,-48.4391"/>
<text text-anchor="start" x="300" y="-51.8391" font-family="Lato" font-size="12.00" fill="#000000">!c</text>
</g>
<!-- 5&#45;&gt;5 -->
<g id="edge12" class="edge">
<title>5&#45;&gt;5</title>
<path fill="none" stroke="#000000" d="M338.9688,-65.1031C337.4063,-75.0641 339.75,-84.4391 346,-84.4391 350.6875,-84.4391 353.1777,-79.1656 353.4707,-72.3266"/>
<polygon fill="#000000" stroke="#000000" points="353.0313,-65.1031 356.6006,-71.8989 353.2438,-68.5967 353.4564,-72.0902 353.4564,-72.0902 353.4564,-72.0902 353.2438,-68.5967 350.3122,-72.2815 353.0313,-65.1031 353.0313,-65.1031"/>
<text text-anchor="middle" x="346" y="-87.8391" font-family="Lato" font-size="12.00" fill="#000000">1</text>
</g>
<!-- 3&#45;&gt;5 -->
<g id="edge8" class="edge">
<title>3&#45;&gt;5</title>
<path fill="none" stroke="#000000" d="M165.0225,-158.2609C190.3537,-184.5482 242.648,-229.7651 282,-203.4391 325.4876,-174.3464 339.4581,-109.7122 343.9226,-73.7759"/>
<polygon fill="#000000" stroke="#000000" points="344.7382,-66.5662 347.0813,-73.8759 344.3448,-70.044 343.9513,-73.5218 343.9513,-73.5218 343.9513,-73.5218 344.3448,-70.044 340.8213,-73.1677 344.7382,-66.5662 344.7382,-66.5662"/>
<text text-anchor="start" x="255" y="-213.8391" font-family="Lato" font-size="12.00" fill="#000000">!a</text>
</g>
<!-- 2 -->
<g id="node7" class="node">
<title>2</title>
<ellipse fill="#ffffa0" stroke="#000000" cx="260" cy="-141.4391" rx="18" ry="18"/>
<ellipse fill="none" stroke="#000000" cx="260" cy="-141.4391" rx="22" ry="22"/>
<text text-anchor="middle" x="260" y="-138.3391" font-family="Lato" font-size="12.00" fill="#000000">2</text>
</g>
<!-- 3&#45;&gt;2 -->
<g id="edge7" class="edge">
<title>3&#45;&gt;2</title>
<path fill="none" stroke="#000000" d="M172.2601,-141.4391C189.1082,-141.4391 212.4006,-141.4391 230.7525,-141.4391"/>
<polygon fill="#000000" stroke="#000000" points="237.773,-141.4391 230.773,-144.5892 234.273,-141.4391 230.773,-141.4392 230.773,-141.4392 230.773,-141.4392 234.273,-141.4391 230.7729,-138.2892 237.773,-141.4391 237.773,-141.4391"/>
<text text-anchor="start" x="201.5" y="-144.8391" font-family="Lato" font-size="12.00" fill="#000000">a</text>
</g>
<!-- 4&#45;&gt;0 -->
<g id="edge9" class="edge">
<title>4&#45;&gt;0</title>
<path fill="none" stroke="#000000" d="M171.7325,-63.6853C188.7571,-60.7447 212.5935,-56.6275 231.2053,-53.4127"/>
<polygon fill="#000000" stroke="#000000" points="238.3127,-52.1851 231.951,-56.4806 234.8638,-52.7808 231.4148,-53.3766 231.4148,-53.3766 231.4148,-53.3766 234.8638,-52.7808 230.8786,-50.2725 238.3127,-52.1851 238.3127,-52.1851"/>
<text text-anchor="start" x="190" y="-63.8391" font-family="Lato" font-size="12.00" fill="#000000">!a &amp; c</text>
</g>
<!-- 4&#45;&gt;5 -->
<g id="edge11" class="edge">
<title>4&#45;&gt;5</title>
<path fill="none" stroke="#000000" d="M165.462,-51.6712C181.8169,-36.2203 209.1972,-13.6864 238,-4.4391 256.6195,1.5389 263.3245,1.3614 282,-4.4391 298.8204,-9.6633 315.1385,-21.012 327.0874,-30.8749"/>
<polygon fill="#000000" stroke="#000000" points="332.5854,-35.5639 325.2153,-33.4182 329.9224,-33.2927 327.2594,-31.0215 327.2594,-31.0215 327.2594,-31.0215 329.9224,-33.2927 329.3035,-28.6248 332.5854,-35.5639 332.5854,-35.5639"/>
<text text-anchor="start" x="243.5" y="-7.8391" font-family="Lato" font-size="12.00" fill="#000000">!a &amp; !c</text>
</g>
<!-- 4&#45;&gt;2 -->
<g id="edge10" class="edge">
<title>4&#45;&gt;2</title>
<path fill="none" stroke="#000000" d="M168.66,-79.9922C187.1024,-92.3989 215.4119,-111.4434 235.623,-125.04"/>
<polygon fill="#000000" stroke="#000000" points="241.6156,-129.0714 234.0492,-127.7777 238.7115,-127.1177 235.8075,-125.1641 235.8075,-125.1641 235.8075,-125.1641 238.7115,-127.1177 237.5658,-122.5504 241.6156,-129.0714 241.6156,-129.0714"/>
<text text-anchor="start" x="201.5" y="-115.8391" font-family="Lato" font-size="12.00" fill="#000000">a</text>
</g>
<!-- 2&#45;&gt;2 -->
<g id="edge6" class="edge">
<title>2&#45;&gt;2</title>
<path fill="none" stroke="#000000" d="M251.9937,-162.0199C250.8859,-172.2838 253.5547,-181.4391 260,-181.4391 264.834,-181.4391 267.5437,-176.2892 268.129,-169.3842"/>
<polygon fill="#000000" stroke="#000000" points="268.0063,-162.0199 271.2726,-168.9664 268.0647,-165.5194 268.123,-169.0189 268.123,-169.0189 268.123,-169.0189 268.0647,-165.5194 264.9735,-169.0714 268.0063,-162.0199 268.0063,-162.0199"/>
<text text-anchor="middle" x="260" y="-184.8391" font-family="Lato" font-size="12.00" fill="#000000">1</text>
</g>
</g>
</svg>
