<?xml version="1.0" encoding="UTF-8" standalone="no"?>
<?xml-stylesheet href="spot.css" type="text/css"?>
<!DOCTYPE svg PUBLIC "-//W3C//DTD SVG 1.1//EN"
 "http://www.w3.org/Graphics/SVG/1.1/DTD/svg11.dtd">
<!-- Generated by graphviz version 2.40.1 (20161225.0304)
 -->
<!-- Title: (Xa &amp; Fb) | Gc Pages: 1 -->
<svg width="240pt" height="194pt"
 viewBox="0.00 0.00 240.00 194.00" xmlns="http://www.w3.org/2000/svg" xmlns:xlink="http://www.w3.org/1999/xlink">
<g id="graph0" class="graph" transform="scale(1 1) rotate(0) translate(4 190)">
<title>(Xa &amp; Fb) | Gc</title>
<polygon fill="#ffffff" stroke="transparent" points="-4,4 -4,-190 236,-190 236,4 -4,4"/>
<text text-anchor="start" x="113.5" y="-172.4" font-family="Lato" font-size="12.00" fill="#000000">t</text>
<text text-anchor="start" x="106" y="-159.4" font-family="Lato" font-size="12.00" fill="#000000">[all]</text>
<!-- I -->
<!-- 0 -->
<g id="node2" class="node">
<title>0</title>
<ellipse fill="#ffffa0" stroke="#000000" cx="56" cy="-60" rx="18" ry="18"/>
<text text-anchor="middle" x="56" y="-56.9" font-family="Lato" font-size="12.00" fill="#000000">0</text>
</g>
<!-- I&#45;&gt;0 -->
<g id="edge1" class="edge">
<title>I&#45;&gt;0</title>
<path fill="none" stroke="#000000" d="M1.1233,-60C4.178,-60 17.9448,-60 30.9241,-60"/>
<polygon fill="#000000" stroke="#000000" points="37.9807,-60 30.9808,-63.1501 34.4807,-60 30.9807,-60.0001 30.9807,-60.0001 30.9807,-60.0001 34.4807,-60 30.9807,-56.8501 37.9807,-60 37.9807,-60"/>
</g>
<!-- 1 -->
<g id="node3" class="node">
<title>1</title>
<ellipse fill="#ffffa0" stroke="#000000" cx="135" cy="-103" rx="18" ry="18"/>
<text text-anchor="middle" x="135" y="-99.9" font-family="Lato" font-size="12.00" fill="#000000">1</text>
</g>
<!-- 0&#45;&gt;1 -->
<g id="edge2" class="edge">
<title>0&#45;&gt;1</title>
<path fill="none" stroke="#000000" d="M71.9868,-68.7017C83.6585,-75.0546 99.6365,-83.7515 112.5824,-90.798"/>
<polygon fill="#000000" stroke="#000000" points="119.0369,-94.3112 111.3827,-93.7314 115.9628,-92.638 112.8887,-90.9647 112.8887,-90.9647 112.8887,-90.9647 115.9628,-92.638 114.3946,-88.198 119.0369,-94.3112 119.0369,-94.3112"/>
<text text-anchor="middle" x="95.5" y="-86.4" font-family="Lato" font-size="12.00" fill="#000000">1</text>
</g>
<!-- 2 -->
<g id="node4" class="node">
<title>2</title>
<ellipse fill="#ffffa0" stroke="#000000" cx="135" cy="-18" rx="18" ry="18"/>
<text text-anchor="middle" x="135" y="-14.9" font-family="Lato" font-size="12.00" fill="#000000">2</text>
</g>
<!-- 0&#45;&gt;2 -->
<g id="edge3" class="edge">
<title>0&#45;&gt;2</title>
<path fill="none" stroke="#000000" d="M71.9868,-51.5007C83.6585,-45.2955 99.6365,-36.8008 112.5824,-29.9182"/>
<polygon fill="#000000" stroke="#000000" points="119.0369,-26.4867 114.3349,-32.5541 115.9465,-28.1297 112.8561,-29.7727 112.8561,-29.7727 112.8561,-29.7727 115.9465,-28.1297 111.3774,-26.9914 119.0369,-26.4867 119.0369,-26.4867"/>
<text text-anchor="start" x="92" y="-44.4" font-family="Lato" font-size="12.00" fill="#000000">c</text>
</g>
<!-- 3 -->
<g id="node5" class="node">
<title>3</title>
<ellipse fill="#ffffa0" stroke="#000000" cx="214" cy="-103" rx="18" ry="18"/>
<text text-anchor="middle" x="214" y="-99.9" font-family="Lato" font-size="12.00" fill="#000000">3</text>
</g>
<!-- 1&#45;&gt;3 -->
<g id="edge4" class="edge">
<title>1&#45;&gt;3</title>
<path fill="none" stroke="#000000" d="M153.3228,-103C163.7921,-103 177.0794,-103 188.5495,-103"/>
<polygon fill="#000000" stroke="#000000" points="195.7766,-103 188.7767,-106.1501 192.2766,-103 188.7766,-103.0001 188.7766,-103.0001 188.7766,-103.0001 192.2766,-103 188.7766,-99.8501 195.7766,-103 195.7766,-103"/>
<text text-anchor="start" x="171" y="-106.4" font-family="Lato" font-size="12.00" fill="#000000">a</text>
</g>
<!-- 2&#45;&gt;2 -->
<g id="edge5" class="edge">
<title>2&#45;&gt;2</title>
<path fill="none" stroke="#000000" d="M128.2664,-35.0373C126.8922,-44.8579 129.1367,-54 135,-54 139.3975,-54 141.7594,-48.8576 142.0858,-42.1433"/>
<polygon fill="#000000" stroke="#000000" points="141.7336,-35.0373 145.2263,-41.8728 141.9069,-38.533 142.0802,-42.0287 142.0802,-42.0287 142.0802,-42.0287 141.9069,-38.533 138.934,-42.1847 141.7336,-35.0373 141.7336,-35.0373"/>
<text text-anchor="start" x="131.5" y="-57.4" font-family="Lato" font-size="12.00" fill="#000000">c</text>
</g>
<!-- 3&#45;&gt;3 -->
<g id="edge6" class="edge">
<title>3&#45;&gt;3</title>
<path fill="none" stroke="#000000" d="M207.2664,-120.0373C205.8922,-129.8579 208.1367,-139 214,-139 218.3975,-139 220.7594,-133.8576 221.0858,-127.1433"/>
<polygon fill="#000000" stroke="#000000" points="220.7336,-120.0373 224.2263,-126.8728 220.9069,-123.533 221.0802,-127.0287 221.0802,-127.0287 221.0802,-127.0287 220.9069,-123.533 217.934,-127.1847 220.7336,-120.0373 220.7336,-120.0373"/>
<text text-anchor="middle" x="214" y="-142.4" font-family="Lato" font-size="12.00" fill="#000000">1</text>
</g>
</g>
</svg>
