<?xml version="1.0" encoding="UTF-8" standalone="no"?>
<!DOCTYPE svg PUBLIC "-//W3C//DTD SVG 1.1//EN"
 "http://www.w3.org/Graphics/SVG/1.1/DTD/svg11.dtd">
<!-- Generated by graphviz version 2.40.1 (20161225.0304)
 -->
<!-- Pages: 1 -->
<svg width="576pt" height="381pt"
 viewBox="0.00 0.00 576.00 381.00" xmlns="http://www.w3.org/2000/svg" xmlns:xlink="http://www.w3.org/1999/xlink">
<g id="graph0" class="graph" transform="scale(1 1) rotate(0) translate(4 377)">
<polygon fill="#ffffff" stroke="transparent" points="-4,4 -4,-377 572,-377 572,4 -4,4"/>
<text text-anchor="middle" x="284" y="-357.8" font-family="Times,serif" font-size="14.00" fill="#000000">(Inf(0)&amp;Inf(1)) &amp; Fin(2)</text>
<text text-anchor="middle" x="284" y="-342.8" font-family="Times,serif" font-size="14.00" fill="#000000">[Streett&#45;like 3]</text>
<g id="clust1" class="cluster">
<title>cluster_0</title>
<polygon fill="none" stroke="#c0c0c0" points="361,-163 361,-278 560,-278 560,-163 361,-163"/>
</g>
<g id="clust2" class="cluster">
<title>cluster_1</title>
<polygon fill="none" stroke="#c0c0c0" points="268,-179 268,-327 320,-327 320,-179 268,-179"/>
</g>
<g id="clust3" class="cluster">
<title>cluster_2</title>
<polygon fill="none" stroke="#00ff00" points="361,-8 361,-138 560,-138 560,-8 361,-8"/>
</g>
<g id="clust4" class="cluster">
<title>cluster_3</title>
<polygon fill="none" stroke="#00ff00" points="268,-23 268,-171 320,-171 320,-23 268,-23"/>
</g>
<g id="clust5" class="cluster">
<title>cluster_4</title>
<polygon fill="none" stroke="#000000" points="189,-83 189,-135 241,-135 241,-83 189,-83"/>
</g>
<g id="clust6" class="cluster">
<title>cluster_5</title>
<polygon fill="none" stroke="#ff0000" points="109.5,-83 109.5,-183 161.5,-183 161.5,-83 109.5,-83"/>
</g>
<g id="clust7" class="cluster">
<title>cluster_6</title>
<polygon fill="none" stroke="#00ff00" points="30,-191 30,-306 241,-306 241,-191 30,-191"/>
</g>
<!-- I -->
<!-- 1 -->
<g id="node2" class="node">
<title>1</title>
<ellipse fill="none" stroke="#000000" cx="56" cy="-217" rx="18" ry="18"/>
<text text-anchor="middle" x="56" y="-213.3" font-family="Times,serif" font-size="14.00" fill="#000000">1</text>
</g>
<!-- I&#45;&gt;1 -->
<g id="edge1" class="edge">
<title>I&#45;&gt;1</title>
<path fill="none" stroke="#000000" d="M1.1233,-217C3.9234,-217 15.7247,-217 27.6695,-217"/>
<polygon fill="#000000" stroke="#000000" points="27.9808,-220.5001 37.9807,-217 27.9807,-213.5001 27.9808,-220.5001"/>
</g>
<!-- 4 -->
<g id="node10" class="node">
<title>4</title>
<ellipse fill="none" stroke="#000000" cx="135.5" cy="-109" rx="18" ry="18"/>
<text text-anchor="middle" x="135.5" y="-105.3" font-family="Times,serif" font-size="14.00" fill="#000000">4</text>
</g>
<!-- 1&#45;&gt;4 -->
<g id="edge5" class="edge">
<title>1&#45;&gt;4</title>
<path fill="none" stroke="#000000" d="M66.7217,-202.4346C80.0575,-184.3182 102.9777,-153.1812 118.6657,-131.8692"/>
<polygon fill="#000000" stroke="#000000" points="121.5847,-133.8078 124.6942,-123.6795 115.9473,-129.658 121.5847,-133.8078"/>
<text text-anchor="middle" x="95.5" y="-169.8" font-family="Times,serif" font-size="14.00" fill="#000000">b</text>
</g>
<!-- 3 -->
<g id="node11" class="node">
<title>3</title>
<ellipse fill="none" stroke="#000000" cx="215" cy="-243" rx="18" ry="18"/>
<text text-anchor="middle" x="215" y="-239.3" font-family="Times,serif" font-size="14.00" fill="#000000">3</text>
</g>
<!-- 1&#45;&gt;3 -->
<g id="edge6" class="edge">
<title>1&#45;&gt;3</title>
<path fill="none" stroke="#000000" d="M73.9952,-218.8958C95.0553,-221.2281 130.9405,-225.5562 161.5,-231 169.9343,-232.5025 179.0506,-234.4317 187.327,-236.3019"/>
<polygon fill="#000000" stroke="#000000" points="186.7143,-239.7526 197.2466,-238.6026 188.296,-232.9336 186.7143,-239.7526"/>
<text text-anchor="middle" x="135.5" y="-234.8" font-family="Times,serif" font-size="14.00" fill="#000000">a &amp; !b</text>
</g>
<!-- 5 -->
<g id="node3" class="node">
<title>5</title>
<ellipse fill="none" stroke="#000000" cx="387" cy="-205" rx="18" ry="18"/>
<text text-anchor="middle" x="387" y="-201.3" font-family="Times,serif" font-size="14.00" fill="#000000">5</text>
</g>
<!-- 6 -->
<g id="node4" class="node">
<title>6</title>
<ellipse fill="none" stroke="#000000" cx="534" cy="-221" rx="18" ry="18"/>
<text text-anchor="middle" x="534" y="-217.3" font-family="Times,serif" font-size="14.00" fill="#000000">6</text>
</g>
<!-- 5&#45;&gt;6 -->
<g id="edge12" class="edge">
<title>5&#45;&gt;6</title>
<path fill="none" stroke="#000000" d="M405.1114,-202.7047C423.76,-200.7847 453.5996,-198.9493 479,-203 488.5154,-204.5175 498.6205,-207.4243 507.538,-210.4664"/>
<polygon fill="#000000" stroke="#000000" points="506.4125,-213.7812 517.0067,-213.8918 508.7938,-207.1986 506.4125,-213.7812"/>
<text text-anchor="middle" x="460.5" y="-221.8" font-family="Times,serif" font-size="14.00" fill="#000000">1</text>
<text text-anchor="middle" x="460.5" y="-206.8" font-family="Times,serif" font-size="14.00" fill="#000000">{1}</text>
</g>
<!-- 6&#45;&gt;5 -->
<g id="edge13" class="edge">
<title>6&#45;&gt;5</title>
<path fill="none" stroke="#000000" d="M516.8472,-226.9231C498.2197,-232.5044 467.6875,-239.1623 442,-233 431.2162,-230.413 420.162,-225.3411 410.8188,-220.2164"/>
<polygon fill="#000000" stroke="#000000" points="412.5245,-217.1596 402.1192,-215.1641 409.009,-223.2128 412.5245,-217.1596"/>
<text text-anchor="middle" x="460.5" y="-238.8" font-family="Times,serif" font-size="14.00" fill="#000000">1</text>
</g>
<!-- 0 -->
<g id="node5" class="node">
<title>0</title>
<ellipse fill="none" stroke="#000000" cx="294" cy="-205" rx="18" ry="18"/>
<text text-anchor="middle" x="294" y="-201.3" font-family="Times,serif" font-size="14.00" fill="#000000">0</text>
</g>
<!-- 0&#45;&gt;5 -->
<g id="edge4" class="edge">
<title>0&#45;&gt;5</title>
<path fill="none" stroke="#000000" d="M312.3738,-205C325.5788,-205 343.631,-205 358.6726,-205"/>
<polygon fill="#000000" stroke="#000000" points="358.9808,-208.5001 368.9808,-205 358.9808,-201.5001 358.9808,-208.5001"/>
<text text-anchor="middle" x="340.5" y="-223.8" font-family="Times,serif" font-size="14.00" fill="#000000">a</text>
<text text-anchor="middle" x="340.5" y="-208.8" font-family="Times,serif" font-size="14.00" fill="#000000">{2}</text>
</g>
<!-- 0&#45;&gt;0 -->
<g id="edge2" class="edge">
<title>0&#45;&gt;0</title>
<path fill="none" stroke="#000000" d="M290.5845,-222.7817C290.0041,-232.3149 291.1426,-241 294,-241 295.7412,-241 296.8442,-237.7749 297.3088,-233.0981"/>
<polygon fill="#000000" stroke="#000000" points="300.8118,-232.8174 297.4155,-222.7817 293.8122,-232.745 300.8118,-232.8174"/>
<text text-anchor="middle" x="294" y="-259.8" font-family="Times,serif" font-size="14.00" fill="#000000">a &amp; b</text>
<text text-anchor="middle" x="294" y="-244.8" font-family="Times,serif" font-size="14.00" fill="#000000">{0,1,2}</text>
</g>
<!-- 0&#45;&gt;0 -->
<g id="edge3" class="edge">
<title>0&#45;&gt;0</title>
<path fill="none" stroke="#000000" d="M288.7693,-222.249C285.0572,-243.4346 286.8008,-271 294,-271 300.1025,-271 302.2849,-251.1937 300.5474,-232.2557"/>
<polygon fill="#000000" stroke="#000000" points="304.0054,-231.7069 299.2307,-222.249 297.0653,-232.6202 304.0054,-231.7069"/>
<text text-anchor="middle" x="294" y="-289.8" font-family="Times,serif" font-size="14.00" fill="#000000">!a &amp; !b</text>
<text text-anchor="middle" x="294" y="-274.8" font-family="Times,serif" font-size="14.00" fill="#000000">{2}</text>
</g>
<!-- 8 -->
<g id="node6" class="node">
<title>8</title>
<ellipse fill="none" stroke="#000000" cx="387" cy="-49" rx="18" ry="18"/>
<text text-anchor="middle" x="387" y="-45.3" font-family="Times,serif" font-size="14.00" fill="#000000">8</text>
</g>
<!-- 8&#45;&gt;8 -->
<g id="edge17" class="edge">
<title>8&#45;&gt;8</title>
<path fill="none" stroke="#000000" d="M380.6208,-66.0373C379.3189,-75.8579 381.4453,-85 387,-85 390.4717,-85 392.6042,-81.4289 393.3975,-76.3529"/>
<polygon fill="#000000" stroke="#000000" points="396.8971,-76.031 393.3792,-66.0373 389.8971,-76.0435 396.8971,-76.031"/>
<text text-anchor="middle" x="387" y="-103.8" font-family="Times,serif" font-size="14.00" fill="#000000">!a &amp; b</text>
<text text-anchor="middle" x="387" y="-88.8" font-family="Times,serif" font-size="14.00" fill="#000000">{0,2}</text>
</g>
<!-- 9 -->
<g id="node7" class="node">
<title>9</title>
<ellipse fill="none" stroke="#000000" cx="534" cy="-49" rx="18" ry="18"/>
<text text-anchor="middle" x="534" y="-45.3" font-family="Times,serif" font-size="14.00" fill="#000000">9</text>
</g>
<!-- 8&#45;&gt;9 -->
<g id="edge18" class="edge">
<title>8&#45;&gt;9</title>
<path fill="none" stroke="#000000" d="M405.3322,-48.5833C416.0263,-48.3611 429.7763,-48.1111 442,-48 458.4438,-47.8505 462.5562,-47.8505 479,-48 487.5948,-48.0781 496.9442,-48.2249 505.4553,-48.3824"/>
<polygon fill="#000000" stroke="#000000" points="505.6009,-51.8859 515.6678,-48.5833 505.7386,-44.8872 505.6009,-51.8859"/>
<text text-anchor="middle" x="460.5" y="-66.8" font-family="Times,serif" font-size="14.00" fill="#000000">a &amp; b</text>
<text text-anchor="middle" x="460.5" y="-51.8" font-family="Times,serif" font-size="14.00" fill="#000000">{0,1}</text>
</g>
<!-- 9&#45;&gt;8 -->
<g id="edge19" class="edge">
<title>9&#45;&gt;8</title>
<path fill="none" stroke="#000000" d="M518.933,-59.5232C508.313,-66.2738 493.4603,-74.4212 479,-78 463.0372,-81.9506 457.9628,-81.9506 442,-78 431.1547,-75.3159 420.0888,-70.062 410.7534,-64.7548"/>
<polygon fill="#000000" stroke="#000000" points="412.4391,-61.6843 402.067,-59.5232 408.8275,-67.6808 412.4391,-61.6843"/>
<text text-anchor="middle" x="460.5" y="-98.8" font-family="Times,serif" font-size="14.00" fill="#000000">!a &amp; b</text>
<text text-anchor="middle" x="460.5" y="-83.8" font-family="Times,serif" font-size="14.00" fill="#000000">{0,1}</text>
</g>
<!-- 9&#45;&gt;9 -->
<g id="edge20" class="edge">
<title>9&#45;&gt;9</title>
<path fill="none" stroke="#000000" d="M527.6208,-66.0373C526.3189,-75.8579 528.4453,-85 534,-85 537.4717,-85 539.6042,-81.4289 540.3975,-76.3529"/>
<polygon fill="#000000" stroke="#000000" points="543.8971,-76.031 540.3792,-66.0373 536.8971,-76.0435 543.8971,-76.031"/>
<text text-anchor="middle" x="534" y="-103.8" font-family="Times,serif" font-size="14.00" fill="#000000">a &amp; b</text>
<text text-anchor="middle" x="534" y="-88.8" font-family="Times,serif" font-size="14.00" fill="#000000">{0,2}</text>
</g>
<!-- 7 -->
<g id="node8" class="node">
<title>7</title>
<ellipse fill="none" stroke="#000000" cx="294" cy="-49" rx="18" ry="18"/>
<text text-anchor="middle" x="294" y="-45.3" font-family="Times,serif" font-size="14.00" fill="#000000">7</text>
</g>
<!-- 7&#45;&gt;8 -->
<g id="edge16" class="edge">
<title>7&#45;&gt;8</title>
<path fill="none" stroke="#000000" d="M312.3738,-49C325.5788,-49 343.631,-49 358.6726,-49"/>
<polygon fill="#000000" stroke="#000000" points="358.9808,-52.5001 368.9808,-49 358.9808,-45.5001 358.9808,-52.5001"/>
<text text-anchor="middle" x="340.5" y="-52.8" font-family="Times,serif" font-size="14.00" fill="#000000">1</text>
</g>
<!-- 7&#45;&gt;7 -->
<g id="edge14" class="edge">
<title>7&#45;&gt;7</title>
<path fill="none" stroke="#000000" d="M290.5845,-66.7817C290.0041,-76.3149 291.1426,-85 294,-85 295.7412,-85 296.8442,-81.7749 297.3088,-77.0981"/>
<polygon fill="#000000" stroke="#000000" points="300.8118,-76.8174 297.4155,-66.7817 293.8122,-76.745 300.8118,-76.8174"/>
<text text-anchor="middle" x="294" y="-103.8" font-family="Times,serif" font-size="14.00" fill="#000000">!a &amp; b</text>
<text text-anchor="middle" x="294" y="-88.8" font-family="Times,serif" font-size="14.00" fill="#000000">{0,2}</text>
</g>
<!-- 7&#45;&gt;7 -->
<g id="edge15" class="edge">
<title>7&#45;&gt;7</title>
<path fill="none" stroke="#000000" d="M288.7693,-66.249C285.0572,-87.4346 286.8008,-115 294,-115 300.1025,-115 302.2849,-95.1937 300.5474,-76.2557"/>
<polygon fill="#000000" stroke="#000000" points="304.0054,-75.7069 299.2307,-66.249 297.0653,-76.6202 304.0054,-75.7069"/>
<text text-anchor="middle" x="294" y="-133.8" font-family="Times,serif" font-size="14.00" fill="#000000">a &amp; b</text>
<text text-anchor="middle" x="294" y="-118.8" font-family="Times,serif" font-size="14.00" fill="#000000">{0,1}</text>
</g>
<!-- 2 -->
<g id="node9" class="node">
<title>2</title>
<ellipse fill="none" stroke="#000000" cx="215" cy="-109" rx="18" ry="18"/>
<text text-anchor="middle" x="215" y="-105.3" font-family="Times,serif" font-size="14.00" fill="#000000">2</text>
</g>
<!-- 2&#45;&gt;0 -->
<g id="edge7" class="edge">
<title>2&#45;&gt;0</title>
<path fill="none" stroke="#000000" d="M226.2203,-123.2867C236.845,-136.7396 253.3132,-157.3973 268,-175 270.3222,-177.7833 272.7877,-180.6892 275.2395,-183.5498"/>
<polygon fill="#000000" stroke="#000000" points="272.796,-186.0752 281.9829,-191.3527 278.0923,-181.4981 272.796,-186.0752"/>
<text text-anchor="middle" x="254.5" y="-165.8" font-family="Times,serif" font-size="14.00" fill="#000000">a</text>
</g>
<!-- 2&#45;&gt;7 -->
<g id="edge8" class="edge">
<title>2&#45;&gt;7</title>
<path fill="none" stroke="#000000" d="M229.4898,-97.9951C241.1827,-89.1144 257.8427,-76.4612 271.3031,-66.2382"/>
<polygon fill="#000000" stroke="#000000" points="273.7554,-68.7707 279.602,-59.9352 269.5215,-63.1962 273.7554,-68.7707"/>
<text text-anchor="middle" x="254.5" y="-83.8" font-family="Times,serif" font-size="14.00" fill="#000000">b</text>
</g>
<!-- 4&#45;&gt;2 -->
<g id="edge11" class="edge">
<title>4&#45;&gt;2</title>
<path fill="none" stroke="#000000" d="M153.5398,-109C163.33,-109 175.6547,-109 186.6927,-109"/>
<polygon fill="#000000" stroke="#000000" points="186.7565,-112.5001 196.7564,-109 186.7564,-105.5001 186.7565,-112.5001"/>
<text text-anchor="middle" x="175.5" y="-112.8" font-family="Times,serif" font-size="14.00" fill="#000000">b</text>
</g>
<!-- 4&#45;&gt;4 -->
<g id="edge10" class="edge">
<title>4&#45;&gt;4</title>
<path fill="none" stroke="#000000" d="M128.4688,-125.6641C126.9063,-135.625 129.25,-145 135.5,-145 139.5039,-145 141.9047,-141.1525 142.7023,-135.7682"/>
<polygon fill="#000000" stroke="#000000" points="146.2001,-135.6033 142.5313,-125.6641 139.2011,-135.7219 146.2001,-135.6033"/>
<text text-anchor="middle" x="135.5" y="-163.8" font-family="Times,serif" font-size="14.00" fill="#000000">!b</text>
<text text-anchor="middle" x="135.5" y="-148.8" font-family="Times,serif" font-size="14.00" fill="#000000">{1,2}</text>
</g>
<!-- 3&#45;&gt;1 -->
<g id="edge9" class="edge">
<title>3&#45;&gt;1</title>
<path fill="none" stroke="#000000" d="M197.128,-246.4414C175.8793,-249.8664 139.5163,-253.6121 109.5,-246 99.0112,-243.3401 88.3515,-238.1665 79.3367,-232.9165"/>
<polygon fill="#000000" stroke="#000000" points="80.9593,-229.8047 70.6138,-227.5199 77.2764,-235.7576 80.9593,-229.8047"/>
<text text-anchor="middle" x="135.5" y="-268.8" font-family="Times,serif" font-size="14.00" fill="#000000">a &amp; b</text>
<text text-anchor="middle" x="135.5" y="-253.8" font-family="Times,serif" font-size="14.00" fill="#000000">{0,1}</text>
</g>
</g>
</svg>
