<?xml version="1.0" encoding="UTF-8" standalone="no"?>
<!DOCTYPE svg PUBLIC "-//W3C//DTD SVG 1.1//EN"
 "http://www.w3.org/Graphics/SVG/1.1/DTD/svg11.dtd">
<!-- Generated by graphviz version 2.40.1 (20161225.0304)
 -->
<!-- Title: (Gb | F!a) W c Pages: 1 -->
<svg width="401pt" height="245pt"
 viewBox="0.00 0.00 401.00 245.00" xmlns="http://www.w3.org/2000/svg" xmlns:xlink="http://www.w3.org/1999/xlink">
<g id="graph0" class="graph" transform="scale(1 1) rotate(0) translate(4 241)">
<title>(Gb | F!a) W c</title>
<polygon fill="#ffffff" stroke="transparent" points="-4,4 -4,-241 397,-241 397,4 -4,4"/>
<text text-anchor="middle" x="196.5" y="-221.8" font-family="Times,serif" font-size="14.00" fill="#000000">Inf(0)</text>
<text text-anchor="middle" x="196.5" y="-206.8" font-family="Times,serif" font-size="14.00" fill="#000000">[Büchi]</text>
<!-- I -->
<!-- 0 -->
<g id="node2" class="node">
<title>0</title>
<ellipse fill="none" stroke="#000000" cx="56" cy="-88" rx="18" ry="18"/>
<text text-anchor="middle" x="56" y="-84.3" font-family="Times,serif" font-size="14.00" fill="#000000">0</text>
</g>
<!-- I&#45;&gt;0 -->
<g id="edge1" class="edge">
<title>I&#45;&gt;0</title>
<path fill="none" stroke="#000000" d="M1.1233,-88C3.9234,-88 15.7247,-88 27.6695,-88"/>
<polygon fill="#000000" stroke="#000000" points="27.9808,-91.5001 37.9807,-88 27.9807,-84.5001 27.9808,-91.5001"/>
</g>
<!-- 0&#45;&gt;0 -->
<g id="edge2" class="edge">
<title>0&#45;&gt;0</title>
<path fill="none" stroke="#000000" d="M49.6208,-105.0373C48.3189,-114.8579 50.4453,-124 56,-124 59.4717,-124 61.6042,-120.4289 62.3975,-115.3529"/>
<polygon fill="#000000" stroke="#000000" points="65.8971,-115.031 62.3792,-105.0373 58.8971,-115.0435 65.8971,-115.031"/>
<text text-anchor="middle" x="56" y="-142.8" font-family="Times,serif" font-size="14.00" fill="#000000">!a &amp; !c</text>
<text text-anchor="middle" x="56" y="-127.8" font-family="Times,serif" font-size="14.00" fill="#000000">{0}</text>
</g>
<!-- 1 -->
<g id="node3" class="node">
<title>1</title>
<ellipse fill="none" stroke="#000000" cx="375" cy="-105" rx="18" ry="18"/>
<text text-anchor="middle" x="375" y="-101.3" font-family="Times,serif" font-size="14.00" fill="#000000">1</text>
</g>
<!-- 0&#45;&gt;1 -->
<g id="edge3" class="edge">
<title>0&#45;&gt;1</title>
<path fill="none" stroke="#000000" d="M67.6213,-102.0923C86.5791,-123.8298 126.5347,-164.635 171,-180 237.6965,-203.047 315.8099,-152.4002 353.0689,-123.4275"/>
<polygon fill="#000000" stroke="#000000" points="355.5822,-125.8998 361.2153,-116.9265 351.2159,-120.4284 355.5822,-125.8998"/>
<text text-anchor="middle" x="240.5" y="-187.8" font-family="Times,serif" font-size="14.00" fill="#000000">c</text>
</g>
<!-- 2 -->
<g id="node4" class="node">
<title>2</title>
<ellipse fill="none" stroke="#000000" cx="189" cy="-105" rx="18" ry="18"/>
<text text-anchor="middle" x="189" y="-101.3" font-family="Times,serif" font-size="14.00" fill="#000000">2</text>
</g>
<!-- 0&#45;&gt;2 -->
<g id="edge4" class="edge">
<title>0&#45;&gt;2</title>
<path fill="none" stroke="#000000" d="M73.937,-90.2927C96.2471,-93.1444 134.5917,-98.0456 160.837,-101.4002"/>
<polygon fill="#000000" stroke="#000000" points="160.5594,-104.8931 170.9224,-102.6893 161.4469,-97.9496 160.5594,-104.8931"/>
<text text-anchor="middle" x="122.5" y="-102.8" font-family="Times,serif" font-size="14.00" fill="#000000">a &amp; b &amp; !c</text>
</g>
<!-- 3 -->
<g id="node5" class="node">
<title>3</title>
<ellipse fill="none" stroke="#000000" cx="189" cy="-18" rx="18" ry="18"/>
<text text-anchor="middle" x="189" y="-14.3" font-family="Times,serif" font-size="14.00" fill="#000000">3</text>
</g>
<!-- 0&#45;&gt;3 -->
<g id="edge5" class="edge">
<title>0&#45;&gt;3</title>
<path fill="none" stroke="#000000" d="M72.8374,-81.5381C96.66,-72.2845 138.8784,-55.4459 153,-47 157.9936,-44.0134 163.0462,-40.3925 167.7237,-36.7361"/>
<polygon fill="#000000" stroke="#000000" points="170.1281,-39.291 175.6447,-30.2457 165.6914,-33.8765 170.1281,-39.291"/>
<text text-anchor="middle" x="122.5" y="-76.8" font-family="Times,serif" font-size="14.00" fill="#000000">a &amp; !c</text>
</g>
<!-- 1&#45;&gt;1 -->
<g id="edge6" class="edge">
<title>1&#45;&gt;1</title>
<path fill="none" stroke="#000000" d="M367.9688,-121.6641C366.4063,-131.625 368.75,-141 375,-141 379.0039,-141 381.4047,-137.1525 382.2023,-131.7682"/>
<polygon fill="#000000" stroke="#000000" points="385.7001,-131.6033 382.0313,-121.6641 378.7011,-131.7219 385.7001,-131.6033"/>
<text text-anchor="middle" x="375" y="-159.8" font-family="Times,serif" font-size="14.00" fill="#000000">1</text>
<text text-anchor="middle" x="375" y="-144.8" font-family="Times,serif" font-size="14.00" fill="#000000">{0}</text>
</g>
<!-- 2&#45;&gt;2 -->
<g id="edge7" class="edge">
<title>2&#45;&gt;2</title>
<path fill="none" stroke="#000000" d="M180.3666,-120.916C178.1144,-131.1504 180.9922,-141 189,-141 194.2551,-141 197.3009,-136.7581 198.1375,-130.9494"/>
<polygon fill="#000000" stroke="#000000" points="201.6308,-130.7278 197.6334,-120.916 194.6396,-131.0791 201.6308,-130.7278"/>
<text text-anchor="middle" x="189" y="-159.8" font-family="Times,serif" font-size="14.00" fill="#000000">b</text>
<text text-anchor="middle" x="189" y="-144.8" font-family="Times,serif" font-size="14.00" fill="#000000">{0}</text>
</g>
<!-- 3&#45;&gt;0 -->
<g id="edge8" class="edge">
<title>3&#45;&gt;0</title>
<path fill="none" stroke="#000000" d="M172.0918,-11.6334C151.4865,-5.033 116.4056,2.3568 92,-13 75.6001,-23.3194 66.5024,-43.42 61.5572,-60.2162"/>
<polygon fill="#000000" stroke="#000000" points="58.1086,-59.5719 58.9866,-70.1303 64.8845,-61.3288 58.1086,-59.5719"/>
<text text-anchor="middle" x="122.5" y="-31.8" font-family="Times,serif" font-size="14.00" fill="#000000">!a &amp; !c</text>
<text text-anchor="middle" x="122.5" y="-16.8" font-family="Times,serif" font-size="14.00" fill="#000000">{0}</text>
</g>
<!-- 3&#45;&gt;1 -->
<g id="edge9" class="edge">
<title>3&#45;&gt;1</title>
<path fill="none" stroke="#000000" d="M202.7717,-30.0749C218.8331,-43.5722 246.6815,-65.2076 274,-78 297.516,-89.0118 326.291,-96.148 347.1031,-100.3014"/>
<polygon fill="#000000" stroke="#000000" points="346.7148,-103.7899 357.1906,-102.2062 348.0137,-96.9114 346.7148,-103.7899"/>
<text text-anchor="middle" x="292" y="-94.8" font-family="Times,serif" font-size="14.00" fill="#000000">!a &amp; c</text>
</g>
<!-- 3&#45;&gt;3 -->
<g id="edge10" class="edge">
<title>3&#45;&gt;3</title>
<path fill="none" stroke="#000000" d="M180.3666,-33.916C178.1144,-44.1504 180.9922,-54 189,-54 194.2551,-54 197.3009,-49.7581 198.1375,-43.9494"/>
<polygon fill="#000000" stroke="#000000" points="201.6308,-43.7278 197.6334,-33.916 194.6396,-44.0791 201.6308,-43.7278"/>
<text text-anchor="middle" x="189" y="-57.8" font-family="Times,serif" font-size="14.00" fill="#000000">a &amp; !c</text>
</g>
<!-- 4 -->
<g id="node6" class="node">
<title>4</title>
<ellipse fill="none" stroke="#000000" cx="292" cy="-18" rx="18" ry="18"/>
<text text-anchor="middle" x="292" y="-14.3" font-family="Times,serif" font-size="14.00" fill="#000000">4</text>
</g>
<!-- 3&#45;&gt;4 -->
<g id="edge11" class="edge">
<title>3&#45;&gt;4</title>
<path fill="none" stroke="#000000" d="M207.4143,-18C223.0132,-18 245.635,-18 263.5599,-18"/>
<polygon fill="#000000" stroke="#000000" points="263.7451,-21.5001 273.7451,-18 263.7451,-14.5001 263.7451,-21.5001"/>
<text text-anchor="middle" x="240.5" y="-21.8" font-family="Times,serif" font-size="14.00" fill="#000000">a &amp; c</text>
</g>
<!-- 4&#45;&gt;1 -->
<g id="edge12" class="edge">
<title>4&#45;&gt;1</title>
<path fill="none" stroke="#000000" d="M304.6059,-31.2134C318.0903,-45.3477 339.6544,-67.951 355.3658,-84.4195"/>
<polygon fill="#000000" stroke="#000000" points="353.1122,-87.1278 362.5474,-91.9473 358.177,-82.2958 353.1122,-87.1278"/>
<text text-anchor="middle" x="333.5" y="-69.8" font-family="Times,serif" font-size="14.00" fill="#000000">!a</text>
</g>
<!-- 4&#45;&gt;4 -->
<g id="edge13" class="edge">
<title>4&#45;&gt;4</title>
<path fill="none" stroke="#000000" d="M284.9688,-34.6641C283.4063,-44.625 285.75,-54 292,-54 296.0039,-54 298.4047,-50.1525 299.2023,-44.7682"/>
<polygon fill="#000000" stroke="#000000" points="302.7001,-44.6033 299.0313,-34.6641 295.7011,-44.7219 302.7001,-44.6033"/>
<text text-anchor="middle" x="292" y="-57.8" font-family="Times,serif" font-size="14.00" fill="#000000">a</text>
</g>
</g>
</svg>
