<?xml version="1.0" encoding="UTF-8" standalone="no"?>
<!DOCTYPE svg PUBLIC "-//W3C//DTD SVG 1.1//EN"
 "http://www.w3.org/Graphics/SVG/1.1/DTD/svg11.dtd">
<!-- Generated by graphviz version 2.40.1 (20161225.0304)
 -->
<!-- Title: (Gb | F!a) W c Pages: 1 -->
<svg width="301pt" height="485pt"
 viewBox="0.00 0.00 301.00 485.00" xmlns="http://www.w3.org/2000/svg" xmlns:xlink="http://www.w3.org/1999/xlink">
<g id="graph0" class="graph" transform="scale(1 1) rotate(0) translate(4 481)">
<title>(Gb | F!a) W c</title>
<polygon fill="#ffffff" stroke="transparent" points="-4,4 -4,-481 297,-481 297,4 -4,4"/>
<text text-anchor="middle" x="146.5" y="-461.8" font-family="Times,serif" font-size="14.00" fill="#000000">(Gb | F!a) W c</text>
<text text-anchor="middle" x="146.5" y="-446.8" font-family="Times,serif" font-size="14.00" fill="#000000">Inf(0)</text>
<text text-anchor="middle" x="146.5" y="-431.8" font-family="Times,serif" font-size="14.00" fill="#000000">[Büchi]</text>
<g id="clust1" class="cluster">
<title>cluster_0</title>
<polygon fill="none" stroke="#00ff00" points="77,-8 77,-60 168,-60 168,-8 77,-8"/>
</g>
<g id="clust2" class="cluster">
<title>cluster_1</title>
<polygon fill="none" stroke="#00ff00" points="194,-255 194,-307 285,-307 285,-255 194,-255"/>
</g>
<g id="clust3" class="cluster">
<title>cluster_2</title>
<polygon fill="none" stroke="#ff0000" points="77,-95 77,-147 154,-147 154,-95 77,-95"/>
</g>
<g id="clust4" class="cluster">
<title>cluster_3</title>
<polygon fill="none" stroke="#00ff00" points="8,-182 8,-394 154,-394 154,-182 8,-182"/>
</g>
<!-- I -->
<!-- 0 -->
<g id="node2" class="node">
<title>0</title>
<ellipse fill="none" stroke="#000000" cx="70" cy="-368" rx="18" ry="18"/>
<text text-anchor="middle" x="70" y="-364.3" font-family="Times,serif" font-size="14.00" fill="#000000">0</text>
</g>
<!-- I&#45;&gt;0 -->
<g id="edge1" class="edge">
<title>I&#45;&gt;0</title>
<path fill="none" stroke="#000000" d="M70,-422.8767C70,-420.0766 70,-408.2753 70,-396.3305"/>
<polygon fill="#000000" stroke="#000000" points="73.5001,-396.0192 70,-386.0193 66.5001,-396.0193 73.5001,-396.0192"/>
</g>
<!-- 0&#45;&gt;0 -->
<g id="edge2" class="edge">
<title>0&#45;&gt;0</title>
<path fill="none" stroke="#000000" d="M87.0373,-374.3792C96.8579,-375.6811 106,-373.5547 106,-368 106,-364.5283 102.4289,-362.3958 97.3529,-361.6025"/>
<polygon fill="#000000" stroke="#000000" points="97.031,-358.1029 87.0373,-361.6208 97.0435,-365.1029 97.031,-358.1029"/>
<text text-anchor="middle" x="126" y="-371.8" font-family="Times,serif" font-size="14.00" fill="#000000">!a &amp; !c</text>
<text text-anchor="middle" x="126" y="-356.8" font-family="Times,serif" font-size="14.00" fill="#000000">{0}</text>
</g>
<!-- 1 -->
<g id="node3" class="node">
<title>1</title>
<ellipse fill="none" stroke="#000000" cx="103" cy="-34" rx="18" ry="18"/>
<text text-anchor="middle" x="103" y="-30.3" font-family="Times,serif" font-size="14.00" fill="#000000">1</text>
</g>
<!-- 0&#45;&gt;1 -->
<g id="edge3" class="edge">
<title>0&#45;&gt;1</title>
<path fill="none" stroke="#000000" d="M87.1735,-362.5522C116.7124,-351.9853 174,-325.7263 174,-281 174,-281 174,-281 174,-121 174,-90.4651 147.4233,-64.7279 126.7901,-49.3476"/>
<polygon fill="#000000" stroke="#000000" points="128.5887,-46.3325 118.4059,-43.4064 124.5414,-52.0439 128.5887,-46.3325"/>
<text text-anchor="middle" x="177.5" y="-204.3" font-family="Times,serif" font-size="14.00" fill="#000000">c</text>
</g>
<!-- 2 -->
<g id="node4" class="node">
<title>2</title>
<ellipse fill="none" stroke="#000000" cx="220" cy="-281" rx="18" ry="18"/>
<text text-anchor="middle" x="220" y="-277.3" font-family="Times,serif" font-size="14.00" fill="#000000">2</text>
</g>
<!-- 0&#45;&gt;2 -->
<g id="edge4" class="edge">
<title>0&#45;&gt;2</title>
<path fill="none" stroke="#000000" d="M88.1755,-366.4138C113.0108,-363.4305 157.8955,-355.0416 188,-332 196.5015,-325.493 203.3226,-316.0293 208.447,-307.0162"/>
<polygon fill="#000000" stroke="#000000" points="211.6637,-308.4165 213.1723,-297.9296 205.4533,-305.1869 211.6637,-308.4165"/>
<text text-anchor="middle" x="231.5" y="-320.8" font-family="Times,serif" font-size="14.00" fill="#000000">a &amp; b &amp; !c</text>
</g>
<!-- 3 -->
<g id="node6" class="node">
<title>3</title>
<ellipse fill="none" stroke="#000000" cx="50" cy="-208" rx="18" ry="18"/>
<text text-anchor="middle" x="50" y="-204.3" font-family="Times,serif" font-size="14.00" fill="#000000">3</text>
</g>
<!-- 0&#45;&gt;3 -->
<g id="edge5" class="edge">
<title>0&#45;&gt;3</title>
<path fill="none" stroke="#000000" d="M62.3249,-351.5968C57.1298,-339.5535 50.7335,-322.6366 48,-307 44.0201,-284.2341 47.5086,-278.1059 48,-255 48.1259,-249.0802 48.3409,-242.7438 48.5844,-236.7016"/>
<polygon fill="#000000" stroke="#000000" points="52.0991,-236.4405 49.0405,-226.2968 45.1059,-236.1339 52.0991,-236.4405"/>
<text text-anchor="middle" x="66" y="-277.3" font-family="Times,serif" font-size="14.00" fill="#000000">a &amp; !c</text>
</g>
<!-- 1&#45;&gt;1 -->
<g id="edge6" class="edge">
<title>1&#45;&gt;1</title>
<path fill="none" stroke="#000000" d="M119.6641,-41.3828C129.625,-43.0234 139,-40.5625 139,-34 139,-29.7959 135.1525,-27.2751 129.7682,-26.4375"/>
<polygon fill="#000000" stroke="#000000" points="129.6002,-22.9399 119.6641,-26.6172 129.7247,-29.9388 129.6002,-22.9399"/>
<text text-anchor="middle" x="149.5" y="-37.8" font-family="Times,serif" font-size="14.00" fill="#000000">1</text>
<text text-anchor="middle" x="149.5" y="-22.8" font-family="Times,serif" font-size="14.00" fill="#000000">{0}</text>
</g>
<!-- 2&#45;&gt;2 -->
<g id="edge7" class="edge">
<title>2&#45;&gt;2</title>
<path fill="none" stroke="#000000" d="M237.0373,-287.3792C246.8579,-288.6811 256,-286.5547 256,-281 256,-277.5283 252.4289,-275.3958 247.3529,-274.6025"/>
<polygon fill="#000000" stroke="#000000" points="247.031,-271.1029 237.0373,-274.6208 247.0435,-278.1029 247.031,-271.1029"/>
<text text-anchor="middle" x="266.5" y="-284.8" font-family="Times,serif" font-size="14.00" fill="#000000">b</text>
<text text-anchor="middle" x="266.5" y="-269.8" font-family="Times,serif" font-size="14.00" fill="#000000">{0}</text>
</g>
<!-- 4 -->
<g id="node5" class="node">
<title>4</title>
<ellipse fill="none" stroke="#000000" cx="103" cy="-121" rx="18" ry="18"/>
<text text-anchor="middle" x="103" y="-117.3" font-family="Times,serif" font-size="14.00" fill="#000000">4</text>
</g>
<!-- 4&#45;&gt;1 -->
<g id="edge12" class="edge">
<title>4&#45;&gt;1</title>
<path fill="none" stroke="#000000" d="M103,-102.9735C103,-91.1918 103,-75.5607 103,-62.1581"/>
<polygon fill="#000000" stroke="#000000" points="106.5001,-62.0033 103,-52.0034 99.5001,-62.0034 106.5001,-62.0033"/>
<text text-anchor="middle" x="108.5" y="-73.8" font-family="Times,serif" font-size="14.00" fill="#000000">!a</text>
</g>
<!-- 4&#45;&gt;4 -->
<g id="edge13" class="edge">
<title>4&#45;&gt;4</title>
<path fill="none" stroke="#000000" d="M119.6641,-128.3828C129.625,-130.0234 139,-127.5625 139,-121 139,-116.7959 135.1525,-114.2751 129.7682,-113.4375"/>
<polygon fill="#000000" stroke="#000000" points="129.6002,-109.9399 119.6641,-113.6172 129.7247,-116.9388 129.6002,-109.9399"/>
<text text-anchor="middle" x="142.5" y="-117.3" font-family="Times,serif" font-size="14.00" fill="#000000">a</text>
</g>
<!-- 3&#45;&gt;0 -->
<g id="edge8" class="edge">
<title>3&#45;&gt;0</title>
<path fill="none" stroke="#000000" d="M62.9733,-221.1013C70.7223,-229.8856 79.843,-242.1612 84,-255 93.2826,-283.6694 86.5459,-318.2636 79.5765,-341.5607"/>
<polygon fill="#000000" stroke="#000000" points="76.2366,-340.5142 76.5183,-351.1053 82.9027,-342.6501 76.2366,-340.5142"/>
<text text-anchor="middle" x="108" y="-284.8" font-family="Times,serif" font-size="14.00" fill="#000000">!a &amp; !c</text>
<text text-anchor="middle" x="108" y="-269.8" font-family="Times,serif" font-size="14.00" fill="#000000">{0}</text>
</g>
<!-- 3&#45;&gt;1 -->
<g id="edge9" class="edge">
<title>3&#45;&gt;1</title>
<path fill="none" stroke="#000000" d="M42.904,-191.1202C34.4386,-168.3114 23.0705,-126.842 37,-95 45.5207,-75.5222 63.6686,-59.4976 78.7816,-48.7683"/>
<polygon fill="#000000" stroke="#000000" points="80.8937,-51.5656 87.2334,-43.0768 76.9838,-45.7593 80.8937,-51.5656"/>
<text text-anchor="middle" x="55" y="-117.3" font-family="Times,serif" font-size="14.00" fill="#000000">!a &amp; c</text>
</g>
<!-- 3&#45;&gt;4 -->
<g id="edge11" class="edge">
<title>3&#45;&gt;4</title>
<path fill="none" stroke="#000000" d="M59.4753,-192.4461C67.4643,-179.3322 79.0331,-160.342 88.2357,-145.2358"/>
<polygon fill="#000000" stroke="#000000" points="91.3931,-146.7802 93.6067,-136.4192 85.415,-143.1384 91.3931,-146.7802"/>
<text text-anchor="middle" x="94.5" y="-160.8" font-family="Times,serif" font-size="14.00" fill="#000000">a &amp; c</text>
</g>
<!-- 3&#45;&gt;3 -->
<g id="edge10" class="edge">
<title>3&#45;&gt;3</title>
<path fill="none" stroke="#000000" d="M67.0373,-214.3792C76.8579,-215.6811 86,-213.5547 86,-208 86,-204.5283 82.4289,-202.3958 77.3529,-201.6025"/>
<polygon fill="#000000" stroke="#000000" points="77.031,-198.1029 67.0373,-201.6208 77.0435,-205.1029 77.031,-198.1029"/>
<text text-anchor="middle" x="104" y="-204.3" font-family="Times,serif" font-size="14.00" fill="#000000">a &amp; !c</text>
</g>
</g>
</svg>
