<?xml version="1.0" encoding="UTF-8" standalone="no"?>
<?xml-stylesheet href="spot.css" type="text/css"?>
<!DOCTYPE svg PUBLIC "-//W3C//DTD SVG 1.1//EN"
 "http://www.w3.org/Graphics/SVG/1.1/DTD/svg11.dtd">
<!-- Generated by graphviz version 2.40.1 (20161225.0304)
 -->
<!-- Pages: 1 -->
<svg width="328pt" height="109pt"
 viewBox="0.00 0.00 328.00 109.00" xmlns="http://www.w3.org/2000/svg" xmlns:xlink="http://www.w3.org/1999/xlink">
<g id="graph0" class="graph" transform="scale(1 1) rotate(0) translate(4 105)">
<polygon fill="#ffffff" stroke="transparent" points="-4,4 -4,-105 324,-105 324,4 -4,4"/>
<text text-anchor="start" x="157.5" y="-87.4" font-family="Lato" font-size="12.00" fill="#000000">t</text>
<text text-anchor="start" x="150" y="-74.4" font-family="Lato" font-size="12.00" fill="#000000">[all]</text>
<!-- I -->
<!-- 0 -->
<g id="node2" class="node">
<title>0</title>
<ellipse fill="#ffffa0" stroke="#000000" cx="56" cy="-18" rx="18" ry="18"/>
<text text-anchor="middle" x="56" y="-14.9" font-family="Lato" font-size="12.00" fill="#000000">0</text>
</g>
<!-- I&#45;&gt;0 -->
<g id="edge1" class="edge">
<title>I&#45;&gt;0</title>
<path fill="none" stroke="#000000" d="M1.1233,-18C4.178,-18 17.9448,-18 30.9241,-18"/>
<polygon fill="#000000" stroke="#000000" points="37.9807,-18 30.9808,-21.1501 34.4807,-18 30.9807,-18.0001 30.9807,-18.0001 30.9807,-18.0001 34.4807,-18 30.9807,-14.8501 37.9807,-18 37.9807,-18"/>
</g>
<!-- 2 -->
<g id="node3" class="node">
<title>2</title>
<ellipse fill="#ffffa0" stroke="#000000" cx="176" cy="-18" rx="18" ry="18"/>
<text text-anchor="middle" x="176" y="-14.9" font-family="Lato" font-size="12.00" fill="#000000">2</text>
</g>
<!-- 0&#45;&gt;2 -->
<g id="edge2" class="edge">
<title>0&#45;&gt;2</title>
<path fill="none" stroke="#000000" d="M74.2254,-18C94.6957,-18 128.0449,-18 150.9545,-18"/>
<polygon fill="#000000" stroke="#000000" points="157.9963,-18 150.9963,-21.1501 154.4963,-18 150.9963,-18.0001 150.9963,-18.0001 150.9963,-18.0001 154.4963,-18 150.9962,-14.8501 157.9963,-18 157.9963,-18"/>
<text text-anchor="start" x="92" y="-21.4" font-family="Lato" font-size="12.00" fill="#000000">!p0 &amp; !p1</text>
</g>
<!-- 1 -->
<g id="node4" class="node">
<title>1</title>
<ellipse fill="#ffffa0" stroke="#000000" cx="296" cy="-18" rx="18" ry="18"/>
<text text-anchor="middle" x="296" y="-14.9" font-family="Lato" font-size="12.00" fill="#000000">1</text>
</g>
<!-- 2&#45;&gt;1 -->
<g id="edge4" class="edge">
<title>2&#45;&gt;1</title>
<path fill="none" stroke="#000000" d="M194.2254,-18C214.6957,-18 248.0449,-18 270.9545,-18"/>
<polygon fill="#000000" stroke="#000000" points="277.9963,-18 270.9963,-21.1501 274.4963,-18 270.9963,-18.0001 270.9963,-18.0001 270.9963,-18.0001 274.4963,-18 270.9962,-14.8501 277.9963,-18 277.9963,-18"/>
<text text-anchor="start" x="212" y="-21.4" font-family="Lato" font-size="12.00" fill="#000000">!p0 &amp; !p1</text>
</g>
<!-- 1&#45;&gt;1 -->
<g id="edge3" class="edge">
<title>1&#45;&gt;1</title>
<path fill="none" stroke="#000000" d="M285.8486,-33.1666C282.7725,-43.6641 286.1563,-54 296,-54 303.5366,-54 307.2865,-47.9413 307.2497,-40.39"/>
<polygon fill="#000000" stroke="#000000" points="306.1514,-33.1666 310.318,-39.6135 306.6776,-36.6269 307.2037,-40.0871 307.2037,-40.0871 307.2037,-40.0871 306.6776,-36.6269 304.0895,-40.5607 306.1514,-33.1666 306.1514,-33.1666"/>
<text text-anchor="start" x="272" y="-57.4" font-family="Lato" font-size="12.00" fill="#000000">!p0 &amp; !p1</text>
</g>
</g>
</svg>
