<?xml version="1.0" encoding="UTF-8" standalone="no"?>
<?xml-stylesheet href="spot.css" type="text/css"?>
<!DOCTYPE svg PUBLIC "-//W3C//DTD SVG 1.1//EN"
 "http://www.w3.org/Graphics/SVG/1.1/DTD/svg11.dtd">
<!-- Generated by graphviz version 2.40.1 (20161225.0304)
 -->
<!-- Pages: 1 -->
<svg width="344pt" height="168pt"
 viewBox="0.00 0.00 344.00 168.41" xmlns="http://www.w3.org/2000/svg" xmlns:xlink="http://www.w3.org/1999/xlink">
<g id="graph0" class="graph" transform="scale(1 1) rotate(0) translate(4 164.4102)">
<polygon fill="#ffffff" stroke="transparent" points="-4,4 -4,-164.4102 340,-164.4102 340,4 -4,4"/>
<text text-anchor="start" x="149" y="-133.8102" font-family="Lato" font-size="12.00" fill="#000000">[Büchi]</text>
<!-- I -->
<!-- 0 -->
<g id="node2" class="node">
<title>0</title>
<ellipse fill="#ffffa0" stroke="#000000" cx="56" cy="-55.0102" rx="18" ry="18"/>
<text text-anchor="middle" x="56" y="-51.9102" font-family="Lato" font-size="12.00" fill="#000000">0</text>
</g>
<!-- I&#45;&gt;0 -->
<g id="edge1" class="edge">
<title>I&#45;&gt;0</title>
<path fill="none" stroke="#000000" d="M1.1233,-55.0102C4.178,-55.0102 17.9448,-55.0102 30.9241,-55.0102"/>
<polygon fill="#000000" stroke="#000000" points="37.9807,-55.0102 30.9808,-58.1603 34.4807,-55.0103 30.9807,-55.0103 30.9807,-55.0103 30.9807,-55.0103 34.4807,-55.0103 30.9807,-51.8603 37.9807,-55.0102 37.9807,-55.0102"/>
</g>
<!-- 1 -->
<g id="node3" class="node">
<title>1</title>
<ellipse fill="#ffffa0" stroke="#000000" cx="312" cy="-47.0102" rx="18" ry="18"/>
<ellipse fill="none" stroke="#000000" cx="312" cy="-47.0102" rx="22" ry="22"/>
<text text-anchor="middle" x="312" y="-43.9102" font-family="Lato" font-size="12.00" fill="#000000">1</text>
</g>
<!-- 0&#45;&gt;1 -->
<g id="edge2" class="edge">
<title>0&#45;&gt;1</title>
<path fill="none" stroke="#000000" d="M70.2317,-66.3604C96.5908,-85.9721 154.9756,-122.8367 206,-109.0102 237.2769,-100.5349 268.7807,-80.2675 289.2161,-65.1984"/>
<polygon fill="#000000" stroke="#000000" points="294.9334,-60.9042 291.2281,-67.6269 292.1349,-63.0062 289.3363,-65.1082 289.3363,-65.1082 289.3363,-65.1082 292.1349,-63.0062 287.4445,-62.5895 294.9334,-60.9042 294.9334,-60.9042"/>
<text text-anchor="start" x="158" y="-115.4102" font-family="Lato" font-size="12.00" fill="#000000">!p0 &amp; !p1</text>
</g>
<!-- 2 -->
<g id="node4" class="node">
<title>2</title>
<ellipse fill="#ffffa0" stroke="#000000" cx="182" cy="-47.0102" rx="18" ry="18"/>
<ellipse fill="none" stroke="#000000" cx="182" cy="-47.0102" rx="22" ry="22"/>
<text text-anchor="middle" x="182" y="-43.9102" font-family="Lato" font-size="12.00" fill="#000000">2</text>
</g>
<!-- 0&#45;&gt;2 -->
<g id="edge3" class="edge">
<title>0&#45;&gt;2</title>
<path fill="none" stroke="#000000" d="M74.0391,-54.3984C91.0592,-53.7626 117.282,-52.632 140,-51.0102 144.1188,-50.7162 148.4603,-50.3577 152.7267,-49.9774"/>
<polygon fill="#000000" stroke="#000000" points="159.7833,-49.3242 153.1035,-53.1061 156.2982,-49.6468 152.8131,-49.9695 152.8131,-49.9695 152.8131,-49.9695 156.2982,-49.6468 152.5228,-46.8329 159.7833,-49.3242 159.7833,-49.3242"/>
<text text-anchor="start" x="92" y="-56.4102" font-family="Lato" font-size="12.00" fill="#000000">!p0 &amp; !p1</text>
</g>
<!-- 1&#45;&gt;0 -->
<g id="edge5" class="edge">
<title>1&#45;&gt;0</title>
<path fill="none" stroke="#000000" d="M292.4249,-36.1217C271.6955,-25.2634 237.6563,-9.3194 206,-3.0102 185.0781,1.1595 179.0098,.6912 158,-3.0102 127.2609,-8.4257 119.3178,-11.9119 92,-27.0102 86.3218,-30.1485 80.5905,-34.1463 75.4217,-38.1319"/>
<polygon fill="#000000" stroke="#000000" points="69.6493,-42.7528 73.1455,-35.919 72.3817,-40.5655 75.114,-38.3782 75.114,-38.3782 75.114,-38.3782 72.3817,-40.5655 77.0826,-40.8373 69.6493,-42.7528 69.6493,-42.7528"/>
<text text-anchor="start" x="161" y="-6.4102" font-family="Lato" font-size="12.00" fill="#000000">p0 &amp; p1</text>
</g>
<!-- 1&#45;&gt;1 -->
<g id="edge4" class="edge">
<title>1&#45;&gt;1</title>
<path fill="none" stroke="#000000" d="M300.6592,-65.9406C298.3447,-76.8524 302.125,-87.0102 312,-87.0102 319.5605,-87.0102 323.5485,-81.0559 323.9638,-73.3676"/>
<polygon fill="#000000" stroke="#000000" points="323.3408,-65.9406 327.065,-72.6528 323.6334,-69.4283 323.926,-72.9161 323.926,-72.9161 323.926,-72.9161 323.6334,-69.4283 320.787,-73.1794 323.3408,-65.9406 323.3408,-65.9406"/>
<text text-anchor="start" x="288" y="-90.4102" font-family="Lato" font-size="12.00" fill="#000000">!p0 &amp; !p1</text>
</g>
<!-- 2&#45;&gt;0 -->
<g id="edge6" class="edge">
<title>2&#45;&gt;0</title>
<path fill="none" stroke="#000000" d="M161.3398,-39.3289C142.9105,-33.5812 115.3173,-27.7064 92,-34.0102 86.8137,-35.4124 81.6075,-37.7677 76.8291,-40.4054"/>
<polygon fill="#000000" stroke="#000000" points="70.6205,-44.1142 75.0145,-37.8201 73.6252,-42.3193 76.6299,-40.5244 76.6299,-40.5244 76.6299,-40.5244 73.6252,-42.3193 78.2454,-43.2286 70.6205,-44.1142 70.6205,-44.1142"/>
<text text-anchor="start" x="95" y="-37.4102" font-family="Lato" font-size="12.00" fill="#000000">p0 &amp; p1</text>
</g>
<!-- 2&#45;&gt;1 -->
<g id="edge8" class="edge">
<title>2&#45;&gt;1</title>
<path fill="none" stroke="#000000" d="M204.0527,-47.0102C225.717,-47.0102 258.9023,-47.0102 282.7581,-47.0102"/>
<polygon fill="#000000" stroke="#000000" points="289.8391,-47.0102 282.8391,-50.1603 286.3391,-47.0103 282.8391,-47.0103 282.8391,-47.0103 282.8391,-47.0103 286.3391,-47.0103 282.839,-43.8603 289.8391,-47.0102 289.8391,-47.0102"/>
<text text-anchor="start" x="224" y="-50.4102" font-family="Lato" font-size="12.00" fill="#000000">!p0 &amp; !p1</text>
</g>
<!-- 2&#45;&gt;2 -->
<g id="edge7" class="edge">
<title>2&#45;&gt;2</title>
<path fill="none" stroke="#000000" d="M170.3048,-65.9406C167.918,-76.8524 171.8164,-87.0102 182,-87.0102 189.7968,-87.0102 193.9094,-81.0559 194.3377,-73.3676"/>
<polygon fill="#000000" stroke="#000000" points="193.6952,-65.9406 197.4368,-72.643 193.9969,-69.4276 194.2986,-72.9145 194.2986,-72.9145 194.2986,-72.9145 193.9969,-69.4276 191.1603,-73.186 193.6952,-65.9406 193.6952,-65.9406"/>
<text text-anchor="start" x="159.5" y="-90.4102" font-family="Lato" font-size="12.00" fill="#000000">p0 &amp; !p1</text>
</g>
</g>
</svg>
