<?xml version="1.0" encoding="UTF-8" standalone="no"?>
<?xml-stylesheet href="spot.css" type="text/css"?>
<!DOCTYPE svg PUBLIC "-//W3C//DTD SVG 1.1//EN"
 "http://www.w3.org/Graphics/SVG/1.1/DTD/svg11.dtd">
<!-- Generated by graphviz version 2.40.1 (20161225.0304)
 -->
<!-- Pages: 1 -->
<svg width="1154pt" height="396pt"
 viewBox="0.00 0.00 1154.00 396.00" xmlns="http://www.w3.org/2000/svg" xmlns:xlink="http://www.w3.org/1999/xlink">
<g id="graph0" class="graph" transform="scale(1 1) rotate(0) translate(4 392)">
<polygon fill="#ffffff" stroke="transparent" points="-4,4 -4,-392 1150,-392 1150,4 -4,4"/>
<text text-anchor="start" x="476" y="-375.4" font-family="Lato" font-size="12.00" fill="#000000">Fin(</text>
<text text-anchor="start" x="496" y="-375.4" font-family="Lato" font-size="12.00" fill="#1f78b4">⓿</text>
<text text-anchor="start" x="510" y="-375.4" font-family="Lato" font-size="12.00" fill="#000000">) &amp; (Inf(</text>
<text text-anchor="start" x="548" y="-375.4" font-family="Lato" font-size="12.00" fill="#ff4da0">❶</text>
<text text-anchor="start" x="562" y="-375.4" font-family="Lato" font-size="12.00" fill="#000000">) | (Fin(</text>
<text text-anchor="start" x="597" y="-375.4" font-family="Lato" font-size="12.00" fill="#ff7f00">❷</text>
<text text-anchor="start" x="611" y="-375.4" font-family="Lato" font-size="12.00" fill="#000000">) &amp; Inf(</text>
<text text-anchor="start" x="646" y="-375.4" font-family="Lato" font-size="12.00" fill="#6a3d9a">❸</text>
<text text-anchor="start" x="660" y="-375.4" font-family="Lato" font-size="12.00" fill="#000000">)))</text>
<text text-anchor="start" x="526" y="-363.4" font-family="Lato" font-size="12.00" fill="#000000">[parity min odd 4]</text>
<g id="clust1" class="cluster">
<title>cluster_0</title>
<polygon fill="none" stroke="#00ff00" points="600,-20 600,-202 1138,-202 1138,-20 600,-20"/>
</g>
<g id="clust2" class="cluster">
<title>cluster_1</title>
<polygon fill="none" stroke="#000000" points="494,-168 494,-220 546,-220 546,-168 494,-168"/>
</g>
<g id="clust3" class="cluster">
<title>cluster_2</title>
<polygon fill="none" stroke="#ff0000" points="388,-168 388,-264 440,-264 440,-168 388,-168"/>
</g>
<g id="clust4" class="cluster">
<title>cluster_3</title>
<polygon fill="none" stroke="#00ff00" points="136,-13 136,-135 334,-135 334,-13 136,-13"/>
</g>
<g id="clust5" class="cluster">
<title>cluster_4</title>
<polygon fill="none" stroke="#00ff00" points="30,-181 30,-303 261,-303 261,-181 30,-181"/>
</g>
<!-- I -->
<!-- 0 -->
<g id="node2" class="node">
<title>0</title>
<ellipse fill="#ffffa0" stroke="#000000" cx="56" cy="-238" rx="18" ry="18"/>
<text text-anchor="middle" x="56" y="-234.9" font-family="Lato" font-size="12.00" fill="#000000">0</text>
</g>
<!-- I&#45;&gt;0 -->
<g id="edge1" class="edge">
<title>I&#45;&gt;0</title>
<path fill="none" stroke="#000000" d="M1.1233,-238C4.178,-238 17.9448,-238 30.9241,-238"/>
<polygon fill="#000000" stroke="#000000" points="37.9807,-238 30.9808,-241.1501 34.4807,-238 30.9807,-238.0001 30.9807,-238.0001 30.9807,-238.0001 34.4807,-238 30.9807,-234.8501 37.9807,-238 37.9807,-238"/>
</g>
<!-- 1 -->
<g id="node3" class="node">
<title>1</title>
<ellipse fill="#ffffa0" stroke="#000000" cx="626" cy="-168" rx="18" ry="18"/>
<text text-anchor="middle" x="626" y="-164.9" font-family="Lato" font-size="12.00" fill="#000000">1</text>
</g>
<!-- 0&#45;&gt;1 -->
<g id="edge2" class="edge">
<title>0&#45;&gt;1</title>
<path fill="none" stroke="#000000" d="M64.767,-254.0252C80.4965,-280.3838 116.1891,-330 162,-330 162,-330 162,-330 520,-330 584.7649,-330 612.0878,-238.2175 621.6409,-192.8221"/>
<polygon fill="#000000" stroke="#000000" points="623.0245,-185.9558 624.7296,-193.4402 622.3331,-189.3868 621.6416,-192.8179 621.6416,-192.8179 621.6416,-192.8179 622.3331,-189.3868 618.5537,-192.1956 623.0245,-185.9558 623.0245,-185.9558"/>
<text text-anchor="start" x="294" y="-346.4" font-family="Lato" font-size="12.00" fill="#000000">a &amp; b</text>
<text text-anchor="start" x="301" y="-333.4" font-family="Lato" font-size="12.00" fill="#1f78b4">⓿</text>
</g>
<!-- 3 -->
<g id="node9" class="node">
<title>3</title>
<ellipse fill="#ffffa0" stroke="#000000" cx="162" cy="-105" rx="18" ry="18"/>
<text text-anchor="middle" x="162" y="-101.9" font-family="Lato" font-size="12.00" fill="#000000">3</text>
</g>
<!-- 0&#45;&gt;3 -->
<g id="edge4" class="edge">
<title>0&#45;&gt;3</title>
<path fill="none" stroke="#000000" d="M63.9821,-221.7604C70.6734,-208.8262 80.8952,-190.5416 92,-176 107.4386,-155.7835 128.2187,-135.3813 143.1207,-121.6682"/>
<polygon fill="#000000" stroke="#000000" points="148.3242,-116.9314 145.2682,-123.973 145.7359,-119.2875 143.1477,-121.6436 143.1477,-121.6436 143.1477,-121.6436 145.7359,-119.2875 141.0272,-119.3142 148.3242,-116.9314 148.3242,-116.9314"/>
<text text-anchor="start" x="92" y="-192.4" font-family="Lato" font-size="12.00" fill="#000000">!a &amp; !b</text>
<text text-anchor="start" x="102" y="-179.4" font-family="Lato" font-size="12.00" fill="#6a3d9a">❸</text>
</g>
<!-- 4 -->
<g id="node11" class="node">
<title>4</title>
<ellipse fill="#ffffa0" stroke="#000000" cx="235" cy="-246" rx="18" ry="18"/>
<text text-anchor="middle" x="235" y="-242.9" font-family="Lato" font-size="12.00" fill="#000000">4</text>
</g>
<!-- 0&#45;&gt;4 -->
<g id="edge3" class="edge">
<title>0&#45;&gt;4</title>
<path fill="none" stroke="#000000" d="M72.9918,-231.9467C97.0159,-224.2292 142.1988,-212.8119 180,-221 191.3274,-223.4536 203.1233,-228.4469 212.8728,-233.3303"/>
<polygon fill="#000000" stroke="#000000" points="219.2647,-236.661 211.6012,-236.2196 216.1608,-235.0436 213.0569,-233.4261 213.0569,-233.4261 213.0569,-233.4261 216.1608,-235.0436 214.5125,-230.6327 219.2647,-236.661 219.2647,-236.661"/>
<text text-anchor="start" x="146.5" y="-237.4" font-family="Lato" font-size="12.00" fill="#000000">a &amp; !b</text>
<text text-anchor="start" x="155" y="-224.4" font-family="Lato" font-size="12.00" fill="#ff4da0">❶</text>
</g>
<!-- 7 -->
<g id="node4" class="node">
<title>7</title>
<ellipse fill="#ffffa0" stroke="#000000" cx="827" cy="-59" rx="18" ry="18"/>
<text text-anchor="middle" x="827" y="-55.9" font-family="Lato" font-size="12.00" fill="#000000">7</text>
</g>
<!-- 1&#45;&gt;7 -->
<g id="edge5" class="edge">
<title>1&#45;&gt;7</title>
<path fill="none" stroke="#000000" d="M642.1089,-159.2643C677.848,-139.8834 763.8361,-93.2531 804.704,-71.0909"/>
<polygon fill="#000000" stroke="#000000" points="811.0934,-67.626 806.4416,-73.732 808.0167,-69.2945 804.9399,-70.963 804.9399,-70.963 804.9399,-70.963 808.0167,-69.2945 803.4383,-68.1939 811.0934,-67.626 811.0934,-67.626"/>
<text text-anchor="start" x="711" y="-137.4" font-family="Lato" font-size="12.00" fill="#000000">a &amp; !b</text>
<text text-anchor="start" x="719.5" y="-124.4" font-family="Lato" font-size="12.00" fill="#ff4da0">❶</text>
</g>
<!-- 7&#45;&gt;7 -->
<g id="edge18" class="edge">
<title>7&#45;&gt;7</title>
<path fill="none" stroke="#000000" d="M820.6208,-76.0373C819.3189,-85.8579 821.4453,-95 827,-95 831.166,-95 833.4036,-89.8576 833.7128,-83.1433"/>
<polygon fill="#000000" stroke="#000000" points="833.3792,-76.0373 836.8541,-82.8818 833.5434,-79.5335 833.7076,-83.0296 833.7076,-83.0296 833.7076,-83.0296 833.5434,-79.5335 830.561,-83.1774 833.3792,-76.0373 833.3792,-76.0373"/>
<text text-anchor="start" x="813" y="-111.4" font-family="Lato" font-size="12.00" fill="#000000">a &amp; b</text>
<text text-anchor="start" x="820" y="-98.4" font-family="Lato" font-size="12.00" fill="#ff7f00">❷</text>
</g>
<!-- 5 -->
<g id="node5" class="node">
<title>5</title>
<ellipse fill="#ffffa0" stroke="#000000" cx="968" cy="-170" rx="18" ry="18"/>
<text text-anchor="middle" x="968" y="-166.9" font-family="Lato" font-size="12.00" fill="#000000">5</text>
</g>
<!-- 7&#45;&gt;5 -->
<g id="edge17" class="edge">
<title>7&#45;&gt;5</title>
<path fill="none" stroke="#000000" d="M836.8687,-74.38C846.8729,-89.0571 863.4838,-111.0825 882,-126 900.9085,-141.2336 925.9366,-153.3098 944.1144,-160.9274"/>
<polygon fill="#000000" stroke="#000000" points="950.9609,-163.7223 943.2896,-163.993 947.7205,-162.3995 944.4801,-161.0767 944.4801,-161.0767 944.4801,-161.0767 947.7205,-162.3995 945.6706,-158.1603 950.9609,-163.7223 950.9609,-163.7223"/>
<text text-anchor="start" x="883.5" y="-163.4" font-family="Lato" font-size="12.00" fill="#000000">a &amp; b</text>
<text text-anchor="start" x="890.5" y="-150.4" font-family="Lato" font-size="12.00" fill="#ff7f00">❷</text>
</g>
<!-- 6 -->
<g id="node6" class="node">
<title>6</title>
<ellipse fill="#ffffa0" stroke="#000000" cx="1112" cy="-108" rx="18" ry="18"/>
<text text-anchor="middle" x="1112" y="-104.9" font-family="Lato" font-size="12.00" fill="#000000">6</text>
</g>
<!-- 7&#45;&gt;6 -->
<g id="edge19" class="edge">
<title>7&#45;&gt;6</title>
<path fill="none" stroke="#000000" d="M844.891,-55.1016C874.5828,-49.2961 935.7467,-40.1619 986,-51 1024.7799,-59.3636 1065.9908,-80.677 1090.3389,-94.7391"/>
<polygon fill="#000000" stroke="#000000" points="1096.4485,-98.3208 1088.8166,-97.498 1093.4291,-96.5506 1090.4097,-94.7805 1090.4097,-94.7805 1090.4097,-94.7805 1093.4291,-96.5506 1092.0028,-92.0631 1096.4485,-98.3208 1096.4485,-98.3208"/>
<text text-anchor="start" x="951" y="-67.4" font-family="Lato" font-size="12.00" fill="#000000">!a &amp; !b</text>
<text text-anchor="start" x="961" y="-54.4" font-family="Lato" font-size="12.00" fill="#6a3d9a">❸</text>
</g>
<!-- 5&#45;&gt;1 -->
<g id="edge14" class="edge">
<title>5&#45;&gt;1</title>
<path fill="none" stroke="#000000" d="M950.2203,-172.8427C939.4762,-174.4157 925.4883,-176.2085 913,-177 899.2498,-177.8715 895.7757,-177.2421 882,-177 797.3384,-175.5123 697.0006,-171.259 651.137,-169.177"/>
<polygon fill="#000000" stroke="#000000" points="643.9958,-168.8503 651.1325,-166.0236 647.4922,-169.0103 650.9885,-169.1703 650.9885,-169.1703 650.9885,-169.1703 647.4922,-169.0103 650.8445,-172.317 643.9958,-168.8503 643.9958,-168.8503"/>
<text text-anchor="start" x="811.5" y="-193.4" font-family="Lato" font-size="12.00" fill="#000000">!a &amp; b</text>
<text text-anchor="start" x="820" y="-180.4" font-family="Lato" font-size="12.00" fill="#ff7f00">❷</text>
</g>
<!-- 5&#45;&gt;7 -->
<g id="edge13" class="edge">
<title>5&#45;&gt;7</title>
<path fill="none" stroke="#000000" d="M958.7432,-154.3695C948.9654,-138.9311 932.308,-115.4498 913,-100 894.4157,-85.1293 869.5515,-74.022 851.3391,-67.1458"/>
<polygon fill="#000000" stroke="#000000" points="844.4682,-64.6322 852.1244,-64.0789 847.7552,-65.8347 851.0422,-67.0372 851.0422,-67.0372 851.0422,-67.0372 847.7552,-65.8347 849.9599,-69.9955 844.4682,-64.6322 844.4682,-64.6322"/>
<text text-anchor="start" x="882" y="-116.4" font-family="Lato" font-size="12.00" fill="#000000">a &amp; !b</text>
<text text-anchor="start" x="890.5" y="-103.4" font-family="Lato" font-size="12.00" fill="#1f78b4">⓿</text>
</g>
<!-- 5&#45;&gt;6 -->
<g id="edge15" class="edge">
<title>5&#45;&gt;6</title>
<path fill="none" stroke="#000000" d="M984.8005,-162.7665C1010.4884,-151.7064 1059.604,-130.5594 1088.7136,-118.0261"/>
<polygon fill="#000000" stroke="#000000" points="1095.3066,-115.1875 1090.1229,-120.849 1092.0919,-116.5716 1088.8772,-117.9557 1088.8772,-117.9557 1088.8772,-117.9557 1092.0919,-116.5716 1087.6314,-115.0625 1095.3066,-115.1875 1095.3066,-115.1875"/>
<text text-anchor="start" x="1023" y="-163.4" font-family="Lato" font-size="12.00" fill="#000000">!a &amp; !b</text>
<text text-anchor="start" x="1033" y="-150.4" font-family="Lato" font-size="12.00" fill="#1f78b4">⓿</text>
</g>
<!-- 6&#45;&gt;7 -->
<g id="edge16" class="edge">
<title>6&#45;&gt;7</title>
<path fill="none" stroke="#000000" d="M1094.1787,-104.936C1045.2039,-96.5158 908.4656,-73.0064 851.9412,-63.2881"/>
<polygon fill="#000000" stroke="#000000" points="844.828,-62.0652 852.2606,-60.1469 848.2774,-62.6583 851.7268,-63.2514 851.7268,-63.2514 851.7268,-63.2514 848.2774,-62.6583 851.193,-66.3558 844.828,-62.0652 844.828,-62.0652"/>
<text text-anchor="start" x="952.5" y="-103.4" font-family="Lato" font-size="12.00" fill="#000000">!a &amp; b</text>
<text text-anchor="start" x="961" y="-90.4" font-family="Lato" font-size="12.00" fill="#6a3d9a">❸</text>
</g>
<!-- 2 -->
<g id="node7" class="node">
<title>2</title>
<ellipse fill="#ffffa0" stroke="#000000" cx="520" cy="-194" rx="18" ry="18"/>
<text text-anchor="middle" x="520" y="-190.9" font-family="Lato" font-size="12.00" fill="#000000">2</text>
</g>
<!-- 2&#45;&gt;1 -->
<g id="edge6" class="edge">
<title>2&#45;&gt;1</title>
<path fill="none" stroke="#000000" d="M537.0814,-187.823C543.0218,-185.8041 549.76,-183.6571 556,-182 570.7557,-178.0814 587.5193,-174.6923 600.9417,-172.2305"/>
<polygon fill="#000000" stroke="#000000" points="608.0208,-170.9607 601.6869,-175.2972 604.5758,-171.5787 601.1307,-172.1967 601.1307,-172.1967 601.1307,-172.1967 604.5758,-171.5787 600.5746,-169.0961 608.0208,-170.9607 608.0208,-170.9607"/>
<text text-anchor="start" x="559" y="-198.4" font-family="Lato" font-size="12.00" fill="#000000">a &amp; b</text>
<text text-anchor="start" x="566" y="-185.4" font-family="Lato" font-size="12.00" fill="#1f78b4">⓿</text>
</g>
<!-- 2&#45;&gt;5 -->
<g id="edge7" class="edge">
<title>2&#45;&gt;5</title>
<path fill="none" stroke="#000000" d="M536.5329,-201.2107C557.0907,-209.5069 593.4519,-222 626,-222 626,-222 626,-222 897.5,-222 919.788,-222 939.6612,-204.9597 952.5806,-190.3885"/>
<polygon fill="#000000" stroke="#000000" points="957.3473,-184.762 955.2259,-192.1392 955.0849,-187.4325 952.8225,-190.1031 952.8225,-190.1031 952.8225,-190.1031 955.0849,-187.4325 950.419,-188.0669 957.3473,-184.762 957.3473,-184.762"/>
<text text-anchor="start" x="760" y="-238.4" font-family="Lato" font-size="12.00" fill="#000000">a &amp; !b</text>
<text text-anchor="start" x="768.5" y="-225.4" font-family="Lato" font-size="12.00" fill="#ff4da0">❶</text>
</g>
<!-- 9 -->
<g id="node8" class="node">
<title>9</title>
<ellipse fill="#ffffa0" stroke="#000000" cx="414" cy="-194" rx="18" ry="18"/>
<text text-anchor="middle" x="414" y="-190.9" font-family="Lato" font-size="12.00" fill="#000000">9</text>
</g>
<!-- 9&#45;&gt;2 -->
<g id="edge25" class="edge">
<title>9&#45;&gt;2</title>
<path fill="none" stroke="#000000" d="M432.4638,-194C449.6394,-194 475.386,-194 494.5153,-194"/>
<polygon fill="#000000" stroke="#000000" points="501.7478,-194 494.7478,-197.1501 498.2478,-194 494.7478,-194.0001 494.7478,-194.0001 494.7478,-194.0001 498.2478,-194 494.7478,-190.8501 501.7478,-194 501.7478,-194"/>
<text text-anchor="start" x="450" y="-210.4" font-family="Lato" font-size="12.00" fill="#000000">!a &amp; !b</text>
<text text-anchor="start" x="460" y="-197.4" font-family="Lato" font-size="12.00" fill="#1f78b4">⓿</text>
</g>
<!-- 9&#45;&gt;9 -->
<g id="edge26" class="edge">
<title>9&#45;&gt;9</title>
<path fill="none" stroke="#000000" d="M405.0212,-209.916C402.679,-220.1504 405.6719,-230 414,-230 420.3762,-230 423.625,-224.2263 423.7465,-216.9268"/>
<polygon fill="#000000" stroke="#000000" points="422.9788,-209.916 426.8721,-216.5315 423.3598,-213.3952 423.7408,-216.8744 423.7408,-216.8744 423.7408,-216.8744 423.3598,-213.3952 420.6095,-217.2174 422.9788,-209.916 422.9788,-209.916"/>
<text text-anchor="start" x="400" y="-246.4" font-family="Lato" font-size="12.00" fill="#000000">a &amp; b</text>
<text text-anchor="start" x="407" y="-233.4" font-family="Lato" font-size="12.00" fill="#ff7f00">❷</text>
</g>
<!-- 3&#45;&gt;1 -->
<g id="edge8" class="edge">
<title>3&#45;&gt;1</title>
<path fill="none" stroke="#000000" d="M179.0876,-111.6056C189.8198,-115.4993 204.0375,-120.1973 217,-123 291.0659,-139.014 523.2719,-159.3914 600.6368,-165.9015"/>
<polygon fill="#000000" stroke="#000000" points="607.6298,-166.4876 600.3911,-169.0419 604.142,-166.1952 600.6543,-165.9029 600.6543,-165.9029 600.6543,-165.9029 604.142,-166.1952 600.9174,-162.7639 607.6298,-166.4876 607.6298,-166.4876"/>
<text text-anchor="start" x="347" y="-161.4" font-family="Lato" font-size="12.00" fill="#000000">a &amp; b</text>
<text text-anchor="start" x="354" y="-148.4" font-family="Lato" font-size="12.00" fill="#6a3d9a">❸</text>
</g>
<!-- 8 -->
<g id="node10" class="node">
<title>8</title>
<ellipse fill="#ffffa0" stroke="#000000" cx="308" cy="-57" rx="18" ry="18"/>
<text text-anchor="middle" x="308" y="-53.9" font-family="Lato" font-size="12.00" fill="#000000">8</text>
</g>
<!-- 3&#45;&gt;8 -->
<g id="edge9" class="edge">
<title>3&#45;&gt;8</title>
<path fill="none" stroke="#000000" d="M172.6675,-89.8829C182.5314,-77.3318 198.4413,-60.3843 217,-53 238.2734,-44.5356 264.5906,-46.9247 283.4423,-50.5982"/>
<polygon fill="#000000" stroke="#000000" points="290.5257,-52.1066 283.0231,-53.7295 287.1025,-51.3776 283.6792,-50.6486 283.6792,-50.6486 283.6792,-50.6486 287.1025,-51.3776 284.3354,-47.5677 290.5257,-52.1066 290.5257,-52.1066"/>
<text text-anchor="start" x="219.5" y="-69.4" font-family="Lato" font-size="12.00" fill="#000000">!a &amp; b</text>
<text text-anchor="start" x="228" y="-56.4" font-family="Lato" font-size="12.00" fill="#ff4da0">❶</text>
</g>
<!-- 8&#45;&gt;7 -->
<g id="edge21" class="edge">
<title>8&#45;&gt;7</title>
<path fill="none" stroke="#000000" d="M325.5082,-52.7123C346.4263,-47.9729 382.547,-41 414,-41 414,-41 414,-41 726.5,-41 752.7061,-41 782.1625,-47.0034 802.3746,-52.0761"/>
<polygon fill="#000000" stroke="#000000" points="809.3798,-53.8901 801.8136,-55.1847 805.9915,-53.0127 802.6033,-52.1353 802.6033,-52.1353 802.6033,-52.1353 805.9915,-53.0127 803.393,-49.0858 809.3798,-53.8901 809.3798,-53.8901"/>
<text text-anchor="start" x="556" y="-57.4" font-family="Lato" font-size="12.00" fill="#000000">!a &amp; !b</text>
<text text-anchor="start" x="566" y="-44.4" font-family="Lato" font-size="12.00" fill="#6a3d9a">❸</text>
</g>
<!-- 8&#45;&gt;5 -->
<g id="edge24" class="edge">
<title>8&#45;&gt;5</title>
<path fill="none" stroke="#000000" d="M321.1666,-44.3499C340.089,-27.5572 376.8074,0 414,0 414,0 414,0 897.5,0 905.3067,0 942.2928,-99.1084 959.3479,-145.9791"/>
<polygon fill="#000000" stroke="#000000" points="961.8103,-152.764 956.4611,-147.2585 960.6162,-149.4739 959.4222,-146.1839 959.4222,-146.1839 959.4222,-146.1839 960.6162,-149.4739 962.3832,-145.1092 961.8103,-152.764 961.8103,-152.764"/>
<text text-anchor="start" x="662" y="-16.4" font-family="Lato" font-size="12.00" fill="#000000">a &amp; !b</text>
<text text-anchor="start" x="670.5" y="-3.4" font-family="Lato" font-size="12.00" fill="#ff7f00">❷</text>
</g>
<!-- 8&#45;&gt;2 -->
<g id="edge22" class="edge">
<title>8&#45;&gt;2</title>
<path fill="none" stroke="#000000" d="M325.24,-63.0553C339.758,-68.4638 360.8414,-77.0541 378,-87 424.9253,-114.2002 474.3312,-154.4698 500.7057,-177.0537"/>
<polygon fill="#000000" stroke="#000000" points="506.2836,-181.861 498.9247,-179.6772 503.6324,-179.576 500.9811,-177.2911 500.9811,-177.2911 500.9811,-177.2911 503.6324,-179.576 503.0376,-174.905 506.2836,-181.861 506.2836,-181.861"/>
<text text-anchor="start" x="398.5" y="-144.4" font-family="Lato" font-size="12.00" fill="#000000">a &amp; !b</text>
<text text-anchor="start" x="407" y="-131.4" font-family="Lato" font-size="12.00" fill="#6a3d9a">❸</text>
</g>
<!-- 8&#45;&gt;9 -->
<g id="edge23" class="edge">
<title>8&#45;&gt;9</title>
<path fill="none" stroke="#000000" d="M322.5934,-68.1981C329.0928,-73.1194 336.8741,-78.9221 344,-84 358.8575,-94.5874 366.4691,-92.8622 378,-107 392.9581,-125.3397 402.5116,-150.7622 407.9893,-169.3901"/>
<polygon fill="#000000" stroke="#000000" points="409.9584,-176.4167 405.0363,-170.5263 409.0139,-173.0465 408.0695,-169.6763 408.0695,-169.6763 408.0695,-169.6763 409.0139,-173.0465 411.1026,-168.8263 409.9584,-176.4167 409.9584,-176.4167"/>
<text text-anchor="start" x="344" y="-123.4" font-family="Lato" font-size="12.00" fill="#000000">!a &amp; !b</text>
<text text-anchor="start" x="354" y="-110.4" font-family="Lato" font-size="12.00" fill="#ff4da0">❶</text>
</g>
<!-- 8&#45;&gt;3 -->
<g id="edge20" class="edge">
<title>8&#45;&gt;3</title>
<path fill="none" stroke="#000000" d="M291.7774,-65.4826C282.86,-69.9171 271.5046,-75.1975 261,-79 236.2963,-87.9423 207.1073,-95.2276 186.8529,-99.7873"/>
<polygon fill="#000000" stroke="#000000" points="179.8199,-101.3419 185.975,-96.7552 183.2374,-100.5864 186.6549,-99.831 186.6549,-99.831 186.6549,-99.831 183.2374,-100.5864 187.3348,-102.9067 179.8199,-101.3419 179.8199,-101.3419"/>
<text text-anchor="start" x="219.5" y="-109.4" font-family="Lato" font-size="12.00" fill="#000000">!a &amp; b</text>
<text text-anchor="start" x="228" y="-96.4" font-family="Lato" font-size="12.00" fill="#ff4da0">❶</text>
</g>
<!-- 4&#45;&gt;0 -->
<g id="edge11" class="edge">
<title>4&#45;&gt;0</title>
<path fill="none" stroke="#000000" d="M216.6678,-246.4167C205.9737,-246.6389 192.2237,-246.8889 180,-247 160.4453,-247.1778 155.5249,-248.0948 136,-247 117.6519,-245.9712 97.0477,-243.625 81.345,-241.5861"/>
<polygon fill="#000000" stroke="#000000" points="74.0616,-240.617 81.4159,-238.4179 77.531,-241.0787 81.0004,-241.5403 81.0004,-241.5403 81.0004,-241.5403 77.531,-241.0787 80.5849,-244.6628 74.0616,-240.617 74.0616,-240.617"/>
<text text-anchor="start" x="146.5" y="-263.4" font-family="Lato" font-size="12.00" fill="#000000">!a &amp; b</text>
<text text-anchor="start" x="155" y="-250.4" font-family="Lato" font-size="12.00" fill="#6a3d9a">❸</text>
</g>
<!-- 4&#45;&gt;2 -->
<g id="edge10" class="edge">
<title>4&#45;&gt;2</title>
<path fill="none" stroke="#000000" d="M251.91,-252.9596C287.9012,-266.6867 374.1725,-293.7768 440,-268 467.2239,-257.3396 490.7314,-232.5852 505.0893,-214.6366"/>
<polygon fill="#000000" stroke="#000000" points="509.5999,-208.8408 507.7866,-216.2997 507.4503,-211.6029 505.3007,-214.365 505.3007,-214.365 505.3007,-214.365 507.4503,-211.6029 502.8148,-212.4303 509.5999,-208.8408 509.5999,-208.8408"/>
<text text-anchor="start" x="345.5" y="-294.4" font-family="Lato" font-size="12.00" fill="#000000">!a &amp; b</text>
<text text-anchor="start" x="354" y="-281.4" font-family="Lato" font-size="12.00" fill="#ff4da0">❶</text>
</g>
<!-- 4&#45;&gt;9 -->
<g id="edge12" class="edge">
<title>4&#45;&gt;9</title>
<path fill="none" stroke="#000000" d="M252.4892,-240.9193C284.6535,-231.5755 353.2433,-211.65 389.8325,-201.0207"/>
<polygon fill="#000000" stroke="#000000" points="396.7034,-199.0247 390.86,-204.0025 393.3423,-200.0012 389.9813,-200.9776 389.9813,-200.9776 389.9813,-200.9776 393.3423,-200.0012 389.1025,-197.9526 396.7034,-199.0247 396.7034,-199.0247"/>
<text text-anchor="start" x="292.5" y="-245.4" font-family="Lato" font-size="12.00" fill="#000000">a &amp; !b</text>
<text text-anchor="start" x="301" y="-232.4" font-family="Lato" font-size="12.00" fill="#1f78b4">⓿</text>
</g>
</g>
</svg>
