<?xml version="1.0" encoding="UTF-8" standalone="no"?>
<?xml-stylesheet href="spot.css" type="text/css"?>
<!DOCTYPE svg PUBLIC "-//W3C//DTD SVG 1.1//EN"
 "http://www.w3.org/Graphics/SVG/1.1/DTD/svg11.dtd">
<!-- Generated by graphviz version 2.40.1 (20161225.0304)
 -->
<!-- Pages: 1 -->
<svg width="1142pt" height="364pt"
 viewBox="0.00 0.00 1141.75 364.00" xmlns="http://www.w3.org/2000/svg" xmlns:xlink="http://www.w3.org/1999/xlink">
<g id="graph0" class="graph" transform="scale(1 1) rotate(0) translate(4 360)">
<polygon fill="#ffffff" stroke="transparent" points="-4,4 -4,-360 1137.7494,-360 1137.7494,4 -4,4"/>
<text text-anchor="start" x="472.3747" y="-343.4" font-family="Lato" font-size="12.00" fill="#000000">Inf(</text>
<text text-anchor="start" x="490.3747" y="-343.4" font-family="Lato" font-size="12.00" fill="#1f78b4">⓿</text>
<text text-anchor="start" x="504.3747" y="-343.4" font-family="Lato" font-size="12.00" fill="#000000">) | (Fin(</text>
<text text-anchor="start" x="539.3747" y="-343.4" font-family="Lato" font-size="12.00" fill="#ff4da0">❶</text>
<text text-anchor="start" x="553.3747" y="-343.4" font-family="Lato" font-size="12.00" fill="#000000">) &amp; (Inf(</text>
<text text-anchor="start" x="591.3747" y="-343.4" font-family="Lato" font-size="12.00" fill="#ff7f00">❷</text>
<text text-anchor="start" x="605.3747" y="-343.4" font-family="Lato" font-size="12.00" fill="#000000">) | Fin(</text>
<text text-anchor="start" x="637.3747" y="-343.4" font-family="Lato" font-size="12.00" fill="#6a3d9a">❸</text>
<text text-anchor="start" x="651.3747" y="-343.4" font-family="Lato" font-size="12.00" fill="#000000">)))</text>
<text text-anchor="start" x="517.3747" y="-331.4" font-family="Lato" font-size="12.00" fill="#000000">[parity min even 4]</text>
<!-- I -->
<!-- 0 -->
<g id="node2" class="node">
<title>0</title>
<ellipse fill="#ffffa0" stroke="#000000" cx="62.0416" cy="-126" rx="24.0833" ry="24.0833"/>
<text text-anchor="start" x="58.5416" y="-129.4" font-family="Lato" font-size="12.00" fill="#000000">0</text>
<text text-anchor="start" x="55.0416" y="-116.4" font-family="Lato" font-size="12.00" fill="#ff4da0">❶</text>
</g>
<!-- I&#45;&gt;0 -->
<g id="edge1" class="edge">
<title>I&#45;&gt;0</title>
<path fill="none" stroke="#000000" d="M1.1911,-126C4.2886,-126 17.3195,-126 30.5321,-126"/>
<polygon fill="#000000" stroke="#000000" points="37.8292,-126 30.8292,-129.1501 34.3292,-126 30.8292,-126.0001 30.8292,-126.0001 30.8292,-126.0001 34.3292,-126 30.8291,-122.8501 37.8292,-126 37.8292,-126"/>
</g>
<!-- 0&#45;&gt;0 -->
<g id="edge4" class="edge">
<title>0&#45;&gt;0</title>
<path fill="none" stroke="#000000" d="M54.2897,-148.9197C53.5514,-159.1735 56.1354,-168.0416 62.0416,-168.0416 66.4713,-168.0416 69.0322,-163.0533 69.7244,-156.2333"/>
<polygon fill="#000000" stroke="#000000" points="69.7936,-148.9197 72.8771,-155.9492 69.7604,-152.4195 69.7272,-155.9194 69.7272,-155.9194 69.7272,-155.9194 69.7604,-152.4195 66.5774,-155.8895 69.7936,-148.9197 69.7936,-148.9197"/>
<text text-anchor="start" x="39.5416" y="-171.4416" font-family="Lato" font-size="12.00" fill="#000000">p0 &amp; !p1</text>
</g>
<!-- 2 -->
<g id="node3" class="node">
<title>2</title>
<ellipse fill="#ffffa0" stroke="#000000" cx="194.1249" cy="-158" rx="24.0833" ry="24.0833"/>
<text text-anchor="start" x="190.6249" y="-161.4" font-family="Lato" font-size="12.00" fill="#000000">2</text>
<text text-anchor="start" x="187.1249" y="-148.4" font-family="Lato" font-size="12.00" fill="#ff7f00">❷</text>
</g>
<!-- 0&#45;&gt;2 -->
<g id="edge2" class="edge">
<title>0&#45;&gt;2</title>
<path fill="none" stroke="#000000" d="M85.6555,-131.721C107.4433,-136.9995 139.9152,-144.8665 163.6511,-150.6171"/>
<polygon fill="#000000" stroke="#000000" points="170.7155,-152.3286 163.1706,-153.7417 167.3139,-151.5044 163.9123,-150.6803 163.9123,-150.6803 163.9123,-150.6803 167.3139,-151.5044 164.654,-147.6188 170.7155,-152.3286 170.7155,-152.3286"/>
<text text-anchor="start" x="104.0833" y="-150.4" font-family="Lato" font-size="12.00" fill="#000000">!p0 &amp; !p1</text>
</g>
<!-- 8 -->
<g id="node4" class="node">
<title>8</title>
<ellipse fill="#ffffa0" stroke="#000000" cx="455.2914" cy="-292" rx="24.0833" ry="24.0833"/>
<text text-anchor="start" x="451.7914" y="-295.4" font-family="Lato" font-size="12.00" fill="#000000">8</text>
<text text-anchor="start" x="448.2914" y="-282.4" font-family="Lato" font-size="12.00" fill="#1f78b4">⓿</text>
</g>
<!-- 0&#45;&gt;8 -->
<g id="edge3" class="edge">
<title>0&#45;&gt;8</title>
<path fill="none" stroke="#000000" d="M78.9576,-143.2168C115.5716,-178.9956 206.6032,-260.1232 302.1665,-285 343.2944,-295.7063 392.698,-295.7791 424.0474,-294.3188"/>
<polygon fill="#000000" stroke="#000000" points="431.2254,-293.9427 424.3999,-297.4547 427.7302,-294.1258 424.235,-294.309 424.235,-294.309 424.235,-294.309 427.7302,-294.1258 424.0702,-291.1633 431.2254,-293.9427 431.2254,-293.9427"/>
<text text-anchor="start" x="236.1665" y="-282.4" font-family="Lato" font-size="12.00" fill="#000000">!p0 &amp; !p1</text>
</g>
<!-- 6 -->
<g id="node5" class="node">
<title>6</title>
<ellipse fill="#ffffa0" stroke="#000000" cx="977.6245" cy="-104" rx="24.0833" ry="24.0833"/>
<text text-anchor="start" x="974.1245" y="-107.4" font-family="Lato" font-size="12.00" fill="#000000">6</text>
<text text-anchor="start" x="970.6245" y="-94.4" font-family="Lato" font-size="12.00" fill="#1f78b4">⓿</text>
</g>
<!-- 0&#45;&gt;6 -->
<g id="edge5" class="edge">
<title>0&#45;&gt;6</title>
<path fill="none" stroke="#000000" d="M72.4375,-104.0525C91.2396,-67.9526 134.5448,0 194.1249,0 194.1249,0 194.1249,0 848.5412,0 897.915,0 939.0857,-46.7087 960.8733,-77.521"/>
<polygon fill="#000000" stroke="#000000" points="964.9691,-83.4529 958.3996,-79.4824 962.9804,-80.5728 960.9918,-77.6926 960.9918,-77.6926 960.9918,-77.6926 962.9804,-80.5728 963.5839,-75.9028 964.9691,-83.4529 964.9691,-83.4529"/>
<text text-anchor="start" x="498.833" y="-3.4" font-family="Lato" font-size="12.00" fill="#000000">!p0 &amp; p1</text>
</g>
<!-- 5 -->
<g id="node7" class="node">
<title>5</title>
<ellipse fill="#ffffa0" stroke="#000000" cx="326.2082" cy="-158" rx="24.0833" ry="24.0833"/>
<text text-anchor="start" x="322.7082" y="-161.4" font-family="Lato" font-size="12.00" fill="#000000">5</text>
<text text-anchor="start" x="319.2082" y="-148.4" font-family="Lato" font-size="12.00" fill="#1f78b4">⓿</text>
</g>
<!-- 2&#45;&gt;5 -->
<g id="edge9" class="edge">
<title>2&#45;&gt;5</title>
<path fill="none" stroke="#000000" d="M218.351,-158C239.8557,-158 271.4093,-158 294.8376,-158"/>
<polygon fill="#000000" stroke="#000000" points="302.1356,-158 295.1357,-161.1501 298.6356,-158 295.1356,-158.0001 295.1356,-158.0001 295.1356,-158.0001 298.6356,-158 295.1356,-154.8501 302.1356,-158 302.1356,-158"/>
<text text-anchor="start" x="236.1665" y="-161.4" font-family="Lato" font-size="12.00" fill="#000000">!p0 &amp; !p1</text>
</g>
<!-- 4 -->
<g id="node9" class="node">
<title>4</title>
<ellipse fill="#ffffa0" stroke="#000000" cx="587.3747" cy="-256" rx="24.0833" ry="24.0833"/>
<text text-anchor="start" x="583.8747" y="-259.4" font-family="Lato" font-size="12.00" fill="#000000">4</text>
<text text-anchor="start" x="580.3747" y="-246.4" font-family="Lato" font-size="12.00" fill="#1f78b4">⓿</text>
</g>
<!-- 2&#45;&gt;4 -->
<g id="edge8" class="edge">
<title>2&#45;&gt;4</title>
<path fill="none" stroke="#000000" d="M216.6226,-167.7018C222.8906,-170.2387 229.7429,-172.8596 236.1665,-175 351.6852,-213.4928 494.5086,-240.2675 556.3832,-250.8981"/>
<polygon fill="#000000" stroke="#000000" points="563.5203,-252.1142 556.0906,-254.0436 560.07,-251.5263 556.6197,-250.9383 556.6197,-250.9383 556.6197,-250.9383 560.07,-251.5263 557.1489,-247.8331 563.5203,-252.1142 563.5203,-252.1142"/>
<text text-anchor="start" x="369.7498" y="-225.4" font-family="Lato" font-size="12.00" fill="#000000">p0 &amp; p1</text>
</g>
<!-- 8&#45;&gt;0 -->
<g id="edge24" class="edge">
<title>8&#45;&gt;0</title>
<path fill="none" stroke="#000000" d="M433.0344,-302.1895C426.7673,-304.5814 419.8553,-306.7855 413.2498,-308 335.666,-322.2642 310.0098,-323.7466 236.1665,-296 167.9874,-270.3817 152.5091,-253.4025 104.0833,-199 92.362,-185.8321 82.3579,-168.8801 75.0526,-154.6269"/>
<polygon fill="#000000" stroke="#000000" points="71.8896,-148.2913 77.8347,-153.1471 73.453,-151.4228 75.0164,-154.5542 75.0164,-154.5542 75.0164,-154.5542 73.453,-151.4228 72.1981,-155.9613 71.8896,-148.2913 71.8896,-148.2913"/>
<text text-anchor="start" x="237.6665" y="-314.4" font-family="Lato" font-size="12.00" fill="#000000">!p0 &amp; p1</text>
</g>
<!-- 8&#45;&gt;2 -->
<g id="edge23" class="edge">
<title>8&#45;&gt;2</title>
<path fill="none" stroke="#000000" d="M431.4287,-287.3235C381.3253,-277.1441 267.2331,-251.9646 236.1665,-228 222.5391,-217.4879 212.3817,-201.2029 205.4679,-186.9848"/>
<polygon fill="#000000" stroke="#000000" points="202.5187,-180.6258 208.3215,-185.6507 203.9913,-183.8009 205.4639,-186.9761 205.4639,-186.9761 205.4639,-186.9761 203.9913,-183.8009 202.6063,-188.3014 202.5187,-180.6258 202.5187,-180.6258"/>
<text text-anchor="start" x="303.7082" y="-271.4" font-family="Lato" font-size="12.00" fill="#000000">p0 &amp; !p1</text>
</g>
<!-- 8&#45;&gt;4 -->
<g id="edge22" class="edge">
<title>8&#45;&gt;4</title>
<path fill="none" stroke="#000000" d="M478.6012,-285.6468C500.4407,-279.6943 533.2061,-270.7639 557.0669,-264.2605"/>
<polygon fill="#000000" stroke="#000000" points="563.8536,-262.4108 557.9283,-267.2907 560.4768,-263.3312 557.1,-264.2516 557.1,-264.2516 557.1,-264.2516 560.4768,-263.3312 556.2716,-261.2125 563.8536,-262.4108 563.8536,-262.4108"/>
<text text-anchor="start" x="498.833" y="-283.4" font-family="Lato" font-size="12.00" fill="#000000">p0 &amp; !p1</text>
</g>
<!-- 3 -->
<g id="node10" class="node">
<title>3</title>
<ellipse fill="#ffffa0" stroke="#000000" cx="1109.7077" cy="-171" rx="24.0833" ry="24.0833"/>
<text text-anchor="start" x="1106.2077" y="-174.4" font-family="Lato" font-size="12.00" fill="#000000">3</text>
<text text-anchor="start" x="1102.7077" y="-161.4" font-family="Lato" font-size="12.00" fill="#1f78b4">⓿</text>
</g>
<!-- 8&#45;&gt;3 -->
<g id="edge21" class="edge">
<title>8&#45;&gt;3</title>
<path fill="none" stroke="#000000" d="M479.0477,-296.6279C505.4087,-301.3533 549.2617,-308 587.3747,-308 587.3747,-308 587.3747,-308 977.6245,-308 1037.121,-308 1078.2719,-240.2075 1097.4465,-199.9992"/>
<polygon fill="#000000" stroke="#000000" points="1100.5529,-193.3163 1100.4587,-200.9919 1099.0776,-196.4902 1097.6022,-199.6641 1097.6022,-199.6641 1097.6022,-199.6641 1099.0776,-196.4902 1094.7457,-198.3362 1100.5529,-193.3163 1100.5529,-193.3163"/>
<text text-anchor="start" x="759.9996" y="-311.4" font-family="Lato" font-size="12.00" fill="#000000">!p0 &amp; p1</text>
</g>
<!-- 6&#45;&gt;2 -->
<g id="edge17" class="edge">
<title>6&#45;&gt;2</title>
<path fill="none" stroke="#000000" d="M953.4711,-102.4593C865.4626,-97.3285 553.9316,-83.3987 302.1665,-125 274.928,-129.5009 244.9779,-139.0296 223.5338,-146.6961"/>
<polygon fill="#000000" stroke="#000000" points="216.8846,-149.111 222.3888,-143.7606 220.1744,-147.9162 223.4641,-146.7213 223.4641,-146.7213 223.4641,-146.7213 220.1744,-147.9162 224.5395,-149.6821 216.8846,-149.111 216.8846,-149.111"/>
<text text-anchor="start" x="563.3747" y="-102.4" font-family="Lato" font-size="12.00" fill="#000000">!p0 &amp; !p1</text>
</g>
<!-- 6&#45;&gt;3 -->
<g id="edge18" class="edge">
<title>6&#45;&gt;3</title>
<path fill="none" stroke="#000000" d="M1000.2814,-112.9359C1018.7699,-120.494 1045.3825,-131.986 1067.6661,-144 1072.9345,-146.8405 1078.4172,-150.1112 1083.6158,-153.3739"/>
<polygon fill="#000000" stroke="#000000" points="1089.5582,-157.1741 1081.9639,-156.0565 1086.6096,-155.2885 1083.661,-153.4028 1083.661,-153.4028 1083.661,-153.4028 1086.6096,-155.2885 1085.3581,-150.749 1089.5582,-157.1741 1089.5582,-157.1741"/>
<text text-anchor="start" x="1019.6661" y="-147.4" font-family="Lato" font-size="12.00" fill="#000000">!p0 &amp; !p1</text>
</g>
<!-- 1 -->
<g id="node6" class="node">
<title>1</title>
<ellipse fill="#ffffa0" stroke="#000000" cx="716.4579" cy="-171" rx="24.0833" ry="24.0833"/>
<text text-anchor="start" x="712.9579" y="-174.4" font-family="Lato" font-size="12.00" fill="#000000">1</text>
<text text-anchor="start" x="709.4579" y="-161.4" font-family="Lato" font-size="12.00" fill="#6a3d9a">❸</text>
</g>
<!-- 1&#45;&gt;5 -->
<g id="edge6" class="edge">
<title>1&#45;&gt;5</title>
<path fill="none" stroke="#000000" d="M692.7775,-166.7807C671.5525,-163.2533 639.5216,-158.5566 611.4163,-157 519.1033,-151.8872 409.7266,-154.7646 357.2858,-156.6965"/>
<polygon fill="#000000" stroke="#000000" points="350.2718,-156.9619 357.1476,-153.5494 353.7693,-156.8295 357.2668,-156.6971 357.2668,-156.6971 357.2668,-156.6971 353.7693,-156.8295 357.3859,-159.8449 350.2718,-156.9619 350.2718,-156.9619"/>
<text text-anchor="start" x="497.333" y="-157.4" font-family="Lato" font-size="12.00" fill="#000000">!p0 &amp; !p1</text>
</g>
<!-- 9 -->
<g id="node8" class="node">
<title>9</title>
<ellipse fill="#ffffa0" stroke="#000000" cx="848.5412" cy="-52" rx="24.0833" ry="24.0833"/>
<text text-anchor="start" x="845.0412" y="-55.4" font-family="Lato" font-size="12.00" fill="#000000">9</text>
<text text-anchor="start" x="841.5412" y="-42.4" font-family="Lato" font-size="12.00" fill="#ff4da0">❶</text>
</g>
<!-- 1&#45;&gt;9 -->
<g id="edge7" class="edge">
<title>1&#45;&gt;9</title>
<path fill="none" stroke="#000000" d="M734.5466,-154.7031C758.1607,-133.428 799.5214,-96.1643 825.3965,-72.8521"/>
<polygon fill="#000000" stroke="#000000" points="830.671,-68.1001 827.5788,-75.1259 828.0707,-70.4429 825.4704,-72.7856 825.4704,-72.7856 825.4704,-72.7856 828.0707,-70.4429 823.3619,-70.4453 830.671,-68.1001 830.671,-68.1001"/>
<text text-anchor="start" x="759.9996" y="-135.4" font-family="Lato" font-size="12.00" fill="#000000">!p0 &amp; p1</text>
</g>
<!-- 5&#45;&gt;0 -->
<g id="edge14" class="edge">
<title>5&#45;&gt;0</title>
<path fill="none" stroke="#000000" d="M305.1079,-145.983C283.9128,-134.6553 249.9269,-118.4797 218.1665,-112 174.9086,-103.1745 123.7784,-111.157 92.1255,-118.1888"/>
<polygon fill="#000000" stroke="#000000" points="85.2898,-119.7602 91.406,-115.1219 88.7008,-118.976 92.1118,-118.1918 92.1118,-118.1918 92.1118,-118.1918 88.7008,-118.976 92.8176,-121.2618 85.2898,-119.7602 85.2898,-119.7602"/>
<text text-anchor="start" x="170.1249" y="-115.4" font-family="Lato" font-size="12.00" fill="#000000">!p0 &amp; !p1</text>
</g>
<!-- 5&#45;&gt;8 -->
<g id="edge15" class="edge">
<title>5&#45;&gt;8</title>
<path fill="none" stroke="#000000" d="M348.6856,-167.0871C372.8178,-176.9966 408.3726,-192.1003 413.2498,-197 430.778,-214.6091 441.6157,-240.7758 447.8879,-261.1911"/>
<polygon fill="#000000" stroke="#000000" points="449.9195,-268.1489 444.9337,-262.3124 448.9384,-264.7892 447.9574,-261.4295 447.9574,-261.4295 447.9574,-261.4295 448.9384,-264.7892 450.9812,-260.5465 449.9195,-268.1489 449.9195,-268.1489"/>
<text text-anchor="start" x="368.2498" y="-200.4" font-family="Lato" font-size="12.00" fill="#000000">p0 &amp; !p1</text>
</g>
<!-- 7 -->
<g id="node11" class="node">
<title>7</title>
<ellipse fill="#ffffa0" stroke="#000000" cx="587.3747" cy="-190" rx="24.0833" ry="24.0833"/>
<text text-anchor="start" x="583.8747" y="-193.4" font-family="Lato" font-size="12.00" fill="#000000">7</text>
<text text-anchor="start" x="580.3747" y="-180.4" font-family="Lato" font-size="12.00" fill="#ff7f00">❷</text>
</g>
<!-- 5&#45;&gt;7 -->
<g id="edge16" class="edge">
<title>5&#45;&gt;7</title>
<path fill="none" stroke="#000000" d="M350.3099,-160.9531C397.8282,-166.7754 503.5534,-179.7296 556.2578,-186.1873"/>
<polygon fill="#000000" stroke="#000000" points="563.3311,-187.054 556,-189.3292 559.8571,-186.6283 556.3831,-186.2026 556.3831,-186.2026 556.3831,-186.2026 559.8571,-186.6283 556.7662,-183.076 563.3311,-187.054 563.3311,-187.054"/>
<text text-anchor="start" x="431.2914" y="-179.4" font-family="Lato" font-size="12.00" fill="#000000">!p0 &amp; !p1</text>
</g>
<!-- 9&#45;&gt;0 -->
<g id="edge25" class="edge">
<title>9&#45;&gt;0</title>
<path fill="none" stroke="#000000" d="M824.1976,-51.7054C797.6958,-51.4104 754.0661,-51 716.4579,-51 194.1249,-51 194.1249,-51 194.1249,-51 150.9769,-51 109.0265,-81.6394 84.3698,-103.7513"/>
<polygon fill="#000000" stroke="#000000" points="79.0791,-108.605 82.1078,-101.5516 81.6582,-106.2389 84.2373,-103.8728 84.2373,-103.8728 84.2373,-103.8728 81.6582,-106.2389 86.3668,-106.194 79.0791,-108.605 79.0791,-108.605"/>
<text text-anchor="start" x="434.2914" y="-54.4" font-family="Lato" font-size="12.00" fill="#000000">p0 &amp; p1</text>
</g>
<!-- 9&#45;&gt;6 -->
<g id="edge26" class="edge">
<title>9&#45;&gt;6</title>
<path fill="none" stroke="#000000" d="M872.102,-56.8047C889.9968,-60.9165 914.9594,-67.659 935.5828,-77 941.035,-79.4695 946.6024,-82.5692 951.8267,-85.7801"/>
<polygon fill="#000000" stroke="#000000" points="957.7745,-89.5693 950.1783,-88.4648 954.8227,-87.6887 951.8708,-85.8081 951.8708,-85.8081 951.8708,-85.8081 954.8227,-87.6887 953.5633,-83.1514 957.7745,-89.5693 957.7745,-89.5693"/>
<text text-anchor="start" x="890.5828" y="-80.4" font-family="Lato" font-size="12.00" fill="#000000">p0 &amp; !p1</text>
</g>
<!-- 4&#45;&gt;6 -->
<g id="edge12" class="edge">
<title>4&#45;&gt;6</title>
<path fill="none" stroke="#000000" d="M611.0673,-260.4941C661.4595,-268.9369 782.062,-283.1639 872.5828,-246 921.2501,-226.0194 951.8636,-169.044 966.7638,-133.6329"/>
<polygon fill="#000000" stroke="#000000" points="969.5351,-126.8556 969.8013,-134.5271 968.2104,-130.0952 966.8857,-133.3348 966.8857,-133.3348 966.8857,-133.3348 968.2104,-130.0952 963.97,-132.1426 969.5351,-126.8556 969.5351,-126.8556"/>
<text text-anchor="start" x="758.4996" y="-272.4" font-family="Lato" font-size="12.00" fill="#000000">!p0 &amp; !p1</text>
</g>
<!-- 4&#45;&gt;1 -->
<g id="edge13" class="edge">
<title>4&#45;&gt;1</title>
<path fill="none" stroke="#000000" d="M607.5439,-242.7188C629.769,-228.0838 665.5999,-204.4895 690.0489,-188.3901"/>
<polygon fill="#000000" stroke="#000000" points="696.0043,-184.4685 691.8904,-190.9491 693.0811,-186.3934 690.158,-188.3183 690.158,-188.3183 690.158,-188.3183 693.0811,-186.3934 688.4256,-185.6874 696.0043,-184.4685 696.0043,-184.4685"/>
<text text-anchor="start" x="630.9163" y="-229.4" font-family="Lato" font-size="12.00" fill="#000000">p0 &amp; p1</text>
</g>
<!-- 3&#45;&gt;6 -->
<g id="edge10" class="edge">
<title>3&#45;&gt;6</title>
<path fill="none" stroke="#000000" d="M1101.0727,-148.5518C1094.2955,-134.2678 1083.3584,-116.8471 1067.6661,-108 1049.8568,-97.9594 1026.7721,-97.1258 1008.4357,-98.7166"/>
<polygon fill="#000000" stroke="#000000" points="1001.4081,-99.4624 1008.0366,-95.5912 1004.8886,-99.093 1008.3691,-98.7236 1008.3691,-98.7236 1008.3691,-98.7236 1004.8886,-99.093 1008.7015,-101.856 1001.4081,-99.4624 1001.4081,-99.4624"/>
<text text-anchor="start" x="1021.1661" y="-111.4" font-family="Lato" font-size="12.00" fill="#000000">p0 &amp; !p1</text>
</g>
<!-- 3&#45;&gt;1 -->
<g id="edge11" class="edge">
<title>3&#45;&gt;1</title>
<path fill="none" stroke="#000000" d="M1085.5672,-171C1017.6075,-171 824.6599,-171 748.2148,-171"/>
<polygon fill="#000000" stroke="#000000" points="740.7607,-171 747.7607,-167.8501 744.2607,-171 747.7607,-171.0001 747.7607,-171.0001 747.7607,-171.0001 744.2607,-171 747.7607,-174.1501 740.7607,-171 740.7607,-171"/>
<text text-anchor="start" x="890.5828" y="-174.4" font-family="Lato" font-size="12.00" fill="#000000">!p0 &amp; p1</text>
</g>
<!-- 7&#45;&gt;1 -->
<g id="edge20" class="edge">
<title>7&#45;&gt;1</title>
<path fill="none" stroke="#000000" d="M609.0957,-178.7828C615.4758,-176.0208 622.5799,-173.4429 629.4163,-172 647.4964,-168.1839 668.1622,-167.7851 684.819,-168.4097"/>
<polygon fill="#000000" stroke="#000000" points="692.1664,-168.7601 685.0242,-171.573 688.6703,-168.5933 685.1743,-168.4265 685.1743,-168.4265 685.1743,-168.4265 688.6703,-168.5933 685.3244,-165.2801 692.1664,-168.7601 692.1664,-168.7601"/>
<text text-anchor="start" x="629.4163" y="-175.4" font-family="Lato" font-size="12.00" fill="#000000">!p0 &amp; p1</text>
</g>
<!-- 7&#45;&gt;3 -->
<g id="edge19" class="edge">
<title>7&#45;&gt;3</title>
<path fill="none" stroke="#000000" d="M604.7627,-206.6925C611.8385,-212.3854 620.4569,-218.054 629.4163,-221 648.4155,-227.2473 654.4371,-221.9126 674.4163,-221 849.742,-212.9917 895.8817,-220.9635 1067.6661,-185 1071.718,-184.1517 1075.9241,-183.0415 1080.0406,-181.8168"/>
<polygon fill="#000000" stroke="#000000" points="1086.8405,-179.674 1081.111,-184.7823 1083.5024,-180.726 1080.1642,-181.778 1080.1642,-181.778 1080.1642,-181.778 1083.5024,-180.726 1079.2174,-178.7736 1086.8405,-179.674 1086.8405,-179.674"/>
<text text-anchor="start" x="826.0412" y="-218.4" font-family="Lato" font-size="12.00" fill="#000000">!p0 &amp; p1</text>
</g>
</g>
</svg>
