<?xml version="1.0" encoding="UTF-8" standalone="no"?>
<?xml-stylesheet href="spot.css" type="text/css"?>
<!DOCTYPE svg PUBLIC "-//W3C//DTD SVG 1.1//EN"
 "http://www.w3.org/Graphics/SVG/1.1/DTD/svg11.dtd">
<!-- Generated by graphviz version 2.40.1 (20161225.0304)
 -->
<!-- Pages: 1 -->
<svg width="622pt" height="266pt"
 viewBox="0.00 0.00 621.95 266.00" xmlns="http://www.w3.org/2000/svg" xmlns:xlink="http://www.w3.org/1999/xlink">
<g id="graph0" class="graph" transform="scale(1 1) rotate(0) translate(4 262)">
<polygon fill="#ffffff" stroke="transparent" points="-4,4 -4,-262 617.9508,-262 617.9508,4 -4,4"/>
<text text-anchor="start" x="212.4754" y="-245.4" font-family="Lato" font-size="12.00" fill="#000000">(Fin(</text>
<text text-anchor="start" x="235.4754" y="-245.4" font-family="Lato" font-size="12.00" fill="#1f78b4">⓿</text>
<text text-anchor="start" x="249.4754" y="-245.4" font-family="Lato" font-size="12.00" fill="#000000">) | Inf(</text>
<text text-anchor="start" x="279.4754" y="-245.4" font-family="Lato" font-size="12.00" fill="#ff4da0">❶</text>
<text text-anchor="start" x="293.4754" y="-245.4" font-family="Lato" font-size="12.00" fill="#000000">)) &amp; (Fin(</text>
<text text-anchor="start" x="336.4754" y="-245.4" font-family="Lato" font-size="12.00" fill="#ff7f00">❷</text>
<text text-anchor="start" x="350.4754" y="-245.4" font-family="Lato" font-size="12.00" fill="#000000">) | Inf(</text>
<text text-anchor="start" x="380.4754" y="-245.4" font-family="Lato" font-size="12.00" fill="#6a3d9a">❸</text>
<text text-anchor="start" x="394.4754" y="-245.4" font-family="Lato" font-size="12.00" fill="#000000">))</text>
<text text-anchor="start" x="279.9754" y="-233.4" font-family="Lato" font-size="12.00" fill="#000000">[Streett 2]</text>
<!-- I -->
<!-- 0 -->
<g id="node2" class="node">
<title>0</title>
<ellipse fill="#ffffa0" stroke="#000000" cx="56" cy="-63" rx="18" ry="18"/>
<text text-anchor="middle" x="56" y="-59.9" font-family="Lato" font-size="12.00" fill="#000000">0</text>
</g>
<!-- I&#45;&gt;0 -->
<g id="edge1" class="edge">
<title>I&#45;&gt;0</title>
<path fill="none" stroke="#000000" d="M1.1233,-63C4.178,-63 17.9448,-63 30.9241,-63"/>
<polygon fill="#000000" stroke="#000000" points="37.9807,-63 30.9808,-66.1501 34.4807,-63 30.9807,-63.0001 30.9807,-63.0001 30.9807,-63.0001 34.4807,-63 30.9807,-59.8501 37.9807,-63 37.9807,-63"/>
</g>
<!-- 2 -->
<g id="node3" class="node">
<title>2</title>
<ellipse fill="#ffffa0" stroke="#000000" cx="189.1127" cy="-98" rx="31.2258" ry="31.2258"/>
<text text-anchor="start" x="185.6127" y="-101.4" font-family="Lato" font-size="12.00" fill="#000000">2</text>
<text text-anchor="start" x="175.1127" y="-89.4" font-family="Lato" font-size="12.00" fill="#1f78b4">⓿</text>
<text text-anchor="start" x="189.1127" y="-89.4" font-family="Lato" font-size="12.00" fill="#ff7f00">❷</text>
</g>
<!-- 0&#45;&gt;2 -->
<g id="edge2" class="edge">
<title>0&#45;&gt;2</title>
<path fill="none" stroke="#000000" d="M73.6763,-67.6477C93.5219,-72.8658 126.2897,-81.4816 151.8535,-88.2032"/>
<polygon fill="#000000" stroke="#000000" points="158.856,-90.0445 151.2851,-91.3108 155.4711,-89.1544 152.0861,-88.2643 152.0861,-88.2643 152.0861,-88.2643 155.4711,-89.1544 152.8872,-85.2179 158.856,-90.0445 158.856,-90.0445"/>
<text text-anchor="start" x="92" y="-87.4" font-family="Lato" font-size="12.00" fill="#000000">!p0 &amp; !p1</text>
</g>
<!-- 1 -->
<g id="node4" class="node">
<title>1</title>
<ellipse fill="#ffffa0" stroke="#000000" cx="325.2254" cy="-72" rx="18" ry="18"/>
<text text-anchor="middle" x="325.2254" y="-68.9" font-family="Lato" font-size="12.00" fill="#000000">1</text>
</g>
<!-- 0&#45;&gt;1 -->
<g id="edge3" class="edge">
<title>0&#45;&gt;1</title>
<path fill="none" stroke="#000000" d="M73.2969,-57.0719C111.9372,-44.7686 207.7997,-19.4901 283.2254,-43 291.3862,-45.5437 299.3606,-50.2884 306.1302,-55.214"/>
<polygon fill="#000000" stroke="#000000" points="311.9793,-59.7304 304.5136,-57.9455 309.209,-57.5913 306.4388,-55.4522 306.4388,-55.4522 306.4388,-55.4522 309.209,-57.5913 308.364,-52.959 311.9793,-59.7304 311.9793,-59.7304"/>
<text text-anchor="start" x="165.1127" y="-40.4" font-family="Lato" font-size="12.00" fill="#000000">!p0 &amp; !p1</text>
</g>
<!-- 3 -->
<g id="node5" class="node">
<title>3</title>
<ellipse fill="#ffffa0" stroke="#000000" cx="591.4508" cy="-167" rx="18" ry="18"/>
<text text-anchor="middle" x="591.4508" y="-163.9" font-family="Lato" font-size="12.00" fill="#000000">3</text>
</g>
<!-- 0&#45;&gt;3 -->
<g id="edge4" class="edge">
<title>0&#45;&gt;3</title>
<path fill="none" stroke="#000000" d="M61.8817,-80.2069C76.5634,-119.6071 118.7821,-213 189.1127,-213 189.1127,-213 189.1127,-213 464.3381,-213 503.332,-213 545.2546,-193.6228 569.8784,-180.0213"/>
<polygon fill="#000000" stroke="#000000" points="576.0508,-176.5312 571.5079,-182.7187 573.0041,-178.2539 569.9574,-179.9767 569.9574,-179.9767 569.9574,-179.9767 573.0041,-178.2539 568.407,-177.2346 576.0508,-176.5312 576.0508,-176.5312"/>
<text text-anchor="start" x="301.2254" y="-216.4" font-family="Lato" font-size="12.00" fill="#000000">!p0 &amp; !p1</text>
</g>
<!-- 2&#45;&gt;2 -->
<g id="edge7" class="edge">
<title>2&#45;&gt;2</title>
<path fill="none" stroke="#000000" d="M176.0678,-126.2628C175.3308,-137.5983 179.6791,-147.1127 189.1127,-147.1127 196.4827,-147.1127 200.7489,-141.3056 201.9112,-133.3598"/>
<polygon fill="#000000" stroke="#000000" points="202.1576,-126.2628 205.0627,-133.3679 202.0361,-129.7607 201.9146,-133.2586 201.9146,-133.2586 201.9146,-133.2586 202.0361,-129.7607 198.7665,-133.1493 202.1576,-126.2628 202.1576,-126.2628"/>
<text text-anchor="start" x="165.1127" y="-150.5127" font-family="Lato" font-size="12.00" fill="#000000">!p0 &amp; !p1</text>
</g>
<!-- 2&#45;&gt;1 -->
<g id="edge6" class="edge">
<title>2&#45;&gt;1</title>
<path fill="none" stroke="#000000" d="M219.9988,-92.1002C244.3456,-87.4495 277.8478,-81.05 300.4554,-76.7315"/>
<polygon fill="#000000" stroke="#000000" points="307.3873,-75.4074 301.1027,-79.8149 303.9495,-76.0641 300.5117,-76.7209 300.5117,-76.7209 300.5117,-76.7209 303.9495,-76.0641 299.9206,-73.6268 307.3873,-75.4074 307.3873,-75.4074"/>
<text text-anchor="start" x="238.2254" y="-91.4" font-family="Lato" font-size="12.00" fill="#000000">!p0 &amp; p1</text>
</g>
<!-- 4 -->
<g id="node7" class="node">
<title>4</title>
<ellipse fill="#ffffa0" stroke="#000000" cx="325.2254" cy="-18" rx="18" ry="18"/>
<text text-anchor="middle" x="325.2254" y="-14.9" font-family="Lato" font-size="12.00" fill="#000000">4</text>
</g>
<!-- 2&#45;&gt;4 -->
<g id="edge8" class="edge">
<title>2&#45;&gt;4</title>
<path fill="none" stroke="#000000" d="M214.1387,-79.1312C221.7257,-73.6952 230.1834,-67.9113 238.2254,-63 259.2371,-50.1681 284.3092,-37.4572 302.1284,-28.8347"/>
<polygon fill="#000000" stroke="#000000" points="308.8147,-25.6264 303.8664,-31.4947 305.6592,-27.1405 302.5037,-28.6547 302.5037,-28.6547 302.5037,-28.6547 305.6592,-27.1405 301.1409,-25.8147 308.8147,-25.6264 308.8147,-25.6264"/>
<text text-anchor="start" x="239.7254" y="-66.4" font-family="Lato" font-size="12.00" fill="#000000">p0 &amp; p1</text>
</g>
<!-- 5 -->
<g id="node6" class="node">
<title>5</title>
<ellipse fill="#ffffa0" stroke="#000000" cx="464.3381" cy="-98" rx="31.2258" ry="31.2258"/>
<text text-anchor="start" x="460.8381" y="-101.4" font-family="Lato" font-size="12.00" fill="#000000">5</text>
<text text-anchor="start" x="450.3381" y="-89.4" font-family="Lato" font-size="12.00" fill="#ff4da0">❶</text>
<text text-anchor="start" x="464.3381" y="-89.4" font-family="Lato" font-size="12.00" fill="#ff7f00">❷</text>
</g>
<!-- 1&#45;&gt;5 -->
<g id="edge5" class="edge">
<title>1&#45;&gt;5</title>
<path fill="none" stroke="#000000" d="M342.5762,-66.2123C361.0256,-60.983 390.8464,-55.202 415.2254,-63 422.1064,-65.201 428.8459,-68.7582 435.0205,-72.7805"/>
<polygon fill="#000000" stroke="#000000" points="440.991,-76.925 433.4443,-75.521 438.1158,-74.9291 435.2406,-72.9333 435.2406,-72.9333 435.2406,-72.9333 438.1158,-74.9291 437.0369,-70.3456 440.991,-76.925 440.991,-76.925"/>
<text text-anchor="start" x="368.7254" y="-66.4" font-family="Lato" font-size="12.00" fill="#000000">!p0 &amp; p1</text>
</g>
<!-- 3&#45;&gt;2 -->
<g id="edge9" class="edge">
<title>3&#45;&gt;2</title>
<path fill="none" stroke="#000000" d="M573.4402,-166.4307C520.8273,-164.382 363.1983,-155.4924 238.2254,-120 233.3441,-118.6137 228.3234,-116.8254 223.4421,-114.868"/>
<polygon fill="#000000" stroke="#000000" points="216.8985,-112.116 224.5723,-111.9262 220.1248,-113.4729 223.3511,-114.8298 223.3511,-114.8298 223.3511,-114.8298 220.1248,-113.4729 222.1299,-117.7335 216.8985,-112.116 216.8985,-112.116"/>
<text text-anchor="start" x="367.2254" y="-156.4" font-family="Lato" font-size="12.00" fill="#000000">!p0 &amp; !p1</text>
</g>
<!-- 3&#45;&gt;3 -->
<g id="edge10" class="edge">
<title>3&#45;&gt;3</title>
<path fill="none" stroke="#000000" d="M581.8762,-182.5414C579.1811,-192.9087 582.3727,-203 591.4508,-203 598.4012,-203 601.9011,-197.0847 601.9503,-189.6591"/>
<polygon fill="#000000" stroke="#000000" points="601.0254,-182.5414 605.0512,-189.0771 601.4764,-186.0123 601.9275,-189.4831 601.9275,-189.4831 601.9275,-189.4831 601.4764,-186.0123 598.8037,-189.889 601.0254,-182.5414 601.0254,-182.5414"/>
<text text-anchor="start" x="568.9508" y="-206.4" font-family="Lato" font-size="12.00" fill="#000000">!p0 &amp; p1</text>
</g>
<!-- 5&#45;&gt;2 -->
<g id="edge14" class="edge">
<title>5&#45;&gt;2</title>
<path fill="none" stroke="#000000" d="M433.4948,-103.0757C427.4535,-103.8774 421.1533,-104.5797 415.2254,-105 336.7557,-110.564 316.695,-110.564 238.2254,-105 234.6131,-104.7439 230.8625,-104.383 227.1165,-103.9588"/>
<polygon fill="#000000" stroke="#000000" points="219.956,-103.0757 227.2889,-100.8063 223.4297,-103.5042 226.9033,-103.9326 226.9033,-103.9326 226.9033,-103.9326 223.4297,-103.5042 226.5177,-107.0589 219.956,-103.0757 219.956,-103.0757"/>
<text text-anchor="start" x="301.2254" y="-112.4" font-family="Lato" font-size="12.00" fill="#000000">!p0 &amp; !p1</text>
</g>
<!-- 5&#45;&gt;1 -->
<g id="edge13" class="edge">
<title>5&#45;&gt;1</title>
<path fill="none" stroke="#000000" d="M433.5151,-92.2392C408.4779,-87.5598 373.6113,-81.0433 350.2725,-76.6813"/>
<polygon fill="#000000" stroke="#000000" points="343.1272,-75.3458 350.5868,-73.5355 346.5676,-75.9889 350.008,-76.6319 350.008,-76.6319 350.008,-76.6319 346.5676,-75.9889 349.4293,-79.7283 343.1272,-75.3458 343.1272,-75.3458"/>
<text text-anchor="start" x="370.2254" y="-91.4" font-family="Lato" font-size="12.00" fill="#000000">p0 &amp; p1</text>
</g>
<!-- 5&#45;&gt;3 -->
<g id="edge15" class="edge">
<title>5&#45;&gt;3</title>
<path fill="none" stroke="#000000" d="M493.4471,-109.553C511.7389,-117.2621 535.5542,-128.135 555.4508,-140 560.9488,-143.2786 566.6153,-147.2245 571.7792,-151.0746"/>
<polygon fill="#000000" stroke="#000000" points="577.5701,-155.5045 570.0964,-153.7532 574.7902,-153.3779 572.0103,-151.2513 572.0103,-151.2513 572.0103,-151.2513 574.7902,-153.3779 573.9242,-148.7494 577.5701,-155.5045 577.5701,-155.5045"/>
<text text-anchor="start" x="513.4508" y="-143.4" font-family="Lato" font-size="12.00" fill="#000000">p0 &amp; p1</text>
</g>
<!-- 4&#45;&gt;0 -->
<g id="edge11" class="edge">
<title>4&#45;&gt;0</title>
<path fill="none" stroke="#000000" d="M307.0339,-15.9079C276.1806,-12.7769 211.7076,-8.0412 158,-16 127.6805,-20.493 119.3428,-22.1497 92,-36 86.2895,-38.8926 80.5465,-42.6996 75.3768,-46.5392"/>
<polygon fill="#000000" stroke="#000000" points="69.6078,-51.0088 73.2121,-44.2315 72.3746,-48.8652 75.1414,-46.7216 75.1414,-46.7216 75.1414,-46.7216 72.3746,-48.8652 77.0706,-49.2117 69.6078,-51.0088 69.6078,-51.0088"/>
<text text-anchor="start" x="165.1127" y="-19.4" font-family="Lato" font-size="12.00" fill="#000000">!p0 &amp; !p1</text>
</g>
<!-- 4&#45;&gt;5 -->
<g id="edge12" class="edge">
<title>4&#45;&gt;5</title>
<path fill="none" stroke="#000000" d="M343.3628,-19.6953C362.469,-22.1669 392.833,-28.0944 415.2254,-42 425.4145,-48.3274 434.6673,-57.4207 442.3247,-66.4452"/>
<polygon fill="#000000" stroke="#000000" points="446.8805,-72.03 440.0148,-68.597 444.6681,-69.3179 442.4557,-66.6058 442.4557,-66.6058 442.4557,-66.6058 444.6681,-69.3179 444.8966,-64.6147 446.8805,-72.03 446.8805,-72.03"/>
<text text-anchor="start" x="368.7254" y="-45.4" font-family="Lato" font-size="12.00" fill="#000000">!p0 &amp; p1</text>
</g>
</g>
</svg>
