<?xml version="1.0" encoding="UTF-8" standalone="no"?>
<?xml-stylesheet href="spot.css" type="text/css"?>
<!DOCTYPE svg PUBLIC "-//W3C//DTD SVG 1.1//EN"
 "http://www.w3.org/Graphics/SVG/1.1/DTD/svg11.dtd">
<!-- Generated by graphviz version 2.40.1 (20161225.0304)
 -->
<!-- Pages: 1 -->
<svg width="1018pt" height="590pt"
 viewBox="0.00 0.00 1018.00 590.00" xmlns="http://www.w3.org/2000/svg" xmlns:xlink="http://www.w3.org/1999/xlink">
<g id="graph0" class="graph" transform="scale(1 1) rotate(0) translate(4 586)">
<polygon fill="#ffffff" stroke="transparent" points="-4,4 -4,-586 1014,-586 1014,4 -4,4"/>
<text text-anchor="start" x="502.5" y="-568.4" font-family="Lato" font-size="12.00" fill="#000000">t</text>
<text text-anchor="start" x="495" y="-555.4" font-family="Lato" font-size="12.00" fill="#000000">[all]</text>
<!-- I -->
<!-- 0 -->
<g id="node2" class="node">
<title>0</title>
<ellipse fill="#ffffa0" stroke="#000000" cx="56" cy="-394" rx="18" ry="18"/>
<text text-anchor="middle" x="56" y="-390.9" font-family="Lato" font-size="12.00" fill="#000000">0</text>
</g>
<!-- I&#45;&gt;0 -->
<g id="edge1" class="edge">
<title>I&#45;&gt;0</title>
<path fill="none" stroke="#000000" d="M1.1233,-394C4.178,-394 17.9448,-394 30.9241,-394"/>
<polygon fill="#000000" stroke="#000000" points="37.9807,-394 30.9808,-397.1501 34.4807,-394 30.9807,-394.0001 30.9807,-394.0001 30.9807,-394.0001 34.4807,-394 30.9807,-390.8501 37.9807,-394 37.9807,-394"/>
</g>
<!-- 8 -->
<g id="node3" class="node">
<title>8</title>
<ellipse fill="#ffffa0" stroke="#000000" cx="162" cy="-294" rx="18" ry="18"/>
<text text-anchor="middle" x="162" y="-290.9" font-family="Lato" font-size="12.00" fill="#000000">8</text>
</g>
<!-- 0&#45;&gt;8 -->
<g id="edge2" class="edge">
<title>0&#45;&gt;8</title>
<path fill="none" stroke="#000000" d="M69.425,-381.3349C88.142,-363.6774 122.1578,-331.587 143.3345,-311.6089"/>
<polygon fill="#000000" stroke="#000000" points="148.684,-306.5622 145.7539,-313.6571 146.1381,-308.964 143.5923,-311.3658 143.5923,-311.3658 143.5923,-311.3658 146.1381,-308.964 141.4306,-309.0745 148.684,-306.5622 148.684,-306.5622"/>
<text text-anchor="start" x="92" y="-361.4" font-family="Lato" font-size="12.00" fill="#000000">!a &amp; !b</text>
</g>
<!-- 3 -->
<g id="node4" class="node">
<title>3</title>
<ellipse fill="#ffffa0" stroke="#000000" cx="265" cy="-294" rx="18" ry="18"/>
<text text-anchor="middle" x="265" y="-290.9" font-family="Lato" font-size="12.00" fill="#000000">3</text>
</g>
<!-- 0&#45;&gt;3 -->
<g id="edge3" class="edge">
<title>0&#45;&gt;3</title>
<path fill="none" stroke="#000000" d="M73.6841,-390.5499C88.0981,-387.4208 108.8078,-382.1946 126,-375 170.3666,-356.4335 217.9373,-326.1963 244.3284,-308.3889"/>
<polygon fill="#000000" stroke="#000000" points="250.2547,-304.3582 246.2381,-310.8997 247.3606,-306.3266 244.4665,-308.295 244.4665,-308.295 244.4665,-308.295 247.3606,-306.3266 242.695,-305.6903 250.2547,-304.3582 250.2547,-304.3582"/>
<text text-anchor="start" x="145" y="-369.4" font-family="Lato" font-size="12.00" fill="#000000">!a &amp; !b</text>
</g>
<!-- 4 -->
<g id="node5" class="node">
<title>4</title>
<ellipse fill="#ffffa0" stroke="#000000" cx="992" cy="-426" rx="18" ry="18"/>
<text text-anchor="middle" x="992" y="-422.9" font-family="Lato" font-size="12.00" fill="#000000">4</text>
</g>
<!-- 0&#45;&gt;4 -->
<g id="edge4" class="edge">
<title>0&#45;&gt;4</title>
<path fill="none" stroke="#000000" d="M59.4229,-411.8067C65.338,-440.8769 78.1743,-496.7275 92,-511 114.8833,-534.6228 129.1111,-535 162,-535 162,-535 162,-535 889,-535 920.6306,-535 933.0093,-532.7237 956,-511 972.8648,-495.0646 982.1683,-469.9667 987.069,-451.1669"/>
<polygon fill="#000000" stroke="#000000" points="988.7952,-444.0493 990.2065,-451.5946 987.9702,-447.4507 987.1452,-450.8521 987.1452,-450.8521 987.1452,-450.8521 987.9702,-447.4507 984.084,-450.1096 988.7952,-444.0493 988.7952,-444.0493"/>
<text text-anchor="start" x="504" y="-538.4" font-family="Lato" font-size="12.00" fill="#000000">!a &amp; !b</text>
</g>
<!-- 8&#45;&gt;3 -->
<g id="edge31" class="edge">
<title>8&#45;&gt;3</title>
<path fill="none" stroke="#000000" d="M180.4143,-294C196.8188,-294 220.9902,-294 239.2978,-294"/>
<polygon fill="#000000" stroke="#000000" points="246.7451,-294 239.7451,-297.1501 243.2451,-294 239.7451,-294.0001 239.7451,-294.0001 239.7451,-294.0001 243.2451,-294 239.745,-290.8501 246.7451,-294 246.7451,-294"/>
<text text-anchor="start" x="198" y="-297.4" font-family="Lato" font-size="12.00" fill="#000000">!a &amp; b</text>
</g>
<!-- 1 -->
<g id="node6" class="node">
<title>1</title>
<ellipse fill="#ffffa0" stroke="#000000" cx="574" cy="-148" rx="18" ry="18"/>
<text text-anchor="middle" x="574" y="-144.9" font-family="Lato" font-size="12.00" fill="#000000">1</text>
</g>
<!-- 8&#45;&gt;1 -->
<g id="edge30" class="edge">
<title>8&#45;&gt;1</title>
<path fill="none" stroke="#000000" d="M165.7237,-276.0975C174.9912,-237.1113 202.9598,-148 265,-148 265,-148 265,-148 468,-148 495.6559,-148 527.3706,-148 548.8482,-148"/>
<polygon fill="#000000" stroke="#000000" points="555.9948,-148 548.9948,-151.1501 552.4948,-148 548.9948,-148.0001 548.9948,-148.0001 548.9948,-148.0001 552.4948,-148 548.9947,-144.8501 555.9948,-148 555.9948,-148"/>
<text text-anchor="start" x="351" y="-151.4" font-family="Lato" font-size="12.00" fill="#000000">a &amp; b</text>
</g>
<!-- 3&#45;&gt;3 -->
<g id="edge14" class="edge">
<title>3&#45;&gt;3</title>
<path fill="none" stroke="#000000" d="M256.3666,-309.916C254.1144,-320.1504 256.9922,-330 265,-330 271.131,-330 274.2548,-324.2263 274.3716,-316.9268"/>
<polygon fill="#000000" stroke="#000000" points="273.6334,-309.916 277.4992,-316.5477 274,-313.3968 274.3665,-316.8775 274.3665,-316.8775 274.3665,-316.8775 274,-313.3968 271.2338,-317.2074 273.6334,-309.916 273.6334,-309.916"/>
<text text-anchor="start" x="249.5" y="-333.4" font-family="Lato" font-size="12.00" fill="#000000">a &amp; !b</text>
</g>
<!-- 2 -->
<g id="node9" class="node">
<title>2</title>
<ellipse fill="#ffffa0" stroke="#000000" cx="365" cy="-374" rx="18" ry="18"/>
<text text-anchor="middle" x="365" y="-370.9" font-family="Lato" font-size="12.00" fill="#000000">2</text>
</g>
<!-- 3&#45;&gt;2 -->
<g id="edge12" class="edge">
<title>3&#45;&gt;2</title>
<path fill="none" stroke="#000000" d="M279.3276,-305.462C296.5554,-319.2443 325.5727,-342.4581 345.001,-358.0008"/>
<polygon fill="#000000" stroke="#000000" points="350.699,-362.5592 343.2651,-360.6461 347.966,-360.3728 345.2329,-358.1863 345.2329,-358.1863 345.2329,-358.1863 347.966,-360.3728 347.2007,-355.7266 350.699,-362.5592 350.699,-362.5592"/>
<text text-anchor="start" x="301" y="-346.4" font-family="Lato" font-size="12.00" fill="#000000">a &amp; b</text>
</g>
<!-- 9 -->
<g id="node11" class="node">
<title>9</title>
<ellipse fill="#ffffa0" stroke="#000000" cx="468" cy="-228" rx="18" ry="18"/>
<text text-anchor="middle" x="468" y="-224.9" font-family="Lato" font-size="12.00" fill="#000000">9</text>
</g>
<!-- 3&#45;&gt;9 -->
<g id="edge13" class="edge">
<title>3&#45;&gt;9</title>
<path fill="none" stroke="#000000" d="M281.7602,-287.2056C287.792,-284.8339 294.6698,-282.2134 301,-280 351.0997,-262.4819 410.6336,-244.6455 443.3663,-235.0911"/>
<polygon fill="#000000" stroke="#000000" points="450.3175,-233.0692 444.4759,-238.049 446.9567,-234.0468 443.596,-235.0244 443.596,-235.0244 443.596,-235.0244 446.9567,-234.0468 442.7162,-231.9997 450.3175,-233.0692 450.3175,-233.0692"/>
<text text-anchor="start" x="349.5" y="-267.4" font-family="Lato" font-size="12.00" fill="#000000">a &amp; !b</text>
</g>
<!-- 4&#45;&gt;0 -->
<g id="edge15" class="edge">
<title>4&#45;&gt;0</title>
<path fill="none" stroke="#000000" d="M981.065,-440.3679C963.9117,-461.1143 928.5281,-497 889,-497 162,-497 162,-497 162,-497 116.4358,-497 83.0818,-447.4438 66.9214,-417.0791"/>
<polygon fill="#000000" stroke="#000000" points="63.5519,-410.5487 69.561,-415.3251 65.1568,-413.6591 66.7616,-416.7695 66.7616,-416.7695 66.7616,-416.7695 65.1568,-413.6591 63.9623,-418.2139 63.5519,-410.5487 63.5519,-410.5487"/>
<text text-anchor="start" x="504" y="-500.4" font-family="Lato" font-size="12.00" fill="#000000">!a &amp; !b</text>
</g>
<!-- 7 -->
<g id="node7" class="node">
<title>7</title>
<ellipse fill="#ffffa0" stroke="#000000" cx="889" cy="-145" rx="18" ry="18"/>
<text text-anchor="middle" x="889" y="-141.9" font-family="Lato" font-size="12.00" fill="#000000">7</text>
</g>
<!-- 4&#45;&gt;7 -->
<g id="edge16" class="edge">
<title>4&#45;&gt;7</title>
<path fill="none" stroke="#000000" d="M985.7942,-409.0697C968.2196,-361.1235 918.0693,-224.3057 897.7294,-168.8152"/>
<polygon fill="#000000" stroke="#000000" points="895.2881,-162.1548 900.6548,-167.6431 896.4926,-165.441 897.6972,-168.7272 897.6972,-168.7272 897.6972,-168.7272 896.4926,-165.441 894.7396,-169.8113 895.2881,-162.1548 895.2881,-162.1548"/>
<text text-anchor="start" x="925" y="-330.4" font-family="Lato" font-size="12.00" fill="#000000">!a &amp; b</text>
</g>
<!-- 1&#45;&gt;0 -->
<g id="edge6" class="edge">
<title>1&#45;&gt;0</title>
<path fill="none" stroke="#000000" d="M572.1666,-129.9805C569.0073,-108.7418 560.5221,-73.9482 538,-55 513.722,-34.5746 499.7272,-41 468,-41 162,-41 162,-41 162,-41 93.5027,-41 65.4377,-287.8896 58.0849,-368.7194"/>
<polygon fill="#000000" stroke="#000000" points="57.4373,-376.0094 54.9191,-368.7581 57.747,-372.5231 58.0568,-369.0368 58.0568,-369.0368 58.0568,-369.0368 57.747,-372.5231 61.1944,-369.3156 57.4373,-376.0094 57.4373,-376.0094"/>
<text text-anchor="start" x="301" y="-44.4" font-family="Lato" font-size="12.00" fill="#000000">a &amp; b</text>
</g>
<!-- 1&#45;&gt;7 -->
<g id="edge5" class="edge">
<title>1&#45;&gt;7</title>
<path fill="none" stroke="#000000" d="M582.1525,-131.7064C588.3408,-121.0347 597.853,-107.687 610,-100 649.4785,-75.0168 666.5165,-83.6904 713,-79 775.6004,-72.6834 799.2235,-67.338 853,-100 862.1311,-105.5459 869.9082,-114.2946 875.8722,-122.6092"/>
<polygon fill="#000000" stroke="#000000" points="880.0719,-128.8227 873.5421,-124.7871 878.1119,-125.9229 876.1519,-123.0231 876.1519,-123.0231 876.1519,-123.0231 878.1119,-125.9229 878.7617,-121.2592 880.0719,-128.8227 880.0719,-128.8227"/>
<text text-anchor="start" x="716" y="-82.4" font-family="Lato" font-size="12.00" fill="#000000">a &amp; b</text>
</g>
<!-- 6 -->
<g id="node8" class="node">
<title>6</title>
<ellipse fill="#ffffa0" stroke="#000000" cx="677" cy="-334" rx="18" ry="18"/>
<text text-anchor="middle" x="677" y="-330.9" font-family="Lato" font-size="12.00" fill="#000000">6</text>
</g>
<!-- 1&#45;&gt;6 -->
<g id="edge7" class="edge">
<title>1&#45;&gt;6</title>
<path fill="none" stroke="#000000" d="M577.6068,-165.8835C582.62,-188.2466 593.0415,-227.211 610,-257 623.0393,-279.9046 643.5432,-302.186 658.4364,-316.8368"/>
<polygon fill="#000000" stroke="#000000" points="663.6454,-321.8762 656.4242,-319.2729 661.1299,-319.4426 658.6144,-317.009 658.6144,-317.009 658.6144,-317.009 661.1299,-319.4426 660.8047,-314.745 663.6454,-321.8762 663.6454,-321.8762"/>
<text text-anchor="start" x="610" y="-301.4" font-family="Lato" font-size="12.00" fill="#000000">a &amp; !b</text>
</g>
<!-- 7&#45;&gt;0 -->
<g id="edge27" class="edge">
<title>7&#45;&gt;0</title>
<path fill="none" stroke="#000000" d="M884.9552,-127.2202C874.9823,-88.501 845.3658,0 783,0 162,0 162,0 162,0 118.6262,0 111.0587,-29.0378 92,-68 66.1013,-120.9454 58.5475,-301.4501 56.605,-368.5812"/>
<polygon fill="#000000" stroke="#000000" points="56.4047,-375.8239 53.4495,-368.7394 56.5015,-372.3252 56.5983,-368.8265 56.5983,-368.8265 56.5983,-368.8265 56.5015,-372.3252 59.7471,-368.9137 56.4047,-375.8239 56.4047,-375.8239"/>
<text text-anchor="start" x="452.5" y="-3.4" font-family="Lato" font-size="12.00" fill="#000000">!a &amp; b</text>
</g>
<!-- 7&#45;&gt;8 -->
<g id="edge25" class="edge">
<title>7&#45;&gt;8</title>
<path fill="none" stroke="#000000" d="M884.0175,-127.4555C878.8016,-112.4222 869.0841,-91.4387 853,-80 833.8861,-66.4065 824.3687,-73.0074 801,-71 630.7013,-56.3714 587.4259,-79 416.5,-79 265,-79 265,-79 265,-79 219.3,-79 219.2379,-116.5346 198,-157 179.0112,-193.1802 169.5063,-240.1064 165.1735,-268.589"/>
<polygon fill="#000000" stroke="#000000" points="164.1328,-275.7621 162.0206,-268.3823 164.6354,-272.2984 165.138,-268.8346 165.138,-268.8346 165.138,-268.8346 164.6354,-272.2984 168.2553,-269.287 164.1328,-275.7621 164.1328,-275.7621"/>
<text text-anchor="start" x="504" y="-80.4" font-family="Lato" font-size="12.00" fill="#000000">!a &amp; !b</text>
</g>
<!-- 7&#45;&gt;4 -->
<g id="edge29" class="edge">
<title>7&#45;&gt;4</title>
<path fill="none" stroke="#000000" d="M902.4475,-157.1988C917.9592,-172.087 942.9914,-198.7857 956,-227 970.1632,-257.7185 983.4012,-354.9385 989.0825,-401.1447"/>
<polygon fill="#000000" stroke="#000000" points="989.9284,-408.1045 985.9568,-401.5357 989.5061,-404.63 989.0838,-401.1556 989.0838,-401.1556 989.0838,-401.1556 989.5061,-404.63 992.2108,-400.7755 989.9284,-408.1045 989.9284,-408.1045"/>
<text text-anchor="start" x="926.5" y="-230.4" font-family="Lato" font-size="12.00" fill="#000000">a &amp; b</text>
</g>
<!-- 7&#45;&gt;1 -->
<g id="edge28" class="edge">
<title>7&#45;&gt;1</title>
<path fill="none" stroke="#000000" d="M870.7143,-144.7374C826.1315,-144.1686 708.2859,-143.0957 610,-146 606.5822,-146.101 602.9838,-146.25 599.4376,-146.4218"/>
<polygon fill="#000000" stroke="#000000" points="592.3063,-146.7987 599.1303,-143.2836 595.8014,-146.6139 599.2965,-146.4292 599.2965,-146.4292 599.2965,-146.4292 595.8014,-146.6139 599.4628,-149.5748 592.3063,-146.7987 592.3063,-146.7987"/>
<text text-anchor="start" x="713" y="-148.4" font-family="Lato" font-size="12.00" fill="#000000">!a &amp; !b</text>
</g>
<!-- 7&#45;&gt;9 -->
<g id="edge26" class="edge">
<title>7&#45;&gt;9</title>
<path fill="none" stroke="#000000" d="M876.7511,-158.5728C858.3797,-177.3594 821.6945,-209 783,-209 574,-209 574,-209 574,-209 545.6126,-209 513.6104,-215.6838 492.2673,-221.1229"/>
<polygon fill="#000000" stroke="#000000" points="485.4585,-222.9083 491.4306,-218.0858 488.844,-222.0206 492.2296,-221.1328 492.2296,-221.1328 492.2296,-221.1328 488.844,-222.0206 493.0286,-224.1797 485.4585,-222.9083 485.4585,-222.9083"/>
<text text-anchor="start" x="663" y="-212.4" font-family="Lato" font-size="12.00" fill="#000000">a &amp; b</text>
</g>
<!-- 6&#45;&gt;8 -->
<g id="edge22" class="edge">
<title>6&#45;&gt;8</title>
<path fill="none" stroke="#000000" d="M664.8214,-347.2671C642.4281,-370.5445 592.0335,-417.8937 538,-435 479.9507,-453.3776 460.0385,-449.8968 401,-435 310.5472,-412.1766 220.1881,-343.2071 181.5339,-310.9606"/>
<polygon fill="#000000" stroke="#000000" points="175.782,-306.1133 183.1647,-308.2155 178.4584,-308.3688 181.1348,-310.6242 181.1348,-310.6242 181.1348,-310.6242 178.4584,-308.3688 179.1048,-313.033 175.782,-306.1133 175.782,-306.1133"/>
<text text-anchor="start" x="402.5" y="-445.4" font-family="Lato" font-size="12.00" fill="#000000">a &amp; b</text>
</g>
<!-- 6&#45;&gt;2 -->
<g id="edge24" class="edge">
<title>6&#45;&gt;2</title>
<path fill="none" stroke="#000000" d="M658.7886,-335.7548C627.2243,-338.8511 560.3279,-345.6549 504,-353 464.0118,-358.2144 417.7365,-365.4462 389.9492,-369.9188"/>
<polygon fill="#000000" stroke="#000000" points="382.9604,-371.0484 389.3681,-366.8218 386.4156,-370.4899 389.8708,-369.9314 389.8708,-369.9314 389.8708,-369.9314 386.4156,-370.4899 390.3734,-373.0411 382.9604,-371.0484 382.9604,-371.0484"/>
<text text-anchor="start" x="505.5" y="-356.4" font-family="Lato" font-size="12.00" fill="#000000">a &amp; !b</text>
</g>
<!-- 5 -->
<g id="node10" class="node">
<title>5</title>
<ellipse fill="#ffffa0" stroke="#000000" cx="783" cy="-277" rx="18" ry="18"/>
<text text-anchor="middle" x="783" y="-273.9" font-family="Lato" font-size="12.00" fill="#000000">5</text>
</g>
<!-- 6&#45;&gt;5 -->
<g id="edge23" class="edge">
<title>6&#45;&gt;5</title>
<path fill="none" stroke="#000000" d="M693.8201,-327.3072C708.2647,-321.3271 729.4686,-311.9886 747,-302 752.1135,-299.0865 757.4233,-295.6516 762.3439,-292.2761"/>
<polygon fill="#000000" stroke="#000000" points="768.3245,-288.0762 764.4063,-294.677 765.4602,-290.0876 762.596,-292.0991 762.596,-292.0991 762.596,-292.0991 765.4602,-290.0876 760.7856,-289.5213 768.3245,-288.0762 768.3245,-288.0762"/>
<text text-anchor="start" x="714.5" y="-321.4" font-family="Lato" font-size="12.00" fill="#000000">a &amp; !b</text>
</g>
<!-- 2&#45;&gt;0 -->
<g id="edge9" class="edge">
<title>2&#45;&gt;0</title>
<path fill="none" stroke="#000000" d="M347.0433,-376.0187C307.2853,-380.3749 208.7876,-390.5421 126,-394 111.1448,-394.6205 94.5008,-394.6479 81.1706,-394.5074"/>
<polygon fill="#000000" stroke="#000000" points="74.1383,-394.4148 81.1792,-391.3573 77.638,-394.4609 81.1377,-394.5071 81.1377,-394.5071 81.1377,-394.5071 77.638,-394.4609 81.0961,-397.6568 74.1383,-394.4148 74.1383,-394.4148"/>
<text text-anchor="start" x="198" y="-392.4" font-family="Lato" font-size="12.00" fill="#000000">a &amp; !b</text>
</g>
<!-- 2&#45;&gt;4 -->
<g id="edge8" class="edge">
<title>2&#45;&gt;4</title>
<path fill="none" stroke="#000000" d="M380.6236,-383.3531C386.7728,-386.6169 394.0225,-389.9685 401,-392 542.1407,-433.0923 582.999,-426 730,-426 730,-426 730,-426 889,-426 915.4373,-426 945.6917,-426 966.5368,-426"/>
<polygon fill="#000000" stroke="#000000" points="973.7663,-426 966.7664,-429.1501 970.2663,-426 966.7663,-426.0001 966.7663,-426.0001 966.7663,-426.0001 970.2663,-426 966.7663,-422.8501 973.7663,-426 973.7663,-426"/>
<text text-anchor="start" x="660" y="-429.4" font-family="Lato" font-size="12.00" fill="#000000">!a &amp; !b</text>
</g>
<!-- 2&#45;&gt;5 -->
<g id="edge10" class="edge">
<title>2&#45;&gt;5</title>
<path fill="none" stroke="#000000" d="M383.215,-375.7033C403.7845,-377.4772 438.2657,-380 468,-380 468,-380 468,-380 677,-380 722.5642,-380 755.9182,-330.4438 772.0786,-300.0791"/>
<polygon fill="#000000" stroke="#000000" points="775.4481,-293.5487 775.0377,-301.2139 773.8432,-296.6591 772.2384,-299.7695 772.2384,-299.7695 772.2384,-299.7695 773.8432,-296.6591 769.439,-298.3251 775.4481,-293.5487 775.4481,-293.5487"/>
<text text-anchor="start" x="558.5" y="-383.4" font-family="Lato" font-size="12.00" fill="#000000">a &amp; !b</text>
</g>
<!-- 2&#45;&gt;9 -->
<g id="edge11" class="edge">
<title>2&#45;&gt;9</title>
<path fill="none" stroke="#000000" d="M375.443,-359.1973C393.8735,-333.0725 432.2119,-278.7288 453.3037,-248.8316"/>
<polygon fill="#000000" stroke="#000000" points="457.5293,-242.8419 456.068,-250.3777 455.5117,-245.7018 453.4941,-248.5618 453.4941,-248.5618 453.4941,-248.5618 455.5117,-245.7018 450.9201,-246.7459 457.5293,-242.8419 457.5293,-242.8419"/>
<text text-anchor="start" x="401" y="-325.4" font-family="Lato" font-size="12.00" fill="#000000">!a &amp; b</text>
</g>
<!-- 5&#45;&gt;3 -->
<g id="edge17" class="edge">
<title>5&#45;&gt;3</title>
<path fill="none" stroke="#000000" d="M765.1208,-279.6515C738.2523,-283.4915 685.8299,-290.4225 641,-293 509.1305,-300.5818 350.8168,-296.8028 290.2483,-294.8858"/>
<polygon fill="#000000" stroke="#000000" points="283.0229,-294.651 290.1215,-291.7301 286.5211,-294.7647 290.0192,-294.8784 290.0192,-294.8784 290.0192,-294.8784 286.5211,-294.7647 289.9169,-298.0267 283.0229,-294.651 283.0229,-294.651"/>
<text text-anchor="start" x="505.5" y="-301.4" font-family="Lato" font-size="12.00" fill="#000000">a &amp; !b</text>
</g>
<!-- 5&#45;&gt;1 -->
<g id="edge18" class="edge">
<title>5&#45;&gt;1</title>
<path fill="none" stroke="#000000" d="M774.181,-261.2726C760.4143,-238.2645 731.5631,-195.8036 695,-174 665.2706,-156.2715 625.0415,-150.5596 599.3003,-148.761"/>
<polygon fill="#000000" stroke="#000000" points="592.125,-148.335 599.2994,-145.6055 595.6188,-148.5425 599.1126,-148.75 599.1126,-148.75 599.1126,-148.75 595.6188,-148.5425 598.9259,-151.8944 592.125,-148.335 592.125,-148.335"/>
<text text-anchor="start" x="661.5" y="-177.4" font-family="Lato" font-size="12.00" fill="#000000">!a &amp; b</text>
</g>
<!-- 5&#45;&gt;7 -->
<g id="edge19" class="edge">
<title>5&#45;&gt;7</title>
<path fill="none" stroke="#000000" d="M798.69,-268.015C814.1745,-258.4953 837.691,-242.2021 853,-223 865.8537,-206.8776 875.3235,-185.4205 881.3156,-169.0927"/>
<polygon fill="#000000" stroke="#000000" points="883.6705,-162.4395 884.3042,-170.0895 882.5026,-165.739 881.3348,-169.0384 881.3348,-169.0384 881.3348,-169.0384 882.5026,-165.739 878.3653,-167.9873 883.6705,-162.4395 883.6705,-162.4395"/>
<text text-anchor="start" x="819" y="-257.4" font-family="Lato" font-size="12.00" fill="#000000">!a &amp; !b</text>
</g>
<!-- 5&#45;&gt;5 -->
<g id="edge21" class="edge">
<title>5&#45;&gt;5</title>
<path fill="none" stroke="#000000" d="M774.0212,-292.916C771.679,-303.1504 774.6719,-313 783,-313 789.3762,-313 792.625,-307.2263 792.7465,-299.9268"/>
<polygon fill="#000000" stroke="#000000" points="791.9788,-292.916 795.8721,-299.5315 792.3598,-296.3952 792.7408,-299.8744 792.7408,-299.8744 792.7408,-299.8744 792.3598,-296.3952 789.6095,-300.2174 791.9788,-292.916 791.9788,-292.916"/>
<text text-anchor="start" x="766" y="-316.4" font-family="Lato" font-size="12.00" fill="#000000">!a &amp; !b</text>
</g>
<!-- 5&#45;&gt;9 -->
<g id="edge20" class="edge">
<title>5&#45;&gt;9</title>
<path fill="none" stroke="#000000" d="M765.7345,-271.388C739.2255,-263.0265 686.7585,-247.4819 641,-240 589.0684,-231.5087 527.4073,-229.0185 493.5091,-228.2931"/>
<polygon fill="#000000" stroke="#000000" points="486.3106,-228.157 493.3689,-225.14 489.81,-228.2232 493.3093,-228.2894 493.3093,-228.2894 493.3093,-228.2894 489.81,-228.2232 493.2497,-231.4389 486.3106,-228.157 486.3106,-228.157"/>
<text text-anchor="start" x="610" y="-243.4" font-family="Lato" font-size="12.00" fill="#000000">!a &amp; b</text>
</g>
<!-- 9&#45;&gt;3 -->
<g id="edge33" class="edge">
<title>9&#45;&gt;3</title>
<path fill="none" stroke="#000000" d="M449.8129,-226.5864C425.642,-225.3218 381.9213,-225.1916 347,-237 322.718,-245.2108 299.1335,-262.9487 283.5395,-276.4711"/>
<polygon fill="#000000" stroke="#000000" points="278.1694,-281.2369 281.3141,-274.2345 280.7872,-278.9137 283.405,-276.5905 283.405,-276.5905 283.405,-276.5905 280.7872,-278.9137 285.4959,-278.9465 278.1694,-281.2369 278.1694,-281.2369"/>
<text text-anchor="start" x="349.5" y="-240.4" font-family="Lato" font-size="12.00" fill="#000000">a &amp; !b</text>
</g>
<!-- 9&#45;&gt;1 -->
<g id="edge32" class="edge">
<title>9&#45;&gt;1</title>
<path fill="none" stroke="#000000" d="M477.5328,-212.4338C484.0609,-202.742 493.4289,-190.5389 504,-182 517.819,-170.8376 535.9086,-162.1724 550.2365,-156.3838"/>
<polygon fill="#000000" stroke="#000000" points="556.9328,-153.7749 551.5539,-159.2512 553.6716,-155.0455 550.4103,-156.3161 550.4103,-156.3161 550.4103,-156.3161 553.6716,-155.0455 549.2668,-153.381 556.9328,-153.7749 556.9328,-153.7749"/>
<text text-anchor="start" x="505.5" y="-185.4" font-family="Lato" font-size="12.00" fill="#000000">!a &amp; b</text>
</g>
</g>
</svg>
