<?xml version="1.0" encoding="UTF-8" standalone="no"?>
<?xml-stylesheet href="spot.css" type="text/css"?>
<!DOCTYPE svg PUBLIC "-//W3C//DTD SVG 1.1//EN"
 "http://www.w3.org/Graphics/SVG/1.1/DTD/svg11.dtd">
<!-- Generated by graphviz version 2.40.1 (20161225.0304)
 -->
<!-- Pages: 1 -->
<svg width="337pt" height="156pt"
 viewBox="0.00 0.00 337.00 155.55" xmlns="http://www.w3.org/2000/svg" xmlns:xlink="http://www.w3.org/1999/xlink">
<g id="graph0" class="graph" transform="scale(1 1) rotate(0) translate(4 151.5466)">
<polygon fill="#ffffff" stroke="transparent" points="-4,4 -4,-151.5466 333,-151.5466 333,4 -4,4"/>
<text text-anchor="start" x="162" y="-133.9466" font-family="Lato" font-size="12.00" fill="#000000">t</text>
<text text-anchor="start" x="154.5" y="-120.9466" font-family="Lato" font-size="12.00" fill="#000000">[all]</text>
<!-- I -->
<!-- 0 -->
<g id="node2" class="node">
<title>0</title>
<ellipse fill="#ffffa0" stroke="#000000" cx="56" cy="-21.5466" rx="18" ry="18"/>
<text text-anchor="middle" x="56" y="-18.4466" font-family="Lato" font-size="12.00" fill="#000000">0</text>
</g>
<!-- I&#45;&gt;0 -->
<g id="edge1" class="edge">
<title>I&#45;&gt;0</title>
<path fill="none" stroke="#000000" d="M1.1233,-21.5466C4.178,-21.5466 17.9448,-21.5466 30.9241,-21.5466"/>
<polygon fill="#000000" stroke="#000000" points="37.9807,-21.5466 30.9808,-24.6967 34.4807,-21.5466 30.9807,-21.5467 30.9807,-21.5467 30.9807,-21.5467 34.4807,-21.5466 30.9807,-18.3967 37.9807,-21.5466 37.9807,-21.5466"/>
</g>
<!-- 0&#45;&gt;0 -->
<g id="edge3" class="edge">
<title>0&#45;&gt;0</title>
<path fill="none" stroke="#000000" d="M49.6208,-38.5839C48.3189,-48.4045 50.4453,-57.5466 56,-57.5466 60.166,-57.5466 62.4036,-52.4041 62.7128,-45.6899"/>
<polygon fill="#000000" stroke="#000000" points="62.3792,-38.5839 65.8541,-45.4284 62.5434,-42.08 62.7076,-45.5762 62.7076,-45.5762 62.7076,-45.5762 62.5434,-42.08 59.561,-45.7239 62.3792,-38.5839 62.3792,-38.5839"/>
<text text-anchor="start" x="32" y="-60.9466" font-family="Lato" font-size="12.00" fill="#000000">!p0 &amp; !p1</text>
</g>
<!-- 2 -->
<g id="node3" class="node">
<title>2</title>
<ellipse fill="#ffffa0" stroke="#000000" cx="182" cy="-64.5466" rx="18" ry="18"/>
<text text-anchor="middle" x="182" y="-61.4466" font-family="Lato" font-size="12.00" fill="#000000">2</text>
</g>
<!-- 0&#45;&gt;2 -->
<g id="edge2" class="edge">
<title>0&#45;&gt;2</title>
<path fill="none" stroke="#000000" d="M68.0395,-35.0675C74.4952,-41.4304 82.9697,-48.4951 92,-52.5466 112.5687,-61.7747 138.2444,-64.4373 156.9015,-64.99"/>
<polygon fill="#000000" stroke="#000000" points="163.932,-65.109 156.8796,-68.14 160.4325,-65.0497 156.933,-64.9905 156.933,-64.9905 156.933,-64.9905 160.4325,-65.0497 156.9864,-61.8409 163.932,-65.109 163.932,-65.109"/>
<text text-anchor="start" x="92" y="-66.9466" font-family="Lato" font-size="12.00" fill="#000000">!p0 &amp; !p1</text>
</g>
<!-- 1 -->
<g id="node4" class="node">
<title>1</title>
<ellipse fill="#ffffa0" stroke="#000000" cx="308" cy="-21.5466" rx="18" ry="18"/>
<text text-anchor="middle" x="308" y="-18.4466" font-family="Lato" font-size="12.00" fill="#000000">1</text>
</g>
<!-- 0&#45;&gt;1 -->
<g id="edge4" class="edge">
<title>0&#45;&gt;1</title>
<path fill="none" stroke="#000000" d="M74.3059,-20.3325C79.9749,-20.0096 86.2434,-19.7063 92,-19.5466 160.9932,-17.6316 242.4249,-19.5037 282.751,-20.7075"/>
<polygon fill="#000000" stroke="#000000" points="289.7901,-20.9234 282.6968,-23.8572 286.2918,-20.8161 282.7934,-20.7087 282.7934,-20.7087 282.7934,-20.7087 286.2918,-20.8161 282.89,-17.5602 289.7901,-20.9234 289.7901,-20.9234"/>
<text text-anchor="start" x="158" y="-21.9466" font-family="Lato" font-size="12.00" fill="#000000">!p0 &amp; !p1</text>
</g>
<!-- 2&#45;&gt;0 -->
<g id="edge9" class="edge">
<title>2&#45;&gt;0</title>
<path fill="none" stroke="#000000" d="M168.1391,-52.6562C160.3567,-46.6031 150.1844,-39.6703 140,-35.5466 121.2237,-27.944 98.4838,-24.469 81.4016,-22.8812"/>
<polygon fill="#000000" stroke="#000000" points="73.9858,-22.2764 81.2187,-19.7059 77.4742,-22.5609 80.9626,-22.8455 80.9626,-22.8455 80.9626,-22.8455 77.4742,-22.5609 80.7065,-25.9851 73.9858,-22.2764 73.9858,-22.2764"/>
<text text-anchor="start" x="93.5" y="-38.9466" font-family="Lato" font-size="12.00" fill="#000000">p0 &amp; !p1</text>
</g>
<!-- 2&#45;&gt;2 -->
<g id="edge10" class="edge">
<title>2&#45;&gt;2</title>
<path fill="none" stroke="#000000" d="M171.0873,-78.9632C167.2765,-89.7126 170.9141,-100.5466 182,-100.5466 190.6609,-100.5466 194.7757,-93.934 194.3443,-85.9153"/>
<polygon fill="#000000" stroke="#000000" points="192.9127,-78.9632 197.4099,-85.184 193.6187,-82.3913 194.3246,-85.8194 194.3246,-85.8194 194.3246,-85.8194 193.6187,-82.3913 191.2394,-86.4547 192.9127,-78.9632 192.9127,-78.9632"/>
<text text-anchor="start" x="159.5" y="-103.9466" font-family="Lato" font-size="12.00" fill="#000000">p0 &amp; !p1</text>
</g>
<!-- 2&#45;&gt;1 -->
<g id="edge8" class="edge">
<title>2&#45;&gt;1</title>
<path fill="none" stroke="#000000" d="M200.068,-65.109C218.8491,-65.0285 248.7009,-62.9997 272,-52.5466 278.7727,-49.508 285.2328,-44.7744 290.763,-39.9132"/>
<polygon fill="#000000" stroke="#000000" points="295.9605,-35.0675 292.9886,-42.145 293.4005,-37.4543 290.8405,-39.841 290.8405,-39.841 290.8405,-39.841 293.4005,-37.4543 288.6924,-37.5371 295.9605,-35.0675 295.9605,-35.0675"/>
<text text-anchor="start" x="224" y="-66.9466" font-family="Lato" font-size="12.00" fill="#000000">!p0 &amp; !p1</text>
</g>
<!-- 1&#45;&gt;0 -->
<g id="edge7" class="edge">
<title>1&#45;&gt;0</title>
<path fill="none" stroke="#000000" d="M290.4633,-17.0317C270.2622,-12.083 235.9949,-4.4595 206,-1.5466 184.7666,.5155 179.2334,.5155 158,-1.5466 131.1686,-4.1523 100.9185,-10.5273 80.3763,-15.3853"/>
<polygon fill="#000000" stroke="#000000" points="73.5367,-17.0317 79.6051,-12.3309 76.9395,-16.2125 80.3423,-15.3934 80.3423,-15.3934 80.3423,-15.3934 76.9395,-16.2125 81.0795,-18.4559 73.5367,-17.0317 73.5367,-17.0317"/>
<text text-anchor="start" x="159.5" y="-4.9466" font-family="Lato" font-size="12.00" fill="#000000">p0 &amp; !p1</text>
</g>
<!-- 1&#45;&gt;2 -->
<g id="edge6" class="edge">
<title>1&#45;&gt;2</title>
<path fill="none" stroke="#000000" d="M289.8085,-23.7022C272.4521,-26.1599 245.7969,-30.9918 224,-39.5466 216.8908,-42.3367 209.5893,-46.255 203.1092,-50.1632"/>
<polygon fill="#000000" stroke="#000000" points="196.9406,-54.026 201.2016,-47.6411 199.907,-52.1685 202.8734,-50.3109 202.8734,-50.3109 202.8734,-50.3109 199.907,-52.1685 204.5452,-52.9806 196.9406,-54.026 196.9406,-54.026"/>
<text text-anchor="start" x="225.5" y="-42.9466" font-family="Lato" font-size="12.00" fill="#000000">p0 &amp; !p1</text>
</g>
<!-- 1&#45;&gt;1 -->
<g id="edge5" class="edge">
<title>1&#45;&gt;1</title>
<path fill="none" stroke="#000000" d="M297.8486,-36.7132C294.7725,-47.2106 298.1563,-57.5466 308,-57.5466 315.5366,-57.5466 319.2865,-51.4878 319.2497,-43.9366"/>
<polygon fill="#000000" stroke="#000000" points="318.1514,-36.7132 322.318,-43.1601 318.6776,-40.1734 319.2037,-43.6336 319.2037,-43.6336 319.2037,-43.6336 318.6776,-40.1734 316.0895,-44.1072 318.1514,-36.7132 318.1514,-36.7132"/>
<text text-anchor="start" x="287" y="-60.9466" font-family="Lato" font-size="12.00" fill="#000000">p0 &amp; p1</text>
</g>
</g>
</svg>
