<?xml version="1.0" encoding="UTF-8" standalone="no"?>
<?xml-stylesheet href="spot.css" type="text/css"?>
<!DOCTYPE svg PUBLIC "-//W3C//DTD SVG 1.1//EN"
 "http://www.w3.org/Graphics/SVG/1.1/DTD/svg11.dtd">
<!-- Generated by graphviz version 2.40.1 (20161225.0304)
 -->
<!-- Pages: 1 -->
<svg width="274pt" height="147pt"
 viewBox="0.00 0.00 273.50 147.26" xmlns="http://www.w3.org/2000/svg" xmlns:xlink="http://www.w3.org/1999/xlink">
<g id="graph0" class="graph" transform="scale(1 1) rotate(0) translate(4 143.2591)">
<polygon fill="#ffffff" stroke="transparent" points="-4,4 -4,-143.2591 269.5,-143.2591 269.5,4 -4,4"/>
<text text-anchor="start" x="93.25" y="-126.6591" font-family="Lato" font-size="12.00" fill="#000000">Inf(</text>
<text text-anchor="start" x="111.25" y="-126.6591" font-family="Lato" font-size="12.00" fill="#1f78b4">⓿</text>
<text text-anchor="start" x="125.25" y="-126.6591" font-family="Lato" font-size="12.00" fill="#000000">)&amp;Inf(</text>
<text text-anchor="start" x="154.25" y="-126.6591" font-family="Lato" font-size="12.00" fill="#ff4da0">❶</text>
<text text-anchor="start" x="168.25" y="-126.6591" font-family="Lato" font-size="12.00" fill="#000000">)</text>
<text text-anchor="start" x="96.25" y="-114.6591" font-family="Lato" font-size="12.00" fill="#000000">[gen. Büchi 2]</text>
<!-- I -->
<!-- 0 -->
<g id="node2" class="node">
<title>0</title>
<ellipse fill="#ffffa0" stroke="#000000" cx="56" cy="-33.2591" rx="18" ry="18"/>
<text text-anchor="middle" x="56" y="-30.1591" font-family="Lato" font-size="12.00" fill="#000000">0</text>
</g>
<!-- I&#45;&gt;0 -->
<g id="edge1" class="edge">
<title>I&#45;&gt;0</title>
<path fill="none" stroke="#000000" d="M1.1233,-33.2591C4.178,-33.2591 17.9448,-33.2591 30.9241,-33.2591"/>
<polygon fill="#000000" stroke="#000000" points="37.9807,-33.2591 30.9808,-36.4091 34.4807,-33.2591 30.9807,-33.2591 30.9807,-33.2591 30.9807,-33.2591 34.4807,-33.2591 30.9807,-30.1091 37.9807,-33.2591 37.9807,-33.2591"/>
</g>
<!-- 1 -->
<g id="node3" class="node">
<title>1</title>
<ellipse fill="#ffffa0" stroke="#000000" cx="151" cy="-83.2591" rx="18" ry="18"/>
<text text-anchor="middle" x="151" y="-80.1591" font-family="Lato" font-size="12.00" fill="#000000">1</text>
</g>
<!-- 0&#45;&gt;1 -->
<g id="edge2" class="edge">
<title>0&#45;&gt;1</title>
<path fill="none" stroke="#000000" d="M64.7981,-49.447C71.0331,-59.2354 80.3506,-70.9973 92,-77.2591 102.1684,-82.7247 114.7477,-84.5536 125.6754,-84.8829"/>
<polygon fill="#000000" stroke="#000000" points="132.9269,-84.8976 125.9205,-88.0333 129.4269,-84.8905 125.9269,-84.8833 125.9269,-84.8833 125.9269,-84.8833 129.4269,-84.8905 125.9333,-81.7333 132.9269,-84.8976 132.9269,-84.8976"/>
<text text-anchor="start" x="93.5" y="-85.6591" font-family="Lato" font-size="12.00" fill="#000000">p0</text>
</g>
<!-- 2 -->
<g id="node4" class="node">
<title>2</title>
<ellipse fill="#ffffa0" stroke="#000000" cx="243" cy="-33.2591" rx="18" ry="18"/>
<text text-anchor="middle" x="243" y="-30.1591" font-family="Lato" font-size="12.00" fill="#000000">2</text>
</g>
<!-- 0&#45;&gt;2 -->
<g id="edge3" class="edge">
<title>0&#45;&gt;2</title>
<path fill="none" stroke="#000000" d="M74.2708,-33.2591C107.8727,-33.2591 179.5279,-33.2591 217.7524,-33.2591"/>
<polygon fill="#000000" stroke="#000000" points="224.9303,-33.2591 217.9304,-36.4091 221.4303,-33.2591 217.9303,-33.2591 217.9303,-33.2591 217.9303,-33.2591 221.4303,-33.2591 217.9303,-30.1091 224.9303,-33.2591 224.9303,-33.2591"/>
<text text-anchor="start" x="142.5" y="-36.6591" font-family="Lato" font-size="12.00" fill="#000000">!p0</text>
</g>
<!-- 1&#45;&gt;0 -->
<g id="edge5" class="edge">
<title>1&#45;&gt;0</title>
<path fill="none" stroke="#000000" d="M138.5256,-69.8984C130.712,-62.2551 120.0541,-53.0623 109,-47.2591 100.3564,-42.7212 90.1302,-39.5722 80.9774,-37.4275"/>
<polygon fill="#000000" stroke="#000000" points="73.918,-35.9156 81.4225,-34.3015 77.3404,-36.6486 80.7628,-37.3816 80.7628,-37.3816 80.7628,-37.3816 77.3404,-36.6486 80.103,-40.4618 73.918,-35.9156 73.918,-35.9156"/>
<text text-anchor="start" x="92" y="-63.6591" font-family="Lato" font-size="12.00" fill="#000000">!p0</text>
<text text-anchor="start" x="93.5" y="-50.6591" font-family="Lato" font-size="12.00" fill="#1f78b4">⓿</text>
</g>
<!-- 1&#45;&gt;2 -->
<g id="edge4" class="edge">
<title>1&#45;&gt;2</title>
<path fill="none" stroke="#000000" d="M169.181,-84.7176C180.6729,-84.8451 195.476,-83.4935 207,-77.2591 216.2697,-72.2442 224.0697,-63.7576 230.0134,-55.568"/>
<polygon fill="#000000" stroke="#000000" points="234.1903,-49.4256 232.8589,-56.9854 232.2222,-52.3198 230.2541,-55.2141 230.2541,-55.2141 230.2541,-55.2141 232.2222,-52.3198 227.6493,-53.4427 234.1903,-49.4256 234.1903,-49.4256"/>
<text text-anchor="start" x="193" y="-97.6591" font-family="Lato" font-size="12.00" fill="#000000">p0</text>
<text text-anchor="start" x="193" y="-84.6591" font-family="Lato" font-size="12.00" fill="#ff4da0">❶</text>
</g>
<!-- 2&#45;&gt;0 -->
<g id="edge7" class="edge">
<title>2&#45;&gt;0</title>
<path fill="none" stroke="#000000" d="M227.4204,-24.1415C214.0298,-16.8647 193.9389,-7.2511 175,-3.2591 154.1254,1.1411 147.9086,.9769 127,-3.2591 109.8684,-6.7299 91.7342,-14.4694 78.081,-21.2178"/>
<polygon fill="#000000" stroke="#000000" points="71.7625,-24.428 76.5764,-18.449 74.8828,-22.8427 78.0032,-21.2573 78.0032,-21.2573 78.0032,-21.2573 74.8828,-22.8427 79.43,-24.0656 71.7625,-24.428 71.7625,-24.428"/>
<text text-anchor="start" x="127" y="-19.6591" font-family="Lato" font-size="12.00" fill="#000000">!p0 &amp; !p1</text>
<text text-anchor="start" x="144" y="-6.6591" font-family="Lato" font-size="12.00" fill="#ff4da0">❶</text>
</g>
<!-- 2&#45;&gt;1 -->
<g id="edge8" class="edge">
<title>2&#45;&gt;1</title>
<path fill="none" stroke="#000000" d="M225.1637,-36.2814C215.2863,-38.4303 203.0173,-41.9054 193,-47.2591 184.2257,-51.9484 175.675,-58.7376 168.6039,-65.1593"/>
<polygon fill="#000000" stroke="#000000" points="163.5057,-69.9576 166.4443,-62.8661 166.0544,-67.5588 168.6032,-65.16 168.6032,-65.16 168.6032,-65.16 166.0544,-67.5588 170.7621,-67.4539 163.5057,-69.9576 163.5057,-69.9576"/>
<text text-anchor="start" x="193" y="-63.6591" font-family="Lato" font-size="12.00" fill="#000000">p0</text>
<text text-anchor="start" x="193" y="-50.6591" font-family="Lato" font-size="12.00" fill="#1f78b4">⓿</text>
</g>
<!-- 2&#45;&gt;2 -->
<g id="edge6" class="edge">
<title>2&#45;&gt;2</title>
<path fill="none" stroke="#000000" d="M235.6172,-49.9231C233.9766,-59.8841 236.4375,-69.2591 243,-69.2591 247.9219,-69.2591 250.5366,-63.9856 250.8442,-57.1466"/>
<polygon fill="#000000" stroke="#000000" points="250.3828,-49.9231 253.9727,-56.708 250.606,-53.416 250.8291,-56.9089 250.8291,-56.9089 250.8291,-56.9089 250.606,-53.416 247.6855,-57.1097 250.3828,-49.9231 250.3828,-49.9231"/>
<text text-anchor="start" x="220.5" y="-85.6591" font-family="Lato" font-size="12.00" fill="#000000">!p0 &amp; p1</text>
<text text-anchor="start" x="236" y="-72.6591" font-family="Lato" font-size="12.00" fill="#1f78b4">⓿</text>
</g>
</g>
</svg>
