<?xml version="1.0" encoding="UTF-8" standalone="no"?>
<?xml-stylesheet href="spot.css" type="text/css"?>
<!DOCTYPE svg PUBLIC "-//W3C//DTD SVG 1.1//EN"
 "http://www.w3.org/Graphics/SVG/1.1/DTD/svg11.dtd">
<!-- Generated by graphviz version 2.40.1 (20161225.0304)
 -->
<!-- Pages: 1 -->
<svg width="330pt" height="164pt"
 viewBox="0.00 0.00 329.50 164.00" xmlns="http://www.w3.org/2000/svg" xmlns:xlink="http://www.w3.org/1999/xlink">
<g id="graph0" class="graph" transform="scale(1 1) rotate(0) translate(4 160)">
<polygon fill="#ffffff" stroke="transparent" points="-4,4 -4,-160 325.5,-160 325.5,4 -4,4"/>
<text text-anchor="start" x="99.75" y="-143.4" font-family="Lato" font-size="12.00" fill="#000000">Inf(</text>
<text text-anchor="start" x="117.75" y="-143.4" font-family="Lato" font-size="12.00" fill="#1f78b4">⓿</text>
<text text-anchor="start" x="131.75" y="-143.4" font-family="Lato" font-size="12.00" fill="#000000">)&amp;Inf(</text>
<text text-anchor="start" x="160.75" y="-143.4" font-family="Lato" font-size="12.00" fill="#ff4da0">❶</text>
<text text-anchor="start" x="174.75" y="-143.4" font-family="Lato" font-size="12.00" fill="#000000">)&amp;Inf(</text>
<text text-anchor="start" x="203.75" y="-143.4" font-family="Lato" font-size="12.00" fill="#ff7f00">❷</text>
<text text-anchor="start" x="217.75" y="-143.4" font-family="Lato" font-size="12.00" fill="#000000">)</text>
<text text-anchor="start" x="124.25" y="-131.4" font-family="Lato" font-size="12.00" fill="#000000">[gen. Büchi 3]</text>
<!-- I -->
<!-- 0 -->
<g id="node2" class="node">
<title>0</title>
<ellipse fill="#ffffa0" stroke="#000000" cx="56" cy="-18" rx="18" ry="18"/>
<text text-anchor="middle" x="56" y="-14.9" font-family="Lato" font-size="12.00" fill="#000000">0</text>
</g>
<!-- I&#45;&gt;0 -->
<g id="edge1" class="edge">
<title>I&#45;&gt;0</title>
<path fill="none" stroke="#000000" d="M1.1233,-18C4.178,-18 17.9448,-18 30.9241,-18"/>
<polygon fill="#000000" stroke="#000000" points="37.9807,-18 30.9808,-21.1501 34.4807,-18 30.9807,-18.0001 30.9807,-18.0001 30.9807,-18.0001 34.4807,-18 30.9807,-14.8501 37.9807,-18 37.9807,-18"/>
</g>
<!-- 0&#45;&gt;0 -->
<g id="edge3" class="edge">
<title>0&#45;&gt;0</title>
<path fill="none" stroke="#000000" d="M49.6208,-35.0373C48.3189,-44.8579 50.4453,-54 56,-54 60.166,-54 62.4036,-48.8576 62.7128,-42.1433"/>
<polygon fill="#000000" stroke="#000000" points="62.3792,-35.0373 65.8541,-41.8818 62.5434,-38.5335 62.7076,-42.0296 62.7076,-42.0296 62.7076,-42.0296 62.5434,-38.5335 59.561,-42.1774 62.3792,-35.0373 62.3792,-35.0373"/>
<text text-anchor="start" x="32" y="-70.4" font-family="Lato" font-size="12.00" fill="#000000">!p0 &amp; !p1</text>
<text text-anchor="start" x="49" y="-57.4" font-family="Lato" font-size="12.00" fill="#ff7f00">❷</text>
</g>
<!-- 1 -->
<g id="node3" class="node">
<title>1</title>
<ellipse fill="#ffffa0" stroke="#000000" cx="179" cy="-64" rx="18" ry="18"/>
<text text-anchor="middle" x="179" y="-60.9" font-family="Lato" font-size="12.00" fill="#000000">1</text>
</g>
<!-- 0&#45;&gt;1 -->
<g id="edge2" class="edge">
<title>0&#45;&gt;1</title>
<path fill="none" stroke="#000000" d="M73.1026,-24.3961C94.4908,-32.3949 131.2192,-46.1307 155.3061,-55.1389"/>
<polygon fill="#000000" stroke="#000000" points="162.0426,-57.6582 154.3827,-58.1566 158.7644,-56.4322 155.4861,-55.2061 155.4861,-55.2061 155.4861,-55.2061 158.7644,-56.4322 156.5896,-52.2557 162.0426,-57.6582 162.0426,-57.6582"/>
<text text-anchor="start" x="92" y="-52.4" font-family="Lato" font-size="12.00" fill="#000000">!p0 &amp; !p1</text>
</g>
<!-- 1&#45;&gt;1 -->
<g id="edge4" class="edge">
<title>1&#45;&gt;1</title>
<path fill="none" stroke="#000000" d="M168.8486,-79.1666C165.7725,-89.6641 169.1563,-100 179,-100 186.5366,-100 190.2865,-93.9413 190.2497,-86.39"/>
<polygon fill="#000000" stroke="#000000" points="189.1514,-79.1666 193.318,-85.6135 189.6776,-82.6269 190.2037,-86.0871 190.2037,-86.0871 190.2037,-86.0871 189.6776,-82.6269 187.0895,-86.5607 189.1514,-79.1666 189.1514,-79.1666"/>
<text text-anchor="start" x="156.5" y="-115.4" font-family="Lato" font-size="12.00" fill="#000000">!p0 &amp; p1</text>
<text text-anchor="start" x="165" y="-103.4" font-family="Lato" font-size="12.00" fill="#1f78b4">⓿</text>
<text text-anchor="start" x="179" y="-103.4" font-family="Lato" font-size="12.00" fill="#ff4da0">❶</text>
</g>
<!-- 2 -->
<g id="node4" class="node">
<title>2</title>
<ellipse fill="#ffffa0" stroke="#000000" cx="299" cy="-35" rx="18" ry="18"/>
<text text-anchor="middle" x="299" y="-31.9" font-family="Lato" font-size="12.00" fill="#000000">2</text>
</g>
<!-- 1&#45;&gt;2 -->
<g id="edge5" class="edge">
<title>1&#45;&gt;2</title>
<path fill="none" stroke="#000000" d="M196.9307,-66.6636C214.3296,-68.5409 241.2229,-69.5482 263,-62 269.1545,-59.8668 275.1186,-56.2592 280.3636,-52.3639"/>
<polygon fill="#000000" stroke="#000000" points="286.1588,-47.73 282.6589,-54.5618 283.4252,-49.9158 280.6916,-52.1016 280.6916,-52.1016 280.6916,-52.1016 283.4252,-49.9158 278.7244,-49.6414 286.1588,-47.73 286.1588,-47.73"/>
<text text-anchor="start" x="218" y="-84.4" font-family="Lato" font-size="12.00" fill="#000000">!p0 &amp; p1</text>
<text text-anchor="start" x="233.5" y="-71.4" font-family="Lato" font-size="12.00" fill="#ff4da0">❶</text>
</g>
<!-- 2&#45;&gt;0 -->
<g id="edge7" class="edge">
<title>2&#45;&gt;0</title>
<path fill="none" stroke="#000000" d="M281.8791,-29.4127C275.9354,-27.568 269.2054,-25.5846 263,-24 235.299,-16.9262 228.442,-13.9039 200,-11 181.4299,-9.104 176.6557,-10.3606 158,-11 131.7732,-11.8989 101.8197,-14.0942 81.1913,-15.7887"/>
<polygon fill="#000000" stroke="#000000" points="74.0374,-16.387 80.7505,-12.6645 77.5252,-16.0953 81.0131,-15.8035 81.0131,-15.8035 81.0131,-15.8035 77.5252,-16.0953 81.2756,-18.9426 74.0374,-16.387 74.0374,-16.387"/>
<text text-anchor="start" x="158" y="-27.4" font-family="Lato" font-size="12.00" fill="#000000">p0 &amp; p1</text>
<text text-anchor="start" x="172" y="-14.4" font-family="Lato" font-size="12.00" fill="#1f78b4">⓿</text>
</g>
<!-- 2&#45;&gt;1 -->
<g id="edge6" class="edge">
<title>2&#45;&gt;1</title>
<path fill="none" stroke="#000000" d="M281.3611,-30.6622C264.5544,-27.3724 238.8021,-24.558 218,-32 210.0447,-34.846 202.5469,-40.0911 196.2916,-45.5231"/>
<polygon fill="#000000" stroke="#000000" points="190.9186,-50.5008 193.9129,-43.4327 193.4862,-48.1221 196.0537,-45.7435 196.0537,-45.7435 196.0537,-45.7435 193.4862,-48.1221 198.1945,-48.0543 190.9186,-50.5008 190.9186,-50.5008"/>
<text text-anchor="start" x="218" y="-48.4" font-family="Lato" font-size="12.00" fill="#000000">!p0 &amp; p1</text>
<text text-anchor="start" x="233.5" y="-35.4" font-family="Lato" font-size="12.00" fill="#1f78b4">⓿</text>
</g>
<!-- 2&#45;&gt;2 -->
<g id="edge8" class="edge">
<title>2&#45;&gt;2</title>
<path fill="none" stroke="#000000" d="M289.187,-50.1666C286.2134,-60.6641 289.4844,-71 299,-71 306.2854,-71 309.9103,-64.9413 309.8747,-57.39"/>
<polygon fill="#000000" stroke="#000000" points="308.813,-50.1666 312.9476,-56.6341 309.322,-53.6294 309.831,-57.0922 309.831,-57.0922 309.831,-57.0922 309.322,-53.6294 306.7145,-57.5503 308.813,-50.1666 308.813,-50.1666"/>
<text text-anchor="start" x="276.5" y="-87.4" font-family="Lato" font-size="12.00" fill="#000000">!p0 &amp; p1</text>
<text text-anchor="start" x="292" y="-74.4" font-family="Lato" font-size="12.00" fill="#1f78b4">⓿</text>
</g>
</g>
</svg>
