<?xml version="1.0" encoding="UTF-8" standalone="no"?>
<?xml-stylesheet href="spot.css" type="text/css"?>
<!DOCTYPE svg PUBLIC "-//W3C//DTD SVG 1.1//EN"
 "http://www.w3.org/Graphics/SVG/1.1/DTD/svg11.dtd">
<!-- Generated by graphviz version 2.40.1 (20161225.0304)
 -->
<!-- Pages: 1 -->
<svg width="292pt" height="244pt"
 viewBox="0.00 0.00 292.00 244.40" xmlns="http://www.w3.org/2000/svg" xmlns:xlink="http://www.w3.org/1999/xlink">
<g id="graph0" class="graph" transform="scale(1 1) rotate(0) translate(4 240.4)">
<polygon fill="#ffffff" stroke="transparent" points="-4,4 -4,-240.4 288,-240.4 288,4 -4,4"/>
<text text-anchor="start" x="123" y="-209.8" font-family="Lato" font-size="12.00" fill="#000000">[Büchi]</text>
<!-- I -->
<!-- 1 -->
<g id="node2" class="node">
<title>1</title>
<ellipse fill="#ffffa0" stroke="#000000" cx="56" cy="-103" rx="18" ry="18"/>
<text text-anchor="middle" x="56" y="-99.9" font-family="Lato" font-size="12.00" fill="#000000">1</text>
</g>
<!-- I&#45;&gt;1 -->
<g id="edge1" class="edge">
<title>I&#45;&gt;1</title>
<path fill="none" stroke="#000000" d="M1.1233,-103C4.178,-103 17.9448,-103 30.9241,-103"/>
<polygon fill="#000000" stroke="#000000" points="37.9807,-103 30.9808,-106.1501 34.4807,-103 30.9807,-103.0001 30.9807,-103.0001 30.9807,-103.0001 34.4807,-103 30.9807,-99.8501 37.9807,-103 37.9807,-103"/>
</g>
<!-- 1&#45;&gt;1 -->
<g id="edge5" class="edge">
<title>1&#45;&gt;1</title>
<path fill="none" stroke="#000000" d="M49.6208,-120.0373C48.3189,-129.8579 50.4453,-139 56,-139 60.166,-139 62.4036,-133.8576 62.7128,-127.1433"/>
<polygon fill="#000000" stroke="#000000" points="62.3792,-120.0373 65.8541,-126.8818 62.5434,-123.5335 62.7076,-127.0296 62.7076,-127.0296 62.7076,-127.0296 62.5434,-123.5335 59.561,-127.1774 62.3792,-120.0373 62.3792,-120.0373"/>
<text text-anchor="start" x="29" y="-142.4" font-family="Lato" font-size="12.00" fill="#000000">a &amp; !b &amp; !c</text>
</g>
<!-- 0 -->
<g id="node3" class="node">
<title>0</title>
<ellipse fill="#ffffa0" stroke="#000000" cx="179" cy="-152" rx="18" ry="18"/>
<text text-anchor="middle" x="179" y="-148.9" font-family="Lato" font-size="12.00" fill="#000000">0</text>
</g>
<!-- 1&#45;&gt;0 -->
<g id="edge4" class="edge">
<title>1&#45;&gt;0</title>
<path fill="none" stroke="#000000" d="M72.8447,-109.7105C94.1631,-118.2032 131.0132,-132.8833 155.199,-142.5183"/>
<polygon fill="#000000" stroke="#000000" points="161.964,-145.2133 154.2952,-145.549 158.7125,-143.918 155.461,-142.6226 155.461,-142.6226 155.461,-142.6226 158.7125,-143.918 156.6268,-139.6963 161.964,-145.2133 161.964,-145.2133"/>
<text text-anchor="start" x="102" y="-140.4" font-family="Lato" font-size="12.00" fill="#000000">b &amp; !c</text>
</g>
<!-- 3 -->
<g id="node4" class="node">
<title>3</title>
<ellipse fill="#ffffa0" stroke="#000000" cx="262" cy="-103" rx="18" ry="18"/>
<ellipse fill="none" stroke="#000000" cx="262" cy="-103" rx="22" ry="22"/>
<text text-anchor="middle" x="262" y="-99.9" font-family="Lato" font-size="12.00" fill="#000000">3</text>
</g>
<!-- 1&#45;&gt;3 -->
<g id="edge7" class="edge">
<title>1&#45;&gt;3</title>
<path fill="none" stroke="#000000" d="M74.2811,-103C110.0252,-103 189.4439,-103 232.6408,-103"/>
<polygon fill="#000000" stroke="#000000" points="239.7587,-103 232.7587,-106.1501 236.2587,-103 232.7587,-103.0001 232.7587,-103.0001 232.7587,-103.0001 236.2587,-103 232.7586,-99.8501 239.7587,-103 239.7587,-103"/>
<text text-anchor="start" x="165" y="-106.4" font-family="Lato" font-size="12.00" fill="#000000">b &amp; c</text>
</g>
<!-- 2 -->
<g id="node5" class="node">
<title>2</title>
<ellipse fill="#ffffa0" stroke="#000000" cx="179" cy="-18" rx="18" ry="18"/>
<text text-anchor="middle" x="179" y="-14.9" font-family="Lato" font-size="12.00" fill="#000000">2</text>
</g>
<!-- 1&#45;&gt;2 -->
<g id="edge6" class="edge">
<title>1&#45;&gt;2</title>
<path fill="none" stroke="#000000" d="M70.5772,-91.7791C77.0735,-86.8534 84.857,-81.0538 92,-76 114.0409,-60.4057 139.8377,-43.3537 157.5861,-31.8017"/>
<polygon fill="#000000" stroke="#000000" points="163.739,-27.8074 159.5829,-34.2611 160.8033,-29.7132 157.8677,-31.619 157.8677,-31.619 157.8677,-31.619 160.8033,-29.7132 156.1525,-28.9769 163.739,-27.8074 163.739,-27.8074"/>
<text text-anchor="start" x="92" y="-79.4" font-family="Lato" font-size="12.00" fill="#000000">a &amp; !b &amp; c</text>
</g>
<!-- 0&#45;&gt;0 -->
<g id="edge2" class="edge">
<title>0&#45;&gt;0</title>
<path fill="none" stroke="#000000" d="M172.2664,-169.0373C170.8922,-178.8579 173.1367,-188 179,-188 183.3975,-188 185.7594,-182.8576 186.0858,-176.1433"/>
<polygon fill="#000000" stroke="#000000" points="185.7336,-169.0373 189.2263,-175.8728 185.9069,-172.533 186.0802,-176.0287 186.0802,-176.0287 186.0802,-176.0287 185.9069,-172.533 182.934,-176.1847 185.7336,-169.0373 185.7336,-169.0373"/>
<text text-anchor="start" x="174" y="-191.4" font-family="Lato" font-size="12.00" fill="#000000">!c</text>
</g>
<!-- 0&#45;&gt;3 -->
<g id="edge3" class="edge">
<title>0&#45;&gt;3</title>
<path fill="none" stroke="#000000" d="M194.6117,-142.7835C206.5026,-135.7635 223.1148,-125.9563 236.8698,-117.8359"/>
<polygon fill="#000000" stroke="#000000" points="242.9614,-114.2397 238.5349,-120.511 239.9474,-116.019 236.9334,-117.7984 236.9334,-117.7984 236.9334,-117.7984 239.9474,-116.019 235.332,-115.0858 242.9614,-114.2397 242.9614,-114.2397"/>
<text text-anchor="start" x="215" y="-133.4" font-family="Lato" font-size="12.00" fill="#000000">c</text>
</g>
<!-- 3&#45;&gt;3 -->
<g id="edge10" class="edge">
<title>3&#45;&gt;3</title>
<path fill="none" stroke="#000000" d="M254.3173,-123.9908C253.3688,-134.0872 255.9297,-143 262,-143 266.5527,-143 269.1314,-137.9866 269.7361,-131.2204"/>
<polygon fill="#000000" stroke="#000000" points="269.6827,-123.9908 272.8844,-130.9673 269.7086,-127.4907 269.7345,-130.9906 269.7345,-130.9906 269.7345,-130.9906 269.7086,-127.4907 266.5846,-131.0139 269.6827,-123.9908 269.6827,-123.9908"/>
<text text-anchor="middle" x="262" y="-146.4" font-family="Lato" font-size="12.00" fill="#000000">1</text>
</g>
<!-- 2&#45;&gt;3 -->
<g id="edge9" class="edge">
<title>2&#45;&gt;3</title>
<path fill="none" stroke="#000000" d="M191.6059,-30.9097C204.8069,-44.4287 225.7515,-65.878 241.3674,-81.8702"/>
<polygon fill="#000000" stroke="#000000" points="246.4401,-87.0651 239.2958,-84.2575 243.9948,-84.561 241.5496,-82.0568 241.5496,-82.0568 241.5496,-82.0568 243.9948,-84.561 243.8033,-79.8561 246.4401,-87.0651 246.4401,-87.0651"/>
<text text-anchor="start" x="215" y="-63.4" font-family="Lato" font-size="12.00" fill="#000000">b</text>
</g>
<!-- 2&#45;&gt;2 -->
<g id="edge8" class="edge">
<title>2&#45;&gt;2</title>
<path fill="none" stroke="#000000" d="M172.2664,-35.0373C170.8922,-44.8579 173.1367,-54 179,-54 183.3975,-54 185.7594,-48.8576 186.0858,-42.1433"/>
<polygon fill="#000000" stroke="#000000" points="185.7336,-35.0373 189.2263,-41.8728 185.9069,-38.533 186.0802,-42.0287 186.0802,-42.0287 186.0802,-42.0287 185.9069,-38.533 182.934,-42.1847 185.7336,-35.0373 185.7336,-35.0373"/>
<text text-anchor="start" x="163.5" y="-57.4" font-family="Lato" font-size="12.00" fill="#000000">a &amp; !b</text>
</g>
</g>
</svg>
