<?xml version="1.0" encoding="UTF-8" standalone="no"?>
<?xml-stylesheet href="spot.css" type="text/css"?>
<!DOCTYPE svg PUBLIC "-//W3C//DTD SVG 1.1//EN"
 "http://www.w3.org/Graphics/SVG/1.1/DTD/svg11.dtd">
<!-- Generated by graphviz version 2.40.1 (20161225.0304)
 -->
<!-- Title: G(!red | X!yellow) Pages: 1 -->
<svg width="244pt" height="113pt"
 viewBox="0.00 0.00 244.00 113.32" xmlns="http://www.w3.org/2000/svg" xmlns:xlink="http://www.w3.org/1999/xlink">
<g id="graph0" class="graph" transform="scale(1 1) rotate(0) translate(4 109.3243)">
<title>G(!red | X!yellow)</title>
<polygon fill="#ffffff" stroke="transparent" points="-4,4 -4,-109.3243 240,-109.3243 240,4 -4,4"/>
<text text-anchor="start" x="115.5" y="-91.7243" font-family="Lato" font-size="12.00" fill="#000000">t</text>
<text text-anchor="start" x="108" y="-78.7243" font-family="Lato" font-size="12.00" fill="#000000">[all]</text>
<!-- I -->
<!-- 0 -->
<g id="node2" class="node">
<title>0</title>
<ellipse fill="#ffffa0" stroke="#000000" cx="56" cy="-22.3243" rx="18" ry="18"/>
<text text-anchor="middle" x="56" y="-19.2243" font-family="Lato" font-size="12.00" fill="#000000">0</text>
</g>
<!-- I&#45;&gt;0 -->
<g id="edge1" class="edge">
<title>I&#45;&gt;0</title>
<path fill="none" stroke="#000000" d="M1.1233,-22.3243C4.178,-22.3243 17.9448,-22.3243 30.9241,-22.3243"/>
<polygon fill="#000000" stroke="#000000" points="37.9807,-22.3243 30.9808,-25.4744 34.4807,-22.3243 30.9807,-22.3244 30.9807,-22.3244 30.9807,-22.3244 34.4807,-22.3243 30.9807,-19.1744 37.9807,-22.3243 37.9807,-22.3243"/>
</g>
<!-- 0&#45;&gt;0 -->
<g id="edge2" class="edge">
<title>0&#45;&gt;0</title>
<path fill="none" stroke="#000000" d="M49.6208,-39.3616C48.3189,-49.1822 50.4453,-58.3243 56,-58.3243 60.166,-58.3243 62.4036,-53.1818 62.7128,-46.4676"/>
<polygon fill="#000000" stroke="#000000" points="62.3792,-39.3616 65.8541,-46.2061 62.5434,-42.8577 62.7076,-46.3539 62.7076,-46.3539 62.7076,-46.3539 62.5434,-42.8577 59.561,-46.5016 62.3792,-39.3616 62.3792,-39.3616"/>
<text text-anchor="start" x="45.5" y="-61.7243" font-family="Lato" font-size="12.00" fill="#000000">!red</text>
</g>
<!-- 1 -->
<g id="node3" class="node">
<title>1</title>
<ellipse fill="#ffffa0" stroke="#000000" cx="201" cy="-22.3243" rx="18" ry="18"/>
<text text-anchor="middle" x="201" y="-19.2243" font-family="Lato" font-size="12.00" fill="#000000">1</text>
</g>
<!-- 0&#45;&gt;1 -->
<g id="edge3" class="edge">
<title>0&#45;&gt;1</title>
<path fill="none" stroke="#000000" d="M74.0712,-22.3243C99.5777,-22.3243 146.2653,-22.3243 175.3525,-22.3243"/>
<polygon fill="#000000" stroke="#000000" points="182.7011,-22.3243 175.7011,-25.4744 179.2011,-22.3243 175.7011,-22.3244 175.7011,-22.3244 175.7011,-22.3244 179.2011,-22.3243 175.701,-19.1744 182.7011,-22.3243 182.7011,-22.3243"/>
<text text-anchor="start" x="119.5" y="-25.7243" font-family="Lato" font-size="12.00" fill="#000000">red</text>
</g>
<!-- 1&#45;&gt;0 -->
<g id="edge4" class="edge">
<title>1&#45;&gt;0</title>
<path fill="none" stroke="#000000" d="M185.4151,-13.1251C179.2707,-9.9977 172.0141,-6.8971 165,-5.3243 133.3417,1.7748 123.6583,1.7748 92,-5.3243 87.2874,-6.381 82.4654,-8.1274 77.9447,-10.1082"/>
<polygon fill="#000000" stroke="#000000" points="71.5849,-13.1251 76.5593,-7.2789 74.7472,-11.625 77.9094,-10.1249 77.9094,-10.1249 77.9094,-10.1249 74.7472,-11.625 79.2595,-12.9709 71.5849,-13.1251 71.5849,-13.1251"/>
<text text-anchor="start" x="92" y="-8.7243" font-family="Lato" font-size="12.00" fill="#000000">!red &amp; !yellow</text>
</g>
<!-- 1&#45;&gt;1 -->
<g id="edge5" class="edge">
<title>1&#45;&gt;1</title>
<path fill="none" stroke="#000000" d="M189.2435,-36.366C184.8468,-47.2369 188.7656,-58.3243 201,-58.3243 210.5581,-58.3243 215.0408,-51.557 214.4481,-43.4128"/>
<polygon fill="#000000" stroke="#000000" points="212.7565,-36.366 217.4535,-42.4373 213.5735,-39.7693 214.3905,-43.1726 214.3905,-43.1726 214.3905,-43.1726 213.5735,-39.7693 211.3275,-43.908 212.7565,-36.366 212.7565,-36.366"/>
<text text-anchor="start" x="166" y="-61.7243" font-family="Lato" font-size="12.00" fill="#000000">red &amp; !yellow</text>
</g>
</g>
</svg>
