<?xml version="1.0" encoding="UTF-8" standalone="no"?>
<?xml-stylesheet href="spot.css" type="text/css"?>
<!DOCTYPE svg PUBLIC "-//W3C//DTD SVG 1.1//EN"
 "http://www.w3.org/Graphics/SVG/1.1/DTD/svg11.dtd">
<!-- Generated by graphviz version 2.40.1 (20161225.0304)
 -->
<!-- Title: (a U (alive &amp; b)) &amp; F(alive &amp; c) &amp; (alive U G!alive) Pages: 1 -->
<svg width="499pt" height="244pt"
 viewBox="0.00 0.00 499.00 244.40" xmlns="http://www.w3.org/2000/svg" xmlns:xlink="http://www.w3.org/1999/xlink">
<g id="graph0" class="graph" transform="scale(1 1) rotate(0) translate(4 240.4)">
<title>(a U (alive &amp; b)) &amp; F(alive &amp; c) &amp; (alive U G!alive)</title>
<polygon fill="#ffffff" stroke="transparent" points="-4,4 -4,-240.4 495,-240.4 495,4 -4,4"/>
<text text-anchor="start" x="226.5" y="-209.8" font-family="Lato" font-size="12.00" fill="#000000">[Büchi]</text>
<!-- I -->
<!-- 3 -->
<g id="node2" class="node">
<title>3</title>
<ellipse fill="#ffffa0" stroke="#000000" cx="56" cy="-103" rx="18" ry="18"/>
<text text-anchor="middle" x="56" y="-99.9" font-family="Lato" font-size="12.00" fill="#000000">3</text>
</g>
<!-- I&#45;&gt;3 -->
<g id="edge1" class="edge">
<title>I&#45;&gt;3</title>
<path fill="none" stroke="#000000" d="M1.1233,-103C4.178,-103 17.9448,-103 30.9241,-103"/>
<polygon fill="#000000" stroke="#000000" points="37.9807,-103 30.9808,-106.1501 34.4807,-103 30.9807,-103.0001 30.9807,-103.0001 30.9807,-103.0001 34.4807,-103 30.9807,-99.8501 37.9807,-103 37.9807,-103"/>
</g>
<!-- 3&#45;&gt;3 -->
<g id="edge9" class="edge">
<title>3&#45;&gt;3</title>
<path fill="none" stroke="#000000" d="M49.6208,-120.0373C48.3189,-129.8579 50.4453,-139 56,-139 60.166,-139 62.4036,-133.8576 62.7128,-127.1433"/>
<polygon fill="#000000" stroke="#000000" points="62.3792,-120.0373 65.8541,-126.8818 62.5434,-123.5335 62.7076,-127.0296 62.7076,-127.0296 62.7076,-127.0296 62.5434,-123.5335 59.561,-127.1774 62.3792,-120.0373 62.3792,-120.0373"/>
<text text-anchor="start" x="10" y="-142.4" font-family="Lato" font-size="12.00" fill="#000000">a &amp; alive &amp; !b &amp; !c</text>
</g>
<!-- 1 -->
<g id="node4" class="node">
<title>1</title>
<ellipse fill="#ffffa0" stroke="#000000" cx="232" cy="-152" rx="18" ry="18"/>
<text text-anchor="middle" x="232" y="-148.9" font-family="Lato" font-size="12.00" fill="#000000">1</text>
</g>
<!-- 3&#45;&gt;1 -->
<g id="edge7" class="edge">
<title>3&#45;&gt;1</title>
<path fill="none" stroke="#000000" d="M72.6929,-109.996C78.7184,-112.3866 85.6095,-114.9675 92,-117 131.6691,-129.6168 178.8192,-140.5997 207.0291,-146.7549"/>
<polygon fill="#000000" stroke="#000000" points="214.1192,-148.287 206.6117,-149.8873 210.6981,-147.5477 207.2771,-146.8084 207.2771,-146.8084 207.2771,-146.8084 210.6981,-147.5477 207.9425,-143.7294 214.1192,-148.287 214.1192,-148.287"/>
<text text-anchor="start" x="102" y="-143.4" font-family="Lato" font-size="12.00" fill="#000000">alive &amp; b &amp; !c</text>
</g>
<!-- 2 -->
<g id="node5" class="node">
<title>2</title>
<ellipse fill="#ffffa0" stroke="#000000" cx="365" cy="-103" rx="18" ry="18"/>
<text text-anchor="middle" x="365" y="-99.9" font-family="Lato" font-size="12.00" fill="#000000">2</text>
</g>
<!-- 3&#45;&gt;2 -->
<g id="edge8" class="edge">
<title>3&#45;&gt;2</title>
<path fill="none" stroke="#000000" d="M74.404,-103C127.1084,-103 278.7109,-103 339.417,-103"/>
<polygon fill="#000000" stroke="#000000" points="346.6925,-103 339.6925,-106.1501 343.1925,-103 339.6925,-103.0001 339.6925,-103.0001 339.6925,-103.0001 343.1925,-103 339.6924,-99.8501 346.6925,-103 346.6925,-103"/>
<text text-anchor="start" x="199" y="-106.4" font-family="Lato" font-size="12.00" fill="#000000">alive &amp; b &amp; c</text>
</g>
<!-- 4 -->
<g id="node6" class="node">
<title>4</title>
<ellipse fill="#ffffa0" stroke="#000000" cx="232" cy="-18" rx="18" ry="18"/>
<text text-anchor="middle" x="232" y="-14.9" font-family="Lato" font-size="12.00" fill="#000000">4</text>
</g>
<!-- 3&#45;&gt;4 -->
<g id="edge10" class="edge">
<title>3&#45;&gt;4</title>
<path fill="none" stroke="#000000" d="M69.7996,-91.3654C76.2775,-86.2475 84.2627,-80.4109 92,-76 130.5583,-54.0186 179.0957,-35.8205 207.7149,-25.9653"/>
<polygon fill="#000000" stroke="#000000" points="214.5436,-23.6423 208.9311,-28.879 211.2301,-24.7696 207.9166,-25.8968 207.9166,-25.8968 207.9166,-25.8968 211.2301,-24.7696 206.9021,-22.9146 214.5436,-23.6423 214.5436,-23.6423"/>
<text text-anchor="start" x="92" y="-79.4" font-family="Lato" font-size="12.00" fill="#000000">a &amp; alive &amp; !b &amp; c</text>
</g>
<!-- 0 -->
<g id="node3" class="node">
<title>0</title>
<ellipse fill="#ffffa0" stroke="#000000" cx="469" cy="-103" rx="18" ry="18"/>
<ellipse fill="none" stroke="#000000" cx="469" cy="-103" rx="22" ry="22"/>
<text text-anchor="middle" x="469" y="-99.9" font-family="Lato" font-size="12.00" fill="#000000">0</text>
</g>
<!-- 0&#45;&gt;0 -->
<g id="edge2" class="edge">
<title>0&#45;&gt;0</title>
<path fill="none" stroke="#000000" d="M459.2928,-122.7575C457.6432,-133.3499 460.8789,-143 469,-143 475.2177,-143 478.5717,-137.3433 479.062,-129.9379"/>
<polygon fill="#000000" stroke="#000000" points="478.7072,-122.7575 482.199,-129.5935 478.88,-126.2532 479.0528,-129.749 479.0528,-129.749 479.0528,-129.749 478.88,-126.2532 475.9066,-129.9044 478.7072,-122.7575 478.7072,-122.7575"/>
<text text-anchor="start" x="455" y="-146.4" font-family="Lato" font-size="12.00" fill="#000000">!alive</text>
</g>
<!-- 1&#45;&gt;1 -->
<g id="edge3" class="edge">
<title>1&#45;&gt;1</title>
<path fill="none" stroke="#000000" d="M220.0762,-165.667C215.3066,-176.6563 219.2813,-188 232,-188 241.9365,-188 246.536,-181.0763 245.7986,-172.8071"/>
<polygon fill="#000000" stroke="#000000" points="243.9238,-165.667 248.7483,-171.6375 244.8127,-169.0522 245.7016,-172.4375 245.7016,-172.4375 245.7016,-172.4375 244.8127,-169.0522 242.6549,-173.2375 243.9238,-165.667 243.9238,-165.667"/>
<text text-anchor="start" x="208" y="-191.4" font-family="Lato" font-size="12.00" fill="#000000">alive &amp; !c</text>
</g>
<!-- 1&#45;&gt;2 -->
<g id="edge4" class="edge">
<title>1&#45;&gt;2</title>
<path fill="none" stroke="#000000" d="M249.2183,-145.9313C268.6473,-139.0501 301.1713,-127.43 329,-117 333.0228,-115.4923 337.2866,-113.8625 341.4189,-112.2661"/>
<polygon fill="#000000" stroke="#000000" points="348.1833,-109.6384 342.7989,-115.1094 344.9208,-110.9058 341.6583,-112.1731 341.6583,-112.1731 341.6583,-112.1731 344.9208,-110.9058 340.5177,-109.2369 348.1833,-109.6384 348.1833,-109.6384"/>
<text text-anchor="start" x="283.5" y="-136.4" font-family="Lato" font-size="12.00" fill="#000000">alive &amp; c</text>
</g>
<!-- 2&#45;&gt;0 -->
<g id="edge5" class="edge">
<title>2&#45;&gt;0</title>
<path fill="none" stroke="#000000" d="M383.1154,-103C398.5957,-103 421.1724,-103 439.2935,-103"/>
<polygon fill="#000000" stroke="#000000" points="446.7532,-103 439.7532,-106.1501 443.2532,-103 439.7532,-103.0001 439.7532,-103.0001 439.7532,-103.0001 443.2532,-103 439.7532,-99.8501 446.7532,-103 446.7532,-103"/>
<text text-anchor="start" x="401" y="-106.4" font-family="Lato" font-size="12.00" fill="#000000">!alive</text>
</g>
<!-- 2&#45;&gt;2 -->
<g id="edge6" class="edge">
<title>2&#45;&gt;2</title>
<path fill="none" stroke="#000000" d="M356.3666,-118.916C354.1144,-129.1504 356.9922,-139 365,-139 371.131,-139 374.2548,-133.2263 374.3716,-125.9268"/>
<polygon fill="#000000" stroke="#000000" points="373.6334,-118.916 377.4992,-125.5477 374,-122.3968 374.3665,-125.8775 374.3665,-125.8775 374.3665,-125.8775 374,-122.3968 371.2338,-126.2074 373.6334,-118.916 373.6334,-118.916"/>
<text text-anchor="start" x="352.5" y="-142.4" font-family="Lato" font-size="12.00" fill="#000000">alive</text>
</g>
<!-- 4&#45;&gt;2 -->
<g id="edge11" class="edge">
<title>4&#45;&gt;2</title>
<path fill="none" stroke="#000000" d="M247.7665,-26.7515C267.2213,-37.7031 301.1426,-57.2994 329,-76 334.2216,-79.5053 339.7191,-83.4758 344.8025,-87.2725"/>
<polygon fill="#000000" stroke="#000000" points="350.5385,-91.6112 343.0554,-89.9006 347.7471,-89.4997 344.9557,-87.3883 344.9557,-87.3883 344.9557,-87.3883 347.7471,-89.4997 346.856,-84.876 350.5385,-91.6112 350.5385,-91.6112"/>
<text text-anchor="start" x="283" y="-79.4" font-family="Lato" font-size="12.00" fill="#000000">alive &amp; b</text>
</g>
<!-- 4&#45;&gt;4 -->
<g id="edge12" class="edge">
<title>4&#45;&gt;4</title>
<path fill="none" stroke="#000000" d="M220.0762,-31.667C215.3066,-42.6563 219.2813,-54 232,-54 241.9365,-54 246.536,-47.0763 245.7986,-38.8071"/>
<polygon fill="#000000" stroke="#000000" points="243.9238,-31.667 248.7483,-37.6375 244.8127,-35.0522 245.7016,-38.4375 245.7016,-38.4375 245.7016,-38.4375 244.8127,-35.0522 242.6549,-39.2375 243.9238,-31.667 243.9238,-31.667"/>
<text text-anchor="start" x="197.5" y="-57.4" font-family="Lato" font-size="12.00" fill="#000000">a &amp; alive &amp; !b</text>
</g>
</g>
</svg>
