<?xml version="1.0" encoding="UTF-8" standalone="no"?>
<?xml-stylesheet href="spot.css" type="text/css"?>
<!DOCTYPE svg PUBLIC "-//W3C//DTD SVG 1.1//EN"
 "http://www.w3.org/Graphics/SVG/1.1/DTD/svg11.dtd">
<!-- Generated by graphviz version 2.40.1 (20161225.0304)
 -->
<!-- Title: G(!press | (red U green)) Pages: 1 -->
<svg width="274pt" height="116pt"
 viewBox="0.00 0.00 274.00 115.73" xmlns="http://www.w3.org/2000/svg" xmlns:xlink="http://www.w3.org/1999/xlink">
<g id="graph0" class="graph" transform="scale(1 1) rotate(0) translate(4 111.7311)">
<title>G(!press | (red U green))</title>
<polygon fill="#ffffff" stroke="transparent" points="-4,4 -4,-111.7311 270,-111.7311 270,4 -4,4"/>
<text text-anchor="start" x="130.5" y="-94.1311" font-family="Lato" font-size="12.00" fill="#000000">t</text>
<text text-anchor="start" x="123" y="-81.1311" font-family="Lato" font-size="12.00" fill="#000000">[all]</text>
<!-- I -->
<!-- 1 -->
<g id="node2" class="node">
<title>1</title>
<ellipse fill="#ffffa0" stroke="#000000" cx="56" cy="-24.7311" rx="18" ry="18"/>
<text text-anchor="middle" x="56" y="-21.6311" font-family="Lato" font-size="12.00" fill="#000000">1</text>
</g>
<!-- I&#45;&gt;1 -->
<g id="edge1" class="edge">
<title>I&#45;&gt;1</title>
<path fill="none" stroke="#000000" d="M1.1233,-24.7311C4.178,-24.7311 17.9448,-24.7311 30.9241,-24.7311"/>
<polygon fill="#000000" stroke="#000000" points="37.9807,-24.7311 30.9808,-27.8812 34.4807,-24.7312 30.9807,-24.7312 30.9807,-24.7312 30.9807,-24.7312 34.4807,-24.7312 30.9807,-21.5812 37.9807,-24.7311 37.9807,-24.7311"/>
</g>
<!-- 1&#45;&gt;1 -->
<g id="edge5" class="edge">
<title>1&#45;&gt;1</title>
<path fill="none" stroke="#000000" d="M49.6208,-41.7684C48.3189,-51.589 50.4453,-60.7311 56,-60.7311 60.166,-60.7311 62.4036,-55.5887 62.7128,-48.8744"/>
<polygon fill="#000000" stroke="#000000" points="62.3792,-41.7684 65.8541,-48.613 62.5434,-45.2646 62.7076,-48.7607 62.7076,-48.7607 62.7076,-48.7607 62.5434,-45.2646 59.561,-48.9085 62.3792,-41.7684 62.3792,-41.7684"/>
<text text-anchor="start" x="21" y="-64.1311" font-family="Lato" font-size="12.00" fill="#000000">green | !press</text>
</g>
<!-- 0 -->
<g id="node3" class="node">
<title>0</title>
<ellipse fill="#ffffa0" stroke="#000000" cx="234" cy="-24.7311" rx="18" ry="18"/>
<text text-anchor="middle" x="234" y="-21.6311" font-family="Lato" font-size="12.00" fill="#000000">0</text>
</g>
<!-- 1&#45;&gt;0 -->
<g id="edge4" class="edge">
<title>1&#45;&gt;0</title>
<path fill="none" stroke="#000000" d="M74.0472,-24.7311C105.898,-24.7311 172.1525,-24.7311 208.6025,-24.7311"/>
<polygon fill="#000000" stroke="#000000" points="215.9051,-24.7311 208.9051,-27.8812 212.4051,-24.7312 208.9051,-24.7312 208.9051,-24.7312 208.9051,-24.7312 212.4051,-24.7312 208.905,-21.5812 215.9051,-24.7311 215.9051,-24.7311"/>
<text text-anchor="start" x="92" y="-28.1311" font-family="Lato" font-size="12.00" fill="#000000">!green &amp; press &amp; red</text>
</g>
<!-- 0&#45;&gt;1 -->
<g id="edge3" class="edge">
<title>0&#45;&gt;1</title>
<path fill="none" stroke="#000000" d="M218.4151,-15.532C212.2707,-12.4045 205.0141,-9.3039 198,-7.7311 152.0305,2.577 137.9695,2.577 92,-7.7311 87.2874,-8.7879 82.4654,-10.5343 77.9447,-12.5151"/>
<polygon fill="#000000" stroke="#000000" points="71.5849,-15.532 76.5593,-9.6857 74.7472,-14.0319 77.9094,-12.5318 77.9094,-12.5318 77.9094,-12.5318 74.7472,-14.0319 79.2595,-15.3778 71.5849,-15.532 71.5849,-15.532"/>
<text text-anchor="start" x="130" y="-11.1311" font-family="Lato" font-size="12.00" fill="#000000">green</text>
</g>
<!-- 0&#45;&gt;0 -->
<g id="edge2" class="edge">
<title>0&#45;&gt;0</title>
<path fill="none" stroke="#000000" d="M220.6582,-36.9029C213.7402,-48.3327 218.1875,-60.7311 234,-60.7311 246.7241,-60.7311 252.089,-52.7029 250.0946,-43.6113"/>
<polygon fill="#000000" stroke="#000000" points="247.3418,-36.9029 252.9135,-42.1829 248.6706,-40.1408 249.9993,-43.3788 249.9993,-43.3788 249.9993,-43.3788 248.6706,-40.1408 247.0851,-44.5747 247.3418,-36.9029 247.3418,-36.9029"/>
<text text-anchor="start" x="202" y="-64.1311" font-family="Lato" font-size="12.00" fill="#000000">!green &amp; red</text>
</g>
</g>
</svg>
