<?xml version="1.0" encoding="UTF-8" standalone="no"?>
<?xml-stylesheet href="spot.css" type="text/css"?>
<!DOCTYPE svg PUBLIC "-//W3C//DTD SVG 1.1//EN"
 "http://www.w3.org/Graphics/SVG/1.1/DTD/svg11.dtd">
<!-- Generated by graphviz version 2.40.1 (20161225.0304)
 -->
<!-- Pages: 1 -->
<svg width="211pt" height="205pt"
 viewBox="0.00 0.00 210.60 205.00" xmlns="http://www.w3.org/2000/svg" xmlns:xlink="http://www.w3.org/1999/xlink">
<g id="graph0" class="graph" transform="scale(1 1) rotate(0) translate(4 201)">
<polygon fill="#ffffff" stroke="transparent" points="-4,4 -4,-201 206.6,-201 206.6,4 -4,4"/>
<text text-anchor="start" x="82.3" y="-184.4" font-family="Lato" font-size="12.00" fill="#000000">Fin(</text>
<text text-anchor="start" x="102.3" y="-184.4" font-family="Lato" font-size="12.00" fill="#1f78b4">⓿</text>
<text text-anchor="start" x="116.3" y="-184.4" font-family="Lato" font-size="12.00" fill="#000000">)</text>
<text text-anchor="start" x="73.8" y="-172.4" font-family="Lato" font-size="12.00" fill="#000000">[co&#45;Büchi]</text>
<!-- I -->
<!-- &#45;1 -->
<g id="node2" class="node">
<title>&#45;1</title>
<ellipse fill="#ffffa0" stroke="#000000" cx="39.8" cy="-88" rx="1.8" ry="1.8"/>
</g>
<!-- I&#45;&gt;&#45;1 -->
<g id="edge1" class="edge">
<title>I&#45;&gt;&#45;1</title>
<path fill="none" stroke="#000000" d="M1.1821,-88C4.6508,-88 20.5694,-88 30.8552,-88"/>
<polygon fill="none" stroke="#000000" points="30.9898,-90.4501 37.9898,-88 30.9898,-85.5501 30.9898,-90.4501"/>
</g>
<!-- 0 -->
<g id="node3" class="node">
<title>0</title>
<ellipse fill="#ffffa0" stroke="#000000" cx="105.6" cy="-116" rx="18" ry="18"/>
<text text-anchor="middle" x="105.6" y="-112.9" font-family="Lato" font-size="12.00" fill="#000000">0</text>
</g>
<!-- &#45;1&#45;&gt;0 -->
<g id="edge2" class="edge">
<title>&#45;1&#45;&gt;0</title>
<path fill="none" stroke="#000000" d="M41.5326,-89.5208C44.8329,-92.3472 52.3408,-98.4445 59.6,-102 66.2347,-105.2496 73.7796,-107.9256 80.8125,-110.0362"/>
<polygon fill="#000000" stroke="#000000" points="87.622,-111.9586 80.0295,-113.0882 84.2537,-111.0076 80.8854,-110.0567 80.8854,-110.0567 80.8854,-110.0567 84.2537,-111.0076 81.7412,-107.0251 87.622,-111.9586 87.622,-111.9586"/>
</g>
<!-- 1 -->
<g id="node4" class="node">
<title>1</title>
<ellipse fill="#ffffa0" stroke="#000000" cx="105.6" cy="-18" rx="18" ry="18"/>
<text text-anchor="middle" x="105.6" y="-14.9" font-family="Lato" font-size="12.00" fill="#000000">1</text>
</g>
<!-- &#45;1&#45;&gt;1 -->
<g id="edge3" class="edge">
<title>&#45;1&#45;&gt;1</title>
<path fill="none" stroke="#000000" d="M41.1743,-86.538C47.1285,-80.2038 71.1597,-54.6386 88.1222,-36.5934"/>
<polygon fill="#000000" stroke="#000000" points="93.1316,-31.2642 90.6324,-38.5221 90.7344,-33.8144 88.3372,-36.3646 88.3372,-36.3646 88.3372,-36.3646 90.7344,-33.8144 86.0421,-34.2071 93.1316,-31.2642 93.1316,-31.2642"/>
</g>
<!-- 0&#45;&gt;&#45;1 -->
<g id="edge5" class="edge">
<title>0&#45;&gt;&#45;1</title>
<path fill="none" stroke="#000000" d="M93.7708,-101.9651C87.3688,-95.4713 78.8788,-88.4445 69.6,-85 62.7876,-82.4711 54.5324,-83.5972 48.4398,-85.1415"/>
<polygon fill="none" stroke="#000000" points="47.4255,-82.892 41.4807,-87.3262 48.8932,-87.567 47.4255,-82.892"/>
<text text-anchor="start" x="59.6" y="-88.4" font-family="Lato" font-size="12.00" fill="#000000">!a</text>
</g>
<!-- 0&#45;&gt;0 -->
<g id="edge4" class="edge">
<title>0&#45;&gt;0</title>
<path fill="none" stroke="#000000" d="M98.8664,-133.0373C97.4922,-142.8579 99.7367,-152 105.6,-152 109.9975,-152 112.3594,-146.8576 112.6858,-140.1433"/>
<polygon fill="#000000" stroke="#000000" points="112.3336,-133.0373 115.8263,-139.8728 112.5069,-136.533 112.6802,-140.0287 112.6802,-140.0287 112.6802,-140.0287 112.5069,-136.533 109.534,-140.1847 112.3336,-133.0373 112.3336,-133.0373"/>
<text text-anchor="start" x="102.1" y="-155.4" font-family="Lato" font-size="12.00" fill="#000000">a</text>
</g>
<!-- 1&#45;&gt;1 -->
<g id="edge6" class="edge">
<title>1&#45;&gt;1</title>
<path fill="none" stroke="#000000" d="M98.8664,-35.0373C97.4922,-44.8579 99.7367,-54 105.6,-54 109.9975,-54 112.3594,-48.8576 112.6858,-42.1433"/>
<polygon fill="#000000" stroke="#000000" points="112.3336,-35.0373 115.8263,-41.8728 112.5069,-38.533 112.6802,-42.0287 112.6802,-42.0287 112.6802,-42.0287 112.5069,-38.533 109.534,-42.1847 112.3336,-35.0373 112.3336,-35.0373"/>
<text text-anchor="start" x="100.6" y="-70.4" font-family="Lato" font-size="12.00" fill="#000000">!a</text>
<text text-anchor="start" x="98.6" y="-57.4" font-family="Lato" font-size="12.00" fill="#1f78b4">⓿</text>
</g>
<!-- 2 -->
<g id="node5" class="node">
<title>2</title>
<ellipse fill="#ffffa0" stroke="#000000" cx="184.6" cy="-18" rx="18" ry="18"/>
<text text-anchor="middle" x="184.6" y="-14.9" font-family="Lato" font-size="12.00" fill="#000000">2</text>
</g>
<!-- 1&#45;&gt;2 -->
<g id="edge7" class="edge">
<title>1&#45;&gt;2</title>
<path fill="none" stroke="#000000" d="M123.9228,-18C134.3921,-18 147.6794,-18 159.1495,-18"/>
<polygon fill="#000000" stroke="#000000" points="166.3766,-18 159.3767,-21.1501 162.8766,-18 159.3766,-18.0001 159.3766,-18.0001 159.3766,-18.0001 162.8766,-18 159.3766,-14.8501 166.3766,-18 166.3766,-18"/>
<text text-anchor="start" x="141.6" y="-21.4" font-family="Lato" font-size="12.00" fill="#000000">a</text>
</g>
<!-- 2&#45;&gt;2 -->
<g id="edge8" class="edge">
<title>2&#45;&gt;2</title>
<path fill="none" stroke="#000000" d="M177.8664,-35.0373C176.4922,-44.8579 178.7367,-54 184.6,-54 188.9975,-54 191.3594,-48.8576 191.6858,-42.1433"/>
<polygon fill="#000000" stroke="#000000" points="191.3336,-35.0373 194.8263,-41.8728 191.5069,-38.533 191.6802,-42.0287 191.6802,-42.0287 191.6802,-42.0287 191.5069,-38.533 188.534,-42.1847 191.3336,-35.0373 191.3336,-35.0373"/>
<text text-anchor="middle" x="184.6" y="-57.4" font-family="Lato" font-size="12.00" fill="#000000">1</text>
</g>
</g>
</svg>
