<?xml version="1.0" encoding="UTF-8" standalone="no"?>
<?xml-stylesheet href="spot.css" type="text/css"?>
<!DOCTYPE svg PUBLIC "-//W3C//DTD SVG 1.1//EN"
 "http://www.w3.org/Graphics/SVG/1.1/DTD/svg11.dtd">
<!-- Generated by graphviz version 2.40.1 (20161225.0304)
 -->
<!-- Pages: 1 -->
<svg width="284pt" height="120pt"
 viewBox="0.00 0.00 283.60 120.00" xmlns="http://www.w3.org/2000/svg" xmlns:xlink="http://www.w3.org/1999/xlink">
<g id="graph0" class="graph" transform="scale(1 1) rotate(0) translate(4 116)">
<polygon fill="#ffffff" stroke="transparent" points="-4,4 -4,-116 279.6,-116 279.6,4 -4,4"/>
<text text-anchor="start" x="118.8" y="-99.4" font-family="Lato" font-size="12.00" fill="#000000">Fin(</text>
<text text-anchor="start" x="138.8" y="-99.4" font-family="Lato" font-size="12.00" fill="#1f78b4">⓿</text>
<text text-anchor="start" x="152.8" y="-99.4" font-family="Lato" font-size="12.00" fill="#000000">)</text>
<text text-anchor="start" x="110.3" y="-87.4" font-family="Lato" font-size="12.00" fill="#000000">[co&#45;Büchi]</text>
<!-- I -->
<!-- 0 -->
<g id="node2" class="node">
<title>0</title>
<ellipse fill="#ffffa0" stroke="#000000" cx="56" cy="-18" rx="18" ry="18"/>
<text text-anchor="middle" x="56" y="-14.9" font-family="Lato" font-size="12.00" fill="#000000">0</text>
</g>
<!-- I&#45;&gt;0 -->
<g id="edge1" class="edge">
<title>I&#45;&gt;0</title>
<path fill="none" stroke="#000000" d="M1.1233,-18C4.178,-18 17.9448,-18 30.9241,-18"/>
<polygon fill="#000000" stroke="#000000" points="37.9807,-18 30.9808,-21.1501 34.4807,-18 30.9807,-18.0001 30.9807,-18.0001 30.9807,-18.0001 34.4807,-18 30.9807,-14.8501 37.9807,-18 37.9807,-18"/>
</g>
<!-- 0&#45;&gt;0 -->
<g id="edge2" class="edge">
<title>0&#45;&gt;0</title>
<path fill="none" stroke="#000000" d="M49.6208,-35.0373C48.3189,-44.8579 50.4453,-54 56,-54 60.166,-54 62.4036,-48.8576 62.7128,-42.1433"/>
<polygon fill="#000000" stroke="#000000" points="62.3792,-35.0373 65.8541,-41.8818 62.5434,-38.5335 62.7076,-42.0296 62.7076,-42.0296 62.7076,-42.0296 62.5434,-38.5335 59.561,-42.1774 62.3792,-35.0373 62.3792,-35.0373"/>
<text text-anchor="start" x="52.5" y="-57.4" font-family="Lato" font-size="12.00" fill="#000000">a</text>
</g>
<!-- &#45;1 -->
<g id="node3" class="node">
<title>&#45;1</title>
<ellipse fill="#ffffa0" stroke="#000000" cx="121.8" cy="-18" rx="1.8" ry="1.8"/>
</g>
<!-- 0&#45;&gt;&#45;1 -->
<g id="edge3" class="edge">
<title>0&#45;&gt;&#45;1</title>
<path fill="none" stroke="#000000" d="M74.329,-18C86.778,-18 102.715,-18 112.59,-18"/>
<polygon fill="none" stroke="#000000" points="112.8885,-20.4501 119.8885,-18 112.8884,-15.5501 112.8885,-20.4501"/>
<text text-anchor="start" x="92" y="-21.4" font-family="Lato" font-size="12.00" fill="#000000">!a</text>
</g>
<!-- &#45;1&#45;&gt;0 -->
<g id="edge4" class="edge">
<title>&#45;1&#45;&gt;0</title>
<path fill="none" stroke="#000000" d="M119.9485,-17.7501C116.4501,-17.2919 108.6252,-16.3338 102,-16 95.3163,-15.6633 88.0845,-15.7607 81.378,-16.0443"/>
<polygon fill="#000000" stroke="#000000" points="74.3576,-16.4134 81.1826,-12.9001 77.8528,-16.2296 81.348,-16.0458 81.348,-16.0458 81.348,-16.0458 77.8528,-16.2296 81.5134,-19.1914 74.3576,-16.4134 74.3576,-16.4134"/>
</g>
<!-- 1 -->
<g id="node4" class="node">
<title>1</title>
<ellipse fill="#ffffa0" stroke="#000000" cx="178.6" cy="-18" rx="18" ry="18"/>
<text text-anchor="middle" x="178.6" y="-14.9" font-family="Lato" font-size="12.00" fill="#000000">1</text>
</g>
<!-- &#45;1&#45;&gt;1 -->
<g id="edge5" class="edge">
<title>&#45;1&#45;&gt;1</title>
<path fill="none" stroke="#000000" d="M123.6898,-18C128.4083,-18 141.1948,-18 153.2424,-18"/>
<polygon fill="#000000" stroke="#000000" points="160.5696,-18 153.5696,-21.1501 157.0696,-18 153.5696,-18.0001 153.5696,-18.0001 153.5696,-18.0001 157.0696,-18 153.5696,-14.8501 160.5696,-18 160.5696,-18"/>
</g>
<!-- 1&#45;&gt;1 -->
<g id="edge6" class="edge">
<title>1&#45;&gt;1</title>
<path fill="none" stroke="#000000" d="M172.2208,-35.0373C170.9189,-44.8579 173.0453,-54 178.6,-54 182.766,-54 185.0036,-48.8576 185.3128,-42.1433"/>
<polygon fill="#000000" stroke="#000000" points="184.9792,-35.0373 188.4541,-41.8818 185.1434,-38.5335 185.3076,-42.0296 185.3076,-42.0296 185.3076,-42.0296 185.1434,-38.5335 182.161,-42.1774 184.9792,-35.0373 184.9792,-35.0373"/>
<text text-anchor="start" x="173.6" y="-70.4" font-family="Lato" font-size="12.00" fill="#000000">!a</text>
<text text-anchor="start" x="171.6" y="-57.4" font-family="Lato" font-size="12.00" fill="#1f78b4">⓿</text>
</g>
<!-- 2 -->
<g id="node5" class="node">
<title>2</title>
<ellipse fill="#ffffa0" stroke="#000000" cx="257.6" cy="-18" rx="18" ry="18"/>
<text text-anchor="middle" x="257.6" y="-14.9" font-family="Lato" font-size="12.00" fill="#000000">2</text>
</g>
<!-- 1&#45;&gt;2 -->
<g id="edge7" class="edge">
<title>1&#45;&gt;2</title>
<path fill="none" stroke="#000000" d="M196.9228,-18C207.3921,-18 220.6794,-18 232.1495,-18"/>
<polygon fill="#000000" stroke="#000000" points="239.3766,-18 232.3767,-21.1501 235.8766,-18 232.3766,-18.0001 232.3766,-18.0001 232.3766,-18.0001 235.8766,-18 232.3766,-14.8501 239.3766,-18 239.3766,-18"/>
<text text-anchor="start" x="214.6" y="-21.4" font-family="Lato" font-size="12.00" fill="#000000">a</text>
</g>
<!-- 2&#45;&gt;2 -->
<g id="edge8" class="edge">
<title>2&#45;&gt;2</title>
<path fill="none" stroke="#000000" d="M250.8664,-35.0373C249.4922,-44.8579 251.7367,-54 257.6,-54 261.9975,-54 264.3594,-48.8576 264.6858,-42.1433"/>
<polygon fill="#000000" stroke="#000000" points="264.3336,-35.0373 267.8263,-41.8728 264.5069,-38.533 264.6802,-42.0287 264.6802,-42.0287 264.6802,-42.0287 264.5069,-38.533 261.534,-42.1847 264.3336,-35.0373 264.3336,-35.0373"/>
<text text-anchor="middle" x="257.6" y="-57.4" font-family="Lato" font-size="12.00" fill="#000000">1</text>
</g>
</g>
</svg>
