<?xml version="1.0" encoding="UTF-8" standalone="no"?>
<?xml-stylesheet href="spot.css" type="text/css"?>
<!DOCTYPE svg PUBLIC "-//W3C//DTD SVG 1.1//EN"
 "http://www.w3.org/Graphics/SVG/1.1/DTD/svg11.dtd">
<!-- Generated by graphviz version 2.40.1 (20161225.0304)
 -->
<!-- Pages: 1 -->
<svg width="347pt" height="195pt"
 viewBox="0.00 0.00 347.00 195.40" xmlns="http://www.w3.org/2000/svg" xmlns:xlink="http://www.w3.org/1999/xlink">
<g id="graph0" class="graph" transform="scale(1 1) rotate(0) translate(4 191.4)">
<polygon fill="#ffffff" stroke="transparent" points="-4,4 -4,-191.4 343,-191.4 343,4 -4,4"/>
<text text-anchor="start" x="150.5" y="-160.8" font-family="Lato" font-size="12.00" fill="#000000">[Büchi]</text>
<!-- I -->
<!-- 1 -->
<g id="node2" class="node">
<title>1</title>
<ellipse fill="#ffffa0" stroke="#000000" cx="56" cy="-60" rx="18" ry="18"/>
<text text-anchor="middle" x="56" y="-56.9" font-family="Lato" font-size="12.00" fill="#000000">1</text>
</g>
<!-- I&#45;&gt;1 -->
<g id="edge1" class="edge">
<title>I&#45;&gt;1</title>
<path fill="none" stroke="#000000" d="M1.1233,-60C4.178,-60 17.9448,-60 30.9241,-60"/>
<polygon fill="#000000" stroke="#000000" points="37.9807,-60 30.9808,-63.1501 34.4807,-60 30.9807,-60.0001 30.9807,-60.0001 30.9807,-60.0001 34.4807,-60 30.9807,-56.8501 37.9807,-60 37.9807,-60"/>
</g>
<!-- 2 -->
<g id="node4" class="node">
<title>2</title>
<ellipse fill="#ffffa0" stroke="#000000" cx="135" cy="-60" rx="18" ry="18"/>
<text text-anchor="middle" x="135" y="-56.9" font-family="Lato" font-size="12.00" fill="#000000">2</text>
</g>
<!-- 1&#45;&gt;2 -->
<g id="edge3" class="edge">
<title>1&#45;&gt;2</title>
<path fill="none" stroke="#000000" d="M74.3228,-60C84.7921,-60 98.0794,-60 109.5495,-60"/>
<polygon fill="#000000" stroke="#000000" points="116.7766,-60 109.7767,-63.1501 113.2766,-60 109.7766,-60.0001 109.7766,-60.0001 109.7766,-60.0001 113.2766,-60 109.7766,-56.8501 116.7766,-60 116.7766,-60"/>
<text text-anchor="middle" x="95.5" y="-63.4" font-family="Lato" font-size="12.00" fill="#000000">1</text>
</g>
<!-- 0 -->
<g id="node3" class="node">
<title>0</title>
<ellipse fill="#ffffa0" stroke="#000000" cx="317" cy="-60" rx="18" ry="18"/>
<ellipse fill="none" stroke="#000000" cx="317" cy="-60" rx="22" ry="22"/>
<text text-anchor="middle" x="317" y="-56.9" font-family="Lato" font-size="12.00" fill="#000000">0</text>
</g>
<!-- 0&#45;&gt;0 -->
<g id="edge2" class="edge">
<title>0&#45;&gt;0</title>
<path fill="none" stroke="#000000" d="M308.2659,-80.5808C307.0574,-90.8447 309.9688,-100 317,-100 322.2734,-100 325.2294,-94.8502 325.868,-87.9451"/>
<polygon fill="#000000" stroke="#000000" points="325.7341,-80.5808 329.011,-87.5223 325.7978,-84.0802 325.8615,-87.5797 325.8615,-87.5797 325.8615,-87.5797 325.7978,-84.0802 322.712,-87.637 325.7341,-80.5808 325.7341,-80.5808"/>
<text text-anchor="middle" x="317" y="-103.4" font-family="Lato" font-size="12.00" fill="#000000">1</text>
</g>
<!-- 3 -->
<g id="node5" class="node">
<title>3</title>
<ellipse fill="#ffffa0" stroke="#000000" cx="224" cy="-103" rx="18" ry="18"/>
<text text-anchor="middle" x="224" y="-99.9" font-family="Lato" font-size="12.00" fill="#000000">3</text>
</g>
<!-- 2&#45;&gt;3 -->
<g id="edge4" class="edge">
<title>2&#45;&gt;3</title>
<path fill="none" stroke="#000000" d="M151.324,-67.8869C165.3751,-74.6756 185.7932,-84.5405 201.4121,-92.0867"/>
<polygon fill="#000000" stroke="#000000" points="207.7795,-95.1631 200.1062,-94.9542 204.6281,-93.6405 201.4766,-92.1179 201.4766,-92.1179 201.4766,-92.1179 204.6281,-93.6405 202.847,-89.2815 207.7795,-95.1631 207.7795,-95.1631"/>
<text text-anchor="start" x="171" y="-88.4" font-family="Lato" font-size="12.00" fill="#000000">!p1</text>
</g>
<!-- 4 -->
<g id="node6" class="node">
<title>4</title>
<ellipse fill="#ffffa0" stroke="#000000" cx="224" cy="-18" rx="18" ry="18"/>
<text text-anchor="middle" x="224" y="-14.9" font-family="Lato" font-size="12.00" fill="#000000">4</text>
</g>
<!-- 2&#45;&gt;4 -->
<g id="edge5" class="edge">
<title>2&#45;&gt;4</title>
<path fill="none" stroke="#000000" d="M151.324,-52.2966C165.2873,-45.7071 185.5382,-36.1505 201.1187,-28.7979"/>
<polygon fill="#000000" stroke="#000000" points="207.4781,-25.7968 202.492,-31.6331 204.3129,-27.2906 201.1476,-28.7843 201.1476,-28.7843 201.1476,-28.7843 204.3129,-27.2906 199.8032,-25.9356 207.4781,-25.7968 207.4781,-25.7968"/>
<text text-anchor="start" x="172.5" y="-45.4" font-family="Lato" font-size="12.00" fill="#000000">p1</text>
</g>
<!-- 3&#45;&gt;0 -->
<g id="edge6" class="edge">
<title>3&#45;&gt;0</title>
<path fill="none" stroke="#000000" d="M240.6265,-95.3125C254.4326,-88.929 274.3315,-79.7284 290.3565,-72.319"/>
<polygon fill="#000000" stroke="#000000" points="296.9581,-69.2667 291.9264,-75.0636 293.7813,-70.7356 290.6044,-72.2045 290.6044,-72.2045 290.6044,-72.2045 293.7813,-70.7356 289.2824,-69.3453 296.9581,-69.2667 296.9581,-69.2667"/>
<text text-anchor="start" x="261.5" y="-88.4" font-family="Lato" font-size="12.00" fill="#000000">p1</text>
</g>
<!-- 3&#45;&gt;3 -->
<g id="edge7" class="edge">
<title>3&#45;&gt;3</title>
<path fill="none" stroke="#000000" d="M216.3321,-119.2903C214.4831,-129.3892 217.0391,-139 224,-139 229.2207,-139 231.9636,-133.5939 232.2287,-126.6304"/>
<polygon fill="#000000" stroke="#000000" points="231.6679,-119.2903 235.3421,-126.0299 231.9346,-122.7801 232.2013,-126.2699 232.2013,-126.2699 232.2013,-126.2699 231.9346,-122.7801 229.0604,-126.5099 231.6679,-119.2903 231.6679,-119.2903"/>
<text text-anchor="start" x="215.5" y="-142.4" font-family="Lato" font-size="12.00" fill="#000000">!p1</text>
</g>
<!-- 4&#45;&gt;0 -->
<g id="edge8" class="edge">
<title>4&#45;&gt;0</title>
<path fill="none" stroke="#000000" d="M240.6265,-25.5088C254.3412,-31.7025 274.0682,-40.6115 290.0376,-47.8234"/>
<polygon fill="#000000" stroke="#000000" points="296.6231,-50.7975 288.947,-50.7872 293.4333,-49.3569 290.2435,-47.9164 290.2435,-47.9164 290.2435,-47.9164 293.4333,-49.3569 291.54,-45.0455 296.6231,-50.7975 296.6231,-50.7975"/>
<text text-anchor="start" x="260" y="-44.4" font-family="Lato" font-size="12.00" fill="#000000">!p1</text>
</g>
<!-- 4&#45;&gt;4 -->
<g id="edge9" class="edge">
<title>4&#45;&gt;4</title>
<path fill="none" stroke="#000000" d="M216.3321,-34.2903C214.4831,-44.3892 217.0391,-54 224,-54 229.2207,-54 231.9636,-48.5939 232.2287,-41.6304"/>
<polygon fill="#000000" stroke="#000000" points="231.6679,-34.2903 235.3421,-41.0299 231.9346,-37.7801 232.2013,-41.2699 232.2013,-41.2699 232.2013,-41.2699 231.9346,-37.7801 229.0604,-41.5099 231.6679,-34.2903 231.6679,-34.2903"/>
<text text-anchor="start" x="217" y="-57.4" font-family="Lato" font-size="12.00" fill="#000000">p1</text>
</g>
</g>
</svg>
