<?xml version="1.0" encoding="UTF-8" standalone="no"?>
<?xml-stylesheet href="spot.css" type="text/css"?>
<!DOCTYPE svg PUBLIC "-//W3C//DTD SVG 1.1//EN"
 "http://www.w3.org/Graphics/SVG/1.1/DTD/svg11.dtd">
<!-- Generated by graphviz version 2.40.1 (20161225.0304)
 -->
<!-- Pages: 1 -->
<svg width="168pt" height="130pt"
 viewBox="0.00 0.00 168.00 130.40" xmlns="http://www.w3.org/2000/svg" xmlns:xlink="http://www.w3.org/1999/xlink">
<g id="graph0" class="graph" transform="scale(1 1) rotate(0) translate(4 126.3964)">
<polygon fill="#ffffff" stroke="transparent" points="-4,4 -4,-126.3964 164,-126.3964 164,4 -4,4"/>
<text text-anchor="start" x="62" y="-109.7964" font-family="Lato" font-size="12.00" fill="#000000">Inf(</text>
<text text-anchor="start" x="80" y="-109.7964" font-family="Lato" font-size="12.00" fill="#1f78b4">⓿</text>
<text text-anchor="start" x="94" y="-109.7964" font-family="Lato" font-size="12.00" fill="#000000">)</text>
<text text-anchor="start" x="61" y="-97.7964" font-family="Lato" font-size="12.00" fill="#000000">[Büchi]</text>
<!-- I -->
<!-- 0 -->
<g id="node2" class="node">
<title>0</title>
<ellipse fill="#ffffa0" stroke="#000000" cx="56" cy="-28.3964" rx="18" ry="18"/>
<text text-anchor="middle" x="56" y="-25.2964" font-family="Lato" font-size="12.00" fill="#000000">0</text>
</g>
<!-- I&#45;&gt;0 -->
<g id="edge1" class="edge">
<title>I&#45;&gt;0</title>
<path fill="none" stroke="#000000" d="M1.1233,-28.3964C4.178,-28.3964 17.9448,-28.3964 30.9241,-28.3964"/>
<polygon fill="#000000" stroke="#000000" points="37.9807,-28.3964 30.9808,-31.5465 34.4807,-28.3964 30.9807,-28.3965 30.9807,-28.3965 30.9807,-28.3965 34.4807,-28.3964 30.9807,-25.2465 37.9807,-28.3964 37.9807,-28.3964"/>
</g>
<!-- 0&#45;&gt;0 -->
<g id="edge2" class="edge">
<title>0&#45;&gt;0</title>
<path fill="none" stroke="#000000" d="M49.6208,-45.4337C48.3189,-55.2543 50.4453,-64.3964 56,-64.3964 60.166,-64.3964 62.4036,-59.2539 62.7128,-52.5397"/>
<polygon fill="#000000" stroke="#000000" points="62.3792,-45.4337 65.8541,-52.2782 62.5434,-48.9298 62.7076,-52.426 62.7076,-52.426 62.7076,-52.426 62.5434,-48.9298 59.561,-52.5737 62.3792,-45.4337 62.3792,-45.4337"/>
<text text-anchor="start" x="52.5" y="-80.7964" font-family="Lato" font-size="12.00" fill="#000000">a</text>
<text text-anchor="start" x="49" y="-67.7964" font-family="Lato" font-size="12.00" fill="#1f78b4">⓿</text>
</g>
<!-- 1 -->
<g id="node3" class="node">
<title>1</title>
<ellipse fill="#ffffa0" stroke="#000000" cx="142" cy="-28.3964" rx="18" ry="18"/>
<text text-anchor="middle" x="142" y="-25.2964" font-family="Lato" font-size="12.00" fill="#000000">1</text>
</g>
<!-- 0&#45;&gt;1 -->
<g id="edge3" class="edge">
<title>0&#45;&gt;1</title>
<path fill="none" stroke="#000000" d="M73.9269,-30.1856C79.6914,-30.6818 86.1097,-31.1514 92,-31.3964 100.1157,-31.7339 108.9656,-31.4258 116.9334,-30.8982"/>
<polygon fill="#000000" stroke="#000000" points="123.9564,-30.3642 117.2154,-34.0359 120.4665,-30.6296 116.9765,-30.895 116.9765,-30.895 116.9765,-30.895 120.4665,-30.6296 116.7377,-27.7541 123.9564,-30.3642 123.9564,-30.3642"/>
<text text-anchor="start" x="94" y="-34.7964" font-family="Lato" font-size="12.00" fill="#000000">!a</text>
</g>
<!-- 1&#45;&gt;0 -->
<g id="edge4" class="edge">
<title>1&#45;&gt;0</title>
<path fill="none" stroke="#000000" d="M129.4019,-14.8348C119.6127,-6.0085 105.4771,3.096 92,-1.3964 85.8206,-3.4562 79.8477,-7.0382 74.6023,-10.9324"/>
<polygon fill="#000000" stroke="#000000" points="68.8101,-15.5748 72.3022,-8.739 71.5411,-13.3858 74.2722,-11.1969 74.2722,-11.1969 74.2722,-11.1969 71.5411,-13.3858 76.2422,-13.6549 68.8101,-15.5748 68.8101,-15.5748"/>
<text text-anchor="start" x="95.5" y="-17.7964" font-family="Lato" font-size="12.00" fill="#000000">a</text>
<text text-anchor="start" x="92" y="-4.7964" font-family="Lato" font-size="12.00" fill="#1f78b4">⓿</text>
</g>
<!-- 1&#45;&gt;1 -->
<g id="edge5" class="edge">
<title>1&#45;&gt;1</title>
<path fill="none" stroke="#000000" d="M134.6172,-45.0604C132.9766,-55.0214 135.4375,-64.3964 142,-64.3964 146.9219,-64.3964 149.5366,-59.1229 149.8442,-52.2839"/>
<polygon fill="#000000" stroke="#000000" points="149.3828,-45.0604 152.9727,-51.8453 149.606,-48.5533 149.8291,-52.0462 149.8291,-52.0462 149.8291,-52.0462 149.606,-48.5533 146.6855,-52.247 149.3828,-45.0604 149.3828,-45.0604"/>
<text text-anchor="start" x="137" y="-67.7964" font-family="Lato" font-size="12.00" fill="#000000">!a</text>
</g>
</g>
</svg>
