<?xml version="1.0" encoding="UTF-8" standalone="no"?>
<?xml-stylesheet href="spot.css" type="text/css"?>
<!DOCTYPE svg PUBLIC "-//W3C//DTD SVG 1.1//EN"
 "http://www.w3.org/Graphics/SVG/1.1/DTD/svg11.dtd">
<!-- Generated by graphviz version 2.40.1 (20161225.0304)
 -->
<!-- Title: F ^ X p1 X X p1 Pages: 1 -->
<svg width="589pt" height="259pt"
 viewBox="0.00 0.00 588.93 259.17" xmlns="http://www.w3.org/2000/svg" xmlns:xlink="http://www.w3.org/1999/xlink">
<g id="graph0" class="graph" transform="scale(1 1) rotate(0) translate(4 255.1673)">
<title>F ^ X p1 X X p1</title>
<polygon fill="#ffffff" stroke="transparent" points="-4,4 -4,-255.1673 584.926,-255.1673 584.926,4 -4,4"/>
<text text-anchor="start" x="142.963" y="-238.5673" font-family="Lato" font-size="12.00" fill="#000000">(Fin(</text>
<text text-anchor="start" x="165.963" y="-238.5673" font-family="Lato" font-size="12.00" fill="#1f78b4">⓿</text>
<text text-anchor="start" x="179.963" y="-238.5673" font-family="Lato" font-size="12.00" fill="#000000">) &amp; Inf(</text>
<text text-anchor="start" x="214.963" y="-238.5673" font-family="Lato" font-size="12.00" fill="#ff4da0">❶</text>
<text text-anchor="start" x="228.963" y="-238.5673" font-family="Lato" font-size="12.00" fill="#000000">)) | (Fin(</text>
<text text-anchor="start" x="266.963" y="-238.5673" font-family="Lato" font-size="12.00" fill="#ff7f00">❷</text>
<text text-anchor="start" x="280.963" y="-238.5673" font-family="Lato" font-size="12.00" fill="#000000">) &amp; Inf(</text>
<text text-anchor="start" x="315.963" y="-238.5673" font-family="Lato" font-size="12.00" fill="#6a3d9a">❸</text>
<text text-anchor="start" x="329.963" y="-238.5673" font-family="Lato" font-size="12.00" fill="#000000">)) | (Fin(</text>
<text text-anchor="start" x="367.963" y="-238.5673" font-family="Lato" font-size="12.00" fill="#33a02c">❹</text>
<text text-anchor="start" x="381.963" y="-238.5673" font-family="Lato" font-size="12.00" fill="#000000">) &amp; Inf(</text>
<text text-anchor="start" x="416.963" y="-238.5673" font-family="Lato" font-size="12.00" fill="#e31a1c">❺</text>
<text text-anchor="start" x="430.963" y="-238.5673" font-family="Lato" font-size="12.00" fill="#000000">))</text>
<text text-anchor="start" x="266.463" y="-226.5673" font-family="Lato" font-size="12.00" fill="#000000">[Rabin 3]</text>
<!-- I -->
<!-- 6 -->
<g id="node2" class="node">
<title>6</title>
<ellipse fill="#ffffa0" stroke="#000000" cx="69.1127" cy="-98.0546" rx="31.2258" ry="31.2258"/>
<text text-anchor="start" x="65.6127" y="-101.4546" font-family="Lato" font-size="12.00" fill="#000000">6</text>
<text text-anchor="start" x="55.1127" y="-89.4546" font-family="Lato" font-size="12.00" fill="#ff7f00">❷</text>
<text text-anchor="start" x="69.1127" y="-89.4546" font-family="Lato" font-size="12.00" fill="#33a02c">❹</text>
</g>
<!-- I&#45;&gt;6 -->
<g id="edge1" class="edge">
<title>I&#45;&gt;6</title>
<path fill="none" stroke="#000000" d="M1.2706,-98.0546C4.455,-98.0546 17.0566,-98.0546 30.5503,-98.0546"/>
<polygon fill="#000000" stroke="#000000" points="37.6428,-98.0546 30.6428,-101.2047 34.1428,-98.0546 30.6428,-98.0547 30.6428,-98.0547 30.6428,-98.0547 34.1428,-98.0546 30.6427,-94.9047 37.6428,-98.0546 37.6428,-98.0546"/>
</g>
<!-- 5 -->
<g id="node8" class="node">
<title>5</title>
<ellipse fill="#ffffa0" stroke="#000000" cx="184.3381" cy="-98.0546" rx="31.2258" ry="31.2258"/>
<text text-anchor="start" x="180.8381" y="-101.4546" font-family="Lato" font-size="12.00" fill="#000000">5</text>
<text text-anchor="start" x="170.3381" y="-89.4546" font-family="Lato" font-size="12.00" fill="#ff7f00">❷</text>
<text text-anchor="start" x="184.3381" y="-89.4546" font-family="Lato" font-size="12.00" fill="#33a02c">❹</text>
</g>
<!-- 6&#45;&gt;5 -->
<g id="edge14" class="edge">
<title>6&#45;&gt;5</title>
<path fill="none" stroke="#000000" d="M100.2944,-98.0546C114.3844,-98.0546 131.1674,-98.0546 146.0172,-98.0546"/>
<polygon fill="#000000" stroke="#000000" points="153.1315,-98.0546 146.1316,-101.2047 149.6315,-98.0546 146.1315,-98.0547 146.1315,-98.0547 146.1315,-98.0547 149.6315,-98.0546 146.1315,-94.9047 153.1315,-98.0546 153.1315,-98.0546"/>
<text text-anchor="start" x="118.2254" y="-101.4546" font-family="Lato" font-size="12.00" fill="#000000">!p1</text>
</g>
<!-- 6&#45;&gt;5 -->
<g id="edge15" class="edge">
<title>6&#45;&gt;5</title>
<path fill="none" stroke="#000000" d="M98.0412,-86.2601C104.5734,-84.1007 111.552,-82.1769 118.2254,-81.0546 128.2882,-79.3622 139.0608,-80.7313 148.9274,-83.294"/>
<polygon fill="#000000" stroke="#000000" points="155.9286,-85.3442 148.3255,-86.3999 152.5697,-84.3605 149.2108,-83.3769 149.2108,-83.3769 149.2108,-83.3769 152.5697,-84.3605 150.0961,-80.3538 155.9286,-85.3442 155.9286,-85.3442"/>
<text text-anchor="start" x="119.7254" y="-84.4546" font-family="Lato" font-size="12.00" fill="#000000">p1</text>
</g>
<!-- 0 -->
<g id="node3" class="node">
<title>0</title>
<ellipse fill="#ffffa0" stroke="#000000" cx="414.7889" cy="-188.0546" rx="31.2258" ry="31.2258"/>
<text text-anchor="start" x="411.2889" y="-191.4546" font-family="Lato" font-size="12.00" fill="#000000">0</text>
<text text-anchor="start" x="400.7889" y="-179.4546" font-family="Lato" font-size="12.00" fill="#ff7f00">❷</text>
<text text-anchor="start" x="414.7889" y="-179.4546" font-family="Lato" font-size="12.00" fill="#e31a1c">❺</text>
</g>
<!-- 2 -->
<g id="node4" class="node">
<title>2</title>
<ellipse fill="#ffffa0" stroke="#000000" cx="299.5635" cy="-142.0546" rx="31.2258" ry="31.2258"/>
<text text-anchor="start" x="296.0635" y="-145.4546" font-family="Lato" font-size="12.00" fill="#000000">2</text>
<text text-anchor="start" x="285.5635" y="-133.4546" font-family="Lato" font-size="12.00" fill="#6a3d9a">❸</text>
<text text-anchor="start" x="299.5635" y="-133.4546" font-family="Lato" font-size="12.00" fill="#33a02c">❹</text>
</g>
<!-- 0&#45;&gt;2 -->
<g id="edge2" class="edge">
<title>0&#45;&gt;2</title>
<path fill="none" stroke="#000000" d="M388.3876,-171.3855C381.2022,-167.3015 373.2954,-163.2042 365.6762,-160.0546 356.5645,-156.288 346.4229,-153.0735 336.8732,-150.4486"/>
<polygon fill="#000000" stroke="#000000" points="330.0474,-148.6419 337.6204,-147.3879 333.4309,-149.5375 336.8144,-150.4331 336.8144,-150.4331 336.8144,-150.4331 333.4309,-149.5375 336.0084,-153.4782 330.0474,-148.6419 330.0474,-148.6419"/>
<text text-anchor="start" x="348.6762" y="-163.4546" font-family="Lato" font-size="12.00" fill="#000000">!p1</text>
</g>
<!-- 4 -->
<g id="node5" class="node">
<title>4</title>
<ellipse fill="#ffffa0" stroke="#000000" cx="539.9138" cy="-109.0546" rx="41.0244" ry="41.0244"/>
<text text-anchor="start" x="536.4138" y="-112.4546" font-family="Lato" font-size="12.00" fill="#000000">4</text>
<text text-anchor="start" x="518.9138" y="-100.4546" font-family="Lato" font-size="12.00" fill="#ff4da0">❶</text>
<text text-anchor="start" x="532.9138" y="-100.4546" font-family="Lato" font-size="12.00" fill="#ff7f00">❷</text>
<text text-anchor="start" x="546.9138" y="-100.4546" font-family="Lato" font-size="12.00" fill="#33a02c">❹</text>
</g>
<!-- 0&#45;&gt;4 -->
<g id="edge3" class="edge">
<title>0&#45;&gt;4</title>
<path fill="none" stroke="#000000" d="M441.3247,-171.3007C457.953,-160.802 479.7323,-147.0513 498.5903,-135.145"/>
<polygon fill="#000000" stroke="#000000" points="504.8619,-131.1852 500.6246,-137.5859 501.9024,-133.0538 498.9429,-134.9223 498.9429,-134.9223 498.9429,-134.9223 501.9024,-133.0538 497.2612,-132.2588 504.8619,-131.1852 504.8619,-131.1852"/>
<text text-anchor="start" x="465.4016" y="-158.4546" font-family="Lato" font-size="12.00" fill="#000000">p1</text>
</g>
<!-- 2&#45;&gt;0 -->
<g id="edge6" class="edge">
<title>2&#45;&gt;0</title>
<path fill="none" stroke="#000000" d="M324.9206,-160.3541C332.3052,-165.0379 340.573,-169.6945 348.6762,-173.0546 357.5131,-176.7188 367.4033,-179.5684 376.787,-181.7512"/>
<polygon fill="#000000" stroke="#000000" points="383.8383,-183.2929 376.3269,-184.875 380.419,-182.5453 376.9998,-181.7977 376.9998,-181.7977 376.9998,-181.7977 380.419,-182.5453 377.6727,-178.7204 383.8383,-183.2929 383.8383,-183.2929"/>
<text text-anchor="start" x="348.6762" y="-181.4546" font-family="Lato" font-size="12.00" fill="#000000">!p1</text>
</g>
<!-- 2&#45;&gt;4 -->
<g id="edge7" class="edge">
<title>2&#45;&gt;4</title>
<path fill="none" stroke="#000000" d="M330.493,-137.8079C371.3751,-132.1949 443.8247,-122.2475 491.866,-115.6515"/>
<polygon fill="#000000" stroke="#000000" points="499.064,-114.6632 492.5576,-118.7362 495.5965,-115.1393 492.1291,-115.6155 492.1291,-115.6155 492.1291,-115.6155 495.5965,-115.1393 491.7006,-112.4947 499.064,-114.6632 499.064,-114.6632"/>
<text text-anchor="start" x="407.7889" y="-133.4546" font-family="Lato" font-size="12.00" fill="#000000">p1</text>
</g>
<!-- 4&#45;&gt;4 -->
<g id="edge10" class="edge">
<title>4&#45;&gt;4</title>
<path fill="none" stroke="#000000" d="M533.8003,-149.8733C534.2021,-160.2652 536.24,-168.0668 539.9138,-168.0668 542.6692,-168.0668 544.5043,-163.6784 545.4191,-157.1001"/>
<polygon fill="#000000" stroke="#000000" points="546.0273,-149.8733 548.5791,-157.1128 545.7337,-153.361 545.4402,-156.8487 545.4402,-156.8487 545.4402,-156.8487 545.7337,-153.361 542.3013,-156.5845 546.0273,-149.8733 546.0273,-149.8733"/>
<text text-anchor="start" x="531.4138" y="-171.4668" font-family="Lato" font-size="12.00" fill="#000000">!p1</text>
</g>
<!-- 4&#45;&gt;4 -->
<g id="edge11" class="edge">
<title>4&#45;&gt;4</title>
<path fill="none" stroke="#000000" d="M527.9383,-148.2834C526.1895,-168.2043 530.1814,-186.0668 539.9138,-186.0668 548.4296,-186.0668 552.5504,-172.3908 552.2759,-155.6264"/>
<polygon fill="#000000" stroke="#000000" points="551.8892,-148.2834 555.4031,-155.108 552.0733,-151.7785 552.2574,-155.2737 552.2574,-155.2737 552.2574,-155.2737 552.0733,-151.7785 549.1118,-155.4394 551.8892,-148.2834 551.8892,-148.2834"/>
<text text-anchor="start" x="532.9138" y="-189.4668" font-family="Lato" font-size="12.00" fill="#000000">p1</text>
</g>
<!-- 1 -->
<g id="node6" class="node">
<title>1</title>
<ellipse fill="#ffffa0" stroke="#000000" cx="414.7889" cy="-59.0546" rx="31.2258" ry="31.2258"/>
<text text-anchor="start" x="411.2889" y="-62.4546" font-family="Lato" font-size="12.00" fill="#000000">1</text>
<text text-anchor="start" x="400.7889" y="-50.4546" font-family="Lato" font-size="12.00" fill="#ff7f00">❷</text>
<text text-anchor="start" x="414.7889" y="-50.4546" font-family="Lato" font-size="12.00" fill="#e31a1c">❺</text>
</g>
<!-- 1&#45;&gt;4 -->
<g id="edge4" class="edge">
<title>1&#45;&gt;4</title>
<path fill="none" stroke="#000000" d="M443.8096,-70.6512C458.9781,-76.7126 477.8815,-84.2664 494.9,-91.067"/>
<polygon fill="#000000" stroke="#000000" points="501.5645,-93.7301 493.8953,-94.0577 498.3144,-92.4314 495.0642,-91.1326 495.0642,-91.1326 495.0642,-91.1326 498.3144,-92.4314 496.2331,-88.2075 501.5645,-93.7301 501.5645,-93.7301"/>
<text text-anchor="start" x="463.9016" y="-87.4546" font-family="Lato" font-size="12.00" fill="#000000">!p1</text>
</g>
<!-- 3 -->
<g id="node7" class="node">
<title>3</title>
<ellipse fill="#ffffa0" stroke="#000000" cx="299.5635" cy="-58.0546" rx="31.2258" ry="31.2258"/>
<text text-anchor="start" x="296.0635" y="-61.4546" font-family="Lato" font-size="12.00" fill="#000000">3</text>
<text text-anchor="start" x="285.5635" y="-49.4546" font-family="Lato" font-size="12.00" fill="#6a3d9a">❸</text>
<text text-anchor="start" x="299.5635" y="-49.4546" font-family="Lato" font-size="12.00" fill="#33a02c">❹</text>
</g>
<!-- 1&#45;&gt;3 -->
<g id="edge5" class="edge">
<title>1&#45;&gt;3</title>
<path fill="none" stroke="#000000" d="M386.5366,-45.3922C379.8481,-42.7689 372.633,-40.4167 365.6762,-39.0546 355.392,-37.0408 344.3902,-38.64 334.3712,-41.6118"/>
<polygon fill="#000000" stroke="#000000" points="327.6129,-43.861 333.26,-38.6617 330.9338,-42.7558 334.2547,-41.6505 334.2547,-41.6505 334.2547,-41.6505 330.9338,-42.7558 335.2494,-44.6394 327.6129,-43.861 327.6129,-43.861"/>
<text text-anchor="start" x="350.1762" y="-42.4546" font-family="Lato" font-size="12.00" fill="#000000">p1</text>
</g>
<!-- 3&#45;&gt;4 -->
<g id="edge8" class="edge">
<title>3&#45;&gt;4</title>
<path fill="none" stroke="#000000" d="M323.8142,-38.1284C353.1938,-16.555 403.9656,12.4467 445.9016,-6.0546 474.5721,-18.7034 498.2835,-44.8917 514.7213,-67.695"/>
<polygon fill="#000000" stroke="#000000" points="518.9521,-73.7151 512.3499,-69.7992 516.9396,-70.8515 514.9271,-67.9879 514.9271,-67.9879 514.9271,-67.9879 516.9396,-70.8515 517.5043,-66.1767 518.9521,-73.7151 518.9521,-73.7151"/>
<text text-anchor="start" x="406.2889" y="-9.4546" font-family="Lato" font-size="12.00" fill="#000000">!p1</text>
</g>
<!-- 3&#45;&gt;1 -->
<g id="edge9" class="edge">
<title>3&#45;&gt;1</title>
<path fill="none" stroke="#000000" d="M330.7451,-58.3252C344.8352,-58.4475 361.6182,-58.5931 376.468,-58.722"/>
<polygon fill="#000000" stroke="#000000" points="383.5823,-58.7837 376.5552,-61.8728 380.0824,-58.7533 376.5826,-58.7229 376.5826,-58.7229 376.5826,-58.7229 380.0824,-58.7533 376.61,-55.573 383.5823,-58.7837 383.5823,-58.7837"/>
<text text-anchor="start" x="350.1762" y="-62.4546" font-family="Lato" font-size="12.00" fill="#000000">p1</text>
</g>
<!-- 5&#45;&gt;2 -->
<g id="edge12" class="edge">
<title>5&#45;&gt;2</title>
<path fill="none" stroke="#000000" d="M213.4143,-109.1576C228.6982,-114.9939 247.5668,-122.1991 263.7457,-128.3772"/>
<polygon fill="#000000" stroke="#000000" points="270.4966,-130.9551 262.8334,-131.4006 267.2268,-129.7064 263.9571,-128.4578 263.9571,-128.4578 263.9571,-128.4578 267.2268,-129.7064 265.0809,-125.5151 270.4966,-130.9551 270.4966,-130.9551"/>
<text text-anchor="start" x="233.4508" y="-125.4546" font-family="Lato" font-size="12.00" fill="#000000">!p1</text>
</g>
<!-- 5&#45;&gt;3 -->
<g id="edge13" class="edge">
<title>5&#45;&gt;3</title>
<path fill="none" stroke="#000000" d="M214.0115,-87.7536C229.0646,-82.5279 247.4754,-76.1367 263.3565,-70.6237"/>
<polygon fill="#000000" stroke="#000000" points="269.9906,-68.3206 264.4108,-73.5921 266.6842,-69.4685 263.3778,-70.6163 263.3778,-70.6163 263.3778,-70.6163 266.6842,-69.4685 262.3447,-67.6405 269.9906,-68.3206 269.9906,-68.3206"/>
<text text-anchor="start" x="234.9508" y="-83.4546" font-family="Lato" font-size="12.00" fill="#000000">p1</text>
</g>
</g>
</svg>
