<?xml version="1.0" encoding="UTF-8" standalone="no"?><svg xmlns="http://www.w3.org/2000/svg" xmlns:xlink="http://www.w3.org/1999/xlink" contentScriptType="application/ecmascript" contentStyleType="text/css" height="1136px" preserveAspectRatio="none" style="width:933px;height:1136px;" version="1.1" viewBox="0 0 933 1136" width="933px" zoomAndPan="magnify"><defs><filter height="300%" id="f4oh4d77nmjph" width="300%" x="-1" y="-1"><feGaussianBlur result="blurOut" stdDeviation="2.0"/><feColorMatrix in="blurOut" result="blurOut2" type="matrix" values="0 0 0 0 0 0 0 0 0 0 0 0 0 0 0 0 0 0 .4 0"/><feOffset dx="4.0" dy="4.0" in="blurOut2" result="blurOut3"/><feBlend in="SourceGraphic" in2="blurOut3" mode="normal"/></filter></defs><g><!--cluster spot--><polygon fill="#FFFFFF" filter="url(#f4oh4d77nmjph)" points="14,16,55,16,62,38.2969,911,38.2969,911,1124,14,1124,14,16" style="stroke: #000000; stroke-width: 1.5;"/><line style="stroke: #000000; stroke-width: 1.5;" x1="14" x2="62" y1="38.2969" y2="38.2969"/><text fill="#000000" font-family="sans-serif" font-size="14" font-weight="bold" lengthAdjust="spacingAndGlyphs" textLength="35" x="18" y="30.9951">spot</text><!--cluster internal--><polygon fill="#FFFFFF" filter="url(#f4oh4d77nmjph)" points="266,384,332,384,339,406.2969,502,406.2969,502,1116,266,1116,266,384" style="stroke: #000000; stroke-width: 1.5;"/><line style="stroke: #000000; stroke-width: 1.5;" x1="266" x2="339" y1="406.2969" y2="406.2969"/><text fill="#000000" font-family="sans-serif" font-size="14" font-weight="bold" lengthAdjust="spacingAndGlyphs" textLength="60" x="270" y="398.9951">internal</text><!--class acc_cond--><rect fill="#FEFECE" filter="url(#f4oh4d77nmjph)" height="32" id="acc_cond" style="stroke: #A80036; stroke-width: 1.5;" width="91" x="153.5" y="432"/><ellipse cx="168.5" cy="448" fill="#ADD1B2" rx="11" ry="11" style="stroke: #A80036; stroke-width: 1.0;"/><path d="M171.4688,453.6406 Q170.8906,453.9375 170.25,454.0781 Q169.6094,454.2344 168.9063,454.2344 Q166.4063,454.2344 165.0781,452.5938 Q163.7656,450.9375 163.7656,447.8125 Q163.7656,444.6875 165.0781,443.0313 Q166.4063,441.375 168.9063,441.375 Q169.6094,441.375 170.25,441.5313 Q170.9063,441.6875 171.4688,441.9844 L171.4688,444.7031 Q170.8438,444.125 170.25,443.8594 Q169.6563,443.5781 169.0313,443.5781 Q167.6875,443.5781 167,444.6563 Q166.3125,445.7188 166.3125,447.8125 Q166.3125,449.9063 167,450.9844 Q167.6875,452.0469 169.0313,452.0469 Q169.6563,452.0469 170.25,451.7813 Q170.8438,451.5 171.4688,450.9219 L171.4688,453.6406 Z "/><text fill="#000000" font-family="sans-serif" font-size="12" lengthAdjust="spacingAndGlyphs" textLength="59" x="182.5" y="452.1543">acc_cond</text><!--class twa_graph--><rect fill="#FEFECE" filter="url(#f4oh4d77nmjph)" height="32" id="twa_graph" style="stroke: #A80036; stroke-width: 1.5;" width="97" x="21.5" y="432"/><ellipse cx="36.5" cy="448" fill="#ADD1B2" rx="11" ry="11" style="stroke: #A80036; stroke-width: 1.0;"/><path d="M39.4688,453.6406 Q38.8906,453.9375 38.25,454.0781 Q37.6094,454.2344 36.9063,454.2344 Q34.4063,454.2344 33.0781,452.5938 Q31.7656,450.9375 31.7656,447.8125 Q31.7656,444.6875 33.0781,443.0313 Q34.4063,441.375 36.9063,441.375 Q37.6094,441.375 38.25,441.5313 Q38.9063,441.6875 39.4688,441.9844 L39.4688,444.7031 Q38.8438,444.125 38.25,443.8594 Q37.6563,443.5781 37.0313,443.5781 Q35.6875,443.5781 35,444.6563 Q34.3125,445.7188 34.3125,447.8125 Q34.3125,449.9063 35,450.9844 Q35.6875,452.0469 37.0313,452.0469 Q37.6563,452.0469 38.25,451.7813 Q38.8438,451.5 39.4688,450.9219 L39.4688,453.6406 Z "/><text fill="#000000" font-family="sans-serif" font-size="12" lengthAdjust="spacingAndGlyphs" textLength="65" x="50.5" y="452.1543">twa_graph</text><!--class twa_graph_state--><rect fill="#FEFECE" filter="url(#f4oh4d77nmjph)" height="32" id="twa_graph_state" style="stroke: #A80036; stroke-width: 1.5;" width="136" x="767" y="432"/><ellipse cx="782" cy="448" fill="#ADD1B2" rx="11" ry="11" style="stroke: #A80036; stroke-width: 1.0;"/><path d="M784.9688,453.6406 Q784.3906,453.9375 783.75,454.0781 Q783.1094,454.2344 782.4063,454.2344 Q779.9063,454.2344 778.5781,452.5938 Q777.2656,450.9375 777.2656,447.8125 Q777.2656,444.6875 778.5781,443.0313 Q779.9063,441.375 782.4063,441.375 Q783.1094,441.375 783.75,441.5313 Q784.4063,441.6875 784.9688,441.9844 L784.9688,444.7031 Q784.3438,444.125 783.75,443.8594 Q783.1563,443.5781 782.5313,443.5781 Q781.1875,443.5781 780.5,444.6563 Q779.8125,445.7188 779.8125,447.8125 Q779.8125,449.9063 780.5,450.9844 Q781.1875,452.0469 782.5313,452.0469 Q783.1563,452.0469 783.75,451.7813 Q784.3438,451.5 784.9688,450.9219 L784.9688,453.6406 Z "/><text fill="#000000" font-family="sans-serif" font-size="12" lengthAdjust="spacingAndGlyphs" textLength="104" x="796" y="452.1543">twa_graph_state</text><!--class twa_graph_succ_iterator--><rect fill="#FEFECE" filter="url(#f4oh4d77nmjph)" height="32" id="twa_graph_succ_iterator" style="stroke: #A80036; stroke-width: 1.5;" width="185" x="546.5" y="432"/><ellipse cx="561.5" cy="448" fill="#ADD1B2" rx="11" ry="11" style="stroke: #A80036; stroke-width: 1.0;"/><path d="M564.4688,453.6406 Q563.8906,453.9375 563.25,454.0781 Q562.6094,454.2344 561.9063,454.2344 Q559.4063,454.2344 558.0781,452.5938 Q556.7656,450.9375 556.7656,447.8125 Q556.7656,444.6875 558.0781,443.0313 Q559.4063,441.375 561.9063,441.375 Q562.6094,441.375 563.25,441.5313 Q563.9063,441.6875 564.4688,441.9844 L564.4688,444.7031 Q563.8438,444.125 563.25,443.8594 Q562.6563,443.5781 562.0313,443.5781 Q560.6875,443.5781 560,444.6563 Q559.3125,445.7188 559.3125,447.8125 Q559.3125,449.9063 560,450.9844 Q560.6875,452.0469 562.0313,452.0469 Q562.6563,452.0469 563.25,451.7813 Q563.8438,451.5 564.4688,450.9219 L564.4688,453.6406 Z "/><text fill="#000000" font-family="sans-serif" font-size="12" lengthAdjust="spacingAndGlyphs" textLength="153" x="575.5" y="452.1543">twa_graph_succ_iterator</text><!--class succ_iterable--><rect fill="#FEFECE" filter="url(#f4oh4d77nmjph)" height="73.6094" id="succ_iterable" style="stroke: #A80036; stroke-width: 1.5;" width="194" x="280" y="411"/><ellipse cx="331.25" cy="427" fill="#ADD1B2" rx="11" ry="11" style="stroke: #A80036; stroke-width: 1.0;"/><path d="M334.2188,432.6406 Q333.6406,432.9375 333,433.0781 Q332.3594,433.2344 331.6563,433.2344 Q329.1563,433.2344 327.8281,431.5938 Q326.5156,429.9375 326.5156,426.8125 Q326.5156,423.6875 327.8281,422.0313 Q329.1563,420.375 331.6563,420.375 Q332.3594,420.375 333,420.5313 Q333.6563,420.6875 334.2188,420.9844 L334.2188,423.7031 Q333.5938,423.125 333,422.8594 Q332.4063,422.5781 331.7813,422.5781 Q330.4375,422.5781 329.75,423.6563 Q329.0625,424.7188 329.0625,426.8125 Q329.0625,428.9063 329.75,429.9844 Q330.4375,431.0469 331.7813,431.0469 Q332.4063,431.0469 333,430.7813 Q333.5938,430.5 334.2188,429.9219 L334.2188,432.6406 Z "/><text fill="#000000" font-family="sans-serif" font-size="12" lengthAdjust="spacingAndGlyphs" textLength="83" x="351.75" y="431.1543">succ_iterable</text><line style="stroke: #A80036; stroke-width: 1.5;" x1="281" x2="473" y1="443" y2="443"/><line style="stroke: #A80036; stroke-width: 1.5;" x1="281" x2="473" y1="451" y2="451"/><ellipse cx="291" cy="462.9023" fill="#84BE84" rx="3" ry="3" style="stroke: #038048; stroke-width: 1.0;"/><text fill="#000000" font-family="sans-serif" font-size="11" lengthAdjust="spacingAndGlyphs" textLength="168" x="300" y="465.2104">internal::succ_iterator begin()</text><ellipse cx="291" cy="475.707" fill="#84BE84" rx="3" ry="3" style="stroke: #038048; stroke-width: 1.0;"/><text fill="#000000" font-family="sans-serif" font-size="11" lengthAdjust="spacingAndGlyphs" textLength="158" x="300" y="478.0151">internal::succ_iterator end()</text><!--class succ_iterator--><rect fill="#FEFECE" filter="url(#f4oh4d77nmjph)" height="112.0234" id="succ_iterator" style="stroke: #A80036; stroke-width: 1.5;" width="220" x="274" y="996"/><ellipse cx="338.75" cy="1012" fill="#ADD1B2" rx="11" ry="11" style="stroke: #A80036; stroke-width: 1.0;"/><path d="M341.7188,1017.6406 Q341.1406,1017.9375 340.5,1018.0781 Q339.8594,1018.2344 339.1563,1018.2344 Q336.6563,1018.2344 335.3281,1016.5938 Q334.0156,1014.9375 334.0156,1011.8125 Q334.0156,1008.6875 335.3281,1007.0313 Q336.6563,1005.375 339.1563,1005.375 Q339.8594,1005.375 340.5,1005.5313 Q341.1563,1005.6875 341.7188,1005.9844 L341.7188,1008.7031 Q341.0938,1008.125 340.5,1007.8594 Q339.9063,1007.5781 339.2813,1007.5781 Q337.9375,1007.5781 337.25,1008.6563 Q336.5625,1009.7188 336.5625,1011.8125 Q336.5625,1013.9063 337.25,1014.9844 Q337.9375,1016.0469 339.2813,1016.0469 Q339.9063,1016.0469 340.5,1015.7813 Q341.0938,1015.5 341.7188,1014.9219 L341.7188,1017.6406 Z "/><text fill="#000000" font-family="sans-serif" font-size="12" lengthAdjust="spacingAndGlyphs" textLength="82" x="359.25" y="1016.1543">succ_iterator</text><line style="stroke: #A80036; stroke-width: 1.5;" x1="275" x2="493" y1="1028" y2="1028"/><line style="stroke: #A80036; stroke-width: 1.5;" x1="275" x2="493" y1="1036" y2="1036"/><text fill="#000000" font-family="sans-serif" font-size="11" lengthAdjust="spacingAndGlyphs" textLength="188" x="280" y="1050.2104">succ_iterator(twa_succ_iterator*)</text><text fill="#000000" font-family="sans-serif" font-size="11" lengthAdjust="spacingAndGlyphs" textLength="177" x="280" y="1063.0151">bool operator==(succ_iterator)</text><text fill="#000000" font-family="sans-serif" font-size="11" lengthAdjust="spacingAndGlyphs" textLength="171" x="280" y="1075.8198">bool operator!=(succ_iterator)</text><text fill="#000000" font-family="sans-serif" font-size="11" lengthAdjust="spacingAndGlyphs" textLength="208" x="280" y="1088.6245">const twa_succ_iterator* operator*()</text><text fill="#000000" font-family="sans-serif" font-size="11" lengthAdjust="spacingAndGlyphs" textLength="102" x="280" y="1101.4292">void operator++()</text><!--class twa--><rect fill="#FEFECE" filter="url(#f4oh4d77nmjph)" height="216.0586" id="twa" style="stroke: #A80036; stroke-width: 1.5;" width="349" x="74.5" y="51"/><ellipse cx="233.25" cy="67" fill="#A9DCDF" rx="11" ry="11" style="stroke: #A80036; stroke-width: 1.0;"/><path d="M233.3594,62.3438 L232.2031,67.4219 L234.5313,67.4219 L233.3594,62.3438 Z M231.875,60.1094 L234.8594,60.1094 L238.2188,72.5 L235.7656,72.5 L235,69.4375 L231.7188,69.4375 L230.9688,72.5 L228.5313,72.5 L231.875,60.1094 Z "/><text fill="#000000" font-family="sans-serif" font-size="12" font-style="italic" lengthAdjust="spacingAndGlyphs" textLength="23" x="253.75" y="71.1543">twa</text><line style="stroke: #A80036; stroke-width: 1.5;" x1="75.5" x2="422.5" y1="83" y2="83"/><polygon fill="none" points="85.5,89.9023,89.5,93.9023,85.5,97.9023,81.5,93.9023" style="stroke: #B38D22; stroke-width: 1.0;"/><text fill="#000000" font-family="sans-serif" font-size="11" lengthAdjust="spacingAndGlyphs" textLength="174" x="94.5" y="97.2104">twa_succ_iterator* iter_cache_</text><polygon fill="none" points="85.5,102.707,89.5,106.707,85.5,110.707,81.5,106.707" style="stroke: #B38D22; stroke-width: 1.0;"/><text fill="#000000" font-family="sans-serif" font-size="11" lengthAdjust="spacingAndGlyphs" textLength="99" x="94.5" y="110.0151">bdd_dict_ptr dict_</text><line style="stroke: #A80036; stroke-width: 1.5;" x1="75.5" x2="422.5" y1="116.6094" y2="116.6094"/><polygon fill="#FFFF44" points="85.5,123.5117,89.5,127.5117,85.5,131.5117,81.5,127.5117" style="stroke: #B38D22; stroke-width: 1.0;"/><text fill="#000000" font-family="sans-serif" font-size="11" lengthAdjust="spacingAndGlyphs" textLength="142" x="94.5" y="130.8198">twa(const bdd_dict_ptr&amp;)</text><ellipse cx="85.5" cy="158.1211" fill="#84BE84" rx="3" ry="3" style="stroke: #038048; stroke-width: 1.0;"/><text fill="#000000" font-family="sans-serif" font-size="11" font-style="italic" lengthAdjust="spacingAndGlyphs" textLength="121" x="94.5" y="160.4292">state* get_init_state()</text><ellipse cx="85.5" cy="170.9258" fill="#84BE84" rx="3" ry="3" style="stroke: #038048; stroke-width: 1.0;"/><text fill="#000000" font-family="sans-serif" font-size="11" font-style="italic" lengthAdjust="spacingAndGlyphs" textLength="201" x="94.5" y="173.2339">twa_succ_iterator* succ_iter(state*)</text><ellipse cx="85.5" cy="183.7305" fill="#84BE84" rx="3" ry="3" style="stroke: #038048; stroke-width: 1.0;"/><text fill="#000000" font-family="sans-serif" font-size="11" lengthAdjust="spacingAndGlyphs" textLength="234" x="94.5" y="186.0386">internal::succ_iterable succ(const state*)</text><ellipse cx="85.5" cy="196.5352" fill="#84BE84" rx="3" ry="3" style="stroke: #038048; stroke-width: 1.0;"/><text fill="#000000" font-family="sans-serif" font-size="11" lengthAdjust="spacingAndGlyphs" textLength="209" x="94.5" y="198.8433">void release_iter(twa_succ_iterator*)</text><line style="stroke: #A80036; stroke-width: 1.0; stroke-dasharray: 1.0,2.0;" x1="75.5" x2="217.5" y1="143.8164" y2="143.8164"/><text fill="#000000" font-family="sans-serif" font-size="11" lengthAdjust="spacingAndGlyphs" textLength="63" x="217.5" y="147.1245">exploration</text><line style="stroke: #A80036; stroke-width: 1.0; stroke-dasharray: 1.0,2.0;" x1="280.5" x2="422.5" y1="143.8164" y2="143.8164"/><ellipse cx="85.5" cy="226.1445" fill="#84BE84" rx="3" ry="3" style="stroke: #038048; stroke-width: 1.0;"/><text fill="#000000" font-family="sans-serif" font-size="11" font-style="italic" lengthAdjust="spacingAndGlyphs" textLength="209" x="94.5" y="228.4526">std::string format_state(const state*)</text><ellipse cx="85.5" cy="238.9492" fill="#84BE84" rx="3" ry="3" style="stroke: #038048; stroke-width: 1.0;"/><text fill="#000000" font-family="sans-serif" font-size="11" lengthAdjust="spacingAndGlyphs" textLength="323" x="94.5" y="241.2573">state* project_state(const state*, const const_twa_ptr&amp;)</text><line style="stroke: #A80036; stroke-width: 1.0; stroke-dasharray: 1.0,2.0;" x1="75.5" x2="196" y1="211.8398" y2="211.8398"/><text fill="#000000" font-family="sans-serif" font-size="11" lengthAdjust="spacingAndGlyphs" textLength="106" x="196" y="215.1479">state manipulation</text><line style="stroke: #A80036; stroke-width: 1.0; stroke-dasharray: 1.0,2.0;" x1="302" x2="422.5" y1="211.8398" y2="211.8398"/><line style="stroke: #A80036; stroke-width: 1.0; stroke-dasharray: 1.0,2.0;" x1="75.5" x2="175.5" y1="254.2539" y2="254.2539"/><text fill="#000000" font-family="sans-serif" font-size="11" lengthAdjust="spacingAndGlyphs" textLength="147" x="175.5" y="257.562">other methods not shown</text><line style="stroke: #A80036; stroke-width: 1.0; stroke-dasharray: 1.0,2.0;" x1="322.5" x2="422.5" y1="254.2539" y2="254.2539"/><!--class twa_succ_iterator--><rect fill="#FEFECE" filter="url(#f4oh4d77nmjph)" height="150.4375" id="twa_succ_iterator" style="stroke: #A80036; stroke-width: 1.5;" width="156" x="459" y="84"/><ellipse cx="480.3" cy="100" fill="#A9DCDF" rx="11" ry="11" style="stroke: #A80036; stroke-width: 1.0;"/><path d="M480.4094,95.3438 L479.2531,100.4219 L481.5813,100.4219 L480.4094,95.3438 Z M478.925,93.1094 L481.9094,93.1094 L485.2688,105.5 L482.8156,105.5 L482.05,102.4375 L478.7688,102.4375 L478.0188,105.5 L475.5813,105.5 L478.925,93.1094 Z "/><text fill="#000000" font-family="sans-serif" font-size="12" font-style="italic" lengthAdjust="spacingAndGlyphs" textLength="110" x="495.7" y="104.1543">twa_succ_iterator</text><line style="stroke: #A80036; stroke-width: 1.5;" x1="460" x2="614" y1="116" y2="116"/><ellipse cx="470" cy="144.707" fill="#84BE84" rx="3" ry="3" style="stroke: #038048; stroke-width: 1.0;"/><text fill="#000000" font-family="sans-serif" font-size="11" font-style="italic" lengthAdjust="spacingAndGlyphs" textLength="58" x="479" y="147.0151">bool first()</text><ellipse cx="470" cy="157.5117" fill="#84BE84" rx="3" ry="3" style="stroke: #038048; stroke-width: 1.0;"/><text fill="#000000" font-family="sans-serif" font-size="11" font-style="italic" lengthAdjust="spacingAndGlyphs" textLength="61" x="479" y="159.8198">bool next()</text><ellipse cx="470" cy="170.3164" fill="#84BE84" rx="3" ry="3" style="stroke: #038048; stroke-width: 1.0;"/><text fill="#000000" font-family="sans-serif" font-size="11" font-style="italic" lengthAdjust="spacingAndGlyphs" textLength="64" x="479" y="172.6245">bool done()</text><line style="stroke: #A80036; stroke-width: 1.0; stroke-dasharray: 1.0,2.0;" x1="460" x2="513.5" y1="130.4023" y2="130.4023"/><text fill="#000000" font-family="sans-serif" font-size="11" lengthAdjust="spacingAndGlyphs" textLength="47" x="513.5" y="133.7104">iteration</text><line style="stroke: #A80036; stroke-width: 1.0; stroke-dasharray: 1.0,2.0;" x1="560.5" x2="614" y1="130.4023" y2="130.4023"/><ellipse cx="470" cy="199.9258" fill="#84BE84" rx="3" ry="3" style="stroke: #038048; stroke-width: 1.0;"/><text fill="#000000" font-family="sans-serif" font-size="11" font-style="italic" lengthAdjust="spacingAndGlyphs" textLength="97" x="479" y="202.2339">const state* dst()</text><ellipse cx="470" cy="212.7305" fill="#84BE84" rx="3" ry="3" style="stroke: #038048; stroke-width: 1.0;"/><text fill="#000000" font-family="sans-serif" font-size="11" font-style="italic" lengthAdjust="spacingAndGlyphs" textLength="60" x="479" y="215.0386">bdd cond()</text><ellipse cx="470" cy="225.5352" fill="#84BE84" rx="3" ry="3" style="stroke: #038048; stroke-width: 1.0;"/><text fill="#000000" font-family="sans-serif" font-size="11" font-style="italic" lengthAdjust="spacingAndGlyphs" textLength="130" x="479" y="227.8433">acc_cond::mark_t acc()</text><line style="stroke: #A80036; stroke-width: 1.0; stroke-dasharray: 1.0,2.0;" x1="460" x2="508" y1="185.6211" y2="185.6211"/><text fill="#000000" font-family="sans-serif" font-size="11" lengthAdjust="spacingAndGlyphs" textLength="58" x="508" y="188.9292">inspection</text><line style="stroke: #A80036; stroke-width: 1.0; stroke-dasharray: 1.0,2.0;" x1="566" x2="614" y1="185.6211" y2="185.6211"/><!--class state--><rect fill="#FEFECE" filter="url(#f4oh4d77nmjph)" height="112.0234" id="state" style="stroke: #A80036; stroke-width: 1.5;" width="170" x="650" y="103"/><ellipse cx="714.75" cy="119" fill="#A9DCDF" rx="11" ry="11" style="stroke: #A80036; stroke-width: 1.0;"/><path d="M714.8594,114.3438 L713.7031,119.4219 L716.0313,119.4219 L714.8594,114.3438 Z M713.375,112.1094 L716.3594,112.1094 L719.7188,124.5 L717.2656,124.5 L716.5,121.4375 L713.2188,121.4375 L712.4688,124.5 L710.0313,124.5 L713.375,112.1094 Z "/><text fill="#000000" font-family="sans-serif" font-size="12" font-style="italic" lengthAdjust="spacingAndGlyphs" textLength="32" x="735.25" y="123.1543">state</text><line style="stroke: #A80036; stroke-width: 1.5;" x1="651" x2="819" y1="135" y2="135"/><line style="stroke: #A80036; stroke-width: 1.5;" x1="651" x2="819" y1="143" y2="143"/><ellipse cx="661" cy="154.9023" fill="#84BE84" rx="3" ry="3" style="stroke: #038048; stroke-width: 1.0;"/><text fill="#000000" font-family="sans-serif" font-size="11" font-style="italic" lengthAdjust="spacingAndGlyphs" textLength="144" x="670" y="157.2104">int compare(const state*)</text><ellipse cx="661" cy="167.707" fill="#84BE84" rx="3" ry="3" style="stroke: #038048; stroke-width: 1.0;"/><text fill="#000000" font-family="sans-serif" font-size="11" font-style="italic" lengthAdjust="spacingAndGlyphs" textLength="71" x="670" y="170.0151">size_t hash()</text><ellipse cx="661" cy="180.5117" fill="#84BE84" rx="3" ry="3" style="stroke: #038048; stroke-width: 1.0;"/><text fill="#000000" font-family="sans-serif" font-size="11" font-style="italic" lengthAdjust="spacingAndGlyphs" textLength="76" x="670" y="182.8198">state* clone()</text><ellipse cx="661" cy="193.3164" fill="#84BE84" rx="3" ry="3" style="stroke: #038048; stroke-width: 1.0;"/><text fill="#000000" font-family="sans-serif" font-size="11" lengthAdjust="spacingAndGlyphs" textLength="78" x="670" y="195.6245">void destroy()</text><polygon fill="#FFFF44" points="661,201.1211,665,205.1211,661,209.1211,657,205.1211" style="stroke: #B38D22; stroke-width: 1.0;"/><text fill="#000000" font-family="sans-serif" font-size="11" lengthAdjust="spacingAndGlyphs" textLength="46" x="670" y="208.4292">~state()</text><!--link twa to twa_graph--><path d="M171.4108,284.2696 C135.8477,341.6872 97.7302,403.2289 80.0603,431.7574 " fill="none" id="twa-twa_graph" style="stroke: #A80036; stroke-width: 1.0;"/><polygon fill="none" points="165.6103,280.3408,182.0925,267.0239,177.5123,287.7126,165.6103,280.3408" style="stroke: #A80036; stroke-width: 1.0;"/><!--link twa to acc_cond--><path d="M228.2649,278.8482 C228.2649,278.8482 209.6932,386.1935 204.0476,418.8247 " fill="none" id="twa-acc_cond" style="stroke: #A80036; stroke-width: 1.0;"/><polygon fill="#A80036" points="201.8101,431.7574,207.2859,423.5711,202.6625,426.8306,199.403,422.2072,201.8101,431.7574" style="stroke: #A80036; stroke-width: 1.0;"/><line style="stroke: #A80036; stroke-width: 1.0;" x1="202.6625" x2="204.0264" y1="426.8306" y2="418.9477"/><polygon fill="#A80036" points="230.3107,267.0239,225.3463,272.2541,228.2649,278.8482,233.2292,273.618,230.3107,267.0239" style="stroke: #A80036; stroke-width: 1.0;"/><!--link twa_succ_iterator to twa_graph_succ_iterator--><path d="M570.2794,253.2915 C593.1511,318.0949 621.453,398.2835 633.3324,431.9419 " fill="none" id="twa_succ_iterator-twa_graph_succ_iterator" style="stroke: #A80036; stroke-width: 1.0;"/><polygon fill="none" points="563.5886,255.3665,563.533,234.1769,576.7904,250.707,563.5886,255.3665" style="stroke: #A80036; stroke-width: 1.0;"/><!--link succ_iterable to twa--><path d="M357.8839,399.6331 C357.8839,399.6331 338.0672,351.0069 328,328 C321.0523,312.1223 313.5574,295.4983 306.0476,279.1336 " fill="none" id="succ_iterable-twa" style="stroke: #A80036; stroke-width: 1.0;"/><polygon fill="#A80036" points="300.5843,267.2778,300.7181,277.1257,302.6769,271.8188,307.9838,273.7776,300.5843,267.2778" style="stroke: #A80036; stroke-width: 1.0;"/><line style="stroke: #A80036; stroke-width: 1.0;" x1="302.6769" x2="306.025" y1="271.8188" y2="279.0846"/><polygon fill="#FFFFFF" points="362.3509,410.7707,363.8299,403.7129,357.8839,399.6331,356.4049,406.6909,362.3509,410.7707" style="stroke: #A80036; stroke-width: 1.0;"/><!--link twa to succ_iterable--><path d="M267.6516,267.0079 C269.204,277.1342 270.6812,287.2518 272,297 C274.8755,318.2551 267.9184,325.5688 277,345 C287.9881,368.5104 306.5812,389.9355 324.7751,407.0823 " fill="none" id="twa-succ_iterable" style="stroke: #A80036; stroke-width: 1.0; stroke-dasharray: 7.0,7.0;"/><polygon fill="#A80036" points="328.8928,410.8983,325.0107,401.8468,325.2255,407.4996,319.5728,407.7145,328.8928,410.8983" style="stroke: #A80036; stroke-width: 1.0;"/><text fill="#000000" font-family="sans-serif" font-size="13" lengthAdjust="spacingAndGlyphs" textLength="41" x="278" y="341.0669">create</text><!--link twa_succ_iterator to succ_iterable--><path d="M488.9977,245.7042 C461.2036,295.9073 403.4741,400.1813 403.4741,400.1813 " fill="none" id="twa_succ_iterator-succ_iterable" style="stroke: #A80036; stroke-width: 1.0;"/><polygon fill="#A80036" points="397.6618,410.6797,404.0674,407.3679,403.4741,400.1813,397.0685,403.493,397.6618,410.6797" style="stroke: #A80036; stroke-width: 1.0;"/><polygon fill="#A80036" points="495.3796,234.1769,487.5209,240.1133,492.9578,238.5512,494.5198,243.9882,495.3796,234.1769" style="stroke: #A80036; stroke-width: 1.0;"/><line style="stroke: #A80036; stroke-width: 1.0;" x1="492.9578" x2="489.0829" y1="238.5512" y2="245.5503"/><!--link twa_succ_iterator to succ_iterator--><path d="M518.1985,247.3826 C513.6145,275.7105 510,307.3039 510,336.5 C510,336.5 510,336.5 510,934.5 C510,954.0634 488.576,987.159 488.576,987.159 " fill="none" id="twa_succ_iterator-succ_iterator" style="stroke: #A80036; stroke-width: 1.0;"/><polygon fill="#FFFFFF" points="480.4586,995.9968,487.4633,994.2837,488.576,987.159,481.5714,988.8721,480.4586,995.9968" style="stroke: #A80036; stroke-width: 1.0;"/><polygon fill="#A80036" points="520.4389,234.1918,514.9883,242.3949,519.6016,239.1212,522.8754,243.7345,520.4389,234.1918" style="stroke: #A80036; stroke-width: 1.0;"/><line style="stroke: #A80036; stroke-width: 1.0;" x1="519.6016" x2="518.2621" y1="239.1212" y2="247.0083"/><!--link succ_iterable to succ_iterator--><path d="M378.6754,485.4104 C379.3626,503.807 380,526.3118 380,546.5 C380,546.5 380,546.5 380,934.5 C380,952.7839 380.4898,972.6589 381.1265,990.7729 " fill="none" id="succ_iterable-succ_iterator" style="stroke: #A80036; stroke-width: 1.0; stroke-dasharray: 7.0,7.0;"/><polygon fill="#A80036" points="381.3097,995.8324,384.981,986.6934,381.1286,990.8357,376.9863,986.9832,381.3097,995.8324" style="stroke: #A80036; stroke-width: 1.0;"/><text fill="#000000" font-family="sans-serif" font-size="13" lengthAdjust="spacingAndGlyphs" textLength="41" x="381" y="745.0669">create</text><!--link state to twa_graph_state--><path d="M760.9971,234.1316 C784.2663,301.3796 816.6288,394.9072 829.4506,431.9622 " fill="none" id="state-twa_graph_state" style="stroke: #A80036; stroke-width: 1.0;"/><polygon fill="none" points="754.3244,236.2543,754.3996,215.0648,767.5548,231.6763,754.3244,236.2543" style="stroke: #A80036; stroke-width: 1.0;"/><!--
@startuml
package spot {
  package internal {
    class succ_iterable {
      +internal::succ_iterator begin()
      +internal::succ_iterator end()
    }

    class succ_iterator {
      succ_iterator(twa_succ_iterator*)
      bool operator==(succ_iterator)
      bool operator!=(succ_iterator)
      const twa_succ_iterator* operator*()
      void operator++()
    }
  }

  class acc_cond
  hide acc_cond members

  together {
  abstract class twa {
    #twa_succ_iterator* iter_cache_
    #bdd_dict_ptr dict_
    __
    #twa(const bdd_dict_ptr&)
    .. exploration ..
    +{abstract}state* get_init_state()
    +{abstract}twa_succ_iterator* succ_iter(state*)
    +internal::succ_iterable succ(const state*)
    +void release_iter(twa_succ_iterator*)
    .. state manipulation ..
    +{abstract} std::string format_state(const state*)
    +state* project_state(const state*, const const_twa_ptr&)
    .. other methods not shown..
  }
  abstract class twa_succ_iterator {
    .. iteration ..
    {abstract}+bool first()
    {abstract}+bool next()
    {abstract}+bool done()
    .. inspection ..
    {abstract}+const state* dst()
    {abstract}+bdd cond()
    {abstract}+acc_cond::mark_t acc()
  }

  abstract class state {
    +{abstract}int compare(const state*)
    +{abstract}size_t hash()
    +{abstract}state* clone()
    +void destroy()
    #~state()
  }
  }



  class twa_graph

  twa <|- - twa_graph
  twa *- -> acc_cond

  class twa_graph_state

  hide twa_graph members
  hide twa_graph_state members
  hide twa_graph_succ_iterator members

  twa_succ_iterator <|- - twa_graph_succ_iterator
  succ_iterable o- -> twa
  twa_succ_iterator <- -* succ_iterable
  twa_succ_iterator <- -o succ_iterator
  twa ...> succ_iterable : "create"
  succ_iterable ...> succ_iterator : "create"
  state <|- - twa_graph_state
}
@enduml

PlantUML version 1.2019.08(Sat Jul 13 19:25:14 UTC 2019)
(GPL source distribution)
Java Runtime: OpenJDK Runtime Environment
JVM: OpenJDK 64-Bit Server VM
Java Version: 11.0.4+11-post-Debian-1deb10u1
Operating System: Linux
OS Version: 5.2.0-2-amd64
Default Encoding: UTF-8
Language: en
Country: US
--></g></svg>