<?xml version="1.0" encoding="UTF-8" standalone="no"?><svg xmlns="http://www.w3.org/2000/svg" xmlns:xlink="http://www.w3.org/1999/xlink" contentScriptType="application/ecmascript" contentStyleType="text/css" height="1538px" preserveAspectRatio="none" style="width:1267px;height:1538px;" version="1.1" viewBox="0 0 1267 1538" width="1267px" zoomAndPan="magnify"><defs><filter height="300%" id="f1le3uzlyjujbn" width="300%" x="-1" y="-1"><feGaussianBlur result="blurOut" stdDeviation="2.0"/><feColorMatrix in="blurOut" result="blurOut2" type="matrix" values="0 0 0 0 0 0 0 0 0 0 0 0 0 0 0 0 0 0 .4 0"/><feOffset dx="4.0" dy="4.0" in="blurOut2" result="blurOut3"/><feBlend in="SourceGraphic" in2="blurOut3" mode="normal"/></filter></defs><g><!--cluster stl--><polygon fill="#FFFFFF" filter="url(#f1le3uzlyjujbn)" points="14,1224,39,1224,46,1246.2969,136,1246.2969,136,1297,14,1297,14,1224" style="stroke: #000000; stroke-width: 1.5;"/><line style="stroke: #000000; stroke-width: 1.5;" x1="14" x2="46" y1="1246.2969" y2="1246.2969"/><text fill="#000000" font-family="sans-serif" font-size="14" font-weight="bold" lengthAdjust="spacingAndGlyphs" textLength="19" x="18" y="1238.9951">stl</text><!--cluster spot--><polygon fill="#FFFFFF" filter="url(#f1le3uzlyjujbn)" points="144,16,185,16,192,38.2969,1245,38.2969,1245,1526,144,1526,144,16" style="stroke: #000000; stroke-width: 1.5;"/><line style="stroke: #000000; stroke-width: 1.5;" x1="144" x2="192" y1="38.2969" y2="38.2969"/><text fill="#000000" font-family="sans-serif" font-size="14" font-weight="bold" lengthAdjust="spacingAndGlyphs" textLength="35" x="148" y="30.9951">spot</text><!--cluster internal--><polygon fill="#FFFFFF" filter="url(#f1le3uzlyjujbn)" points="152,684,218,684,225,706.2969,1208,706.2969,1208,1518,152,1518,152,684" style="stroke: #000000; stroke-width: 1.5;"/><line style="stroke: #000000; stroke-width: 1.5;" x1="152" x2="225" y1="706.2969" y2="706.2969"/><text fill="#000000" font-family="sans-serif" font-size="14" font-weight="bold" lengthAdjust="spacingAndGlyphs" textLength="60" x="156" y="698.9951">internal</text><!--class Forward Iterator--><rect fill="#FEFECE" filter="url(#f1le3uzlyjujbn)" height="37.9375" id="Forward Iterator" style="stroke: #A80036; stroke-width: 1.5;" width="107" x="21.5" y="1251"/><text fill="#000000" font-family="sans-serif" font-size="12" font-style="italic" lengthAdjust="spacingAndGlyphs" textLength="66" x="42" y="1267.1387">«Concept»</text><text fill="#000000" font-family="sans-serif" font-size="12" lengthAdjust="spacingAndGlyphs" textLength="101" x="24.5" y="1281.1074">Forward Iterator</text><!--class twa_graph--><rect fill="#FEFECE" filter="url(#f1le3uzlyjujbn)" height="148.0352" id="twa_graph" style="stroke: #A80036; stroke-width: 1.5;" width="406" x="522" y="198"/><ellipse cx="688.25" cy="214" fill="#ADD1B2" rx="11" ry="11" style="stroke: #A80036; stroke-width: 1.0;"/><path d="M691.2188,219.6406 Q690.6406,219.9375 690,220.0781 Q689.3594,220.2344 688.6563,220.2344 Q686.1563,220.2344 684.8281,218.5938 Q683.5156,216.9375 683.5156,213.8125 Q683.5156,210.6875 684.8281,209.0313 Q686.1563,207.375 688.6563,207.375 Q689.3594,207.375 690,207.5313 Q690.6563,207.6875 691.2188,207.9844 L691.2188,210.7031 Q690.5938,210.125 690,209.8594 Q689.4063,209.5781 688.7813,209.5781 Q687.4375,209.5781 686.75,210.6563 Q686.0625,211.7188 686.0625,213.8125 Q686.0625,215.9063 686.75,216.9844 Q687.4375,218.0469 688.7813,218.0469 Q689.4063,218.0469 690,217.7813 Q690.5938,217.5 691.2188,216.9219 L691.2188,219.6406 Z "/><text fill="#000000" font-family="sans-serif" font-size="12" lengthAdjust="spacingAndGlyphs" textLength="65" x="708.75" y="218.1543">twa_graph</text><line style="stroke: #A80036; stroke-width: 1.5;" x1="523" x2="927" y1="230" y2="230"/><ellipse cx="533" cy="241.9023" fill="none" rx="3" ry="3" style="stroke: #038048; stroke-width: 1.0;"/><text fill="#000000" font-family="sans-serif" font-size="11" lengthAdjust="spacingAndGlyphs" textLength="380" x="542" y="244.2104">typedef digraph&lt;twa_graph_state, twa_graph_edge_data&gt; graph_t</text><line style="stroke: #A80036; stroke-width: 1.5;" x1="523" x2="927" y1="250.8047" y2="250.8047"/><ellipse cx="533" cy="262.707" fill="#84BE84" rx="3" ry="3" style="stroke: #038048; stroke-width: 1.0;"/><text fill="#000000" font-family="sans-serif" font-size="11" lengthAdjust="spacingAndGlyphs" textLength="181" x="542" y="265.0151">twa_graph(const bdd_dict_ptr&amp;)</text><ellipse cx="533" cy="275.5117" fill="#84BE84" rx="3" ry="3" style="stroke: #038048; stroke-width: 1.0;"/><text fill="#000000" font-family="sans-serif" font-size="11" lengthAdjust="spacingAndGlyphs" textLength="122" x="542" y="277.8198">graph_t&amp; get_graph()</text><ellipse cx="533" cy="305.1211" fill="#84BE84" rx="3" ry="3" style="stroke: #038048; stroke-width: 1.0;"/><text fill="#000000" font-family="sans-serif" font-size="11" lengthAdjust="spacingAndGlyphs" textLength="190" x="542" y="307.4292">unsigned get_init_state_number()</text><ellipse cx="533" cy="317.9258" fill="#84BE84" rx="3" ry="3" style="stroke: #038048; stroke-width: 1.0;"/><text fill="#000000" font-family="sans-serif" font-size="11" lengthAdjust="spacingAndGlyphs" textLength="269" x="542" y="320.2339">internal::state_out&lt;graph_t&gt; out(unsigned src)</text><line style="stroke: #A80036; stroke-width: 1.0; stroke-dasharray: 1.0,2.0;" x1="523" x2="693.5" y1="290.8164" y2="290.8164"/><text fill="#000000" font-family="sans-serif" font-size="11" lengthAdjust="spacingAndGlyphs" textLength="63" x="693.5" y="294.1245">exploration</text><line style="stroke: #A80036; stroke-width: 1.0; stroke-dasharray: 1.0,2.0;" x1="756.5" x2="927" y1="290.8164" y2="290.8164"/><line style="stroke: #A80036; stroke-width: 1.0; stroke-dasharray: 1.0,2.0;" x1="523" x2="662" y1="333.2305" y2="333.2305"/><text fill="#000000" font-family="sans-serif" font-size="11" lengthAdjust="spacingAndGlyphs" textLength="126" x="662" y="336.5386">other methods hidden</text><line style="stroke: #A80036; stroke-width: 1.0; stroke-dasharray: 1.0,2.0;" x1="788" x2="927" y1="333.2305" y2="333.2305"/><!--class twa--><rect fill="#FEFECE" filter="url(#f1le3uzlyjujbn)" height="32" id="twa" style="stroke: #A80036; stroke-width: 1.5;" width="55" x="839.5" y="43"/><ellipse cx="854.5" cy="59" fill="#A9DCDF" rx="11" ry="11" style="stroke: #A80036; stroke-width: 1.0;"/><path d="M854.6094,54.3438 L853.4531,59.4219 L855.7813,59.4219 L854.6094,54.3438 Z M853.125,52.1094 L856.1094,52.1094 L859.4688,64.5 L857.0156,64.5 L856.25,61.4375 L852.9688,61.4375 L852.2188,64.5 L849.7813,64.5 L853.125,52.1094 Z "/><text fill="#000000" font-family="sans-serif" font-size="12" font-style="italic" lengthAdjust="spacingAndGlyphs" textLength="23" x="868.5" y="63.1543">twa</text><!--class digraph<twa_graph_state, twa_graph_edge_data>--><rect fill="#FEFECE" filter="url(#f1le3uzlyjujbn)" height="97.6211" id="digraph&lt;twa_graph_state, twa_graph_edge_data&gt;" style="stroke: #A80036; stroke-width: 1.5;" width="450" x="500" y="469"/><ellipse cx="561.75" cy="485" fill="#ADD1B2" rx="11" ry="11" style="stroke: #A80036; stroke-width: 1.0;"/><path d="M564.7188,490.6406 Q564.1406,490.9375 563.5,491.0781 Q562.8594,491.2344 562.1563,491.2344 Q559.6563,491.2344 558.3281,489.5938 Q557.0156,487.9375 557.0156,484.8125 Q557.0156,481.6875 558.3281,480.0313 Q559.6563,478.375 562.1563,478.375 Q562.8594,478.375 563.5,478.5313 Q564.1563,478.6875 564.7188,478.9844 L564.7188,481.7031 Q564.0938,481.125 563.5,480.8594 Q562.9063,480.5781 562.2813,480.5781 Q560.9375,480.5781 560.25,481.6563 Q559.5625,482.7188 559.5625,484.8125 Q559.5625,486.9063 560.25,487.9844 Q560.9375,489.0469 562.2813,489.0469 Q562.9063,489.0469 563.5,488.7813 Q564.0938,488.5 564.7188,487.9219 L564.7188,490.6406 Z "/><text fill="#000000" font-family="sans-serif" font-size="12" lengthAdjust="spacingAndGlyphs" textLength="318" x="582.25" y="489.1543">digraph&lt;twa_graph_state, twa_graph_edge_data&gt;</text><line style="stroke: #A80036; stroke-width: 1.5;" x1="501" x2="949" y1="501" y2="501"/><ellipse cx="511" cy="512.9023" fill="#84BE84" rx="3" ry="3" style="stroke: #038048; stroke-width: 1.0;"/><text fill="#000000" font-family="sans-serif" font-size="11" lengthAdjust="spacingAndGlyphs" textLength="424" x="520" y="515.2104">internal::edge_storage&lt;twa_graph_edge_data&gt; edge_storage(unsigned s)</text><ellipse cx="511" cy="525.707" fill="#84BE84" rx="3" ry="3" style="stroke: #038048; stroke-width: 1.0;"/><text fill="#000000" font-family="sans-serif" font-size="11" lengthAdjust="spacingAndGlyphs" textLength="406" x="520" y="528.0151">internal::distate_storage&lt;twa_graph_state&gt; state_storage(unsigned s)</text><ellipse cx="511" cy="538.5117" fill="#84BE84" rx="3" ry="3" style="stroke: #038048; stroke-width: 1.0;"/><text fill="#000000" font-family="sans-serif" font-size="11" lengthAdjust="spacingAndGlyphs" textLength="269" x="520" y="540.8198">internal::state_out&lt;graph_t&gt; out(unsigned src)</text><line style="stroke: #A80036; stroke-width: 1.0; stroke-dasharray: 1.0,2.0;" x1="501" x2="665.5" y1="553.8164" y2="553.8164"/><text fill="#000000" font-family="sans-serif" font-size="11" lengthAdjust="spacingAndGlyphs" textLength="119" x="665.5" y="557.1245">other details omitted</text><line style="stroke: #A80036; stroke-width: 1.0; stroke-dasharray: 1.0,2.0;" x1="784.5" x2="949" y1="553.8164" y2="553.8164"/><!--class twa_graph_edge_data--><rect fill="#FEFECE" filter="url(#f1le3uzlyjujbn)" height="73.6094" id="twa_graph_edge_data" style="stroke: #A80036; stroke-width: 1.5;" width="170" x="985" y="481"/><ellipse cx="1000" cy="497" fill="#ADD1B2" rx="11" ry="11" style="stroke: #A80036; stroke-width: 1.0;"/><path d="M1002.9688,502.6406 Q1002.3906,502.9375 1001.75,503.0781 Q1001.1094,503.2344 1000.4063,503.2344 Q997.9063,503.2344 996.5781,501.5938 Q995.2656,499.9375 995.2656,496.8125 Q995.2656,493.6875 996.5781,492.0313 Q997.9063,490.375 1000.4063,490.375 Q1001.1094,490.375 1001.75,490.5313 Q1002.4063,490.6875 1002.9688,490.9844 L1002.9688,493.7031 Q1002.3438,493.125 1001.75,492.8594 Q1001.1563,492.5781 1000.5313,492.5781 Q999.1875,492.5781 998.5,493.6563 Q997.8125,494.7188 997.8125,496.8125 Q997.8125,498.9063 998.5,499.9844 Q999.1875,501.0469 1000.5313,501.0469 Q1001.1563,501.0469 1001.75,500.7813 Q1002.3438,500.5 1002.9688,499.9219 L1002.9688,502.6406 Z "/><text fill="#000000" font-family="sans-serif" font-size="12" lengthAdjust="spacingAndGlyphs" textLength="138" x="1014" y="501.1543">twa_graph_edge_data</text><line style="stroke: #A80036; stroke-width: 1.5;" x1="986" x2="1154" y1="513" y2="513"/><ellipse cx="996" cy="524.9023" fill="none" rx="3" ry="3" style="stroke: #038048; stroke-width: 1.0;"/><text fill="#000000" font-family="sans-serif" font-size="11" lengthAdjust="spacingAndGlyphs" textLength="52" x="1005" y="527.2104">bdd cond</text><ellipse cx="996" cy="537.707" fill="none" rx="3" ry="3" style="stroke: #038048; stroke-width: 1.0;"/><text fill="#000000" font-family="sans-serif" font-size="11" lengthAdjust="spacingAndGlyphs" textLength="122" x="1005" y="540.0151">acc_cond::mark_t acc</text><line style="stroke: #A80036; stroke-width: 1.5;" x1="986" x2="1154" y1="546.6094" y2="546.6094"/><!--class twa_graph_state--><rect fill="#FEFECE" filter="url(#f1le3uzlyjujbn)" height="32" id="twa_graph_state" style="stroke: #A80036; stroke-width: 1.5;" width="136" x="220" y="502"/><ellipse cx="235" cy="518" fill="#ADD1B2" rx="11" ry="11" style="stroke: #A80036; stroke-width: 1.0;"/><path d="M237.9688,523.6406 Q237.3906,523.9375 236.75,524.0781 Q236.1094,524.2344 235.4063,524.2344 Q232.9063,524.2344 231.5781,522.5938 Q230.2656,520.9375 230.2656,517.8125 Q230.2656,514.6875 231.5781,513.0313 Q232.9063,511.375 235.4063,511.375 Q236.1094,511.375 236.75,511.5313 Q237.4063,511.6875 237.9688,511.9844 L237.9688,514.7031 Q237.3438,514.125 236.75,513.8594 Q236.1563,513.5781 235.5313,513.5781 Q234.1875,513.5781 233.5,514.6563 Q232.8125,515.7188 232.8125,517.8125 Q232.8125,519.9063 233.5,520.9844 Q234.1875,522.0469 235.5313,522.0469 Q236.1563,522.0469 236.75,521.7813 Q237.3438,521.5 237.9688,520.9219 L237.9688,523.6406 Z "/><text fill="#000000" font-family="sans-serif" font-size="12" lengthAdjust="spacingAndGlyphs" textLength="104" x="249" y="522.1543">twa_graph_state</text><!--class acc_cond--><rect fill="#FEFECE" filter="url(#f1le3uzlyjujbn)" height="32" id="acc_cond" style="stroke: #A80036; stroke-width: 1.5;" width="91" x="963.5" y="256"/><ellipse cx="978.5" cy="272" fill="#ADD1B2" rx="11" ry="11" style="stroke: #A80036; stroke-width: 1.0;"/><path d="M981.4688,277.6406 Q980.8906,277.9375 980.25,278.0781 Q979.6094,278.2344 978.9063,278.2344 Q976.4063,278.2344 975.0781,276.5938 Q973.7656,274.9375 973.7656,271.8125 Q973.7656,268.6875 975.0781,267.0313 Q976.4063,265.375 978.9063,265.375 Q979.6094,265.375 980.25,265.5313 Q980.9063,265.6875 981.4688,265.9844 L981.4688,268.7031 Q980.8438,268.125 980.25,267.8594 Q979.6563,267.5781 979.0313,267.5781 Q977.6875,267.5781 977,268.6563 Q976.3125,269.7188 976.3125,271.8125 Q976.3125,273.9063 977,274.9844 Q977.6875,276.0469 979.0313,276.0469 Q979.6563,276.0469 980.25,275.7813 Q980.8438,275.5 981.4688,274.9219 L981.4688,277.6406 Z "/><text fill="#000000" font-family="sans-serif" font-size="12" lengthAdjust="spacingAndGlyphs" textLength="59" x="992.5" y="276.1543">acc_cond</text><!--class state_out<digraph<twa_graph_state, twa_graph_edge_data>>--><rect fill="#FEFECE" filter="url(#f1le3uzlyjujbn)" height="86.4141" id="state_out&lt;digraph&lt;twa_graph_state, twa_graph_edge_data&gt;&gt;" style="stroke: #A80036; stroke-width: 1.5;" width="436" x="451" y="711"/><ellipse cx="468.7" cy="727" fill="#ADD1B2" rx="11" ry="11" style="stroke: #A80036; stroke-width: 1.0;"/><path d="M471.6688,732.6406 Q471.0906,732.9375 470.45,733.0781 Q469.8094,733.2344 469.1063,733.2344 Q466.6063,733.2344 465.2781,731.5938 Q463.9656,729.9375 463.9656,726.8125 Q463.9656,723.6875 465.2781,722.0313 Q466.6063,720.375 469.1063,720.375 Q469.8094,720.375 470.45,720.5313 Q471.1063,720.6875 471.6688,720.9844 L471.6688,723.7031 Q471.0438,723.125 470.45,722.8594 Q469.8563,722.5781 469.2313,722.5781 Q467.8875,722.5781 467.2,723.6563 Q466.5125,724.7188 466.5125,726.8125 Q466.5125,728.9063 467.2,729.9844 Q467.8875,731.0469 469.2313,731.0469 Q469.8563,731.0469 470.45,730.7813 Q471.0438,730.5 471.6688,729.9219 L471.6688,732.6406 Z "/><text fill="#000000" font-family="sans-serif" font-size="12" lengthAdjust="spacingAndGlyphs" textLength="398" x="483.3" y="731.1543">state_out&lt;digraph&lt;twa_graph_state, twa_graph_edge_data&gt;&gt;</text><line style="stroke: #A80036; stroke-width: 1.5;" x1="452" x2="886" y1="743" y2="743"/><text fill="#000000" font-family="sans-serif" font-size="11" lengthAdjust="spacingAndGlyphs" textLength="66" x="457" y="757.2104">unsigned t_</text><line style="stroke: #A80036; stroke-width: 1.5;" x1="452" x2="886" y1="763.8047" y2="763.8047"/><text fill="#000000" font-family="sans-serif" font-size="11" lengthAdjust="spacingAndGlyphs" textLength="424" x="457" y="778.0151">edge_iterator&lt;digraph&lt;twa_graph_state, twa_graph_edge_data&gt;&gt; begin()</text><text fill="#000000" font-family="sans-serif" font-size="11" lengthAdjust="spacingAndGlyphs" textLength="414" x="457" y="790.8198">edge_iterator&lt;digraph&lt;twa_graph_state, twa_graph_edge_data&gt;&gt; end()</text><!--class edge_iterator<digraph<twa_graph_state, twa_graph_edge_data>>--><rect fill="#FEFECE" filter="url(#f1le3uzlyjujbn)" height="144.0352" id="edge_iterator&lt;digraph&lt;twa_graph_state, twa_graph_edge_data&gt;&gt;" style="stroke: #A80036; stroke-width: 1.5;" width="455" x="441.5" y="1366"/><ellipse cx="456.5" cy="1382" fill="#ADD1B2" rx="11" ry="11" style="stroke: #A80036; stroke-width: 1.0;"/><path d="M459.4688,1387.6406 Q458.8906,1387.9375 458.25,1388.0781 Q457.6094,1388.2344 456.9063,1388.2344 Q454.4063,1388.2344 453.0781,1386.5938 Q451.7656,1384.9375 451.7656,1381.8125 Q451.7656,1378.6875 453.0781,1377.0313 Q454.4063,1375.375 456.9063,1375.375 Q457.6094,1375.375 458.25,1375.5313 Q458.9063,1375.6875 459.4688,1375.9844 L459.4688,1378.7031 Q458.8438,1378.125 458.25,1377.8594 Q457.6563,1377.5781 457.0313,1377.5781 Q455.6875,1377.5781 455,1378.6563 Q454.3125,1379.7188 454.3125,1381.8125 Q454.3125,1383.9063 455,1384.9844 Q455.6875,1386.0469 457.0313,1386.0469 Q457.6563,1386.0469 458.25,1385.7813 Q458.8438,1385.5 459.4688,1384.9219 L459.4688,1387.6406 Z "/><text fill="#000000" font-family="sans-serif" font-size="12" lengthAdjust="spacingAndGlyphs" textLength="423" x="470.5" y="1386.1543">edge_iterator&lt;digraph&lt;twa_graph_state, twa_graph_edge_data&gt;&gt;</text><line style="stroke: #A80036; stroke-width: 1.5;" x1="442.5" x2="895.5" y1="1398" y2="1398"/><text fill="#000000" font-family="sans-serif" font-size="11" lengthAdjust="spacingAndGlyphs" textLength="66" x="447.5" y="1412.2104">unsigned t_</text><line style="stroke: #A80036; stroke-width: 1.5;" x1="442.5" x2="895.5" y1="1418.8047" y2="1418.8047"/><text fill="#000000" font-family="sans-serif" font-size="11" lengthAdjust="spacingAndGlyphs" textLength="179" x="447.5" y="1433.0151">bool operator==(edge_iterator)</text><text fill="#000000" font-family="sans-serif" font-size="11" lengthAdjust="spacingAndGlyphs" textLength="173" x="447.5" y="1445.8198">bool operator!=(edge_iterator)</text><text fill="#000000" font-family="sans-serif" font-size="11" lengthAdjust="spacingAndGlyphs" textLength="373" x="447.5" y="1458.6245">edge_storage&lt;twa_graph_edge_data&gt;&amp; operator*(edge_iterator)</text><text fill="#000000" font-family="sans-serif" font-size="11" lengthAdjust="spacingAndGlyphs" textLength="376" x="447.5" y="1471.4292">edge_storage&lt;twa_graph_edge_data&gt;* operator-&gt;(edge_iterator)</text><text fill="#000000" font-family="sans-serif" font-size="11" lengthAdjust="spacingAndGlyphs" textLength="155" x="447.5" y="1484.2339">edge_iterator operator++()</text><line style="stroke: #A80036; stroke-width: 1.0; stroke-dasharray: 1.0,2.0;" x1="442.5" x2="606" y1="1497.2305" y2="1497.2305"/><text fill="#000000" font-family="sans-serif" font-size="11" lengthAdjust="spacingAndGlyphs" textLength="126" x="606" y="1500.5386">other methods hidden</text><line style="stroke: #A80036; stroke-width: 1.0; stroke-dasharray: 1.0,2.0;" x1="732" x2="895.5" y1="1497.2305" y2="1497.2305"/><!--class edge_storage<twa_graph_edge_data>--><rect fill="#FEFECE" filter="url(#f1le3uzlyjujbn)" height="86.4141" id="edge_storage&lt;twa_graph_edge_data&gt;" style="stroke: #A80036; stroke-width: 1.5;" width="277" x="922.5" y="711"/><ellipse cx="937.5" cy="727" fill="#ADD1B2" rx="11" ry="11" style="stroke: #A80036; stroke-width: 1.0;"/><path d="M940.4688,732.6406 Q939.8906,732.9375 939.25,733.0781 Q938.6094,733.2344 937.9063,733.2344 Q935.4063,733.2344 934.0781,731.5938 Q932.7656,729.9375 932.7656,726.8125 Q932.7656,723.6875 934.0781,722.0313 Q935.4063,720.375 937.9063,720.375 Q938.6094,720.375 939.25,720.5313 Q939.9063,720.6875 940.4688,720.9844 L940.4688,723.7031 Q939.8438,723.125 939.25,722.8594 Q938.6563,722.5781 938.0313,722.5781 Q936.6875,722.5781 936,723.6563 Q935.3125,724.7188 935.3125,726.8125 Q935.3125,728.9063 936,729.9844 Q936.6875,731.0469 938.0313,731.0469 Q938.6563,731.0469 939.25,730.7813 Q939.8438,730.5 940.4688,729.9219 L940.4688,732.6406 Z "/><text fill="#000000" font-family="sans-serif" font-size="12" lengthAdjust="spacingAndGlyphs" textLength="245" x="951.5" y="731.1543">edge_storage&lt;twa_graph_edge_data&gt;</text><line style="stroke: #A80036; stroke-width: 1.5;" x1="923.5" x2="1198.5" y1="743" y2="743"/><ellipse cx="933.5" cy="754.9023" fill="none" rx="3" ry="3" style="stroke: #038048; stroke-width: 1.0;"/><text fill="#000000" font-family="sans-serif" font-size="11" lengthAdjust="spacingAndGlyphs" textLength="74" x="942.5" y="757.2104">unsigned src</text><ellipse cx="933.5" cy="767.707" fill="none" rx="3" ry="3" style="stroke: #038048; stroke-width: 1.0;"/><text fill="#000000" font-family="sans-serif" font-size="11" lengthAdjust="spacingAndGlyphs" textLength="74" x="942.5" y="770.0151">unsigned dst</text><ellipse cx="933.5" cy="780.5117" fill="none" rx="3" ry="3" style="stroke: #038048; stroke-width: 1.0;"/><text fill="#000000" font-family="sans-serif" font-size="11" lengthAdjust="spacingAndGlyphs" textLength="112" x="942.5" y="782.8198">unsigned next_succ</text><line style="stroke: #A80036; stroke-width: 1.5;" x1="923.5" x2="1198.5" y1="789.4141" y2="789.4141"/><!--class distate_storage<twa_graph_state>--><rect fill="#FEFECE" filter="url(#f1le3uzlyjujbn)" height="73.6094" id="distate_storage&lt;twa_graph_state&gt;" style="stroke: #A80036; stroke-width: 1.5;" width="255" x="160.5" y="717"/><ellipse cx="175.5" cy="733" fill="#ADD1B2" rx="11" ry="11" style="stroke: #A80036; stroke-width: 1.0;"/><path d="M178.4688,738.6406 Q177.8906,738.9375 177.25,739.0781 Q176.6094,739.2344 175.9063,739.2344 Q173.4063,739.2344 172.0781,737.5938 Q170.7656,735.9375 170.7656,732.8125 Q170.7656,729.6875 172.0781,728.0313 Q173.4063,726.375 175.9063,726.375 Q176.6094,726.375 177.25,726.5313 Q177.9063,726.6875 178.4688,726.9844 L178.4688,729.7031 Q177.8438,729.125 177.25,728.8594 Q176.6563,728.5781 176.0313,728.5781 Q174.6875,728.5781 174,729.6563 Q173.3125,730.7188 173.3125,732.8125 Q173.3125,734.9063 174,735.9844 Q174.6875,737.0469 176.0313,737.0469 Q176.6563,737.0469 177.25,736.7813 Q177.8438,736.5 178.4688,735.9219 L178.4688,738.6406 Z "/><text fill="#000000" font-family="sans-serif" font-size="12" lengthAdjust="spacingAndGlyphs" textLength="223" x="189.5" y="737.1543">distate_storage&lt;twa_graph_state&gt;</text><line style="stroke: #A80036; stroke-width: 1.5;" x1="161.5" x2="414.5" y1="749" y2="749"/><ellipse cx="171.5" cy="760.9023" fill="none" rx="3" ry="3" style="stroke: #038048; stroke-width: 1.0;"/><text fill="#000000" font-family="sans-serif" font-size="11" lengthAdjust="spacingAndGlyphs" textLength="82" x="180.5" y="763.2104">unsigned succ</text><ellipse cx="171.5" cy="773.707" fill="none" rx="3" ry="3" style="stroke: #038048; stroke-width: 1.0;"/><text fill="#000000" font-family="sans-serif" font-size="11" lengthAdjust="spacingAndGlyphs" textLength="105" x="180.5" y="776.0151">unsigned succ_tail</text><line style="stroke: #A80036; stroke-width: 1.5;" x1="161.5" x2="414.5" y1="782.6094" y2="782.6094"/><!--link Forward Iterator to edge_iterator<digraph<twa_graph_state, twa_graph_edge_data>>--><path d="M140.5394,1295.8452 C141.7001,1296.238 142.8544,1296.6233 144,1297 C240.3774,1328.6909 348.3884,1358.6295 441.2679,1382.6993 " fill="none" id="Forward Iterator-edge_iterator&lt;digraph&lt;twa_graph_state, twa_graph_edge_data&gt;&gt;" style="stroke: #A80036; stroke-width: 1.0; stroke-dasharray: 7.0,7.0;"/><polygon fill="none" points="137.9656,1302.3586,121.5122,1289.0061,142.7011,1289.1838,137.9656,1302.3586" style="stroke: #A80036; stroke-width: 1.0;"/><text fill="#000000" font-family="sans-serif" font-size="13" lengthAdjust="spacingAndGlyphs" textLength="56" x="258" y="1332.0669">model of</text><!--link twa to twa_graph--><path d="M845.1901,91.7148 C826.4472,119.8292 798.7106,161.4341 774.604,197.5941 " fill="none" id="twa-twa_graph" style="stroke: #A80036; stroke-width: 1.0;"/><polygon fill="none" points="839.4085,87.7677,856.3269,75.0096,851.0572,95.5336,839.4085,87.7677" style="stroke: #A80036; stroke-width: 1.0;"/><!--link twa_graph to digraph<twa_graph_state, twa_graph_edge_data>--><path d="M725,358.1417 C725,358.1417 725,426.385 725,455.5364 " fill="none" id="twa_graph-digraph&lt;twa_graph_state, twa_graph_edge_data&gt;" style="stroke: #A80036; stroke-width: 1.0;"/><polygon fill="#A80036" points="725,468.8942,729,459.8942,725,463.8942,721,459.8942,725,468.8942" style="stroke: #A80036; stroke-width: 1.0;"/><line style="stroke: #A80036; stroke-width: 1.0;" x1="725" x2="725.0001" y1="463.8942" y2="455.8941"/><polygon fill="#A80036" points="725,346.1417,721,352.1417,725,358.1417,729,352.1417,725,346.1417" style="stroke: #A80036; stroke-width: 1.0;"/><text fill="#000000" font-family="sans-serif" font-size="13" lengthAdjust="spacingAndGlyphs" textLength="8" x="716.4375" y="458.0369">1</text><!--link digraph<twa_graph_state, twa_graph_edge_data> to edge_storage<twa_graph_edge_data>--><path d="M804.8473,574.0835 C804.8473,574.0835 934.9643,665.4749 988.7125,703.2266 " fill="none" id="digraph&lt;twa_graph_state, twa_graph_edge_data&gt;-edge_storage&lt;twa_graph_edge_data&gt;" style="stroke: #A80036; stroke-width: 1.0;"/><polygon fill="#A80036" points="999.5297,710.8244,994.464,702.3782,995.4381,707.9505,989.8658,708.9247,999.5297,710.8244" style="stroke: #A80036; stroke-width: 1.0;"/><line style="stroke: #A80036; stroke-width: 1.0;" x1="995.4381" x2="988.8916" y1="707.9505" y2="703.3524"/><polygon fill="#A80036" points="795.0276,567.1861,797.6383,573.908,804.8473,574.0835,802.2366,567.3616,795.0276,567.1861" style="stroke: #A80036; stroke-width: 1.0;"/><text fill="#000000" font-family="sans-serif" font-size="13" lengthAdjust="spacingAndGlyphs" textLength="7" x="982.1751" y="699.7925">*</text><!--link digraph<twa_graph_state, twa_graph_edge_data> to distate_storage<twa_graph_state>--><path d="M623.6294,572.7448 C623.6294,572.7448 440.0474,671.8875 368.4804,710.5369 " fill="none" id="digraph&lt;twa_graph_state, twa_graph_edge_data&gt;-distate_storage&lt;twa_graph_state&gt;" style="stroke: #A80036; stroke-width: 1.0;"/><polygon fill="#A80036" points="356.8494,716.8182,366.6691,716.0611,361.2488,714.4423,362.8676,709.022,356.8494,716.8182" style="stroke: #A80036; stroke-width: 1.0;"/><line style="stroke: #A80036; stroke-width: 1.0;" x1="361.2488" x2="368.288" y1="714.4423" y2="710.6408"/><polygon fill="#A80036" points="634.188,567.0426,627.0079,566.3742,623.6294,572.7448,630.8094,573.4133,634.188,567.0426" style="stroke: #A80036; stroke-width: 1.0;"/><text fill="#000000" font-family="sans-serif" font-size="13" lengthAdjust="spacingAndGlyphs" textLength="7" x="361.4898" y="705.9728">*</text><!--link twa_graph_edge_data to edge_storage<twa_graph_edge_data>--><path d="M1067.8177,575.2248 C1066.2266,616.9471 1064.1038,672.6121 1062.6522,710.6769 " fill="none" id="twa_graph_edge_data-edge_storage&lt;twa_graph_edge_data&gt;" style="stroke: #A80036; stroke-width: 1.0;"/><polygon fill="none" points="1060.8267,574.8533,1068.5838,555.1346,1074.8165,575.3869,1060.8267,574.8533" style="stroke: #A80036; stroke-width: 1.0;"/><!--link twa_graph_state to distate_storage<twa_graph_state>--><path d="M288,554.2312 C288,598.3215 288,672.3734 288,716.8674 " fill="none" id="twa_graph_state-distate_storage&lt;twa_graph_state&gt;" style="stroke: #A80036; stroke-width: 1.0;"/><polygon fill="none" points="281.0001,554.2213,288,534.2212,295.0001,554.2212,281.0001,554.2213" style="stroke: #A80036; stroke-width: 1.0;"/><!--link twa to acc_cond--><path d="M884.3295,84.9942 C884.3295,84.9942 963.5437,203.8155 990.8631,244.7947 " fill="none" id="twa-acc_cond" style="stroke: #A80036; stroke-width: 1.0;"/><polygon fill="#A80036" points="998.2031,255.8046,996.539,246.0973,995.4296,251.6443,989.8826,250.5349,998.2031,255.8046" style="stroke: #A80036; stroke-width: 1.0;"/><line style="stroke: #A80036; stroke-width: 1.0;" x1="995.4296" x2="990.992" y1="251.6443" y2="244.9879"/><polygon fill="#A80036" points="877.6731,75.0096,877.6731,82.2207,884.3295,84.9942,884.3295,77.7831,877.6731,75.0096" style="stroke: #A80036; stroke-width: 1.0;"/><!--link state_out<digraph<twa_graph_state, twa_graph_edge_data>> to digraph<twa_graph_state, twa_graph_edge_data>--><path d="M678.9084,699.1636 C678.9084,699.1636 688.5281,650.826 694,628 C697.758,612.3233 702.2533,595.5171 706.6393,579.8775 " fill="none" id="state_out&lt;digraph&lt;twa_graph_state, twa_graph_edge_data&gt;&gt;-digraph&lt;twa_graph_state, twa_graph_edge_data&gt;" style="stroke: #A80036; stroke-width: 1.0;"/><polygon fill="#A80036" points="710.2792,567.0651,703.9719,574.6294,708.9128,571.8748,711.6674,576.8156,710.2792,567.0651" style="stroke: #A80036; stroke-width: 1.0;"/><line style="stroke: #A80036; stroke-width: 1.0;" x1="708.9128" x2="706.7265" y1="571.8748" y2="579.5703"/><polygon fill="#FFFFFF" points="676.671,710.9532,681.7196,705.8042,678.9084,699.1636,673.8598,704.3126,676.671,710.9532" style="stroke: #A80036; stroke-width: 1.0;"/><!--link digraph<twa_graph_state, twa_graph_edge_data> to state_out<digraph<twa_graph_state, twa_graph_edge_data>>--><path d="M716.1186,567.1407 C714.1792,577.3558 712.0818,588.041 710,598 C702.7201,632.825 701.0353,641.5887 692,676 C689.4426,685.74 686.5247,696.1077 683.6459,705.9972 " fill="none" id="digraph&lt;twa_graph_state, twa_graph_edge_data&gt;-state_out&lt;digraph&lt;twa_graph_state, twa_graph_edge_data&gt;&gt;" style="stroke: #A80036; stroke-width: 1.0; stroke-dasharray: 7.0,7.0;"/><polygon fill="#A80036" points="682.2375,710.8088,688.6046,703.2948,683.6421,706.0101,680.9268,701.0476,682.2375,710.8088" style="stroke: #A80036; stroke-width: 1.0;"/><text fill="#000000" font-family="sans-serif" font-size="13" lengthAdjust="spacingAndGlyphs" textLength="41" x="704" y="641.0669">create</text><!--link state_out<digraph<twa_graph_state, twa_graph_edge_data>> to edge_iterator<digraph<twa_graph_state, twa_graph_edge_data>>--><path d="M669,797.2162 C669,816.041 669,838.362 669,858.5 C669,858.5 669,858.5 669,1270 C669,1299.517 669,1331.9512 669,1360.3833 " fill="none" id="state_out&lt;digraph&lt;twa_graph_state, twa_graph_edge_data&gt;&gt;-edge_iterator&lt;digraph&lt;twa_graph_state, twa_graph_edge_data&gt;&gt;" style="stroke: #A80036; stroke-width: 1.0; stroke-dasharray: 7.0,7.0;"/><polygon fill="#A80036" points="669,1365.644,673,1356.644,669,1360.644,665,1356.644,669,1365.644" style="stroke: #A80036; stroke-width: 1.0;"/><text fill="#000000" font-family="sans-serif" font-size="13" lengthAdjust="spacingAndGlyphs" textLength="41" x="670" y="1057.0669">create</text><!--link edge_iterator<digraph<twa_graph_state, twa_graph_edge_data>> to digraph<twa_graph_state, twa_graph_edge_data>--><path d="M908.6177,1410.7023 C908.6177,1410.7023 1236,1342.3363 1236,1270 C1236,636.5 1236,636.5 1236,636.5 C1236,628.8838 1096.3924,596.8547 963.1202,568.0142 " fill="none" id="edge_iterator&lt;digraph&lt;twa_graph_state, twa_graph_edge_data&gt;&gt;-digraph&lt;twa_graph_state, twa_graph_edge_data&gt;" style="stroke: #A80036; stroke-width: 1.0;"/><polygon fill="#A80036" points="950.2476,565.2341,958.2003,571.0439,955.1349,566.2896,959.8892,563.2242,950.2476,565.2341" style="stroke: #A80036; stroke-width: 1.0;"/><line style="stroke: #A80036; stroke-width: 1.0;" x1="955.1349" x2="962.9546" y1="566.2896" y2="567.9785"/><polygon fill="#FFFFFF" points="896.7616,1412.555,903.3072,1415.5807,908.6177,1410.7023,902.0721,1407.6766,896.7616,1412.555" style="stroke: #A80036; stroke-width: 1.0;"/><!--
@startuml
package stl {
  class "Forward Iterator" <<Concept>>
  hide "Forward Iterator" members
  hide "Forward Iterator" circle
}
package spot {
  package internal {
    class "state_out<digraph<twa_graph_state, twa_graph_edge_data>>" {
       unsigned t_
       __
       edge_iterator<digraph<twa_graph_state, twa_graph_edge_data>> begin()
       edge_iterator<digraph<twa_graph_state, twa_graph_edge_data>> end()
    }

    class "edge_iterator<digraph<twa_graph_state, twa_graph_edge_data>>" {
      unsigned t_
      __
      bool operator==(edge_iterator)
      bool operator!=(edge_iterator)
      edge_storage<twa_graph_edge_data>& operator*(edge_iterator)
      edge_storage<twa_graph_edge_data>* operator->(edge_iterator)
      edge_iterator operator++()
      .. other methods hidden ..
    }

    "Forward Iterator" <|.. "edge_iterator<digraph<twa_graph_state, twa_graph_edge_data>>": model of

    class "edge_storage<twa_graph_edge_data>" {
      +unsigned src
      +unsigned dst
      +unsigned next_succ
    }

    class "distate_storage<twa_graph_state>" {
      +unsigned succ
      +unsigned succ_tail
    }

  }

  class twa_graph {
    +typedef digraph<twa_graph_state, twa_graph_edge_data> graph_t
    __
    +twa_graph(const bdd_dict_ptr&)
    +graph_t& get_graph()
    .. exploration ..
    +unsigned get_init_state_number()
    +internal::state_out<graph_t> out(unsigned src)
    .. other methods hidden ..
  }

  twa <|- - twa_graph
  abstract class twa
  hide twa members

  class "digraph<twa_graph_state, twa_graph_edge_data>" {
    +internal::edge_storage<twa_graph_edge_data> edge_storage(unsigned s)
    +internal::distate_storage<twa_graph_state> state_storage(unsigned s)
    +internal::state_out<graph_t> out(unsigned src)
    .. other details omitted ..
  }

  twa_graph *- -> "1" "digraph<twa_graph_state, twa_graph_edge_data>"

  class twa_graph_edge_data {
   +bdd cond
   +acc_cond::mark_t acc
  }

  "digraph<twa_graph_state, twa_graph_edge_data>" *- -> "*" "edge_storage<twa_graph_edge_data>"
  "digraph<twa_graph_state, twa_graph_edge_data>" *- -> "*" "distate_storage<twa_graph_state>"

  twa_graph_edge_data <|- - "edge_storage<twa_graph_edge_data>"
  twa_graph_state <|- - "distate_storage<twa_graph_state>"
  hide twa_graph_state members

  class acc_cond
  hide acc_cond members
  twa *- -> acc_cond

  "state_out<digraph<twa_graph_state, twa_graph_edge_data>>" o- -> "digraph<twa_graph_state, twa_graph_edge_data>"
  "digraph<twa_graph_state, twa_graph_edge_data>" ...> "state_out<digraph<twa_graph_state, twa_graph_edge_data>>" : "create"
  "state_out<digraph<twa_graph_state, twa_graph_edge_data>>" ...> "edge_iterator<digraph<twa_graph_state, twa_graph_edge_data>>" : "create"
  "edge_iterator<digraph<twa_graph_state, twa_graph_edge_data>>" o- -> "digraph<twa_graph_state, twa_graph_edge_data>"
}

@enduml

PlantUML version 1.2019.08(Sat Jul 13 19:25:14 UTC 2019)
(GPL source distribution)
Java Runtime: OpenJDK Runtime Environment
JVM: OpenJDK 64-Bit Server VM
Java Version: 11.0.4+11-post-Debian-1deb10u1
Operating System: Linux
OS Version: 5.2.0-2-amd64
Default Encoding: UTF-8
Language: en
Country: US
--></g></svg>